<?xml version="1.0" standalone="no"?>
<!DOCTYPE svg PUBLIC "-//W3C//DTD SVG 1.1//EN" "http://www.w3.org/Graphics/SVG/1.1/DTD/svg11.dtd" >
<svg xmlns="http://www.w3.org/2000/svg" xmlns:xlink="http://www.w3.org/1999/xlink" version="1.1">
<metadata>
Created by FontForge 20170812 at Fri May  5 01:34:56 2017
 By www-data

</metadata>
<defs>
<font id="SFMono-HeavyItalic" horiz-adv-x="1266" >
  <font-face 
    font-family="SFMono"
    font-weight="900"
    font-style="italic"
    font-stretch="normal"
    units-per-em="2048"
    panose-1="2 11 0 9 0 0 2 0 0 0"
    ascent="1638"
    descent="-410"
    x-height="1113"
    cap-height="1443"
    bbox="-167 -595 1740 2358"
    underline-thickness="100"
    underline-position="-200"
    slope="-10"
    stemh="293"
    stemv="343"
    unicode-range="U+0020-FB02"
  />
<missing-glyph 
 />
    <glyph glyph-name=".notdef" 
 />
    <glyph glyph-name="glyph1" 
 />
    <glyph glyph-name="nonmarkingreturn" horiz-adv-x="0" 
 />
    <glyph glyph-name="space" unicode=" " 
 />
    <glyph glyph-name="A" unicode="A" 
d="M609 581h251l-20 537h-19zM881 0l-12 317h-365l-125 -317h-379l662 1443h450l154 -1443h-385z" />
    <glyph glyph-name="Agrave" unicode="&#xc0;" 
d="M1068 1596h-312l-247 326h358zM609 581h251l-20 537h-19zM881 0l-12 317h-365l-125 -317h-379l662 1443h450l154 -1443h-385z" />
    <glyph glyph-name="Aacute" unicode="&#xc1;" 
d="M1432 1922l-361 -326h-316l315 326h362zM609 581h251l-20 537h-19zM662 1443h450l154 -1443h-385l-12 317h-365l-125 -317h-379z" />
    <glyph glyph-name="Adieresis" unicode="&#xc4;" 
d="M685 1600c-93 0 -170 76 -170 170s77 170 170 170s170 -76 170 -170s-77 -170 -170 -170zM609 581h251l-20 537h-19zM662 1443h450l154 -1443h-385l-12 317h-365l-125 -317h-379zM1191 1940c93 0 170 -76 170 -170s-77 -170 -170 -170s-170 76 -170 170s77 170 170 170z
" />
    <glyph glyph-name="Adieresismacron" unicode="&#x1de;" 
d="M683 1559c-93 0 -170 76 -170 170s77 170 170 170s170 -76 170 -170s-77 -170 -170 -170zM609 581h251l-20 537h-19zM662 1443h450l154 -1443h-385l-12 317h-365l-125 -317h-379zM1189 1899c93 0 170 -76 170 -170s-77 -170 -170 -170s-170 76 -170 170s77 170 170 170z
M625 2187h782l-35 -196h-782z" />
    <glyph glyph-name="Aring" unicode="&#xc5;" 
d="M935 1833c-51 0 -90 -38 -90 -89s39 -89 90 -89c53 0 90 39 90 89c0 51 -39 89 -90 89zM936 1543c-121 0 -209 85 -209 203c0 116 87 199 209 199c120 0 207 -83 207 -199c0 -118 -87 -203 -207 -203zM609 581h251l-20 537h-19zM881 0l-12 317h-365l-125 -317h-379
l662 1443h450l154 -1443h-385z" />
    <glyph glyph-name="Aringacute" unicode="&#x1fa;" 
d="M1256 2230l-149 -195h-273l121 195h301zM938 1851c-51 0 -90 -38 -90 -89s39 -89 90 -89c53 0 90 39 90 89c0 51 -39 89 -90 89zM939 1561c-121 0 -209 85 -209 203c0 116 87 199 209 199c120 0 207 -83 207 -199c0 -118 -87 -203 -207 -203zM609 581h251l-20 537h-19z
M881 0l-12 317h-365l-125 -317h-379l662 1443h450l154 -1443h-385z" />
    <glyph glyph-name="Atilde" unicode="&#xc3;" 
d="M1156 1884h210c-33 -180 -146 -314 -295 -314c-157 0 -194 139 -271 139c-40 0 -71 -41 -89 -125h-210c36 195 148 320 296 320c157 0 195 -139 272 -139c40 0 69 37 87 119zM609 581h251l-20 537h-19zM662 1443h450l154 -1443h-385l-12 317h-365l-125 -317h-379z" />
    <glyph glyph-name="Abrevegrave" unicode="&#x1eb0;" 
d="M1072 1945h-239l-172 267h293zM609 581h251l-20 537h-19zM662 1443h450l154 -1443h-385l-12 317h-365l-125 -317h-379zM1124 1921h247c-17 -192 -212 -340 -449 -340c-243 0 -408 145 -387 340h244c0 -95 62 -155 161 -155c102 0 179 65 184 155z" />
    <glyph glyph-name="Adotmacron" unicode="&#x1e0;" 
d="M609 581h251l-20 537h-19zM662 1443h450l154 -1443h-385l-12 317h-365l-125 -317h-379zM1099 1730c0 -94 -77 -170 -170 -170s-170 76 -170 170s77 170 170 170s170 -76 170 -170zM621 2187h782l-35 -196h-782z" />
    <glyph glyph-name="Aringbelow" unicode="&#x1e00;" 
d="M572 -437c50 0 90 41 90 90s-40 90 -90 90s-90 -41 -90 -90s40 -90 90 -90zM572 -99c136 0 248 -112 248 -248s-112 -248 -248 -248s-248 112 -248 248s112 248 248 248zM609 581h251l-20 537h-19zM1266 0h-385l-12 317h-365l-125 -317h-379l662 1443h450z" />
    <glyph glyph-name="Acircumflex" unicode="&#xc2;" 
d="M967 1785l-166 -190h-307l337 350h330l213 -350h-289l-98 190h-20zM609 581h251l-20 537h-19zM662 1443h450l154 -1443h-385l-12 317h-365l-125 -317h-379z" />
    <glyph glyph-name="Acircumflexdotbelow" unicode="&#x1eac;" 
d="M967 1785l-166 -190h-307l337 350h330l213 -350h-289l-98 190h-20zM579 -125c101 0 183 -82 183 -183s-82 -183 -183 -183s-183 82 -183 183s82 183 183 183zM609 581h251l-20 537h-19zM662 1443h450l154 -1443h-385l-12 317h-365l-125 -317h-379z" />
    <glyph glyph-name="Acircumflexacute" unicode="&#x1ea4;" 
d="M609 581h251l-20 537h-19zM662 1443h450l154 -1443h-385l-12 317h-365l-125 -317h-379zM778 1856h340l221 -275h-294l-104 146h-22l-156 -146h-302zM1429 2212h305l-249 -315h-273z" />
    <glyph glyph-name="Acircumflextilde" unicode="&#x1eaa;" 
d="M1206 2203h206c-29 -148 -143 -261 -282 -261c-154 0 -186 110 -267 110c-36 0 -66 -35 -82 -97h-206c31 163 144 269 283 269c154 0 187 -110 268 -110c36 0 64 31 80 89zM609 581h251l-20 537h-19zM662 1443h450l154 -1443h-385l-12 317h-365l-125 -317h-379zM781 1856
h340l221 -275h-294l-104 146h-22l-156 -146h-302z" />
    <glyph glyph-name="Acircumflexgrave" unicode="&#x1ea6;" 
d="M1534 1897h-267l-139 315h298zM609 581h251l-20 537h-19zM662 1443h450l154 -1443h-385l-12 317h-365l-125 -317h-379zM784 1856h340l221 -275h-298l-104 146h-22l-156 -146h-298z" />
    <glyph glyph-name="Acircumflexhookabove" unicode="&#x1ea8;" 
d="M609 581h251l-20 537h-19zM662 1443h450l154 -1443h-385l-12 317h-365l-125 -317h-379zM784 1856h340l221 -275h-298l-104 146h-22l-156 -146h-298zM1136 2047l29 162c52 15 103 24 158 24c131 0 226 -77 226 -193c0 -128 -91 -224 -249 -269l-78 115
c85 28 127 73 127 114c0 43 -30 66 -94 66c-44 0 -92 -8 -119 -19z" />
    <glyph glyph-name="Abreve" unicode="&#x102;" 
d="M1129 1932h247c-39 -212 -223 -351 -462 -351c-237 0 -401 152 -377 351h244c-1 -96 60 -160 151 -160c100 0 175 60 197 160zM609 581h251l-20 537h-19zM662 1443h450l154 -1443h-385l-12 317h-365l-125 -317h-379z" />
    <glyph glyph-name="Abreveacute" unicode="&#x1eae;" 
d="M1335 2212l-266 -267h-247l212 267h301zM609 581h251l-20 537h-19zM662 1443h450l154 -1443h-385l-12 317h-365l-125 -317h-379zM1124 1921h247c-17 -192 -212 -340 -449 -340c-243 0 -408 145 -387 340h244c0 -95 62 -155 161 -155c102 0 179 65 184 155z" />
    <glyph glyph-name="Abrevetilde" unicode="&#x1eb4;" 
d="M1208 2203h204c-30 -152 -148 -261 -284 -261c-154 0 -184 110 -265 110c-48 0 -85 -39 -90 -97h-217c10 153 140 269 300 269c154 0 191 -110 272 -110c40 0 69 32 80 89zM609 581h251l-20 537h-19zM662 1443h450l154 -1443h-385l-12 317h-365l-125 -317h-379zM550 1881
h223c0 -82 63 -136 158 -136c105 0 182 54 192 136h229c-25 -173 -206 -300 -428 -300c-243 0 -386 114 -374 300z" />
    <glyph glyph-name="Abrevehookabove" unicode="&#x1eb2;" 
d="M924 1830l-67 108c66 23 106 60 106 97c0 41 -30 61 -90 61c-40 0 -86 -6 -116 -16l28 148c52 15 101 23 150 23c130 0 220 -73 220 -177c0 -112 -82 -198 -231 -244zM1123 1881h229c-25 -173 -206 -300 -428 -300c-243 0 -386 114 -374 300h223c0 -82 63 -136 158 -136
c105 0 182 54 192 136zM609 581h251l-20 537h-19zM662 1443h450l154 -1443h-385l-12 317h-365l-125 -317h-379z" />
    <glyph glyph-name="Abrevedotbelow" unicode="&#x1eb6;" 
d="M1129 1932h247c-39 -212 -223 -351 -462 -351c-237 0 -401 152 -377 351h244c-1 -96 60 -160 151 -160c100 0 175 60 197 160zM579 -125c101 0 183 -82 183 -183s-82 -183 -183 -183s-183 82 -183 183s82 183 183 183zM609 581h251l-20 537h-19zM662 1443h450l154 -1443
h-385l-12 317h-365l-125 -317h-379z" />
    <glyph glyph-name="Ainvertedbreve" unicode="&#x202;" 
d="M609 581h251l-20 537h-19zM662 1443h450l154 -1443h-385l-12 317h-365l-125 -317h-379zM763 1581h-247c39 212 223 351 462 351c237 0 401 -152 377 -351h-244c1 96 -60 160 -151 160c-100 0 -175 -60 -197 -160z" />
    <glyph glyph-name="Acaron" unicode="&#x1cd;" 
d="M1073 1585h-330l-213 350h289l98 -190h20l166 190h307zM609 581h251l-20 537h-19zM662 1443h450l154 -1443h-385l-12 317h-365l-125 -317h-379z" />
    <glyph glyph-name="Adotaccent" unicode="&#x226;" 
d="M936 1571c-101 0 -183 82 -183 183s82 183 183 183s183 -82 183 -183s-82 -183 -183 -183zM609 581h251l-20 537h-19zM881 0l-12 317h-365l-125 -317h-379l662 1443h450l154 -1443h-385z" />
    <glyph glyph-name="Adotbelow" unicode="&#x1ea0;" 
d="M579 -125c101 0 183 -82 183 -183s-82 -183 -183 -183s-183 82 -183 183s82 183 183 183zM609 581h251l-20 537h-19zM1266 0h-385l-12 317h-365l-125 -317h-379l662 1443h450z" />
    <glyph glyph-name="Ahookabove" unicode="&#x1ea2;" 
d="M890 1555l-72 121c89 28 133 75 133 118c0 45 -32 68 -98 68c-46 0 -97 -8 -125 -19l30 168c54 17 108 26 165 26c137 0 236 -81 236 -201c0 -134 -100 -233 -269 -281zM609 581h251l-20 537h-19zM881 0l-12 317h-365l-125 -317h-379l662 1443h450l154 -1443h-385z" />
    <glyph glyph-name="Adblgrave" unicode="&#x200;" 
d="M1298 1596h-263l-191 326h291zM849 1596h-263l-191 326h290zM609 581h251l-20 537h-19zM662 1443h450l154 -1443h-385l-12 317h-365l-125 -317h-379z" />
    <glyph glyph-name="Amacron" unicode="&#x100;" 
d="M609 581h251l-20 537h-19zM662 1443h450l154 -1443h-385l-12 317h-365l-125 -317h-379zM570 1843h764l-38 -212h-764z" />
    <glyph glyph-name="Aogonek" unicode="&#x104;" 
d="M821 1118l-212 -537h251l-20 537h-19zM881 0l-12 317h-365l-125 -317h-379l662 1443h450l154 -1443c-186 -27 -286 -95 -286 -190c0 -57 51 -95 127 -95c37 0 72 3 93 8l-33 -179c-38 -15 -94 -23 -159 -23c-180 0 -302 90 -302 224c0 99 56 180 175 255z" />
    <glyph glyph-name="B" unicode="B" 
d="M676 1184l-56 -318h152c110 0 192 73 192 171c0 93 -63 147 -171 147h-117zM514 264h185c134 0 215 75 215 200c0 104 -75 158 -220 158h-117zM110 0l254 1443h498c300 0 483 -130 483 -343c0 -180 -126 -309 -339 -345l-4 -19c169 -26 290 -162 290 -328
c0 -237 -209 -408 -497 -408h-685z" />
    <glyph glyph-name="Blinebelow" unicode="&#x1e06;" 
d="M676 1184l-56 -318h152c110 0 192 73 192 171c0 93 -63 147 -171 147h-117zM514 264h185c134 0 215 75 215 200c0 104 -75 158 -220 158h-117zM110 0l254 1443h498c300 0 483 -130 483 -343c0 -180 -126 -309 -339 -345l-4 -19c169 -26 290 -162 290 -328
c0 -237 -209 -408 -497 -408h-685zM875 -440h-764l38 212h764z" />
    <glyph glyph-name="Bdotbelow" unicode="&#x1e04;" 
d="M676 1184l-56 -318h152c110 0 192 73 192 171c0 93 -63 147 -171 147h-117zM514 264h185c134 0 215 75 215 200c0 104 -75 158 -220 158h-117zM110 0l254 1443h498c300 0 483 -130 483 -343c0 -180 -126 -309 -339 -345l-4 -19c169 -26 290 -162 290 -328
c0 -237 -209 -408 -497 -408h-685zM515 -503c-101 0 -183 82 -183 183s82 183 183 183s183 -82 183 -183s-82 -183 -183 -183z" />
    <glyph glyph-name="Bdotaccent" unicode="&#x1e02;" 
d="M676 1184l-56 -318h152c110 0 192 73 192 171c0 93 -63 147 -171 147h-117zM514 264h185c134 0 215 75 215 200c0 104 -75 158 -220 158h-117zM110 0l254 1443h498c300 0 483 -130 483 -343c0 -180 -126 -309 -339 -345l-4 -19c169 -26 290 -162 290 -328
c0 -237 -209 -408 -497 -408h-685zM892 1571c-101 0 -183 82 -183 183s82 183 183 183s183 -82 183 -183s-82 -183 -183 -183z" />
    <glyph glyph-name="C" unicode="C" 
d="M1331 480c-62 -328 -277 -509 -605 -509c-327 0 -554 211 -554 515c0 51 4 95 13 143l54 309c61 347 279 534 625 534c319 0 540 -202 540 -492c0 -17 -2 -38 -6 -77h-373c2 22 3 42 3 75c0 109 -71 184 -174 184c-123 0 -208 -94 -238 -264l-54 -308
c-7 -39 -12 -80 -12 -108c0 -119 74 -200 184 -200c125 0 196 75 227 239c2 11 2 16 3 23h375c-1 -23 -4 -48 -8 -64z" />
    <glyph glyph-name="Cacute" unicode="&#x106;" 
d="M1331 480c-62 -328 -277 -509 -605 -509c-327 0 -554 211 -554 515c0 51 4 95 13 143l54 309c61 347 279 534 625 534c319 0 540 -202 540 -492c0 -17 -2 -38 -6 -77h-373c2 22 3 42 3 75c0 109 -71 184 -174 184c-123 0 -208 -94 -238 -264l-54 -308
c-7 -39 -12 -80 -12 -108c0 -119 74 -200 184 -200c125 0 196 75 227 239c2 11 2 16 3 23h375c-1 -23 -4 -48 -8 -64zM761 1596l315 326h362l-361 -326h-316z" />
    <glyph glyph-name="Ccaron" unicode="&#x10c;" 
d="M1331 480c-62 -328 -277 -509 -605 -509c-327 0 -554 211 -554 515c0 51 4 95 13 143l54 309c61 347 279 534 625 534c319 0 540 -202 540 -492c0 -17 -2 -38 -6 -77h-373c2 22 3 42 3 75c0 109 -71 184 -174 184c-123 0 -208 -94 -238 -264l-54 -308
c-7 -39 -12 -80 -12 -108c0 -119 74 -200 184 -200c125 0 196 75 227 239c2 11 2 16 3 23h375c-1 -23 -4 -48 -8 -64zM749 1585l-213 350h289l98 -190h20l166 190h307l-337 -350h-330z" />
    <glyph glyph-name="Ccircumflex" unicode="&#x108;" 
d="M1331 480c-62 -328 -277 -509 -605 -509c-327 0 -554 211 -554 515c0 51 4 95 13 143l54 309c61 347 279 534 625 534c319 0 540 -202 540 -492c0 -17 -2 -38 -6 -77h-373c2 22 3 42 3 75c0 109 -71 184 -174 184c-123 0 -208 -94 -238 -264l-54 -308
c-7 -39 -12 -80 -12 -108c0 -119 74 -200 184 -200c125 0 196 75 227 239c2 11 2 16 3 23h375c-1 -23 -4 -48 -8 -64zM1167 1945l213 -350h-289l-98 190h-20l-166 -190h-307l337 350h330z" />
    <glyph glyph-name="Cdotaccent" unicode="&#x10a;" 
d="M1331 480c-62 -328 -277 -509 -605 -509c-327 0 -554 211 -554 515c0 51 4 95 13 143l54 309c61 347 279 534 625 534c319 0 540 -202 540 -492c0 -17 -2 -38 -6 -77h-373c2 22 3 42 3 75c0 109 -71 184 -174 184c-123 0 -208 -94 -238 -264l-54 -308
c-7 -39 -12 -80 -12 -108c0 -119 74 -200 184 -200c125 0 196 75 227 239c2 11 2 16 3 23h375c-1 -23 -4 -48 -8 -64zM942 1571c-101 0 -183 82 -183 183s82 183 183 183s183 -82 183 -183s-82 -183 -183 -183z" />
    <glyph glyph-name="Ccedilla" unicode="&#xc7;" 
d="M1398 903h-373c2 22 3 42 3 75c0 109 -71 184 -174 184c-123 0 -208 -94 -238 -264l-54 -308c-7 -39 -12 -80 -12 -108c0 -119 74 -200 184 -200c125 0 196 75 227 239c2 11 2 16 3 23h375c-1 -23 -4 -48 -8 -64c-62 -326 -275 -507 -599 -509l-47 -73
c94 -18 155 -80 155 -157c0 -157 -104 -235 -315 -235c-43 0 -96 7 -141 18l27 152c17 -8 64 -14 107 -14c69 0 113 21 113 54c0 30 -35 45 -104 45h-60l26 137l59 95c-231 61 -380 246 -380 493c0 51 4 95 13 143l54 309c61 347 279 534 625 534c319 0 540 -202 540 -492
c0 -17 -2 -38 -6 -77z" />
    <glyph glyph-name="Ccedillaacute" unicode="&#x1e08;" 
d="M1438 1922l-361 -326h-316l315 326h362zM185 629l54 309c61 347 279 534 625 534c319 0 540 -202 540 -492c0 -17 -2 -38 -6 -77h-373c2 22 3 42 3 75c0 109 -71 184 -174 184c-123 0 -208 -94 -238 -264l-54 -308c-7 -39 -12 -80 -12 -108c0 -119 74 -200 184 -200
c125 0 196 75 227 239c2 11 2 16 3 23h375c-1 -23 -4 -48 -8 -64c-62 -326 -275 -507 -599 -509l-47 -73c94 -18 155 -80 155 -157c0 -157 -104 -235 -315 -235c-43 0 -96 7 -141 18l27 152c17 -8 64 -14 107 -14c69 0 113 21 113 54c0 30 -35 45 -104 45h-60l26 137l59 95
c-231 61 -380 246 -380 493c0 51 4 95 13 143z" />
    <glyph glyph-name="D" unicode="D" 
d="M778 1443c357 0 572 -209 572 -561c0 -39 -1 -74 -4 -108c-2 -34 -6 -66 -12 -98c-78 -446 -299 -676 -651 -676h-592l254 1443h433zM717 1153h-56l-151 -858h109c196 0 284 126 332 399c4 20 7 47 9 76c2 30 3 62 3 94c0 180 -96 289 -246 289z" />
    <glyph glyph-name="Ddotaccent" unicode="&#x1e0a;" 
d="M778 1443c357 0 572 -209 572 -561c0 -39 -1 -74 -4 -108c-2 -34 -6 -66 -12 -98c-78 -446 -299 -676 -651 -676h-592l254 1443h433zM717 1153h-56l-151 -858h109c196 0 284 126 332 399c4 20 7 47 9 76c2 30 3 62 3 94c0 180 -96 289 -246 289zM856 1571
c-101 0 -183 82 -183 183s82 183 183 183s183 -82 183 -183s-82 -183 -183 -183z" />
    <glyph glyph-name="Dcircumflexbelow" unicode="&#x1e12;" 
d="M778 1443c357 0 572 -209 572 -561c0 -39 -1 -74 -4 -108c-2 -34 -6 -66 -12 -98c-78 -446 -299 -676 -651 -676h-592l254 1443h433zM717 1153h-56l-151 -858h109c196 0 284 126 332 399c4 20 7 47 9 76c2 30 3 62 3 94c0 180 -96 289 -246 289zM325 -156h354l198 -365
h-305l-88 197h-20l-154 -197h-313z" />
    <glyph glyph-name="Dcommaaccent" unicode="&#x1e10;" 
d="M778 1443c357 0 572 -209 572 -561c0 -39 -1 -74 -4 -108c-2 -34 -6 -66 -12 -98c-78 -446 -299 -676 -651 -676h-592l254 1443h433zM717 1153h-56l-151 -858h109c196 0 284 126 332 399c4 20 7 47 9 76c2 30 3 62 3 94c0 180 -96 289 -246 289zM441 -504h-306l210 350
h350z" />
    <glyph glyph-name="Dlinebelow" unicode="&#x1e0e;" 
d="M778 1443c357 0 572 -209 572 -561c0 -39 -1 -74 -4 -108c-2 -34 -6 -66 -12 -98c-78 -446 -299 -676 -651 -676h-592l254 1443h433zM717 1153h-56l-151 -858h109c196 0 284 126 332 399c4 20 7 47 9 76c2 30 3 62 3 94c0 180 -96 289 -246 289zM835 -428h-764l38 212
h764z" />
    <glyph glyph-name="Dcaron" unicode="&#x10e;" 
d="M778 1443c357 0 572 -209 572 -561c0 -39 -1 -74 -4 -108c-2 -34 -6 -66 -12 -98c-78 -446 -299 -676 -651 -676h-592l254 1443h433zM717 1153h-56l-151 -858h109c196 0 284 126 332 399c4 20 7 47 9 76c2 30 3 62 3 94c0 180 -96 289 -246 289zM663 1585l-213 350h289
l98 -190h20l166 190h307l-337 -350h-330z" />
    <glyph glyph-name="Ddotbelow" unicode="&#x1e0c;" 
d="M778 1443c357 0 572 -209 572 -561c0 -39 -1 -74 -4 -108c-2 -34 -6 -66 -12 -98c-78 -446 -299 -676 -651 -676h-592l254 1443h433zM717 1153h-56l-151 -858h109c196 0 284 126 332 399c4 20 7 47 9 76c2 30 3 62 3 94c0 180 -96 289 -246 289zM475 -491
c-101 0 -183 82 -183 183s82 183 183 183s183 -82 183 -183s-82 -183 -183 -183z" />
    <glyph glyph-name="Dcroat" unicode="&#x110;" 
d="M542 274h98c179 0 294 134 346 402c6 28 10 62 12 100c3 39 4 83 4 130c0 169 -92 263 -256 263h-46l-56 -317h260l-46 -252h-258zM421 1443h346c352 0 579 -211 579 -539c0 -51 -1 -94 -5 -135c-3 -40 -9 -79 -17 -121c-78 -413 -324 -648 -678 -648h-479l106 600h-134
l46 252h132z" />
    <glyph glyph-name="E" unicode="E" 
d="M1180 295l-52 -295h-954l254 1443h954l-52 -295h-587l-50 -288h550l-48 -270h-550l-52 -295h587z" />
    <glyph glyph-name="Egrave" unicode="&#xc8;" 
d="M866 1922l201 -326h-312l-247 326h358zM1180 295l-52 -295h-954l254 1443h954l-52 -295h-587l-50 -288h550l-48 -270h-550l-52 -295h587z" />
    <glyph glyph-name="Edblgrave" unicode="&#x204;" 
d="M1134 1922l163 -326h-263l-191 326h291zM684 1922l164 -326h-263l-191 326h290zM1180 295l-52 -295h-954l254 1443h954l-52 -295h-587l-50 -288h550l-48 -270h-550l-52 -295h587z" />
    <glyph glyph-name="Eacute" unicode="&#xc9;" 
d="M1180 295l-52 -295h-954l254 1443h954l-52 -295h-587l-50 -288h550l-48 -270h-550l-52 -295h587zM754 1596l315 326h362l-361 -326h-316z" />
    <glyph glyph-name="Ecircumflex" unicode="&#xca;" 
d="M1180 295l-52 -295h-954l254 1443h954l-52 -295h-587l-50 -288h550l-48 -270h-550l-52 -295h587zM1160 1945l213 -350h-289l-98 190h-20l-166 -190h-307l337 350h330z" />
    <glyph glyph-name="Ecircumflexhookabove" unicode="&#x1ec2;" 
d="M1180 295l-52 -295h-954l254 1443h954l-52 -295h-587l-50 -288h550l-48 -270h-550l-52 -295h587zM1123 1856l221 -275h-298l-104 146h-22l-156 -146h-298l317 275h340zM1135 2047l29 162c52 15 103 24 158 24c131 0 226 -77 226 -193c0 -128 -91 -224 -249 -269l-78 115
c85 28 127 73 127 114c0 43 -30 66 -94 66c-44 0 -92 -8 -119 -19z" />
    <glyph glyph-name="Ecircumflexgrave" unicode="&#x1ec0;" 
d="M1180 295l-52 -295h-954l254 1443h954l-52 -295h-587l-50 -288h550l-48 -270h-550l-52 -295h587zM1533 1897h-267l-139 315h298zM1123 1856l221 -275h-298l-104 146h-22l-156 -146h-298l317 275h340z" />
    <glyph glyph-name="Ecircumflextilde" unicode="&#x1ec4;" 
d="M1180 295l-52 -295h-954l254 1443h954l-52 -295h-587l-50 -288h550l-48 -270h-550l-52 -295h587zM1120 1856l221 -275h-294l-104 146h-22l-156 -146h-302l317 275h340zM862 2052c-36 0 -66 -35 -82 -97h-206c31 163 144 269 283 269c154 0 187 -110 268 -110
c36 0 64 31 80 89h206c-29 -148 -143 -261 -282 -261c-154 0 -186 110 -267 110z" />
    <glyph glyph-name="Ecircumflexdotbelow" unicode="&#x1ec6;" 
d="M1180 295l-52 -295h-954l254 1443h954l-52 -295h-587l-50 -288h550l-48 -270h-550l-52 -295h587zM1160 1945l213 -350h-289l-98 190h-20l-166 -190h-307l337 350h330zM579 -491c-101 0 -183 82 -183 183s82 183 183 183s183 -82 183 -183s-82 -183 -183 -183z" />
    <glyph glyph-name="Ecircumflexacute" unicode="&#x1ebe;" 
d="M1180 295l-52 -295h-954l254 1443h954l-52 -295h-587l-50 -288h550l-48 -270h-550l-52 -295h587zM1211 1897l217 315h305l-249 -315h-273zM1117 1856l221 -275h-294l-104 146h-22l-156 -146h-302l317 275h340z" />
    <glyph glyph-name="Edieresis" unicode="&#xcb;" 
d="M1180 295l-52 -295h-954l254 1443h954l-52 -295h-587l-50 -288h550l-48 -270h-550l-52 -295h587zM684 1600c-93 0 -170 76 -170 170s77 170 170 170s170 -76 170 -170s-77 -170 -170 -170zM1190 1600c-93 0 -170 76 -170 170s77 170 170 170s170 -76 170 -170
s-77 -170 -170 -170z" />
    <glyph glyph-name="Edotbelow" unicode="&#x1eb8;" 
d="M1180 295l-52 -295h-954l254 1443h954l-52 -295h-587l-50 -288h550l-48 -270h-550l-52 -295h587zM579 -491c-101 0 -183 82 -183 183s82 183 183 183s183 -82 183 -183s-82 -183 -183 -183z" />
    <glyph glyph-name="Einvertedbreve" unicode="&#x206;" 
d="M1180 295l-52 -295h-954l254 1443h954l-52 -295h-587l-50 -288h550l-48 -270h-550l-52 -295h587zM977 1932c237 0 401 -152 377 -351h-244c1 96 -60 160 -151 160c-100 0 -175 -60 -197 -160h-247c39 212 223 351 462 351z" />
    <glyph glyph-name="Ehookabove" unicode="&#x1eba;" 
d="M1180 295l-52 -295h-954l254 1443h954l-52 -295h-587l-50 -288h550l-48 -270h-550l-52 -295h587zM727 1843l30 168c54 17 108 26 165 26c137 0 236 -81 236 -201c0 -134 -100 -233 -269 -281l-72 121c89 28 133 75 133 118c0 45 -32 68 -98 68c-46 0 -97 -8 -125 -19z
" />
    <glyph glyph-name="Ecaron" unicode="&#x11a;" 
d="M1180 295l-52 -295h-954l254 1443h954l-52 -295h-587l-50 -288h550l-48 -270h-550l-52 -295h587zM742 1585l-213 350h289l98 -190h20l166 190h307l-337 -350h-330z" />
    <glyph glyph-name="Emacron" unicode="&#x112;" 
d="M1180 295l-52 -295h-954l254 1443h954l-52 -295h-587l-50 -288h550l-48 -270h-550l-52 -295h587zM1295 1631h-764l38 212h764z" />
    <glyph glyph-name="Emacrongrave" unicode="&#x1e14;" 
d="M1180 295l-52 -295h-954l254 1443h954l-52 -295h-587l-50 -288h550l-48 -270h-550l-52 -295h587zM1096 1932h-284l-108 280h316zM518 1606l35 196h782l-35 -196h-782z" />
    <glyph glyph-name="Emacronacute" unicode="&#x1e16;" 
d="M518 1606l35 196h782l-35 -196h-782zM1124 1932h-290l176 280h322zM1180 295l-52 -295h-954l254 1443h954l-52 -295h-587l-50 -288h550l-48 -270h-550l-52 -295h587z" />
    <glyph glyph-name="Etilde" unicode="&#x1ebc;" 
d="M1180 295l-52 -295h-954l254 1443h954l-52 -295h-587l-50 -288h550l-48 -270h-550l-52 -295h587zM799 1709c-40 0 -71 -41 -89 -125h-210c36 195 148 320 296 320c157 0 195 -139 272 -139c40 0 69 37 87 119h210c-33 -180 -146 -314 -295 -314c-157 0 -194 139 -271 139
z" />
    <glyph glyph-name="Ecircumflexbelow" unicode="&#x1e18;" 
d="M1180 295l-52 -295h-954l254 1443h954l-52 -295h-587l-50 -288h550l-48 -270h-550l-52 -295h587zM429 -156h354l198 -365h-305l-88 197h-20l-154 -197h-313z" />
    <glyph glyph-name="Ebreve" unicode="&#x114;" 
d="M1180 295l-52 -295h-954l254 1443h954l-52 -295h-587l-50 -288h550l-48 -270h-550l-52 -295h587zM913 1581c-237 0 -401 152 -377 351h244c-1 -96 60 -160 151 -160c100 0 175 60 197 160h247c-39 -212 -223 -351 -462 -351z" />
    <glyph glyph-name="Etildebelow" unicode="&#x1e1a;" 
d="M1180 295l-52 -295h-954l254 1443h954l-52 -295h-587l-50 -288h550l-48 -270h-550l-52 -295h587zM440 -327c-42 0 -75 -46 -92 -130h-219c39 206 156 333 308 333c164 0 203 -145 284 -145c42 0 73 42 90 124h219c-36 -196 -159 -327 -307 -327c-164 0 -202 145 -283 145
z" />
    <glyph glyph-name="Edotaccent" unicode="&#x116;" 
d="M1180 295l-52 -295h-954l254 1443h954l-52 -295h-587l-50 -288h550l-48 -270h-550l-52 -295h587zM935 1571c-101 0 -183 82 -183 183s82 183 183 183s183 -82 183 -183s-82 -183 -183 -183z" />
    <glyph glyph-name="Ecedilla" unicode="&#x228;" 
d="M1330 1148h-587l-50 -288h550l-48 -270h-550l-52 -295h587l-52 -295h-378l-65 -102c94 -18 155 -80 155 -157c0 -157 -104 -235 -315 -235c-43 0 -96 7 -141 18l27 152c17 -8 64 -14 107 -14c69 0 113 21 113 54c0 30 -35 45 -104 45h-60l26 137l64 102h-383l254 1443
h954z" />
    <glyph glyph-name="Ecedillabreve" unicode="&#x1e1c;" 
d="M1128 1932h247c-39 -212 -223 -351 -462 -351c-237 0 -401 152 -377 351h244c-1 -96 60 -160 151 -160c100 0 175 60 197 160zM1330 1148h-587l-50 -288h550l-48 -270h-550l-52 -295h587l-52 -295h-378l-65 -102c94 -18 155 -80 155 -157c0 -157 -104 -235 -315 -235
c-43 0 -96 7 -141 18l27 152c17 -8 64 -14 107 -14c69 0 113 21 113 54c0 30 -35 45 -104 45h-60l26 137l64 102h-383l254 1443h954z" />
    <glyph glyph-name="Eogonek" unicode="&#x118;" 
d="M775 -20l4 20h-605l254 1443h954l-52 -295h-587l-50 -288h550l-48 -270h-550l-52 -295h587l-52 -295c-190 -27 -286 -91 -286 -190c0 -57 51 -95 127 -95c32 0 73 4 93 8l-33 -179c-38 -15 -94 -23 -159 -23c-178 0 -302 88 -302 214c0 113 74 201 207 245z" />
    <glyph glyph-name="F" unicode="F" 
d="M553 0h-367l254 1443h958l-52 -295h-591l-58 -329h534l-49 -281h-534z" />
    <glyph glyph-name="Fdotaccent" unicode="&#x1e1e;" 
d="M553 0h-367l254 1443h958l-52 -295h-591l-58 -329h534l-49 -281h-534zM966 1571c-101 0 -183 82 -183 183s82 183 183 183s183 -82 183 -183s-82 -183 -183 -183z" />
    <glyph glyph-name="G" unicode="G" 
d="M1299 470c-58 -327 -259 -499 -585 -499c-322 0 -540 205 -540 507c0 43 4 94 13 146l53 310c60 346 280 538 617 538c310 0 525 -198 525 -482c0 -16 -1 -32 -2 -38h-358c1 8 2 23 2 36c0 103 -74 176 -177 176c-122 0 -211 -99 -241 -270l-55 -309
c-8 -47 -12 -87 -12 -111c0 -124 74 -202 190 -202c123 0 200 80 226 234l5 29h-244l45 252h594z" />
    <glyph glyph-name="Gacute" unicode="&#x1f4;" 
d="M1299 470c-58 -327 -259 -499 -585 -499c-322 0 -540 205 -540 507c0 43 4 94 13 146l53 310c60 346 280 538 617 538c310 0 525 -198 525 -482c0 -16 -1 -32 -2 -38h-358c1 8 2 23 2 36c0 103 -74 176 -177 176c-122 0 -211 -99 -241 -270l-55 -309
c-8 -47 -12 -87 -12 -111c0 -124 74 -202 190 -202c123 0 200 80 226 234l5 29h-244l45 252h594zM742 1596l315 326h362l-361 -326h-316z" />
    <glyph glyph-name="Gcaron" unicode="&#x1e6;" 
d="M1299 470c-58 -327 -259 -499 -585 -499c-322 0 -540 205 -540 507c0 43 4 94 13 146l53 310c60 346 280 538 617 538c310 0 525 -198 525 -482c0 -16 -1 -32 -2 -38h-358c1 8 2 23 2 36c0 103 -74 176 -177 176c-122 0 -211 -99 -241 -270l-55 -309
c-8 -47 -12 -87 -12 -111c0 -124 74 -202 190 -202c123 0 200 80 226 234l5 29h-244l45 252h594zM730 1585l-213 350h289l98 -190h20l166 190h307l-337 -350h-330z" />
    <glyph glyph-name="Gcircumflex" unicode="&#x11c;" 
d="M1299 470c-58 -327 -259 -499 -585 -499c-322 0 -540 205 -540 507c0 43 4 94 13 146l53 310c60 346 280 538 617 538c310 0 525 -198 525 -482c0 -16 -1 -32 -2 -38h-358c1 8 2 23 2 36c0 103 -74 176 -177 176c-122 0 -211 -99 -241 -270l-55 -309
c-8 -47 -12 -87 -12 -111c0 -124 74 -202 190 -202c123 0 200 80 226 234l5 29h-244l45 252h594zM1148 1945l213 -350h-289l-98 190h-20l-166 -190h-307l337 350h330z" />
    <glyph glyph-name="Gbreve" unicode="&#x11e;" 
d="M1299 470c-58 -327 -259 -499 -585 -499c-322 0 -540 205 -540 507c0 43 4 94 13 146l53 310c60 346 280 538 617 538c310 0 525 -198 525 -482c0 -16 -1 -32 -2 -38h-358c1 8 2 23 2 36c0 103 -74 176 -177 176c-122 0 -211 -99 -241 -270l-55 -309
c-8 -47 -12 -87 -12 -111c0 -124 74 -202 190 -202c123 0 200 80 226 234l5 29h-244l45 252h594zM901 1581c-237 0 -401 152 -377 351h244c-1 -96 60 -160 151 -160c100 0 175 60 197 160h247c-39 -212 -223 -351 -462 -351z" />
    <glyph glyph-name="Gmacron" unicode="&#x1e20;" 
d="M1299 470c-58 -327 -259 -499 -585 -499c-322 0 -540 205 -540 507c0 43 4 94 13 146l53 310c60 346 280 538 617 538c310 0 525 -198 525 -482c0 -16 -1 -32 -2 -38h-358c1 8 2 23 2 36c0 103 -74 176 -177 176c-122 0 -211 -99 -241 -270l-55 -309
c-8 -47 -12 -87 -12 -111c0 -124 74 -202 190 -202c123 0 200 80 226 234l5 29h-244l45 252h594zM1283 1631h-764l38 212h764z" />
    <glyph glyph-name="Gdotaccent" unicode="&#x120;" 
d="M1299 470c-58 -327 -259 -499 -585 -499c-322 0 -540 205 -540 507c0 43 4 94 13 146l53 310c60 346 280 538 617 538c310 0 525 -198 525 -482c0 -16 -1 -32 -2 -38h-358c1 8 2 23 2 36c0 103 -74 176 -177 176c-122 0 -211 -99 -241 -270l-55 -309
c-8 -47 -12 -87 -12 -111c0 -124 74 -202 190 -202c123 0 200 80 226 234l5 29h-244l45 252h594zM923 1571c-101 0 -183 82 -183 183s82 183 183 183s183 -82 183 -183s-82 -183 -183 -183z" />
    <glyph glyph-name="Gcommaaccent" unicode="&#x122;" 
d="M1299 470c-58 -327 -259 -499 -585 -499c-322 0 -540 205 -540 507c0 43 4 94 13 146l53 310c60 346 280 538 617 538c310 0 525 -198 525 -482c0 -16 -1 -32 -2 -38h-358c1 8 2 23 2 36c0 103 -74 176 -177 176c-122 0 -211 -99 -241 -270l-55 -309
c-8 -47 -12 -87 -12 -111c0 -124 74 -202 190 -202c123 0 200 80 226 234l5 29h-244l45 252h594zM590 -504h-306l210 350h350z" />
    <glyph glyph-name="H" unicode="H" 
d="M1175 0h-358l103 582h-368l-103 -582h-358l254 1443h358l-99 -566h368l99 566h358z" />
    <glyph glyph-name="Hdieresis" unicode="&#x1e26;" 
d="M1175 0h-358l103 582h-368l-103 -582h-358l254 1443h358l-99 -566h368l99 566h358zM666 1600c-93 0 -170 76 -170 170s77 170 170 170s170 -76 170 -170s-77 -170 -170 -170zM1172 1600c-93 0 -170 76 -170 170s77 170 170 170s170 -76 170 -170s-77 -170 -170 -170z" />
    <glyph glyph-name="Hcaron" unicode="&#x21e;" 
d="M1175 0h-358l103 582h-368l-103 -582h-358l254 1443h358l-99 -566h368l99 566h358zM724 1585l-213 350h289l98 -190h20l166 190h307l-337 -350h-330z" />
    <glyph glyph-name="Hcircumflex" unicode="&#x124;" 
d="M1175 0h-358l103 582h-368l-103 -582h-358l254 1443h358l-99 -566h368l99 566h358zM1142 1945l213 -350h-289l-98 190h-20l-166 -190h-307l337 350h330z" />
    <glyph glyph-name="Hdotbelow" unicode="&#x1e24;" 
d="M1175 0h-358l103 582h-368l-103 -582h-358l254 1443h358l-99 -566h368l99 566h358zM579 -491c-101 0 -183 82 -183 183s82 183 183 183s183 -82 183 -183s-82 -183 -183 -183z" />
    <glyph glyph-name="Hdotaccent" unicode="&#x1e22;" 
d="M1175 0h-358l103 582h-368l-103 -582h-358l254 1443h358l-99 -566h368l99 566h358zM917 1571c-101 0 -183 82 -183 183s82 183 183 183s183 -82 183 -183s-82 -183 -183 -183z" />
    <glyph glyph-name="Hbrevebelow" unicode="&#x1e2a;" 
d="M1175 0h-358l103 582h-368l-103 -582h-358l254 1443h358l-99 -566h368l99 566h358zM582 -465c-250 0 -422 165 -384 369h241c-6 -101 54 -163 158 -163c110 0 184 63 191 163h245c-12 -216 -200 -369 -451 -369z" />
    <glyph glyph-name="Hcedilla" unicode="&#x1e28;" 
d="M449 0l-65 -102c94 -18 155 -80 155 -157c0 -157 -104 -235 -315 -235c-43 0 -96 7 -141 18l27 152c17 -8 64 -14 107 -14c69 0 113 21 113 54c0 30 -35 45 -104 45h-60l26 137l64 102h-165l254 1443h358l-99 -566h368l99 566h358l-254 -1443h-358l103 582h-368z" />
    <glyph glyph-name="Hbar" unicode="&#x126;" 
d="M638 869h290l33 187h-290zM601 582l-103 -582h-367l185 1047h-89l40 231h89l29 165h367l-29 -165h264l29 165h367l-29 -165h95l-40 -231h-95l-185 -1047h-367l103 582h-264z" />
    <glyph glyph-name="I" unicode="I" 
d="M1120 0h-974l52 295h304l150 853h-304l52 295h974l-52 -295h-304l-150 -853h304z" />
    <glyph glyph-name="Idotaccent" unicode="&#x130;" 
d="M1120 0h-974l52 295h304l150 853h-304l52 295h974l-52 -295h-304l-150 -853h304zM937 1571c-101 0 -183 82 -183 183s82 183 183 183s183 -82 183 -183s-82 -183 -183 -183z" />
    <glyph glyph-name="Igrave" unicode="&#xcc;" 
d="M868 1922l201 -326h-312l-247 326h358zM1120 0h-974l52 295h304l150 853h-304l52 295h974l-52 -295h-304l-150 -853h304z" />
    <glyph glyph-name="Idblgrave" unicode="&#x208;" 
d="M1136 1922l163 -326h-263l-191 326h291zM686 1922l164 -326h-263l-191 326h290zM1120 0h-974l52 295h304l150 853h-304l52 295h974l-52 -295h-304l-150 -853h304z" />
    <glyph glyph-name="Iacute" unicode="&#xcd;" 
d="M1120 0h-974l52 295h304l150 853h-304l52 295h974l-52 -295h-304l-150 -853h304zM756 1596l315 326h362l-361 -326h-316z" />
    <glyph glyph-name="Icircumflex" unicode="&#xce;" 
d="M1120 0h-974l52 295h304l150 853h-304l52 295h974l-52 -295h-304l-150 -853h304zM1162 1945l213 -350h-289l-98 190h-20l-166 -190h-307l337 350h330z" />
    <glyph glyph-name="Icaron" unicode="&#x1cf;" 
d="M1120 0h-974l52 295h304l150 853h-304l52 295h974l-52 -295h-304l-150 -853h304zM744 1585l-213 350h289l98 -190h20l166 190h307l-337 -350h-330z" />
    <glyph glyph-name="Idieresis" unicode="&#xcf;" 
d="M1120 0h-974l52 295h304l150 853h-304l52 295h974l-52 -295h-304l-150 -853h304zM686 1600c-93 0 -170 76 -170 170s77 170 170 170s170 -76 170 -170s-77 -170 -170 -170zM1192 1600c-93 0 -170 76 -170 170s77 170 170 170s170 -76 170 -170s-77 -170 -170 -170z" />
    <glyph glyph-name="Idieresisacute" unicode="&#x1e2e;" 
d="M1120 0h-974l52 295h304l150 853h-304l52 295h974l-52 -295h-304l-150 -853h304zM793 1962l176 250h327l-229 -250h-274zM677 1560c-93 0 -170 76 -170 170s77 170 170 170s170 -76 170 -170s-77 -170 -170 -170zM1183 1560c-93 0 -170 76 -170 170s77 170 170 170
s170 -76 170 -170s-77 -170 -170 -170z" />
    <glyph glyph-name="Ibreve" unicode="&#x12c;" 
d="M1120 0h-974l52 295h304l150 853h-304l52 295h974l-52 -295h-304l-150 -853h304zM915 1581c-237 0 -401 152 -377 351h244c-1 -96 60 -160 151 -160c100 0 175 60 197 160h247c-39 -212 -223 -351 -462 -351z" />
    <glyph glyph-name="Idotbelow" unicode="&#x1eca;" 
d="M1120 0h-974l52 295h304l150 853h-304l52 295h974l-52 -295h-304l-150 -853h304zM579 -491c-101 0 -183 82 -183 183s82 183 183 183s183 -82 183 -183s-82 -183 -183 -183z" />
    <glyph glyph-name="Iinvertedbreve" unicode="&#x20a;" 
d="M1120 0h-974l52 295h304l150 853h-304l52 295h974l-52 -295h-304l-150 -853h304zM979 1932c237 0 401 -152 377 -351h-244c1 96 -60 160 -151 160c-100 0 -175 -60 -197 -160h-247c39 212 223 351 462 351z" />
    <glyph glyph-name="Imacron" unicode="&#x12a;" 
d="M1120 0h-974l52 295h304l150 853h-304l52 295h974l-52 -295h-304l-150 -853h304zM1297 1631h-764l38 212h764z" />
    <glyph glyph-name="Itildebelow" unicode="&#x1e2c;" 
d="M1120 0h-974l52 295h304l150 853h-304l52 295h974l-52 -295h-304l-150 -853h304zM440 -327c-42 0 -75 -46 -92 -130h-219c39 206 156 333 308 333c164 0 203 -145 284 -145c42 0 73 42 90 124h219c-36 -196 -159 -327 -307 -327c-164 0 -202 145 -283 145z" />
    <glyph glyph-name="Ihookabove" unicode="&#x1ec8;" 
d="M1120 0h-974l52 295h304l150 853h-304l52 295h974l-52 -295h-304l-150 -853h304zM729 1843l30 168c54 17 108 26 165 26c137 0 236 -81 236 -201c0 -134 -100 -233 -269 -281l-72 121c89 28 133 75 133 118c0 45 -32 68 -98 68c-46 0 -97 -8 -125 -19z" />
    <glyph glyph-name="Itilde" unicode="&#x128;" 
d="M1120 0h-974l52 295h304l150 853h-304l52 295h974l-52 -295h-304l-150 -853h304zM801 1709c-40 0 -71 -41 -89 -125h-210c36 195 148 320 296 320c157 0 195 -139 272 -139c40 0 69 37 87 119h210c-33 -180 -146 -314 -295 -314c-157 0 -194 139 -271 139z" />
    <glyph glyph-name="Iogonek" unicode="&#x12e;" 
d="M787 0h-641l52 295h304l150 853h-304l52 295h974l-52 -295h-304l-150 -853h304l-52 -295c-174 -25 -270 -92 -270 -190c0 -53 55 -95 126 -95c37 0 65 2 94 8l-33 -179c-38 -15 -94 -23 -159 -23c-181 0 -302 90 -302 224c0 103 80 194 207 235z" />
    <glyph glyph-name="J" unicode="J" 
d="M654 -29c-311 0 -511 177 -511 450c0 17 1 34 3 47h347c-1 -6 -2 -14 -2 -19c0 -97 66 -167 156 -167c103 0 168 69 192 204l116 662h-535l52 295h903l-179 -1003c-55 -308 -241 -469 -542 -469z" />
    <glyph glyph-name="Jcircumflex" unicode="&#x134;" 
d="M654 -29c-311 0 -511 177 -511 450c0 17 1 34 3 47h347c-1 -6 -2 -14 -2 -19c0 -97 66 -167 156 -167c103 0 168 69 192 204l116 662h-535l52 295h903l-179 -1003c-55 -308 -241 -469 -542 -469zM1174 1945l213 -350h-289l-98 190h-20l-166 -190h-307l337 350h330z" />
    <glyph glyph-name="K" unicode="K" 
d="M996 806l302 -806h-398l-212 584l-158 -170l-73 -414h-343l254 1443h343l-109 -620h22l532 620h406z" />
    <glyph glyph-name="Kacute" unicode="&#x1e30;" 
d="M996 806l302 -806h-398l-212 584l-158 -170l-73 -414h-343l254 1443h343l-109 -620h22l532 620h406zM810 1596l315 326h362l-361 -326h-316z" />
    <glyph glyph-name="Kcaron" unicode="&#x1e8;" 
d="M996 806l302 -806h-398l-212 584l-158 -170l-73 -414h-343l254 1443h343l-109 -620h22l532 620h406zM798 1585l-213 350h289l98 -190h20l166 190h307l-337 -350h-330z" />
    <glyph glyph-name="Kdotbelow" unicode="&#x1e32;" 
d="M996 806l302 -806h-398l-212 584l-158 -170l-73 -414h-343l254 1443h343l-109 -620h22l532 620h406zM629 -491c-101 0 -183 82 -183 183s82 183 183 183s183 -82 183 -183s-82 -183 -183 -183z" />
    <glyph glyph-name="Klinebelow" unicode="&#x1e34;" 
d="M996 806l302 -806h-398l-212 584l-158 -170l-73 -414h-343l254 1443h343l-109 -620h22l532 620h406zM989 -428h-764l38 212h764z" />
    <glyph glyph-name="Kcommaaccent" unicode="&#x136;" 
d="M996 806l302 -806h-398l-212 584l-158 -170l-73 -414h-343l254 1443h343l-109 -620h22l532 620h406zM595 -504h-306l210 350h350z" />
    <glyph glyph-name="L" unicode="L" 
d="M1214 303l-53 -303h-954l254 1443h361l-201 -1140h593z" />
    <glyph glyph-name="Lacute" unicode="&#x139;" 
d="M1214 303l-53 -303h-954l254 1443h361l-201 -1140h593zM510 1596l315 326h362l-361 -326h-316z" />
    <glyph glyph-name="Lcircumflexbelow" unicode="&#x1e3c;" 
d="M1214 303l-53 -303h-954l254 1443h361l-201 -1140h593zM475 -156h354l198 -365h-305l-88 197h-20l-154 -197h-313z" />
    <glyph glyph-name="Ldotbelow" unicode="&#x1e36;" 
d="M1214 303l-53 -303h-954l254 1443h361l-201 -1140h593zM625 -491c-101 0 -183 82 -183 183s82 183 183 183s183 -82 183 -183s-82 -183 -183 -183z" />
    <glyph glyph-name="Ldotbelowmacron" unicode="&#x1e38;" 
d="M1214 303l-53 -303h-954l254 1443h361l-201 -1140h593zM625 -491c-101 0 -183 82 -183 183s82 183 183 183s183 -82 183 -183s-82 -183 -183 -183zM1052 1631h-764l38 212h764z" />
    <glyph glyph-name="Llinebelow" unicode="&#x1e3a;" 
d="M1214 303l-53 -303h-954l254 1443h361l-201 -1140h593zM985 -428h-764l38 212h764z" />
    <glyph glyph-name="Lcommaaccent" unicode="&#x13b;" 
d="M1214 303l-53 -303h-954l254 1443h361l-201 -1140h593zM591 -504h-306l210 350h350z" />
    <glyph glyph-name="Lcaron" unicode="&#x13d;" 
d="M1037 1443h286l-140 -511h-236zM1214 303l-53 -303h-954l254 1443h361l-201 -1140h593z" />
    <glyph glyph-name="Ldot" unicode="&#x13f;" 
d="M1214 303l-53 -303h-954l254 1443h361l-201 -1140h593zM1145 964c-101 0 -183 82 -183 183s82 183 183 183s183 -82 183 -183s-82 -183 -183 -183z" />
    <glyph glyph-name="Lslash" unicode="&#x141;" 
d="M686 674l-65 -371h593l-53 -303h-954l85 484l-176 -85l50 280l175 85l120 679h361l-86 -489l513 247l-50 -280z" />
    <glyph glyph-name="M" unicode="M" 
d="M453 430l-76 -430h-300l254 1443h373l37 -785h20l313 785h369l-254 -1443h-300l76 430l157 571h-27l-281 -662h-234l-55 662h-27z" />
    <glyph glyph-name="Macute" unicode="&#x1e3e;" 
d="M453 430l-76 -430h-300l254 1443h373l37 -785h20l313 785h369l-254 -1443h-300l76 430l157 571h-27l-281 -662h-234l-55 662h-27zM758 1596l315 326h362l-361 -326h-316z" />
    <glyph glyph-name="Mdotaccent" unicode="&#x1e40;" 
d="M453 430l-76 -430h-300l254 1443h373l37 -785h20l313 785h369l-254 -1443h-300l76 430l157 571h-27l-281 -662h-234l-55 662h-27zM939 1571c-101 0 -183 82 -183 183s82 183 183 183s183 -82 183 -183s-82 -183 -183 -183z" />
    <glyph glyph-name="Mdotbelow" unicode="&#x1e42;" 
d="M453 430l-76 -430h-300l254 1443h373l37 -785h20l313 785h369l-254 -1443h-300l76 430l157 571h-27l-281 -662h-234l-55 662h-27zM579 -491c-101 0 -183 82 -183 183s82 183 183 183s183 -82 183 -183s-82 -183 -183 -183z" />
    <glyph glyph-name="N" unicode="N" 
d="M419 0h-311l254 1443h316l252 -862h19l152 862h311l-254 -1443h-316l-251 870h-19z" />
    <glyph glyph-name="Ngrave" unicode="&#x1f8;" 
d="M871 1922l201 -326h-312l-247 326h358zM419 0h-311l254 1443h316l252 -862h19l152 862h311l-254 -1443h-316l-251 870h-19z" />
    <glyph glyph-name="Nacute" unicode="&#x143;" 
d="M419 0h-311l254 1443h316l252 -862h19l152 862h311l-254 -1443h-316l-251 870h-19zM758 1596l315 326h362l-361 -326h-316z" />
    <glyph glyph-name="Ntilde" unicode="&#xd1;" 
d="M419 0h-311l254 1443h316l252 -862h19l152 862h311l-254 -1443h-316l-251 870h-19zM804 1709c-40 0 -71 -41 -89 -125h-210c36 195 148 320 296 320c157 0 195 -139 272 -139c40 0 69 37 87 119h210c-33 -180 -146 -314 -295 -314c-157 0 -194 139 -271 139z" />
    <glyph glyph-name="Ndotbelow" unicode="&#x1e46;" 
d="M419 0h-311l254 1443h316l252 -862h19l152 862h311l-254 -1443h-316l-251 870h-19zM572 -491c-101 0 -183 82 -183 183s82 183 183 183s183 -82 183 -183s-82 -183 -183 -183z" />
    <glyph glyph-name="Ndotaccent" unicode="&#x1e44;" 
d="M419 0h-311l254 1443h316l252 -862h19l152 862h311l-254 -1443h-316l-251 870h-19zM940 1571c-101 0 -183 82 -183 183s82 183 183 183s183 -82 183 -183s-82 -183 -183 -183z" />
    <glyph glyph-name="Ncaron" unicode="&#x147;" 
d="M419 0h-311l254 1443h316l252 -862h19l152 862h311l-254 -1443h-316l-251 870h-19zM747 1585l-213 350h289l98 -190h20l166 190h307l-337 -350h-330z" />
    <glyph glyph-name="Ncircumflexbelow" unicode="&#x1e4a;" 
d="M419 0h-311l254 1443h316l252 -862h19l152 862h311l-254 -1443h-316l-251 870h-19zM422 -156h354l198 -365h-305l-88 197h-20l-154 -197h-313z" />
    <glyph glyph-name="Nlinebelow" unicode="&#x1e48;" 
d="M419 0h-311l254 1443h316l252 -862h19l152 862h311l-254 -1443h-316l-251 870h-19zM932 -428h-764l38 212h764z" />
    <glyph glyph-name="Ncommaaccent" unicode="&#x145;" 
d="M419 0h-311l254 1443h316l252 -862h19l152 862h311l-254 -1443h-316l-251 870h-19zM538 -504h-306l210 350h350z" />
    <glyph glyph-name="O" unicode="O" 
d="M1304 555c-67 -382 -281 -584 -620 -584c-299 0 -519 205 -519 484c0 115 3 165 14 220l38 213c69 383 283 584 621 584c299 0 517 -205 517 -484c0 -110 -3 -162 -14 -220zM698 275c129 0 197 94 238 328l36 205c12 69 16 111 16 168c0 119 -63 192 -166 192
c-129 0 -198 -94 -239 -328l-36 -205c-11 -66 -15 -109 -15 -167c0 -120 63 -193 166 -193z" />
    <glyph glyph-name="Odieresis" unicode="&#xd6;" 
d="M1304 555c-67 -382 -281 -584 -620 -584c-299 0 -519 205 -519 484c0 115 3 165 14 220l38 213c69 383 283 584 621 584c299 0 517 -205 517 -484c0 -110 -3 -162 -14 -220zM698 275c129 0 197 94 238 328l36 205c12 69 16 111 16 168c0 119 -63 192 -166 192
c-129 0 -198 -94 -239 -328l-36 -205c-11 -66 -15 -109 -15 -167c0 -120 63 -193 166 -193zM685 1600c-93 0 -170 76 -170 170s77 170 170 170s170 -76 170 -170s-77 -170 -170 -170zM1191 1600c-93 0 -170 76 -170 170s77 170 170 170s170 -76 170 -170s-77 -170 -170 -170
z" />
    <glyph glyph-name="Oslash" unicode="&#xd8;" 
d="M936 603l36 205c4 23 7 43 9 61l-443 -463c19 -83 76 -131 160 -131c129 0 197 94 238 328zM583 840l-36 -205c-4 -24 -7 -45 -9 -65l445 463c-18 85 -76 135 -161 135c-129 0 -198 -94 -239 -328zM1530 1443l-226 -236c33 -65 51 -139 51 -219c0 -110 -3 -162 -14 -220
l-37 -213c-67 -382 -281 -584 -620 -584c-166 0 -308 63 -401 168l-133 -139h-160l226 236c-33 64 -51 139 -51 219c0 115 3 165 14 220l38 213c69 383 283 584 621 584c168 0 310 -65 403 -171l136 142h153z" />
    <glyph glyph-name="Otilde" unicode="&#xd5;" 
d="M1304 555c-67 -382 -281 -584 -620 -584c-299 0 -519 205 -519 484c0 115 3 165 14 220l38 213c69 383 283 584 621 584c299 0 517 -205 517 -484c0 -110 -3 -162 -14 -220zM698 275c129 0 197 94 238 328l36 205c12 69 16 111 16 168c0 119 -63 192 -166 192
c-129 0 -198 -94 -239 -328l-36 -205c-11 -66 -15 -109 -15 -167c0 -120 63 -193 166 -193zM800 1709c-40 0 -71 -41 -89 -125h-210c36 195 148 320 296 320c157 0 195 -139 272 -139c40 0 69 37 87 119h210c-33 -180 -146 -314 -295 -314c-157 0 -194 139 -271 139z" />
    <glyph glyph-name="Oacute" unicode="&#xd3;" 
d="M1304 555c-67 -382 -281 -584 -620 -584c-299 0 -519 205 -519 484c0 115 3 165 14 220l38 213c69 383 283 584 621 584c299 0 517 -205 517 -484c0 -110 -3 -162 -14 -220zM698 275c129 0 197 94 238 328l36 205c12 69 16 111 16 168c0 119 -63 192 -166 192
c-129 0 -198 -94 -239 -328l-36 -205c-11 -66 -15 -109 -15 -167c0 -120 63 -193 166 -193zM755 1596l315 326h362l-361 -326h-316z" />
    <glyph glyph-name="Ocircumflex" unicode="&#xd4;" 
d="M1304 555c-67 -382 -281 -584 -620 -584c-299 0 -519 205 -519 484c0 115 3 165 14 220l38 213c69 383 283 584 621 584c299 0 517 -205 517 -484c0 -110 -3 -162 -14 -220zM698 275c129 0 197 94 238 328l36 205c12 69 16 111 16 168c0 119 -63 192 -166 192
c-129 0 -198 -94 -239 -328l-36 -205c-11 -66 -15 -109 -15 -167c0 -120 63 -193 166 -193zM1161 1945l213 -350h-289l-98 190h-20l-166 -190h-307l337 350h330z" />
    <glyph glyph-name="Ograve" unicode="&#xd2;" 
d="M867 1922l201 -326h-312l-247 326h358zM583 840l-36 -205c-11 -66 -15 -109 -15 -167c0 -120 63 -193 166 -193c129 0 197 94 238 328l36 205c12 69 16 111 16 168c0 119 -63 192 -166 192c-129 0 -198 -94 -239 -328zM1341 768l-37 -213c-67 -382 -281 -584 -620 -584
c-299 0 -519 205 -519 484c0 115 3 165 14 220l38 213c69 383 283 584 621 584c299 0 517 -205 517 -484c0 -110 -3 -162 -14 -220z" />
    <glyph glyph-name="Ocircumflexhookabove" unicode="&#x1ed4;" 
d="M1304 555c-67 -382 -281 -584 -620 -584c-299 0 -519 205 -519 484c0 115 3 165 14 220l38 213c69 383 283 584 621 584c299 0 517 -205 517 -484c0 -110 -3 -162 -14 -220zM698 275c129 0 197 94 238 328l36 205c12 69 16 111 16 168c0 119 -63 192 -166 192
c-129 0 -198 -94 -239 -328l-36 -205c-11 -66 -15 -109 -15 -167c0 -120 63 -193 166 -193zM1124 1856l221 -275h-298l-104 146h-22l-156 -146h-298l317 275h340zM1136 2047l29 162c52 15 103 24 158 24c131 0 226 -77 226 -193c0 -128 -91 -224 -249 -269l-78 115
c85 28 127 73 127 114c0 43 -30 66 -94 66c-44 0 -92 -8 -119 -19z" />
    <glyph glyph-name="Ocircumflexgrave" unicode="&#x1ed2;" 
d="M1304 555c-67 -382 -281 -584 -620 -584c-299 0 -519 205 -519 484c0 115 3 165 14 220l38 213c69 383 283 584 621 584c299 0 517 -205 517 -484c0 -110 -3 -162 -14 -220zM698 275c129 0 197 94 238 328l36 205c12 69 16 111 16 168c0 119 -63 192 -166 192
c-129 0 -198 -94 -239 -328l-36 -205c-11 -66 -15 -109 -15 -167c0 -120 63 -193 166 -193zM1534 1897h-267l-139 315h298zM1124 1856l221 -275h-298l-104 146h-22l-156 -146h-298l317 275h340z" />
    <glyph glyph-name="Odotbelow" unicode="&#x1ecc;" 
d="M1304 555c-67 -382 -281 -584 -620 -584c-299 0 -519 205 -519 484c0 115 3 165 14 220l38 213c69 383 283 584 621 584c299 0 517 -205 517 -484c0 -110 -3 -162 -14 -220zM698 275c129 0 197 94 238 328l36 205c12 69 16 111 16 168c0 119 -63 192 -166 192
c-129 0 -198 -94 -239 -328l-36 -205c-11 -66 -15 -109 -15 -167c0 -120 63 -193 166 -193zM579 -491c-101 0 -183 82 -183 183s82 183 183 183s183 -82 183 -183s-82 -183 -183 -183z" />
    <glyph glyph-name="Odblgrave" unicode="&#x20c;" 
d="M1135 1922l163 -326h-263l-191 326h291zM685 1922l164 -326h-263l-191 326h290zM583 840l-36 -205c-11 -66 -15 -109 -15 -167c0 -120 63 -193 166 -193c129 0 197 94 238 328l36 205c12 69 16 111 16 168c0 119 -63 192 -166 192c-129 0 -198 -94 -239 -328zM1341 768
l-37 -213c-67 -382 -281 -584 -620 -584c-299 0 -519 205 -519 484c0 115 3 165 14 220l38 213c69 383 283 584 621 584c299 0 517 -205 517 -484c0 -110 -3 -162 -14 -220z" />
    <glyph glyph-name="Otildeacute" unicode="&#x1e4c;" 
d="M1304 555c-67 -382 -281 -584 -620 -584c-299 0 -519 205 -519 484c0 115 3 165 14 220l38 213c69 383 283 584 621 584c299 0 517 -205 517 -484c0 -110 -3 -162 -14 -220zM698 275c129 0 197 94 238 328l36 205c12 69 16 111 16 168c0 119 -63 192 -166 192
c-129 0 -198 -94 -239 -328l-36 -205c-11 -66 -15 -109 -15 -167c0 -120 63 -193 166 -193zM818 1962l127 250h315l-158 -250h-284zM800 1698c-40 0 -71 -38 -89 -116h-210c36 181 148 296 296 296c157 0 195 -128 272 -128c40 0 69 34 87 109h210
c-33 -165 -146 -289 -295 -289c-157 0 -194 128 -271 128z" />
    <glyph glyph-name="Omacronacute" unicode="&#x1e52;" 
d="M519 1606l35 196h782l-35 -196h-782zM1125 1932h-290l176 280h322zM583 840l-36 -205c-11 -66 -15 -109 -15 -167c0 -120 63 -193 166 -193c129 0 197 94 238 328l36 205c12 69 16 111 16 168c0 119 -63 192 -166 192c-129 0 -198 -94 -239 -328zM1341 768l-37 -213
c-67 -382 -281 -584 -620 -584c-299 0 -519 205 -519 484c0 115 3 165 14 220l38 213c69 383 283 584 621 584c299 0 517 -205 517 -484c0 -110 -3 -162 -14 -220z" />
    <glyph glyph-name="Ocircumflextilde" unicode="&#x1ed6;" 
d="M1304 555c-67 -382 -281 -584 -620 -584c-299 0 -519 205 -519 484c0 115 3 165 14 220l38 213c69 383 283 584 621 584c299 0 517 -205 517 -484c0 -110 -3 -162 -14 -220zM698 275c129 0 197 94 238 328l36 205c12 69 16 111 16 168c0 119 -63 192 -166 192
c-129 0 -198 -94 -239 -328l-36 -205c-11 -66 -15 -109 -15 -167c0 -120 63 -193 166 -193zM1121 1856l221 -275h-294l-104 146h-22l-156 -146h-302l317 275h340zM863 2052c-36 0 -66 -35 -82 -97h-206c31 163 144 269 283 269c154 0 187 -110 268 -110c36 0 64 31 80 89
h206c-29 -148 -143 -261 -282 -261c-154 0 -186 110 -267 110z" />
    <glyph glyph-name="Odotaccentmacron" unicode="&#x230;" 
d="M929 1900c93 0 170 -76 170 -170s-77 -170 -170 -170s-170 76 -170 170s77 170 170 170zM586 1991l35 196h782l-35 -196h-782zM583 840l-36 -205c-11 -66 -15 -109 -15 -167c0 -120 63 -193 166 -193c129 0 197 94 238 328l36 205c12 69 16 111 16 168
c0 119 -63 192 -166 192c-129 0 -198 -94 -239 -328zM1341 768l-37 -213c-67 -382 -281 -584 -620 -584c-299 0 -519 205 -519 484c0 115 3 165 14 220l38 213c69 383 283 584 621 584c299 0 517 -205 517 -484c0 -110 -3 -162 -14 -220z" />
    <glyph glyph-name="Omacrongrave" unicode="&#x1e50;" 
d="M1304 555c-67 -382 -281 -584 -620 -584c-299 0 -519 205 -519 484c0 115 3 165 14 220l38 213c69 383 283 584 621 584c299 0 517 -205 517 -484c0 -110 -3 -162 -14 -220zM698 275c129 0 197 94 238 328l36 205c12 69 16 111 16 168c0 119 -63 192 -166 192
c-129 0 -198 -94 -239 -328l-36 -205c-11 -66 -15 -109 -15 -167c0 -120 63 -193 166 -193zM1097 1932h-284l-108 280h316zM519 1606l35 196h782l-35 -196h-782z" />
    <glyph glyph-name="Ocaron" unicode="&#x1d1;" 
d="M1304 555c-67 -382 -281 -584 -620 -584c-299 0 -519 205 -519 484c0 115 3 165 14 220l38 213c69 383 283 584 621 584c299 0 517 -205 517 -484c0 -110 -3 -162 -14 -220zM698 275c129 0 197 94 238 328l36 205c12 69 16 111 16 168c0 119 -63 192 -166 192
c-129 0 -198 -94 -239 -328l-36 -205c-11 -66 -15 -109 -15 -167c0 -120 63 -193 166 -193zM743 1585l-213 350h289l98 -190h20l166 190h307l-337 -350h-330z" />
    <glyph glyph-name="Oslashacute" unicode="&#x1fe;" 
d="M1411 1922l-361 -326h-316l315 326h362zM936 603l36 205c4 23 7 43 9 61l-443 -463c19 -83 76 -131 160 -131c129 0 197 94 238 328zM583 840l-36 -205c-4 -24 -7 -45 -9 -65l445 463c-18 85 -76 135 -161 135c-129 0 -198 -94 -239 -328zM1530 1443l-226 -236
c33 -65 51 -139 51 -219c0 -110 -3 -162 -14 -220l-37 -213c-67 -382 -281 -584 -620 -584c-166 0 -308 63 -401 168l-133 -139h-160l226 236c-33 64 -51 139 -51 219c0 115 3 165 14 220l38 213c69 383 283 584 621 584c168 0 310 -65 403 -171l136 142h153z" />
    <glyph glyph-name="Ohungarumlaut" unicode="&#x150;" 
d="M1304 555c-67 -382 -281 -584 -620 -584c-299 0 -519 205 -519 484c0 115 3 165 14 220l38 213c69 383 283 584 621 584c299 0 517 -205 517 -484c0 -110 -3 -162 -14 -220zM698 275c129 0 197 94 238 328l36 205c12 69 16 111 16 168c0 119 -63 192 -166 192
c-129 0 -198 -94 -239 -328l-36 -205c-11 -66 -15 -109 -15 -167c0 -120 63 -193 166 -193zM1012 1596l278 326h292l-305 -326h-265zM563 1596l277 326h293l-305 -326h-265z" />
    <glyph glyph-name="Obreve" unicode="&#x14e;" 
d="M1304 555c-67 -382 -281 -584 -620 -584c-299 0 -519 205 -519 484c0 115 3 165 14 220l38 213c69 383 283 584 621 584c299 0 517 -205 517 -484c0 -110 -3 -162 -14 -220zM698 275c129 0 197 94 238 328l36 205c12 69 16 111 16 168c0 119 -63 192 -166 192
c-129 0 -198 -94 -239 -328l-36 -205c-11 -66 -15 -109 -15 -167c0 -120 63 -193 166 -193zM914 1581c-237 0 -401 152 -377 351h244c-1 -96 60 -160 151 -160c100 0 175 60 197 160h247c-39 -212 -223 -351 -462 -351z" />
    <glyph glyph-name="Oinvertedbreve" unicode="&#x20e;" 
d="M1304 555c-67 -382 -281 -584 -620 -584c-299 0 -519 205 -519 484c0 115 3 165 14 220l38 213c69 383 283 584 621 584c299 0 517 -205 517 -484c0 -110 -3 -162 -14 -220zM698 275c129 0 197 94 238 328l36 205c12 69 16 111 16 168c0 119 -63 192 -166 192
c-129 0 -198 -94 -239 -328l-36 -205c-11 -66 -15 -109 -15 -167c0 -120 63 -193 166 -193zM978 1932c237 0 401 -152 377 -351h-244c1 96 -60 160 -151 160c-100 0 -175 -60 -197 -160h-247c39 212 223 351 462 351z" />
    <glyph glyph-name="Ohookabove" unicode="&#x1ece;" 
d="M1304 555c-67 -382 -281 -584 -620 -584c-299 0 -519 205 -519 484c0 115 3 165 14 220l38 213c69 383 283 584 621 584c299 0 517 -205 517 -484c0 -110 -3 -162 -14 -220zM698 275c129 0 197 94 238 328l36 205c12 69 16 111 16 168c0 119 -63 192 -166 192
c-129 0 -198 -94 -239 -328l-36 -205c-11 -66 -15 -109 -15 -167c0 -120 63 -193 166 -193zM728 1843l30 168c54 17 108 26 165 26c137 0 236 -81 236 -201c0 -134 -100 -233 -269 -281l-72 121c89 28 133 75 133 118c0 45 -32 68 -98 68c-46 0 -97 -8 -125 -19z" />
    <glyph glyph-name="Odieresismacron" unicode="&#x22a;" 
d="M1304 555c-67 -382 -281 -584 -620 -584c-299 0 -519 205 -519 484c0 115 3 165 14 220l38 213c69 383 283 584 621 584c299 0 517 -205 517 -484c0 -110 -3 -162 -14 -220zM698 275c129 0 197 94 238 328l36 205c12 69 16 111 16 168c0 119 -63 192 -166 192
c-129 0 -198 -94 -239 -328l-36 -205c-11 -66 -15 -109 -15 -167c0 -120 63 -193 166 -193zM1189 1899c93 0 170 -76 170 -170s-77 -170 -170 -170s-170 76 -170 170s77 170 170 170zM1407 2187l-35 -196h-782l35 196h782zM683 1899c93 0 170 -76 170 -170
s-77 -170 -170 -170s-170 76 -170 170s77 170 170 170z" />
    <glyph glyph-name="Otildemacron" unicode="&#x22c;" 
d="M1304 555c-67 -382 -281 -584 -620 -584c-299 0 -519 205 -519 484c0 115 3 165 14 220l38 213c69 383 283 584 621 584c299 0 517 -205 517 -484c0 -110 -3 -162 -14 -220zM698 275c129 0 197 94 238 328l36 205c12 69 16 111 16 168c0 119 -63 192 -166 192
c-129 0 -198 -94 -239 -328l-36 -205c-11 -66 -15 -109 -15 -167c0 -120 63 -193 166 -193zM1371 2008h-782l35 196h782zM800 1698c-40 0 -71 -38 -89 -116h-210c36 181 148 296 296 296c157 0 195 -128 272 -128c40 0 69 34 87 109h210c-33 -165 -146 -289 -295 -289
c-157 0 -194 128 -271 128z" />
    <glyph glyph-name="Odotaccent" unicode="&#x22e;" 
d="M1304 555c-67 -382 -281 -584 -620 -584c-299 0 -519 205 -519 484c0 115 3 165 14 220l38 213c69 383 283 584 621 584c299 0 517 -205 517 -484c0 -110 -3 -162 -14 -220zM698 275c129 0 197 94 238 328l36 205c12 69 16 111 16 168c0 119 -63 192 -166 192
c-129 0 -198 -94 -239 -328l-36 -205c-11 -66 -15 -109 -15 -167c0 -120 63 -193 166 -193zM936 1571c-101 0 -183 82 -183 183s82 183 183 183s183 -82 183 -183s-82 -183 -183 -183z" />
    <glyph glyph-name="Ocircumflexdotbelow" unicode="&#x1ed8;" 
d="M1304 555c-67 -382 -281 -584 -620 -584c-299 0 -519 205 -519 484c0 115 3 165 14 220l38 213c69 383 283 584 621 584c299 0 517 -205 517 -484c0 -110 -3 -162 -14 -220zM698 275c129 0 197 94 238 328l36 205c12 69 16 111 16 168c0 119 -63 192 -166 192
c-129 0 -198 -94 -239 -328l-36 -205c-11 -66 -15 -109 -15 -167c0 -120 63 -193 166 -193zM1161 1945l213 -350h-289l-98 190h-20l-166 -190h-307l337 350h330zM579 -491c-101 0 -183 82 -183 183s82 183 183 183s183 -82 183 -183s-82 -183 -183 -183z" />
    <glyph glyph-name="Ocircumflexacute" unicode="&#x1ed0;" 
d="M1304 555c-67 -382 -281 -584 -620 -584c-299 0 -519 205 -519 484c0 115 3 165 14 220l38 213c69 383 283 584 621 584c299 0 517 -205 517 -484c0 -110 -3 -162 -14 -220zM698 275c129 0 197 94 238 328l36 205c12 69 16 111 16 168c0 119 -63 192 -166 192
c-129 0 -198 -94 -239 -328l-36 -205c-11 -66 -15 -109 -15 -167c0 -120 63 -193 166 -193zM1212 1897l217 315h305l-249 -315h-273zM1118 1856l221 -275h-294l-104 146h-22l-156 -146h-302l317 275h340z" />
    <glyph glyph-name="Otildedieresis" unicode="&#x1e4e;" 
d="M1304 555c-67 -382 -281 -584 -620 -584c-299 0 -519 205 -519 484c0 115 3 165 14 220l38 213c69 383 283 584 621 584c299 0 517 -205 517 -484c0 -110 -3 -162 -14 -220zM698 275c129 0 197 94 238 328l36 205c12 69 16 111 16 168c0 119 -63 192 -166 192
c-129 0 -198 -94 -239 -328l-36 -205c-11 -66 -15 -109 -15 -167c0 -120 63 -193 166 -193zM734 1914c-82 0 -150 67 -150 150s68 150 150 150s150 -67 150 -150s-68 -150 -150 -150zM1240 1914c-82 0 -150 67 -150 150s68 150 150 150s150 -67 150 -150s-68 -150 -150 -150
zM795 1664c-36 0 -66 -35 -82 -97h-206c31 163 144 269 283 269c154 0 187 -110 268 -110c36 0 64 31 80 89h206c-29 -148 -143 -261 -282 -261c-154 0 -186 110 -267 110z" />
    <glyph glyph-name="Omacron" unicode="&#x14c;" 
d="M1304 555c-67 -382 -281 -584 -620 -584c-299 0 -519 205 -519 484c0 115 3 165 14 220l38 213c69 383 283 584 621 584c299 0 517 -205 517 -484c0 -110 -3 -162 -14 -220zM698 275c129 0 197 94 238 328l36 205c12 69 16 111 16 168c0 119 -63 192 -166 192
c-129 0 -198 -94 -239 -328l-36 -205c-11 -66 -15 -109 -15 -167c0 -120 63 -193 166 -193zM1296 1631h-764l38 212h764z" />
    <glyph glyph-name="Oogonek" unicode="&#x1ea;" 
d="M583 840l-36 -205c-11 -65 -15 -108 -15 -167c0 -120 63 -193 166 -193c129 0 197 94 238 328l36 205c12 69 16 111 16 168c0 119 -63 192 -166 192c-129 0 -198 -94 -239 -328zM994 -267l-33 -179c-38 -15 -94 -23 -159 -23c-178 0 -302 88 -302 214
c0 80 46 161 170 216l4 20c-289 -10 -509 195 -509 474c0 114 3 164 14 220l38 213c69 383 283 584 621 584c299 0 517 -205 517 -484c0 -107 -3 -160 -14 -220l-37 -213c-42 -242 -151 -416 -320 -515c-161 -94 -210 -145 -210 -220c0 -56 49 -95 117 -95c45 0 95 4 103 8z
" />
    <glyph glyph-name="Oogonekmacron" unicode="&#x1ec;" 
d="M583 840l-36 -205c-11 -65 -15 -108 -15 -167c0 -120 63 -193 166 -193c129 0 197 94 238 328l36 205c12 69 16 111 16 168c0 119 -63 192 -166 192c-129 0 -198 -94 -239 -328zM994 -267l-33 -179c-38 -15 -94 -23 -159 -23c-178 0 -302 88 -302 214
c0 80 46 161 170 216l4 20c-289 -10 -509 195 -509 474c0 114 3 164 14 220l38 213c69 383 283 584 621 584c299 0 517 -205 517 -484c0 -107 -3 -160 -14 -220l-37 -213c-42 -242 -151 -416 -320 -515c-161 -94 -210 -145 -210 -220c0 -56 49 -95 117 -95c45 0 95 4 103 8z
M1302 1631h-764l38 212h764z" />
    <glyph glyph-name="Ohorn" unicode="&#x1a0;" 
d="M684 -29c-299 0 -519 205 -519 484c0 112 3 163 14 220l38 213c69 383 283 584 621 584c224 0 230 -56 410 -56c71 0 113 30 123 88l31 174h269l-44 -251c-25 -144 -118 -224 -260 -224h-59l-3 -18c34 -75 50 -139 50 -197c0 -104 -3 -158 -14 -220l-38 -213
c-69 -384 -281 -584 -619 -584zM698 275c129 0 197 94 238 328l36 205c12 69 16 111 16 168c0 119 -63 192 -166 192c-129 0 -198 -94 -239 -328l-36 -205c-11 -64 -15 -107 -15 -167c0 -120 63 -193 166 -193z" />
    <glyph glyph-name="Ohorndotbelow" unicode="&#x1ee2;" 
d="M684 -29c-299 0 -519 205 -519 484c0 112 3 163 14 220l38 213c69 383 283 584 621 584c224 0 230 -56 410 -56c71 0 113 30 123 88l31 174h269l-44 -251c-25 -144 -118 -224 -260 -224h-59l-3 -18c34 -75 50 -139 50 -197c0 -104 -3 -158 -14 -220l-38 -213
c-69 -384 -281 -584 -619 -584zM698 275c129 0 197 94 238 328l36 205c12 69 16 111 16 168c0 119 -63 192 -166 192c-129 0 -198 -94 -239 -328l-36 -205c-11 -64 -15 -107 -15 -167c0 -120 63 -193 166 -193zM579 -491c-101 0 -183 82 -183 183s82 183 183 183
s183 -82 183 -183s-82 -183 -183 -183z" />
    <glyph glyph-name="Ohornhookabove" unicode="&#x1ede;" 
d="M734 1843l30 168c54 17 108 26 165 26c137 0 236 -81 236 -201c0 -134 -100 -233 -269 -281l-72 121c89 28 133 75 133 118c0 45 -32 68 -98 68c-46 0 -97 -8 -125 -19zM684 -29c-299 0 -519 205 -519 484c0 112 3 163 14 220l38 213c69 383 283 584 621 584
c224 0 230 -56 410 -56c71 0 113 30 123 88l31 174h269l-44 -251c-25 -144 -118 -224 -260 -224h-59l-3 -18c34 -75 50 -139 50 -197c0 -104 -3 -158 -14 -220l-38 -213c-69 -384 -281 -584 -619 -584zM698 275c129 0 197 94 238 328l36 205c12 69 16 111 16 168
c0 119 -63 192 -166 192c-129 0 -198 -94 -239 -328l-36 -205c-11 -64 -15 -107 -15 -167c0 -120 63 -193 166 -193z" />
    <glyph glyph-name="Ohorntilde" unicode="&#x1ee0;" 
d="M684 -29c-299 0 -519 205 -519 484c0 112 3 163 14 220l38 213c69 383 283 584 621 584c224 0 230 -56 410 -56c71 0 113 30 123 88l31 174h269l-44 -251c-25 -144 -118 -224 -260 -224h-59l-3 -18c34 -75 50 -139 50 -197c0 -104 -3 -158 -14 -220l-38 -213
c-69 -384 -281 -584 -619 -584zM698 275c129 0 197 94 238 328l36 205c12 69 16 111 16 168c0 119 -63 192 -166 192c-129 0 -198 -94 -239 -328l-36 -205c-11 -64 -15 -107 -15 -167c0 -120 63 -193 166 -193zM806 1709c-40 0 -71 -41 -89 -125h-210
c36 195 148 320 296 320c157 0 195 -139 272 -139c40 0 69 37 87 119h210c-33 -180 -146 -314 -295 -314c-157 0 -194 139 -271 139z" />
    <glyph glyph-name="Ohorngrave" unicode="&#x1edc;" 
d="M583 840l-36 -205c-11 -64 -15 -107 -15 -167c0 -120 63 -193 166 -193c129 0 197 94 238 328l36 205c12 69 16 111 16 168c0 119 -63 192 -166 192c-129 0 -198 -94 -239 -328zM1341 768l-38 -213c-69 -384 -281 -584 -619 -584c-299 0 -519 205 -519 484
c0 112 3 163 14 220l38 213c69 383 283 584 621 584c224 0 230 -56 410 -56c71 0 113 30 123 88l31 174h269l-44 -251c-25 -144 -118 -224 -260 -224h-59l-3 -18c34 -75 50 -139 50 -197c0 -104 -3 -158 -14 -220zM883 1922l201 -326h-312l-247 326h358z" />
    <glyph glyph-name="Ohornacute" unicode="&#x1eda;" 
d="M684 -29c-299 0 -519 205 -519 484c0 112 3 163 14 220l38 213c69 383 283 584 621 584c224 0 230 -56 410 -56c71 0 113 30 123 88l31 174h269l-44 -251c-25 -144 -118 -224 -260 -224h-59l-3 -18c34 -75 50 -139 50 -197c0 -104 -3 -158 -14 -220l-38 -213
c-69 -384 -281 -584 -619 -584zM698 275c129 0 197 94 238 328l36 205c12 69 16 111 16 168c0 119 -63 192 -166 192c-129 0 -198 -94 -239 -328l-36 -205c-11 -64 -15 -107 -15 -167c0 -120 63 -193 166 -193zM744 1596l315 326h362l-361 -326h-316z" />
    <glyph glyph-name="P" unicode="P" 
d="M365 1443h470c325 0 526 -176 526 -459c0 -316 -270 -561 -617 -561h-191l-75 -423h-367zM683 1164l-81 -462h109c168 0 280 104 280 260c0 130 -81 202 -228 202h-80z" />
    <glyph glyph-name="Pdotaccent" unicode="&#x1e56;" 
d="M365 1443h470c325 0 526 -176 526 -459c0 -316 -270 -561 -617 -561h-191l-75 -423h-367zM683 1164l-81 -462h109c168 0 280 104 280 260c0 130 -81 202 -228 202h-80zM882 1571c-101 0 -183 82 -183 183s82 183 183 183s183 -82 183 -183s-82 -183 -183 -183z" />
    <glyph glyph-name="Pacute" unicode="&#x1e54;" 
d="M365 1443h470c325 0 526 -176 526 -459c0 -316 -270 -561 -617 -561h-191l-75 -423h-367zM683 1164l-81 -462h109c168 0 280 104 280 260c0 130 -81 202 -228 202h-80zM701 1596l315 326h362l-361 -326h-316z" />
    <glyph glyph-name="Q" unicode="Q" 
d="M697 257h5l-77 204h285c11 38 21 81 30 131l37 209c12 68 16 107 16 171c0 121 -65 196 -170 196c-132 0 -201 -95 -243 -335l-37 -209c-12 -66 -16 -108 -16 -170c0 -122 65 -197 170 -197zM179 675l38 213c69 383 283 584 621 584c299 0 517 -205 517 -484
c0 -102 -4 -157 -15 -220l-37 -213c-34 -196 -107 -344 -214 -442l100 -266h-332l-50 134c-39 -7 -80 -10 -123 -10c-299 0 -519 205 -519 484c0 114 3 164 14 220z" />
    <glyph glyph-name="R" unicode="R" 
d="M480 0h-367l254 1443h514c285 0 505 -169 505 -431c0 -32 -3 -65 -9 -100c-32 -183 -138 -305 -314 -365l181 -547h-388l-154 505h-133zM686 1166l-71 -402h137c144 0 221 69 250 186c3 12 4 30 4 42c0 102 -72 174 -184 174h-136z" />
    <glyph glyph-name="Rcaron" unicode="&#x158;" 
d="M664 1585l-213 350h289l98 -190h20l166 190h307l-337 -350h-330zM480 0h-367l254 1443h514c285 0 505 -169 505 -431c0 -32 -3 -65 -9 -100c-32 -183 -138 -305 -314 -365l181 -547h-388l-154 505h-133zM686 1166l-71 -402h137c144 0 221 69 250 186c3 12 4 30 4 42
c0 102 -72 174 -184 174h-136z" />
    <glyph glyph-name="Rlinebelow" unicode="&#x1e5e;" 
d="M947 -427h-764l38 212h764zM480 0h-367l254 1443h514c285 0 505 -169 505 -431c0 -32 -3 -65 -9 -100c-32 -183 -138 -305 -314 -365l181 -547h-388l-154 505h-133zM686 1166l-71 -402h137c144 0 221 69 250 186c3 12 4 30 4 42c0 102 -72 174 -184 174h-136z" />
    <glyph glyph-name="Rdotbelowmacron" unicode="&#x1e5c;" 
d="M1217 1631h-764l38 212h764zM587 -490c-101 0 -183 82 -183 183s82 183 183 183s183 -82 183 -183s-82 -183 -183 -183zM480 0h-367l254 1443h514c285 0 505 -169 505 -431c0 -32 -3 -65 -9 -100c-32 -183 -138 -305 -314 -365l181 -547h-388l-154 505h-133zM686 1166
l-71 -402h137c144 0 221 69 250 186c3 12 4 30 4 42c0 102 -72 174 -184 174h-136z" />
    <glyph glyph-name="Rdblgrave" unicode="&#x210;" 
d="M686 1166l-71 -402h137c144 0 221 69 250 186c3 12 4 30 4 42c0 102 -72 174 -184 174h-136zM480 0h-367l254 1443h514c285 0 505 -169 505 -431c0 -32 -3 -65 -9 -100c-32 -183 -138 -305 -314 -365l181 -547h-388l-154 505h-133zM606 1922l164 -326h-263l-191 326h290z
M1056 1922l163 -326h-263l-191 326h291z" />
    <glyph glyph-name="Rinvertedbreve" unicode="&#x212;" 
d="M684 1581h-247c39 212 223 351 462 351c237 0 401 -152 377 -351h-244c1 96 -60 160 -151 160c-100 0 -175 -60 -197 -160zM480 0h-367l254 1443h514c285 0 505 -169 505 -431c0 -32 -3 -65 -9 -100c-32 -183 -138 -305 -314 -365l181 -547h-388l-154 505h-133zM686 1166
l-71 -402h137c144 0 221 69 250 186c3 12 4 30 4 42c0 102 -72 174 -184 174h-136z" />
    <glyph glyph-name="Racute" unicode="&#x154;" 
d="M676 1596l315 326h362l-361 -326h-316zM480 0h-367l254 1443h514c285 0 505 -169 505 -431c0 -32 -3 -65 -9 -100c-32 -183 -138 -305 -314 -365l181 -547h-388l-154 505h-133zM686 1166l-71 -402h137c144 0 221 69 250 186c3 12 4 30 4 42c0 102 -72 174 -184 174h-136z
" />
    <glyph glyph-name="Rdotbelow" unicode="&#x1e5a;" 
d="M587 -490c-101 0 -183 82 -183 183s82 183 183 183s183 -82 183 -183s-82 -183 -183 -183zM480 0h-367l254 1443h514c285 0 505 -169 505 -431c0 -32 -3 -65 -9 -100c-32 -183 -138 -305 -314 -365l181 -547h-388l-154 505h-133zM686 1166l-71 -402h137
c144 0 221 69 250 186c3 12 4 30 4 42c0 102 -72 174 -184 174h-136z" />
    <glyph glyph-name="Rdotaccent" unicode="&#x1e58;" 
d="M857 1571c-101 0 -183 82 -183 183s82 183 183 183s183 -82 183 -183s-82 -183 -183 -183zM480 0h-367l254 1443h514c285 0 505 -169 505 -431c0 -32 -3 -65 -9 -100c-32 -183 -138 -305 -314 -365l181 -547h-388l-154 505h-133zM686 1166l-71 -402h137
c144 0 221 69 250 186c3 12 4 30 4 42c0 102 -72 174 -184 174h-136z" />
    <glyph glyph-name="Rcommaaccent" unicode="&#x156;" 
d="M553 -503h-306l210 350h350zM480 0h-367l254 1443h514c285 0 505 -169 505 -431c0 -32 -3 -65 -9 -100c-32 -183 -138 -305 -314 -365l181 -547h-388l-154 505h-133zM686 1166l-71 -402h137c144 0 221 69 250 186c3 12 4 30 4 42c0 102 -72 174 -184 174h-136z" />
    <glyph glyph-name="S" unicode="S" 
d="M136 442h345c-1 -3 -1 -3 -1 -17c0 -103 96 -171 240 -171c120 0 205 61 205 146c0 74 -55 124 -179 162l-150 46c-214 66 -329 201 -329 385c0 284 226 479 555 479c322 0 546 -176 547 -430c0 -22 0 -28 -2 -38h-345c1 5 1 7 1 23c0 91 -84 163 -191 163
c-117 0 -191 -57 -191 -148c0 -71 53 -122 163 -156l144 -44c228 -70 348 -200 348 -376c0 -303 -223 -495 -574 -495c-342 0 -588 180 -588 430c0 13 1 29 2 41z" />
    <glyph glyph-name="Scaron" unicode="&#x160;" 
d="M136 442h345c-1 -3 -1 -3 -1 -17c0 -103 96 -171 240 -171c120 0 205 61 205 146c0 74 -55 124 -179 162l-150 46c-214 66 -329 201 -329 385c0 284 226 479 555 479c322 0 546 -176 547 -430c0 -22 0 -28 -2 -38h-345c1 5 1 7 1 23c0 91 -84 163 -191 163
c-117 0 -191 -57 -191 -148c0 -71 53 -122 163 -156l144 -44c228 -70 348 -200 348 -376c0 -303 -223 -495 -574 -495c-342 0 -588 180 -588 430c0 13 1 29 2 41zM724 1585l-213 350h289l98 -190h20l166 190h307l-337 -350h-330z" />
    <glyph glyph-name="Scedilla" unicode="&#x15e;" 
d="M1367 1004h-345c1 5 1 7 1 23c0 91 -84 163 -191 163c-117 0 -191 -57 -191 -148c0 -71 53 -122 163 -156l144 -44c228 -70 348 -200 348 -376c0 -300 -219 -491 -564 -495l-47 -73c94 -18 155 -80 155 -157c0 -157 -104 -235 -315 -235c-43 0 -96 7 -141 18l27 152
c17 -8 64 -14 107 -14c69 0 113 21 113 54c0 30 -35 45 -104 45h-60l26 137l56 90c-249 49 -415 208 -415 413c0 13 1 29 2 41h345c-1 -3 -1 -3 -1 -17c0 -103 96 -171 240 -171c120 0 205 61 205 146c0 74 -55 124 -179 162l-150 46c-214 66 -329 201 -329 385
c0 284 226 479 555 479c322 0 546 -176 547 -430c0 -22 0 -28 -2 -38z" />
    <glyph glyph-name="Sdotaccent" unicode="&#x1e60;" 
d="M136 442h345c-1 -3 -1 -3 -1 -17c0 -103 96 -171 240 -171c120 0 205 61 205 146c0 74 -55 124 -179 162l-150 46c-214 66 -329 201 -329 385c0 284 226 479 555 479c322 0 546 -176 547 -430c0 -22 0 -28 -2 -38h-345c1 5 1 7 1 23c0 91 -84 163 -191 163
c-117 0 -191 -57 -191 -148c0 -71 53 -122 163 -156l144 -44c228 -70 348 -200 348 -376c0 -303 -223 -495 -574 -495c-342 0 -588 180 -588 430c0 13 1 29 2 41zM917 1571c-101 0 -183 82 -183 183s82 183 183 183s183 -82 183 -183s-82 -183 -183 -183z" />
    <glyph glyph-name="Sdotbelow" unicode="&#x1e62;" 
d="M136 442h345c-1 -3 -1 -3 -1 -17c0 -103 96 -171 240 -171c120 0 205 61 205 146c0 74 -55 124 -179 162l-150 46c-214 66 -329 201 -329 385c0 284 226 479 555 479c322 0 546 -176 547 -430c0 -22 0 -28 -2 -38h-345c1 5 1 7 1 23c0 91 -84 163 -191 163
c-117 0 -191 -57 -191 -148c0 -71 53 -122 163 -156l144 -44c228 -70 348 -200 348 -376c0 -303 -223 -495 -574 -495c-342 0 -588 180 -588 430c0 13 1 29 2 41zM571 -491c-101 0 -183 82 -183 183s82 183 183 183s183 -82 183 -183s-82 -183 -183 -183z" />
    <glyph glyph-name="Scommaaccent" unicode="&#x218;" 
d="M136 442h345c-1 -3 -1 -3 -1 -17c0 -103 96 -171 240 -171c120 0 205 61 205 146c0 74 -55 124 -179 162l-150 46c-214 66 -329 201 -329 385c0 284 226 479 555 479c322 0 546 -176 547 -430c0 -22 0 -28 -2 -38h-345c1 5 1 7 1 23c0 91 -84 163 -191 163
c-117 0 -191 -57 -191 -148c0 -71 53 -122 163 -156l144 -44c228 -70 348 -200 348 -376c0 -303 -223 -495 -574 -495c-342 0 -588 180 -588 430c0 13 1 29 2 41zM537 -504h-306l210 350h350z" />
    <glyph glyph-name="Sdotbelowdotaccent" unicode="&#x1e68;" 
d="M136 442h345c-1 -3 -1 -3 -1 -17c0 -103 96 -171 240 -171c120 0 205 61 205 146c0 74 -55 124 -179 162l-150 46c-214 66 -329 201 -329 385c0 284 226 479 555 479c322 0 546 -176 547 -430c0 -22 0 -28 -2 -38h-345c1 5 1 7 1 23c0 91 -84 163 -191 163
c-117 0 -191 -57 -191 -148c0 -71 53 -122 163 -156l144 -44c228 -70 348 -200 348 -376c0 -303 -223 -495 -574 -495c-342 0 -588 180 -588 430c0 13 1 29 2 41zM571 -491c-101 0 -183 82 -183 183s82 183 183 183s183 -82 183 -183s-82 -183 -183 -183zM917 1571
c-101 0 -183 82 -183 183s82 183 183 183s183 -82 183 -183s-82 -183 -183 -183z" />
    <glyph glyph-name="Scarondotaccent" unicode="&#x1e66;" 
d="M136 442h345c-1 -3 -1 -3 -1 -17c0 -103 96 -171 240 -171c120 0 205 61 205 146c0 74 -55 124 -179 162l-150 46c-214 66 -329 201 -329 385c0 284 226 479 555 479c322 0 546 -176 547 -430c0 -22 0 -28 -2 -38h-345c1 5 1 7 1 23c0 91 -84 163 -191 163
c-117 0 -191 -57 -191 -148c0 -71 53 -122 163 -156l144 -44c228 -70 348 -200 348 -376c0 -303 -223 -495 -574 -495c-342 0 -588 180 -588 430c0 13 1 29 2 41zM976 1934c-104 0 -176 68 -176 161s72 160 176 160s176 -67 176 -160s-72 -161 -176 -161zM1057 1581h-340
l-219 283h298l104 -146h22l156 146h298z" />
    <glyph glyph-name="Scircumflex" unicode="&#x15c;" 
d="M136 442h345c-1 -3 -1 -3 -1 -17c0 -103 96 -171 240 -171c120 0 205 61 205 146c0 74 -55 124 -179 162l-150 46c-214 66 -329 201 -329 385c0 284 226 479 555 479c322 0 546 -176 547 -430c0 -22 0 -28 -2 -38h-345c1 5 1 7 1 23c0 91 -84 163 -191 163
c-117 0 -191 -57 -191 -148c0 -71 53 -122 163 -156l144 -44c228 -70 348 -200 348 -376c0 -303 -223 -495 -574 -495c-342 0 -588 180 -588 430c0 13 1 29 2 41zM1142 1945l213 -350h-289l-98 190h-20l-166 -190h-307l337 350h330z" />
    <glyph glyph-name="Sacutedotaccent" unicode="&#x1e64;" 
d="M136 442h345c-1 -3 -1 -3 -1 -17c0 -103 96 -171 240 -171c120 0 205 61 205 146c0 74 -55 124 -179 162l-150 46c-214 66 -329 201 -329 385c0 284 226 479 555 479c322 0 546 -176 547 -430c0 -22 0 -28 -2 -38h-345c1 5 1 7 1 23c0 91 -84 163 -191 163
c-117 0 -191 -57 -191 -148c0 -71 53 -122 163 -156l144 -44c228 -70 348 -200 348 -376c0 -303 -223 -495 -574 -495c-342 0 -588 180 -588 430c0 13 1 29 2 41zM921 1596l315 326h362l-361 -326h-316zM711 1587c-101 0 -183 82 -183 183s82 183 183 183s183 -82 183 -183
s-82 -183 -183 -183z" />
    <glyph glyph-name="Sacute" unicode="&#x15a;" 
d="M136 442h345c-1 -3 -1 -3 -1 -17c0 -103 96 -171 240 -171c120 0 205 61 205 146c0 74 -55 124 -179 162l-150 46c-214 66 -329 201 -329 385c0 284 226 479 555 479c322 0 546 -176 547 -430c0 -22 0 -28 -2 -38h-345c1 5 1 7 1 23c0 91 -84 163 -191 163
c-117 0 -191 -57 -191 -148c0 -71 53 -122 163 -156l144 -44c228 -70 348 -200 348 -376c0 -303 -223 -495 -574 -495c-342 0 -588 180 -588 430c0 13 1 29 2 41zM736 1596l315 326h362l-361 -326h-316z" />
    <glyph glyph-name="T" unicode="T" 
d="M816 0h-366l202 1148h-396l52 295h1158l-52 -295h-396z" />
    <glyph glyph-name="Tcircumflexbelow" unicode="&#x1e70;" 
d="M816 0h-366l202 1148h-396l52 295h1158l-52 -295h-396zM424 -156h354l198 -365h-305l-88 197h-20l-154 -197h-313z" />
    <glyph glyph-name="Tdotbelow" unicode="&#x1e6c;" 
d="M816 0h-366l202 1148h-396l52 295h1158l-52 -295h-396zM574 -491c-101 0 -183 82 -183 183s82 183 183 183s183 -82 183 -183s-82 -183 -183 -183z" />
    <glyph glyph-name="Tcommaaccent" unicode="&#x21a;" 
d="M816 0h-366l202 1148h-396l52 295h1158l-52 -295h-396zM540 -504h-306l210 350h350z" />
    <glyph glyph-name="Tdotaccent" unicode="&#x1e6a;" 
d="M816 0h-366l202 1148h-396l52 295h1158l-52 -295h-396zM937 1571c-101 0 -183 82 -183 183s82 183 183 183s183 -82 183 -183s-82 -183 -183 -183z" />
    <glyph glyph-name="Tcedilla" unicode="&#x162;" 
d="M623 0h-173l202 1148h-396l52 295h1158l-52 -295h-396l-202 -1148l-65 -102c94 -18 155 -80 155 -157c0 -157 -104 -235 -315 -235c-43 0 -96 7 -141 18l27 152c17 -8 64 -14 107 -14c69 0 113 21 113 54c0 30 -35 45 -104 45h-60l26 137z" />
    <glyph glyph-name="Tlinebelow" unicode="&#x1e6e;" 
d="M816 0h-366l202 1148h-396l52 295h1158l-52 -295h-396zM934 -428h-764l38 212h764z" />
    <glyph glyph-name="Tcaron" unicode="&#x164;" 
d="M816 0h-366l202 1148h-396l52 295h1158l-52 -295h-396zM744 1585l-213 350h289l98 -190h20l166 190h307l-337 -350h-330z" />
    <glyph glyph-name="Tbar" unicode="&#x166;" 
d="M1414 1148h-396l-61 -344h273l-44 -247h-272l-98 -557h-366l98 557h-272l44 247h271l61 344h-396l52 295h1158z" />
    <glyph glyph-name="U" unicode="U" 
d="M165 517l165 926h367l-161 -906c-5 -27 -8 -51 -8 -71c0 -124 84 -186 182 -186c106 0 176 78 203 231l166 932h367l-180 -991c-55 -304 -266 -481 -564 -481c-320 0 -542 183 -542 469c0 30 1 52 5 77z" />
    <glyph glyph-name="Ugrave" unicode="&#xd9;" 
d="M869 1922l201 -326h-312l-247 326h358zM165 517l165 926h367l-161 -906c-5 -27 -8 -51 -8 -71c0 -124 84 -186 182 -186c106 0 176 78 203 231l166 932h367l-180 -991c-55 -304 -266 -481 -564 -481c-320 0 -542 183 -542 469c0 30 1 52 5 77z" />
    <glyph glyph-name="Udblgrave" unicode="&#x214;" 
d="M1137 1922l163 -326h-263l-191 326h291zM687 1922l164 -326h-263l-191 326h290zM165 517l165 926h367l-161 -906c-5 -27 -8 -51 -8 -71c0 -124 84 -186 182 -186c106 0 176 78 203 231l166 932h367l-180 -991c-55 -304 -266 -481 -564 -481c-320 0 -542 183 -542 469
c0 30 1 52 5 77z" />
    <glyph glyph-name="Uacute" unicode="&#xda;" 
d="M165 517l165 926h367l-161 -906c-5 -27 -8 -51 -8 -71c0 -124 84 -186 182 -186c106 0 176 78 203 231l166 932h367l-180 -991c-55 -304 -266 -481 -564 -481c-320 0 -542 183 -542 469c0 30 1 52 5 77zM757 1596l315 326h362l-361 -326h-316z" />
    <glyph glyph-name="Uhungarumlaut" unicode="&#x170;" 
d="M165 517l165 926h367l-161 -906c-5 -27 -8 -51 -8 -71c0 -124 84 -186 182 -186c106 0 176 78 203 231l166 932h367l-180 -991c-55 -304 -266 -481 -564 -481c-320 0 -542 183 -542 469c0 30 1 52 5 77zM1014 1596l278 326h292l-305 -326h-265zM565 1596l277 326h293
l-305 -326h-265z" />
    <glyph glyph-name="Ucircumflex" unicode="&#xdb;" 
d="M165 517l165 926h367l-161 -906c-5 -27 -8 -51 -8 -71c0 -124 84 -186 182 -186c106 0 176 78 203 231l166 932h367l-180 -991c-55 -304 -266 -481 -564 -481c-320 0 -542 183 -542 469c0 30 1 52 5 77zM1163 1945l213 -350h-289l-98 190h-20l-166 -190h-307l337 350h330
z" />
    <glyph glyph-name="Ucaron" unicode="&#x1d3;" 
d="M165 517l165 926h367l-161 -906c-5 -27 -8 -51 -8 -71c0 -124 84 -186 182 -186c106 0 176 78 203 231l166 932h367l-180 -991c-55 -304 -266 -481 -564 -481c-320 0 -542 183 -542 469c0 30 1 52 5 77zM745 1585l-213 350h289l98 -190h20l166 190h307l-337 -350h-330z
" />
    <glyph glyph-name="Ucircumflexbelow" unicode="&#x1e76;" 
d="M165 517l165 926h367l-161 -906c-5 -27 -8 -51 -8 -71c0 -124 84 -186 182 -186c106 0 176 78 203 231l166 932h367l-180 -991c-55 -304 -266 -481 -564 -481c-320 0 -542 183 -542 469c0 30 1 52 5 77zM429 -156h354l198 -365h-305l-88 197h-20l-154 -197h-313z" />
    <glyph glyph-name="Udieresis" unicode="&#xdc;" 
d="M165 517l165 926h367l-161 -906c-5 -27 -8 -51 -8 -71c0 -124 84 -186 182 -186c106 0 176 78 203 231l166 932h367l-180 -991c-55 -304 -266 -481 -564 -481c-320 0 -542 183 -542 469c0 30 1 52 5 77zM687 1600c-93 0 -170 76 -170 170s77 170 170 170
s170 -76 170 -170s-77 -170 -170 -170zM1193 1600c-93 0 -170 76 -170 170s77 170 170 170s170 -76 170 -170s-77 -170 -170 -170z" />
    <glyph glyph-name="Udieresisgrave" unicode="&#x1db;" 
d="M681 1560c-93 0 -170 76 -170 170s77 170 170 170s170 -76 170 -170s-77 -170 -170 -170zM1187 1560c-93 0 -170 76 -170 170s77 170 170 170s170 -76 170 -170s-77 -170 -170 -170zM1003 2212l88 -250h-270l-141 250h323zM165 517l165 926h367l-161 -906
c-5 -27 -8 -51 -8 -71c0 -124 84 -186 182 -186c106 0 176 78 203 231l166 932h367l-180 -991c-55 -304 -266 -481 -564 -481c-320 0 -542 183 -542 469c0 30 1 52 5 77z" />
    <glyph glyph-name="Udieresisacute" unicode="&#x1d7;" 
d="M165 517l165 926h367l-161 -906c-5 -27 -8 -51 -8 -71c0 -124 84 -186 182 -186c106 0 176 78 203 231l166 932h367l-180 -991c-55 -304 -266 -481 -564 -481c-320 0 -542 183 -542 469c0 30 1 52 5 77zM794 1962l176 250h327l-229 -250h-274zM678 1560
c-93 0 -170 76 -170 170s77 170 170 170s170 -76 170 -170s-77 -170 -170 -170zM1184 1560c-93 0 -170 76 -170 170s77 170 170 170s170 -76 170 -170s-77 -170 -170 -170z" />
    <glyph glyph-name="Udieresismacron" unicode="&#x1d5;" 
d="M165 517l165 926h367l-161 -906c-5 -27 -8 -51 -8 -71c0 -124 84 -186 182 -186c106 0 176 78 203 231l166 932h367l-180 -991c-55 -304 -266 -481 -564 -481c-320 0 -542 183 -542 469c0 30 1 52 5 77zM1191 1899c93 0 170 -76 170 -170s-77 -170 -170 -170
s-170 76 -170 170s77 170 170 170zM1409 2187l-35 -196h-782l35 196h782zM685 1899c93 0 170 -76 170 -170s-77 -170 -170 -170s-170 76 -170 170s77 170 170 170z" />
    <glyph glyph-name="Udieresiscaron" unicode="&#x1d9;" 
d="M165 517l165 926h367l-161 -906c-5 -27 -8 -51 -8 -71c0 -124 84 -186 182 -186c106 0 176 78 203 231l166 932h367l-180 -991c-55 -304 -266 -481 -564 -481c-320 0 -542 183 -542 469c0 30 1 52 5 77zM1126 1929h-310l-212 326h283l97 -178h22l159 178h287zM680 1560
c-93 0 -170 76 -170 170s77 170 170 170s170 -76 170 -170s-77 -170 -170 -170zM1186 1560c-93 0 -170 76 -170 170s77 170 170 170s170 -76 170 -170s-77 -170 -170 -170z" />
    <glyph glyph-name="Udieresisbelow" unicode="&#x1e72;" 
d="M165 517l165 926h367l-161 -906c-5 -27 -8 -51 -8 -71c0 -124 84 -186 182 -186c106 0 176 78 203 231l166 932h367l-180 -991c-55 -304 -266 -481 -564 -481c-320 0 -542 183 -542 469c0 30 1 52 5 77zM325 -477c-93 0 -170 76 -170 170s77 170 170 170
s170 -76 170 -170s-77 -170 -170 -170zM831 -477c-93 0 -170 76 -170 170s77 170 170 170s170 -76 170 -170s-77 -170 -170 -170z" />
    <glyph glyph-name="Utildebelow" unicode="&#x1e74;" 
d="M165 517l165 926h367l-161 -906c-5 -27 -8 -51 -8 -71c0 -124 84 -186 182 -186c106 0 176 78 203 231l166 932h367l-180 -991c-55 -304 -266 -481 -564 -481c-320 0 -542 183 -542 469c0 30 1 52 5 77zM440 -327c-42 0 -75 -46 -92 -130h-219c39 206 156 333 308 333
c164 0 203 -145 284 -145c42 0 73 42 90 124h219c-36 -196 -159 -327 -307 -327c-164 0 -202 145 -283 145z" />
    <glyph glyph-name="Uhookabove" unicode="&#x1ee6;" 
d="M165 517l165 926h367l-161 -906c-5 -27 -8 -51 -8 -71c0 -124 84 -186 182 -186c106 0 176 78 203 231l166 932h367l-180 -991c-55 -304 -266 -481 -564 -481c-320 0 -542 183 -542 469c0 30 1 52 5 77zM730 1843l30 168c54 17 108 26 165 26c137 0 236 -81 236 -201
c0 -134 -100 -233 -269 -281l-72 121c89 28 133 75 133 118c0 45 -32 68 -98 68c-46 0 -97 -8 -125 -19z" />
    <glyph glyph-name="Ubreve" unicode="&#x16c;" 
d="M165 517l165 926h367l-161 -906c-5 -27 -8 -51 -8 -71c0 -124 84 -186 182 -186c106 0 176 78 203 231l166 932h367l-180 -991c-55 -304 -266 -481 -564 -481c-320 0 -542 183 -542 469c0 30 1 52 5 77zM916 1581c-237 0 -401 152 -377 351h244c-1 -96 60 -160 151 -160
c100 0 175 60 197 160h247c-39 -212 -223 -351 -462 -351z" />
    <glyph glyph-name="Uinvertedbreve" unicode="&#x216;" 
d="M165 517l165 926h367l-161 -906c-5 -27 -8 -51 -8 -71c0 -124 84 -186 182 -186c106 0 176 78 203 231l166 932h367l-180 -991c-55 -304 -266 -481 -564 -481c-320 0 -542 183 -542 469c0 30 1 52 5 77zM980 1932c237 0 401 -152 377 -351h-244c1 96 -60 160 -151 160
c-100 0 -175 -60 -197 -160h-247c39 212 223 351 462 351z" />
    <glyph glyph-name="Utildeacute" unicode="&#x1e78;" 
d="M165 517l165 926h367l-161 -906c-5 -27 -8 -51 -8 -71c0 -124 84 -186 182 -186c106 0 176 78 203 231l166 932h367l-180 -991c-55 -304 -266 -481 -564 -481c-320 0 -542 183 -542 469c0 30 1 52 5 77zM820 1962l127 250h315l-158 -250h-284zM802 1698
c-40 0 -71 -38 -89 -116h-210c36 181 148 296 296 296c157 0 195 -128 272 -128c40 0 69 34 87 109h210c-33 -165 -146 -289 -295 -289c-157 0 -194 128 -271 128z" />
    <glyph glyph-name="Udotbelow" unicode="&#x1ee4;" 
d="M165 517l165 926h367l-161 -906c-5 -27 -8 -51 -8 -71c0 -124 84 -186 182 -186c106 0 176 78 203 231l166 932h367l-180 -991c-55 -304 -266 -481 -564 -481c-320 0 -542 183 -542 469c0 30 1 52 5 77zM579 -491c-101 0 -183 82 -183 183s82 183 183 183
s183 -82 183 -183s-82 -183 -183 -183z" />
    <glyph glyph-name="Utilde" unicode="&#x168;" 
d="M165 517l165 926h367l-161 -906c-5 -27 -8 -51 -8 -71c0 -124 84 -186 182 -186c106 0 176 78 203 231l166 932h367l-180 -991c-55 -304 -266 -481 -564 -481c-320 0 -542 183 -542 469c0 30 1 52 5 77zM802 1709c-40 0 -71 -41 -89 -125h-210c36 195 148 320 296 320
c157 0 195 -139 272 -139c40 0 69 37 87 119h210c-33 -180 -146 -314 -295 -314c-157 0 -194 139 -271 139z" />
    <glyph glyph-name="Umacron" unicode="&#x16a;" 
d="M165 517l165 926h367l-161 -906c-5 -27 -8 -51 -8 -71c0 -124 84 -186 182 -186c106 0 176 78 203 231l166 932h367l-180 -991c-55 -304 -266 -481 -564 -481c-320 0 -542 183 -542 469c0 30 1 52 5 77zM1298 1631h-764l38 212h764z" />
    <glyph glyph-name="Umacrondieresis" unicode="&#x1e7a;" 
d="M165 517l165 926h367l-161 -906c-5 -27 -8 -51 -8 -71c0 -124 84 -186 182 -186c106 0 176 78 203 231l166 932h367l-180 -991c-55 -304 -266 -481 -564 -481c-320 0 -542 183 -542 469c0 30 1 52 5 77zM739 1894c-93 0 -170 76 -170 170s77 170 170 170
s170 -76 170 -170s-77 -170 -170 -170zM521 1606l35 196h782l-35 -196h-782zM1245 1894c-93 0 -170 76 -170 170s77 170 170 170s170 -76 170 -170s-77 -170 -170 -170z" />
    <glyph glyph-name="Uring" unicode="&#x16e;" 
d="M165 517l165 926h367l-161 -906c-5 -27 -8 -51 -8 -71c0 -124 84 -186 182 -186c106 0 176 78 203 231l166 932h367l-180 -991c-55 -304 -266 -481 -564 -481c-320 0 -542 183 -542 469c0 30 1 52 5 77zM938 1543c-121 0 -209 85 -209 203c0 116 87 199 209 199
c120 0 207 -83 207 -199c0 -118 -87 -203 -207 -203zM937 1655c53 0 90 39 90 89c0 51 -39 89 -90 89s-90 -38 -90 -89s39 -89 90 -89z" />
    <glyph glyph-name="Uogonek" unicode="&#x172;" 
d="M1013 -267l-34 -179c-38 -15 -94 -23 -159 -23c-178 0 -302 88 -302 214c0 88 62 166 170 216l4 20c-315 -10 -532 178 -532 459c0 41 1 59 5 77l165 926h367l-161 -906c-5 -29 -8 -52 -8 -71c0 -112 72 -186 182 -186c107 0 176 79 203 231l166 932h367l-180 -991
c-34 -186 -128 -328 -272 -410c-145 -84 -202 -147 -202 -222c0 -56 49 -95 117 -95c45 0 96 4 104 8z" />
    <glyph glyph-name="Uhorn" unicode="&#x1af;" 
d="M675 -29c-307 0 -509 177 -509 446c0 31 1 51 5 73l170 953h366l-168 -945c-5 -26 -7 -45 -7 -60c0 -96 59 -158 151 -158c91 0 151 68 174 196l172 967h262c51 0 89 28 97 71l34 194h269l-47 -266c-25 -143 -129 -227 -280 -227h-9l-139 -787
c-50 -285 -254 -457 -541 -457z" />
    <glyph glyph-name="Uhorngrave" unicode="&#x1eea;" 
d="M1355 1215l-139 -787c-50 -285 -254 -457 -541 -457c-307 0 -509 177 -509 446c0 31 1 51 5 73l170 953h366l-168 -945c-5 -26 -7 -45 -7 -60c0 -96 59 -158 151 -158c91 0 151 68 174 196l172 967h262c51 0 89 28 97 71l34 194h269l-47 -266
c-25 -143 -129 -227 -280 -227h-9zM843 1922l201 -326h-312l-247 326h358z" />
    <glyph glyph-name="Uhornacute" unicode="&#x1ee8;" 
d="M675 -29c-307 0 -509 177 -509 446c0 31 1 51 5 73l170 953h366l-168 -945c-5 -26 -7 -45 -7 -60c0 -96 59 -158 151 -158c91 0 151 68 174 196l172 967h262c51 0 89 28 97 71l34 194h269l-47 -266c-25 -143 -129 -227 -280 -227h-9l-139 -787
c-50 -285 -254 -457 -541 -457zM654 1596l315 326h362l-361 -326h-316z" />
    <glyph glyph-name="Uhorndotbelow" unicode="&#x1ef0;" 
d="M579 -491c-101 0 -183 82 -183 183s82 183 183 183s183 -82 183 -183s-82 -183 -183 -183zM675 -29c-307 0 -509 177 -509 446c0 31 1 51 5 73l170 953h366l-168 -945c-5 -26 -7 -45 -7 -60c0 -96 59 -158 151 -158c91 0 151 68 174 196l172 967h262c51 0 89 28 97 71
l34 194h269l-47 -266c-25 -143 -129 -227 -280 -227h-9l-139 -787c-50 -285 -254 -457 -541 -457z" />
    <glyph glyph-name="Uhornhookabove" unicode="&#x1eec;" 
d="M734 1843l30 168c54 17 108 26 165 26c137 0 236 -81 236 -201c0 -134 -100 -233 -269 -281l-72 121c89 28 133 75 133 118c0 45 -32 68 -98 68c-46 0 -97 -8 -125 -19zM675 -29c-307 0 -509 177 -509 446c0 31 1 51 5 73l170 953h366l-168 -945c-5 -26 -7 -45 -7 -60
c0 -96 59 -158 151 -158c91 0 151 68 174 196l172 967h262c51 0 89 28 97 71l34 194h269l-47 -266c-25 -143 -129 -227 -280 -227h-9l-139 -787c-50 -285 -254 -457 -541 -457z" />
    <glyph glyph-name="Uhorntilde" unicode="&#x1eee;" 
d="M675 -29c-307 0 -509 177 -509 446c0 31 1 51 5 73l170 953h366l-168 -945c-5 -26 -7 -45 -7 -60c0 -96 59 -158 151 -158c91 0 151 68 174 196l172 967h262c51 0 89 28 97 71l34 194h269l-47 -266c-25 -143 -129 -227 -280 -227h-9l-139 -787
c-50 -285 -254 -457 -541 -457zM796 1709c-40 0 -71 -41 -89 -125h-210c36 195 148 320 296 320c157 0 195 -139 272 -139c40 0 69 37 87 119h210c-33 -180 -146 -314 -295 -314c-157 0 -194 139 -271 139z" />
    <glyph glyph-name="V" unicode="V" 
d="M698 325l442 1118h380l-662 -1443h-449l-155 1443h384l41 -1118h19z" />
    <glyph glyph-name="Vtilde" unicode="&#x1e7c;" 
d="M698 325l442 1118h380l-662 -1443h-449l-155 1443h384l41 -1118h19zM806 1709c-40 0 -71 -41 -89 -125h-210c36 195 148 320 296 320c157 0 195 -139 272 -139c40 0 69 37 87 119h210c-33 -180 -146 -314 -295 -314c-157 0 -194 139 -271 139z" />
    <glyph glyph-name="Vdotbelow" unicode="&#x1e7e;" 
d="M698 325l442 1118h380l-662 -1443h-449l-155 1443h384l41 -1118h19zM579 -491c-101 0 -183 82 -183 183s82 183 183 183s183 -82 183 -183s-82 -183 -183 -183z" />
    <glyph glyph-name="W" unicode="W" 
d="M787 824h-18l-250 -824h-313l48 1443h330l-43 -450l-64 -552h20l200 672h268l-36 -672h20l130 552l115 450h326l-460 -1443h-313z" />
    <glyph glyph-name="Wgrave" unicode="&#x1e80;" 
d="M868 1922l201 -326h-312l-247 326h358zM787 824h-18l-250 -824h-313l48 1443h330l-43 -450l-64 -552h20l200 672h268l-36 -672h20l130 552l115 450h326l-460 -1443h-313z" />
    <glyph glyph-name="Wacute" unicode="&#x1e82;" 
d="M787 824h-18l-250 -824h-313l48 1443h330l-43 -450l-64 -552h20l200 672h268l-36 -672h20l130 552l115 450h326l-460 -1443h-313zM756 1596l315 326h362l-361 -326h-316z" />
    <glyph glyph-name="Wdotaccent" unicode="&#x1e86;" 
d="M787 824h-18l-250 -824h-313l48 1443h330l-43 -450l-64 -552h20l200 672h268l-36 -672h20l130 552l115 450h326l-460 -1443h-313zM937 1571c-101 0 -183 82 -183 183s82 183 183 183s183 -82 183 -183s-82 -183 -183 -183z" />
    <glyph glyph-name="Wdotbelow" unicode="&#x1e88;" 
d="M787 824h-18l-250 -824h-313l48 1443h330l-43 -450l-64 -552h20l200 672h268l-36 -672h20l130 552l115 450h326l-460 -1443h-313zM579 -491c-101 0 -183 82 -183 183s82 183 183 183s183 -82 183 -183s-82 -183 -183 -183z" />
    <glyph glyph-name="Wdieresis" unicode="&#x1e84;" 
d="M787 824h-18l-250 -824h-313l48 1443h330l-43 -450l-64 -552h20l200 672h268l-36 -672h20l130 552l115 450h326l-460 -1443h-313zM686 1600c-93 0 -170 76 -170 170s77 170 170 170s170 -76 170 -170s-77 -170 -170 -170zM1192 1600c-93 0 -170 76 -170 170
s77 170 170 170s170 -76 170 -170s-77 -170 -170 -170z" />
    <glyph glyph-name="Wcircumflex" unicode="&#x174;" 
d="M787 824h-18l-250 -824h-313l48 1443h330l-43 -450l-64 -552h20l200 672h268l-36 -672h20l130 552l115 450h326l-460 -1443h-313zM1162 1945l213 -350h-289l-98 190h-20l-166 -190h-307l337 350h330z" />
    <glyph glyph-name="X" unicode="X" 
d="M0 0l533 728l-279 715h388l151 -478h18l319 478h390l-548 -719l294 -724h-376l-171 457h-17l-331 -457h-371z" />
    <glyph glyph-name="Xdotaccent" unicode="&#x1e8a;" 
d="M0 0l533 728l-279 715h388l151 -478h18l319 478h390l-548 -719l294 -724h-376l-171 457h-17l-331 -457h-371zM936 1571c-101 0 -183 82 -183 183s82 183 183 183s183 -82 183 -183s-82 -183 -183 -183z" />
    <glyph glyph-name="Xdieresis" unicode="&#x1e8c;" 
d="M0 0l533 728l-279 715h388l151 -478h18l319 478h390l-548 -719l294 -724h-376l-171 457h-17l-331 -457h-371zM685 1600c-93 0 -170 76 -170 170s77 170 170 170s170 -76 170 -170s-77 -170 -170 -170zM1191 1600c-93 0 -170 76 -170 170s77 170 170 170s170 -76 170 -170
s-77 -170 -170 -170z" />
    <glyph glyph-name="Y" unicode="Y" 
d="M816 0h-366l87 496l-283 947h382l129 -589h20l335 589h400l-617 -947z" />
    <glyph glyph-name="Ygrave" unicode="&#x1ef2;" 
d="M859 1922l201 -326h-312l-247 326h358zM816 0h-366l87 496l-283 947h382l129 -589h20l335 589h400l-617 -947z" />
    <glyph glyph-name="Yacute" unicode="&#xdd;" 
d="M816 0h-366l87 496l-283 947h382l129 -589h20l335 589h400l-617 -947zM747 1596l315 326h362l-361 -326h-316z" />
    <glyph glyph-name="Ydotaccent" unicode="&#x1e8e;" 
d="M816 0h-366l87 496l-283 947h382l129 -589h20l335 589h400l-617 -947zM928 1571c-101 0 -183 82 -183 183s82 183 183 183s183 -82 183 -183s-82 -183 -183 -183z" />
    <glyph glyph-name="Ydotbelow" unicode="&#x1ef4;" 
d="M816 0h-366l87 496l-283 947h382l129 -589h20l335 589h400l-617 -947zM574 -491c-101 0 -183 82 -183 183s82 183 183 183s183 -82 183 -183s-82 -183 -183 -183z" />
    <glyph glyph-name="Ydieresis" unicode="&#x178;" 
d="M816 0h-366l87 496l-283 947h382l129 -589h20l335 589h400l-617 -947zM677 1600c-93 0 -170 76 -170 170s77 170 170 170s170 -76 170 -170s-77 -170 -170 -170zM1183 1600c-93 0 -170 76 -170 170s77 170 170 170s170 -76 170 -170s-77 -170 -170 -170z" />
    <glyph glyph-name="Ytilde" unicode="&#x1ef8;" 
d="M816 0h-366l87 496l-283 947h382l129 -589h20l335 589h400l-617 -947zM792 1709c-40 0 -71 -41 -89 -125h-210c36 195 148 320 296 320c157 0 195 -139 272 -139c40 0 69 37 87 119h210c-33 -180 -146 -314 -295 -314c-157 0 -194 139 -271 139z" />
    <glyph glyph-name="Ycircumflex" unicode="&#x176;" 
d="M816 0h-366l87 496l-283 947h382l129 -589h20l335 589h400l-617 -947zM1153 1945l213 -350h-289l-98 190h-20l-166 -190h-307l337 350h330z" />
    <glyph glyph-name="Ymacron" unicode="&#x232;" 
d="M816 0h-366l87 496l-283 947h382l129 -589h20l335 589h400l-617 -947zM1288 1631h-764l38 212h764z" />
    <glyph glyph-name="Yhookabove" unicode="&#x1ef6;" 
d="M816 0h-366l87 496l-283 947h382l129 -589h20l335 589h400l-617 -947zM720 1843l30 168c54 17 108 26 165 26c137 0 236 -81 236 -201c0 -134 -100 -233 -269 -281l-72 121c89 28 133 75 133 118c0 45 -32 68 -98 68c-46 0 -97 -8 -125 -19z" />
    <glyph glyph-name="Z" unicode="Z" 
d="M130 0l41 233l738 896l3 19h-569l52 295h1014l-41 -233l-738 -896l-3 -19h601l-52 -295h-1046z" />
    <glyph glyph-name="Zacute" unicode="&#x179;" 
d="M130 0l41 233l738 896l3 19h-569l52 295h1014l-41 -233l-738 -896l-3 -19h601l-52 -295h-1046zM756 1596l315 326h362l-361 -326h-316z" />
    <glyph glyph-name="Zcaron" unicode="&#x17d;" 
d="M130 0l41 233l738 896l3 19h-569l52 295h1014l-41 -233l-738 -896l-3 -19h601l-52 -295h-1046zM744 1585l-213 350h289l98 -190h20l166 190h307l-337 -350h-330z" />
    <glyph glyph-name="Zcircumflex" unicode="&#x1e90;" 
d="M130 0l41 233l738 896l3 19h-569l52 295h1014l-41 -233l-738 -896l-3 -19h601l-52 -295h-1046zM1162 1945l213 -350h-289l-98 190h-20l-166 -190h-307l337 350h330z" />
    <glyph glyph-name="Zlinebelow" unicode="&#x1e94;" 
d="M130 0l41 233l738 896l3 19h-569l52 295h1014l-41 -233l-738 -896l-3 -19h601l-52 -295h-1046zM939 -428h-764l38 212h764z" />
    <glyph glyph-name="Zdotbelow" unicode="&#x1e92;" 
d="M130 0l41 233l738 896l3 19h-569l52 295h1014l-41 -233l-738 -896l-3 -19h601l-52 -295h-1046zM579 -491c-101 0 -183 82 -183 183s82 183 183 183s183 -82 183 -183s-82 -183 -183 -183z" />
    <glyph glyph-name="Zdotaccent" unicode="&#x17b;" 
d="M130 0l41 233l738 896l3 19h-569l52 295h1014l-41 -233l-738 -896l-3 -19h601l-52 -295h-1046zM937 1571c-101 0 -183 82 -183 183s82 183 183 183s183 -82 183 -183s-82 -183 -183 -183z" />
    <glyph glyph-name="AE" unicode="&#xc6;" 
d="M691 589l92 524h-82l-160 -524h150zM1460 1148h-343l-50 -288h307l-48 -270h-307l-52 -295h343l-52 -295h-671l54 305h-186l-93 -305h-362l536 1443h976z" />
    <glyph glyph-name="AEmacron" unicode="&#x1e2;" 
d="M1462 1843l-38 -212h-764l38 212h764zM691 589l92 524h-82l-160 -524h150zM1460 1148h-343l-50 -288h307l-48 -270h-307l-52 -295h343l-52 -295h-671l54 305h-186l-93 -305h-362l536 1443h976z" />
    <glyph glyph-name="AEacute" unicode="&#x1fc;" 
d="M1560 1922l-361 -326h-316l315 326h362zM783 1113h-82l-160 -524h150zM0 0l536 1443h976l-52 -295h-343l-50 -288h307l-48 -270h-307l-52 -295h343l-52 -295h-671l54 305h-186l-93 -305h-362z" />
    <glyph glyph-name="OE" unicode="&#x152;" 
d="M509 835l-32 -181c-10 -54 -15 -106 -15 -154c0 -91 42 -142 116 -142c91 0 147 78 176 244l33 187c12 66 17 117 17 159c0 89 -41 137 -116 137c-90 0 -150 -84 -179 -250zM694 205c-80 -178 -146 -239 -288 -239c-181 0 -292 135 -292 356c0 102 10 209 30 326l44 248
c72 406 200 581 426 581c150 0 237 -89 261 -249h15l37 215h573l-57 -324h-292l-43 -247h255l-53 -300h-255l-44 -249h292l-57 -323h-573l36 205h-15z" />
    <glyph glyph-name="Eth" unicode="&#xd0;" 
d="M510 295h109c196 0 284 126 332 399c4 20 7 47 9 76c2 30 3 62 3 94c0 180 -96 289 -246 289h-56l-52 -293h216l-48 -273h-216zM345 1443h433c357 0 572 -209 572 -561c0 -39 -1 -74 -4 -108c-2 -34 -6 -66 -12 -98c-78 -446 -299 -676 -651 -676h-592l103 587h-112
l48 273h112z" />
    <glyph glyph-name="Thorn" unicode="&#xde;" 
d="M409 1443h393l-38 -216h88c311 0 510 -169 510 -433c0 -347 -226 -547 -617 -547h-153l-44 -247h-393zM711 925l-65 -372h114c146 0 232 82 232 221c0 89 -77 151 -186 151h-95z" />
    <glyph glyph-name="Alphagreek" unicode="&#x391;" 
d="M609 581h251l-20 537h-19zM881 0l-12 317h-365l-125 -317h-379l662 1443h450l154 -1443h-385z" />
    <glyph glyph-name="Betagreek" unicode="&#x392;" 
d="M676 1184l-56 -318h152c110 0 192 73 192 171c0 93 -63 147 -171 147h-117zM514 264h185c134 0 215 75 215 200c0 104 -75 158 -220 158h-117zM110 0l254 1443h498c300 0 483 -130 483 -343c0 -180 -126 -309 -339 -345l-4 -19c169 -26 290 -162 290 -328
c0 -237 -209 -408 -497 -408h-685z" />
    <glyph glyph-name="Gammagreek" unicode="&#x393;" 
d="M207 0l254 1443h958l-52 -295h-591l-202 -1148h-367z" />
    <glyph glyph-name="Deltagreek" unicode="&#x394;" 
d="M45 0l35 196l582 1247h449l144 -1247l-35 -196h-1175zM490 295h387l3 19l-40 814h-19l-328 -814z" />
    <glyph glyph-name="Deltagreek" unicode="&#x2206;" 
d="M45 0l35 196l582 1247h449l144 -1247l-35 -196h-1175zM490 295h387l3 19l-40 814h-19l-328 -814z" />
    <glyph glyph-name="Epsilongreek" unicode="&#x395;" 
d="M1180 295l-52 -295h-954l254 1443h954l-52 -295h-587l-50 -288h550l-48 -270h-550l-52 -295h587z" />
    <glyph glyph-name="Zetagreek" unicode="&#x396;" 
d="M130 0l41 233l738 896l3 19h-569l52 295h1014l-41 -233l-738 -896l-3 -19h601l-52 -295h-1046z" />
    <glyph glyph-name="Etagreek" unicode="&#x397;" 
d="M1175 0h-358l103 582h-368l-103 -582h-358l254 1443h358l-99 -566h368l99 566h358z" />
    <glyph glyph-name="Thetagreek" unicode="&#x398;" 
d="M590 572l51 288h286l-51 -288h-286zM1304 555c-67 -382 -281 -584 -620 -584c-299 0 -519 205 -519 484c0 118 3 168 14 220l38 213c69 383 283 584 621 584c299 0 517 -205 517 -484c0 -115 -1 -147 -14 -220zM692 275c165 0 237 99 277 328l36 205c12 67 16 108 16 168
c0 116 -56 192 -193 192c-175 0 -237 -98 -277 -328l-36 -205c-11 -63 -16 -106 -16 -167c0 -117 56 -193 193 -193z" />
    <glyph glyph-name="Iotagreek" unicode="&#x399;" 
d="M1120 0h-974l52 295h304l150 853h-304l52 295h974l-52 -295h-304l-150 -853h304z" />
    <glyph glyph-name="Kappagreek" unicode="&#x39a;" 
d="M996 806l302 -806h-398l-212 584l-158 -170l-73 -414h-343l254 1443h343l-109 -620h22l532 620h406z" />
    <glyph glyph-name="Lambdagreek" unicode="&#x39b;" 
d="M10 0l653 1443h448l145 -1443h-385l-34 1098h-19l-428 -1098h-380z" />
    <glyph glyph-name="Mugreek" unicode="&#x39c;" 
d="M453 430l-76 -430h-300l254 1443h373l37 -785h20l313 785h369l-254 -1443h-300l76 430l157 571h-27l-281 -662h-234l-55 662h-27z" />
    <glyph glyph-name="Nugreek" unicode="&#x39d;" 
d="M419 0h-311l254 1443h316l252 -862h19l152 862h311l-254 -1443h-316l-251 870h-19z" />
    <glyph glyph-name="Xigreek" unicode="&#x39e;" 
d="M133 0l54 304h1000l-54 -304h-1000zM320 567l53 300h826l-53 -300h-826zM334 1139l53 304h1000l-53 -304h-1000z" />
    <glyph glyph-name="Omicrongreek" unicode="&#x39f;" 
d="M1304 555c-67 -382 -281 -584 -620 -584c-299 0 -519 205 -519 484c0 115 3 165 14 220l38 213c69 383 283 584 621 584c299 0 517 -205 517 -484c0 -110 -3 -162 -14 -220zM698 275c129 0 197 94 238 328l36 205c12 69 16 111 16 168c0 119 -63 192 -166 192
c-129 0 -198 -94 -239 -328l-36 -205c-11 -66 -15 -109 -15 -167c0 -120 63 -193 166 -193z" />
    <glyph glyph-name="Pigreek" unicode="&#x3a0;" 
d="M91 0l254 1443h1084l-254 -1443h-358l202 1148h-368l-202 -1148h-358z" />
    <glyph glyph-name="Rhogreek" unicode="&#x3a1;" 
d="M365 1443h470c325 0 526 -176 526 -459c0 -316 -270 -561 -617 -561h-191l-75 -423h-367zM683 1164l-81 -462h109c168 0 280 104 280 260c0 130 -81 202 -228 202h-80z" />
    <glyph glyph-name="Sigmagreek" unicode="&#x3a3;" 
d="M130 0l41 233l424 492l-229 488l40 230h976l-52 -295h-522l-3 -19l183 -402l-7 -38l-326 -375l-3 -19h548l-52 -295h-1018z" />
    <glyph glyph-name="Taugreek" unicode="&#x3a4;" 
d="M816 0h-366l202 1148h-396l52 295h1158l-52 -295h-396z" />
    <glyph glyph-name="Upsilongreek" unicode="&#x3a5;" 
d="M816 0h-366l87 496l-283 947h382l129 -589h20l335 589h400l-617 -947z" />
    <glyph glyph-name="Phigreek" unicode="&#x3a6;" 
d="M820 56l-33 -187h-306l33 186c-229 32 -353 200 -353 479c0 246 60 451 161 596c103 148 250 235 422 241l32 184h308l-32 -183c228 -33 352 -201 352 -480c0 -239 -59 -447 -161 -595c-104 -150 -253 -239 -423 -241zM436 513c0 -150 62 -206 132 -219l148 840
c-75 -5 -142 -77 -192 -183c-54 -117 -88 -277 -88 -438zM1129 913c0 150 -62 206 -132 219l-149 -840c75 5 143 77 193 183c54 117 88 277 88 438z" />
    <glyph glyph-name="Chigreek" unicode="&#x3a7;" 
d="M0 0l533 728l-279 715h388l151 -478h18l319 478h390l-548 -719l294 -724h-376l-171 457h-17l-331 -457h-371z" />
    <glyph glyph-name="Psigreek" unicode="&#x3a8;" 
d="M461 0l48 282c-225 38 -320 127 -320 332c0 63 8 141 27 249l102 580h293l-103 -588c-16 -90 -24 -154 -24 -200c0 -80 22 -111 94 -127l161 915h295l-164 -935c118 7 137 55 182 309l110 626h294l-116 -660c-71 -402 -170 -508 -488 -525l-48 -258h-343z" />
    <glyph glyph-name="Omegagreek" unicode="&#x3a9;" 
d="M834 1472c364 0 560 -180 560 -518c0 -38 -2 -75 -6 -110c-4 -41 -11 -80 -21 -117c-48 -190 -162 -331 -336 -425l-4 -19h266l-50 -283h-554l63 359c76 35 139 89 186 157c48 68 80 150 94 243c6 37 9 75 9 115c0 198 -73 294 -225 294c-115 0 -205 -71 -259 -193
c-28 -63 -46 -139 -53 -226c-2 -27 -3 -54 -3 -83c0 -119 42 -227 141 -306l-65 -360h-534l50 283h246l4 19c-116 94 -178 236 -178 421c0 51 4 102 11 151c10 70 28 138 54 201c94 230 292 397 604 397z" />
    <glyph glyph-name="Omegagreek" unicode="&#x2126;" 
d="M834 1472c364 0 560 -180 560 -518c0 -38 -2 -75 -6 -110c-4 -41 -11 -80 -21 -117c-48 -190 -162 -331 -336 -425l-4 -19h266l-50 -283h-554l63 359c76 35 139 89 186 157c48 68 80 150 94 243c6 37 9 75 9 115c0 198 -73 294 -225 294c-115 0 -205 -71 -259 -193
c-28 -63 -46 -139 -53 -226c-2 -27 -3 -54 -3 -83c0 -119 42 -227 141 -306l-65 -360h-534l50 283h246l4 19c-116 94 -178 236 -178 421c0 51 4 102 11 151c10 70 28 138 54 201c94 230 292 397 604 397z" />
    <glyph glyph-name="Alphatonosgreek" unicode="&#x386;" 
d="M626 1443l-229 -394h-218l139 394h308zM709 581h193l9 537h-19zM1266 0h-374l5 317h-279l-108 -317h-350l582 1443h449z" />
    <glyph glyph-name="Epsilontonosgreek" unicode="&#x388;" 
d="M1258 295l-52 -295h-721l254 1443h721l-52 -295h-373l-50 -288h336l-48 -270h-336l-52 -295h373zM179 1049l139 394h308l-229 -394h-218z" />
    <glyph glyph-name="Etatonosgreek" unicode="&#x389;" 
d="M1226 0h-312l106 602h-162l-106 -602h-312l254 1443h312l-103 -586h162l103 586h312zM179 1049l139 394h308l-229 -394h-218z" />
    <glyph glyph-name="Iotatonosgreek" unicode="&#x38a;" 
d="M1184 0h-717l52 295h204l150 853h-204l52 295h717l-52 -295h-207l-150 -853h207zM229 1049l139 394h308l-229 -394h-218z" />
    <glyph glyph-name="Iotatonosgreek.1" 
d="M1007 0h-366l254 1443h366zM279 1049l139 394h308l-229 -394h-218z" />
    <glyph glyph-name="Iotadieresisgreek" unicode="&#x3aa;" 
d="M1120 0h-974l52 295h304l150 853h-304l52 295h974l-52 -295h-304l-150 -853h304zM686 1600c-93 0 -170 76 -170 170s77 170 170 170s170 -76 170 -170s-77 -170 -170 -170zM1192 1600c-93 0 -170 76 -170 170s77 170 170 170s170 -76 170 -170s-77 -170 -170 -170z" />
    <glyph glyph-name="Omicrontonosgreek" unicode="&#x38c;" 
d="M728 418c0 -102 27 -143 94 -143c81 0 131 88 168 295l50 285c12 72 18 127 18 170c0 101 -28 143 -94 143c-81 0 -131 -88 -168 -295l-50 -285c-12 -72 -18 -127 -18 -170zM1295 585c-76 -425 -228 -615 -494 -615c-253 0 -376 137 -376 417c0 61 8 135 29 258l37 213
c74 423 228 615 494 615c253 0 378 -138 378 -417c0 -62 -9 -135 -30 -258zM199 1049l139 394h308l-229 -394h-218z" />
    <glyph glyph-name="Upsilontonosgreek" unicode="&#x38e;" 
d="M1006 0h-326l87 496l-133 947h347l-1 -589h20l205 589h355l-467 -947zM179 1049l139 394h308l-229 -394h-218z" />
    <glyph glyph-name="Upsilondieresisgreek" unicode="&#x3ab;" 
d="M816 0h-366l87 496l-283 947h382l129 -589h20l335 589h400l-617 -947zM677 1600c-93 0 -170 76 -170 170s77 170 170 170s170 -76 170 -170s-77 -170 -170 -170zM1183 1600c-93 0 -170 76 -170 170s77 170 170 170s170 -76 170 -170s-77 -170 -170 -170z" />
    <glyph glyph-name="Omegatonosgreek" unicode="&#x38f;" 
d="M1005 1468c272 0 413 -153 413 -448c0 -33 -2 -68 -5 -105c-4 -37 -9 -75 -16 -116c-48 -277 -118 -418 -266 -535l-3 -19h157l-43 -245h-398l76 421c102 67 132 137 179 404c6 34 11 65 14 93s4 54 4 77c0 121 -43 175 -137 175c-108 0 -169 -94 -209 -322
c-10 -59 -18 -108 -23 -148c-5 -41 -7 -73 -7 -101c0 -76 16 -119 64 -170l-76 -429h-397l43 245h159l3 19c-64 82 -93 184 -93 327c0 39 2 81 7 126c4 46 11 94 20 146c71 400 252 605 534 605zM179 1049l139 394h308l-229 -394h-218z" />
    <glyph glyph-name="Acyrillic" unicode="&#x410;" 
d="M609 581h251l-20 537h-19zM881 0l-12 317h-365l-125 -317h-379l662 1443h450l154 -1443h-385z" />
    <glyph glyph-name="uni04D0" unicode="&#x4d0;" 
d="M609 581h251l-20 537h-19zM662 1443h450l154 -1443h-385l-12 317h-365l-125 -317h-379zM1124 1958h251c-10 -207 -192 -359 -432 -359c-243 0 -422 167 -383 359h247c-7 -101 52 -168 146 -168s158 62 171 168z" />
    <glyph glyph-name="uni04D2" unicode="&#x4d2;" 
d="M685 1600c-93 0 -170 76 -170 170s77 170 170 170s170 -76 170 -170s-77 -170 -170 -170zM609 581h251l-20 537h-19zM662 1443h450l154 -1443h-385l-12 317h-365l-125 -317h-379zM1191 1940c93 0 170 -76 170 -170s-77 -170 -170 -170s-170 76 -170 170s77 170 170 170z
" />
    <glyph glyph-name="uniF50E" 
d="M609 581h251l-20 537h-19zM662 1443h450l154 -1443h-385l-12 317h-365l-125 -317h-379zM570 1843h764l-38 -212h-764z" />
    <glyph glyph-name="uniF460" 
d="M1432 1922l-361 -326h-316l315 326h362zM609 581h251l-20 537h-19zM662 1443h450l154 -1443h-385l-12 317h-365l-125 -317h-379z" />
    <glyph glyph-name="uni041B.BUL" 
d="M822 1118l-442 -1118h-380l662 1443h449l155 -1443h-384l-41 1118h-19z" />
    <glyph glyph-name="Becyrillic" unicode="&#x411;" 
d="M733 0h-611l254 1443h968l-52 -295h-601l-40 -230h214c254 0 432 -166 432 -402c0 -291 -246 -516 -564 -516zM539 283h167c124 0 214 91 214 215c0 97 -66 155 -176 155h-140z" />
    <glyph glyph-name="Vecyrillic" unicode="&#x412;" 
d="M676 1184l-56 -318h152c110 0 192 73 192 171c0 93 -63 147 -171 147h-117zM514 264h185c134 0 215 75 215 200c0 104 -75 158 -220 158h-117zM110 0l254 1443h498c300 0 483 -130 483 -343c0 -180 -126 -309 -339 -345l-4 -19c169 -26 290 -162 290 -328
c0 -237 -209 -408 -497 -408h-685z" />
    <glyph glyph-name="Gecyrillic" unicode="&#x413;" 
d="M1476 1443l-87 -495h-325l35 200h-290l-150 -853h200l-52 -295h-767l52 295h200l150 853h-200l52 295h1182z" />
    <glyph glyph-name="Gjecyrillic" unicode="&#x403;" 
d="M1407 1922l-361 -326h-316l315 326h362zM1476 1443l-87 -495h-325l35 200h-290l-150 -853h200l-52 -295h-767l52 295h200l150 853h-200l52 295h1182z" />
    <glyph glyph-name="uni04F6" unicode="&#x4f6;" 
d="M1476 1443l-87 -495h-325l35 200h-290l-150 -852h201l-103 -582h-345l51 286h-423l52 295h200l150 853h-200l52 295h1182z" />
    <glyph glyph-name="Geupturncyrillic" unicode="&#x490;" 
d="M1526 1728l-50 -285l-87 -495h-325l35 200h-290l-150 -853h200l-52 -295h-767l52 295h200l150 853h-200l52 295h857l50 285h325z" />
    <glyph glyph-name="uni0492" unicode="&#x492;" 
d="M1476 1443l-87 -495h-325l35 200h-290l-54 -306h259l-44 -252h-259l-52 -295h200l-52 -295h-767l52 295h200l52 295h-206l44 252h206l54 306h-200l52 295h1182z" />
    <glyph glyph-name="uniF53C" 
d="M553 0h-367l254 1443h958l-52 -295h-591l-58 -329h534l-49 -281h-534z" />
    <glyph glyph-name="uni04FA" unicode="&#x4fa;" 
d="M1477 1443l-87 -495h-325l35 200h-290l-54 -306h258l-44 -252h-258l-104 -590c-47 -269 -207 -351 -476 -351c-41 0 -101 3 -124 6l48 272c11 -2 29 -3 46 -3c85 0 129 24 139 76l31 178l73 412h-207l44 252h207l54 306h-200l52 295h1182z" />
    <glyph glyph-name="Decyrillic" unicode="&#x414;" 
d="M952 0h-608l-50 -285h-329l102 581h73c76 56 116 152 177 411l174 736h900l-202 -1147h144l-102 -581h-329zM761 1149l-114 -498c-37 -163 -77 -264 -126 -324l-4 -31h306l151 853h-213z" />
    <glyph glyph-name="uni0414.BUL" 
d="M802 1118l-300 -822h324l-5 822h-19zM1204 296h100l-103 -581h-350l51 285h-546l-51 -285h-350l103 581h99l501 1147h449z" />
    <glyph glyph-name="Iecyrillic" unicode="&#x415;" 
d="M1180 295l-52 -295h-954l254 1443h954l-52 -295h-587l-50 -288h550l-48 -270h-550l-52 -295h587z" />
    <glyph glyph-name="Iocyrillic" unicode="&#x401;" 
d="M1180 295l-52 -295h-954l254 1443h954l-52 -295h-587l-50 -288h550l-48 -270h-550l-52 -295h587zM684 1600c-93 0 -170 76 -170 170s77 170 170 170s170 -76 170 -170s-77 -170 -170 -170zM1190 1600c-93 0 -170 76 -170 170s77 170 170 170s170 -76 170 -170
s-77 -170 -170 -170z" />
    <glyph glyph-name="uni04D6" unicode="&#x4d6;" 
d="M1180 295l-52 -295h-954l254 1443h954l-52 -295h-587l-50 -288h550l-48 -270h-550l-52 -295h587zM943 1599c-243 0 -422 167 -383 359h247c-7 -101 52 -168 146 -168s158 62 171 168h251c-10 -207 -192 -359 -432 -359z" />
    <glyph glyph-name="uniF510" 
d="M1180 295l-52 -295h-954l254 1443h954l-52 -295h-587l-50 -288h550l-48 -270h-550l-52 -295h587zM1295 1631h-764l38 212h764z" />
    <glyph glyph-name="uniF512" 
d="M1180 295l-52 -295h-954l254 1443h954l-52 -295h-587l-50 -288h550l-48 -270h-550l-52 -295h587zM1219 1947c93 0 170 -76 170 -170s-77 -170 -170 -170s-170 76 -170 170s77 170 170 170zM580 2039l35 196h782l-35 -196h-782zM713 1947c93 0 170 -76 170 -170
s-77 -170 -170 -170s-170 76 -170 170s77 170 170 170z" />
    <glyph glyph-name="uni0400" unicode="&#x400;" 
d="M866 1922l201 -326h-312l-247 326h358zM1180 295l-52 -295h-954l254 1443h954l-52 -295h-587l-50 -288h550l-48 -270h-550l-52 -295h587z" />
    <glyph glyph-name="uniF461" 
d="M1180 295l-52 -295h-954l254 1443h954l-52 -295h-587l-50 -288h550l-48 -270h-550l-52 -295h587zM754 1596l315 326h362l-361 -326h-316z" />
    <glyph glyph-name="uniF469" 
d="M1180 295l-52 -295h-954l254 1443h954l-52 -295h-587l-50 -288h550l-48 -270h-550l-52 -295h587zM532 1598c-88 0 -161 71 -161 160s73 161 161 161s160 -72 160 -161s-72 -160 -160 -160zM1316 1598c-88 0 -161 71 -161 160s73 161 161 161c87 0 160 -72 160 -161
s-73 -160 -160 -160zM737 1599l89 394h328l-179 -394h-238z" />
    <glyph glyph-name="uniF514" 
d="M1180 295l-52 -295h-954l254 1443h954l-52 -295h-587l-50 -288h550l-48 -270h-550l-52 -295h587zM954 1958c243 0 422 -167 383 -359h-247c7 101 -52 168 -146 168s-158 -62 -171 -168h-251c10 207 192 359 432 359zM1003 1999c-243 0 -422 167 -383 359h247
c-7 -101 52 -168 146 -168s158 62 171 168h251c-10 -207 -192 -359 -432 -359z" />
    <glyph glyph-name="Zhecyrillic" unicode="&#x416;" 
d="M268 0h-321l360 742l-83 701h298l56 -606h59l106 606h298l-106 -606h59l268 606h308l-347 -741l96 -702h-311l-61 564h-61l-99 -564h-298l99 564h-61z" />
    <glyph glyph-name="uni04C1" unicode="&#x4c1;" 
d="M268 0h-321l360 742l-83 701h298l56 -606h59l106 606h298l-106 -606h59l268 606h308l-347 -741l96 -702h-311l-61 564h-61l-99 -564h-298l99 564h-61zM903 1599c-243 0 -422 167 -383 359h247c-7 -101 52 -168 146 -168s158 62 171 168h251c-10 -207 -192 -359 -432 -359
z" />
    <glyph glyph-name="uni04DC" unicode="&#x4dc;" 
d="M268 0h-321l360 742l-83 701h298l56 -606h59l106 606h298l-106 -606h59l268 606h308l-347 -741l96 -702h-311l-61 564h-61l-99 -564h-298l99 564h-61zM676 1600c-93 0 -170 76 -170 170s77 170 170 170s170 -76 170 -170s-77 -170 -170 -170zM1182 1600
c-93 0 -170 76 -170 170s77 170 170 170s170 -76 170 -170s-77 -170 -170 -170z" />
    <glyph glyph-name="uni0496" unicode="&#x496;" 
d="M1184 702l42 -419h90l-100 -568h-258l51 285h-60l1 7l-57 557h-36l-95 -564h-290l96 564h-40l-251 -564h-312l331 742l-81 701h289l55 -606h57l102 606h290l-102 -606h56l259 606h300z" />
    <glyph glyph-name="uni0416.BUL" 
d="M533 571l-274 -571h-312l437 806l-173 637h286l135 -596h13l108 596h273l-108 -596h13l353 596h283l-401 -631l147 -812h-315l-68 571l-85 -127l-80 -444h-273l80 444z" />
    <glyph glyph-name="Zecyrillic" unicode="&#x417;" 
d="M558 593l48 274h178c137 0 223 72 223 187c0 92 -67 145 -186 145c-114 0 -191 -58 -212 -158h-333c52 266 269 431 567 431c308 0 519 -147 519 -363c0 -187 -137 -345 -318 -368l-3 -19c158 -28 251 -133 251 -283c0 -273 -249 -468 -597 -468
c-342 0 -551 160 -551 420c0 25 2 55 5 70h348c-1 -5 -1 -6 -1 -25c0 -105 85 -176 211 -176s210 77 210 193c0 86 -70 140 -181 140h-178z" />
    <glyph glyph-name="uni04DE" unicode="&#x4de;" 
d="M558 593l48 274h178c137 0 223 72 223 187c0 92 -67 145 -186 145c-114 0 -191 -58 -212 -158h-333c52 266 269 431 567 431c308 0 519 -147 519 -363c0 -187 -137 -345 -318 -368l-3 -19c158 -28 251 -133 251 -283c0 -273 -249 -468 -597 -468
c-342 0 -551 160 -551 420c0 25 2 55 5 70h348c-1 -5 -1 -6 -1 -25c0 -105 85 -176 211 -176s210 77 210 193c0 86 -70 140 -181 140h-178zM691 1600c-93 0 -170 76 -170 170s77 170 170 170s170 -76 170 -170s-77 -170 -170 -170zM1197 1600c-93 0 -170 76 -170 170
s77 170 170 170s170 -76 170 -170s-77 -170 -170 -170z" />
    <glyph glyph-name="uni0498" unicode="&#x498;" 
d="M1044 741l-3 -19c158 -28 251 -133 251 -283c0 -233 -182 -410 -452 -456l-47 -269h-345l49 278c-223 51 -353 194 -353 399c0 25 2 55 5 70h348c-1 -5 -1 -6 -1 -25c0 -105 85 -176 211 -176s210 77 210 193c0 86 -70 140 -181 140h-178l48 274h178
c137 0 223 72 223 187c0 92 -67 145 -186 145c-114 0 -191 -58 -212 -158h-333c52 266 269 431 567 431c308 0 519 -147 519 -363c0 -187 -137 -345 -318 -368z" />
    <glyph glyph-name="uniF50A" 
d="M1044 741l-3 -19c158 -28 251 -133 251 -283c0 -250 -210 -435 -513 -464l-49 -77c94 -18 155 -80 155 -157c0 -157 -104 -235 -315 -235c-43 0 -96 7 -141 18l27 152c17 -8 64 -14 107 -14c69 0 113 21 113 54c0 30 -35 45 -104 45h-60l26 137l49 79
c-277 30 -443 183 -443 414c0 25 2 55 5 70h348c-1 -5 -1 -6 -1 -25c0 -105 85 -176 211 -176s210 77 210 193c0 86 -70 140 -181 140h-178l48 274h178c137 0 223 72 223 187c0 92 -67 145 -186 145c-114 0 -191 -58 -212 -158h-333c52 266 269 431 567 431
c308 0 519 -147 519 -363c0 -187 -137 -345 -318 -368z" />
    <glyph glyph-name="uniF516" 
d="M558 593l48 274h178c137 0 223 72 223 187c0 92 -67 145 -186 145c-114 0 -191 -58 -212 -158h-333c52 266 269 431 567 431c308 0 519 -147 519 -363c0 -187 -137 -345 -318 -368l-3 -19c158 -28 251 -133 251 -283c0 -273 -249 -468 -597 -468
c-342 0 -551 160 -551 420c0 25 2 55 5 70h348c-1 -5 -1 -6 -1 -25c0 -105 85 -176 211 -176s210 77 210 193c0 86 -70 140 -181 140h-178zM731 1585l-213 350h289l98 -190h20l166 190h307l-337 -350h-330z" />
    <glyph glyph-name="Iicyrillic" unicode="&#x418;" 
d="M358 1443h312l-151 -860h19l568 860h310l-254 -1443h-312l150 852h-19l-567 -852h-310z" />
    <glyph glyph-name="Iishortcyrillic" unicode="&#x419;" 
d="M1134 1958h251c-10 -207 -192 -359 -432 -359c-243 0 -422 167 -383 359h247c-7 -101 52 -168 146 -168s158 62 171 168zM358 1443h312l-151 -860h19l568 860h310l-254 -1443h-312l150 852h-19l-567 -852h-310z" />
    <glyph glyph-name="uni040D" unicode="&#x40d;" 
d="M848 1922l201 -326h-312l-247 326h358zM358 1443h312l-151 -860h19l568 860h310l-254 -1443h-312l150 852h-19l-567 -852h-310z" />
    <glyph glyph-name="uni04E2" unicode="&#x4e2;" 
d="M1302 1628h-764l38 212h764zM358 1443h312l-151 -860h19l568 860h310l-254 -1443h-312l150 852h-19l-567 -852h-310z" />
    <glyph glyph-name="uni04E4" unicode="&#x4e4;" 
d="M1203 1600c-93 0 -170 76 -170 170s77 170 170 170s170 -76 170 -170s-77 -170 -170 -170zM697 1600c-93 0 -170 76 -170 170s77 170 170 170s170 -76 170 -170s-77 -170 -170 -170zM358 1443h312l-151 -860h19l568 860h310l-254 -1443h-312l150 852h-19l-567 -852h-310z
" />
    <glyph glyph-name="uni048A" unicode="&#x48a;" 
d="M1097 1959h242c-9 -207 -185 -359 -416 -359c-234 0 -407 167 -369 359h238c-7 -101 50 -168 141 -168c90 0 152 62 164 168zM1379 1443l-200 -1130h142l-13 -73l-218 -525h-294l120 285h-92l154 852h-18l-557 -852h-299l255 1443h301l-156 -860h19l557 860h299z" />
    <glyph glyph-name="uniF462" 
d="M749 1596l315 326h362l-361 -326h-316zM358 1443h312l-151 -860h19l568 860h310l-254 -1443h-312l150 852h-19l-567 -852h-310z" />
    <glyph glyph-name="uniF532" 
d="M1134 1958h251c-10 -207 -192 -359 -432 -359c-243 0 -422 167 -383 359h247c-7 -101 52 -168 146 -168s158 62 171 168zM1106 1443h310l-254 -1443h-5c-43 -248 -172 -351 -401 -351c-41 0 -101 3 -124 6l48 272c11 -2 29 -3 46 -3c72 0 110 24 119 76l31 178h5l119 674
h-19l-567 -852h-310l254 1443h312l-151 -860h19z" />
    <glyph glyph-name="Kacyrillic" unicode="&#x41a;" 
d="M712 1443l-106 -604h34l477 604h402l-608 -732l365 -711h-420l-253 562h-46l-99 -562h-367l254 1443h367z" />
    <glyph glyph-name="Kjecyrillic" unicode="&#x40c;" 
d="M700 1596l315 326h362l-361 -326h-316zM712 1443l-106 -604h34l477 604h402l-608 -732l365 -711h-420l-253 562h-46l-99 -562h-367l254 1443h367z" />
    <glyph glyph-name="uni049A" unicode="&#x49a;" 
d="M901 711l198 -396h222l-106 -598h-338l51 283h-82l-253 562h-46l-99 -562h-357l254 1443h357l-106 -604h34l477 604h392z" />
    <glyph glyph-name="uni049C" unicode="&#x49c;" 
d="M345 1443h338l-254 -1443h-338zM1541 1443l-384 -667l118 -776h-366l-77 579h-18l-48 -270h-182l151 856h182l-48 -270h18l305 548h349z" />
    <glyph glyph-name="uni049E" unicode="&#x49e;" 
d="M1519 1443l-608 -732l365 -711h-420l-253 562h-46l-99 -562h-367l189 1075h-93l46 260h93l19 108h367l-19 -108h142l-46 -260h-142l-41 -236h34l477 604h402z" />
    <glyph glyph-name="uni04A0" unicode="&#x4a0;" 
d="M1501 1443l-478 -732l219 -711h-353l-165 562h-35l-99 -562h-324l202 1148h-280l52 295h604l-107 -604h33l385 604h346z" />
    <glyph glyph-name="uni04C3" unicode="&#x4c3;" 
d="M1523 1443l-512 -648c167 -76 274 -234 274 -459c0 -392 -239 -696 -638 -696c-57 0 -109 8 -136 18l60 339c22 -6 57 -8 85 -8c170 0 245 157 245 324c0 161 -107 253 -281 253h-63l-99 -566h-367l254 1443h367l-100 -567h64l432 567h415z" />
    <glyph glyph-name="uni041A.BUL" 
d="M996 806l302 -806h-398l-212 584l-158 -170l-73 -414h-343l254 1443h343l-109 -620h22l532 620h406z" />
    <glyph glyph-name="Elcyrillic" unicode="&#x41b;" 
d="M1436 1443l-254 -1443h-357l202 1148h-282l-113 -562c-78 -389 -188 -605 -491 -605c-40 0 -107 9 -139 19l57 319c19 -6 39 -9 61 -9c95 0 128 81 172 290l179 843h965z" />
    <glyph glyph-name="uni04C5" unicode="&#x4c5;" 
d="M1372 1443l-199 -1130h145l-13 -73l-228 -525h-316l130 285h-100l55 313l147 835h-258l-113 -562c-78 -389 -178 -605 -481 -605c-40 0 -107 9 -139 19l57 319c19 -6 39 -9 61 -9c95 0 148 81 192 290l179 843h881z" />
    <glyph glyph-name="uniF530" 
d="M1388 1443l-199 -1130h134l-106 -598h-312l51 285h-159l55 313l147 835h-274l-113 -562c-78 -389 -168 -605 -471 -605c-40 0 -107 9 -139 19l57 319c19 -6 39 -9 61 -9c95 0 128 81 172 290l179 843h917z" />
    <glyph glyph-name="uni052E" unicode="&#x52e;" 
d="M1388 1443l-199 -1130h134l-106 -598h-312l51 285h-159l55 313l147 835h-274l-113 -562c-78 -389 -168 -605 -471 -605c-40 0 -107 9 -139 19l57 319c19 -6 39 -9 61 -9c95 0 128 81 172 290l179 843h917z" />
    <glyph glyph-name="uni0512" unicode="&#x512;" 
d="M471 1443h965l-254 -1443c-46 -263 -188 -351 -456 -351c-41 0 -101 3 -124 6l48 272c11 -2 29 -3 46 -3c85 0 119 24 129 76l31 178l171 970h-282l-113 -562c-78 -389 -188 -605 -491 -605c-40 0 -107 9 -139 19l57 319c19 -6 39 -9 61 -9c95 0 128 81 172 290z" />
    <glyph glyph-name="Emcyrillic" unicode="&#x41c;" 
d="M453 430l-76 -430h-300l254 1443h373l37 -785h20l313 785h369l-254 -1443h-300l76 430l157 571h-27l-281 -662h-234l-55 662h-27z" />
    <glyph glyph-name="uni04CD" unicode="&#x4cd;" 
d="M1423 1443l-199 -1130h103l-13 -73l-222 -525h-279l127 285h-71l76 430l157 571h-27l-271 -662h-234l-45 662h-27l-45 -571l-76 -430h-300l254 1443h373l27 -785h20l303 785h369z" />
    <glyph glyph-name="Encyrillic" unicode="&#x41d;" 
d="M1175 0h-358l103 582h-368l-103 -582h-358l254 1443h358l-99 -566h368l99 566h358z" />
    <glyph glyph-name="uni04C7" unicode="&#x4c7;" 
d="M1071 1443h358l-254 -1443c-46 -263 -189 -351 -457 -351c-41 0 -101 3 -124 6l48 272c11 -2 29 -3 46 -3c85 0 119 24 129 76l31 178h1l71 404h-368l-103 -582h-358l254 1443h358l-99 -566h368z" />
    <glyph glyph-name="uni04A2" unicode="&#x4a2;" 
d="M1391 1443l-199 -1130h141l-106 -598h-345l51 285h-145l102 582h-349l-102 -582h-348l254 1443h348l-100 -566h349l100 566h349z" />
    <glyph glyph-name="uni04C9" unicode="&#x4c9;" 
d="M1425 1443l-199 -1130h95l-13 -73l-218 -525h-294l120 285h-98l102 582h-373l-102 -582h-354l254 1443h354l-100 -566h373l100 566h353z" />
    <glyph glyph-name="uni04A4" unicode="&#x4a4;" 
d="M1496 1443l-52 -294h-305l-202 -1149h-319l102 582h-208l-102 -582h-319l254 1443h319l-100 -566h208l48 272l52 294h624z" />
    <glyph glyph-name="Ocyrillic" unicode="&#x41e;" 
d="M1304 555c-67 -382 -281 -584 -620 -584c-299 0 -519 205 -519 484c0 115 3 165 14 220l38 213c69 383 283 584 621 584c299 0 517 -205 517 -484c0 -110 -3 -162 -14 -220zM698 275c129 0 197 94 238 328l36 205c12 69 16 111 16 168c0 119 -63 192 -166 192
c-129 0 -198 -94 -239 -328l-36 -205c-11 -66 -15 -109 -15 -167c0 -120 63 -193 166 -193z" />
    <glyph glyph-name="uni04E6" unicode="&#x4e6;" 
d="M1304 555c-67 -382 -281 -584 -620 -584c-299 0 -519 205 -519 484c0 115 3 165 14 220l38 213c69 383 283 584 621 584c299 0 517 -205 517 -484c0 -110 -3 -162 -14 -220zM698 275c129 0 197 94 238 328l36 205c12 69 16 111 16 168c0 119 -63 192 -166 192
c-129 0 -198 -94 -239 -328l-36 -205c-11 -66 -15 -109 -15 -167c0 -120 63 -193 166 -193zM685 1600c-93 0 -170 76 -170 170s77 170 170 170s170 -76 170 -170s-77 -170 -170 -170zM1191 1600c-93 0 -170 76 -170 170s77 170 170 170s170 -76 170 -170s-77 -170 -170 -170
z" />
    <glyph glyph-name="uniF518" 
d="M1304 555c-67 -382 -281 -584 -620 -584c-299 0 -519 205 -519 484c0 115 3 165 14 220l38 213c69 383 283 584 621 584c299 0 517 -205 517 -484c0 -110 -3 -162 -14 -220zM698 275c129 0 197 94 238 328l36 205c12 69 16 111 16 168c0 119 -63 192 -166 192
c-129 0 -198 -94 -239 -328l-36 -205c-11 -66 -15 -109 -15 -167c0 -120 63 -193 166 -193zM1296 1631h-764l38 212h764z" />
    <glyph glyph-name="uniF463" 
d="M1304 555c-67 -382 -281 -584 -620 -584c-299 0 -519 205 -519 484c0 115 3 165 14 220l38 213c69 383 283 584 621 584c299 0 517 -205 517 -484c0 -110 -3 -162 -14 -220zM698 275c129 0 197 94 238 328l36 205c12 69 16 111 16 168c0 119 -63 192 -166 192
c-129 0 -198 -94 -239 -328l-36 -205c-11 -66 -15 -109 -15 -167c0 -120 63 -193 166 -193zM755 1596l315 326h362l-361 -326h-316z" />
    <glyph glyph-name="uniF4D2" 
d="M867 1922l201 -326h-312l-247 326h358zM583 840l-36 -205c-11 -66 -15 -109 -15 -167c0 -120 63 -193 166 -193c129 0 197 94 238 328l36 205c12 69 16 111 16 168c0 119 -63 192 -166 192c-129 0 -198 -94 -239 -328zM1341 768l-37 -213c-67 -382 -281 -584 -620 -584
c-299 0 -519 205 -519 484c0 115 3 165 14 220l38 213c69 383 283 584 621 584c299 0 517 -205 517 -484c0 -110 -3 -162 -14 -220z" />
    <glyph glyph-name="uniF51A" 
d="M1304 555c-67 -382 -281 -584 -620 -584c-299 0 -519 205 -519 484c0 115 3 165 14 220l38 213c69 383 283 584 621 584c299 0 517 -205 517 -484c0 -110 -3 -162 -14 -220zM698 275c129 0 197 94 238 328l36 205c12 69 16 111 16 168c0 119 -63 192 -166 192
c-129 0 -198 -94 -239 -328l-36 -205c-11 -66 -15 -109 -15 -167c0 -120 63 -193 166 -193zM934 1596c-243 0 -422 167 -383 359h247c-7 -101 52 -168 146 -168s158 62 171 168h251c-10 -207 -192 -359 -432 -359z" />
    <glyph glyph-name="uni04E8" unicode="&#x4e8;" 
d="M932 583h-393c-5 -40 -7 -74 -7 -115c0 -120 63 -193 166 -193c125 0 193 89 234 308zM586 858h394c6 42 8 76 8 118c0 119 -63 192 -166 192c-126 0 -194 -89 -236 -310zM179 675l38 213c69 383 283 584 621 584c299 0 517 -205 517 -484c0 -110 -3 -162 -14 -220
l-37 -213c-67 -382 -281 -584 -620 -584c-299 0 -519 205 -519 484c0 115 3 165 14 220z" />
    <glyph glyph-name="uniF49A" 
d="M1330 1844l-38 -212h-764l38 212h764zM932 583h-393c-5 -40 -7 -74 -7 -115c0 -120 63 -193 166 -193c125 0 193 89 234 308zM586 858h394c6 42 8 76 8 118c0 119 -63 192 -166 192c-126 0 -194 -89 -236 -310zM179 675l38 213c69 383 283 584 621 584
c299 0 517 -205 517 -484c0 -110 -3 -162 -14 -220l-37 -213c-67 -382 -281 -584 -620 -584c-299 0 -519 205 -519 484c0 115 3 165 14 220z" />
    <glyph glyph-name="uniF51C" 
d="M1101 1958h251c-10 -207 -192 -359 -432 -359c-243 0 -422 167 -383 359h247c-7 -101 52 -168 146 -168s158 62 171 168zM932 583h-393c-5 -40 -7 -74 -7 -115c0 -120 63 -193 166 -193c125 0 193 89 234 308zM586 858h394c6 42 8 76 8 118c0 119 -63 192 -166 192
c-126 0 -194 -89 -236 -310zM179 675l38 213c69 383 283 584 621 584c299 0 517 -205 517 -484c0 -110 -3 -162 -14 -220l-37 -213c-67 -382 -281 -584 -620 -584c-299 0 -519 205 -519 484c0 115 3 165 14 220z" />
    <glyph glyph-name="uniF51E" 
d="M1175 2348h251c-10 -207 -192 -359 -432 -359c-243 0 -422 167 -383 359h247c-7 -101 52 -168 146 -168s158 62 171 168zM1314 1599h-247c7 101 -52 168 -146 168s-158 -62 -171 -168h-251c10 207 192 359 432 359c243 0 422 -167 383 -359zM932 583h-393
c-5 -40 -7 -74 -7 -115c0 -120 63 -193 166 -193c125 0 193 89 234 308zM586 858h394c6 42 8 76 8 118c0 119 -63 192 -166 192c-126 0 -194 -89 -236 -310zM179 675l38 213c69 383 283 584 621 584c299 0 517 -205 517 -484c0 -110 -3 -162 -14 -220l-37 -213
c-67 -382 -281 -584 -620 -584c-299 0 -519 205 -519 484c0 115 3 165 14 220z" />
    <glyph glyph-name="uni04EA" unicode="&#x4ea;" 
d="M1197 1600c-93 0 -170 76 -170 170s77 170 170 170s170 -76 170 -170s-77 -170 -170 -170zM691 1600c-93 0 -170 76 -170 170s77 170 170 170s170 -76 170 -170s-77 -170 -170 -170zM932 583h-393c-5 -40 -7 -74 -7 -115c0 -120 63 -193 166 -193c125 0 193 89 234 308z
M586 858h394c6 42 8 76 8 118c0 119 -63 192 -166 192c-126 0 -194 -89 -236 -310zM179 675l38 213c69 383 283 584 621 584c299 0 517 -205 517 -484c0 -110 -3 -162 -14 -220l-37 -213c-67 -382 -281 -584 -620 -584c-299 0 -519 205 -519 484c0 115 3 165 14 220z" />
    <glyph glyph-name="uni0472" unicode="&#x472;" 
d="M698 275c126 0 194 90 235 314c-38 -25 -83 -40 -132 -40c-104 0 -113 61 -203 61c-24 0 -44 -10 -59 -27c-5 -40 -7 -74 -7 -115c0 -120 63 -193 166 -193zM822 1168c-127 0 -196 -91 -237 -318c39 26 84 41 135 41c104 0 112 -61 202 -61c23 0 43 10 57 25
c7 44 9 78 9 121c0 119 -63 192 -166 192zM179 675l38 213c69 383 283 584 621 584c299 0 517 -205 517 -484c0 -110 -3 -162 -14 -220l-37 -213c-67 -382 -281 -584 -620 -584c-299 0 -519 205 -519 484c0 115 3 165 14 220z" />
    <glyph glyph-name="Pecyrillic" unicode="&#x41f;" 
d="M1465 1443l-254 -1443h-366l202 1148h-424l-202 -1148h-366l254 1443h1156z" />
    <glyph glyph-name="uni0524" unicode="&#x524;" 
d="M1380 1443l-199 -1130h141l-106 -598h-305l51 285h-201l55 313l147 835h-342l-202 -1148h-364l254 1443h1071z" />
    <glyph glyph-name="Ercyrillic" unicode="&#x420;" 
d="M365 1443h470c325 0 526 -176 526 -459c0 -316 -270 -561 -617 -561h-191l-75 -423h-367zM683 1164l-81 -462h109c168 0 280 104 280 260c0 130 -81 202 -228 202h-80z" />
    <glyph glyph-name="uni048E" unicode="&#x48e;" 
d="M602 702h109c14 0 27 1 39 2l-58 123l186 93l58 -123c35 43 55 99 55 165c0 130 -81 202 -228 202h-80zM365 1443h470c325 0 526 -176 526 -459c0 -190 -98 -354 -251 -455l90 -192l-258 -131l-105 223c-30 -4 -61 -6 -93 -6h-191l-75 -423h-367z" />
    <glyph glyph-name="uniF4D4" 
d="M365 1443h470c325 0 526 -176 526 -459c0 -316 -270 -561 -617 -561h-191l-75 -423h-367zM683 1164l-81 -462h109c168 0 280 104 280 260c0 130 -81 202 -228 202h-80zM677 1585l-213 350h289l98 -190h20l166 190h307l-337 -350h-330z" />
    <glyph glyph-name="Escyrillic" unicode="&#x421;" 
d="M1331 480c-62 -328 -277 -509 -605 -509c-327 0 -554 211 -554 515c0 51 4 95 13 143l54 309c61 347 279 534 625 534c319 0 540 -202 540 -492c0 -17 -2 -38 -6 -77h-373c2 22 3 42 3 75c0 109 -71 184 -174 184c-123 0 -208 -94 -238 -264l-54 -308
c-7 -39 -12 -80 -12 -108c0 -119 74 -200 184 -200c125 0 196 75 227 239c2 11 2 16 3 23h375c-1 -23 -4 -48 -8 -64z" />
    <glyph glyph-name="uni04AA" unicode="&#x4aa;" 
d="M1398 903h-373c2 22 3 42 3 75c0 109 -71 184 -174 184c-123 0 -208 -94 -238 -264l-54 -308c-7 -39 -12 -80 -12 -108c0 -119 74 -200 184 -200c125 0 196 75 227 239c2 11 2 16 3 23h375c-1 -23 -4 -48 -8 -64c-62 -326 -275 -507 -599 -509l-47 -73
c94 -18 155 -80 155 -157c0 -157 -104 -235 -315 -235c-43 0 -96 7 -141 18l27 152c17 -8 64 -14 107 -14c69 0 113 21 113 54c0 30 -35 45 -104 45h-60l26 137l59 95c-231 61 -380 246 -380 493c0 51 4 95 13 143l54 309c61 347 279 534 625 534c319 0 540 -202 540 -492
c0 -17 -2 -38 -6 -77z" />
    <glyph glyph-name="uniF53E" 
d="M1398 903h-373c2 22 3 42 3 75c0 109 -71 184 -174 184c-123 0 -208 -94 -238 -264l-54 -308c-7 -39 -12 -80 -12 -108c0 -119 74 -200 184 -200c125 0 196 75 227 239c2 11 2 16 3 23h375c-1 -23 -4 -48 -8 -64c-53 -281 -219 -454 -472 -498l-46 -267h-345l50 288
c-211 70 -346 249 -346 483c0 51 4 95 13 143l54 309c61 347 279 534 625 534c319 0 540 -202 540 -492c0 -17 -2 -38 -6 -77z" />
    <glyph glyph-name="Ecyrillic" unicode="&#x404;" 
d="M726 -29c-327 0 -554 211 -554 515c0 51 4 95 13 143l54 309c61 347 279 534 625 534c319 0 540 -202 540 -492c0 -17 -2 -38 -6 -77h-373c2 22 3 42 3 75c0 109 -71 184 -174 184c-123 0 -208 -94 -238 -264l-6 -32h386l-48 -272h-385c-8 -44 -13 -84 -13 -112
c0 -119 74 -200 184 -200c123 0 196 68 224 219c2 11 2 16 3 23h375c-1 -23 -4 -48 -8 -64c-60 -316 -276 -489 -602 -489z" />
    <glyph glyph-name="uniF526" 
d="M726 -29c-327 0 -554 211 -554 515c0 51 4 95 13 143l54 309c61 347 279 534 625 534c319 0 540 -202 540 -492c0 -17 -2 -38 -6 -77h-373c2 22 3 42 3 75c0 109 -71 184 -174 184c-123 0 -208 -94 -238 -264l-6 -32h386l-48 -272h-385c-8 -44 -13 -84 -13 -112
c0 -119 74 -200 184 -200c123 0 196 68 224 219c2 11 2 16 3 23h375c-1 -23 -4 -48 -8 -64c-60 -316 -276 -489 -602 -489zM706 1600c-93 0 -170 76 -170 170s77 170 170 170s170 -76 170 -170s-77 -170 -170 -170zM1212 1600c-93 0 -170 76 -170 170s77 170 170 170
s170 -76 170 -170s-77 -170 -170 -170z" />
    <glyph glyph-name="Tecyrillic" unicode="&#x422;" 
d="M816 0h-366l202 1148h-396l52 295h1158l-52 -295h-396z" />
    <glyph glyph-name="uni04AC" unicode="&#x4ac;" 
d="M1414 1148h-396l-145 -825h189l-107 -608h-345l50 285h-210l202 1148h-396l52 295h1158z" />
    <glyph glyph-name="Ucyrillic" unicode="&#x423;" 
d="M1509 1443l-586 -1030c-173 -305 -340 -428 -583 -428c-48 0 -137 10 -142 16l51 290c20 -6 52 -9 84 -9c78 0 131 24 177 81l-238 1080h377l98 -732h18l345 732h399z" />
    <glyph glyph-name="Ushortcyrillic" unicode="&#x40e;" 
d="M1509 1443l-586 -1030c-173 -305 -340 -428 -583 -428c-48 0 -137 10 -142 16l51 290c20 -6 52 -9 84 -9c78 0 131 24 177 81l-238 1080h377l98 -732h18l345 732h399zM1070 1958h251c-10 -207 -192 -359 -432 -359c-243 0 -422 167 -383 359h247
c-7 -101 52 -168 146 -168s158 62 171 168z" />
    <glyph glyph-name="uni04EE" unicode="&#x4ee;" 
d="M1290 1631h-764l38 212h764zM1509 1443l-586 -1030c-173 -305 -340 -428 -583 -428c-48 0 -137 10 -142 16l51 290c20 -6 52 -9 84 -9c78 0 131 24 177 81l-238 1080h377l98 -732h18l345 732h399z" />
    <glyph glyph-name="uni04F0" unicode="&#x4f0;" 
d="M1164 1599c-93 0 -170 76 -170 170s77 170 170 170s170 -76 170 -170s-77 -170 -170 -170zM658 1599c-93 0 -170 76 -170 170s77 170 170 170s170 -76 170 -170s-77 -170 -170 -170zM1509 1443l-586 -1030c-173 -305 -340 -428 -583 -428c-48 0 -137 10 -142 16l51 290
c20 -6 52 -9 84 -9c78 0 131 24 177 81l-238 1080h377l98 -732h18l345 732h399z" />
    <glyph glyph-name="uni04F2" unicode="&#x4f2;" 
d="M535 1597l277 326h293l-305 -326h-265zM984 1597l278 326h292l-305 -326h-265zM1509 1443l-586 -1030c-173 -305 -340 -428 -583 -428c-48 0 -137 10 -142 16l51 290c20 -6 52 -9 84 -9c78 0 131 24 177 81l-238 1080h377l98 -732h18l345 732h399z" />
    <glyph glyph-name="uniF4CC" 
d="M750 1597l315 326h362l-361 -326h-316zM1509 1443l-586 -1030c-173 -305 -340 -428 -583 -428c-48 0 -137 10 -142 16l51 290c20 -6 52 -9 84 -9c78 0 131 24 177 81l-238 1080h377l98 -732h18l345 732h399z" />
    <glyph glyph-name="uniF464" 
d="M750 1597l315 326h362l-361 -326h-316zM1509 1443l-586 -1030c-173 -305 -340 -428 -583 -428c-48 0 -137 10 -142 16l51 290c20 -6 52 -9 84 -9c78 0 131 24 177 81l-238 1080h377l98 -732h18l345 732h399z" />
    <glyph glyph-name="Efcyrillic" unicode="&#x424;" 
d="M441 745c-5 -30 -9 -59 -12 -85c-3 -27 -4 -51 -4 -74c0 -115 35 -176 102 -188l119 674c-98 -5 -168 -114 -205 -327zM1391 679c-67 -380 -253 -552 -553 -552l-28 -162h-365l33 188c-244 29 -365 168 -365 424c0 29 2 59 5 91s7 65 13 99c66 378 254 551 552 551
l29 160h363l-33 -186c245 -29 367 -169 367 -425c0 -28 -1 -58 -4 -90c-3 -31 -8 -64 -14 -98zM994 1048l-119 -674c99 2 167 109 206 327c5 30 9 57 11 83c3 25 4 49 4 71c0 116 -35 180 -102 193z" />
    <glyph glyph-name="Xacyrillic" unicode="&#x425;" 
d="M0 0l533 728l-279 715h388l151 -478h18l319 478h390l-548 -719l294 -724h-376l-171 457h-17l-331 -457h-371z" />
    <glyph glyph-name="uni04B2" unicode="&#x4b2;" 
d="M954 724l164 -411h193l-106 -598h-338l51 285h-44l-168 457h-17l-325 -457h-364l523 728l-274 715h381l148 -478h18l313 478h383z" />
    <glyph glyph-name="uni04FE" unicode="&#x4fe;" 
d="M1520 1443l-471 -618h271l-46 -260h-237l229 -565h-376l-171 457h-17l-331 -457h-371l414 565h-253l46 260h288l-241 618h388l151 -478h18l319 478h390z" />
    <glyph glyph-name="uni04FC" unicode="&#x4fc;" 
d="M785 277l-66 180h-17l-331 -457h-371l533 728l-279 715h388l151 -478h18l319 478h390l-548 -719l116 -286c77 -190 111 -283 111 -381c0 -256 -168 -395 -451 -395c-77 0 -125 5 -163 12l52 294c29 -4 51 -5 81 -5c86 0 129 38 129 103c0 47 -19 95 -62 211z" />
    <glyph glyph-name="Tsecyrillic" unicode="&#x426;" 
d="M1318 295l-102 -580h-328l50 285h-855l254 1443h367l-202 -1148h319l202 1148h367l-202 -1148h130z" />
    <glyph glyph-name="uni04B4" unicode="&#x4b4;" 
d="M1418 1443l-202 -1148h100l-103 -580h-328l51 285h-745l202 1149h-193l52 294h684l-52 -294h-124l-150 -854h239l202 1148h367z" />
    <glyph glyph-name="Checyrillic" unicode="&#x427;" 
d="M1446 1443l-254 -1443h-367l96 546h-19c-70 -44 -168 -68 -289 -68c-295 0 -446 214 -386 555l72 410h367l-68 -389c-30 -172 26 -268 167 -268c134 0 212 69 212 70l102 587h367z" />
    <glyph glyph-name="uni04F4" unicode="&#x4f4;" 
d="M1163 1600c-93 0 -170 76 -170 170s77 170 170 170s170 -76 170 -170s-77 -170 -170 -170zM657 1600c-93 0 -170 76 -170 170s77 170 170 170s170 -76 170 -170s-77 -170 -170 -170zM1446 1443l-254 -1443h-367l96 546h-19c-70 -44 -168 -68 -289 -68
c-295 0 -446 214 -386 555l72 410h367l-68 -389c-30 -172 26 -268 167 -268c134 0 212 69 212 70l102 587h367z" />
    <glyph glyph-name="uni04B6" unicode="&#x4b6;" 
d="M1384 1443l-205 -1130h143l-106 -598h-327l51 285h-164l99 546h-18c-67 -44 -159 -68 -258 -68c-293 0 -432 214 -369 555l73 410h346l-70 -389c-31 -172 21 -268 153 -268c127 0 201 69 201 70l105 587h346z" />
    <glyph glyph-name="uni04CB" unicode="&#x4cb;" 
d="M1079 1443h367l-254 -1443h-210l-50 -285h-345l105 598h188l41 233h-19c-70 -44 -168 -68 -289 -68c-295 0 -446 214 -386 555l72 410h367l-68 -389c-30 -172 26 -268 167 -268c134 0 212 69 212 70z" />
    <glyph glyph-name="uniF4C6" 
d="M1079 1443h367l-254 -1443c-42 -240 -198 -351 -476 -351c-41 0 -101 3 -124 6l48 272c11 -2 29 -3 46 -3c85 0 129 24 139 76l31 178l65 368h-19c-70 -44 -168 -68 -289 -68c-295 0 -446 214 -386 555l72 410h367l-68 -389c-30 -172 26 -268 167 -268
c134 0 212 69 212 70z" />
    <glyph glyph-name="uni04B8" unicode="&#x4b8;" 
d="M1087 1443h362l-254 -1443h-362l98 556h-19c-31 -16 -67 -29 -106 -38l-51 -289h-182l48 270h-11c-306 0 -440 197 -383 516l75 428h362l-78 -440c-21 -122 2 -186 87 -207l51 289h182l-51 -291c50 8 94 23 126 47z" />
    <glyph glyph-name="uni04BA" unicode="&#x4ba;" 
d="M91 0l254 1443h367l-96 -546h19c70 44 168 68 289 68c295 0 446 -214 386 -555l-72 -410h-367l68 389c30 172 -26 268 -167 268c-134 0 -212 -69 -212 -70l-102 -587h-367z" />
    <glyph glyph-name="uniF49E" 
d="M662 847h17c75 39 155 57 266 57c266 0 398 -183 345 -485l-73 -419h-331l69 395c24 133 -26 201 -156 201c-81 0 -146 -20 -191 -54l-95 -542h-331l180 1025h-196l44 250h196l30 168h331l-30 -168h423l-44 -250h-423z" />
    <glyph glyph-name="uni0526" unicode="&#x526;" 
d="M1197 313h124l-105 -598h-305l51 285h-142l69 400c28 161 -23 257 -155 257c-125 0 -199 -69 -199 -70l-101 -587h-343l252 1443h342l-95 -546h18c66 44 148 68 261 68c275 0 404 -214 345 -555z" />
    <glyph glyph-name="Djecyrillic" unicode="&#x402;" 
d="M1337 527c0 -357 -170 -611 -471 -611c-61 0 -165 16 -196 30l50 282c32 -10 68 -17 92 -17c97 0 167 91 167 232c0 112 -33 171 -133 171c-68 0 -128 -29 -161 -67l-96 -547h-326l202 1148h-263l52 295h892l-52 -295h-303l-56 -314l13 -1c69 47 166 74 256 74
c208 0 333 -134 333 -380z" />
    <glyph glyph-name="Tshecyrillic" unicode="&#x40b;" 
d="M577 0h-347l202 1148h-230l52 295h874l-52 -295h-297l-58 -326h15c71 56 161 86 252 86c204 0 312 -108 312 -313c0 -50 -5 -105 -16 -163l-76 -432h-346l66 375c7 36 10 69 10 99c0 89 -40 135 -117 135c-58 0 -113 -26 -147 -58z" />
    <glyph glyph-name="uni04C0" unicode="&#x4c0;" 
d="M1120 0h-974l52 295h304l150 853h-304l52 295h974l-52 -295h-304l-150 -853h304z" />
    <glyph glyph-name="Icyrillic" unicode="&#x406;" 
d="M1120 0h-974l52 295h304l150 853h-304l52 295h974l-52 -295h-304l-150 -853h304z" />
    <glyph glyph-name="Yicyrillic" unicode="&#x407;" 
d="M1120 0h-974l52 295h304l150 853h-304l52 295h974l-52 -295h-304l-150 -853h304zM686 1600c-93 0 -170 76 -170 170s77 170 170 170s170 -76 170 -170s-77 -170 -170 -170zM1192 1600c-93 0 -170 76 -170 170s77 170 170 170s170 -76 170 -170s-77 -170 -170 -170z" />
    <glyph glyph-name="Dzhecyrillic" unicode="&#x40f;" 
d="M410 -285l50 285h-405l254 1443h367l-202 -1148h422l202 1148h367l-254 -1443h-406l-50 -285h-345z" />
    <glyph glyph-name="Shacyrillic" unicode="&#x428;" 
d="M1196 0h-1126l254 1443h248l-206 -1168h191l206 1168h248l-206 -1168h191l206 1168h248z" />
    <glyph glyph-name="Shchacyrillic" unicode="&#x429;" 
d="M1018 -285l50 285h-1033l254 1443h248l-207 -1178h191l207 1178h248l-207 -1178h191l207 1178h248l-206 -1168h165l-98 -560h-258z" />
    <glyph glyph-name="Hardsigncyrillic" unicode="&#x42a;" 
d="M802 985h141c240 0 401 -171 401 -425c0 -325 -231 -560 -551 -560h-533l203 1149h-255l51 294h623zM742 706l-74 -423h84c126 0 222 110 222 254c0 106 -55 169 -148 169h-84z" />
    <glyph glyph-name="Yericyrillic" unicode="&#x42b;" 
d="M457 707l-75 -424h40c116 0 206 116 206 265c0 98 -46 159 -121 159h-50zM376 0h-331l254 1443h297l-80 -457h54c232 0 368 -143 368 -387c0 -369 -216 -599 -562 -599zM1221 0h-297l254 1443h297z" />
    <glyph glyph-name="uni04F8" unicode="&#x4f8;" 
d="M1168 1543c-93 0 -170 76 -170 170s77 170 170 170s170 -76 170 -170s-77 -170 -170 -170zM662 1543c-93 0 -170 76 -170 170s77 170 170 170s170 -76 170 -170s-77 -170 -170 -170zM444 707l-75 -424h40c116 0 206 116 206 265c0 98 -46 159 -121 159h-50zM363 0h-331
l254 1443h297l-80 -457h54c232 0 368 -143 368 -387c0 -369 -216 -599 -562 -599zM1208 0h-297l254 1443h297z" />
    <glyph glyph-name="uniF520" 
d="M1298 1631h-764l38 212h764zM457 707l-75 -424h40c116 0 206 116 206 265c0 98 -46 159 -121 159h-50zM376 0h-331l254 1443h297l-80 -457h54c232 0 368 -143 368 -387c0 -369 -216 -599 -562 -599zM1221 0h-297l254 1443h297z" />
    <glyph glyph-name="uniF536" 
d="M1094 1958h251c-10 -207 -192 -359 -432 -359c-243 0 -422 167 -383 359h247c-7 -101 52 -168 146 -168s158 62 171 168zM457 707l-75 -424h40c116 0 206 116 206 265c0 98 -46 159 -121 159h-50zM376 0h-331l254 1443h297l-80 -457h54c232 0 368 -143 368 -387
c0 -369 -216 -599 -562 -599zM1221 0h-297l254 1443h297z" />
    <glyph glyph-name="uniF465" 
d="M730 1597l315 326h362l-361 -326h-316zM457 707l-75 -424h40c116 0 206 116 206 265c0 98 -46 159 -121 159h-50zM376 0h-331l254 1443h297l-80 -457h54c232 0 368 -143 368 -387c0 -369 -216 -599 -562 -599zM1221 0h-297l254 1443h297z" />
    <glyph glyph-name="Softsigncyrillic" unicode="&#x42c;" 
d="M614 707l-75 -424h134c161 0 255 94 255 255c0 107 -66 169 -180 169h-134zM721 0h-599l254 1443h367l-80 -458h208c259 0 434 -171 434 -425c0 -333 -236 -560 -584 -560z" />
    <glyph glyph-name="uni048C" unicode="&#x48c;" 
d="M597 283h84c177 0 247 83 247 208c0 89 -65 136 -186 136h-84zM707 905h158c273 0 440 -143 440 -365c0 -329 -207 -540 -575 -540h-549l180 1025h-202l46 260h202l28 158h367l-28 -158h411l-46 -260h-411z" />
    <glyph glyph-name="uni0462" unicode="&#x462;" 
d="M597 283h84c177 0 247 83 247 208c0 89 -65 136 -186 136h-84zM707 905h158c273 0 440 -143 440 -365c0 -329 -207 -540 -575 -540h-549l180 1025h-202l46 260h202l28 158h367l-28 -158h411l-46 -260h-411z" />
    <glyph glyph-name="Ljecyrillic" unicode="&#x409;" 
d="M947 707l-75 -424h33c101 0 170 112 170 277c0 98 -33 147 -100 147h-28zM640 1190l-123 -624c-83 -422 -159 -580 -403 -580c-48 0 -101 8 -119 14l51 292c10 -3 25 -6 40 -6c72 0 102 69 145 286l173 871h695l-80 -457h26c212 0 320 -135 320 -362
c0 -358 -179 -624 -448 -624h-364l209 1190h-122z" />
    <glyph glyph-name="Njecyrillic" unicode="&#x40a;" 
d="M311 0h-277l254 1443h277l-97 -551h222l97 551h277l-97 -551h35c204 0 333 -118 333 -374c0 -329 -173 -518 -452 -518h-350l108 611h-222zM906 621l-65 -370h58c106 0 164 101 164 237c0 85 -38 133 -106 133h-51z" />
    <glyph glyph-name="Ereversedcyrillic" unicode="&#x42d;" 
d="M220 1010c57 299 276 462 601 462c327 0 554 -211 554 -515c0 -51 -4 -95 -13 -143l-54 -309c-61 -347 -279 -534 -625 -534c-327 0 -540 202 -540 492c0 17 2 38 6 77h373c-2 -22 -3 -42 -3 -75c0 -109 71 -184 174 -184c127 0 206 94 238 264l8 43h-386l48 272h385
c7 40 11 76 11 101c0 122 -72 200 -184 200c-122 0 -198 -59 -223 -192c-2 -11 -2 -16 -3 -23h-375c1 23 4 48 8 64z" />
    <glyph glyph-name="uni04EC" unicode="&#x4ec;" 
d="M220 1010c57 299 276 462 601 462c327 0 554 -211 554 -515c0 -51 -4 -95 -13 -143l-54 -309c-61 -347 -279 -534 -625 -534c-327 0 -540 202 -540 492c0 17 2 38 6 77h373c-2 -22 -3 -42 -3 -75c0 -109 71 -184 174 -184c127 0 206 94 238 264l8 43h-386l48 272h385
c7 40 11 76 11 101c0 122 -72 200 -184 200c-122 0 -198 -59 -223 -192c-2 -11 -2 -16 -3 -23h-375c1 23 4 48 8 64zM648 1602c-93 0 -170 76 -170 170s77 170 170 170s170 -76 170 -170s-77 -170 -170 -170zM1154 1602c-93 0 -170 76 -170 170s77 170 170 170
s170 -76 170 -170s-77 -170 -170 -170z" />
    <glyph glyph-name="uniF522" 
d="M220 1010c57 299 276 462 601 462c327 0 554 -211 554 -515c0 -51 -4 -95 -13 -143l-54 -309c-61 -347 -279 -534 -625 -534c-327 0 -540 202 -540 492c0 17 2 38 6 77h373c-2 -22 -3 -42 -3 -75c0 -109 71 -184 174 -184c127 0 206 94 238 264l8 43h-386l48 272h385
c7 40 11 76 11 101c0 122 -72 200 -184 200c-122 0 -198 -59 -223 -192c-2 -11 -2 -16 -3 -23h-375c1 23 4 48 8 64zM1268 1631h-764l38 212h764z" />
    <glyph glyph-name="uniF466" 
d="M220 1010c57 299 276 462 601 462c327 0 554 -211 554 -515c0 -51 -4 -95 -13 -143l-54 -309c-61 -347 -279 -534 -625 -534c-327 0 -540 202 -540 492c0 17 2 38 6 77h373c-2 -22 -3 -42 -3 -75c0 -109 71 -184 174 -184c127 0 206 94 238 264l8 43h-386l48 272h385
c7 40 11 76 11 101c0 122 -72 200 -184 200c-122 0 -198 -59 -223 -192c-2 -11 -2 -16 -3 -23h-375c1 23 4 48 8 64zM682 1597l315 326h362l-361 -326h-316z" />
    <glyph glyph-name="uniF524" 
d="M220 1010c57 299 276 462 601 462c327 0 554 -211 554 -515c0 -51 -4 -95 -13 -143l-54 -309c-61 -347 -279 -534 -625 -534c-327 0 -540 202 -540 492c0 17 2 38 6 77h373c-2 -22 -3 -42 -3 -75c0 -109 71 -184 174 -184c127 0 206 94 238 264l8 43h-386l48 272h385
c7 40 11 76 11 101c0 122 -72 200 -184 200c-122 0 -198 -59 -223 -192c-2 -11 -2 -16 -3 -23h-375c1 23 4 48 8 64zM900 1596c-243 0 -422 167 -383 359h247c-7 -101 52 -168 146 -168s158 62 171 168h251c-10 -207 -192 -359 -432 -359z" />
    <glyph glyph-name="uniF4D6" 
d="M220 1010c57 299 276 462 601 462c327 0 554 -211 554 -515c0 -51 -4 -95 -13 -143l-54 -309c-61 -347 -279 -534 -625 -534c-327 0 -540 202 -540 492c0 17 2 38 6 77h373c-2 -22 -3 -42 -3 -75c0 -109 71 -184 174 -184c127 0 206 94 238 264l8 43h-386l48 272h385
c7 40 11 76 11 101c0 122 -72 200 -184 200c-122 0 -198 -59 -223 -192c-2 -11 -2 -16 -3 -23h-375c1 23 4 48 8 64zM895 1566c-101 0 -183 82 -183 183s82 183 183 183s183 -82 183 -183s-82 -183 -183 -183z" />
    <glyph glyph-name="IUcyrillic" unicode="&#x42e;" 
d="M815 -29c-215 0 -346 190 -346 503c0 37 3 78 7 108h-101l-103 -582h-263l254 1443h263l-99 -566h100c6 32 13 64 21 94c82 312 256 501 469 501c245 0 381 -175 381 -492c0 -85 -9 -180 -28 -290c-10 -58 -22 -113 -35 -165c-95 -362 -274 -554 -520 -554zM1120 930
c0 153 -45 239 -126 239c-88 0 -163 -112 -214 -310c-10 -38 -19 -79 -27 -124c-15 -81 -22 -156 -22 -220c0 -161 39 -240 120 -240c92 0 172 115 223 320c9 35 17 74 24 115c15 81 22 156 22 220z" />
    <glyph glyph-name="uniF52C" 
d="M815 -29c-215 0 -346 190 -346 503c0 37 3 78 7 108h-101l-103 -582h-263l254 1443h263l-99 -566h100c6 32 13 64 21 94c82 312 256 501 469 501c245 0 381 -175 381 -492c0 -85 -9 -180 -28 -290c-10 -58 -22 -113 -35 -165c-95 -362 -274 -554 -520 -554zM1120 930
c0 153 -45 239 -126 239c-88 0 -163 -112 -214 -310c-10 -38 -19 -79 -27 -124c-15 -81 -22 -156 -22 -220c0 -161 39 -240 120 -240c92 0 172 115 223 320c9 35 17 74 24 115c15 81 22 156 22 220zM1243 1631h-764l38 212h764z" />
    <glyph glyph-name="uniF467" 
d="M815 -29c-215 0 -346 190 -346 503c0 37 3 78 7 108h-101l-103 -582h-263l254 1443h263l-99 -566h100c6 32 13 64 21 94c82 312 256 501 469 501c245 0 381 -175 381 -492c0 -85 -9 -180 -28 -290c-10 -58 -22 -113 -35 -165c-95 -362 -274 -554 -520 -554zM1120 930
c0 153 -45 239 -126 239c-88 0 -163 -112 -214 -310c-10 -38 -19 -79 -27 -124c-15 -81 -22 -156 -22 -220c0 -161 39 -240 120 -240c92 0 172 115 223 320c9 35 17 74 24 115c15 81 22 156 22 220zM625 1597l315 326h362l-361 -326h-316z" />
    <glyph glyph-name="uniF52E" 
d="M815 -29c-215 0 -346 190 -346 503c0 37 3 78 7 108h-101l-103 -582h-263l254 1443h263l-99 -566h100c6 32 13 64 21 94c82 312 256 501 469 501c245 0 381 -175 381 -492c0 -85 -9 -180 -28 -290c-10 -58 -22 -113 -35 -165c-95 -362 -274 -554 -520 -554zM1120 930
c0 153 -45 239 -126 239c-88 0 -163 -112 -214 -310c-10 -38 -19 -79 -27 -124c-15 -81 -22 -156 -22 -220c0 -161 39 -240 120 -240c92 0 172 115 223 320c9 35 17 74 24 115c15 81 22 156 22 220zM848 1596c-243 0 -422 167 -383 359h247c-7 -101 52 -168 146 -168
s158 62 171 168h251c-10 -207 -192 -359 -432 -359z" />
    <glyph glyph-name="uniF498" 
d="M815 -29c-215 0 -346 190 -346 503c0 37 3 78 7 108h-101l-103 -582h-263l254 1443h263l-99 -566h100c6 32 13 64 21 94c82 312 256 501 469 501c245 0 381 -175 381 -492c0 -85 -9 -180 -28 -290c-10 -58 -22 -113 -35 -165c-95 -362 -274 -554 -520 -554zM1120 930
c0 153 -45 239 -126 239c-88 0 -163 -112 -214 -310c-10 -38 -19 -79 -27 -124c-15 -81 -22 -156 -22 -220c0 -161 39 -240 120 -240c92 0 172 115 223 320c9 35 17 74 24 115c15 81 22 156 22 220zM591 1600c-93 0 -170 76 -170 170s77 170 170 170s170 -76 170 -170
s-77 -170 -170 -170zM1097 1600c-93 0 -170 76 -170 170s77 170 170 170s170 -76 170 -170s-77 -170 -170 -170z" />
    <glyph glyph-name="IAcyrillic" unicode="&#x42f;" 
d="M886 503h-122l-361 -503h-395l423 562c-127 65 -203 198 -203 353c0 298 224 528 612 528h573l-254 -1443h-362zM786 760h145l72 406h-174c-125 0 -224 -97 -224 -224c0 -107 75 -182 181 -182z" />
    <glyph glyph-name="uniF528" 
d="M1351 1631h-764l38 212h764zM886 503h-122l-361 -503h-395l423 562c-127 65 -203 198 -203 353c0 298 224 528 612 528h573l-254 -1443h-362zM786 760h145l72 406h-174c-125 0 -224 -97 -224 -224c0 -107 75 -182 181 -182z" />
    <glyph glyph-name="uniF468" 
d="M794 1597l315 326h362l-361 -326h-316zM886 503h-122l-361 -503h-395l423 562c-127 65 -203 198 -203 353c0 298 224 528 612 528h573l-254 -1443h-362zM786 760h145l72 406h-174c-125 0 -224 -97 -224 -224c0 -107 75 -182 181 -182z" />
    <glyph glyph-name="uniF4D9" 
d="M1242 1600c-93 0 -170 76 -170 170s77 170 170 170s170 -76 170 -170s-77 -170 -170 -170zM736 1600c-93 0 -170 76 -170 170s77 170 170 170s170 -76 170 -170s-77 -170 -170 -170zM886 503h-122l-361 -503h-395l423 562c-127 65 -203 198 -203 353
c0 298 224 528 612 528h573l-254 -1443h-362zM786 760h145l72 406h-174c-125 0 -224 -97 -224 -224c0 -107 75 -182 181 -182z" />
    <glyph glyph-name="uniF52A" 
d="M1160 1962h251c-10 -207 -192 -359 -432 -359c-243 0 -422 167 -383 359h247c-7 -101 52 -168 146 -168s158 62 171 168zM886 503h-122l-361 -503h-395l423 562c-127 65 -203 198 -203 353c0 298 224 528 612 528h573l-254 -1443h-362zM786 760h145l72 406h-174
c-125 0 -224 -97 -224 -224c0 -107 75 -182 181 -182z" />
    <glyph glyph-name="uni0494" unicode="&#x494;" 
d="M694 -16c-85 0 -129 16 -129 16l51 294s26 -9 78 -9c110 0 162 80 162 169c0 81 -42 120 -119 120c-81 0 -145 -29 -190 -68l-89 -506h-367l254 1443h902l-52 -294h-535l-57 -328h6c73 47 162 76 275 76c240 0 348 -162 348 -361c0 -302 -178 -552 -538 -552z" />
    <glyph glyph-name="uni04A6" unicode="&#x4a6;" 
d="M988 -31c-58 0 -89 16 -89 16l36 289s18 -9 53 -9c77 0 113 79 113 182c0 86 -28 136 -87 136c-51 0 -94 -22 -119 -45l-95 -538h-282l204 1159h-145l-204 -1159h-282l254 1443h709l-106 -604h3c42 40 100 58 169 58c166 0 240 -165 240 -367c0 -307 -122 -561 -372 -561
z" />
    <glyph glyph-name="uni04A8" unicode="&#x4a8;" 
d="M1027 -26c-88 0 -166 32 -217 89h-26c-75 -63 -177 -89 -266 -89c-310 0 -471 234 -380 750l20 115c64 370 230 612 555 633l-49 -280c-117 -22 -179 -194 -218 -415l-14 -80c-56 -319 12 -449 139 -449c35 0 54 3 54 3v15c-90 104 -92 305 -62 495l6 38
c47 295 221 491 471 491c251 0 343 -205 290 -539l-6 -38c-30 -190 -139 -378 -279 -461l-1 -14s12 -3 29 -3c65 0 132 31 185 74l40 -229c-88 -79 -171 -106 -271 -106zM853 709c-24 -141 -24 -276 16 -360c78 81 127 213 152 360l6 34c27 150 33 267 -36 267
c-67 0 -105 -115 -132 -267z" />
    <glyph glyph-name="uni04AE" unicode="&#x4ae;" 
d="M816 0h-366l87 496l-283 947h382l129 -589h20l335 589h400l-617 -947z" />
    <glyph glyph-name="uniF43A" 
d="M816 0h-366l87 496l-283 947h382l129 -589h20l335 589h400l-617 -947zM1303 1631h-764l38 212h764z" />
    <glyph glyph-name="uni04B0" unicode="&#x4b0;" 
d="M1520 1443l-611 -938h316l-46 -260h-320l-43 -245h-366l43 245h-320l46 260h315l-280 938h382l129 -589h20l335 589h400z" />
    <glyph glyph-name="uni04BC" unicode="&#x4bc;" 
d="M1090 917l2 13c21 115 4 238 -105 238c-113 0 -181 -105 -205 -239l-2 -12h310zM457 912h12c72 357 263 560 568 560c313 0 412 -269 347 -637c-22 -121 -45 -208 -45 -208h-615l-2 -12c-40 -225 -8 -337 100 -337c99 0 161 99 187 201h309c-79 -287 -244 -507 -540 -507
c-297 0 -415 241 -358 660h-16c-162 0 -248 100 -248 258c0 104 42 197 66 228h228c-4 -6 -45 -76 -45 -138c0 -39 17 -68 52 -68z" />
    <glyph glyph-name="uni04BE" unicode="&#x4be;" 
d="M1090 917l2 13c21 115 4 238 -105 238c-113 0 -181 -105 -205 -239l-2 -12h310zM457 912h12c72 357 263 560 568 560c313 0 412 -269 347 -637c-22 -121 -45 -208 -45 -208h-615l-2 -12c-40 -225 -8 -337 100 -337c99 0 161 99 187 201h309c-65 -237 -189 -428 -396 -487
l-49 -278h-300l51 285c-182 75 -250 297 -204 633h-16c-162 0 -248 100 -248 258c0 104 42 197 66 228h228c-4 -6 -45 -76 -45 -138c0 -39 17 -68 52 -68z" />
    <glyph glyph-name="uni04D4" unicode="&#x4d4;" 
d="M701 589l92 524h-82l-160 -524h150zM1470 1148h-343l-50 -288h307l-48 -270h-307l-52 -295h343l-52 -295h-671l54 305h-186l-93 -305h-362l536 1443h976z" />
    <glyph glyph-name="uni04D8" unicode="&#x4d8;" 
d="M662 -28c-375 0 -550 284 -481 667c15 85 39 168 39 168h766l4 22c39 225 -7 337 -145 337c-127 0 -201 -99 -228 -201h-375c79 282 272 507 627 507c418 0 544 -326 487 -661l-28 -164c-65 -382 -244 -675 -666 -675zM679 276c143 0 226 105 249 239l4 22h-396l-4 -23
c-20 -115 7 -238 147 -238z" />
    <glyph glyph-name="uni04DA" unicode="&#x4da;" 
d="M662 -28c-375 0 -550 284 -481 667c15 85 39 168 39 168h766l4 22c39 225 -7 337 -145 337c-127 0 -201 -99 -228 -201h-375c79 282 272 507 627 507c418 0 544 -326 487 -661l-28 -164c-65 -382 -244 -675 -666 -675zM679 276c143 0 226 105 249 239l4 22h-396l-4 -23
c-20 -115 7 -238 147 -238zM690 1600c-93 0 -170 76 -170 170s77 170 170 170s170 -76 170 -170s-77 -170 -170 -170zM1196 1600c-93 0 -170 76 -170 170s77 170 170 170s170 -76 170 -170s-77 -170 -170 -170z" />
    <glyph glyph-name="uniF49C" 
d="M662 -28c-375 0 -550 284 -481 667c15 85 39 168 39 168h766l4 22c39 225 -7 337 -145 337c-127 0 -201 -99 -228 -201h-375c79 282 272 507 627 507c418 0 544 -326 487 -661l-28 -164c-65 -382 -244 -675 -666 -675zM679 276c143 0 226 105 249 239l4 22h-396l-4 -23
c-20 -115 7 -238 147 -238zM1309 1631h-764l38 212h764z" />
    <glyph glyph-name="uni04E0" unicode="&#x4e0;" 
d="M1266 489c0 -255 -172 -518 -602 -518c-384 0 -527 190 -527 427c0 27 3 64 10 101h356c-5 -26 -7 -50 -7 -72c0 -106 62 -172 170 -172c135 0 216 85 216 199c0 115 -61 167 -208 167h-181l46 262l350 258l3 18h-554l50 284h966l-47 -265l-385 -291l-3 -19
c216 -27 347 -158 347 -379z" />
    <glyph glyph-name="uni0510" unicode="&#x510;" 
d="M924 593h-178c-157 0 -233 -82 -233 -197c0 -86 61 -136 171 -136c131 0 224 64 249 173h348c-62 -282 -312 -462 -642 -462c-312 0 -509 147 -509 390c0 190 137 359 368 380l3 19c-127 26 -204 128 -204 259c0 256 222 453 599 453c296 0 470 -141 470 -373
c0 -26 -2 -55 -7 -84h-333c2 12 3 23 3 34c0 93 -64 150 -171 150c-132 0 -223 -95 -223 -201c0 -82 60 -131 164 -131h173z" />
    <glyph glyph-name="uniF538" 
d="M924 593h-178c-157 0 -233 -82 -233 -197c0 -86 61 -136 171 -136c131 0 224 64 249 173h348c-62 -282 -312 -462 -642 -462c-312 0 -509 147 -509 390c0 190 137 359 368 380l3 19c-127 26 -204 128 -204 259c0 256 222 453 599 453c296 0 470 -141 470 -373
c0 -26 -2 -55 -7 -84h-333c2 12 3 23 3 34c0 93 -64 150 -171 150c-132 0 -223 -95 -223 -201c0 -82 60 -131 164 -131h173zM711 1600c-93 0 -170 76 -170 170s77 170 170 170s170 -76 170 -170s-77 -170 -170 -170zM1217 1600c-93 0 -170 76 -170 170s77 170 170 170
s170 -76 170 -170s-77 -170 -170 -170z" />
    <glyph glyph-name="uni0474" unicode="&#x474;" 
d="M884 1078c102 286 233 396 438 396c76 0 160 -23 212 -61l-122 -248c-21 10 -44 16 -61 16c-57 0 -93 -25 -133 -119l-452 -1062h-411l-110 1443h357l6 -1088h17z" />
    <glyph glyph-name="uni051C" unicode="&#x51c;" 
d="M802 824h-18l-250 -824h-313l48 1443h330l-43 -450l-64 -552h20l200 672h268l-36 -672h20l130 552l115 450h326l-460 -1443h-313z" />
    <glyph glyph-name="Dzecyrillic" unicode="&#x405;" 
d="M136 442h345c-1 -3 -1 -3 -1 -17c0 -103 96 -171 240 -171c120 0 205 61 205 146c0 74 -55 124 -179 162l-150 46c-214 66 -329 201 -329 385c0 284 226 479 555 479c322 0 546 -176 547 -430c0 -22 0 -28 -2 -38h-345c1 5 1 7 1 23c0 91 -84 163 -191 163
c-117 0 -191 -57 -191 -148c0 -71 53 -122 163 -156l144 -44c228 -70 348 -200 348 -376c0 -303 -223 -495 -574 -495c-342 0 -588 180 -588 430c0 13 1 29 2 41z" />
    <glyph glyph-name="Jecyrillic" unicode="&#x408;" 
d="M654 -29c-311 0 -511 177 -511 450c0 17 1 34 3 47h347c-1 -6 -2 -14 -2 -19c0 -97 66 -167 156 -167c103 0 168 69 192 204l116 662h-535l52 295h903l-179 -1003c-55 -308 -241 -469 -542 -469z" />
    <glyph glyph-name="a" unicode="a" 
d="M497 -17c-194 0 -336 130 -336 307c0 238 174 371 502 382l230 8l13 72c1 7 2 19 2 23c0 62 -53 104 -133 104c-67 0 -122 -34 -149 -90h-343c37 202 259 350 524 350c271 0 446 -135 446 -345c0 -27 -3 -62 -8 -93l-124 -701h-334l24 138h-30
c-51 -101 -150 -155 -284 -155zM639 244c107 0 190 72 209 182l9 52l-162 -6c-117 -4 -184 -52 -184 -132c0 -56 54 -96 128 -96z" />
    <glyph glyph-name="agrave" unicode="&#xe0;" 
d="M497 -17c-194 0 -336 130 -336 307c0 238 174 371 502 382l230 8l13 72c1 7 2 19 2 23c0 62 -53 104 -133 104c-67 0 -122 -34 -149 -90h-343c37 202 259 350 524 350c271 0 446 -135 446 -345c0 -27 -3 -62 -8 -93l-124 -701h-334l24 138h-30
c-51 -101 -150 -155 -284 -155zM639 244c107 0 190 72 209 182l9 52l-162 -6c-117 -4 -184 -52 -184 -132c0 -56 54 -96 128 -96zM1075 1296h-319l-228 362h369z" />
    <glyph glyph-name="aacute" unicode="&#xe1;" 
d="M1000 1296h-328l307 362h376zM857 478l-162 -6c-117 -4 -184 -52 -184 -132c0 -56 54 -96 128 -96c107 0 190 72 209 182zM811 138h-30c-51 -101 -150 -155 -284 -155c-194 0 -336 130 -336 307c0 238 174 371 502 382l230 8l13 72c1 7 2 19 2 23c0 62 -53 104 -133 104
c-67 0 -122 -34 -149 -90h-343c37 202 259 350 524 350c271 0 446 -135 446 -345c0 -27 -3 -62 -8 -93l-124 -701h-334z" />
    <glyph glyph-name="adieresis" unicode="&#xe4;" 
d="M497 -17c-194 0 -336 130 -336 307c0 238 174 371 502 382l230 8l13 72c1 7 2 19 2 23c0 62 -53 104 -133 104c-67 0 -122 -34 -149 -90h-343c37 202 259 350 524 350c271 0 446 -135 446 -345c0 -27 -3 -62 -8 -93l-124 -701h-334l24 138h-30
c-51 -101 -150 -155 -284 -155zM639 244c107 0 190 72 209 182l9 52l-162 -6c-117 -4 -184 -52 -184 -132c0 -56 54 -96 128 -96zM646 1279c-93 0 -170 76 -170 170s77 170 170 170s170 -76 170 -170s-77 -170 -170 -170zM1152 1279c-93 0 -170 76 -170 170s77 170 170 170
s170 -76 170 -170s-77 -170 -170 -170z" />
    <glyph glyph-name="adieresismacron" unicode="&#x1df;" 
d="M497 -17c-194 0 -336 130 -336 307c0 238 174 371 502 382l230 8l13 72c1 7 2 19 2 23c0 62 -53 104 -133 104c-67 0 -122 -34 -149 -90h-343c37 202 259 350 524 350c271 0 446 -135 446 -345c0 -27 -3 -62 -8 -93l-124 -701h-334l24 138h-30
c-51 -101 -150 -155 -284 -155zM639 244c107 0 190 72 209 182l9 52l-162 -6c-117 -4 -184 -52 -184 -132c0 -56 54 -96 128 -96zM1145 1588c93 0 170 -76 170 -170s-77 -170 -170 -170s-170 76 -170 170s77 170 170 170zM639 1588c93 0 170 -76 170 -170
s-77 -170 -170 -170s-170 76 -170 170s77 170 170 170zM591 1928h764l-38 -212h-764z" />
    <glyph glyph-name="aring" unicode="&#xe5;" 
d="M497 -17c-194 0 -336 130 -336 307c0 238 174 371 502 382l230 8l13 72c1 7 2 19 2 23c0 62 -53 104 -133 104c-67 0 -122 -34 -149 -90h-343c37 202 259 350 524 350c271 0 446 -135 446 -345c0 -27 -3 -62 -8 -93l-124 -701h-334l24 138h-30
c-51 -101 -150 -155 -284 -155zM639 244c107 0 190 72 209 182l9 52l-162 -6c-117 -4 -184 -52 -184 -132c0 -56 54 -96 128 -96zM905 1392c50 0 90 41 90 90s-40 90 -90 90s-90 -41 -90 -90s40 -90 90 -90zM905 1234c-136 0 -248 112 -248 248s112 248 248 248
s248 -112 248 -248s-112 -248 -248 -248z" />
    <glyph glyph-name="aringacute" unicode="&#x1fb;" 
d="M1064 1760h-234l198 241h279zM900 1221c-139 0 -240 97 -240 232s101 232 240 232s240 -97 240 -232s-101 -232 -240 -232zM900 1367c51 0 87 36 87 86s-36 86 -87 86s-87 -36 -87 -86s36 -86 87 -86zM857 478l-162 -6c-117 -4 -184 -52 -184 -132c0 -56 54 -96 128 -96
c107 0 190 72 209 182zM811 138h-30c-51 -101 -150 -155 -284 -155c-194 0 -336 130 -336 307c0 238 174 371 502 382l230 8l13 72c1 7 2 19 2 23c0 62 -53 104 -133 104c-67 0 -122 -34 -149 -90h-343c37 202 259 350 524 350c271 0 446 -135 446 -345c0 -27 -3 -62 -8 -93
l-124 -701h-334z" />
    <glyph glyph-name="atilde" unicode="&#xe3;" 
d="M497 -17c-194 0 -336 130 -336 307c0 238 174 371 502 382l230 8l13 72c1 7 2 19 2 23c0 62 -53 104 -133 104c-67 0 -122 -34 -149 -90h-343c37 202 259 350 524 350c271 0 446 -135 446 -345c0 -27 -3 -62 -8 -93l-124 -701h-334l24 138h-30
c-51 -101 -150 -155 -284 -155zM639 244c107 0 190 72 209 182l9 52l-162 -6c-117 -4 -184 -52 -184 -132c0 -56 54 -96 128 -96zM756 1406c-42 0 -75 -46 -92 -130h-219c39 206 156 333 308 333c164 0 203 -145 284 -145c42 0 73 42 90 124h219
c-36 -196 -159 -327 -307 -327c-164 0 -202 145 -283 145z" />
    <glyph glyph-name="abrevegrave" unicode="&#x1eb1;" 
d="M1094 1629h245c-12 -216 -200 -369 -451 -369c-250 0 -422 165 -384 369h241c-6 -101 54 -163 158 -163c110 0 184 63 191 163zM904 1992l117 -351h-213l-178 351h274zM857 478l-162 -6c-117 -4 -184 -52 -184 -132c0 -56 54 -96 128 -96c107 0 190 72 209 182zM811 138
h-30c-51 -101 -150 -155 -284 -155c-194 0 -336 130 -336 307c0 238 174 371 502 382l230 8l13 72c1 7 2 19 2 23c0 62 -53 104 -133 104c-67 0 -122 -34 -149 -90h-343c37 202 259 350 524 350c271 0 446 -135 446 -345c0 -27 -3 -62 -8 -93l-124 -701h-334z" />
    <glyph glyph-name="adotmacron" unicode="&#x1e1;" 
d="M497 -17c-194 0 -336 130 -336 307c0 238 174 371 502 382l230 8l13 72c1 7 2 19 2 23c0 62 -53 104 -133 104c-67 0 -122 -34 -149 -90h-343c37 202 259 350 524 350c271 0 446 -135 446 -345c0 -27 -3 -62 -8 -93l-124 -701h-334l24 138h-30
c-51 -101 -150 -155 -284 -155zM639 244c107 0 190 72 209 182l9 52l-162 -6c-117 -4 -184 -52 -184 -132c0 -56 54 -96 128 -96zM1328 1718h-764l38 212h764zM894 1239c-101 0 -183 82 -183 183s82 183 183 183s183 -82 183 -183s-82 -183 -183 -183z" />
    <glyph glyph-name="aringbelow" unicode="&#x1e01;" 
d="M497 -17c-194 0 -336 130 -336 307c0 238 174 371 502 382l230 8l13 72c1 7 2 19 2 23c0 62 -53 104 -133 104c-67 0 -122 -34 -149 -90h-343c37 202 259 350 524 350c271 0 446 -135 446 -345c0 -27 -3 -62 -8 -93l-124 -701h-334l24 138h-30
c-51 -101 -150 -155 -284 -155zM639 244c107 0 190 72 209 182l9 52l-162 -6c-117 -4 -184 -52 -184 -132c0 -56 54 -96 128 -96zM547 -437c50 0 90 41 90 90s-40 90 -90 90s-90 -41 -90 -90s40 -90 90 -90zM547 -595c-136 0 -248 112 -248 248s112 248 248 248
s248 -112 248 -248s-112 -248 -248 -248z" />
    <glyph glyph-name="acircumflex" unicode="&#xe2;" 
d="M497 -17c-194 0 -336 130 -336 307c0 238 174 371 502 382l230 8l13 72c1 7 2 19 2 23c0 62 -53 104 -133 104c-67 0 -122 -34 -149 -90h-343c37 202 259 350 524 350c271 0 446 -135 446 -345c0 -27 -3 -62 -8 -93l-124 -701h-334l24 138h-30
c-51 -101 -150 -155 -284 -155zM639 244c107 0 190 72 209 182l9 52l-162 -6c-117 -4 -184 -52 -184 -132c0 -56 54 -96 128 -96zM754 1632h354l198 -365h-305l-88 197h-20l-154 -197h-313z" />
    <glyph glyph-name="acircumflexdotbelow" unicode="&#x1ead;" 
d="M497 -17c-194 0 -336 130 -336 307c0 238 174 371 502 382l230 8l13 72c1 7 2 19 2 23c0 62 -53 104 -133 104c-67 0 -122 -34 -149 -90h-343c37 202 259 350 524 350c271 0 446 -135 446 -345c0 -27 -3 -62 -8 -93l-124 -701h-334l24 138h-30
c-51 -101 -150 -155 -284 -155zM639 244c107 0 190 72 209 182l9 52l-162 -6c-117 -4 -184 -52 -184 -132c0 -56 54 -96 128 -96zM754 1632h354l198 -365h-305l-88 197h-20l-154 -197h-313zM554 -491c-101 0 -183 82 -183 183s82 183 183 183s183 -82 183 -183
s-82 -183 -183 -183z" />
    <glyph glyph-name="acircumflexacute" unicode="&#x1ea5;" 
d="M497 -17c-194 0 -336 130 -336 307c0 238 174 371 502 382l230 8l13 72c1 7 2 19 2 23c0 62 -53 104 -133 104c-67 0 -122 -34 -149 -90h-343c37 202 259 350 524 350c271 0 446 -135 446 -345c0 -27 -3 -62 -8 -93l-124 -701h-334l24 138h-30
c-51 -101 -150 -155 -284 -155zM639 244c107 0 190 72 209 182l9 52l-162 -6c-117 -4 -184 -52 -184 -132c0 -56 54 -96 128 -96zM1163 1641l254 351h313l-301 -351h-266zM756 1641h354l198 -365h-305l-88 197h-20l-154 -197h-313z" />
    <glyph glyph-name="acircumflextilde" unicode="&#x1eab;" 
d="M497 -17c-194 0 -336 130 -336 307c0 238 174 371 502 382l230 8l13 72c1 7 2 19 2 23c0 62 -53 104 -133 104c-67 0 -122 -34 -149 -90h-343c37 202 259 350 524 350c271 0 446 -135 446 -345c0 -27 -3 -62 -8 -93l-124 -701h-334l24 138h-30
c-51 -101 -150 -155 -284 -155zM639 244c107 0 190 72 209 182l9 52l-162 -6c-117 -4 -184 -52 -184 -132c0 -56 54 -96 128 -96zM837 1835c-34 0 -63 -38 -86 -110h-219c31 176 156 303 300 303c164 0 197 -114 278 -114c34 0 61 34 84 104h219
c-28 -166 -159 -297 -299 -297c-164 0 -196 114 -277 114zM756 1641h354l198 -365h-305l-88 197h-20l-154 -197h-313z" />
    <glyph glyph-name="acircumflexgrave" unicode="&#x1ea7;" 
d="M497 -17c-194 0 -336 130 -336 307c0 238 174 371 502 382l230 8l13 72c1 7 2 19 2 23c0 62 -53 104 -133 104c-67 0 -122 -34 -149 -90h-343c37 202 259 350 524 350c271 0 446 -135 446 -345c0 -27 -3 -62 -8 -93l-124 -701h-334l24 138h-30
c-51 -101 -150 -155 -284 -155zM639 244c107 0 190 72 209 182l9 52l-162 -6c-117 -4 -184 -52 -184 -132c0 -56 54 -96 128 -96zM1504 1641h-258l-177 351h305zM756 1641h354l198 -365h-305l-88 197h-20l-154 -197h-313z" />
    <glyph glyph-name="acircumflexhookabove" unicode="&#x1ea9;" 
d="M497 -17c-194 0 -336 130 -336 307c0 238 174 371 502 382l230 8l13 72c1 7 2 19 2 23c0 62 -53 104 -133 104c-67 0 -122 -34 -149 -90h-343c37 202 259 350 524 350c271 0 446 -135 446 -345c0 -27 -3 -62 -8 -93l-124 -701h-334l24 138h-30
c-51 -101 -150 -155 -284 -155zM639 244c107 0 190 72 209 182l9 52l-162 -6c-117 -4 -184 -52 -184 -132c0 -56 54 -96 128 -96zM756 1641h354l198 -365h-305l-88 197h-20l-154 -197h-313zM1122 1853l33 154c42 19 85 27 142 27c157 0 256 -81 256 -211
c0 -124 -95 -227 -255 -274l-85 136c86 26 123 60 123 112c0 46 -41 77 -102 77c-42 0 -75 -6 -112 -21z" />
    <glyph glyph-name="abreve" unicode="&#x103;" 
d="M497 -17c-194 0 -336 130 -336 307c0 238 174 371 502 382l230 8l13 72c1 7 2 19 2 23c0 62 -53 104 -133 104c-67 0 -122 -34 -149 -90h-343c37 202 259 350 524 350c271 0 446 -135 446 -345c0 -27 -3 -62 -8 -93l-124 -701h-334l24 138h-30
c-51 -101 -150 -155 -284 -155zM639 244c107 0 190 72 209 182l9 52l-162 -6c-117 -4 -184 -52 -184 -132c0 -56 54 -96 128 -96zM888 1218c-250 0 -422 165 -384 369h241c-6 -101 54 -163 158 -163c110 0 184 63 191 163h245c-12 -216 -200 -369 -451 -369z" />
    <glyph glyph-name="abreveacute" unicode="&#x1eaf;" 
d="M497 -17c-194 0 -336 130 -336 307c0 238 174 371 502 382l230 8l13 72c1 7 2 19 2 23c0 62 -53 104 -133 104c-67 0 -122 -34 -149 -90h-343c37 202 259 350 524 350c271 0 446 -135 446 -345c0 -27 -3 -62 -8 -93l-124 -701h-334l24 138h-30
c-51 -101 -150 -155 -284 -155zM639 244c107 0 190 72 209 182l9 52l-162 -6c-117 -4 -184 -52 -184 -132c0 -56 54 -96 128 -96zM811 1641l241 351h278l-302 -351h-217zM893 1260c-250 0 -422 165 -384 369h241c-6 -101 54 -163 158 -163c110 0 184 63 191 163h245
c-12 -216 -200 -369 -451 -369z" />
    <glyph glyph-name="abrevetilde" unicode="&#x1eb5;" 
d="M497 -17c-194 0 -336 130 -336 307c0 238 174 371 502 382l230 8l13 72c1 7 2 19 2 23c0 62 -53 104 -133 104c-67 0 -122 -34 -149 -90h-343c37 202 259 350 524 350c271 0 446 -135 446 -345c0 -27 -3 -62 -8 -93l-124 -701h-334l24 138h-30
c-51 -101 -150 -155 -284 -155zM639 244c107 0 190 72 209 182l9 52l-162 -6c-117 -4 -184 -52 -184 -132c0 -56 54 -96 128 -96zM888 1260c-250 0 -422 165 -384 369h241c-6 -101 54 -163 158 -163c110 0 184 63 191 163h245c-12 -216 -200 -369 -451 -369zM834 1832
c-42 0 -75 -46 -92 -130h-219c39 206 156 333 308 333c164 0 203 -145 284 -145c42 0 73 42 90 124h219c-36 -196 -159 -327 -307 -327c-164 0 -202 145 -283 145z" />
    <glyph glyph-name="abrevehookabove" unicode="&#x1eb3;" 
d="M497 -17c-194 0 -336 130 -336 307c0 238 174 371 502 382l230 8l13 72c1 7 2 19 2 23c0 62 -53 104 -133 104c-67 0 -122 -34 -149 -90h-343c37 202 259 350 524 350c271 0 446 -135 446 -345c0 -27 -3 -62 -8 -93l-124 -701h-334l24 138h-30
c-51 -101 -150 -155 -284 -155zM639 244c107 0 190 72 209 182l9 52l-162 -6c-117 -4 -184 -52 -184 -132c0 -56 54 -96 128 -96zM888 1260c-250 0 -422 165 -384 369h241c-6 -101 54 -163 158 -163c110 0 184 63 191 163h245c-12 -216 -200 -369 -451 -369zM704 1854
l33 154c42 19 85 27 142 27c157 0 256 -81 256 -211c0 -124 -95 -227 -255 -274l-85 136c86 26 123 60 123 112c0 46 -41 77 -102 77c-42 0 -75 -6 -112 -21z" />
    <glyph glyph-name="abrevedotbelow" unicode="&#x1eb7;" 
d="M497 -17c-194 0 -336 130 -336 307c0 238 174 371 502 382l230 8l13 72c1 7 2 19 2 23c0 62 -53 104 -133 104c-67 0 -122 -34 -149 -90h-343c37 202 259 350 524 350c271 0 446 -135 446 -345c0 -27 -3 -62 -8 -93l-124 -701h-334l24 138h-30
c-51 -101 -150 -155 -284 -155zM639 244c107 0 190 72 209 182l9 52l-162 -6c-117 -4 -184 -52 -184 -132c0 -56 54 -96 128 -96zM888 1218c-250 0 -422 165 -384 369h241c-6 -101 54 -163 158 -163c110 0 184 63 191 163h245c-12 -216 -200 -369 -451 -369zM554 -491
c-101 0 -183 82 -183 183s82 183 183 183s183 -82 183 -183s-82 -183 -183 -183z" />
    <glyph glyph-name="ainvertedbreve" unicode="&#x203;" 
d="M497 -17c-194 0 -336 130 -336 307c0 238 174 371 502 382l230 8l13 72c1 7 2 19 2 23c0 62 -53 104 -133 104c-67 0 -122 -34 -149 -90h-343c37 202 259 350 524 350c271 0 446 -135 446 -345c0 -27 -3 -62 -8 -93l-124 -701h-334l24 138h-30
c-51 -101 -150 -155 -284 -155zM639 244c107 0 190 72 209 182l9 52l-162 -6c-117 -4 -184 -52 -184 -132c0 -56 54 -96 128 -96zM896 1629c250 0 422 -165 384 -369h-241c6 101 -54 163 -158 163c-110 0 -184 -63 -191 -163h-245c12 216 200 369 451 369z" />
    <glyph glyph-name="acaron" unicode="&#x1ce;" 
d="M497 -17c-194 0 -336 130 -336 307c0 238 174 371 502 382l230 8l13 72c1 7 2 19 2 23c0 62 -53 104 -133 104c-67 0 -122 -34 -149 -90h-343c37 202 259 350 524 350c271 0 446 -135 446 -345c0 -27 -3 -62 -8 -93l-124 -701h-334l24 138h-30
c-51 -101 -150 -155 -284 -155zM639 244c107 0 190 72 209 182l9 52l-162 -6c-117 -4 -184 -52 -184 -132c0 -56 54 -96 128 -96zM1048 1296h-354l-198 365h305l88 -197h20l154 197h313z" />
    <glyph glyph-name="adotaccent" unicode="&#x227;" 
d="M497 -17c-194 0 -336 130 -336 307c0 238 174 371 502 382l230 8l13 72c1 7 2 19 2 23c0 62 -53 104 -133 104c-67 0 -122 -34 -149 -90h-343c37 202 259 350 524 350c271 0 446 -135 446 -345c0 -27 -3 -62 -8 -93l-124 -701h-334l24 138h-30
c-51 -101 -150 -155 -284 -155zM639 244c107 0 190 72 209 182l9 52l-162 -6c-117 -4 -184 -52 -184 -132c0 -56 54 -96 128 -96zM900 1272c-101 0 -183 82 -183 183s82 183 183 183s183 -82 183 -183s-82 -183 -183 -183z" />
    <glyph glyph-name="adotbelow" unicode="&#x1ea1;" 
d="M497 -17c-194 0 -336 130 -336 307c0 238 174 371 502 382l230 8l13 72c1 7 2 19 2 23c0 62 -53 104 -133 104c-67 0 -122 -34 -149 -90h-343c37 202 259 350 524 350c271 0 446 -135 446 -345c0 -27 -3 -62 -8 -93l-124 -701h-334l24 138h-30
c-51 -101 -150 -155 -284 -155zM639 244c107 0 190 72 209 182l9 52l-162 -6c-117 -4 -184 -52 -184 -132c0 -56 54 -96 128 -96zM554 -491c-101 0 -183 82 -183 183s82 183 183 183s183 -82 183 -183s-82 -183 -183 -183z" />
    <glyph glyph-name="ahookabove" unicode="&#x1ea3;" 
d="M497 -17c-194 0 -336 130 -336 307c0 238 174 371 502 382l230 8l13 72c1 7 2 19 2 23c0 62 -53 104 -133 104c-67 0 -122 -34 -149 -90h-343c37 202 259 350 524 350c271 0 446 -135 446 -345c0 -27 -3 -62 -8 -93l-124 -701h-334l24 138h-30
c-51 -101 -150 -155 -284 -155zM639 244c107 0 190 72 209 182l9 52l-162 -6c-117 -4 -184 -52 -184 -132c0 -56 54 -96 128 -96zM708 1528l33 154c42 19 85 27 142 27c157 0 256 -81 256 -211c0 -124 -95 -227 -255 -274l-85 136c86 26 123 60 123 112c0 46 -41 77 -102 77
c-42 0 -75 -6 -112 -21z" />
    <glyph glyph-name="adblgrave" unicode="&#x201;" 
d="M1079 1659l110 -363h-256l-141 363h287zM626 1659l111 -363h-257l-141 363h287zM857 478l-162 -6c-117 -4 -184 -52 -184 -132c0 -56 54 -96 128 -96c107 0 190 72 209 182zM811 138h-30c-51 -101 -150 -155 -284 -155c-194 0 -336 130 -336 307c0 238 174 371 502 382
l230 8l13 72c1 7 2 19 2 23c0 62 -53 104 -133 104c-67 0 -122 -34 -149 -90h-343c37 202 259 350 524 350c271 0 446 -135 446 -345c0 -27 -3 -62 -8 -93l-124 -701h-334z" />
    <glyph glyph-name="amacron" unicode="&#x101;" 
d="M497 -17c-194 0 -336 130 -336 307c0 238 174 371 502 382l230 8l13 72c1 7 2 19 2 23c0 62 -53 104 -133 104c-67 0 -122 -34 -149 -90h-343c37 202 259 350 524 350c271 0 446 -135 446 -345c0 -27 -3 -62 -8 -93l-124 -701h-334l24 138h-30
c-51 -101 -150 -155 -284 -155zM639 244c107 0 190 72 209 182l9 52l-162 -6c-117 -4 -184 -52 -184 -132c0 -56 54 -96 128 -96zM1262 1346h-764l38 212h764z" />
    <glyph glyph-name="aogonek" unicode="&#x105;" 
d="M639 244c107 0 190 72 209 182l9 52l-162 -6c-117 -4 -184 -52 -184 -132c0 -56 54 -96 128 -96zM787 0l24 138h-30c-51 -101 -150 -155 -284 -155c-194 0 -336 130 -336 307c0 238 174 371 502 382l230 8l13 72c1 7 2 19 2 23c0 62 -53 104 -133 104
c-66 0 -122 -33 -149 -90h-343c37 202 259 350 524 350c271 0 446 -135 446 -345c0 -27 -3 -62 -8 -93l-124 -701c-158 -34 -235 -97 -235 -190c0 -60 43 -96 116 -96c23 0 43 3 70 9l-33 -179c-41 -16 -87 -23 -145 -23c-165 0 -282 93 -282 224c0 114 47 183 175 255z" />
    <glyph glyph-name="b" unicode="b" 
d="M838 -17c-167 0 -289 90 -301 221h-23l-36 -204h-369l270 1530h371l-109 -616h23c47 134 165 218 308 218c205 0 344 -142 344 -352c0 -37 -4 -80 -13 -131l-32 -183c-55 -310 -210 -483 -433 -483zM715 270c99 0 172 71 193 186l31 174c4 26 6 49 6 76
c0 86 -69 150 -161 150c-99 0 -173 -71 -194 -186l-31 -174c-4 -26 -6 -49 -6 -76c0 -86 69 -150 162 -150z" />
    <glyph glyph-name="blinebelow" unicode="&#x1e07;" 
d="M838 -17c-167 0 -289 90 -301 221h-23l-36 -204h-369l270 1530h371l-109 -616h23c47 134 165 218 308 218c205 0 344 -142 344 -352c0 -37 -4 -80 -13 -131l-32 -183c-55 -310 -210 -483 -433 -483zM715 270c99 0 172 71 193 186l31 174c4 26 6 49 6 76
c0 86 -69 150 -161 150c-99 0 -173 -71 -194 -186l-31 -174c-4 -26 -6 -49 -6 -76c0 -86 69 -150 162 -150zM939 -428h-764l38 212h764z" />
    <glyph glyph-name="bdotbelow" unicode="&#x1e05;" 
d="M838 -17c-167 0 -289 90 -301 221h-23l-36 -204h-369l270 1530h371l-109 -616h23c47 134 165 218 308 218c205 0 344 -142 344 -352c0 -37 -4 -80 -13 -131l-32 -183c-55 -310 -210 -483 -433 -483zM715 270c99 0 172 71 193 186l31 174c4 26 6 49 6 76
c0 86 -69 150 -161 150c-99 0 -173 -71 -194 -186l-31 -174c-4 -26 -6 -49 -6 -76c0 -86 69 -150 162 -150zM579 -491c-101 0 -183 82 -183 183s82 183 183 183s183 -82 183 -183s-82 -183 -183 -183z" />
    <glyph glyph-name="bdotaccent" unicode="&#x1e03;" 
d="M838 -17c-167 0 -289 90 -301 221h-23l-36 -204h-369l270 1530h371l-109 -616h23c47 134 165 218 308 218c205 0 344 -142 344 -352c0 -37 -4 -80 -13 -131l-32 -183c-55 -310 -210 -483 -433 -483zM715 270c99 0 172 71 193 186l31 174c4 26 6 49 6 76
c0 86 -69 150 -161 150c-99 0 -173 -71 -194 -186l-31 -174c-4 -26 -6 -49 -6 -76c0 -86 69 -150 162 -150zM1085 1272c-101 0 -183 82 -183 183s82 183 183 183s183 -82 183 -183s-82 -183 -183 -183z" />
    <glyph glyph-name="c" unicode="c" 
d="M1291 701h-342c1 4 1 7 1 24c0 84 -65 147 -152 147c-113 0 -183 -74 -209 -222l-18 -100c-8 -45 -14 -93 -14 -119c0 -120 54 -185 153 -185s151 44 186 158h342c-48 -262 -263 -430 -552 -430s-478 164 -478 414c0 62 6 129 17 188l25 133c49 265 269 435 562 435
c283 0 483 -152 483 -367c0 -21 -1 -49 -4 -76z" />
    <glyph glyph-name="cacute" unicode="&#x107;" 
d="M1009 1296h-328l307 362h376zM1291 701h-342c1 4 1 7 1 24c0 84 -65 147 -152 147c-113 0 -183 -74 -209 -222l-18 -100c-8 -45 -14 -93 -14 -119c0 -120 54 -185 153 -185s151 44 186 158h342c-48 -262 -263 -430 -552 -430s-478 164 -478 414c0 62 6 129 17 188l25 133
c49 265 269 435 562 435c283 0 483 -152 483 -367c0 -21 -1 -49 -4 -76z" />
    <glyph glyph-name="ccaron" unicode="&#x10d;" 
d="M1291 701h-342c1 4 1 7 1 24c0 84 -65 147 -152 147c-113 0 -183 -74 -209 -222l-18 -100c-8 -45 -14 -93 -14 -119c0 -120 54 -185 153 -185s151 44 186 158h342c-48 -262 -263 -430 -552 -430s-478 164 -478 414c0 62 6 129 17 188l25 133c49 265 269 435 562 435
c283 0 483 -152 483 -367c0 -21 -1 -49 -4 -76zM1057 1296h-354l-198 365h305l88 -197h20l154 197h313z" />
    <glyph glyph-name="ccircumflex" unicode="&#x109;" 
d="M1291 701h-342c1 4 1 7 1 24c0 84 -65 147 -152 147c-113 0 -183 -74 -209 -222l-18 -100c-8 -45 -14 -93 -14 -119c0 -120 54 -185 153 -185s151 44 186 158h342c-48 -262 -263 -430 -552 -430s-478 164 -478 414c0 62 6 129 17 188l25 133c49 265 269 435 562 435
c283 0 483 -152 483 -367c0 -21 -1 -49 -4 -76zM763 1632h354l198 -365h-305l-88 197h-20l-154 -197h-313z" />
    <glyph glyph-name="cdotaccent" unicode="&#x10b;" 
d="M1291 701h-342c1 4 1 7 1 24c0 84 -65 147 -152 147c-113 0 -183 -74 -209 -222l-18 -100c-8 -45 -14 -93 -14 -119c0 -120 54 -185 153 -185s151 44 186 158h342c-48 -262 -263 -430 -552 -430s-478 164 -478 414c0 62 6 129 17 188l25 133c49 265 269 435 562 435
c283 0 483 -152 483 -367c0 -21 -1 -49 -4 -76zM909 1272c-101 0 -183 82 -183 183s82 183 183 183s183 -82 183 -183s-82 -183 -183 -183z" />
    <glyph glyph-name="ccedilla" unicode="&#xe7;" 
d="M1291 701h-342c1 4 1 7 1 24c0 84 -65 147 -152 147c-113 0 -183 -74 -209 -222l-18 -100c-8 -45 -14 -93 -14 -119c0 -120 54 -185 153 -185s151 44 186 158h342c-46 -253 -248 -418 -522 -429l-49 -77c94 -18 155 -80 155 -157c0 -157 -104 -235 -315 -235
c-43 0 -96 7 -141 18l27 152c17 -8 64 -14 107 -14c69 0 113 21 113 54c0 30 -35 45 -104 45h-60l26 137l58 93c-201 48 -325 194 -325 397c0 62 6 129 17 188l25 133c49 265 269 435 562 435c283 0 483 -152 483 -367c0 -21 -1 -49 -4 -76z" />
    <glyph glyph-name="ccedillaacute" unicode="&#x1e09;" 
d="M1367 1658l-355 -362h-328l307 362h376zM225 576l25 133c49 265 269 435 562 435c283 0 483 -152 483 -367c0 -21 -1 -49 -4 -76h-342c1 4 1 7 1 24c0 84 -65 147 -152 147c-113 0 -183 -74 -209 -222l-18 -100c-8 -45 -14 -93 -14 -119c0 -120 54 -185 153 -185
s151 44 186 158h342c-46 -253 -248 -418 -522 -429l-49 -77c94 -18 155 -80 155 -157c0 -157 -104 -235 -315 -235c-43 0 -96 7 -141 18l27 152c17 -8 64 -14 107 -14c69 0 113 21 113 54c0 30 -35 45 -104 45h-60l26 137l58 93c-201 48 -325 194 -325 397
c0 62 6 129 17 188z" />
    <glyph glyph-name="d" unicode="d" 
d="M626 1132c163 0 282 -87 300 -218h22l109 616h370l-270 -1530h-369l36 204h-22c-47 -136 -166 -221 -309 -221c-207 0 -344 140 -344 352c0 44 3 86 10 131l27 183c44 301 210 483 440 483zM751 856c-99 0 -172 -71 -193 -186l-31 -174c-4 -27 -6 -50 -6 -76
c0 -86 69 -150 161 -150c99 0 173 71 194 186l31 174c4 27 6 50 6 76c0 86 -69 150 -162 150z" />
    <glyph glyph-name="ddotaccent" unicode="&#x1e0b;" 
d="M626 1132c163 0 282 -87 300 -218h22l109 616h370l-270 -1530h-369l36 204h-22c-47 -136 -166 -221 -309 -221c-207 0 -344 140 -344 352c0 44 3 86 10 131l27 183c44 301 210 483 440 483zM751 856c-99 0 -172 -71 -193 -186l-31 -174c-4 -27 -6 -50 -6 -76
c0 -86 69 -150 161 -150c99 0 173 71 194 186l31 174c4 27 6 50 6 76c0 86 -69 150 -162 150zM673 1272c-101 0 -183 82 -183 183s82 183 183 183s183 -82 183 -183s-82 -183 -183 -183z" />
    <glyph glyph-name="dcircumflexbelow" unicode="&#x1e13;" 
d="M626 1132c163 0 282 -87 300 -218h22l109 616h370l-270 -1530h-369l36 204h-22c-47 -136 -166 -221 -309 -221c-207 0 -344 140 -344 352c0 44 3 86 10 131l27 183c44 301 210 483 440 483zM751 856c-99 0 -172 -71 -193 -186l-31 -174c-4 -27 -6 -50 -6 -76
c0 -86 69 -150 161 -150c99 0 173 71 194 186l31 174c4 27 6 50 6 76c0 86 -69 150 -162 150zM429 -156h354l198 -365h-305l-88 197h-20l-154 -197h-313z" />
    <glyph glyph-name="dcommaaccent" unicode="&#x1e11;" 
d="M626 1132c163 0 282 -87 300 -218h22l109 616h370l-270 -1530h-369l36 204h-22c-47 -136 -166 -221 -309 -221c-207 0 -344 140 -344 352c0 44 3 86 10 131l27 183c44 301 210 483 440 483zM751 856c-99 0 -172 -71 -193 -186l-31 -174c-4 -27 -6 -50 -6 -76
c0 -86 69 -150 161 -150c99 0 173 71 194 186l31 174c4 27 6 50 6 76c0 86 -69 150 -162 150zM594 -504h-306l210 350h350z" />
    <glyph glyph-name="dlinebelow" unicode="&#x1e0f;" 
d="M626 1132c163 0 282 -87 300 -218h22l109 616h370l-270 -1530h-369l36 204h-22c-47 -136 -166 -221 -309 -221c-207 0 -344 140 -344 352c0 44 3 86 10 131l27 183c44 301 210 483 440 483zM751 856c-99 0 -172 -71 -193 -186l-31 -174c-4 -27 -6 -50 -6 -76
c0 -86 69 -150 161 -150c99 0 173 71 194 186l31 174c4 27 6 50 6 76c0 86 -69 150 -162 150zM939 -428h-764l38 212h764z" />
    <glyph glyph-name="dcaron" unicode="&#x10f;" 
d="M1286 1530h250l-122 -510h-218zM532 1132c144 0 215 -80 230 -184h20l103 582h311l-268 -1530h-312l30 170h-22c-44 -116 -118 -187 -240 -187c-170 0 -290 121 -290 285c0 63 6 101 13 142l49 290c44 263 188 432 376 432zM608 856c-78 0 -142 -51 -161 -157l-42 -238
c-4 -21 -4 -41 -4 -64c0 -67 50 -127 133 -127c78 0 143 51 161 158l40 233c4 21 7 44 7 69c0 62 -50 126 -134 126z" />
    <glyph glyph-name="ddotbelow" unicode="&#x1e0d;" 
d="M626 1132c163 0 282 -87 300 -218h22l109 616h370l-270 -1530h-369l36 204h-22c-47 -136 -166 -221 -309 -221c-207 0 -344 140 -344 352c0 44 3 86 10 131l27 183c44 301 210 483 440 483zM751 856c-99 0 -172 -71 -193 -186l-31 -174c-4 -27 -6 -50 -6 -76
c0 -86 69 -150 161 -150c99 0 173 71 194 186l31 174c4 27 6 50 6 76c0 86 -69 150 -162 150zM579 -491c-101 0 -183 82 -183 183s82 183 183 183s183 -82 183 -183s-82 -183 -183 -183z" />
    <glyph glyph-name="dcroat" unicode="&#x111;" 
d="M868 456l31 174c4 27 6 50 6 76c0 86 -69 150 -162 150c-99 0 -172 -71 -193 -186l-31 -174c-4 -27 -6 -50 -6 -76c0 -86 69 -150 161 -150c99 0 173 71 194 186zM1515 1410l-29 -164h-117l-220 -1246h-369l36 204h-22c-47 -136 -166 -221 -309 -221
c-207 0 -344 140 -344 352c0 44 3 86 10 131l27 183c44 301 210 483 440 483c163 0 282 -87 300 -218h22l59 332h-107l29 164h107l21 120h370l-21 -120h117z" />
    <glyph glyph-name="e" unicode="e" 
d="M795 890c-101 0 -169 -60 -200 -174c-3 -11 -6 -23 -8 -35h355c4 17 7 48 7 71c0 84 -60 138 -154 138zM1214 328c-42 -218 -245 -354 -530 -354c-291 0 -476 168 -476 434c0 60 5 107 17 168l25 124c54 266 272 439 554 439c273 0 474 -167 474 -395
c0 -52 -4 -101 -12 -142l-22 -124h-692c-8 -34 -13 -71 -13 -88c0 -101 63 -165 162 -165c84 0 135 32 164 103h349z" />
    <glyph glyph-name="egrave" unicode="&#xe8;" 
d="M795 890c-101 0 -169 -60 -200 -174c-3 -11 -6 -23 -8 -35h355c4 17 7 48 7 71c0 84 -60 138 -154 138zM1214 328c-42 -218 -245 -354 -530 -354c-291 0 -476 168 -476 434c0 60 5 107 17 168l25 124c54 266 272 439 554 439c273 0 474 -167 474 -395
c0 -52 -4 -101 -12 -142l-22 -124h-692c-8 -34 -13 -71 -13 -88c0 -101 63 -165 162 -165c84 0 135 32 164 103h349zM1080 1296h-319l-228 362h369z" />
    <glyph glyph-name="edblgrave" unicode="&#x205;" 
d="M1084 1659l110 -363h-256l-141 363h287zM631 1659l111 -363h-257l-141 363h287zM865 328h349c-42 -218 -245 -354 -530 -354c-291 0 -476 168 -476 434c0 60 5 107 17 168l25 124c54 266 272 439 554 439c273 0 474 -167 474 -395c0 -52 -4 -101 -12 -142l-22 -124h-692
c-8 -34 -13 -71 -13 -88c0 -101 63 -165 162 -165c84 0 135 32 164 103zM587 681h355c4 17 7 48 7 71c0 84 -60 138 -154 138c-101 0 -169 -60 -200 -174c-3 -11 -6 -23 -8 -35z" />
    <glyph glyph-name="eacute" unicode="&#xe9;" 
d="M1005 1296h-328l307 362h376zM865 328h349c-42 -218 -245 -354 -530 -354c-291 0 -476 168 -476 434c0 60 5 107 17 168l25 124c54 266 272 439 554 439c273 0 474 -167 474 -395c0 -52 -4 -101 -12 -142l-22 -124h-692c-8 -34 -13 -71 -13 -88c0 -101 63 -165 162 -165
c84 0 135 32 164 103zM587 681h355c4 17 7 48 7 71c0 84 -60 138 -154 138c-101 0 -169 -60 -200 -174c-3 -11 -6 -23 -8 -35z" />
    <glyph glyph-name="ecircumflex" unicode="&#xea;" 
d="M795 890c-101 0 -169 -60 -200 -174c-3 -11 -6 -23 -8 -35h355c4 17 7 48 7 71c0 84 -60 138 -154 138zM1214 328c-42 -218 -245 -354 -530 -354c-291 0 -476 168 -476 434c0 60 5 107 17 168l25 124c54 266 272 439 554 439c273 0 474 -167 474 -395
c0 -52 -4 -101 -12 -142l-22 -124h-692c-8 -34 -13 -71 -13 -88c0 -101 63 -165 162 -165c84 0 135 32 164 103h349zM759 1632h354l198 -365h-305l-88 197h-20l-154 -197h-313z" />
    <glyph glyph-name="ecircumflexhookabove" unicode="&#x1ec3;" 
d="M795 890c-101 0 -169 -60 -200 -174c-3 -11 -6 -23 -8 -35h355c4 17 7 48 7 71c0 84 -60 138 -154 138zM1214 328c-42 -218 -245 -354 -530 -354c-291 0 -476 168 -476 434c0 60 5 107 17 168l25 124c54 266 272 439 554 439c273 0 474 -167 474 -395
c0 -52 -4 -101 -12 -142l-22 -124h-692c-8 -34 -13 -71 -13 -88c0 -101 63 -165 162 -165c84 0 135 32 164 103h349zM761 1641h354l198 -365h-305l-88 197h-20l-154 -197h-313zM1127 1853l33 154c42 19 85 27 142 27c157 0 256 -81 256 -211c0 -124 -95 -227 -255 -274
l-85 136c86 26 123 60 123 112c0 46 -41 77 -102 77c-42 0 -75 -6 -112 -21z" />
    <glyph glyph-name="ecircumflexgrave" unicode="&#x1ec1;" 
d="M795 890c-101 0 -169 -60 -200 -174c-3 -11 -6 -23 -8 -35h355c4 17 7 48 7 71c0 84 -60 138 -154 138zM1214 328c-42 -218 -245 -354 -530 -354c-291 0 -476 168 -476 434c0 60 5 107 17 168l25 124c54 266 272 439 554 439c273 0 474 -167 474 -395
c0 -52 -4 -101 -12 -142l-22 -124h-692c-8 -34 -13 -71 -13 -88c0 -101 63 -165 162 -165c84 0 135 32 164 103h349zM1509 1641h-258l-177 351h305zM761 1641h354l198 -365h-305l-88 197h-20l-154 -197h-313z" />
    <glyph glyph-name="ecircumflextilde" unicode="&#x1ec5;" 
d="M795 890c-101 0 -169 -60 -200 -174c-3 -11 -6 -23 -8 -35h355c4 17 7 48 7 71c0 84 -60 138 -154 138zM1214 328c-42 -218 -245 -354 -530 -354c-291 0 -476 168 -476 434c0 60 5 107 17 168l25 124c54 266 272 439 554 439c273 0 474 -167 474 -395
c0 -52 -4 -101 -12 -142l-22 -124h-692c-8 -34 -13 -71 -13 -88c0 -101 63 -165 162 -165c84 0 135 32 164 103h349zM842 1835c-34 0 -63 -38 -86 -110h-219c31 176 156 303 300 303c164 0 197 -114 278 -114c34 0 61 34 84 104h219c-28 -166 -159 -297 -299 -297
c-164 0 -196 114 -277 114zM761 1641h354l198 -365h-305l-88 197h-20l-154 -197h-313z" />
    <glyph glyph-name="ecircumflexdotbelow" unicode="&#x1ec7;" 
d="M795 890c-101 0 -169 -60 -200 -174c-3 -11 -6 -23 -8 -35h355c4 17 7 48 7 71c0 84 -60 138 -154 138zM1214 328c-42 -218 -245 -354 -530 -354c-291 0 -476 168 -476 434c0 60 5 107 17 168l25 124c54 266 272 439 554 439c273 0 474 -167 474 -395
c0 -52 -4 -101 -12 -142l-22 -124h-692c-8 -34 -13 -71 -13 -88c0 -101 63 -165 162 -165c84 0 135 32 164 103h349zM759 1632h354l198 -365h-305l-88 197h-20l-154 -197h-313zM574 -491c-101 0 -183 82 -183 183s82 183 183 183s183 -82 183 -183s-82 -183 -183 -183z" />
    <glyph glyph-name="ecircumflexacute" unicode="&#x1ebf;" 
d="M795 890c-101 0 -169 -60 -200 -174c-3 -11 -6 -23 -8 -35h355c4 17 7 48 7 71c0 84 -60 138 -154 138zM1214 328c-42 -218 -245 -354 -530 -354c-291 0 -476 168 -476 434c0 60 5 107 17 168l25 124c54 266 272 439 554 439c273 0 474 -167 474 -395
c0 -52 -4 -101 -12 -142l-22 -124h-692c-8 -34 -13 -71 -13 -88c0 -101 63 -165 162 -165c84 0 135 32 164 103h349zM1168 1641l254 351h313l-301 -351h-266zM761 1641h354l198 -365h-305l-88 197h-20l-154 -197h-313z" />
    <glyph glyph-name="edieresis" unicode="&#xeb;" 
d="M795 890c-101 0 -169 -60 -200 -174c-3 -11 -6 -23 -8 -35h355c4 17 7 48 7 71c0 84 -60 138 -154 138zM1214 328c-42 -218 -245 -354 -530 -354c-291 0 -476 168 -476 434c0 60 5 107 17 168l25 124c54 266 272 439 554 439c273 0 474 -167 474 -395
c0 -52 -4 -101 -12 -142l-22 -124h-692c-8 -34 -13 -71 -13 -88c0 -101 63 -165 162 -165c84 0 135 32 164 103h349zM651 1279c-93 0 -170 76 -170 170s77 170 170 170s170 -76 170 -170s-77 -170 -170 -170zM1157 1279c-93 0 -170 76 -170 170s77 170 170 170
s170 -76 170 -170s-77 -170 -170 -170z" />
    <glyph glyph-name="edotbelow" unicode="&#x1eb9;" 
d="M795 890c-101 0 -169 -60 -200 -174c-3 -11 -6 -23 -8 -35h355c4 17 7 48 7 71c0 84 -60 138 -154 138zM1214 328c-42 -218 -245 -354 -530 -354c-291 0 -476 168 -476 434c0 60 5 107 17 168l25 124c54 266 272 439 554 439c273 0 474 -167 474 -395
c0 -52 -4 -101 -12 -142l-22 -124h-692c-8 -34 -13 -71 -13 -88c0 -101 63 -165 162 -165c84 0 135 32 164 103h349zM574 -491c-101 0 -183 82 -183 183s82 183 183 183s183 -82 183 -183s-82 -183 -183 -183z" />
    <glyph glyph-name="einvertedbreve" unicode="&#x207;" 
d="M795 890c-101 0 -169 -60 -200 -174c-3 -11 -6 -23 -8 -35h355c4 17 7 48 7 71c0 84 -60 138 -154 138zM1214 328c-42 -218 -245 -354 -530 -354c-291 0 -476 168 -476 434c0 60 5 107 17 168l25 124c54 266 272 439 554 439c273 0 474 -167 474 -395
c0 -52 -4 -101 -12 -142l-22 -124h-692c-8 -34 -13 -71 -13 -88c0 -101 63 -165 162 -165c84 0 135 32 164 103h349zM901 1629c250 0 422 -165 384 -369h-241c6 101 -54 163 -158 163c-110 0 -184 -63 -191 -163h-245c12 216 200 369 451 369z" />
    <glyph glyph-name="ehookabove" unicode="&#x1ebb;" 
d="M795 890c-101 0 -169 -60 -200 -174c-3 -11 -6 -23 -8 -35h355c4 17 7 48 7 71c0 84 -60 138 -154 138zM1214 328c-42 -218 -245 -354 -530 -354c-291 0 -476 168 -476 434c0 60 5 107 17 168l25 124c54 266 272 439 554 439c273 0 474 -167 474 -395
c0 -52 -4 -101 -12 -142l-22 -124h-692c-8 -34 -13 -71 -13 -88c0 -101 63 -165 162 -165c84 0 135 32 164 103h349zM713 1528l33 154c42 19 85 27 142 27c157 0 256 -81 256 -211c0 -124 -95 -227 -255 -274l-85 136c86 26 123 60 123 112c0 46 -41 77 -102 77
c-42 0 -75 -6 -112 -21z" />
    <glyph glyph-name="ecaron" unicode="&#x11b;" 
d="M795 890c-101 0 -169 -60 -200 -174c-3 -11 -6 -23 -8 -35h355c4 17 7 48 7 71c0 84 -60 138 -154 138zM1214 328c-42 -218 -245 -354 -530 -354c-291 0 -476 168 -476 434c0 60 5 107 17 168l25 124c54 266 272 439 554 439c273 0 474 -167 474 -395
c0 -52 -4 -101 -12 -142l-22 -124h-692c-8 -34 -13 -71 -13 -88c0 -101 63 -165 162 -165c84 0 135 32 164 103h349zM1053 1296h-354l-198 365h305l88 -197h20l154 197h313z" />
    <glyph glyph-name="emacron" unicode="&#x113;" 
d="M795 890c-101 0 -169 -60 -200 -174c-3 -11 -6 -23 -8 -35h355c4 17 7 48 7 71c0 84 -60 138 -154 138zM1214 328c-42 -218 -245 -354 -530 -354c-291 0 -476 168 -476 434c0 60 5 107 17 168l25 124c54 266 272 439 554 439c273 0 474 -167 474 -395
c0 -52 -4 -101 -12 -142l-22 -124h-692c-8 -34 -13 -71 -13 -88c0 -101 63 -165 162 -165c84 0 135 32 164 103h349zM1267 1346h-764l38 212h764z" />
    <glyph glyph-name="emacrongrave" unicode="&#x1e15;" 
d="M795 890c-101 0 -169 -60 -200 -174c-3 -11 -6 -23 -8 -35h355c4 17 7 48 7 71c0 84 -60 138 -154 138zM1214 328c-42 -218 -245 -354 -530 -354c-291 0 -476 168 -476 434c0 60 5 107 17 168l25 124c54 266 272 439 554 439c273 0 474 -167 474 -395
c0 -52 -4 -101 -12 -142l-22 -124h-692c-8 -34 -13 -71 -13 -88c0 -101 63 -165 162 -165c84 0 135 32 164 103h349zM1089 1669h-282l-208 316h329zM1266 1341h-764l38 212h764z" />
    <glyph glyph-name="emacronacute" unicode="&#x1e17;" 
d="M1267 1336h-764l37 212h764zM1050 1663h-282l271 316h329zM865 328h349c-42 -218 -245 -354 -530 -354c-291 0 -476 168 -476 434c0 60 5 107 17 168l25 124c54 266 272 439 554 439c273 0 474 -167 474 -395c0 -52 -4 -101 -12 -142l-22 -124h-692
c-8 -34 -13 -71 -13 -88c0 -101 63 -165 162 -165c84 0 135 32 164 103zM587 681h355c4 17 7 48 7 71c0 84 -60 138 -154 138c-101 0 -169 -60 -200 -174c-3 -11 -6 -23 -8 -35z" />
    <glyph glyph-name="etilde" unicode="&#x1ebd;" 
d="M795 890c-101 0 -169 -60 -200 -174c-3 -11 -6 -23 -8 -35h355c4 17 7 48 7 71c0 84 -60 138 -154 138zM1214 328c-42 -218 -245 -354 -530 -354c-291 0 -476 168 -476 434c0 60 5 107 17 168l25 124c54 266 272 439 554 439c273 0 474 -167 474 -395
c0 -52 -4 -101 -12 -142l-22 -124h-692c-8 -34 -13 -71 -13 -88c0 -101 63 -165 162 -165c84 0 135 32 164 103h349zM761 1406c-42 0 -75 -46 -92 -130h-219c39 206 156 333 308 333c164 0 203 -145 284 -145c42 0 73 42 90 124h219c-36 -196 -159 -327 -307 -327
c-164 0 -202 145 -283 145z" />
    <glyph glyph-name="ecircumflexbelow" unicode="&#x1e19;" 
d="M795 890c-101 0 -169 -60 -200 -174c-3 -11 -6 -23 -8 -35h355c4 17 7 48 7 71c0 84 -60 138 -154 138zM1214 328c-42 -218 -245 -354 -530 -354c-291 0 -476 168 -476 434c0 60 5 107 17 168l25 124c54 266 272 439 554 439c273 0 474 -167 474 -395
c0 -52 -4 -101 -12 -142l-22 -124h-692c-8 -34 -13 -71 -13 -88c0 -101 63 -165 162 -165c84 0 135 32 164 103h349zM424 -156h354l198 -365h-305l-88 197h-20l-154 -197h-313z" />
    <glyph glyph-name="ebreve" unicode="&#x115;" 
d="M795 890c-101 0 -169 -60 -200 -174c-3 -11 -6 -23 -8 -35h355c4 17 7 48 7 71c0 84 -60 138 -154 138zM1214 328c-42 -218 -245 -354 -530 -354c-291 0 -476 168 -476 434c0 60 5 107 17 168l25 124c54 266 272 439 554 439c273 0 474 -167 474 -395
c0 -52 -4 -101 -12 -142l-22 -124h-692c-8 -34 -13 -71 -13 -88c0 -101 63 -165 162 -165c84 0 135 32 164 103h349zM893 1218c-250 0 -422 165 -384 369h241c-6 -101 54 -163 158 -163c110 0 184 63 191 163h245c-12 -216 -200 -369 -451 -369z" />
    <glyph glyph-name="etildebelow" unicode="&#x1e1b;" 
d="M795 890c-101 0 -169 -60 -200 -174c-3 -11 -6 -23 -8 -35h355c4 17 7 48 7 71c0 84 -60 138 -154 138zM1214 328c-42 -218 -245 -354 -530 -354c-291 0 -476 168 -476 434c0 60 5 107 17 168l25 124c54 266 272 439 554 439c273 0 474 -167 474 -395
c0 -52 -4 -101 -12 -142l-22 -124h-692c-8 -34 -13 -71 -13 -88c0 -101 63 -165 162 -165c84 0 135 32 164 103h349zM435 -327c-42 0 -75 -46 -92 -130h-219c39 206 156 333 308 333c164 0 203 -145 284 -145c42 0 73 42 90 124h219c-36 -196 -159 -327 -307 -327
c-164 0 -202 145 -283 145z" />
    <glyph glyph-name="edotaccent" unicode="&#x117;" 
d="M795 890c-101 0 -169 -60 -200 -174c-3 -11 -6 -23 -8 -35h355c4 17 7 48 7 71c0 84 -60 138 -154 138zM1214 328c-42 -218 -245 -354 -530 -354c-291 0 -476 168 -476 434c0 60 5 107 17 168l25 124c54 266 272 439 554 439c273 0 474 -167 474 -395
c0 -52 -4 -101 -12 -142l-22 -124h-692c-8 -34 -13 -71 -13 -88c0 -101 63 -165 162 -165c84 0 135 32 164 103h349zM905 1272c-101 0 -183 82 -183 183s82 183 183 183s183 -82 183 -183s-82 -183 -183 -183z" />
    <glyph glyph-name="ecedilla" unicode="&#x229;" 
d="M587 681h355c4 17 7 48 7 71c0 84 -60 138 -154 138c-101 0 -169 -60 -200 -174c-3 -11 -6 -23 -8 -35zM225 576l25 124c54 266 272 439 554 439c273 0 474 -167 474 -395c0 -52 -4 -101 -12 -142l-22 -124h-692c-8 -34 -13 -71 -13 -88c0 -101 63 -165 162 -165
c84 0 135 32 164 103h349c-40 -207 -225 -340 -488 -353l-49 -77c94 -18 155 -80 155 -157c0 -157 -104 -235 -315 -235c-43 0 -96 7 -141 18l27 152c17 -8 64 -14 107 -14c69 0 113 21 113 54c0 30 -35 45 -104 45h-60l26 137l57 91c-208 46 -334 199 -334 419
c0 60 5 107 17 168z" />
    <glyph glyph-name="ecedillabreve" unicode="&#x1e1d;" 
d="M1084 1587h245c-12 -216 -200 -369 -451 -369c-250 0 -422 165 -384 369h241c-6 -101 54 -163 158 -163c110 0 184 63 191 163zM587 681h355c4 17 7 48 7 71c0 84 -60 138 -154 138c-101 0 -169 -60 -200 -174c-3 -11 -6 -23 -8 -35zM225 576l25 124
c54 266 272 439 554 439c273 0 474 -167 474 -395c0 -52 -4 -101 -12 -142l-22 -124h-692c-8 -34 -13 -71 -13 -88c0 -101 63 -165 162 -165c84 0 135 32 164 103h349c-40 -207 -225 -340 -488 -353l-49 -77c94 -18 155 -80 155 -157c0 -157 -104 -235 -315 -235
c-43 0 -96 7 -141 18l27 152c17 -8 64 -14 107 -14c69 0 113 21 113 54c0 30 -35 45 -104 45h-60l26 137l57 91c-208 46 -334 199 -334 419c0 60 5 107 17 168z" />
    <glyph glyph-name="eogonek" unicode="&#x119;" 
d="M587 681h355c4 17 7 48 7 71c0 84 -60 138 -154 138c-95 0 -161 -53 -194 -154c-6 -17 -10 -35 -14 -55zM999 -267l-32 -179c-38 -15 -94 -23 -160 -23c-178 0 -302 88 -302 214c0 89 51 157 165 219l4 20c-282 -10 -466 158 -466 424c0 58 5 105 17 168l25 124
c54 266 272 439 554 439c273 0 474 -167 474 -395c0 -54 -4 -103 -12 -142l-22 -124h-692c-8 -33 -13 -70 -13 -88c0 -101 63 -165 162 -165c84 0 135 32 164 103h349c-24 -123 -111 -218 -239 -296c-141 -86 -196 -135 -196 -212c0 -59 53 -95 137 -95c29 0 76 5 83 8z" />
    <glyph glyph-name="f" unicode="f" 
d="M422 0l147 835h-296l47 263h296l10 60c48 273 172 364 494 364h333l-42 -238h-321c-65 0 -104 -34 -115 -99l-15 -87h419l-47 -263h-410l-147 -835h-353z" />
    <glyph glyph-name="fdotaccent" unicode="&#x1e1f;" 
d="M422 0l147 835h-296l47 263h296l10 60c48 273 172 364 494 364h333l-42 -238h-321c-65 0 -104 -34 -115 -99l-15 -87h419l-47 -263h-410l-147 -835h-353zM388 1272c-101 0 -183 82 -183 183s82 183 183 183s183 -82 183 -183s-82 -183 -183 -183z" />
    <glyph glyph-name="g" unicode="g" 
d="M1360 1113l-196 -1111c-47 -266 -268 -421 -598 -421c-296 0 -499 124 -499 305c0 24 0 24 1 28h344c11 -57 82 -94 183 -94c120 0 198 65 218 180l41 234h-22c-45 -129 -184 -221 -334 -221c-207 0 -344 140 -344 352c0 46 3 82 10 131l25 163c45 297 210 473 442 473
c154 0 268 -78 320 -218h24l35 199h350zM882 486l25 144c5 37 6 55 6 76c0 86 -69 150 -162 150c-99 0 -173 -71 -193 -186l-25 -144c-5 -37 -6 -55 -6 -76c0 -86 69 -150 161 -150c99 0 174 72 194 186z" />
    <glyph glyph-name="gacute" unicode="&#x1f5;" 
d="M882 486l25 144c5 37 6 55 6 76c0 86 -69 150 -162 150c-99 0 -173 -71 -193 -186l-25 -144c-5 -37 -6 -55 -6 -76c0 -86 69 -150 161 -150c99 0 174 72 194 186zM1360 1113l-196 -1111c-47 -266 -268 -421 -598 -421c-296 0 -499 124 -499 305c0 24 0 24 1 28h344
c11 -57 82 -94 183 -94c120 0 198 65 218 180l41 234h-22c-45 -129 -184 -221 -334 -221c-207 0 -344 140 -344 352c0 46 3 82 10 131l25 163c45 297 210 473 442 473c154 0 268 -78 320 -218h24l35 199h350zM970 1296h-328l307 362h376z" />
    <glyph glyph-name="gcaron" unicode="&#x1e7;" 
d="M1018 1296h-354l-198 365h305l88 -197h20l154 197h313zM1360 1113l-196 -1111c-47 -266 -268 -421 -598 -421c-296 0 -499 124 -499 305c0 24 0 24 1 28h344c11 -57 82 -94 183 -94c120 0 198 65 218 180l41 234h-22c-45 -129 -184 -221 -334 -221
c-207 0 -344 140 -344 352c0 46 3 82 10 131l25 163c45 297 210 473 442 473c154 0 268 -78 320 -218h24l35 199h350zM882 486l25 144c5 37 6 55 6 76c0 86 -69 150 -162 150c-99 0 -173 -71 -193 -186l-25 -144c-5 -37 -6 -55 -6 -76c0 -86 69 -150 161 -150
c99 0 174 72 194 186z" />
    <glyph glyph-name="gcircumflex" unicode="&#x11d;" 
d="M724 1632h354l198 -365h-305l-88 197h-20l-154 -197h-313zM1360 1113l-196 -1111c-47 -266 -268 -421 -598 -421c-296 0 -499 124 -499 305c0 24 0 24 1 28h344c11 -57 82 -94 183 -94c120 0 198 65 218 180l41 234h-22c-45 -129 -184 -221 -334 -221
c-207 0 -344 140 -344 352c0 46 3 82 10 131l25 163c45 297 210 473 442 473c154 0 268 -78 320 -218h24l35 199h350zM882 486l25 144c5 37 6 55 6 76c0 86 -69 150 -162 150c-99 0 -173 -71 -193 -186l-25 -144c-5 -37 -6 -55 -6 -76c0 -86 69 -150 161 -150
c99 0 174 72 194 186z" />
    <glyph glyph-name="gbreve" unicode="&#x11f;" 
d="M1064 1587h245c-12 -216 -200 -369 -451 -369c-250 0 -422 165 -384 369h241c-6 -101 54 -163 158 -163c110 0 184 63 191 163zM1360 1113l-196 -1111c-47 -266 -268 -421 -598 -421c-296 0 -499 124 -499 305c0 24 0 24 1 28h344c11 -57 82 -94 183 -94
c120 0 198 65 218 180l41 234h-22c-45 -129 -184 -221 -334 -221c-207 0 -344 140 -344 352c0 46 3 82 10 131l25 163c45 297 210 473 442 473c154 0 268 -78 320 -218h24l35 199h350zM882 486l25 144c5 37 6 55 6 76c0 86 -69 150 -162 150c-99 0 -173 -71 -193 -186
l-25 -144c-5 -37 -6 -55 -6 -76c0 -86 69 -150 161 -150c99 0 174 72 194 186z" />
    <glyph glyph-name="gmacron" unicode="&#x1e21;" 
d="M1232 1346h-764l38 212h764zM1360 1113l-196 -1111c-47 -266 -268 -421 -598 -421c-296 0 -499 124 -499 305c0 24 0 24 1 28h344c11 -57 82 -94 183 -94c120 0 198 65 218 180l41 234h-22c-45 -129 -184 -221 -334 -221c-207 0 -344 140 -344 352c0 46 3 82 10 131
l25 163c45 297 210 473 442 473c154 0 268 -78 320 -218h24l35 199h350zM882 486l25 144c5 37 6 55 6 76c0 86 -69 150 -162 150c-99 0 -173 -71 -193 -186l-25 -144c-5 -37 -6 -55 -6 -76c0 -86 69 -150 161 -150c99 0 174 72 194 186z" />
    <glyph glyph-name="gdotaccent" unicode="&#x121;" 
d="M870 1272c-101 0 -183 82 -183 183s82 183 183 183s183 -82 183 -183s-82 -183 -183 -183zM1360 1113l-196 -1111c-47 -266 -268 -421 -598 -421c-296 0 -499 124 -499 305c0 24 0 24 1 28h344c11 -57 82 -94 183 -94c120 0 198 65 218 180l41 234h-22
c-45 -129 -184 -221 -334 -221c-207 0 -344 140 -344 352c0 46 3 82 10 131l25 163c45 297 210 473 442 473c154 0 268 -78 320 -218h24l35 199h350zM882 486l25 144c5 37 6 55 6 76c0 86 -69 150 -162 150c-99 0 -173 -71 -193 -186l-25 -144c-5 -37 -6 -55 -6 -76
c0 -86 69 -150 161 -150c99 0 174 72 194 186z" />
    <glyph glyph-name="gcommaaccent" unicode="&#x123;" 
d="M983 1292h-306l210 350h350zM1360 1113l-196 -1111c-47 -266 -268 -421 -598 -421c-296 0 -499 124 -499 305c0 24 0 24 1 28h344c11 -57 82 -94 183 -94c120 0 198 65 218 180l41 234h-22c-45 -129 -184 -221 -334 -221c-207 0 -344 140 -344 352c0 46 3 82 10 131
l25 163c45 297 210 473 442 473c154 0 268 -78 320 -218h24l35 199h350zM882 486l25 144c5 37 6 55 6 76c0 86 -69 150 -162 150c-99 0 -173 -71 -193 -186l-25 -144c-5 -37 -6 -55 -6 -76c0 -86 69 -150 161 -150c99 0 174 72 194 186z" />
    <glyph glyph-name="h" unicode="h" 
d="M99 0l270 1530h346l-108 -598h19c66 122 190 202 330 202c208 0 343 -130 343 -334c0 -36 -4 -76 -11 -118l-120 -682h-353l111 629c4 24 7 45 7 69c0 80 -69 148 -161 148c-99 0 -182 -61 -205 -194l-115 -652h-353z" />
    <glyph glyph-name="hdieresis" unicode="&#x1e27;" 
d="M99 0l270 1530h346l-108 -598h19c66 122 190 202 330 202c208 0 343 -130 343 -334c0 -36 -4 -76 -11 -118l-120 -682h-353l111 629c4 24 7 45 7 69c0 80 -69 148 -161 148c-99 0 -182 -61 -205 -194l-115 -652h-353zM341 1687c-93 0 -170 76 -170 170s77 170 170 170
s170 -76 170 -170s-77 -170 -170 -170zM847 1687c-93 0 -170 76 -170 170s77 170 170 170s170 -76 170 -170s-77 -170 -170 -170z" />
    <glyph glyph-name="hcaron" unicode="&#x21f;" 
d="M99 0l270 1530h346l-108 -598h19c66 122 190 202 330 202c208 0 343 -130 343 -334c0 -36 -4 -76 -11 -118l-120 -682h-353l111 629c4 24 7 45 7 69c0 80 -69 148 -161 148c-99 0 -182 -61 -205 -194l-115 -652h-353zM399 1672l-213 350h289l98 -190h20l166 190h307
l-337 -350h-330z" />
    <glyph glyph-name="hcircumflex" unicode="&#x125;" 
d="M99 0l270 1530h346l-108 -598h19c66 122 190 202 330 202c208 0 343 -130 343 -334c0 -36 -4 -76 -11 -118l-120 -682h-353l111 629c4 24 7 45 7 69c0 80 -69 148 -161 148c-99 0 -182 -61 -205 -194l-115 -652h-353zM817 2032l213 -350h-289l-98 190h-20l-166 -190h-307
l337 350h330z" />
    <glyph glyph-name="hdotbelow" unicode="&#x1e25;" 
d="M99 0l270 1530h346l-108 -598h19c66 122 190 202 330 202c208 0 343 -130 343 -334c0 -36 -4 -76 -11 -118l-120 -682h-353l111 629c4 24 7 45 7 69c0 80 -69 148 -161 148c-99 0 -182 -61 -205 -194l-115 -652h-353zM580 -491c-101 0 -183 82 -183 183s82 183 183 183
s183 -82 183 -183s-82 -183 -183 -183z" />
    <glyph glyph-name="hdotaccent" unicode="&#x1e23;" 
d="M99 0l270 1530h346l-108 -598h19c66 122 190 202 330 202c208 0 343 -130 343 -334c0 -36 -4 -76 -11 -118l-120 -682h-353l111 629c4 24 7 45 7 69c0 80 -69 148 -161 148c-99 0 -182 -61 -205 -194l-115 -652h-353zM1085 1272c-101 0 -183 82 -183 183s82 183 183 183
s183 -82 183 -183s-82 -183 -183 -183z" />
    <glyph glyph-name="hbrevebelow" unicode="&#x1e2b;" 
d="M99 0l270 1530h346l-108 -598h19c66 122 190 202 330 202c208 0 343 -130 343 -334c0 -36 -4 -76 -11 -118l-120 -682h-353l111 629c4 24 7 45 7 69c0 80 -69 148 -161 148c-99 0 -182 -61 -205 -194l-115 -652h-353zM583 -465c-250 0 -422 165 -384 369h241
c-6 -101 54 -163 158 -163c110 0 184 63 191 163h245c-12 -216 -200 -369 -451 -369z" />
    <glyph glyph-name="hcedilla" unicode="&#x1e29;" 
d="M258 0h-159l270 1530h346l-108 -598h19c68 125 193 202 330 202c209 0 343 -131 343 -334c0 -35 -4 -74 -11 -118l-120 -682h-353l111 629c5 31 7 49 7 69c0 82 -71 148 -161 148c-108 0 -184 -71 -205 -194l-115 -652l-65 -102c93 -18 154 -80 154 -157
c0 -147 -117 -235 -315 -235c-42 0 -95 7 -141 18l27 152c17 -8 63 -14 107 -14c78 0 113 17 113 54c0 30 -35 45 -104 45h-60l26 137z" />
    <glyph glyph-name="hbar" unicode="&#x127;" 
d="M607 932h19c66 122 190 202 330 202c208 0 343 -130 343 -334c0 -36 -4 -76 -11 -118l-120 -682h-353l111 629c4 24 7 45 7 69c0 80 -69 148 -161 148c-99 0 -182 -61 -205 -194l-115 -652h-353l220 1246h-99l29 164h99l21 120h346l-22 -120h264l-29 -164h-264z" />
    <glyph glyph-name="hlinebelow" unicode="&#x1e96;" 
d="M99 0l270 1530h346l-108 -598h19c66 122 190 202 330 202c208 0 343 -130 343 -334c0 -36 -4 -76 -11 -118l-120 -682h-353l111 629c4 24 7 45 7 69c0 80 -69 148 -161 148c-99 0 -182 -61 -205 -194l-115 -652h-353zM940 -428h-764l38 212h764z" />
    <glyph glyph-name="i" unicode="i" 
d="M906 1314c-137 0 -223 74 -223 193s86 193 223 193s223 -74 223 -193s-86 -193 -223 -193zM1130 0h-994l47 264h340l103 585h-311l46 264h652l-149 -849h313z" />
    <glyph glyph-name="idotaccent" 
d="M1130 0h-994l47 264h340l103 585h-311l46 264h652l-149 -849h313zM909 1272c-101 0 -183 82 -183 183s82 183 183 183s183 -82 183 -183s-82 -183 -183 -183z" />
    <glyph glyph-name="igrave" unicode="&#xec;" 
d="M1130 0h-994l47 264h340l103 585h-311l46 264h652l-149 -849h313zM1084 1296h-319l-228 362h369z" />
    <glyph glyph-name="idblgrave" unicode="&#x209;" 
d="M1088 1659l110 -363h-256l-141 363h287zM635 1659l111 -363h-257l-141 363h287zM1130 0h-994l47 264h340l103 585h-311l46 264h652l-149 -849h313z" />
    <glyph glyph-name="iacute" unicode="&#xed;" 
d="M1009 1296h-328l307 362h376zM1130 0h-994l47 264h340l103 585h-311l46 264h652l-149 -849h313z" />
    <glyph glyph-name="icircumflex" unicode="&#xee;" 
d="M1130 0h-994l47 264h340l103 585h-311l46 264h652l-149 -849h313zM763 1632h354l198 -365h-305l-88 197h-20l-154 -197h-313z" />
    <glyph glyph-name="icaron" unicode="&#x1d0;" 
d="M1130 0h-994l47 264h340l103 585h-311l46 264h652l-149 -849h313zM1057 1296h-354l-198 365h305l88 -197h20l154 197h313z" />
    <glyph glyph-name="idieresis" unicode="&#xef;" 
d="M1130 0h-994l47 264h340l103 585h-311l46 264h652l-149 -849h313zM655 1279c-93 0 -170 76 -170 170s77 170 170 170s170 -76 170 -170s-77 -170 -170 -170zM1161 1279c-93 0 -170 76 -170 170s77 170 170 170s170 -76 170 -170s-77 -170 -170 -170z" />
    <glyph glyph-name="idieresisacute" unicode="&#x1e2f;" 
d="M1130 0h-994l47 264h340l103 585h-311l46 264h652l-149 -849h313zM764 1641l286 351h324l-333 -351h-277zM648 1247c-93 0 -170 76 -170 170s77 170 170 170s170 -76 170 -170s-77 -170 -170 -170zM1154 1247c-93 0 -170 76 -170 170s77 170 170 170s170 -76 170 -170
s-77 -170 -170 -170z" />
    <glyph glyph-name="ibreve" unicode="&#x12d;" 
d="M1130 0h-994l47 264h340l103 585h-311l46 264h652l-149 -849h313zM897 1218c-250 0 -422 165 -384 369h241c-6 -101 54 -163 158 -163c110 0 184 63 191 163h245c-12 -216 -200 -369 -451 -369z" />
    <glyph glyph-name="idotbelow" unicode="&#x1ecb;" 
d="M906 1314c-137 0 -223 74 -223 193s86 193 223 193s223 -74 223 -193s-86 -193 -223 -193zM1130 0h-994l47 264h340l103 585h-311l46 264h652l-149 -849h313zM579 -491c-101 0 -183 82 -183 183s82 183 183 183s183 -82 183 -183s-82 -183 -183 -183z" />
    <glyph glyph-name="iinvertedbreve" unicode="&#x20b;" 
d="M1130 0h-994l47 264h340l103 585h-311l46 264h652l-149 -849h313zM905 1629c250 0 422 -165 384 -369h-241c6 101 -54 163 -158 163c-110 0 -184 -63 -191 -163h-245c12 216 200 369 451 369z" />
    <glyph glyph-name="imacron" unicode="&#x12b;" 
d="M1130 0h-994l47 264h340l103 585h-311l46 264h652l-149 -849h313zM1271 1346h-764l38 212h764z" />
    <glyph glyph-name="itildebelow" unicode="&#x1e2d;" 
d="M906 1314c-137 0 -223 74 -223 193s86 193 223 193s223 -74 223 -193s-86 -193 -223 -193zM1130 0h-994l47 264h340l103 585h-311l46 264h652l-149 -849h313zM440 -327c-42 0 -75 -46 -92 -130h-219c39 206 156 333 308 333c164 0 203 -145 284 -145c42 0 73 42 90 124
h219c-36 -196 -159 -327 -307 -327c-164 0 -202 145 -283 145z" />
    <glyph glyph-name="ihookabove" unicode="&#x1ec9;" 
d="M1130 0h-994l47 264h340l103 585h-311l46 264h652l-149 -849h313zM717 1528l33 154c42 19 85 27 142 27c157 0 256 -81 256 -211c0 -124 -95 -227 -255 -274l-85 136c86 26 123 60 123 112c0 46 -41 77 -102 77c-42 0 -75 -6 -112 -21z" />
    <glyph glyph-name="itilde" unicode="&#x129;" 
d="M1130 0h-994l47 264h340l103 585h-311l46 264h652l-149 -849h313zM765 1406c-42 0 -75 -46 -92 -130h-219c39 206 156 333 308 333c164 0 203 -145 284 -145c42 0 73 42 90 124h219c-36 -196 -159 -327 -307 -327c-164 0 -202 145 -283 145z" />
    <glyph glyph-name="iogonek" unicode="&#x12f;" 
d="M906 1314c-137 0 -223 74 -223 193s86 193 223 193s223 -74 223 -193s-86 -193 -223 -193zM833 -2v2h-697l47 264h340l103 585h-311l46 264h652l-149 -849h313l-47 -264l-37 -9c-135 -33 -208 -98 -208 -187c0 -54 42 -89 107 -89c29 0 68 4 83 8l-33 -179
c-39 -16 -86 -23 -149 -23c-167 0 -282 87 -282 214c0 107 74 194 222 263z" />
    <glyph glyph-name="j" unicode="j" 
d="M1007 1314c-137 0 -223 74 -223 193s86 193 223 193s223 -74 223 -193s-86 -193 -223 -193zM1125 1113l-186 -1046c-58 -328 -190 -445 -532 -445h-309l52 294h295c91 0 135 46 151 136l141 797h-423l48 264h763z" />
    <glyph glyph-name="jcircumflex" unicode="&#x135;" 
d="M1125 1113l-186 -1046c-58 -328 -190 -445 -532 -445h-309l52 294h295c91 0 135 46 151 136l141 797h-423l48 264h763zM869 1632h354l198 -365h-305l-88 197h-20l-154 -197h-313z" />
    <glyph glyph-name="k" unicode="k" 
d="M558 332l-57 -332h-353l270 1530h353l-147 -833h19l387 416h426l-499 -498l302 -615h-389l-208 441z" />
    <glyph glyph-name="kacute" unicode="&#x1e31;" 
d="M558 332l-57 -332h-353l270 1530h353l-147 -833h19l387 416h426l-499 -498l302 -615h-389l-208 441zM463 1683l315 326h362l-361 -326h-316z" />
    <glyph glyph-name="kcaron" unicode="&#x1e9;" 
d="M558 332l-57 -332h-353l270 1530h353l-147 -833h19l387 416h426l-499 -498l302 -615h-389l-208 441zM451 1672l-213 350h289l98 -190h20l166 190h307l-337 -350h-330z" />
    </font>
</defs>
</svg>
