<?xml version="1.0" standalone="no"?>
<!DOCTYPE svg PUBLIC "-//W3C//DTD SVG 1.1//EN" "http://www.w3.org/Graphics/SVG/1.1/DTD/svg11.dtd" >
<svg xmlns="http://www.w3.org/2000/svg" xmlns:xlink="http://www.w3.org/1999/xlink" version="1.1">
<metadata>
Created by FontForge 20170812 at Fri May  5 01:29:54 2017
 By www-data

</metadata>
<defs>
<font id="SFMono-Semibold" horiz-adv-x="1266" >
  <font-face 
    font-family="SFMono"
    font-weight="600"
    font-stretch="normal"
    units-per-em="2048"
    panose-1="2 11 0 9 0 0 2 0 0 0"
    ascent="1638"
    descent="-410"
    x-height="1095"
    cap-height="1443"
    bbox="-184 -840 1450 2318"
    underline-thickness="100"
    underline-position="-200"
    stemh="149"
    stemv="189"
    unicode-range="U+0020-FB02"
  />
<missing-glyph 
 />
    <glyph glyph-name=".notdef" 
 />
    <glyph glyph-name="glyph1" 
 />
    <glyph glyph-name="nonmarkingreturn" horiz-adv-x="0" 
 />
    <glyph glyph-name="space" unicode=" " 
 />
    <glyph glyph-name="A" unicode="A" 
d="M449 571h352l-170 619h-10zM958 0l-104 379h-458l-105 -379h-242l445 1443h278l445 -1443h-259z" />
    <glyph glyph-name="Agrave" unicode="&#xc0;" 
d="M763 1606h-230l-316 312h260zM449 571h352l-170 619h-10zM958 0l-104 379h-458l-105 -379h-242l445 1443h278l445 -1443h-259z" />
    <glyph glyph-name="Aacute" unicode="&#xc1;" 
d="M1048 1918l-316 -312h-230l286 312h260zM449 571h352l-170 619h-10zM958 0l-104 379h-458l-105 -379h-242l445 1443h278l445 -1443h-259z" />
    <glyph glyph-name="Adieresis" unicode="&#xc4;" 
d="M852 1633c-73 0 -135 63 -135 138c0 76 62 139 135 139s136 -63 136 -139c0 -75 -63 -138 -136 -138zM414 1633c-73 0 -136 63 -136 138c0 76 63 139 136 139s135 -63 135 -139c0 -75 -62 -138 -135 -138zM449 571h352l-170 619h-10zM958 0l-104 379h-458l-105 -379h-242
l445 1443h278l445 -1443h-259z" />
    <glyph glyph-name="Adieresismacron" unicode="&#x1de;" 
d="M986 2101v-148h-704v148h704zM721 1696c0 73 57 132 128 132s128 -59 128 -132s-57 -132 -128 -132s-128 59 -128 132zM292 1696c0 73 57 132 128 132s128 -59 128 -132s-57 -132 -128 -132s-128 59 -128 132zM449 571h352l-170 619h-10zM958 0l-104 379h-458l-105 -379
h-242l445 1443h278l445 -1443h-259z" />
    <glyph glyph-name="Aring" unicode="&#xc5;" 
d="M633 1845c-56 0 -98 -41 -98 -97c0 -55 42 -96 98 -96c57 0 98 41 98 96c0 56 -42 97 -98 97zM633 1553c-112 0 -198 85 -198 196s85 195 198 195s198 -84 198 -195s-85 -196 -198 -196zM449 571h352l-170 619h-10zM958 0l-104 379h-458l-105 -379h-242l445 1443h278
l445 -1443h-259z" />
    <glyph glyph-name="Aringacute" unicode="&#x1fa;" 
d="M864 2184l-131 -182h-195l107 182h219zM633 1839c-56 0 -98 -41 -98 -97s42 -97 98 -97c57 0 98 41 98 97s-42 97 -98 97zM633 1547c-112 0 -198 84 -198 196c0 110 85 194 198 194s198 -84 198 -194c0 -112 -85 -196 -198 -196zM449 571h352l-170 619h-10zM958 0
l-104 379h-458l-105 -379h-242l445 1443h278l445 -1443h-259z" />
    <glyph glyph-name="Atilde" unicode="&#xc3;" 
d="M863 1890h152c0 -178 -94 -286 -228 -286c-159 0 -191 146 -291 146c-55 0 -89 -43 -92 -136h-153c0 181 93 288 228 288c164 0 201 -146 291 -146c54 0 89 42 93 134zM449 571h352l-170 619h-10zM958 0l-104 379h-458l-105 -379h-242l445 1443h278l445 -1443h-259z" />
    <glyph glyph-name="Abrevegrave" unicode="&#x1eb0;" 
d="M753 1892h-187l-199 238h221zM831 1882h172c0 -181 -141 -303 -370 -303s-370 122 -370 303h172c1 -97 76 -158 198 -158s197 61 198 158zM449 571h352l-170 619h-10zM958 0l-104 379h-458l-105 -379h-242l445 1443h278l445 -1443h-259z" />
    <glyph glyph-name="Adotmacron" unicode="&#x1e0;" 
d="M986 2101v-148h-704v148h704zM500 1706c0 77 60 138 134 138s134 -61 134 -138c0 -76 -60 -137 -134 -137s-134 61 -134 137zM449 571h352l-170 619h-10zM958 0l-104 379h-458l-105 -379h-242l445 1443h278l445 -1443h-259z" />
    <glyph glyph-name="Aringbelow" unicode="&#x1e00;" 
d="M633 -457c61 0 108 48 108 110s-47 110 -108 110s-108 -48 -108 -110s47 -110 108 -110zM633 -110c128 0 233 -106 233 -237s-105 -237 -233 -237s-233 106 -233 237s105 237 233 237zM449 571h352l-170 619h-10zM772 1443l445 -1443h-259l-104 379h-458l-105 -379h-242
l445 1443h278z" />
    <glyph glyph-name="Acircumflex" unicode="&#xc2;" 
d="M625 1802l-163 -196h-221l283 324h218l283 -324h-221l-163 196h-16zM449 571h352l-170 619h-10zM958 0l-104 379h-458l-105 -379h-242l445 1443h278l445 -1443h-259z" />
    <glyph glyph-name="Acircumflexdotbelow" unicode="&#x1eac;" 
d="M625 1802l-163 -196h-221l283 324h218l283 -324h-221l-163 196h-16zM633 -169c79 0 146 -67 146 -148c0 -82 -67 -149 -146 -149s-146 67 -146 149c0 81 67 148 146 148zM449 571h352l-170 619h-10zM1217 0h-259l-104 379h-458l-105 -379h-242l445 1443h278z" />
    <glyph glyph-name="Acircumflexacute" unicode="&#x1ea4;" 
d="M1279 2130l-220 -267h-205l196 267h229zM625 1725l-157 -146h-230l278 250h234l278 -250h-230l-157 146h-16zM449 571h352l-170 619h-10zM494 1443h278l445 -1443h-259l-104 379h-458l-105 -379h-242z" />
    <glyph glyph-name="Acircumflextilde" unicode="&#x1eaa;" 
d="M856 2143h145c0 -162 -92 -261 -223 -261c-163 0 -179 129 -278 129c-54 0 -86 -39 -89 -113h-146c0 161 91 258 223 258c163 0 179 -128 278 -128c52 0 86 37 90 115zM625 1725l-157 -146h-230l278 250h234l278 -250h-230l-157 146h-16zM449 571h352l-170 619h-10z
M958 0l-104 379h-458l-105 -379h-242l445 1443h278l445 -1443h-259z" />
    <glyph glyph-name="Acircumflexgrave" unicode="&#x1ea6;" 
d="M1118 1863h-205l-221 267h230zM625 1725l-157 -146h-230l278 250h234l278 -250h-230l-157 146h-16zM449 571h352l-170 619h-10zM958 0l-104 379h-458l-105 -379h-242l445 1443h278l445 -1443h-259z" />
    <glyph glyph-name="Acircumflexhookabove" unicode="&#x1ea8;" 
d="M961 1769l-91 87c57 22 86 60 86 100c0 44 -37 73 -93 73c-34 0 -72 -7 -94 -17v124c28 12 80 20 130 20c128 0 211 -72 211 -180c0 -94 -54 -169 -149 -207zM625 1725l-157 -146h-230l278 250h234l278 -250h-230l-157 146h-16zM449 571h352l-170 619h-10zM958 0
l-104 379h-458l-105 -379h-242l445 1443h278l445 -1443h-259z" />
    <glyph glyph-name="Abreve" unicode="&#x102;" 
d="M831 1923h172c0 -191 -147 -324 -370 -324s-370 133 -370 324h172c1 -107 81 -180 198 -180s197 73 198 180zM449 571h352l-170 619h-10zM958 0l-104 379h-458l-105 -379h-242l445 1443h278l445 -1443h-259z" />
    <glyph glyph-name="Abreveacute" unicode="&#x1eae;" 
d="M899 2130l-199 -238h-187l165 238h221zM831 1882h172c0 -181 -141 -303 -370 -303s-370 122 -370 303h172c1 -97 76 -158 198 -158s197 61 198 158zM449 571h352l-170 619h-10zM958 0l-104 379h-458l-105 -379h-242l445 1443h278l445 -1443h-259z" />
    <glyph glyph-name="Abrevetilde" unicode="&#x1eb4;" 
d="M847 2126h146c0 -144 -90 -235 -213 -235c-148 0 -185 118 -275 118c-51 0 -84 -35 -86 -94h-146c0 143 89 233 213 233c148 0 185 -118 275 -118c49 0 84 34 86 96zM275 1837h164c2 -64 83 -120 194 -120s192 56 194 120h164c0 -142 -146 -258 -358 -258
s-358 116 -358 258zM449 571h352l-170 619h-10zM958 0l-104 379h-458l-105 -379h-242l445 1443h278l445 -1443h-259z" />
    <glyph glyph-name="Abrevehookabove" unicode="&#x1eb2;" 
d="M641 1787l-86 86c56 22 86 59 86 99c0 43 -37 71 -94 71c-33 0 -71 -7 -94 -17v119c29 11 79 20 129 20c127 0 211 -69 211 -176c0 -90 -55 -164 -152 -202zM838 1860h157c0 -177 -138 -292 -362 -292s-362 115 -362 292h157c4 -95 79 -152 205 -152s201 57 205 152z
M449 571h352l-170 619h-10zM958 0l-104 379h-458l-105 -379h-242l445 1443h278l445 -1443h-259z" />
    <glyph glyph-name="Abrevedotbelow" unicode="&#x1eb6;" 
d="M831 1923h172c0 -191 -147 -324 -370 -324s-370 133 -370 324h172c1 -107 81 -180 198 -180s197 73 198 180zM633 -169c79 0 146 -67 146 -148c0 -82 -67 -149 -146 -149s-146 67 -146 149c0 81 67 148 146 148zM449 571h352l-170 619h-10zM1217 0h-259l-104 379h-458
l-105 -379h-242l445 1443h278z" />
    <glyph glyph-name="Ainvertedbreve" unicode="&#x202;" 
d="M1003 1599h-172c-1 107 -81 179 -198 179s-197 -72 -198 -179h-172c0 191 147 324 370 324s370 -133 370 -324zM449 571h352l-170 619h-10zM958 0l-104 379h-458l-105 -379h-242l445 1443h278l445 -1443h-259z" />
    <glyph glyph-name="Acaron" unicode="&#x1cd;" 
d="M742 1601h-218l-283 324h221l163 -196h16l163 196h221zM449 571h352l-170 619h-10zM958 0l-104 379h-458l-105 -379h-242l445 1443h278l445 -1443h-259z" />
    <glyph glyph-name="Adotaccent" unicode="&#x226;" 
d="M633 1615c-79 0 -146 67 -146 148c0 82 67 149 146 149s146 -67 146 -149c0 -81 -67 -148 -146 -148zM449 571h352l-170 619h-10zM958 0l-104 379h-458l-105 -379h-242l445 1443h278l445 -1443h-259z" />
    <glyph glyph-name="Adotbelow" unicode="&#x1ea0;" 
d="M633 -169c79 0 146 -67 146 -148c0 -82 -67 -149 -146 -149s-146 67 -146 149c0 81 67 148 146 148zM449 571h352l-170 619h-10zM1217 0h-259l-104 379h-458l-105 -379h-242l445 1443h278z" />
    <glyph glyph-name="Ahookabove" unicode="&#x1ea2;" 
d="M636 1565l-79 99c61 22 103 63 103 106c0 46 -41 77 -107 77c-43 0 -85 -9 -110 -21v133c32 13 88 25 145 25c134 0 227 -75 227 -193c0 -99 -68 -183 -179 -226zM449 571h352l-170 619h-10zM958 0l-104 379h-458l-105 -379h-242l445 1443h278l445 -1443h-259z" />
    <glyph glyph-name="Adblgrave" unicode="&#x200;" 
d="M957 1606h-207l-290 312h228zM554 1606h-206l-291 312h228zM449 571h352l-170 619h-10zM958 0l-104 379h-458l-105 -379h-242l445 1443h278l445 -1443h-259z" />
    <glyph glyph-name="Amacron" unicode="&#x100;" 
d="M981 1838v-166h-696v166h696zM449 571h352l-170 619h-10zM958 0l-104 379h-458l-105 -379h-242l445 1443h278l445 -1443h-259z" />
    <glyph glyph-name="Aogonek" unicode="&#x104;" 
d="M449 571h352l-170 619h-10zM1217 0l-9 -3c-143 -42 -210 -100 -210 -185c0 -65 52 -107 133 -107c29 0 64 4 78 8v-142c-28 -11 -81 -19 -132 -19c-160 0 -269 91 -269 225c0 96 44 164 148 231l-102 371h-458l-105 -379h-242l445 1443h278z" />
    <glyph glyph-name="B" unicode="B" 
d="M677 0h-516v1443h506c273 0 437 -134 437 -358c0 -157 -107 -288 -255 -312v-16c192 -16 325 -160 325 -349c0 -253 -187 -408 -497 -408zM399 1252v-415h188c176 0 274 74 274 205c0 135 -92 210 -256 210h-206zM399 194h210c210 0 314 76 314 233
c0 151 -107 228 -318 228h-206v-461z" />
    <glyph glyph-name="Blinebelow" unicode="&#x1e06;" 
d="M677 0h-516v1443h506c273 0 437 -134 437 -358c0 -157 -107 -288 -255 -312v-16c192 -16 325 -160 325 -349c0 -253 -187 -408 -497 -408zM399 1252v-415h188c176 0 274 74 274 205c0 135 -92 210 -256 210h-206zM399 194h210c210 0 314 76 314 233
c0 151 -107 228 -318 228h-206v-461zM931 -407h-696v166h696v-166z" />
    <glyph glyph-name="Bdotbelow" unicode="&#x1e04;" 
d="M677 0h-516v1443h506c273 0 437 -134 437 -358c0 -157 -107 -288 -255 -312v-16c192 -16 325 -160 325 -349c0 -253 -187 -408 -497 -408zM399 1252v-415h188c176 0 274 74 274 205c0 135 -92 210 -256 210h-206zM399 194h210c210 0 314 76 314 233
c0 151 -107 228 -318 228h-206v-461zM583 -466c-79 0 -145 67 -145 149c0 81 66 148 145 148s146 -67 146 -148c0 -82 -67 -149 -146 -149z" />
    <glyph glyph-name="Bdotaccent" unicode="&#x1e02;" 
d="M677 0h-516v1443h506c273 0 437 -134 437 -358c0 -157 -107 -288 -255 -312v-16c192 -16 325 -160 325 -349c0 -253 -187 -408 -497 -408zM399 1252v-415h188c176 0 274 74 274 205c0 135 -92 210 -256 210h-206zM399 194h210c210 0 314 76 314 233
c0 151 -107 228 -318 228h-206v-461zM583 1615c-79 0 -145 67 -145 148c0 82 66 149 145 149s146 -67 146 -149c0 -81 -67 -148 -146 -148z" />
    <glyph glyph-name="C" unicode="C" 
d="M665 189c167 0 271 108 274 284h245c0 -307 -203 -502 -518 -502c-350 0 -555 225 -555 611v279c0 386 205 611 555 611c321 0 514 -193 518 -520h-245c-4 182 -115 302 -277 302c-197 0 -301 -135 -301 -393v-279c0 -258 104 -393 304 -393z" />
    <glyph glyph-name="Cacute" unicode="&#x106;" 
d="M665 189c167 0 271 108 274 284h245c0 -307 -203 -502 -518 -502c-350 0 -555 225 -555 611v279c0 386 205 611 555 611c321 0 514 -193 518 -520h-245c-4 182 -115 302 -277 302c-197 0 -301 -135 -301 -393v-279c0 -258 104 -393 304 -393zM520 1606l286 312h260
l-316 -312h-230z" />
    <glyph glyph-name="Ccaron" unicode="&#x10c;" 
d="M1043 1925l-283 -324h-218l-283 324h221l163 -196h16l163 196h221zM361 861v-279c0 -258 104 -393 304 -393c167 0 271 108 274 284h245c0 -307 -203 -502 -518 -502c-350 0 -555 225 -555 611v279c0 386 205 611 555 611c321 0 514 -193 518 -520h-245
c-4 182 -115 302 -277 302c-197 0 -301 -135 -301 -393z" />
    <glyph glyph-name="Ccircumflex" unicode="&#x108;" 
d="M665 189c167 0 271 108 274 284h245c0 -307 -203 -502 -518 -502c-350 0 -555 225 -555 611v279c0 386 205 611 555 611c321 0 514 -193 518 -520h-245c-4 182 -115 302 -277 302c-197 0 -301 -135 -301 -393v-279c0 -258 104 -393 304 -393zM760 1930l283 -324h-221
l-163 196h-16l-163 -196h-221l283 324h218z" />
    <glyph glyph-name="Cdotaccent" unicode="&#x10a;" 
d="M665 189c167 0 271 108 274 284h245c0 -307 -203 -502 -518 -502c-350 0 -555 225 -555 611v279c0 386 205 611 555 611c321 0 514 -193 518 -520h-245c-4 182 -115 302 -277 302c-197 0 -301 -135 -301 -393v-279c0 -258 104 -393 304 -393zM651 1615
c-79 0 -146 67 -146 148c0 82 67 149 146 149s145 -67 145 -149c0 -81 -66 -148 -145 -148z" />
    <glyph glyph-name="Ccedilla" unicode="&#xc7;" 
d="M361 861v-279c0 -258 104 -393 304 -393c167 0 271 108 274 284h245c0 -287 -177 -476 -457 -499l-38 -92c124 -4 191 -65 191 -173c0 -124 -95 -198 -252 -198c-53 0 -95 6 -136 17v126c21 -8 76 -14 115 -14c72 0 111 22 111 63c0 43 -39 60 -133 60h-58v104l46 110
c-293 37 -462 254 -462 605v279c0 386 205 611 555 611c321 0 514 -193 518 -520h-245c-4 182 -115 302 -277 302c-197 0 -301 -135 -301 -393z" />
    <glyph glyph-name="Ccedillaacute" unicode="&#x1e08;" 
d="M1066 1918l-316 -312h-230l286 312h260zM361 861v-279c0 -258 104 -393 304 -393c167 0 271 108 274 284h245c0 -287 -177 -476 -457 -499l-38 -92c124 -4 191 -65 191 -173c0 -124 -95 -198 -252 -198c-53 0 -95 6 -136 17v126c21 -8 76 -14 115 -14c72 0 111 22 111 63
c0 43 -39 60 -133 60h-58v104l46 110c-293 37 -462 254 -462 605v279c0 386 205 611 555 611c321 0 514 -193 518 -520h-245c-4 182 -115 302 -277 302c-197 0 -301 -135 -301 -393z" />
    <glyph glyph-name="D" unicode="D" 
d="M136 1443h440c406 0 615 -243 615 -714c0 -483 -207 -729 -615 -729h-440v1443zM378 1232v-1021h168c272 0 398 161 398 514c0 343 -128 507 -398 507h-168z" />
    <glyph glyph-name="Ddotaccent" unicode="&#x1e0a;" 
d="M136 1443h440c406 0 615 -243 615 -714c0 -483 -207 -729 -615 -729h-440v1443zM378 1232v-1021h168c272 0 398 161 398 514c0 343 -128 507 -398 507h-168zM583 1615c-79 0 -145 67 -145 148c0 82 66 149 145 149s146 -67 146 -149c0 -81 -67 -148 -146 -148z" />
    <glyph glyph-name="Dcircumflexbelow" unicode="&#x1e12;" 
d="M136 1443h440c406 0 615 -243 615 -714c0 -483 -207 -729 -615 -729h-440v1443zM378 1232v-1021h168c272 0 398 161 398 514c0 343 -128 507 -398 507h-168zM457 -162h253l270 -351h-234l-154 216h-17l-155 -216h-233z" />
    <glyph glyph-name="Dcommaaccent" unicode="&#x1e10;" 
d="M136 1443h440c406 0 615 -243 615 -714c0 -483 -207 -729 -615 -729h-440v1443zM378 1232v-1021h168c272 0 398 161 398 514c0 343 -128 507 -398 507h-168zM581 -504h-209l123 357h236z" />
    <glyph glyph-name="Dlinebelow" unicode="&#x1e0e;" 
d="M136 1443h440c406 0 615 -243 615 -714c0 -483 -207 -729 -615 -729h-440v1443zM378 1232v-1021h168c272 0 398 161 398 514c0 343 -128 507 -398 507h-168zM931 -407h-696v166h696v-166z" />
    <glyph glyph-name="Dcaron" unicode="&#x10e;" 
d="M975 1925l-283 -324h-218l-283 324h221l163 -196h16l163 196h221zM378 1232v-1021h168c272 0 398 161 398 514c0 343 -128 507 -398 507h-168zM136 1443h440c406 0 615 -243 615 -714c0 -483 -207 -729 -615 -729h-440v1443z" />
    <glyph glyph-name="Ddotbelow" unicode="&#x1e0c;" 
d="M136 1443h440c406 0 615 -243 615 -714c0 -483 -207 -729 -615 -729h-440v1443zM378 1232v-1021h168c272 0 398 161 398 514c0 343 -128 507 -398 507h-168zM583 -466c-79 0 -145 67 -145 149c0 81 66 148 145 148s146 -67 146 -148c0 -82 -67 -149 -146 -149z" />
    <glyph glyph-name="Dcroat" unicode="&#x110;" 
d="M395 200h162c274 0 396 160 396 525c0 353 -128 518 -401 518h-157v-414h272v-189h-272v-440zM171 1443h406c406 0 615 -243 615 -714c0 -483 -208 -729 -615 -729h-406v640h-144v189h144v614z" />
    <glyph glyph-name="E" unicode="E" 
d="M1098 211v-211h-887v1443h887v-211h-645v-402h608v-197h-608v-422h645z" />
    <glyph glyph-name="Egrave" unicode="&#xc8;" 
d="M498 1918l286 -312h-230l-316 312h260zM1098 211v-211h-887v1443h887v-211h-645v-402h608v-197h-608v-422h645z" />
    <glyph glyph-name="Edblgrave" unicode="&#x204;" 
d="M710 1918l269 -312h-207l-291 312h229zM306 1918l270 -312h-207l-291 312h228zM1098 211v-211h-887v1443h887v-211h-645v-402h608v-197h-608v-422h645z" />
    <glyph glyph-name="Eacute" unicode="&#xc9;" 
d="M1098 211v-211h-887v1443h887v-211h-645v-402h608v-197h-608v-422h645zM514 1606l287 312h260l-316 -312h-231z" />
    <glyph glyph-name="Ecircumflex" unicode="&#xca;" 
d="M1098 211v-211h-887v1443h887v-211h-645v-402h608v-197h-608v-422h645zM763 1930l283 -324h-220l-164 196h-16l-163 -196h-220l282 324h218z" />
    <glyph glyph-name="Ecircumflexhookabove" unicode="&#x1ec2;" 
d="M1098 211v-211h-887v1443h887v-211h-645v-402h608v-197h-608v-422h645zM791 2012v124c27 12 79 20 130 20c127 0 210 -72 210 -180c0 -94 -54 -169 -149 -207l-90 87c56 22 85 60 85 100c0 44 -37 73 -93 73c-34 0 -72 -7 -93 -17zM772 1829l277 -250h-229l-157 146h-17
l-157 -146h-230l278 250h235z" />
    <glyph glyph-name="Ecircumflexgrave" unicode="&#x1ec0;" 
d="M1098 211v-211h-887v1443h887v-211h-645v-402h608v-197h-608v-422h645zM1139 1863h-205l-220 267h229zM772 1829l277 -250h-229l-157 146h-17l-157 -146h-230l278 250h235z" />
    <glyph glyph-name="Ecircumflextilde" unicode="&#x1ec4;" 
d="M1098 211v-211h-887v1443h887v-211h-645v-402h608v-197h-608v-422h645zM772 1829l277 -250h-229l-157 146h-17l-157 -146h-230l278 250h235zM799 1882c-163 0 -178 129 -278 129c-54 0 -86 -39 -89 -113h-146c0 161 91 258 223 258c164 0 179 -128 279 -128
c51 0 86 37 89 115h146c0 -162 -93 -261 -224 -261z" />
    <glyph glyph-name="Ecircumflexdotbelow" unicode="&#x1ec6;" 
d="M1098 211v-211h-887v1443h887v-211h-645v-402h608v-197h-608v-422h645zM763 1930l283 -324h-220l-164 196h-16l-163 -196h-220l282 324h218zM654 -456c-79 0 -145 67 -145 148c0 82 66 149 145 149c80 0 146 -67 146 -149c0 -81 -66 -148 -146 -148z" />
    <glyph glyph-name="Ecircumflexacute" unicode="&#x1ebe;" 
d="M1098 211v-211h-887v1443h887v-211h-645v-402h608v-197h-608v-422h645zM875 1863l196 267h230l-221 -267h-205zM772 1829l277 -250h-229l-157 146h-17l-157 -146h-230l278 250h235z" />
    <glyph glyph-name="Edieresis" unicode="&#xcb;" 
d="M1098 211v-211h-887v1443h887v-211h-645v-402h608v-197h-608v-422h645zM435 1633c-73 0 -135 63 -135 138c0 76 62 139 135 139s135 -63 135 -139c0 -75 -62 -138 -135 -138zM874 1633c-73 0 -136 63 -136 138c0 76 63 139 136 139s135 -63 135 -139
c0 -75 -62 -138 -135 -138z" />
    <glyph glyph-name="Edotbelow" unicode="&#x1eb8;" 
d="M1098 211v-211h-887v1443h887v-211h-645v-402h608v-197h-608v-422h645zM654 -456c-79 0 -145 67 -145 148c0 82 66 149 145 149c80 0 146 -67 146 -149c0 -81 -66 -148 -146 -148z" />
    <glyph glyph-name="Einvertedbreve" unicode="&#x206;" 
d="M456 1599h-172c0 191 147 324 370 324c224 0 370 -133 370 -324h-171c-2 107 -82 179 -199 179c-116 0 -197 -72 -198 -179zM1098 211v-211h-887v1443h887v-211h-645v-402h608v-197h-608v-422h645z" />
    <glyph glyph-name="Ehookabove" unicode="&#x1eba;" 
d="M1098 211v-211h-887v1443h887v-211h-645v-402h608v-197h-608v-422h645zM464 1826v133c33 13 88 25 145 25c135 0 228 -75 228 -193c0 -99 -69 -183 -179 -226l-80 99c61 22 103 63 103 106c0 46 -41 77 -107 77c-42 0 -85 -9 -110 -21z" />
    <glyph glyph-name="Ecaron" unicode="&#x11a;" 
d="M1046 1925l-283 -324h-218l-282 324h220l163 -196h16l164 196h220zM1098 211v-211h-887v1443h887v-211h-645v-402h608v-197h-608v-422h645z" />
    <glyph glyph-name="Emacron" unicode="&#x112;" 
d="M1098 211v-211h-887v1443h887v-211h-645v-402h608v-197h-608v-422h645zM1002 1672h-696v166h696v-166z" />
    <glyph glyph-name="Emacrongrave" unicode="&#x1e14;" 
d="M1098 211v-211h-887v1443h887v-211h-645v-402h608v-197h-608v-422h645zM1006 1612h-704v148h704v-148zM782 1881h-213l-204 249h237z" />
    <glyph glyph-name="Emacronacute" unicode="&#x1e16;" 
d="M738 1881h-212l179 249h238zM1006 1611h-704v148h704v-148zM1098 211v-211h-887v1443h887v-211h-645v-402h608v-197h-608v-422h645z" />
    <glyph glyph-name="Etilde" unicode="&#x1ebc;" 
d="M1098 211v-211h-887v1443h887v-211h-645v-402h608v-197h-608v-422h645zM808 1604c-158 0 -191 146 -290 146c-56 0 -90 -43 -93 -136h-153c0 181 94 288 229 288c163 0 200 -146 290 -146c54 0 89 42 93 134h152c0 -178 -94 -286 -228 -286z" />
    <glyph glyph-name="Ecircumflexbelow" unicode="&#x1e18;" 
d="M1098 211v-211h-887v1443h887v-211h-645v-402h608v-197h-608v-422h645zM528 -162h253l270 -351h-234l-154 216h-17l-155 -216h-233z" />
    <glyph glyph-name="Ebreve" unicode="&#x114;" 
d="M1098 211v-211h-887v1443h887v-211h-645v-402h608v-197h-608v-422h645zM284 1923h172c1 -107 82 -180 198 -180c117 0 197 73 199 180h171c0 -191 -146 -324 -370 -324c-223 0 -370 133 -370 324z" />
    <glyph glyph-name="Etildebelow" unicode="&#x1e1a;" 
d="M1098 211v-211h-887v1443h887v-211h-645v-402h608v-197h-608v-422h645zM518 -310c-55 0 -83 -49 -83 -147h-167c0 190 95 311 244 311c151 0 197 -148 279 -148c55 0 83 48 83 144h167c0 -188 -95 -309 -244 -309c-151 0 -197 149 -279 149z" />
    <glyph glyph-name="Edotaccent" unicode="&#x116;" 
d="M1098 211v-211h-887v1443h887v-211h-645v-402h608v-197h-608v-422h645zM659 1615c-79 0 -146 67 -146 148c0 82 67 149 146 149s145 -67 145 -149c0 -81 -66 -148 -145 -148z" />
    <glyph glyph-name="Ecedilla" unicode="&#x228;" 
d="M1098 1232h-645v-402h608v-197h-608v-422h645v-211h-356l-49 -118c123 -4 190 -65 190 -173c0 -124 -95 -198 -252 -198c-52 0 -94 6 -136 17v126c21 -8 77 -14 116 -14c71 0 110 22 110 63c0 43 -39 60 -133 60h-58v104l56 133h-375v1443h887v-211z" />
    <glyph glyph-name="Ecedillabreve" unicode="&#x1e1c;" 
d="M853 1923h171c0 -191 -146 -324 -370 -324c-223 0 -370 133 -370 324h172c1 -107 82 -180 198 -180c117 0 197 73 199 180zM1098 1232h-645v-402h608v-197h-608v-422h645v-211h-356l-49 -118c123 -4 190 -65 190 -173c0 -124 -95 -198 -252 -198c-52 0 -94 6 -136 17v126
c21 -8 77 -14 116 -14c71 0 110 22 110 63c0 43 -39 60 -133 60h-58v104l56 133h-375v1443h887v-211z" />
    <glyph glyph-name="Eogonek" unicode="&#x118;" 
d="M864 0h-653v1443h887v-211h-645v-402h608v-197h-608v-422h645v-205l-16 -6c-114 -44 -170 -111 -170 -188c0 -62 51 -107 123 -107c22 0 51 4 68 8v-141c-34 -12 -81 -20 -127 -20c-148 0 -251 87 -251 212c0 88 47 162 139 220v16z" />
    <glyph glyph-name="F" unicode="F" 
d="M473 0h-242v1443h887v-211h-645v-434h588v-202h-588v-596z" />
    <glyph glyph-name="Fdotaccent" unicode="&#x1e1e;" 
d="M473 0h-242v1443h887v-211h-645v-434h588v-202h-588v-596zM642 1615c-79 0 -145 67 -145 148c0 82 66 149 145 149s146 -67 146 -149c0 -81 -67 -148 -146 -148z" />
    <glyph glyph-name="G" unicode="G" 
d="M930 460v106h-294v187h539v-302c0 -289 -208 -480 -516 -480c-349 0 -552 224 -552 611v279c0 387 203 611 552 611c312 0 508 -188 515 -495h-244c-8 167 -118 277 -276 277c-199 0 -302 -134 -302 -393v-279c0 -259 104 -393 305 -393c169 0 273 102 273 271z" />
    <glyph glyph-name="Gacute" unicode="&#x1f4;" 
d="M930 460v106h-294v187h539v-302c0 -289 -208 -480 -516 -480c-349 0 -552 224 -552 611v279c0 387 203 611 552 611c312 0 508 -188 515 -495h-244c-8 167 -118 277 -276 277c-199 0 -302 -134 -302 -393v-279c0 -259 104 -393 305 -393c169 0 273 102 273 271zM519 1606
l286 312h260l-316 -312h-230z" />
    <glyph glyph-name="Gcaron" unicode="&#x1e6;" 
d="M1036 1925l-283 -324h-218l-282 324h220l164 -196h15l164 196h220zM930 460v106h-294v187h539v-302c0 -289 -208 -480 -516 -480c-349 0 -552 224 -552 611v279c0 387 203 611 552 611c312 0 508 -188 515 -495h-244c-8 167 -118 277 -276 277
c-199 0 -302 -134 -302 -393v-279c0 -259 104 -393 305 -393c169 0 273 102 273 271z" />
    <glyph glyph-name="Gcircumflex" unicode="&#x11c;" 
d="M930 460v106h-294v187h539v-302c0 -289 -208 -480 -516 -480c-349 0 -552 224 -552 611v279c0 387 203 611 552 611c312 0 508 -188 515 -495h-244c-8 167 -118 277 -276 277c-199 0 -302 -134 -302 -393v-279c0 -259 104 -393 305 -393c169 0 273 102 273 271zM753 1930
l283 -324h-220l-164 196h-15l-164 -196h-220l282 324h218z" />
    <glyph glyph-name="Gbreve" unicode="&#x11e;" 
d="M930 460v106h-294v187h539v-302c0 -289 -208 -480 -516 -480c-349 0 -552 224 -552 611v279c0 387 203 611 552 611c312 0 508 -188 515 -495h-244c-8 167 -118 277 -276 277c-199 0 -302 -134 -302 -393v-279c0 -259 104 -393 305 -393c169 0 273 102 273 271zM274 1923
h172c1 -107 82 -180 198 -180c117 0 197 73 199 180h172c0 -191 -147 -324 -371 -324c-223 0 -370 133 -370 324z" />
    <glyph glyph-name="Gmacron" unicode="&#x1e20;" 
d="M930 460v106h-294v187h539v-302c0 -289 -208 -480 -516 -480c-349 0 -552 224 -552 611v279c0 387 203 611 552 611c312 0 508 -188 515 -495h-244c-8 167 -118 277 -276 277c-199 0 -302 -134 -302 -393v-279c0 -259 104 -393 305 -393c169 0 273 102 273 271zM992 1672
h-695v166h695v-166z" />
    <glyph glyph-name="Gdotaccent" unicode="&#x120;" 
d="M930 460v106h-294v187h539v-302c0 -289 -208 -480 -516 -480c-349 0 -552 224 -552 611v279c0 387 203 611 552 611c312 0 508 -188 515 -495h-244c-8 167 -118 277 -276 277c-199 0 -302 -134 -302 -393v-279c0 -259 104 -393 305 -393c169 0 273 102 273 271zM644 1615
c-79 0 -145 67 -145 148c0 82 66 149 145 149c80 0 146 -67 146 -149c0 -81 -66 -148 -146 -148z" />
    <glyph glyph-name="Gcommaaccent" unicode="&#x122;" 
d="M930 460v106h-294v187h539v-302c0 -289 -208 -480 -516 -480c-349 0 -552 224 -552 611v279c0 387 203 611 552 611c312 0 508 -188 515 -495h-244c-8 167 -118 277 -276 277c-199 0 -302 -134 -302 -393v-279c0 -259 104 -393 305 -393c169 0 273 102 273 271zM641 -504
h-208l123 357h236z" />
    <glyph glyph-name="H" unicode="H" 
d="M1134 0h-238v629h-526v-629h-238v1443h238v-603h526v603h238v-1443z" />
    <glyph glyph-name="Hdieresis" unicode="&#x1e26;" 
d="M1134 0h-238v629h-526v-629h-238v1443h238v-603h526v603h238v-1443zM414 1633c-73 0 -136 63 -136 138c0 76 63 139 136 139s135 -63 135 -139c0 -75 -62 -138 -135 -138zM852 1633c-73 0 -135 63 -135 138c0 76 62 139 135 139s136 -63 136 -139
c0 -75 -63 -138 -136 -138z" />
    <glyph glyph-name="Hcaron" unicode="&#x21e;" 
d="M1025 1925l-283 -324h-218l-283 324h221l163 -196h16l163 196h221zM1134 0h-238v629h-526v-629h-238v1443h238v-603h526v603h238v-1443z" />
    <glyph glyph-name="Hcircumflex" unicode="&#x124;" 
d="M1134 0h-238v629h-526v-629h-238v1443h238v-603h526v603h238v-1443zM742 1930l283 -324h-221l-163 196h-16l-163 -196h-221l283 324h218z" />
    <glyph glyph-name="Hdotbelow" unicode="&#x1e24;" 
d="M1134 0h-238v629h-526v-629h-238v1443h238v-603h526v603h238v-1443zM633 -466c-79 0 -146 67 -146 149c0 81 67 148 146 148s146 -67 146 -148c0 -82 -67 -149 -146 -149z" />
    <glyph glyph-name="Hdotaccent" unicode="&#x1e22;" 
d="M1134 0h-238v629h-526v-629h-238v1443h238v-603h526v603h238v-1443zM633 1615c-79 0 -146 67 -146 148c0 82 67 149 146 149s146 -67 146 -149c0 -81 -67 -148 -146 -148z" />
    <glyph glyph-name="Hbrevebelow" unicode="&#x1e2a;" 
d="M1134 0h-238v629h-526v-629h-238v1443h238v-603h526v603h238v-1443zM633 -310c122 0 193 77 194 186h183c0 -203 -146 -344 -377 -344s-377 141 -377 344h184c1 -109 71 -186 193 -186z" />
    <glyph glyph-name="Hcedilla" unicode="&#x1e28;" 
d="M896 1443h238v-1443h-238v629h-526v-629l-49 -118c123 -4 190 -65 190 -173c0 -124 -95 -198 -252 -198c-52 0 -94 6 -136 17v126c21 -8 77 -14 116 -14c71 0 110 22 110 63c0 43 -39 60 -133 60h-58v104l56 133h-82v1443h238v-603h526v603z" />
    <glyph glyph-name="Hbar" unicode="&#x126;" 
d="M386 835h491v240h-491v-240zM392 629v-629h-242v1071h-109v172h109v200h242v-200h479v200h242v-200h112v-172h-112v-1071h-242v629h-479z" />
    <glyph glyph-name="I" unicode="I" 
d="M1050 0h-834v208h296v1027h-296v208h834v-208h-296v-1027h296v-208z" />
    <glyph glyph-name="Idotaccent" unicode="&#x130;" 
d="M1050 0h-834v208h296v1027h-296v208h834v-208h-296v-1027h296v-208zM633 1615c-79 0 -146 67 -146 148c0 82 67 149 146 149s146 -67 146 -149c0 -81 -67 -148 -146 -148z" />
    <glyph glyph-name="Igrave" unicode="&#xcc;" 
d="M477 1918l286 -312h-230l-316 312h260zM1050 0h-834v208h296v1027h-296v208h834v-208h-296v-1027h296v-208z" />
    <glyph glyph-name="Idblgrave" unicode="&#x208;" 
d="M688 1918l269 -312h-207l-290 312h228zM285 1918l269 -312h-206l-291 312h228zM1050 0h-834v208h296v1027h-296v208h834v-208h-296v-1027h296v-208z" />
    <glyph glyph-name="Iacute" unicode="&#xcd;" 
d="M1050 0h-834v208h296v1027h-296v208h834v-208h-296v-1027h296v-208zM502 1606l286 312h260l-316 -312h-230z" />
    <glyph glyph-name="Icircumflex" unicode="&#xce;" 
d="M1050 0h-834v208h296v1027h-296v208h834v-208h-296v-1027h296v-208zM742 1930l283 -324h-221l-163 196h-16l-163 -196h-221l283 324h218z" />
    <glyph glyph-name="Icaron" unicode="&#x1cf;" 
d="M1025 1925l-283 -324h-218l-283 324h221l163 -196h16l163 196h221zM1050 0h-834v208h296v1027h-296v208h834v-208h-296v-1027h296v-208z" />
    <glyph glyph-name="Idieresis" unicode="&#xcf;" 
d="M1050 0h-834v208h296v1027h-296v208h834v-208h-296v-1027h296v-208zM414 1633c-73 0 -136 63 -136 138c0 76 63 139 136 139s135 -63 135 -139c0 -75 -62 -138 -135 -138zM852 1633c-73 0 -135 63 -135 138c0 76 62 139 135 139s136 -63 136 -139
c0 -75 -63 -138 -136 -138z" />
    <glyph glyph-name="Idieresisacute" unicode="&#x1e2e;" 
d="M1050 0h-834v208h296v1027h-296v208h834v-208h-296v-1027h296v-208zM504 1896l182 234h240l-216 -234h-206zM419 1564c-71 0 -128 59 -128 132s57 132 128 132s128 -59 128 -132s-57 -132 -128 -132zM848 1564c-71 0 -128 59 -128 132s57 132 128 132s128 -59 128 -132
s-57 -132 -128 -132z" />
    <glyph glyph-name="Ibreve" unicode="&#x12c;" 
d="M1050 0h-834v208h296v1027h-296v208h834v-208h-296v-1027h296v-208zM263 1923h172c1 -107 81 -180 198 -180s197 73 198 180h172c0 -191 -147 -324 -370 -324s-370 133 -370 324z" />
    <glyph glyph-name="Idotbelow" unicode="&#x1eca;" 
d="M1050 0h-834v208h296v1027h-296v208h834v-208h-296v-1027h296v-208zM632 -466c-79 0 -145 67 -145 149c0 81 66 148 145 148c80 0 146 -67 146 -148c0 -82 -66 -149 -146 -149z" />
    <glyph glyph-name="Iinvertedbreve" unicode="&#x20a;" 
d="M435 1599h-172c0 191 147 324 370 324s370 -133 370 -324h-172c-1 107 -81 179 -198 179s-197 -72 -198 -179zM1050 0h-834v208h296v1027h-296v208h834v-208h-296v-1027h296v-208z" />
    <glyph glyph-name="Imacron" unicode="&#x12a;" 
d="M1050 0h-834v208h296v1027h-296v208h834v-208h-296v-1027h296v-208zM981 1672h-696v166h696v-166z" />
    <glyph glyph-name="Itildebelow" unicode="&#x1e2c;" 
d="M1050 0h-834v208h296v1027h-296v208h834v-208h-296v-1027h296v-208zM497 -320c-56 0 -84 -49 -84 -147h-167c0 190 96 311 244 311c151 0 197 -148 279 -148c56 0 83 48 83 144h167c0 -188 -95 -309 -244 -309c-151 0 -196 149 -278 149z" />
    <glyph glyph-name="Ihookabove" unicode="&#x1ec8;" 
d="M1050 0h-834v208h296v1027h-296v208h834v-208h-296v-1027h296v-208zM443 1826v133c32 13 88 25 145 25c134 0 227 -75 227 -193c0 -99 -68 -183 -179 -226l-79 99c61 22 103 63 103 106c0 46 -41 77 -107 77c-43 0 -85 -9 -110 -21z" />
    <glyph glyph-name="Itilde" unicode="&#x128;" 
d="M1050 0h-834v208h296v1027h-296v208h834v-208h-296v-1027h296v-208zM787 1604c-159 0 -191 146 -291 146c-55 0 -89 -43 -92 -136h-153c0 181 93 288 228 288c164 0 201 -146 291 -146c54 0 89 42 93 134h152c0 -178 -94 -286 -228 -286z" />
    <glyph glyph-name="Iogonek" unicode="&#x12e;" 
d="M1050 1235h-296v-1027h296v-208l-3 -1c-111 -58 -166 -123 -166 -195c0 -57 39 -92 103 -92c26 0 49 2 65 8v-147c-37 -13 -85 -21 -127 -21c-128 0 -220 82 -220 195c0 104 57 195 160 253h-646v208h296v1027h-296v208h834v-208z" />
    <glyph glyph-name="J" unicode="J" 
d="M591 -29c-276 0 -459 170 -460 429h234c4 -126 94 -209 223 -209c144 0 225 88 225 248v796h-510v208h752v-1008c0 -292 -174 -464 -464 -464z" />
    <glyph glyph-name="Jcircumflex" unicode="&#x134;" 
d="M591 -29c-276 0 -459 170 -460 429h234c4 -126 94 -209 223 -209c144 0 225 88 225 248v796h-510v208h752v-1008c0 -292 -174 -464 -464 -464zM781 1930l283 -324h-220l-164 196h-16l-163 -196h-220l282 324h218z" />
    <glyph glyph-name="K" unicode="K" 
d="M412 0h-231v1443h231v-682h15l536 682h263l-512 -637l552 -806h-287l-430 630l-137 -169v-461z" />
    <glyph glyph-name="Kacute" unicode="&#x1e30;" 
d="M412 0h-231v1443h231v-682h15l536 682h263l-512 -637l552 -806h-287l-430 630l-137 -169v-461zM541 1606l286 312h260l-316 -312h-230z" />
    <glyph glyph-name="Kcaron" unicode="&#x1e8;" 
d="M1063 1925l-282 -324h-218l-283 324h220l164 -196h16l163 196h220zM412 0h-231v1443h231v-682h15l536 682h263l-512 -637l552 -806h-287l-430 630l-137 -169v-461z" />
    <glyph glyph-name="Kdotbelow" unicode="&#x1e32;" 
d="M412 0h-231v1443h231v-682h15l536 682h263l-512 -637l552 -806h-287l-430 630l-137 -169v-461zM684 -466c-79 0 -146 67 -146 149c0 81 67 148 146 148s146 -67 146 -148c0 -82 -67 -149 -146 -149z" />
    <glyph glyph-name="Klinebelow" unicode="&#x1e34;" 
d="M412 0h-231v1443h231v-682h15l536 682h263l-512 -637l552 -806h-287l-430 630l-137 -169v-461zM1032 -407h-696v166h696v-166z" />
    <glyph glyph-name="Kcommaaccent" unicode="&#x136;" 
d="M412 0h-231v1443h231v-682h15l536 682h263l-512 -637l552 -806h-287l-430 630l-137 -169v-461zM659 -504h-209l123 357h236z" />
    <glyph glyph-name="L" unicode="L" 
d="M1135 215v-215h-891v1443h239v-1228h652z" />
    <glyph glyph-name="Lacute" unicode="&#x139;" 
d="M1135 215v-215h-891v1443h239v-1228h652zM233 1606l286 312h260l-316 -312h-230z" />
    <glyph glyph-name="Lcircumflexbelow" unicode="&#x1e3c;" 
d="M1135 215v-215h-891v1443h239v-1228h652zM560 -162h253l271 -351h-234l-155 216h-16l-155 -216h-234z" />
    <glyph glyph-name="Ldotbelow" unicode="&#x1e36;" 
d="M1135 215v-215h-891v1443h239v-1228h652zM687 -466c-79 0 -146 67 -146 149c0 81 67 148 146 148s145 -67 145 -148c0 -82 -66 -149 -145 -149z" />
    <glyph glyph-name="Ldotbelowmacron" unicode="&#x1e38;" 
d="M1135 215v-215h-891v1443h239v-1228h652zM687 -466c-79 0 -146 67 -146 149c0 81 67 148 146 148s145 -67 145 -148c0 -82 -66 -149 -145 -149zM711 1672h-695v166h695v-166z" />
    <glyph glyph-name="Llinebelow" unicode="&#x1e3a;" 
d="M1135 215v-215h-891v1443h239v-1228h652zM1035 -407h-696v166h696v-166z" />
    <glyph glyph-name="Lcommaaccent" unicode="&#x13b;" 
d="M1135 215v-215h-891v1443h239v-1228h652zM684 -504h-208l123 357h236z" />
    <glyph glyph-name="Lcaron" unicode="&#x13d;" 
d="M780 1443h201l-42 -492h-159v492zM1135 215v-215h-891v1443h239v-1228h652z" />
    <glyph glyph-name="Ldot" unicode="&#x13f;" 
d="M1135 215v-215h-891v1443h239v-1228h652zM969 835c-80 0 -146 67 -146 148c0 82 66 149 146 149c79 0 145 -67 145 -149c0 -81 -66 -148 -145 -148z" />
    <glyph glyph-name="Lslash" unicode="&#x141;" 
d="M483 215h652v-215h-891v533l-158 -87v200l158 88v709h239v-576l502 280v-205l-502 -277v-450z" />
    <glyph glyph-name="M" unicode="M" 
d="M298 508v-508h-206v1443h254l280 -854h15l278 854h255v-1443h-206v508l25 580h-17l-257 -749h-172l-257 749h-17z" />
    <glyph glyph-name="Macute" unicode="&#x1e3e;" 
d="M298 508v-508h-206v1443h254l280 -854h15l278 854h255v-1443h-206v508l25 580h-17l-257 -749h-172l-257 749h-17zM502 1606l286 312h260l-316 -312h-230z" />
    <glyph glyph-name="Mdotaccent" unicode="&#x1e40;" 
d="M298 508v-508h-206v1443h254l280 -854h15l278 854h255v-1443h-206v508l25 580h-17l-257 -749h-172l-257 749h-17zM633 1615c-80 0 -146 67 -146 148c0 82 66 149 146 149c79 0 145 -67 145 -149c0 -81 -66 -148 -145 -148z" />
    <glyph glyph-name="Mdotbelow" unicode="&#x1e42;" 
d="M298 508v-508h-206v1443h254l280 -854h15l278 854h255v-1443h-206v508l25 580h-17l-257 -749h-172l-257 749h-17zM633 -466c-79 0 -146 67 -146 149c0 81 67 148 146 148s146 -67 146 -148c0 -82 -67 -149 -146 -149z" />
    <glyph glyph-name="N" unicode="N" 
d="M349 0h-212v1443h220l544 -1028h16v1028h212v-1443h-219l-545 1032h-16v-1032z" />
    <glyph glyph-name="Ngrave" unicode="&#x1f8;" 
d="M475 1918l286 -312h-230l-316 312h260zM349 0h-212v1443h220l544 -1028h16v1028h212v-1443h-219l-545 1032h-16v-1032z" />
    <glyph glyph-name="Nacute" unicode="&#x143;" 
d="M349 0h-212v1443h220l544 -1028h16v1028h212v-1443h-219l-545 1032h-16v-1032zM500 1606l286 312h260l-316 -312h-230z" />
    <glyph glyph-name="Ntilde" unicode="&#xd1;" 
d="M349 0h-212v1443h220l544 -1028h16v1028h212v-1443h-219l-545 1032h-16v-1032zM785 1604c-159 0 -191 146 -291 146c-55 0 -89 -43 -92 -136h-153c0 181 93 288 228 288c164 0 201 -146 290 -146c54 0 90 42 94 134h152c0 -178 -95 -286 -228 -286z" />
    <glyph glyph-name="Ndotbelow" unicode="&#x1e46;" 
d="M349 0h-212v1443h220l544 -1028h16v1028h212v-1443h-219l-545 1032h-16v-1032zM632 -466c-79 0 -146 67 -146 149c0 81 67 148 146 148s145 -67 145 -148c0 -82 -66 -149 -145 -149z" />
    <glyph glyph-name="Ndotaccent" unicode="&#x1e44;" 
d="M349 0h-212v1443h220l544 -1028h16v1028h212v-1443h-219l-545 1032h-16v-1032zM631 1615c-79 0 -146 67 -146 148c0 82 67 149 146 149s145 -67 145 -149c0 -81 -66 -148 -145 -148z" />
    <glyph glyph-name="Ncaron" unicode="&#x147;" 
d="M1023 1925l-283 -324h-218l-283 324h221l163 -196h16l163 196h221zM349 0h-212v1443h220l544 -1028h16v1028h212v-1443h-219l-545 1032h-16v-1032z" />
    <glyph glyph-name="Ncircumflexbelow" unicode="&#x1e4a;" 
d="M349 0h-212v1443h220l544 -1028h16v1028h212v-1443h-219l-545 1032h-16v-1032zM505 -162h253l270 -351h-233l-155 216h-16l-155 -216h-234z" />
    <glyph glyph-name="Nlinebelow" unicode="&#x1e48;" 
d="M349 0h-212v1443h220l544 -1028h16v1028h212v-1443h-219l-545 1032h-16v-1032zM980 -407h-696v166h696v-166z" />
    <glyph glyph-name="Ncommaaccent" unicode="&#x145;" 
d="M349 0h-212v1443h220l544 -1028h16v1028h212v-1443h-219l-545 1032h-16v-1032zM602 -504h-208l123 357h236z" />
    <glyph glyph-name="O" unicode="O" 
d="M1178 609c0 -401 -206 -638 -545 -638s-545 237 -545 638v225c0 401 206 638 545 638s545 -237 545 -638v-225zM633 187c192 0 300 146 300 424v221c0 278 -108 424 -300 424s-300 -146 -300 -424v-221c0 -278 108 -424 300 -424z" />
    <glyph glyph-name="Odieresis" unicode="&#xd6;" 
d="M1178 609c0 -401 -206 -638 -545 -638s-545 237 -545 638v225c0 401 206 638 545 638s545 -237 545 -638v-225zM633 187c192 0 300 146 300 424v221c0 278 -108 424 -300 424s-300 -146 -300 -424v-221c0 -278 108 -424 300 -424zM414 1633c-73 0 -136 63 -136 138
c0 76 63 139 136 139s135 -63 135 -139c0 -75 -62 -138 -135 -138zM852 1633c-73 0 -135 63 -135 138c0 76 62 139 135 139s136 -63 136 -139c0 -75 -63 -138 -136 -138z" />
    <glyph glyph-name="Oslash" unicode="&#xd8;" 
d="M933 611v221c0 75 -8 140 -23 196l-495 -739c51 -68 125 -102 218 -102c192 0 300 146 300 424zM333 832v-221c0 -74 8 -139 22 -194l495 739c-51 66 -124 100 -217 100c-192 0 -300 -146 -300 -424zM1188 1443l-122 -183c73 -106 112 -250 112 -426v-225
c0 -401 -206 -638 -545 -638c-142 0 -261 42 -351 119l-60 -90h-146l123 184c-72 107 -111 250 -111 425v225c0 401 206 638 545 638c141 0 259 -41 349 -118l60 89h146z" />
    <glyph glyph-name="Otilde" unicode="&#xd5;" 
d="M1178 609c0 -401 -206 -638 -545 -638s-545 237 -545 638v225c0 401 206 638 545 638s545 -237 545 -638v-225zM633 187c192 0 300 146 300 424v221c0 278 -108 424 -300 424s-300 -146 -300 -424v-221c0 -278 108 -424 300 -424zM787 1604c-159 0 -191 146 -291 146
c-55 0 -89 -43 -92 -136h-153c0 181 93 288 228 288c164 0 201 -146 291 -146c54 0 89 42 93 134h152c0 -178 -94 -286 -228 -286z" />
    <glyph glyph-name="Oacute" unicode="&#xd3;" 
d="M1178 609c0 -401 -206 -638 -545 -638s-545 237 -545 638v225c0 401 206 638 545 638s545 -237 545 -638v-225zM633 187c192 0 300 146 300 424v221c0 278 -108 424 -300 424s-300 -146 -300 -424v-221c0 -278 108 -424 300 -424zM502 1606l286 312h260l-316 -312h-230z
" />
    <glyph glyph-name="Ocircumflex" unicode="&#xd4;" 
d="M1178 609c0 -401 -206 -638 -545 -638s-545 237 -545 638v225c0 401 206 638 545 638s545 -237 545 -638v-225zM633 187c192 0 300 146 300 424v221c0 278 -108 424 -300 424s-300 -146 -300 -424v-221c0 -278 108 -424 300 -424zM742 1930l283 -324h-221l-163 196h-16
l-163 -196h-221l283 324h218z" />
    <glyph glyph-name="Ograve" unicode="&#xd2;" 
d="M477 1918l286 -312h-230l-316 312h260zM333 832v-221c0 -278 108 -424 300 -424s300 146 300 424v221c0 278 -108 424 -300 424s-300 -146 -300 -424zM1178 834v-225c0 -401 -206 -638 -545 -638s-545 237 -545 638v225c0 401 206 638 545 638s545 -237 545 -638z" />
    <glyph glyph-name="Ocircumflexhookabove" unicode="&#x1ed4;" 
d="M1178 609c0 -401 -206 -638 -545 -638s-545 237 -545 638v225c0 401 206 638 545 638s545 -237 545 -638v-225zM633 187c192 0 300 146 300 424v221c0 278 -108 424 -300 424s-300 -146 -300 -424v-221c0 -278 108 -424 300 -424zM769 2012v124c28 12 80 20 130 20
c128 0 211 -72 211 -180c0 -94 -54 -169 -149 -207l-91 87c57 22 86 60 86 100c0 44 -37 73 -93 73c-34 0 -72 -7 -94 -17zM750 1829l278 -250h-230l-157 146h-16l-157 -146h-230l278 250h234z" />
    <glyph glyph-name="Ocircumflexgrave" unicode="&#x1ed2;" 
d="M1178 609c0 -401 -206 -638 -545 -638s-545 237 -545 638v225c0 401 206 638 545 638s545 -237 545 -638v-225zM633 187c192 0 300 146 300 424v221c0 278 -108 424 -300 424s-300 -146 -300 -424v-221c0 -278 108 -424 300 -424zM1118 1863h-205l-221 267h230zM750 1829
l278 -250h-230l-157 146h-16l-157 -146h-230l278 250h234z" />
    <glyph glyph-name="Odotbelow" unicode="&#x1ecc;" 
d="M1178 609c0 -401 -206 -638 -545 -638s-545 237 -545 638v225c0 401 206 638 545 638s545 -237 545 -638v-225zM633 187c192 0 300 146 300 424v221c0 278 -108 424 -300 424s-300 -146 -300 -424v-221c0 -278 108 -424 300 -424zM633 -466c-79 0 -146 67 -146 149
c0 81 67 148 146 148s146 -67 146 -148c0 -82 -67 -149 -146 -149z" />
    <glyph glyph-name="Odblgrave" unicode="&#x20c;" 
d="M688 1918l269 -312h-207l-290 312h228zM285 1918l269 -312h-206l-291 312h228zM333 832v-221c0 -278 108 -424 300 -424s300 146 300 424v221c0 278 -108 424 -300 424s-300 -146 -300 -424zM1178 834v-225c0 -401 -206 -638 -545 -638s-545 237 -545 638v225
c0 401 206 638 545 638s545 -237 545 -638z" />
    <glyph glyph-name="Otildeacute" unicode="&#x1e4c;" 
d="M1178 609c0 -401 -206 -638 -545 -638s-545 237 -545 638v225c0 401 206 638 545 638s545 -237 545 -638v-225zM633 187c192 0 300 146 300 424v221c0 278 -108 424 -300 424s-300 -146 -300 -424v-221c0 -278 108 -424 300 -424zM540 1919l136 229h226l-162 -229h-200z
M781 1556c-163 0 -182 127 -281 127c-54 0 -86 -38 -89 -116h-154c0 165 95 263 228 263c163 0 182 -127 281 -127c52 0 86 36 90 114h153c0 -162 -96 -261 -228 -261z" />
    <glyph glyph-name="Omacronacute" unicode="&#x1e52;" 
d="M717 1881h-212l179 249h237zM984 1611h-703v148h703v-148zM333 832v-221c0 -278 108 -424 300 -424s300 146 300 424v221c0 278 -108 424 -300 424s-300 -146 -300 -424zM1178 834v-225c0 -401 -206 -638 -545 -638s-545 237 -545 638v225c0 401 206 638 545 638
s545 -237 545 -638z" />
    <glyph glyph-name="Ocircumflextilde" unicode="&#x1ed6;" 
d="M1178 609c0 -401 -206 -638 -545 -638s-545 237 -545 638v225c0 401 206 638 545 638s545 -237 545 -638v-225zM633 187c192 0 300 146 300 424v221c0 278 -108 424 -300 424s-300 -146 -300 -424v-221c0 -278 108 -424 300 -424zM750 1829l278 -250h-230l-157 146h-16
l-157 -146h-230l278 250h234zM778 1882c-163 0 -179 129 -278 129c-54 0 -86 -39 -89 -113h-146c0 161 91 258 223 258c163 0 179 -128 278 -128c52 0 86 37 90 115h145c0 -162 -92 -261 -223 -261z" />
    <glyph glyph-name="Odotaccentmacron" unicode="&#x230;" 
d="M634 1844c74 0 134 -61 134 -138c0 -76 -60 -137 -134 -137s-134 61 -134 137c0 77 60 138 134 138zM282 1953v148h704v-148h-704zM333 832v-221c0 -278 108 -424 300 -424s300 146 300 424v221c0 278 -108 424 -300 424s-300 -146 -300 -424zM1178 834v-225
c0 -401 -206 -638 -545 -638s-545 237 -545 638v225c0 401 206 638 545 638s545 -237 545 -638z" />
    <glyph glyph-name="Omacrongrave" unicode="&#x1e50;" 
d="M1178 609c0 -401 -206 -638 -545 -638s-545 237 -545 638v225c0 401 206 638 545 638s545 -237 545 -638v-225zM633 187c192 0 300 146 300 424v221c0 278 -108 424 -300 424s-300 -146 -300 -424v-221c0 -278 108 -424 300 -424zM984 1612h-703v148h703v-148zM760 1881
h-212l-204 249h237z" />
    <glyph glyph-name="Ocaron" unicode="&#x1d1;" 
d="M1025 1925l-283 -324h-218l-283 324h221l163 -196h16l163 196h221zM333 832v-221c0 -278 108 -424 300 -424s300 146 300 424v221c0 278 -108 424 -300 424s-300 -146 -300 -424zM1178 834v-225c0 -401 -206 -638 -545 -638s-545 237 -545 638v225c0 401 206 638 545 638
s545 -237 545 -638z" />
    <glyph glyph-name="Oslashacute" unicode="&#x1fe;" 
d="M993 1918l-316 -312h-230l286 312h260zM933 611v221c0 75 -8 140 -23 196l-495 -739c51 -68 125 -102 218 -102c192 0 300 146 300 424zM333 832v-221c0 -74 8 -139 22 -194l495 739c-51 66 -124 100 -217 100c-192 0 -300 -146 -300 -424zM1188 1443l-122 -183
c73 -106 112 -250 112 -426v-225c0 -401 -206 -638 -545 -638c-142 0 -261 42 -351 119l-60 -90h-146l123 184c-72 107 -111 250 -111 425v225c0 401 206 638 545 638c141 0 259 -41 349 -118l60 89h146z" />
    <glyph glyph-name="Ohungarumlaut" unicode="&#x150;" 
d="M1178 609c0 -401 -206 -638 -545 -638s-545 237 -545 638v225c0 401 206 638 545 638s545 -237 545 -638v-225zM633 187c192 0 300 146 300 424v221c0 278 -108 424 -300 424s-300 -146 -300 -424v-221c0 -278 108 -424 300 -424zM685 1606l270 312h228l-291 -312h-207z
M283 1606l268 312h229l-291 -312h-206z" />
    <glyph glyph-name="Obreve" unicode="&#x14e;" 
d="M1178 609c0 -401 -206 -638 -545 -638s-545 237 -545 638v225c0 401 206 638 545 638s545 -237 545 -638v-225zM633 187c192 0 300 146 300 424v221c0 278 -108 424 -300 424s-300 -146 -300 -424v-221c0 -278 108 -424 300 -424zM263 1923h172c1 -107 81 -180 198 -180
s197 73 198 180h172c0 -191 -147 -324 -370 -324s-370 133 -370 324z" />
    <glyph glyph-name="Oinvertedbreve" unicode="&#x20e;" 
d="M435 1599h-172c0 191 147 324 370 324s370 -133 370 -324h-172c-1 107 -81 179 -198 179s-197 -72 -198 -179zM333 832v-221c0 -278 108 -424 300 -424s300 146 300 424v221c0 278 -108 424 -300 424s-300 -146 -300 -424zM1178 834v-225c0 -401 -206 -638 -545 -638
s-545 237 -545 638v225c0 401 206 638 545 638s545 -237 545 -638z" />
    <glyph glyph-name="Ohookabove" unicode="&#x1ece;" 
d="M1178 609c0 -401 -206 -638 -545 -638s-545 237 -545 638v225c0 401 206 638 545 638s545 -237 545 -638v-225zM633 187c192 0 300 146 300 424v221c0 278 -108 424 -300 424s-300 -146 -300 -424v-221c0 -278 108 -424 300 -424zM443 1826v133c32 13 88 25 145 25
c134 0 227 -75 227 -193c0 -99 -68 -183 -179 -226l-79 99c61 22 103 63 103 106c0 46 -41 77 -107 77c-43 0 -85 -9 -110 -21z" />
    <glyph glyph-name="Odieresismacron" unicode="&#x22a;" 
d="M848 1828c71 0 129 -59 129 -132s-58 -132 -129 -132c-70 0 -128 59 -128 132s58 132 128 132zM281 1953v148h704v-148h-704zM419 1828c71 0 129 -59 129 -132s-58 -132 -129 -132c-70 0 -128 59 -128 132s58 132 128 132zM333 832v-221c0 -278 108 -424 300 -424
s300 146 300 424v221c0 278 -108 424 -300 424s-300 -146 -300 -424zM1178 834v-225c0 -401 -206 -638 -545 -638s-545 237 -545 638v225c0 401 206 638 545 638s545 -237 545 -638z" />
    <glyph glyph-name="Otildemacron" unicode="&#x22c;" 
d="M1178 609c0 -401 -206 -638 -545 -638s-545 237 -545 638v225c0 401 206 638 545 638s545 -237 545 -638v-225zM633 187c192 0 300 146 300 424v221c0 278 -108 424 -300 424s-300 -146 -300 -424v-221c0 -278 108 -424 300 -424zM985 1962h-704v147h704v-147zM781 1556
c-163 0 -182 127 -281 127c-54 0 -86 -38 -89 -116h-154c0 165 95 263 228 263c163 0 182 -127 281 -127c52 0 86 36 90 114h153c0 -162 -96 -261 -228 -261z" />
    <glyph glyph-name="Odotaccent" unicode="&#x22e;" 
d="M1178 609c0 -401 -206 -638 -545 -638s-545 237 -545 638v225c0 401 206 638 545 638s545 -237 545 -638v-225zM633 187c192 0 300 146 300 424v221c0 278 -108 424 -300 424s-300 -146 -300 -424v-221c0 -278 108 -424 300 -424zM633 1615c-79 0 -146 67 -146 148
c0 82 67 149 146 149s146 -67 146 -149c0 -81 -67 -148 -146 -148z" />
    <glyph glyph-name="Ocircumflexdotbelow" unicode="&#x1ed8;" 
d="M1178 609c0 -401 -206 -638 -545 -638s-545 237 -545 638v225c0 401 206 638 545 638s545 -237 545 -638v-225zM633 187c192 0 300 146 300 424v221c0 278 -108 424 -300 424s-300 -146 -300 -424v-221c0 -278 108 -424 300 -424zM742 1930l283 -324h-221l-163 196h-16
l-163 -196h-221l283 324h218zM633 -466c-79 0 -146 67 -146 149c0 81 67 148 146 148s146 -67 146 -148c0 -82 -67 -149 -146 -149z" />
    <glyph glyph-name="Ocircumflexacute" unicode="&#x1ed0;" 
d="M1178 609c0 -401 -206 -638 -545 -638s-545 237 -545 638v225c0 401 206 638 545 638s545 -237 545 -638v-225zM633 187c192 0 300 146 300 424v221c0 278 -108 424 -300 424s-300 -146 -300 -424v-221c0 -278 108 -424 300 -424zM854 1863l196 267h229l-220 -267h-205z
M750 1829l278 -250h-230l-157 146h-16l-157 -146h-230l278 250h234z" />
    <glyph glyph-name="Otildedieresis" unicode="&#x1e4e;" 
d="M1178 609c0 -401 -206 -638 -545 -638s-545 237 -545 638v225c0 401 206 638 545 638s545 -237 545 -638v-225zM633 187c192 0 300 146 300 424v221c0 278 -108 424 -300 424s-300 -146 -300 -424v-221c0 -278 108 -424 300 -424zM781 1556c-163 0 -182 127 -281 127
c-54 0 -86 -38 -89 -116h-154c0 165 95 263 228 263c163 0 182 -127 281 -127c52 0 86 36 90 114h153c0 -162 -96 -261 -228 -261zM419 1895c-66 0 -119 54 -119 122c0 67 53 122 119 122c65 0 119 -55 119 -122c0 -68 -54 -122 -119 -122zM847 1895c-65 0 -119 54 -119 122
c0 67 54 122 119 122c66 0 119 -55 119 -122c0 -68 -53 -122 -119 -122z" />
    <glyph glyph-name="Omacron" unicode="&#x14c;" 
d="M1178 609c0 -401 -206 -638 -545 -638s-545 237 -545 638v225c0 401 206 638 545 638s545 -237 545 -638v-225zM633 187c192 0 300 146 300 424v221c0 278 -108 424 -300 424s-300 -146 -300 -424v-221c0 -278 108 -424 300 -424zM981 1672h-696v166h696v-166z" />
    <glyph glyph-name="Oogonek" unicode="&#x1ea;" 
d="M633 187c195 0 300 151 300 424v221c0 273 -105 424 -300 424s-300 -151 -300 -424v-221c0 -273 105 -424 300 -424zM821 -443c-146 0 -246 83 -246 203c0 87 43 153 144 219v16c-26 -13 -73 -20 -123 -20c-310 0 -508 250 -508 634v225c0 397 203 638 545 638
s545 -241 545 -638v-225c0 -259 -69 -425 -245 -564c-137 -105 -175 -156 -175 -229c0 -62 50 -106 121 -106c31 0 58 3 73 8v-140c-31 -13 -83 -21 -131 -21z" />
    <glyph glyph-name="Oogonekmacron" unicode="&#x1ec;" 
d="M981 1672h-696v166h696v-166zM633 187c195 0 300 151 300 424v221c0 273 -105 424 -300 424s-300 -151 -300 -424v-221c0 -273 105 -424 300 -424zM821 -443c-146 0 -246 83 -246 203c0 87 43 153 144 219v16c-26 -13 -73 -20 -123 -20c-310 0 -508 250 -508 634v225
c0 397 203 638 545 638s545 -241 545 -638v-225c0 -259 -69 -425 -245 -564c-137 -105 -175 -156 -175 -229c0 -62 50 -106 121 -106c31 0 58 3 73 8v-140c-31 -13 -83 -21 -131 -21z" />
    <glyph glyph-name="Ohorn" unicode="&#x1a0;" 
d="M633 -29c-340 0 -545 239 -545 638v225c0 399 205 638 545 638c151 0 212 -45 370 -45c90 0 126 28 126 98v152h189v-211c0 -126 -75 -197 -210 -197h-68v-14c89 -78 138 -220 138 -421v-225c0 -399 -205 -638 -545 -638zM633 187c193 0 300 148 300 424v221
c0 276 -107 424 -300 424s-300 -148 -300 -424v-221c0 -276 107 -424 300 -424z" />
    <glyph glyph-name="Ohorndotbelow" unicode="&#x1ee2;" 
d="M633 -29c-340 0 -545 239 -545 638v225c0 399 205 638 545 638c151 0 212 -45 370 -45c90 0 126 28 126 98v152h189v-211c0 -126 -75 -197 -210 -197h-68v-14c89 -78 138 -220 138 -421v-225c0 -399 -205 -638 -545 -638zM633 187c193 0 300 148 300 424v221
c0 276 -107 424 -300 424s-300 -148 -300 -424v-221c0 -276 107 -424 300 -424zM633 -466c-79 0 -146 67 -146 149c0 81 67 148 146 148s146 -67 146 -148c0 -82 -67 -149 -146 -149z" />
    <glyph glyph-name="Ohornhookabove" unicode="&#x1ede;" 
d="M443 1826v133c32 13 88 25 145 25c134 0 227 -75 227 -193c0 -99 -68 -183 -179 -226l-79 99c61 22 103 63 103 106c0 46 -41 77 -107 77c-43 0 -85 -9 -110 -21zM633 -29c-340 0 -545 239 -545 638v225c0 399 205 638 545 638c151 0 212 -45 370 -45c90 0 126 28 126 98
v152h189v-211c0 -126 -75 -197 -210 -197h-68v-14c89 -78 138 -220 138 -421v-225c0 -399 -205 -638 -545 -638zM633 187c193 0 300 148 300 424v221c0 276 -107 424 -300 424s-300 -148 -300 -424v-221c0 -276 107 -424 300 -424z" />
    <glyph glyph-name="Ohorntilde" unicode="&#x1ee0;" 
d="M787 1604c-159 0 -191 146 -291 146c-55 0 -89 -43 -92 -136h-153c0 181 93 288 228 288c164 0 201 -146 291 -146c54 0 89 42 93 134h152c0 -178 -94 -286 -228 -286zM633 -29c-340 0 -545 239 -545 638v225c0 399 205 638 545 638c151 0 212 -45 370 -45
c90 0 126 28 126 98v152h189v-211c0 -126 -75 -197 -210 -197h-68v-14c89 -78 138 -220 138 -421v-225c0 -399 -205 -638 -545 -638zM633 187c193 0 300 148 300 424v221c0 276 -107 424 -300 424s-300 -148 -300 -424v-221c0 -276 107 -424 300 -424z" />
    <glyph glyph-name="Ohorngrave" unicode="&#x1edc;" 
d="M333 832v-221c0 -276 107 -424 300 -424s300 148 300 424v221c0 276 -107 424 -300 424s-300 -148 -300 -424zM1178 834v-225c0 -399 -205 -638 -545 -638s-545 239 -545 638v225c0 399 205 638 545 638c151 0 212 -45 370 -45c90 0 126 28 126 98v152h189v-211
c0 -126 -75 -197 -210 -197h-68v-14c89 -78 138 -220 138 -421zM502 1918l286 -312h-230l-316 312h260z" />
    <glyph glyph-name="Ohornacute" unicode="&#x1eda;" 
d="M438 1606l286 312h260l-316 -312h-230zM633 -29c-340 0 -545 239 -545 638v225c0 399 205 638 545 638c151 0 212 -45 370 -45c90 0 126 28 126 98v152h189v-211c0 -126 -75 -197 -210 -197h-68v-14c89 -78 138 -220 138 -421v-225c0 -399 -205 -638 -545 -638zM633 187
c193 0 300 148 300 424v221c0 276 -107 424 -300 424s-300 -148 -300 -424v-221c0 -276 107 -424 300 -424z" />
    <glyph glyph-name="P" unicode="P" 
d="M168 1443h509c294 0 483 -188 483 -481c0 -291 -193 -479 -493 -479h-257v-483h-242v1443zM410 1241v-556h207c195 0 298 95 298 278s-103 278 -298 278h-207z" />
    <glyph glyph-name="Pdotaccent" unicode="&#x1e56;" 
d="M168 1443h509c294 0 483 -188 483 -481c0 -291 -193 -479 -493 -479h-257v-483h-242v1443zM410 1241v-556h207c195 0 298 95 298 278s-103 278 -298 278h-207zM583 1615c-79 0 -145 67 -145 148c0 82 66 149 145 149s146 -67 146 -149c0 -81 -67 -148 -146 -148z" />
    <glyph glyph-name="Pacute" unicode="&#x1e54;" 
d="M168 1443h509c294 0 483 -188 483 -481c0 -291 -193 -479 -493 -479h-257v-483h-242v1443zM410 1241v-556h207c195 0 298 95 298 278s-103 278 -298 278h-207zM452 1606l287 312h260l-316 -312h-231z" />
    <glyph glyph-name="Q" unicode="Q" 
d="M793 461l87 -141c38 70 58 167 58 288v216c0 283 -110 432 -305 432s-305 -149 -305 -432v-216c0 -283 110 -432 305 -432c32 0 62 4 90 12l-167 273h237zM1178 834v-225c0 -218 -61 -388 -171 -497l167 -273h-237l-101 165c-61 -22 -129 -33 -203 -33
c-339 0 -545 237 -545 638v225c0 401 206 638 545 638s545 -237 545 -638z" />
    <glyph glyph-name="R" unicode="R" 
d="M399 1242v-503h234c176 0 278 93 278 252s-100 251 -273 251h-239zM654 549h-255v-549h-241v1443h508c304 0 491 -171 491 -449c0 -188 -102 -344 -262 -402l291 -592h-272z" />
    <glyph glyph-name="Rcaron" unicode="&#x158;" 
d="M976 1925l-283 -324h-218l-283 324h221l163 -196h16l163 196h221zM654 549h-255v-549h-241v1443h508c304 0 491 -171 491 -449c0 -188 -102 -344 -262 -402l291 -592h-272zM399 1242v-503h234c176 0 278 93 278 252s-100 251 -273 251h-239z" />
    <glyph glyph-name="Rlinebelow" unicode="&#x1e5e;" 
d="M399 1242v-503h234c176 0 278 93 278 252s-100 251 -273 251h-239zM654 549h-255v-549h-241v1443h508c304 0 491 -171 491 -449c0 -188 -102 -344 -262 -402l291 -592h-272zM990 -406h-695v165h695v-165z" />
    <glyph glyph-name="Rdotbelowmacron" unicode="&#x1e5c;" 
d="M399 1242v-503h234c176 0 278 93 278 252s-100 251 -273 251h-239zM654 549h-255v-549h-241v1443h508c304 0 491 -171 491 -449c0 -188 -102 -344 -262 -402l291 -592h-272zM642 -465c-79 0 -145 67 -145 148s66 149 145 149c80 0 146 -68 146 -149s-66 -148 -146 -148z
M932 1672h-696v166h696v-166z" />
    <glyph glyph-name="Rdblgrave" unicode="&#x210;" 
d="M639 1918l269 -312h-207l-290 312h228zM236 1918l269 -312h-207l-290 312h228zM654 549h-255v-549h-241v1443h508c304 0 491 -171 491 -449c0 -188 -102 -344 -262 -402l291 -592h-272zM399 1242v-503h234c176 0 278 93 278 252s-100 251 -273 251h-239z" />
    <glyph glyph-name="Rinvertedbreve" unicode="&#x212;" 
d="M386 1599h-172c0 191 147 324 370 324s370 -133 370 -324h-172c-1 107 -82 179 -198 179c-117 0 -197 -72 -198 -179zM654 549h-255v-549h-241v1443h508c304 0 491 -171 491 -449c0 -188 -102 -344 -262 -402l291 -592h-272zM399 1242v-503h234c176 0 278 93 278 252
s-100 251 -273 251h-239z" />
    <glyph glyph-name="Racute" unicode="&#x154;" 
d="M399 1242v-503h234c176 0 278 93 278 252s-100 251 -273 251h-239zM654 549h-255v-549h-241v1443h508c304 0 491 -171 491 -449c0 -188 -102 -344 -262 -402l291 -592h-272zM453 1606l286 312h260l-316 -312h-230z" />
    <glyph glyph-name="Rdotbelow" unicode="&#x1e5a;" 
d="M399 1242v-503h234c176 0 278 93 278 252s-100 251 -273 251h-239zM654 549h-255v-549h-241v1443h508c304 0 491 -171 491 -449c0 -188 -102 -344 -262 -402l291 -592h-272zM642 -465c-79 0 -145 67 -145 148s66 149 145 149c80 0 146 -68 146 -149s-66 -148 -146 -148z
" />
    <glyph glyph-name="Rdotaccent" unicode="&#x1e58;" 
d="M399 1242v-503h234c176 0 278 93 278 252s-100 251 -273 251h-239zM654 549h-255v-549h-241v1443h508c304 0 491 -171 491 -449c0 -188 -102 -344 -262 -402l291 -592h-272zM584 1615c-79 0 -146 67 -146 148c0 82 67 149 146 149s145 -67 145 -149
c0 -81 -66 -148 -145 -148z" />
    <glyph glyph-name="Rcommaaccent" unicode="&#x156;" 
d="M399 1242v-503h234c176 0 278 93 278 252s-100 251 -273 251h-239zM654 549h-255v-549h-241v1443h508c304 0 491 -171 491 -449c0 -188 -102 -344 -262 -402l291 -592h-272zM640 -503h-208l123 357h236z" />
    <glyph glyph-name="S" unicode="S" 
d="M112 396h231c14 -139 126 -221 302 -221c170 0 279 85 279 218c0 109 -72 171 -250 213l-139 33c-264 63 -390 196 -390 408c0 259 194 425 497 425c290 0 487 -164 496 -414h-230c-13 132 -112 210 -264 210c-160 0 -257 -75 -257 -200c0 -111 70 -174 239 -213l139 -33
c279 -65 399 -189 399 -408c0 -274 -200 -443 -523 -443c-316 0 -517 161 -529 425z" />
    <glyph glyph-name="Scaron" unicode="&#x160;" 
d="M1034 1925l-283 -324h-218l-282 324h220l163 -196h16l164 196h220zM112 396h231c14 -139 126 -221 302 -221c170 0 279 85 279 218c0 109 -72 171 -250 213l-139 33c-264 63 -390 196 -390 408c0 259 194 425 497 425c290 0 487 -164 496 -414h-230
c-13 132 -112 210 -264 210c-160 0 -257 -75 -257 -200c0 -111 70 -174 239 -213l139 -33c279 -65 399 -189 399 -408c0 -274 -200 -443 -523 -443c-316 0 -517 161 -529 425z" />
    <glyph glyph-name="Scedilla" unicode="&#x15e;" 
d="M626 855l139 -33c279 -65 399 -189 399 -408c0 -251 -168 -414 -445 -439l-38 -93c123 -4 190 -65 190 -173c0 -124 -95 -198 -252 -198c-52 0 -94 6 -136 17v126c21 -8 77 -14 116 -14c71 0 110 22 110 63c0 43 -39 60 -133 60h-58v104l45 107
c-271 25 -440 180 -451 422h231c14 -139 126 -221 302 -221c170 0 279 85 279 218c0 109 -72 171 -250 213l-139 33c-264 63 -390 196 -390 408c0 259 194 425 497 425c290 0 487 -164 496 -414h-230c-13 132 -112 210 -264 210c-160 0 -257 -75 -257 -200
c0 -111 70 -174 239 -213z" />
    <glyph glyph-name="Sdotaccent" unicode="&#x1e60;" 
d="M112 396h231c14 -139 126 -221 302 -221c170 0 279 85 279 218c0 109 -72 171 -250 213l-139 33c-264 63 -390 196 -390 408c0 259 194 425 497 425c290 0 487 -164 496 -414h-230c-13 132 -112 210 -264 210c-160 0 -257 -75 -257 -200c0 -111 70 -174 239 -213l139 -33
c279 -65 399 -189 399 -408c0 -274 -200 -443 -523 -443c-316 0 -517 161 -529 425zM642 1615c-79 0 -145 67 -145 148c0 82 66 149 145 149c80 0 146 -67 146 -149c0 -81 -66 -148 -146 -148z" />
    <glyph glyph-name="Sdotbelow" unicode="&#x1e62;" 
d="M112 396h231c14 -139 126 -221 302 -221c170 0 279 85 279 218c0 109 -72 171 -250 213l-139 33c-264 63 -390 196 -390 408c0 259 194 425 497 425c290 0 487 -164 496 -414h-230c-13 132 -112 210 -264 210c-160 0 -257 -75 -257 -200c0 -111 70 -174 239 -213l139 -33
c279 -65 399 -189 399 -408c0 -274 -200 -443 -523 -443c-316 0 -517 161 -529 425zM642 -456c-79 0 -145 67 -145 148c0 82 66 149 145 149c80 0 146 -67 146 -149c0 -81 -66 -148 -146 -148z" />
    <glyph glyph-name="Scommaaccent" unicode="&#x218;" 
d="M112 396h231c14 -139 126 -221 302 -221c170 0 279 85 279 218c0 109 -72 171 -250 213l-139 33c-264 63 -390 196 -390 408c0 259 194 425 497 425c290 0 487 -164 496 -414h-230c-13 132 -112 210 -264 210c-160 0 -257 -75 -257 -200c0 -111 70 -174 239 -213l139 -33
c279 -65 399 -189 399 -408c0 -274 -200 -443 -523 -443c-316 0 -517 161 -529 425zM640 -504h-209l123 357h236z" />
    <glyph glyph-name="Sdotbelowdotaccent" unicode="&#x1e68;" 
d="M112 396h231c14 -139 126 -221 302 -221c170 0 279 85 279 218c0 109 -72 171 -250 213l-139 33c-264 63 -390 196 -390 408c0 259 194 425 497 425c290 0 487 -164 496 -414h-230c-13 132 -112 210 -264 210c-160 0 -257 -75 -257 -200c0 -111 70 -174 239 -213l139 -33
c279 -65 399 -189 399 -408c0 -274 -200 -443 -523 -443c-316 0 -517 161 -529 425zM642 -466c-79 0 -145 67 -145 149c0 81 66 148 145 148c80 0 146 -67 146 -148c0 -82 -66 -149 -146 -149zM642 1615c-79 0 -145 67 -145 148c0 82 66 149 145 149c80 0 146 -67 146 -149
c0 -81 -66 -148 -146 -148z" />
    <glyph glyph-name="Scarondotaccent" unicode="&#x1e66;" 
d="M112 396h231c14 -139 126 -221 302 -221c170 0 279 85 279 218c0 109 -72 171 -250 213l-139 33c-264 63 -390 196 -390 408c0 259 194 425 497 425c290 0 487 -164 496 -414h-230c-13 132 -112 210 -264 210c-160 0 -257 -75 -257 -200c0 -111 70 -174 239 -213l139 -33
c279 -65 399 -189 399 -408c0 -274 -200 -443 -523 -443c-316 0 -517 161 -529 425zM642 1892c-79 0 -137 57 -137 133s58 132 137 132s137 -56 137 -132s-58 -133 -137 -133zM760 1579h-235l-278 254h230l157 -146h17l157 146h229z" />
    <glyph glyph-name="Scircumflex" unicode="&#x15c;" 
d="M112 396h231c14 -139 126 -221 302 -221c170 0 279 85 279 218c0 109 -72 171 -250 213l-139 33c-264 63 -390 196 -390 408c0 259 194 425 497 425c290 0 487 -164 496 -414h-230c-13 132 -112 210 -264 210c-160 0 -257 -75 -257 -200c0 -111 70 -174 239 -213l139 -33
c279 -65 399 -189 399 -408c0 -274 -200 -443 -523 -443c-316 0 -517 161 -529 425zM751 1930l283 -324h-220l-164 196h-16l-163 -196h-220l282 324h218z" />
    <glyph glyph-name="Sacutedotaccent" unicode="&#x1e64;" 
d="M112 396h231c14 -139 126 -221 302 -221c170 0 279 85 279 218c0 109 -72 171 -250 213l-139 33c-264 63 -390 196 -390 408c0 259 194 425 497 425c290 0 487 -164 496 -414h-230c-13 132 -112 210 -264 210c-160 0 -257 -75 -257 -200c0 -111 70 -174 239 -213l139 -33
c279 -65 399 -189 399 -408c0 -274 -200 -443 -523 -443c-316 0 -517 161 -529 425zM616 1606l286 312h260l-316 -312h-230zM448 1651c-79 0 -146 67 -146 149c0 81 67 148 146 148s145 -67 145 -148c0 -82 -66 -149 -145 -149z" />
    <glyph glyph-name="Sacute" unicode="&#x15a;" 
d="M112 396h231c14 -139 126 -221 302 -221c170 0 279 85 279 218c0 109 -72 171 -250 213l-139 33c-264 63 -390 196 -390 408c0 259 194 425 497 425c290 0 487 -164 496 -414h-230c-13 132 -112 210 -264 210c-160 0 -257 -75 -257 -200c0 -111 70 -174 239 -213l139 -33
c279 -65 399 -189 399 -408c0 -274 -200 -443 -523 -443c-316 0 -517 161 -529 425zM511 1606l287 312h260l-316 -312h-231z" />
    <glyph glyph-name="T" unicode="T" 
d="M754 0h-242v1232h-422v211h1086v-211h-422v-1232z" />
    <glyph glyph-name="Tcircumflexbelow" unicode="&#x1e70;" 
d="M754 0h-242v1232h-422v211h1086v-211h-422v-1232zM506 -162h254l270 -351h-234l-155 216h-16l-155 -216h-234z" />
    <glyph glyph-name="Tdotbelow" unicode="&#x1e6c;" 
d="M754 0h-242v1232h-422v211h1086v-211h-422v-1232zM633 -466c-79 0 -146 67 -146 149c0 81 67 148 146 148s146 -67 146 -148c0 -82 -67 -149 -146 -149z" />
    <glyph glyph-name="Tcommaaccent" unicode="&#x21a;" 
d="M754 0h-242v1232h-422v211h1086v-211h-422v-1232zM621 -504h-208l123 357h236z" />
    <glyph glyph-name="Tdotaccent" unicode="&#x1e6a;" 
d="M754 0h-242v1232h-422v211h1086v-211h-422v-1232zM633 1615c-79 0 -146 67 -146 148c0 82 67 149 146 149s146 -67 146 -149c0 -81 -67 -148 -146 -148z" />
    <glyph glyph-name="Tcedilla" unicode="&#x162;" 
d="M754 0h-34l-49 -118c124 -4 191 -65 191 -173c0 -124 -95 -198 -252 -198c-53 0 -95 6 -136 17v126c21 -8 77 -14 115 -14c72 0 111 22 111 63c0 43 -39 60 -133 60h-58v104l56 133h-53v1232h-422v211h1086v-211h-422v-1232z" />
    <glyph glyph-name="Tlinebelow" unicode="&#x1e6e;" 
d="M754 0h-242v1232h-422v211h1086v-211h-422v-1232zM981 -407h-696v166h696v-166z" />
    <glyph glyph-name="Tcaron" unicode="&#x164;" 
d="M1025 1925l-283 -324h-218l-283 324h221l163 -196h16l163 196h221zM754 0h-242v1232h-422v211h1086v-211h-422v-1232z" />
    <glyph glyph-name="Tbar" unicode="&#x166;" 
d="M1176 1232h-422v-436h289v-179h-289v-617h-242v617h-289v179h289v436h-422v211h1086v-211z" />
    <glyph glyph-name="U" unicode="U" 
d="M633 189c181 0 284 120 284 332v922h241v-936c0 -337 -195 -536 -525 -536s-525 199 -525 536v936h241v-922c0 -212 103 -332 284 -332z" />
    <glyph glyph-name="Ugrave" unicode="&#xd9;" 
d="M475 1918l286 -312h-230l-316 312h260zM349 1443v-922c0 -212 103 -332 284 -332s284 120 284 332v922h241v-936c0 -337 -195 -536 -525 -536s-525 199 -525 536v936h241z" />
    <glyph glyph-name="Udblgrave" unicode="&#x214;" 
d="M687 1918l269 -312h-207l-291 312h229zM283 1918l270 -312h-207l-290 312h227zM349 1443v-922c0 -212 103 -332 284 -332s284 120 284 332v922h241v-936c0 -337 -195 -536 -525 -536s-525 199 -525 536v936h241z" />
    <glyph glyph-name="Uacute" unicode="&#xda;" 
d="M633 189c181 0 284 120 284 332v922h241v-936c0 -337 -195 -536 -525 -536s-525 199 -525 536v936h241v-922c0 -212 103 -332 284 -332zM501 1606l286 312h260l-316 -312h-230z" />
    <glyph glyph-name="Uhungarumlaut" unicode="&#x170;" 
d="M633 189c181 0 284 120 284 332v922h241v-936c0 -337 -195 -536 -525 -536s-525 199 -525 536v936h241v-922c0 -212 103 -332 284 -332zM684 1606l269 312h228l-290 -312h-207zM281 1606l269 312h228l-290 -312h-207z" />
    <glyph glyph-name="Ucircumflex" unicode="&#xdb;" 
d="M633 189c181 0 284 120 284 332v922h241v-936c0 -337 -195 -536 -525 -536s-525 199 -525 536v936h241v-922c0 -212 103 -332 284 -332zM740 1930l283 -324h-220l-164 196h-15l-164 -196h-220l282 324h218z" />
    <glyph glyph-name="Ucaron" unicode="&#x1d3;" 
d="M1023 1925l-283 -324h-218l-282 324h220l164 -196h15l164 196h220zM349 1443v-922c0 -212 103 -332 284 -332s284 120 284 332v922h241v-936c0 -337 -195 -536 -525 -536s-525 199 -525 536v936h241z" />
    <glyph glyph-name="Ucircumflexbelow" unicode="&#x1e76;" 
d="M633 189c181 0 284 120 284 332v922h241v-936c0 -337 -195 -536 -525 -536s-525 199 -525 536v936h241v-922c0 -212 103 -332 284 -332zM505 -162h253l270 -351h-234l-154 216h-17l-155 -216h-233z" />
    <glyph glyph-name="Udieresis" unicode="&#xdc;" 
d="M633 189c181 0 284 120 284 332v922h241v-936c0 -337 -195 -536 -525 -536s-525 199 -525 536v936h241v-922c0 -212 103 -332 284 -332zM412 1633c-73 0 -135 63 -135 138c0 76 62 139 135 139s135 -63 135 -139c0 -75 -62 -138 -135 -138zM851 1633
c-73 0 -136 63 -136 138c0 76 63 139 136 139s135 -63 135 -139c0 -75 -62 -138 -135 -138z" />
    <glyph glyph-name="Udieresisgrave" unicode="&#x1db;" 
d="M418 1564c-70 0 -128 59 -128 132s58 132 128 132c71 0 129 -59 129 -132s-58 -132 -129 -132zM847 1564c-70 0 -128 59 -128 132s58 132 128 132c71 0 128 -59 128 -132s-57 -132 -128 -132zM581 2130l182 -234h-206l-217 234h241zM349 1443v-922
c0 -212 103 -332 284 -332s284 120 284 332v922h241v-936c0 -337 -195 -536 -525 -536s-525 199 -525 536v936h241z" />
    <glyph glyph-name="Udieresisacute" unicode="&#x1d7;" 
d="M633 189c181 0 284 120 284 332v922h241v-936c0 -337 -195 -536 -525 -536s-525 199 -525 536v936h241v-922c0 -212 103 -332 284 -332zM502 1896l182 234h241l-217 -234h-206zM417 1564c-70 0 -128 59 -128 132s58 132 128 132c71 0 129 -59 129 -132
s-58 -132 -129 -132zM846 1564c-70 0 -128 59 -128 132s58 132 128 132c71 0 129 -59 129 -132s-58 -132 -129 -132z" />
    <glyph glyph-name="Udieresismacron" unicode="&#x1d5;" 
d="M847 1828c71 0 128 -59 128 -132s-57 -132 -128 -132c-70 0 -128 59 -128 132s58 132 128 132zM280 1953v148h704v-148h-704zM418 1828c71 0 129 -59 129 -132s-58 -132 -129 -132c-70 0 -128 59 -128 132s58 132 128 132zM349 1443v-922c0 -212 103 -332 284 -332
s284 120 284 332v922h241v-936c0 -337 -195 -536 -525 -536s-525 199 -525 536v936h241z" />
    <glyph glyph-name="Udieresiscaron" unicode="&#x1d9;" 
d="M633 189c181 0 284 120 284 332v922h241v-936c0 -337 -195 -536 -525 -536s-525 199 -525 536v936h241v-922c0 -212 103 -332 284 -332zM742 1881h-221l-278 276h224l156 -162h17l156 162h224zM417 1564c-70 0 -128 59 -128 132s58 132 128 132c71 0 129 -59 129 -132
s-58 -132 -129 -132zM846 1564c-70 0 -128 59 -128 132s58 132 128 132c71 0 129 -59 129 -132s-58 -132 -129 -132z" />
    <glyph glyph-name="Udieresisbelow" unicode="&#x1e72;" 
d="M633 189c181 0 284 120 284 332v922h241v-936c0 -337 -195 -536 -525 -536s-525 199 -525 536v936h241v-922c0 -212 103 -332 284 -332zM412 -456c-73 0 -135 63 -135 139s62 139 135 139s135 -63 135 -139s-62 -139 -135 -139zM851 -456c-73 0 -136 63 -136 139
s63 139 136 139s135 -63 135 -139s-62 -139 -135 -139z" />
    <glyph glyph-name="Utildebelow" unicode="&#x1e74;" 
d="M633 189c181 0 284 120 284 332v922h241v-936c0 -337 -195 -536 -525 -536s-525 199 -525 536v936h241v-922c0 -212 103 -332 284 -332zM495 -320c-55 0 -83 -49 -83 -147h-167c0 190 95 311 244 311c151 0 197 -148 279 -148c56 0 83 48 83 144h167
c0 -188 -95 -309 -244 -309c-151 0 -197 149 -279 149z" />
    <glyph glyph-name="Uhookabove" unicode="&#x1ee6;" 
d="M633 189c181 0 284 120 284 332v922h241v-936c0 -337 -195 -536 -525 -536s-525 199 -525 536v936h241v-922c0 -212 103 -332 284 -332zM441 1826v133c33 13 88 25 145 25c135 0 228 -75 228 -193c0 -99 -69 -183 -179 -226l-79 99c60 22 102 63 102 106
c0 46 -41 77 -107 77c-42 0 -85 -9 -110 -21z" />
    <glyph glyph-name="Ubreve" unicode="&#x16c;" 
d="M633 189c181 0 284 120 284 332v922h241v-936c0 -337 -195 -536 -525 -536s-525 199 -525 536v936h241v-922c0 -212 103 -332 284 -332zM261 1923h172c1 -107 82 -180 198 -180c117 0 197 73 199 180h172c0 -191 -147 -324 -371 -324c-223 0 -370 133 -370 324z" />
    <glyph glyph-name="Uinvertedbreve" unicode="&#x216;" 
d="M433 1599h-172c0 191 147 324 370 324c224 0 371 -133 371 -324h-172c-2 107 -82 179 -199 179c-116 0 -197 -72 -198 -179zM349 1443v-922c0 -212 103 -332 284 -332s284 120 284 332v922h241v-936c0 -337 -195 -536 -525 -536s-525 199 -525 536v936h241z" />
    <glyph glyph-name="Utildeacute" unicode="&#x1e78;" 
d="M633 189c181 0 284 120 284 332v922h241v-936c0 -337 -195 -536 -525 -536s-525 199 -525 536v936h241v-922c0 -212 103 -332 284 -332zM539 1919l136 229h225l-161 -229h-200zM779 1556c-163 0 -181 127 -281 127c-54 0 -86 -38 -89 -116h-153c0 165 95 263 227 263
c163 0 182 -127 282 -127c51 0 86 36 89 114h153c0 -162 -96 -261 -228 -261z" />
    <glyph glyph-name="Udotbelow" unicode="&#x1ee4;" 
d="M633 189c181 0 284 120 284 332v922h241v-936c0 -337 -195 -536 -525 -536s-525 199 -525 536v936h241v-922c0 -212 103 -332 284 -332zM631 -466c-79 0 -145 67 -145 149c0 81 66 148 145 148c80 0 146 -67 146 -148c0 -82 -66 -149 -146 -149z" />
    <glyph glyph-name="Utilde" unicode="&#x168;" 
d="M633 189c181 0 284 120 284 332v922h241v-936c0 -337 -195 -536 -525 -536s-525 199 -525 536v936h241v-922c0 -212 103 -332 284 -332zM785 1604c-158 0 -191 146 -290 146c-56 0 -89 -43 -92 -136h-154c0 181 94 288 229 288c164 0 201 -146 290 -146
c54 0 89 42 93 134h152c0 -178 -94 -286 -228 -286z" />
    <glyph glyph-name="Umacron" unicode="&#x16a;" 
d="M633 189c181 0 284 120 284 332v922h241v-936c0 -337 -195 -536 -525 -536s-525 199 -525 536v936h241v-922c0 -212 103 -332 284 -332zM979 1672h-695v166h695v-166z" />
    <glyph glyph-name="Umacrondieresis" unicode="&#x1e7a;" 
d="M633 189c181 0 284 120 284 332v922h241v-936c0 -337 -195 -536 -525 -536s-525 199 -525 536v936h241v-922c0 -212 103 -332 284 -332zM417 1885c-70 0 -128 58 -128 132c0 73 58 132 128 132c71 0 129 -59 129 -132c0 -74 -58 -132 -129 -132zM279 1612v148h704v-148
h-704zM846 1885c-70 0 -128 58 -128 132c0 73 58 132 128 132c71 0 129 -59 129 -132c0 -74 -58 -132 -129 -132z" />
    <glyph glyph-name="Uring" unicode="&#x16e;" 
d="M633 189c181 0 284 120 284 332v922h241v-936c0 -337 -195 -536 -525 -536s-525 199 -525 536v936h241v-922c0 -212 103 -332 284 -332zM632 1553c-113 0 -199 85 -199 196s86 195 199 195c112 0 198 -84 198 -195s-86 -196 -198 -196zM631 1652c57 0 99 41 99 96
c0 56 -43 97 -99 97s-98 -41 -98 -97c0 -55 42 -96 98 -96z" />
    <glyph glyph-name="Uogonek" unicode="&#x172;" 
d="M861 -443c-150 0 -256 86 -256 208c0 84 43 151 136 214v16c-33 -14 -87 -24 -131 -24c-310 0 -502 205 -502 536v936h241v-922c0 -212 103 -332 284 -332s284 120 284 332v922h241v-936c0 -216 -66 -362 -212 -468c-108 -78 -154 -141 -154 -212c0 -72 47 -117 122 -117
c26 0 49 3 69 8v-142c-32 -12 -75 -19 -122 -19z" />
    <glyph glyph-name="Uhorn" unicode="&#x1af;" 
d="M624 -29c-326 0 -512 194 -512 536v936h242v-937c0 -203 98 -317 270 -317s270 114 270 317v937h209c60 0 93 29 93 82v177h189v-225c0 -125 -79 -199 -212 -199h-37v-771c0 -342 -187 -536 -512 -536z" />
    <glyph glyph-name="Uhorngrave" unicode="&#x1eea;" 
d="M1136 1278v-771c0 -342 -187 -536 -512 -536c-326 0 -512 194 -512 536v936h242v-937c0 -203 98 -317 270 -317s270 114 270 317v937h209c60 0 93 29 93 82v177h189v-225c0 -125 -79 -199 -212 -199h-37zM477 1918l286 -312h-230l-316 312h260z" />
    <glyph glyph-name="Uhornacute" unicode="&#x1ee8;" 
d="M443 1606l286 312h260l-316 -312h-230zM624 -29c-326 0 -512 194 -512 536v936h242v-937c0 -203 98 -317 270 -317s270 114 270 317v937h209c60 0 93 29 93 82v177h189v-225c0 -125 -79 -199 -212 -199h-37v-771c0 -342 -187 -536 -512 -536z" />
    <glyph glyph-name="Uhorndotbelow" unicode="&#x1ef0;" 
d="M633 -466c-79 0 -146 67 -146 149c0 81 67 148 146 148s146 -67 146 -148c0 -82 -67 -149 -146 -149zM624 -29c-326 0 -512 194 -512 536v936h242v-937c0 -203 98 -317 270 -317s270 114 270 317v937h209c60 0 93 29 93 82v177h189v-225c0 -125 -79 -199 -212 -199h-37
v-771c0 -342 -187 -536 -512 -536z" />
    <glyph glyph-name="Uhornhookabove" unicode="&#x1eec;" 
d="M443 1826v133c32 13 88 25 145 25c134 0 227 -75 227 -193c0 -99 -68 -183 -179 -226l-79 99c61 22 103 63 103 106c0 46 -41 77 -107 77c-43 0 -85 -9 -110 -21zM624 -29c-326 0 -512 194 -512 536v936h242v-937c0 -203 98 -317 270 -317s270 114 270 317v937h209
c60 0 93 29 93 82v177h189v-225c0 -125 -79 -199 -212 -199h-37v-771c0 -342 -187 -536 -512 -536z" />
    <glyph glyph-name="Uhorntilde" unicode="&#x1eee;" 
d="M787 1604c-159 0 -191 146 -291 146c-55 0 -89 -43 -92 -136h-153c0 181 93 288 228 288c164 0 201 -146 291 -146c54 0 89 42 93 134h152c0 -178 -94 -286 -228 -286zM624 -29c-326 0 -512 194 -512 536v936h242v-937c0 -203 98 -317 270 -317s270 114 270 317v937h209
c60 0 93 29 93 82v177h189v-225c0 -125 -79 -199 -212 -199h-37v-771c0 -342 -187 -536 -512 -536z" />
    <glyph glyph-name="V" unicode="V" 
d="M645 253l330 1190h242l-445 -1443h-278l-445 1443h258l328 -1190h10z" />
    <glyph glyph-name="Vtilde" unicode="&#x1e7c;" 
d="M645 253l330 1190h242l-445 -1443h-278l-445 1443h258l328 -1190h10zM787 1604c-159 0 -191 146 -291 146c-55 0 -89 -43 -92 -136h-153c0 181 93 288 228 288c164 0 201 -146 291 -146c54 0 89 42 93 134h152c0 -178 -94 -286 -228 -286z" />
    <glyph glyph-name="Vdotbelow" unicode="&#x1e7e;" 
d="M645 253l330 1190h242l-445 -1443h-278l-445 1443h258l328 -1190h10zM633 -466c-79 0 -146 67 -146 149c0 81 67 148 146 148s146 -67 146 -148c0 -82 -67 -149 -146 -149z" />
    <glyph glyph-name="W" unicode="W" 
d="M640 869h-14l-176 -869h-216l-234 1443h222l70 -531l68 -583h14l161 784h196l161 -784h14l68 583l70 531h222l-234 -1443h-216z" />
    <glyph glyph-name="Wgrave" unicode="&#x1e80;" 
d="M477 1918l287 -312h-231l-316 312h260zM640 869h-14l-176 -869h-216l-234 1443h222l70 -531l68 -583h14l161 784h196l161 -784h14l68 583l70 531h222l-234 -1443h-216z" />
    <glyph glyph-name="Wacute" unicode="&#x1e82;" 
d="M640 869h-14l-176 -869h-216l-234 1443h222l70 -531l68 -583h14l161 784h196l161 -784h14l68 583l70 531h222l-234 -1443h-216zM503 1606l286 312h260l-316 -312h-230z" />
    <glyph glyph-name="Wdotaccent" unicode="&#x1e86;" 
d="M640 869h-14l-176 -869h-216l-234 1443h222l70 -531l68 -583h14l161 784h196l161 -784h14l68 583l70 531h222l-234 -1443h-216zM633 1615c-79 0 -145 67 -145 148c0 82 66 149 145 149c80 0 146 -67 146 -149c0 -81 -66 -148 -146 -148z" />
    <glyph glyph-name="Wdotbelow" unicode="&#x1e88;" 
d="M640 869h-14l-176 -869h-216l-234 1443h222l70 -531l68 -583h14l161 784h196l161 -784h14l68 583l70 531h222l-234 -1443h-216zM633 -466c-79 0 -146 67 -146 149c0 81 67 148 146 148s146 -67 146 -148c0 -82 -67 -149 -146 -149z" />
    <glyph glyph-name="Wdieresis" unicode="&#x1e84;" 
d="M640 869h-14l-176 -869h-216l-234 1443h222l70 -531l68 -583h14l161 784h196l161 -784h14l68 583l70 531h222l-234 -1443h-216zM414 1633c-73 0 -135 63 -135 138c0 76 62 139 135 139s135 -63 135 -139c0 -75 -62 -138 -135 -138zM853 1633c-73 0 -135 63 -135 138
c0 76 62 139 135 139s135 -63 135 -139c0 -75 -62 -138 -135 -138z" />
    <glyph glyph-name="Wcircumflex" unicode="&#x174;" 
d="M640 869h-14l-176 -869h-216l-234 1443h222l70 -531l68 -583h14l161 784h196l161 -784h14l68 583l70 531h222l-234 -1443h-216zM743 1930l282 -324h-220l-164 196h-15l-164 -196h-220l282 324h219z" />
    <glyph glyph-name="X" unicode="X" 
d="M47 0l439 726l-437 717h268l318 -543h11l321 543h252l-449 -721l445 -722h-261l-325 530h-11l-327 -530h-244z" />
    <glyph glyph-name="Xdotaccent" unicode="&#x1e8a;" 
d="M47 0l439 726l-437 717h268l318 -543h11l321 543h252l-449 -721l445 -722h-261l-325 530h-11l-327 -530h-244zM633 1615c-79 0 -146 67 -146 148c0 82 67 149 146 149s146 -67 146 -149c0 -81 -67 -148 -146 -148z" />
    <glyph glyph-name="Xdieresis" unicode="&#x1e8c;" 
d="M47 0l439 726l-437 717h268l318 -543h11l321 543h252l-449 -721l445 -722h-261l-325 530h-11l-327 -530h-244zM414 1633c-73 0 -136 63 -136 138c0 76 63 139 136 139s135 -63 135 -139c0 -75 -62 -138 -135 -138zM852 1633c-73 0 -135 63 -135 138c0 76 62 139 135 139
s136 -63 136 -139c0 -75 -63 -138 -136 -138z" />
    <glyph glyph-name="Y" unicode="Y" 
d="M754 0h-242v559l-470 884h264l319 -634h16l319 634h264l-470 -884v-559z" />
    <glyph glyph-name="Ygrave" unicode="&#x1ef2;" 
d="M481 1918l287 -312h-231l-316 312h260zM754 0h-242v559l-470 884h264l319 -634h16l319 634h264l-470 -884v-559z" />
    <glyph glyph-name="Yacute" unicode="&#xdd;" 
d="M754 0h-242v559l-470 884h264l319 -634h16l319 634h264l-470 -884v-559zM498 1606l286 312h260l-316 -312h-230z" />
    <glyph glyph-name="Ydotaccent" unicode="&#x1e8e;" 
d="M754 0h-242v559l-470 884h264l319 -634h16l319 634h264l-470 -884v-559zM633 1615c-79 0 -146 67 -146 148c0 82 67 149 146 149s146 -67 146 -149c0 -81 -67 -148 -146 -148z" />
    <glyph glyph-name="Ydotbelow" unicode="&#x1ef4;" 
d="M754 0h-242v559l-470 884h264l319 -634h16l319 634h264l-470 -884v-559zM633 -466c-79 0 -146 67 -146 149c0 81 67 148 146 148s146 -67 146 -148c0 -82 -67 -149 -146 -149z" />
    <glyph glyph-name="Ydieresis" unicode="&#x178;" 
d="M754 0h-242v559l-470 884h264l319 -634h16l319 634h264l-470 -884v-559zM414 1633c-73 0 -136 63 -136 138c0 76 63 139 136 139s135 -63 135 -139c0 -75 -62 -138 -135 -138zM852 1633c-73 0 -135 63 -135 138c0 76 62 139 135 139s136 -63 136 -139
c0 -75 -63 -138 -136 -138z" />
    <glyph glyph-name="Ytilde" unicode="&#x1ef8;" 
d="M754 0h-242v559l-470 884h264l319 -634h16l319 634h264l-470 -884v-559zM787 1604c-159 0 -191 146 -291 146c-55 0 -89 -43 -92 -136h-153c0 181 93 288 228 288c164 0 201 -146 291 -146c54 0 89 42 93 134h152c0 -178 -94 -286 -228 -286z" />
    <glyph glyph-name="Ycircumflex" unicode="&#x176;" 
d="M754 0h-242v559l-470 884h264l319 -634h16l319 634h264l-470 -884v-559zM742 1930l283 -324h-221l-163 196h-16l-163 -196h-221l283 324h218z" />
    <glyph glyph-name="Ymacron" unicode="&#x232;" 
d="M754 0h-242v559l-470 884h264l319 -634h16l319 634h264l-470 -884v-559zM981 1672h-696v166h696v-166z" />
    <glyph glyph-name="Yhookabove" unicode="&#x1ef6;" 
d="M754 0h-242v559l-470 884h264l319 -634h16l319 634h264l-470 -884v-559zM443 1826v133c32 13 88 25 145 25c134 0 227 -75 227 -193c0 -99 -68 -183 -179 -226l-79 99c61 22 103 63 103 106c0 46 -41 77 -107 77c-43 0 -85 -9 -110 -21z" />
    <glyph glyph-name="Z" unicode="Z" 
d="M134 0v167l697 1050v15h-676v211h976v-167l-696 -1050v-15h712v-211h-1013z" />
    <glyph glyph-name="Zacute" unicode="&#x179;" 
d="M134 0v167l697 1050v15h-676v211h976v-167l-696 -1050v-15h712v-211h-1013zM510 1606l286 312h260l-316 -312h-230z" />
    <glyph glyph-name="Zcaron" unicode="&#x17d;" 
d="M1032 1925l-282 -324h-219l-282 324h220l164 -196h15l164 196h220zM134 0v167l697 1050v15h-676v211h976v-167l-696 -1050v-15h712v-211h-1013z" />
    <glyph glyph-name="Zcircumflex" unicode="&#x1e90;" 
d="M134 0v167l697 1050v15h-676v211h976v-167l-696 -1050v-15h712v-211h-1013zM750 1930l282 -324h-220l-164 196h-15l-164 -196h-220l282 324h219z" />
    <glyph glyph-name="Zlinebelow" unicode="&#x1e94;" 
d="M134 0v167l697 1050v15h-676v211h976v-167l-696 -1050v-15h712v-211h-1013zM981 -407h-696v166h696v-166z" />
    <glyph glyph-name="Zdotbelow" unicode="&#x1e92;" 
d="M134 0v167l697 1050v15h-676v211h976v-167l-696 -1050v-15h712v-211h-1013zM633 -466c-79 0 -146 67 -146 149c0 81 67 148 146 148s146 -67 146 -148c0 -82 -67 -149 -146 -149z" />
    <glyph glyph-name="Zdotaccent" unicode="&#x17b;" 
d="M134 0v167l697 1050v15h-676v211h976v-167l-696 -1050v-15h712v-211h-1013zM641 1615c-80 0 -146 67 -146 148c0 82 66 149 146 149c79 0 145 -67 145 -149c0 -81 -66 -148 -145 -148z" />
    <glyph glyph-name="AE" unicode="&#xc6;" 
d="M384 589h238v628h-89zM1242 1233h-400v-407h364v-199h-364v-416h400v-211h-620v387h-285l-92 -387h-242l380 1443h859v-210z" />
    <glyph glyph-name="AEmacron" unicode="&#x1e2;" 
d="M1156 1838v-166h-695v166h695zM384 589h238v628h-89zM1242 1233h-400v-407h364v-199h-364v-416h400v-211h-620v387h-285l-92 -387h-242l380 1443h859v-210z" />
    <glyph glyph-name="AEacute" unicode="&#x1fc;" 
d="M1224 1918l-316 -312h-230l286 312h260zM384 589h238v628h-89zM1242 1233h-400v-407h364v-199h-364v-416h400v-211h-620v387h-285l-92 -387h-242l380 1443h859v-210z" />
    <glyph glyph-name="OE" unicode="&#x152;" 
d="M259 810v-177c0 -295 58 -416 200 -416c145 0 206 128 206 432v146c0 303 -61 431 -206 431c-142 0 -200 -121 -200 -416zM675 205c-39 -163 -127 -239 -286 -239c-245 0 -358 204 -358 645v221c0 442 113 645 358 645c157 0 245 -77 286 -244h15v210h570v-221h-378v-385
h343v-211h-343v-406h378v-220h-570v205h-15z" />
    <glyph glyph-name="Eth" unicode="&#xd0;" 
d="M378 211h168c272 0 398 161 398 514c0 343 -128 507 -398 507h-168v-401h246v-199h-246v-421zM136 1443h440c406 0 615 -243 615 -714c0 -483 -207 -729 -615 -729h-440v632h-127v199h127v612z" />
    <glyph glyph-name="Thorn" unicode="&#xde;" 
d="M177 1443h253v-243h290c270 0 446 -182 446 -446s-182 -447 -456 -447h-280v-307h-253v1443zM430 982v-459h220c172 0 257 79 257 230s-85 229 -257 229h-220z" />
    <glyph glyph-name="Alphagreek" unicode="&#x391;" 
d="M449 571h352l-170 619h-10zM958 0l-104 379h-458l-105 -379h-242l445 1443h278l445 -1443h-259z" />
    <glyph glyph-name="Betagreek" unicode="&#x392;" 
d="M677 0h-516v1443h506c273 0 437 -134 437 -358c0 -157 -107 -288 -255 -312v-16c192 -16 325 -160 325 -349c0 -253 -187 -408 -497 -408zM399 1252v-415h188c176 0 274 74 274 205c0 135 -92 210 -256 210h-206zM399 194h210c210 0 314 76 314 233
c0 151 -107 228 -318 228h-206v-461z" />
    <glyph glyph-name="Gammagreek" unicode="&#x393;" 
d="M240 0v1443h887v-211h-645l-1 -1232h-241z" />
    <glyph glyph-name="Deltagreek" unicode="&#x394;" 
d="M71 0v147l423 1296h278l423 -1296v-147h-1124zM325 211h601v15l-295 969h-10l-296 -969v-15z" />
    <glyph glyph-name="Deltagreek" unicode="&#x2206;" 
d="M71 0v147l423 1296h278l423 -1296v-147h-1124zM325 211h601v15l-295 969h-10l-296 -969v-15z" />
    <glyph glyph-name="Epsilongreek" unicode="&#x395;" 
d="M1098 211v-211h-887v1443h887v-211h-645v-402h608v-197h-608v-422h645z" />
    <glyph glyph-name="Zetagreek" unicode="&#x396;" 
d="M134 0v167l697 1050v15h-676v211h976v-167l-696 -1050v-15h712v-211h-1013z" />
    <glyph glyph-name="Etagreek" unicode="&#x397;" 
d="M1134 0h-238v629h-526v-629h-238v1443h238v-603h526v603h238v-1443z" />
    <glyph glyph-name="Thetagreek" unicode="&#x398;" 
d="M633 187c204 0 327 157 327 424v221c0 267 -123 424 -327 424s-327 -157 -327 -424v-221c0 -267 123 -424 327 -424zM1188 609c0 -398 -209 -638 -555 -638s-555 240 -555 638v225c0 398 209 638 555 638s555 -240 555 -638v-225zM419 615v208h428v-208h-428z" />
    <glyph glyph-name="Iotagreek" unicode="&#x399;" 
d="M1050 0h-834v208h296v1027h-296v208h834v-208h-296v-1027h296v-208z" />
    <glyph glyph-name="Kappagreek" unicode="&#x39a;" 
d="M412 0h-231v1443h231v-682h15l536 682h263l-512 -637l552 -806h-287l-430 630l-137 -169v-461z" />
    <glyph glyph-name="Lambdagreek" unicode="&#x39b;" 
d="M60 0l434 1443h278l434 -1443h-259l-316 1180h-10l-319 -1180h-242z" />
    <glyph glyph-name="Mugreek" unicode="&#x39c;" 
d="M298 508v-508h-206v1443h254l280 -854h15l278 854h255v-1443h-206v508l25 580h-17l-257 -749h-172l-257 749h-17z" />
    <glyph glyph-name="Nugreek" unicode="&#x39d;" 
d="M349 0h-212v1443h220l544 -1028h16v1028h212v-1443h-219l-545 1032h-16v-1032z" />
    <glyph glyph-name="Xigreek" unicode="&#x39e;" 
d="M150 0v217h966v-217h-966zM232 620v215h802v-215h-802zM150 1226v217h966v-217h-966z" />
    <glyph glyph-name="Omicrongreek" unicode="&#x39f;" 
d="M1178 609c0 -401 -206 -638 -545 -638s-545 237 -545 638v225c0 401 206 638 545 638s545 -237 545 -638v-225zM633 187c192 0 300 146 300 424v221c0 278 -108 424 -300 424s-300 -146 -300 -424v-221c0 -278 108 -424 300 -424z" />
    <glyph glyph-name="Pigreek" unicode="&#x3a0;" 
d="M139 0v1443h988v-1443h-242v1232h-504v-1232h-242z" />
    <glyph glyph-name="Rhogreek" unicode="&#x3a1;" 
d="M168 1443h509c294 0 483 -188 483 -481c0 -291 -193 -479 -493 -479h-257v-483h-242v1443zM410 1241v-556h207c195 0 298 95 298 278s-103 278 -298 278h-207z" />
    <glyph glyph-name="Sigmagreek" unicode="&#x3a3;" 
d="M127 0v159l366 567l-346 531v186h942v-211h-637v-15l296 -467v-32l-318 -492v-15h678v-211h-981z" />
    <glyph glyph-name="Taugreek" unicode="&#x3a4;" 
d="M754 0h-242v1232h-422v211h1086v-211h-422v-1232z" />
    <glyph glyph-name="Upsilongreek" unicode="&#x3a5;" 
d="M754 0h-242v559l-470 884h264l319 -634h16l319 634h264l-470 -884v-559z" />
    <glyph glyph-name="Phigreek" unicode="&#x3a6;" 
d="M526 -95v161c-309 15 -477 245 -477 650c0 404 168 634 477 650v159h214v-159c309 -16 477 -246 477 -650c0 -405 -168 -635 -477 -650v-161h-214zM533 248v937c-186 -16 -279 -171 -279 -469c0 -299 93 -453 279 -468zM733 248c186 15 279 169 279 468
c0 296 -93 453 -279 469v-937z" />
    <glyph glyph-name="Chigreek" unicode="&#x3a7;" 
d="M47 0l439 726l-437 717h268l318 -543h11l321 543h252l-449 -721l445 -722h-261l-325 530h-11l-327 -530h-244z" />
    <glyph glyph-name="Psigreek" unicode="&#x3a8;" 
d="M518 0v314c-322 20 -440 160 -440 550v579h208v-560c0 -284 57 -367 243 -377v937h208v-937c186 10 243 93 243 377v560h208v-579c0 -390 -119 -531 -439 -550v-314h-231z" />
    <glyph glyph-name="Omegagreek" unicode="&#x3a9;" 
d="M633 1472c374 0 587 -242 587 -668c0 -265 -106 -466 -304 -584v-15h310v-205h-529v262c201 106 287 261 287 525c0 311 -116 469 -351 469s-351 -158 -351 -469c0 -264 86 -419 287 -525v-262h-529v205h310v15c-198 118 -304 319 -304 584c0 426 213 668 587 668z" />
    <glyph glyph-name="Omegagreek" unicode="&#x2126;" 
d="M633 1472c374 0 587 -242 587 -668c0 -265 -106 -466 -304 -584v-15h310v-205h-529v262c201 106 287 261 287 525c0 311 -116 469 -351 469s-351 -158 -351 -469c0 -264 86 -419 287 -525v-262h-529v205h310v15c-198 118 -304 319 -304 584c0 426 213 668 587 668z" />
    <glyph glyph-name="Alphatonosgreek" unicode="&#x386;" 
d="M376 1443l-137 -361h-167l79 361h225zM532 571h284l-136 607h-10zM944 0l-85 379h-371l-86 -379h-238l378 1443h278l379 -1443h-255z" />
    <glyph glyph-name="Epsilontonosgreek" unicode="&#x388;" 
d="M1146 211v-211h-687v1443h687v-211h-454v-402h417v-197h-417v-422h454zM37 1082l80 361h224l-137 -361h-167z" />
    <glyph glyph-name="Etatonosgreek" unicode="&#x389;" 
d="M1189 0h-212v632h-336v-632h-212v1443h212v-606h336v606h212v-1443zM24 1082l80 361h224l-137 -361h-167z" />
    <glyph glyph-name="Iotatonosgreek" unicode="&#x38a;" 
d="M1184 0h-716v208h250v1027h-250v208h716v-208h-252v-1027h252v-208zM83 1082l80 361h224l-137 -361h-167z" />
    <glyph glyph-name="Iotatonosgreek.1" 
d="M915 0h-241v1443h241v-1443zM140 1082l80 361h224l-137 -361h-167z" />
    <glyph glyph-name="Iotadieresisgreek" unicode="&#x3aa;" 
d="M1050 0h-834v208h296v1027h-296v208h834v-208h-296v-1027h296v-208zM414 1633c-73 0 -136 63 -136 138c0 76 63 139 136 139s135 -63 135 -139c0 -75 -62 -138 -135 -138zM852 1633c-73 0 -135 63 -135 138c0 76 62 139 135 139s136 -63 136 -139
c0 -75 -63 -138 -136 -138z" />
    <glyph glyph-name="Omicrontonosgreek" unicode="&#x38c;" 
d="M1198 609c0 -422 -148 -638 -433 -638c-284 0 -432 216 -432 638v225c0 422 148 638 432 638c285 0 433 -216 433 -638v-225zM765 187c145 0 220 135 220 403v263c0 268 -75 403 -220 403c-144 0 -219 -135 -219 -403v-263c0 -268 75 -403 219 -403zM45 1082l80 361h224
l-136 -361h-168z" />
    <glyph glyph-name="Upsilontonosgreek" unicode="&#x38e;" 
d="M927 0h-223v549l-330 894h237l196 -634h16l196 634h236l-328 -894v-549zM29 1082l80 361h224l-137 -361h-167z" />
    <glyph glyph-name="Upsilondieresisgreek" unicode="&#x3ab;" 
d="M754 0h-242v559l-470 884h264l319 -634h16l319 634h264l-470 -884v-559zM414 1633c-73 0 -136 63 -136 138c0 76 63 139 136 139s135 -63 135 -139c0 -75 -62 -138 -135 -138zM852 1633c-73 0 -135 63 -135 138c0 76 62 139 135 139s136 -63 136 -139
c0 -75 -63 -138 -136 -138z" />
    <glyph glyph-name="Omegatonosgreek" unicode="&#x38f;" 
d="M751 1472c311 0 481 -233 481 -660c0 -294 -80 -509 -250 -609v-15h252v-188h-424v292c150 99 211 229 211 516c0 305 -88 448 -270 448s-270 -143 -270 -448c0 -288 61 -417 211 -516v-292h-424v188h252v15c-170 99 -250 315 -250 609c0 427 171 660 481 660zM4 1082
l80 361h224l-137 -361h-167z" />
    <glyph glyph-name="Acyrillic" unicode="&#x410;" 
d="M449 571h352l-170 619h-10zM958 0l-104 379h-458l-105 -379h-242l445 1443h278l445 -1443h-259z" />
    <glyph glyph-name="uni04D0" unicode="&#x4d0;" 
d="M795 1936h182c0 -196 -143 -329 -354 -329s-354 133 -354 329h182c2 -111 72 -186 172 -186s170 75 172 186zM449 571h352l-170 619h-10zM958 0l-104 379h-458l-105 -379h-242l445 1443h278l445 -1443h-259z" />
    <glyph glyph-name="uni04D2" unicode="&#x4d2;" 
d="M852 1633c-73 0 -135 63 -135 138c0 76 62 139 135 139s136 -63 136 -139c0 -75 -63 -138 -136 -138zM414 1633c-73 0 -136 63 -136 138c0 76 63 139 136 139s135 -63 135 -139c0 -75 -62 -138 -135 -138zM449 571h352l-170 619h-10zM958 0l-104 379h-458l-105 -379h-242
l445 1443h278l445 -1443h-259z" />
    <glyph glyph-name="uniF50E" 
d="M981 1838v-166h-696v166h696zM449 571h352l-170 619h-10zM958 0l-104 379h-458l-105 -379h-242l445 1443h278l445 -1443h-259z" />
    <glyph glyph-name="uniF460" 
d="M1048 1918l-316 -312h-230l286 312h260zM449 571h352l-170 619h-10zM958 0l-104 379h-458l-105 -379h-242l445 1443h278l445 -1443h-259z" />
    <glyph glyph-name="uni041B.BUL" 
d="M621 1190l-330 -1190h-242l445 1443h278l445 -1443h-258l-328 1190h-10z" />
    <glyph glyph-name="Becyrillic" unicode="&#x411;" 
d="M401 690v-485h243c180 0 285 88 285 242c0 153 -106 243 -285 243h-243zM401 885h294c286 0 481 -177 481 -439c0 -267 -191 -446 -473 -446h-544v1443h890v-211h-648v-347z" />
    <glyph glyph-name="Vecyrillic" unicode="&#x412;" 
d="M677 0h-516v1443h506c273 0 437 -134 437 -358c0 -157 -107 -288 -255 -312v-16c192 -16 325 -160 325 -349c0 -253 -187 -408 -497 -408zM399 1252v-415h188c176 0 274 74 274 205c0 135 -92 210 -256 210h-206zM399 194h210c210 0 314 76 314 233
c0 151 -107 228 -318 228h-206v-461z" />
    <glyph glyph-name="Gecyrillic" unicode="&#x413;" 
d="M1227 1443v-450h-218v242h-447v-1027h279v-208h-772v208h252v1027h-252v208h1158z" />
    <glyph glyph-name="Gjecyrillic" unicode="&#x403;" 
d="M1078 1918l-316 -312h-231l287 312h260zM1227 1443v-450h-218v242h-447v-1027h279v-208h-772v208h252v1027h-252v208h1158z" />
    <glyph glyph-name="uni04F6" unicode="&#x4f6;" 
d="M1227 1443v-450h-218v242h-447v-1027h279v-494h-227v286h-545v208h252v1027h-252v208h1158z" />
    <glyph glyph-name="Geupturncyrillic" unicode="&#x490;" 
d="M1018 1722h218v-729h-218v239h-478v-1021h248v-211h-723v211h232v1021h-232v211h953v279z" />
    <glyph glyph-name="uni0492" unicode="&#x492;" 
d="M1227 1443v-450h-218v242h-447v-411h296v-189h-296v-427h279v-208h-772v208h252v427h-263v189h263v411h-252v208h1158z" />
    <glyph glyph-name="uniF53C" 
d="M473 0h-242v1443h887v-211h-645v-434h588v-202h-588v-596z" />
    <glyph glyph-name="uni04FA" unicode="&#x4fa;" 
d="M1227 1443v-450h-218v239h-465v-408h325v-189h-325v-635c0 -238 -150 -341 -343 -341c-50 0 -96 3 -120 6v198c16 -2 45 -3 78 -3c99 0 142 52 142 140v635h-232v189h232v408h-232v211h1158z" />
    <glyph glyph-name="Decyrillic" unicode="&#x414;" 
d="M1025 0h-786v-285h-220v496h77c80 58 114 160 126 382l45 850h832v-1232h145v-496h-219v285zM481 1233l-36 -659c-10 -174 -36 -276 -85 -343v-20h498v1022h-377z" />
    <glyph glyph-name="uni0414.BUL" 
d="M621 1190l-256 -979h519l-253 979h-10zM1135 211h116v-496h-229v285h-778v-285h-229v496h116l363 1232h278z" />
    <glyph glyph-name="Iecyrillic" unicode="&#x415;" 
d="M1098 211v-211h-887v1443h887v-211h-645v-402h608v-197h-608v-422h645z" />
    <glyph glyph-name="Iocyrillic" unicode="&#x401;" 
d="M1098 211v-211h-887v1443h887v-211h-645v-402h608v-197h-608v-422h645zM435 1633c-73 0 -135 63 -135 138c0 76 62 139 135 139s135 -63 135 -139c0 -75 -62 -138 -135 -138zM874 1633c-73 0 -136 63 -136 138c0 76 63 139 136 139s135 -63 135 -139
c0 -75 -62 -138 -135 -138z" />
    <glyph glyph-name="uni04D6" unicode="&#x4d6;" 
d="M1098 211v-211h-887v1443h887v-211h-645v-402h608v-197h-608v-422h645zM294 1936h182c2 -111 72 -186 172 -186c101 0 171 75 173 186h182c0 -196 -143 -329 -355 -329c-211 0 -354 133 -354 329z" />
    <glyph glyph-name="uniF510" 
d="M1098 211v-211h-887v1443h887v-211h-645v-402h608v-197h-608v-422h645zM1002 1672h-696v166h696v-166z" />
    <glyph glyph-name="uniF512" 
d="M848 1876c71 0 128 -59 128 -132s-57 -132 -128 -132s-128 59 -128 132s57 132 128 132zM281 2001v148h704v-148h-704zM419 1876c71 0 128 -59 128 -132s-57 -132 -128 -132s-128 59 -128 132s57 132 128 132zM1098 211v-211h-887v1443h887v-211h-645v-402h608v-197h-608
v-422h645z" />
    <glyph glyph-name="uni0400" unicode="&#x400;" 
d="M498 1918l286 -312h-230l-316 312h260zM1098 211v-211h-887v1443h887v-211h-645v-402h608v-197h-608v-422h645z" />
    <glyph glyph-name="uniF461" 
d="M1098 211v-211h-887v1443h887v-211h-645v-402h608v-197h-608v-422h645zM514 1606l287 312h260l-316 -312h-231z" />
    <glyph glyph-name="uniF469" 
d="M1098 211v-211h-887v1443h887v-211h-645v-402h608v-197h-608v-422h645zM508 1572l25 363h262l-90 -363h-197zM297 1589c-70 0 -130 60 -130 132c0 73 60 133 130 133s130 -60 130 -133c0 -72 -60 -132 -130 -132zM982 1589c-70 0 -130 60 -130 132c0 73 60 133 130 133
s130 -60 130 -133c0 -72 -60 -132 -130 -132z" />
    <glyph glyph-name="uniF514" 
d="M288 2318h183c1 -111 71 -186 172 -186c100 0 170 75 172 186h182c0 -196 -143 -329 -354 -329c-212 0 -355 133 -355 329zM468 1608h-183c0 196 143 329 355 329c211 0 354 -133 354 -329h-182c-2 111 -72 187 -172 187c-101 0 -171 -76 -172 -187zM1098 211v-211h-887
v1443h887v-211h-645v-402h608v-197h-608v-422h645z" />
    <glyph glyph-name="Zhecyrillic" unicode="&#x416;" 
d="M208 0h-223l313 732l-286 711h218l239 -618h62v618h203v-618h62l238 618h217l-285 -710l315 -733h-224l-264 633h-59v-633h-203v633h-60z" />
    <glyph glyph-name="uni04C1" unicode="&#x4c1;" 
d="M208 0h-223l313 732l-286 711h218l239 -618h62v618h203v-618h62l238 618h217l-285 -710l315 -733h-224l-264 633h-59v-633h-203v633h-60zM279 1936h182c2 -111 72 -186 172 -186s170 75 172 186h182c0 -196 -143 -329 -354 -329s-354 133 -354 329z" />
    <glyph glyph-name="uni04DC" unicode="&#x4dc;" 
d="M208 0h-223l313 732l-286 711h218l239 -618h62v618h203v-618h62l238 618h217l-285 -710l315 -733h-224l-264 633h-59v-633h-203v633h-60zM414 1633c-73 0 -136 63 -136 138c0 76 63 139 136 139s135 -63 135 -139c0 -75 -62 -138 -135 -138zM852 1633
c-73 0 -135 63 -135 138c0 76 62 139 135 139s136 -63 136 -139c0 -75 -63 -138 -136 -138z" />
    <glyph glyph-name="uni0496" unicode="&#x496;" 
d="M1123 205h143v-490h-183v285h-88l-249 633h-56v-633h-191v633h-55l-249 -633h-210l295 732l-270 711h206l225 -618h58v618h191v-618h60l223 618h205l-268 -710z" />
    <glyph glyph-name="uni0416.BUL" 
d="M460 635l-269 -635h-205l355 806l-333 637h191l332 -660h10v660h183v-660h11l331 660h190l-331 -634l355 -809h-205l-270 635l-81 -156v-479h-183v479z" />
    <glyph glyph-name="Zecyrillic" unicode="&#x417;" 
d="M436 636v199h181c161 0 267 88 267 223c0 132 -103 216 -263 216s-268 -88 -277 -225h-225c11 259 208 423 509 423c288 0 487 -157 487 -385c0 -163 -106 -295 -267 -328v-16c199 -18 327 -151 327 -343c0 -250 -230 -429 -548 -429c-309 0 -525 172 -536 430h231
c9 -134 132 -223 308 -223c178 0 297 94 297 235s-113 223 -305 223h-186z" />
    <glyph glyph-name="uni04DE" unicode="&#x4de;" 
d="M436 636v199h181c161 0 267 88 267 223c0 132 -103 216 -263 216s-268 -88 -277 -225h-225c11 259 208 423 509 423c288 0 487 -157 487 -385c0 -163 -106 -295 -267 -328v-16c199 -18 327 -151 327 -343c0 -250 -230 -429 -548 -429c-309 0 -525 172 -536 430h231
c9 -134 132 -223 308 -223c178 0 297 94 297 235s-113 223 -305 223h-186zM400 1633c-73 0 -135 63 -135 138c0 76 62 139 135 139s135 -63 135 -139c0 -75 -62 -138 -135 -138zM839 1633c-73 0 -135 63 -135 138c0 76 62 139 135 139s135 -63 135 -139
c0 -75 -62 -138 -135 -138z" />
    <glyph glyph-name="uni0498" unicode="&#x498;" 
d="M848 759v-16c199 -18 327 -151 327 -343c0 -216 -171 -378 -422 -419v-267h-227v263c-254 34 -425 195 -435 424h231c9 -134 132 -223 308 -223c178 0 297 94 297 235s-113 223 -305 223h-186v199h181c161 0 267 88 267 223c0 132 -103 216 -263 216s-268 -88 -277 -225
h-225c11 259 208 423 509 423c288 0 487 -157 487 -385c0 -163 -106 -295 -267 -328z" />
    <glyph glyph-name="uniF50A" 
d="M848 759v-16c199 -18 327 -151 327 -343c0 -225 -187 -393 -457 -424l-39 -94c124 -4 191 -65 191 -173c0 -124 -96 -198 -253 -198c-52 0 -94 6 -136 17v126c22 -8 77 -14 116 -14c72 0 110 22 110 63c0 43 -38 60 -132 60h-59v104l46 107c-274 22 -461 188 -471 427
h231c9 -134 132 -223 308 -223c178 0 297 94 297 235s-113 223 -305 223h-186v199h181c161 0 267 88 267 223c0 132 -103 216 -263 216s-268 -88 -277 -225h-225c11 259 208 423 509 423c288 0 487 -157 487 -385c0 -163 -106 -295 -267 -328z" />
    <glyph glyph-name="uniF516" 
d="M1007 1925l-282 -324h-218l-283 324h220l164 -196h16l163 196h220zM436 636v199h181c161 0 267 88 267 223c0 132 -103 216 -263 216s-268 -88 -277 -225h-225c11 259 208 423 509 423c288 0 487 -157 487 -385c0 -163 -106 -295 -267 -328v-16
c199 -18 327 -151 327 -343c0 -250 -230 -429 -548 -429c-309 0 -525 172 -536 430h231c9 -134 132 -223 308 -223c178 0 297 94 297 235s-113 223 -305 223h-186z" />
    <glyph glyph-name="Iicyrillic" unicode="&#x418;" 
d="M135 1443h210v-1027h16l555 1027h215v-1443h-210v1023h-16l-556 -1023h-214v1443z" />
    <glyph glyph-name="Iishortcyrillic" unicode="&#x419;" 
d="M279 1936h182c2 -111 72 -186 172 -186s170 75 172 186h182c0 -196 -143 -329 -354 -329s-354 133 -354 329zM135 1443h210v-1027h16l555 1027h215v-1443h-210v1023h-16l-556 -1023h-214v1443z" />
    <glyph glyph-name="uni040D" unicode="&#x40d;" 
d="M486 1918l286 -312h-230l-316 312h260zM135 1443h210v-1027h16l555 1027h215v-1443h-210v1023h-16l-556 -1023h-214v1443z" />
    <glyph glyph-name="uni04E2" unicode="&#x4e2;" 
d="M975 1669h-695v166h695v-166zM135 1443h210v-1027h16l555 1027h215v-1443h-210v1023h-16l-556 -1023h-214v1443z" />
    <glyph glyph-name="uni04E4" unicode="&#x4e4;" 
d="M846 1633c-73 0 -136 63 -136 138c0 76 63 139 136 139s135 -63 135 -139c0 -75 -62 -138 -135 -138zM407 1633c-73 0 -135 63 -135 138c0 76 62 139 135 139s135 -63 135 -139c0 -75 -62 -138 -135 -138zM135 1443h210v-1027h16l555 1027h215v-1443h-210v1023h-16
l-556 -1023h-214v1443z" />
    <glyph glyph-name="uni048A" unicode="&#x48a;" 
d="M773 1936h175c0 -196 -138 -329 -342 -329s-342 133 -342 329h174c2 -111 70 -186 168 -186c97 0 166 75 167 186zM1098 220h163v-57l-134 -448h-199l92 285h-125v1023h-16l-547 -1023h-207v1443h203v-1027h15l547 1027h208v-1223z" />
    <glyph glyph-name="uniF462" 
d="M494 1606l286 312h260l-316 -312h-230zM135 1443h210v-1027h16l555 1027h215v-1443h-210v1023h-16l-556 -1023h-214v1443z" />
    <glyph glyph-name="uniF532" 
d="M805 1936h182c0 -196 -143 -329 -354 -329s-354 133 -354 329h182c2 -111 72 -186 172 -186s170 75 172 186zM916 1443h215v-1443c0 -238 -136 -341 -306 -341c-50 0 -96 3 -120 6v198c16 -2 44 -3 78 -3c96 0 138 52 138 140v1023h-16l-556 -1023h-214v1443h210v-1027
h16z" />
    <glyph glyph-name="Kacyrillic" unicode="&#x41a;" 
d="M375 1443v-627h44l512 627h269l-580 -704l622 -739h-292l-530 622h-45v-622h-239v1443h239z" />
    <glyph glyph-name="Kjecyrillic" unicode="&#x40c;" 
d="M513 1606l286 312h260l-316 -312h-230zM375 1443v-627h44l512 627h269l-580 -704l622 -739h-292l-530 622h-45v-622h-239v1443h239z" />
    <glyph glyph-name="uni049A" unicode="&#x49a;" 
d="M1047 220h208v-505h-219v285h-92l-528 622h-44v-622h-236v1443h236v-627h43l509 627h265l-576 -704z" />
    <glyph glyph-name="uni049C" unicode="&#x49c;" 
d="M126 0v1443h226v-1443h-226zM875 753l368 -753h-263l-308 625h-15v-319h-152v847h152v-317h15l294 607h249z" />
    <glyph glyph-name="uni049E" unicode="&#x49e;" 
d="M636 739l611 -739h-291l-520 622h-45v-622h-239v1142h-140v193h140v108h239v-108h227v-193h-227v-326h44l502 627h268z" />
    <glyph glyph-name="uni04A0" unicode="&#x4a0;" 
d="M588 0h-215v1232h-354v211h569v-627h39l367 627h232l-414 -704l453 -739h-250l-387 622h-40v-622z" />
    <glyph glyph-name="uni04C3" unicode="&#x4c3;" 
d="M1206 1443l-527 -644c285 -70 468 -273 468 -580c0 -325 -200 -577 -502 -577c-40 0 -80 6 -102 12v221c22 -4 48 -6 78 -6c177 0 282 147 282 344c0 251 -182 411 -462 411h-66v-624h-239v1443h239v-608h53l494 608h284z" />
    <glyph glyph-name="uni041A.BUL" 
d="M412 0h-231v1443h231v-682h15l536 682h263l-512 -637l552 -806h-287l-430 630l-137 -169v-461z" />
    <glyph glyph-name="Elcyrillic" unicode="&#x41b;" 
d="M1143 1443v-1443h-237v1232h-413l-35 -683c-19 -384 -134 -561 -365 -561c-31 0 -66 5 -89 12v223c14 -5 37 -8 57 -8c112 0 162 100 174 351l41 877h867z" />
    <glyph glyph-name="uni04C5" unicode="&#x4c5;" 
d="M1098 220h155v-57l-138 -448h-210l97 285h-126v220h1v1012h-409l-34 -683c-18 -384 -127 -561 -346 -561c-29 0 -62 5 -84 12v223c13 -5 35 -8 54 -8c108 0 156 100 168 351l40 877h832v-1223z" />
    <glyph glyph-name="uniF530" 
d="M1115 220h151v-505h-212v285h-166v1232h-411l-34 -683c-19 -384 -129 -561 -353 -561c-30 0 -64 5 -86 12v223c13 -5 36 -8 55 -8c110 0 158 100 170 351l40 877h846v-1223z" />
    <glyph glyph-name="uni052E" unicode="&#x52e;" 
d="M1115 220h151v-505h-212v285h-166v1232h-411l-34 -683c-19 -384 -129 -561 -353 -561c-30 0 -64 5 -86 12v223c13 -5 36 -8 55 -8c110 0 158 100 170 351l40 877h846v-1223z" />
    <glyph glyph-name="uni0512" unicode="&#x512;" 
d="M276 1443h867v-1443c0 -238 -129 -341 -337 -341c-50 0 -96 3 -120 6v198c16 -2 45 -3 78 -3c100 0 142 52 142 140v1232h-413l-35 -683c-19 -384 -134 -561 -365 -561c-31 0 -66 5 -89 12v223c14 -5 37 -8 57 -8c112 0 162 100 174 351z" />
    <glyph glyph-name="Emcyrillic" unicode="&#x41c;" 
d="M298 508v-508h-206v1443h254l280 -854h15l278 854h255v-1443h-206v508l25 580h-17l-257 -749h-172l-257 749h-17z" />
    <glyph glyph-name="uni04CD" unicode="&#x4cd;" 
d="M1122 220h144v-57l-135 -448h-193l95 285h-112v508l24 580h-17l-238 -749h-167l-238 749h-17l25 -580v-508h-201v1443h248l259 -854h15l259 854h249v-1223z" />
    <glyph glyph-name="Encyrillic" unicode="&#x41d;" 
d="M1134 0h-238v629h-526v-629h-238v1443h238v-603h526v603h238v-1443z" />
    <glyph glyph-name="uni04C7" unicode="&#x4c7;" 
d="M896 1443h238v-1443c0 -238 -130 -341 -337 -341c-51 0 -97 3 -121 6v198c16 -2 45 -3 78 -3c100 0 142 52 142 140v629h-526v-629h-238v1443h238v-603h526v603z" />
    <glyph glyph-name="uni04A2" unicode="&#x4a2;" 
d="M1107 220h157v-505h-227v285h-166v629h-518v-629h-236v1443h236v-603h518v603h236v-1223z" />
    <glyph glyph-name="uni04C9" unicode="&#x4c9;" 
d="M1137 220h125v-57l-133 -448h-199l91 285h-124v629h-525v-629h-240v1443h240v-603h525v603h240v-1223z" />
    <glyph glyph-name="uni04A4" unicode="&#x4a4;" 
d="M1255 1443v-210h-392v-1233h-221v629h-350v-629h-220v1443h220v-603h350v603h613z" />
    <glyph glyph-name="Ocyrillic" unicode="&#x41e;" 
d="M1178 609c0 -401 -206 -638 -545 -638s-545 237 -545 638v225c0 401 206 638 545 638s545 -237 545 -638v-225zM633 187c192 0 300 146 300 424v221c0 278 -108 424 -300 424s-300 -146 -300 -424v-221c0 -278 108 -424 300 -424z" />
    <glyph glyph-name="uni04E6" unicode="&#x4e6;" 
d="M1178 609c0 -401 -206 -638 -545 -638s-545 237 -545 638v225c0 401 206 638 545 638s545 -237 545 -638v-225zM633 187c192 0 300 146 300 424v221c0 278 -108 424 -300 424s-300 -146 -300 -424v-221c0 -278 108 -424 300 -424zM414 1633c-73 0 -136 63 -136 138
c0 76 63 139 136 139s135 -63 135 -139c0 -75 -62 -138 -135 -138zM852 1633c-73 0 -135 63 -135 138c0 76 62 139 135 139s136 -63 136 -139c0 -75 -63 -138 -136 -138z" />
    <glyph glyph-name="uniF518" 
d="M1178 609c0 -401 -206 -638 -545 -638s-545 237 -545 638v225c0 401 206 638 545 638s545 -237 545 -638v-225zM633 187c192 0 300 146 300 424v221c0 278 -108 424 -300 424s-300 -146 -300 -424v-221c0 -278 108 -424 300 -424zM981 1672h-696v166h696v-166z" />
    <glyph glyph-name="uniF463" 
d="M1178 609c0 -401 -206 -638 -545 -638s-545 237 -545 638v225c0 401 206 638 545 638s545 -237 545 -638v-225zM633 187c192 0 300 146 300 424v221c0 278 -108 424 -300 424s-300 -146 -300 -424v-221c0 -278 108 -424 300 -424zM502 1606l286 312h260l-316 -312h-230z
" />
    <glyph glyph-name="uniF4D2" 
d="M477 1918l286 -312h-230l-316 312h260zM333 832v-221c0 -278 108 -424 300 -424s300 146 300 424v221c0 278 -108 424 -300 424s-300 -146 -300 -424zM1178 834v-225c0 -401 -206 -638 -545 -638s-545 237 -545 638v225c0 401 206 638 545 638s545 -237 545 -638z" />
    <glyph glyph-name="uniF51A" 
d="M1178 609c0 -401 -206 -638 -545 -638s-545 237 -545 638v225c0 401 206 638 545 638s545 -237 545 -638v-225zM633 187c192 0 300 146 300 424v221c0 278 -108 424 -300 424s-300 -146 -300 -424v-221c0 -278 108 -424 300 -424zM280 1933h182c2 -111 72 -186 172 -186
s170 75 172 186h182c0 -196 -143 -329 -354 -329s-354 133 -354 329z" />
    <glyph glyph-name="uni04E8" unicode="&#x4e8;" 
d="M333 628v-17c0 -278 108 -424 300 -424s300 146 300 424v17h-600zM933 828v4c0 278 -108 424 -300 424s-300 -146 -300 -424v-4h600zM88 609v225c0 401 206 638 545 638s545 -237 545 -638v-225c0 -401 -206 -638 -545 -638s-545 237 -545 638z" />
    <glyph glyph-name="uniF49A" 
d="M981 1839v-166h-696v166h696zM333 628v-17c0 -278 108 -424 300 -424s300 146 300 424v17h-600zM933 828v4c0 278 -108 424 -300 424s-300 -146 -300 -424v-4h600zM88 609v225c0 401 206 638 545 638s545 -237 545 -638v-225c0 -401 -206 -638 -545 -638
s-545 237 -545 638z" />
    <glyph glyph-name="uniF51C" 
d="M802 1936h182c0 -196 -143 -329 -354 -329s-354 133 -354 329h182c2 -111 72 -186 172 -186s170 75 172 186zM333 628v-17c0 -278 108 -424 300 -424s300 146 300 424v17h-600zM933 828v4c0 278 -108 424 -300 424s-300 -146 -300 -424v-4h600zM88 609v225
c0 401 206 638 545 638s545 -237 545 -638v-225c0 -401 -206 -638 -545 -638s-545 237 -545 638z" />
    <glyph glyph-name="uniF51E" 
d="M805 2318h182c0 -196 -143 -329 -354 -329s-354 133 -354 329h182c2 -111 72 -186 172 -186s170 75 172 186zM984 1608h-182c-2 111 -72 187 -172 187s-170 -76 -172 -187h-182c0 196 143 329 354 329s354 -133 354 -329zM333 628v-17c0 -278 108 -424 300 -424
s300 146 300 424v17h-600zM933 828v4c0 278 -108 424 -300 424s-300 -146 -300 -424v-4h600zM88 609v225c0 401 206 638 545 638s545 -237 545 -638v-225c0 -401 -206 -638 -545 -638s-545 237 -545 638z" />
    <glyph glyph-name="uni04EA" unicode="&#x4ea;" 
d="M843 1633c-73 0 -136 63 -136 138c0 76 63 139 136 139c72 0 135 -63 135 -139c0 -75 -63 -138 -135 -138zM404 1633c-73 0 -135 63 -135 138c0 76 62 139 135 139s135 -63 135 -139c0 -75 -62 -138 -135 -138zM333 628v-17c0 -278 108 -424 300 -424s300 146 300 424v17
h-600zM933 828v4c0 278 -108 424 -300 424s-300 -146 -300 -424v-4h600zM88 609v225c0 401 206 638 545 638s545 -237 545 -638v-225c0 -401 -206 -638 -545 -638s-545 237 -545 638z" />
    <glyph glyph-name="uni0472" unicode="&#x472;" 
d="M933 611v27c-41 -39 -94 -65 -161 -65c-158 0 -185 85 -313 85c-65 0 -104 -34 -126 -66c5 -265 113 -404 300 -404c192 0 300 146 300 423zM333 833v-38c41 39 95 65 162 65c157 0 184 -85 312 -85c65 0 104 33 126 66c-2 272 -110 415 -300 415
c-192 0 -300 -146 -300 -423zM88 609v226c0 400 206 638 545 638s545 -238 545 -638v-226c0 -400 -206 -638 -545 -638s-545 238 -545 638z" />
    <glyph glyph-name="Pecyrillic" unicode="&#x41f;" 
d="M1161 1443v-1443h-242v1232h-572v-1232h-242v1443h1056z" />
    <glyph glyph-name="uni0524" unicode="&#x524;" 
d="M1116 220h150v-505h-209v285h-183v1232h-528v-1232h-241v1443h1011v-1223z" />
    <glyph glyph-name="Ercyrillic" unicode="&#x420;" 
d="M168 1443h509c294 0 483 -188 483 -481c0 -291 -193 -479 -493 -479h-257v-483h-242v1443zM410 1241v-556h207c195 0 298 95 298 278s-103 278 -298 278h-207z" />
    <glyph glyph-name="uni048E" unicode="&#x48e;" 
d="M410 685h207c24 0 46 1 67 4l-116 180l124 84l134 -209c59 47 89 120 89 219c0 183 -103 278 -298 278h-207v-556zM168 1443h509c294 0 483 -188 483 -481c0 -175 -70 -313 -191 -395l135 -209l-158 -113l-160 249c-38 -7 -77 -11 -119 -11h-257v-483h-242v1443z" />
    <glyph glyph-name="uniF4D4" 
d="M1026 1925l-283 -324h-218l-283 324h221l163 -196h16l163 196h221zM410 1241v-556h207c195 0 298 95 298 278s-103 278 -298 278h-207zM168 1443h509c294 0 483 -188 483 -481c0 -291 -193 -479 -493 -479h-257v-483h-242v1443z" />
    <glyph glyph-name="Escyrillic" unicode="&#x421;" 
d="M665 189c167 0 271 108 274 284h245c0 -307 -203 -502 -518 -502c-350 0 -555 225 -555 611v279c0 386 205 611 555 611c321 0 514 -193 518 -520h-245c-4 182 -115 302 -277 302c-197 0 -301 -135 -301 -393v-279c0 -258 104 -393 304 -393z" />
    <glyph glyph-name="uni04AA" unicode="&#x4aa;" 
d="M361 861v-279c0 -258 104 -393 304 -393c167 0 271 108 274 284h245c0 -287 -177 -476 -457 -499l-38 -92c124 -4 191 -65 191 -173c0 -124 -95 -198 -252 -198c-53 0 -95 6 -136 17v126c21 -8 76 -14 115 -14c72 0 111 22 111 63c0 43 -39 60 -133 60h-58v104l46 110
c-293 37 -462 254 -462 605v279c0 386 205 611 555 611c321 0 514 -193 518 -520h-245c-4 182 -115 302 -277 302c-197 0 -301 -135 -301 -393z" />
    <glyph glyph-name="uniF53E" 
d="M361 861v-279c0 -258 104 -393 304 -393c167 0 271 108 274 284h245c0 -272 -159 -456 -414 -494v-264h-227v266c-275 48 -432 263 -432 601v279c0 386 205 611 555 611c321 0 514 -193 518 -520h-245c-4 182 -115 302 -277 302c-197 0 -301 -135 -301 -393z" />
    <glyph glyph-name="Ecyrillic" unicode="&#x404;" 
d="M361 634v-52c0 -258 104 -393 304 -393c167 0 271 108 274 284h245c0 -307 -203 -502 -518 -502c-350 0 -555 225 -555 611v279c0 386 205 611 555 611c321 0 514 -193 518 -520h-245c-4 182 -115 302 -277 302c-197 0 -301 -135 -301 -393v-28h476v-199h-476z" />
    <glyph glyph-name="uniF526" 
d="M881 1633c-73 0 -135 63 -135 138c0 76 62 139 135 139s136 -63 136 -139c0 -75 -63 -138 -136 -138zM443 1633c-73 0 -136 63 -136 138c0 76 63 139 136 139s135 -63 135 -139c0 -75 -62 -138 -135 -138zM361 634v-52c0 -258 104 -393 304 -393c167 0 271 108 274 284
h245c0 -307 -203 -502 -518 -502c-350 0 -555 225 -555 611v279c0 386 205 611 555 611c321 0 514 -193 518 -520h-245c-4 182 -115 302 -277 302c-197 0 -301 -135 -301 -393v-28h476v-199h-476z" />
    <glyph glyph-name="Tecyrillic" unicode="&#x422;" 
d="M754 0h-242v1232h-422v211h1086v-211h-422v-1232z" />
    <glyph glyph-name="uni04AC" unicode="&#x4ac;" 
d="M1176 1232h-422v-1007h174v-510h-227v285h-189v1232h-422v211h1086v-211z" />
    <glyph glyph-name="Ucyrillic" unicode="&#x423;" 
d="M1217 1443l-427 -1037c-120 -289 -235 -419 -460 -419c-51 0 -98 10 -107 14v209c14 -4 38 -9 80 -9c86 0 152 38 210 143l-464 1099h257l326 -849h19l312 849h254z" />
    <glyph glyph-name="Ushortcyrillic" unicode="&#x40e;" 
d="M1217 1443l-427 -1037c-120 -289 -235 -419 -460 -419c-51 0 -98 10 -107 14v209c14 -4 38 -9 80 -9c86 0 152 38 210 143l-464 1099h257l326 -849h19l312 849h254zM278 1936h182c2 -111 72 -186 172 -186c101 0 171 75 173 186h182c0 -196 -143 -329 -355 -329
c-211 0 -354 133 -354 329z" />
    <glyph glyph-name="uni04EE" unicode="&#x4ee;" 
d="M987 1672h-696v166h696v-166zM1217 1443l-427 -1037c-120 -289 -235 -419 -460 -419c-51 0 -98 10 -107 14v209c14 -4 38 -9 80 -9c86 0 152 38 210 143l-464 1099h257l326 -849h19l312 849h254z" />
    <glyph glyph-name="uni04F0" unicode="&#x4f0;" 
d="M858 1632c-73 0 -135 63 -135 138c0 76 62 139 135 139s136 -63 136 -139c0 -75 -63 -138 -136 -138zM420 1632c-73 0 -136 63 -136 138c0 76 63 139 136 139s135 -63 135 -139c0 -75 -62 -138 -135 -138zM1217 1443l-427 -1037c-120 -289 -235 -419 -460 -419
c-51 0 -98 10 -107 14v209c14 -4 38 -9 80 -9c86 0 152 38 210 143l-464 1099h257l326 -849h19l312 849h254z" />
    <glyph glyph-name="uni04F2" unicode="&#x4f2;" 
d="M330 1607l269 312h228l-290 -312h-207zM733 1607l269 312h228l-290 -312h-207zM1217 1443l-427 -1037c-120 -289 -235 -419 -460 -419c-51 0 -98 10 -107 14v209c14 -4 38 -9 80 -9c86 0 152 38 210 143l-464 1099h257l326 -849h19l312 849h254z" />
    <glyph glyph-name="uniF4CC" 
d="M499 1607l286 312h260l-316 -312h-230zM1217 1443l-427 -1037c-120 -289 -235 -419 -460 -419c-51 0 -98 10 -107 14v209c14 -4 38 -9 80 -9c86 0 152 38 210 143l-464 1099h257l326 -849h19l312 849h254z" />
    <glyph glyph-name="uniF464" 
d="M499 1607l286 312h260l-316 -312h-230zM1217 1443l-427 -1037c-120 -289 -235 -419 -460 -419c-51 0 -98 10 -107 14v209c14 -4 38 -9 80 -9c86 0 152 38 210 143l-464 1099h257l326 -849h19l312 849h254z" />
    <glyph glyph-name="Efcyrillic" unicode="&#x424;" 
d="M520 -26v165c-328 10 -513 218 -513 585c0 365 186 574 513 585v160h226v-160c327 -11 513 -220 513 -585c0 -367 -185 -575 -513 -585v-165h-226zM231 724c0 -248 109 -393 292 -400v800c-183 -9 -292 -154 -292 -400zM743 1124v-800c183 7 292 152 292 400
c0 246 -109 391 -292 400z" />
    <glyph glyph-name="Xacyrillic" unicode="&#x425;" 
d="M47 0l439 726l-437 717h268l318 -543h11l321 543h252l-449 -721l445 -722h-261l-325 530h-11l-327 -530h-244z" />
    <glyph glyph-name="uni04B2" unicode="&#x4b2;" 
d="M1073 220h177v-505h-220v285h-79l-323 530h-10l-325 -530h-242l437 726l-435 717h265l316 -543h11l319 543h248l-446 -721z" />
    <glyph glyph-name="uni04FE" unicode="&#x4fe;" 
d="M1149 615h-313l379 -615h-261l-325 530h-11l-327 -530h-244l372 615h-312v190h331l-389 638h268l318 -543h11l321 543h252l-397 -638h327v-190z" />
    <glyph glyph-name="uni04FC" unicode="&#x4fc;" 
d="M806 251l-177 279h-11l-327 -530h-244l439 726l-437 717h268l318 -543h11l321 543h252l-449 -721l219 -347c125 -208 189 -307 189 -433c0 -189 -135 -308 -332 -308c-54 0 -87 4 -112 9v210c20 -3 40 -5 74 -5c80 0 135 41 135 110c0 83 -51 150 -137 293z" />
    <glyph glyph-name="Tsecyrillic" unicode="&#x426;" 
d="M1265 211v-496h-219v285h-948v1443h242v-1232h535v1232h242v-1232h148z" />
    <glyph glyph-name="uni04B4" unicode="&#x4b4;" 
d="M1132 211h118v-496h-220v285h-767v1233h-258v210h706v-210h-206v-1022h385v1232h242v-1232z" />
    <glyph glyph-name="Checyrillic" unicode="&#x427;" 
d="M1145 1443v-1443h-241v603h-15c-80 -56 -192 -82 -322 -82c-306 0 -487 203 -487 507v415h242v-401c0 -193 110 -303 291 -303c128 0 223 31 291 89v615h241z" />
    <glyph glyph-name="uni04F4" unicode="&#x4f4;" 
d="M831 1633c-73 0 -135 63 -135 138c0 76 62 139 135 139s136 -63 136 -139c0 -75 -63 -138 -136 -138zM393 1633c-73 0 -136 63 -136 138c0 76 63 139 136 139s135 -63 135 -139c0 -75 -62 -138 -135 -138zM1145 1443v-1443h-241v603h-15c-80 -56 -192 -82 -322 -82
c-306 0 -487 203 -487 507v415h242v-401c0 -193 110 -303 291 -303c128 0 223 31 291 89v615h241z" />
    <glyph glyph-name="uni04B6" unicode="&#x4b6;" 
d="M1091 220h146v-505h-209v285h-170v603h-14c-77 -54 -181 -82 -304 -82c-289 0 -460 204 -460 507v415h233v-401c0 -193 102 -303 270 -303c122 0 210 32 275 89v615h233v-1223z" />
    <glyph glyph-name="uni04CB" unicode="&#x4cb;" 
d="M904 1443h241v-1443h-182v-285h-209v505h150v383h-15c-80 -56 -192 -82 -322 -82c-306 0 -487 203 -487 507v415h242v-401c0 -193 110 -303 291 -303c128 0 223 31 291 89v615z" />
    <glyph glyph-name="uniF4C6" 
d="M904 1443h241v-1443c0 -238 -149 -341 -341 -341c-51 0 -97 3 -121 6v198c16 -2 45 -3 78 -3c100 0 143 52 143 140v603h-15c-80 -56 -192 -82 -322 -82c-306 0 -487 203 -487 507v415h242v-401c0 -193 110 -303 291 -303c128 0 223 31 291 89v615z" />
    <glyph glyph-name="uni04B8" unicode="&#x4b8;" 
d="M906 1443h239v-1443h-239v608h-15c-53 -37 -121 -61 -198 -73v-306h-152v297c-290 11 -461 208 -461 502v415h240v-416c0 -168 78 -264 221 -288v331h152v-332c90 11 161 40 213 85v620z" />
    <glyph glyph-name="uni04BA" unicode="&#x4ba;" 
d="M121 0v1443h241v-603h15c80 56 192 82 322 82c306 0 487 -203 487 -507v-415h-242v401c0 193 -110 303 -291 303c-128 0 -223 -31 -291 -89v-615h-241z" />
    <glyph glyph-name="uniF49E" 
d="M455 814h14c68 48 165 83 282 83c291 0 456 -178 456 -468v-429h-226v403c0 177 -95 275 -266 275c-111 0 -197 -33 -260 -89v-589h-225v1087h-230v188h230v168h225v-168h462v-188h-462v-273z" />
    <glyph glyph-name="uni0526" unicode="&#x526;" 
d="M1112 220h141v-505h-209v285h-162v410c0 189 -95 294 -265 294c-113 0 -202 -32 -266 -89v-615h-230v1443h230v-603h14c63 47 167 82 286 82c305 0 461 -182 461 -468v-234z" />
    <glyph glyph-name="Djecyrillic" unicode="&#x402;" 
d="M738 -33v203c23 -7 59 -12 92 -12c120 0 190 92 190 261c0 166 -81 267 -225 267c-120 0 -201 -55 -233 -93v-593h-223v1233h-339v210h919v-210h-357v-422h13c34 31 121 87 275 87c256 0 403 -181 403 -468c0 -307 -142 -479 -386 -479c-48 0 -106 7 -129 16z" />
    <glyph glyph-name="Tshecyrillic" unicode="&#x40b;" 
d="M977 0v439c0 152 -66 242 -213 242c-118 0 -194 -57 -226 -94v-587h-233v1232h-305v211h874v-211h-336v-421h13c34 31 122 87 282 87c253 0 377 -152 377 -423v-475h-233z" />
    <glyph glyph-name="uni04C0" unicode="&#x4c0;" 
d="M1050 0h-834v208h296v1027h-296v208h834v-208h-296v-1027h296v-208z" />
    <glyph glyph-name="Icyrillic" unicode="&#x406;" 
d="M1050 0h-834v208h296v1027h-296v208h834v-208h-296v-1027h296v-208z" />
    <glyph glyph-name="Yicyrillic" unicode="&#x407;" 
d="M1050 0h-834v208h296v1027h-296v208h834v-208h-296v-1027h296v-208zM414 1633c-73 0 -136 63 -136 138c0 76 63 139 136 139s135 -63 135 -139c0 -75 -62 -138 -135 -138zM852 1633c-73 0 -135 63 -135 138c0 76 62 139 135 139s136 -63 136 -139
c0 -75 -63 -138 -136 -138z" />
    <glyph glyph-name="Dzhecyrillic" unicode="&#x40f;" 
d="M519 -285v285h-425v1443h242v-1232h594v1232h242v-1443h-426v-285h-227z" />
    <glyph glyph-name="Shacyrillic" unicode="&#x428;" 
d="M1193 0h-1120v1443h196v-1242h266v1242h196v-1242h266v1242h196v-1443z" />
    <glyph glyph-name="Shchacyrillic" unicode="&#x429;" 
d="M1075 -285v285h-1031v1443h196v-1248h254v1248h196v-1248h254v1248h196v-1242h126v-486h-191z" />
    <glyph glyph-name="Hardsigncyrillic" unicode="&#x42a;" 
d="M542 733v-528h198c159 0 253 96 253 263s-94 265 -253 265h-198zM542 936h241c267 0 448 -188 448 -468s-175 -468 -435 -468h-495v1233h-284v210h525v-507z" />
    <glyph glyph-name="Yericyrillic" unicode="&#x42b;" 
d="M291 734v-530h84c164 0 266 103 266 265c0 164 -99 265 -261 265h-89zM395 0h-310v1443h210v-507h109c278 0 451 -178 451 -468c0 -286 -180 -468 -460 -468zM1181 0h-210v1443h210v-1443z" />
    <glyph glyph-name="uni04F8" unicode="&#x4f8;" 
d="M842 1576c-73 0 -135 63 -135 138c0 76 62 139 135 139s136 -63 136 -139c0 -75 -63 -138 -136 -138zM404 1576c-73 0 -136 63 -136 138c0 76 63 139 136 139s135 -63 135 -139c0 -75 -62 -138 -135 -138zM285 734v-530h84c164 0 266 103 266 265c0 164 -99 265 -261 265
h-89zM389 0h-310v1443h210v-507h109c278 0 451 -178 451 -468c0 -286 -180 -468 -460 -468zM1175 0h-210v1443h210v-1443z" />
    <glyph glyph-name="uniF520" 
d="M977 1672h-696v166h696v-166zM291 734v-530h84c164 0 266 103 266 265c0 164 -99 265 -261 265h-89zM395 0h-310v1443h210v-507h109c278 0 451 -178 451 -468c0 -286 -180 -468 -460 -468zM1181 0h-210v1443h210v-1443z" />
    <glyph glyph-name="uniF536" 
d="M264 1936h182c2 -111 72 -186 172 -186s170 75 172 186h182c0 -196 -143 -329 -354 -329s-354 133 -354 329zM291 734v-530h84c164 0 266 103 266 265c0 164 -99 265 -261 265h-89zM395 0h-310v1443h210v-507h109c278 0 451 -178 451 -468c0 -286 -180 -468 -460 -468z
M1181 0h-210v1443h210v-1443z" />
    <glyph glyph-name="uniF465" 
d="M492 1607l286 312h260l-316 -312h-230zM291 734v-530h84c164 0 266 103 266 265c0 164 -99 265 -261 265h-89zM395 0h-310v1443h210v-507h109c278 0 451 -178 451 -468c0 -286 -180 -468 -460 -468zM1181 0h-210v1443h210v-1443z" />
    <glyph glyph-name="Softsigncyrillic" unicode="&#x42c;" 
d="M400 734v-530h242c183 0 288 97 288 265s-105 265 -288 265h-242zM705 0h-547v1443h242v-508h294c289 0 482 -187 482 -467c0 -281 -189 -468 -471 -468z" />
    <glyph glyph-name="uni048C" unicode="&#x48c;" 
d="M513 204h175c183 0 289 86 289 235c0 148 -106 234 -289 234h-175v-469zM513 875h227c289 0 483 -175 483 -437c0 -263 -189 -438 -472 -438h-480v1062h-271v193h271v188h242v-188h467v-193h-467v-187z" />
    <glyph glyph-name="uni0462" unicode="&#x462;" 
d="M513 204h175c183 0 289 86 289 235c0 148 -106 234 -289 234h-175v-469zM513 875h227c289 0 483 -175 483 -437c0 -263 -189 -438 -472 -438h-480v1062h-271v193h271v188h242v-188h467v-193h-467v-187z" />
    <glyph glyph-name="Ljecyrillic" unicode="&#x409;" 
d="M789 734v-530h81c120 0 191 97 191 265s-71 265 -191 265h-81zM397 1247l-25 -709c-14 -398 -93 -550 -292 -550c-32 0 -62 6 -80 12v211c12 -3 32 -7 49 -7c83 0 113 84 122 341l30 898h599v-507h105c219 0 361 -174 361 -468s-142 -468 -361 -468h-315v1247h-193z" />
    <glyph glyph-name="Njecyrillic" unicode="&#x40a;" 
d="M770 649v-464h79c118 0 186 86 186 236c0 146 -67 228 -186 228h-79zM274 0h-201v1443h201v-599h296v599h206v-599h105c216 0 354 -161 354 -418c0 -263 -137 -426 -356 -426h-309v644h-296v-644z" />
    <glyph glyph-name="Ereversedcyrillic" unicode="&#x42d;" 
d="M289 959h-235c21 305 246 513 555 513c376 0 592 -272 592 -751c0 -478 -216 -751 -592 -751c-316 0 -533 195 -556 496h236c27 -174 145 -278 321 -278c205 0 327 157 343 446h-524v199h523c-20 274 -142 422 -342 422c-173 0 -293 -113 -321 -296z" />
    <glyph glyph-name="uni04EC" unicode="&#x4ec;" 
d="M831 1635c-73 0 -135 63 -135 138c0 76 62 139 135 139s135 -63 135 -139c0 -75 -62 -138 -135 -138zM392 1635c-73 0 -135 63 -135 138c0 76 62 139 135 139s135 -63 135 -139c0 -75 -62 -138 -135 -138zM289 959h-235c21 305 246 513 555 513c376 0 592 -272 592 -751
c0 -478 -216 -751 -592 -751c-316 0 -533 195 -556 496h236c27 -174 145 -278 321 -278c205 0 327 157 343 446h-524v199h523c-20 274 -142 422 -342 422c-173 0 -293 -113 -321 -296z" />
    <glyph glyph-name="uniF522" 
d="M957 1672h-695v166h695v-166zM289 959h-235c21 305 246 513 555 513c376 0 592 -272 592 -751c0 -478 -216 -751 -592 -751c-316 0 -533 195 -556 496h236c27 -174 145 -278 321 -278c205 0 327 157 343 446h-524v199h523c-20 274 -142 422 -342 422
c-173 0 -293 -113 -321 -296z" />
    <glyph glyph-name="uniF466" 
d="M468 1607l286 312h260l-316 -312h-230zM289 959h-235c21 305 246 513 555 513c376 0 592 -272 592 -751c0 -478 -216 -751 -592 -751c-316 0 -533 195 -556 496h236c27 -174 145 -278 321 -278c205 0 327 157 343 446h-524v199h523c-20 274 -142 422 -342 422
c-173 0 -293 -113 -321 -296z" />
    <glyph glyph-name="uniF524" 
d="M259 1933h182c2 -111 72 -186 172 -186s170 75 172 186h182c0 -196 -143 -329 -354 -329s-354 133 -354 329zM289 959h-235c21 305 246 513 555 513c376 0 592 -272 592 -751c0 -478 -216 -751 -592 -751c-316 0 -533 195 -556 496h236c27 -174 145 -278 321 -278
c205 0 327 157 343 446h-524v199h523c-20 274 -142 422 -342 422c-173 0 -293 -113 -321 -296z" />
    <glyph glyph-name="uniF4D6" 
d="M612 1610c-79 0 -146 67 -146 148c0 82 67 149 146 149s146 -67 146 -149c0 -81 -67 -148 -146 -148zM289 959h-235c21 305 246 513 555 513c376 0 592 -272 592 -751c0 -478 -216 -751 -592 -751c-316 0 -533 195 -556 496h236c27 -174 145 -278 321 -278
c205 0 327 157 343 446h-524v199h523c-20 274 -142 422 -342 422c-173 0 -293 -113 -321 -296z" />
    <glyph glyph-name="IUcyrillic" unicode="&#x42e;" 
d="M795 1266c-157 0 -239 -187 -239 -545s82 -545 239 -545c156 0 238 187 238 545s-82 545 -238 545zM240 831h117c30 433 173 641 434 641c294 0 452 -258 452 -750c0 -493 -158 -751 -452 -751c-267 0 -407 206 -434 649h-117v-620h-199v1443h199v-612z" />
    <glyph glyph-name="uniF52C" 
d="M942 1672h-696v166h696v-166zM795 1266c-157 0 -239 -187 -239 -545s82 -545 239 -545c156 0 238 187 238 545s-82 545 -238 545zM240 831h117c30 433 173 641 434 641c294 0 452 -258 452 -750c0 -493 -158 -751 -452 -751c-267 0 -407 206 -434 649h-117v-620h-199
v1443h199v-612z" />
    <glyph glyph-name="uniF467" 
d="M451 1607l286 312h260l-316 -312h-230zM795 1266c-157 0 -239 -187 -239 -545s82 -545 239 -545c156 0 238 187 238 545s-82 545 -238 545zM240 831h117c30 433 173 641 434 641c294 0 452 -258 452 -750c0 -493 -158 -751 -452 -751c-267 0 -407 206 -434 649h-117v-620
h-199v1443h199v-612z" />
    <glyph glyph-name="uniF52E" 
d="M231 1933h182c2 -111 72 -186 172 -186s170 75 172 186h182c0 -196 -143 -329 -354 -329s-354 133 -354 329zM795 1266c-157 0 -239 -187 -239 -545s82 -545 239 -545c156 0 238 187 238 545s-82 545 -238 545zM240 831h117c30 433 173 641 434 641
c294 0 452 -258 452 -750c0 -493 -158 -751 -452 -751c-267 0 -407 206 -434 649h-117v-620h-199v1443h199v-612z" />
    <glyph glyph-name="uniF498" 
d="M785 1633c-73 0 -135 63 -135 138c0 76 62 139 135 139s136 -63 136 -139c0 -75 -63 -138 -136 -138zM347 1633c-73 0 -136 63 -136 138c0 76 63 139 136 139s135 -63 135 -139c0 -75 -62 -138 -135 -138zM795 1266c-157 0 -239 -187 -239 -545s82 -545 239 -545
c156 0 238 187 238 545s-82 545 -238 545zM240 831h117c30 433 173 641 434 641c294 0 452 -258 452 -750c0 -493 -158 -751 -452 -751c-267 0 -407 206 -434 649h-117v-620h-199v1443h199v-612z" />
    <glyph glyph-name="IAcyrillic" unicode="&#x42f;" 
d="M909 540h-210l-344 -540h-268l373 575c-192 55 -311 212 -311 413c0 276 192 455 489 455h509v-1443h-238v540zM672 732h237v510h-237c-173 0 -277 -95 -277 -255c0 -159 104 -255 277 -255z" />
    <glyph glyph-name="uniF528" 
d="M1057 1672h-696v166h696v-166zM909 540h-210l-344 -540h-268l373 575c-192 55 -311 212 -311 413c0 276 192 455 489 455h509v-1443h-238v540zM672 732h237v510h-237c-173 0 -277 -95 -277 -255c0 -159 104 -255 277 -255z" />
    <glyph glyph-name="uniF468" 
d="M564 1607l286 312h260l-316 -312h-230zM909 540h-210l-344 -540h-268l373 575c-192 55 -311 212 -311 413c0 276 192 455 489 455h509v-1443h-238v540zM672 732h237v510h-237c-173 0 -277 -95 -277 -255c0 -159 104 -255 277 -255z" />
    <glyph glyph-name="uniF4D9" 
d="M928 1633c-73 0 -135 63 -135 138c0 76 62 139 135 139s136 -63 136 -139c0 -75 -63 -138 -136 -138zM490 1633c-73 0 -136 63 -136 138c0 76 63 139 136 139c72 0 135 -63 135 -139c0 -75 -63 -138 -135 -138zM909 540h-210l-344 -540h-268l373 575
c-192 55 -311 212 -311 413c0 276 192 455 489 455h509v-1443h-238v540zM672 732h237v510h-237c-173 0 -277 -95 -277 -255c0 -159 104 -255 277 -255z" />
    <glyph glyph-name="uniF52A" 
d="M356 1933h182c2 -111 72 -186 172 -186c101 0 171 75 172 186h183c0 -196 -144 -329 -355 -329s-354 133 -354 329zM909 540h-210l-344 -540h-268l373 575c-192 55 -311 212 -311 413c0 276 192 455 489 455h509v-1443h-238v540zM672 732h237v510h-237
c-173 0 -277 -95 -277 -255c0 -159 104 -255 277 -255z" />
    <glyph glyph-name="uni0494" unicode="&#x494;" 
d="M721 -15c-62 0 -106 11 -117 15v210c9 -4 44 -11 90 -11c117 0 189 87 189 231c0 147 -89 239 -231 239c-118 0 -210 -57 -259 -129v-540h-241v1443h824v-210h-583v-444h10c64 61 160 105 291 105c276 0 430 -189 430 -447c0 -276 -154 -462 -403 -462z" />
    <glyph glyph-name="uni04A6" unicode="&#x4a6;" 
d="M691 802h7c45 49 117 86 211 86c213 0 322 -180 322 -450c0 -282 -123 -453 -318 -453c-46 0 -81 11 -89 15v202c8 -4 34 -11 69 -11c87 0 141 90 141 239c0 160 -55 248 -156 248c-113 0 -166 -83 -187 -113v-565h-198v1237h-257v-1237h-198v1443h653v-641z" />
    <glyph glyph-name="uni04A8" unicode="&#x4a8;" 
d="M1055 -30c-82 0 -166 27 -235 79h-14c-74 -52 -164 -79 -248 -79c-336 0 -528 254 -528 707v117c0 366 142 656 464 673v-203c-196 -18 -256 -221 -256 -483v-98c0 -330 113 -513 321 -513c44 0 79 5 104 12v11c-132 111 -193 293 -193 513v61c0 302 133 518 371 518
c237 0 370 -216 370 -518v-61c0 -220 -91 -427 -233 -528v-11c20 -5 49 -7 81 -7c61 0 129 27 178 70l61 -166c-72 -68 -156 -94 -243 -94zM678 699c0 -182 49 -352 149 -445c112 83 176 251 176 445v60c0 189 -47 323 -162 323c-116 0 -163 -133 -163 -323v-60z" />
    <glyph glyph-name="uni04AE" unicode="&#x4ae;" 
d="M754 0h-242v559l-470 884h264l319 -634h16l319 634h264l-470 -884v-559z" />
    <glyph glyph-name="uniF43A" 
d="M754 0h-242v559l-470 884h264l319 -634h16l319 634h264l-470 -884v-559zM982 1672h-696v166h696v-166z" />
    <glyph glyph-name="uni04B0" unicode="&#x4b0;" 
d="M1224 1443l-467 -879h341v-193h-344v-371h-242v371h-344v193h341l-467 879h264l319 -634h16l319 634h264z" />
    <glyph glyph-name="uni04BC" unicode="&#x4bc;" 
d="M506 894v-7h523v18c0 215 -91 351 -256 351c-174 0 -261 -141 -267 -362zM503 679v-51c0 -292 98 -439 272 -439c142 0 225 112 250 272h216c-29 -260 -181 -489 -462 -489c-326 0 -491 265 -491 675v35c-195 2 -282 119 -282 288c0 91 29 148 29 148h174
s-23 -51 -23 -118c0 -71 33 -114 106 -115c26 358 175 587 479 587c314 0 472 -253 472 -613c0 -62 -4 -180 -4 -180h-736z" />
    <glyph glyph-name="uni04BE" unicode="&#x4be;" 
d="M506 894v-7h523v18c0 215 -91 351 -256 351c-174 0 -261 -141 -267 -362zM503 679v-51c0 -292 98 -439 272 -439c142 0 225 112 250 272h216c-25 -226 -143 -428 -357 -477v-270h-207v268c-258 50 -389 300 -389 665v35c-195 2 -282 119 -282 288c0 91 29 148 29 148h174
s-23 -51 -23 -118c0 -71 33 -114 106 -115c26 358 175 587 479 587c314 0 472 -253 472 -613c0 -62 -4 -180 -4 -180h-736z" />
    <glyph glyph-name="uni04D4" unicode="&#x4d4;" 
d="M394 589h238v628h-89zM1252 1233h-400v-407h364v-199h-364v-416h400v-211h-620v387h-285l-92 -387h-242l380 1443h859v-210z" />
    <glyph glyph-name="uni04D8" unicode="&#x4d8;" 
d="M630 -28c-366 0 -548 282 -548 643c0 58 4 174 4 174h854v27c0 292 -112 439 -313 439c-170 0 -271 -112 -297 -272h-246c31 260 209 489 538 489c374 0 562 -265 562 -675v-121c0 -424 -167 -704 -554 -704zM628 188c208 0 310 150 310 386v17h-612v-23
c0 -215 106 -380 302 -380z" />
    <glyph glyph-name="uni04DA" unicode="&#x4da;" 
d="M630 -28c-366 0 -548 282 -548 643c0 58 4 174 4 174h854v27c0 292 -112 439 -313 439c-170 0 -271 -112 -297 -272h-246c31 260 209 489 538 489c374 0 562 -265 562 -675v-121c0 -424 -167 -704 -554 -704zM628 188c208 0 310 150 310 386v17h-612v-23
c0 -215 106 -380 302 -380zM400 1633c-73 0 -136 63 -136 138c0 76 63 139 136 139s135 -63 135 -139c0 -75 -62 -138 -135 -138zM838 1633c-73 0 -135 63 -135 138c0 76 62 139 135 139s136 -63 136 -139c0 -75 -63 -138 -136 -138z" />
    <glyph glyph-name="uniF49C" 
d="M630 -28c-366 0 -548 282 -548 643c0 58 4 174 4 174h854v27c0 292 -112 439 -313 439c-170 0 -271 -112 -297 -272h-246c31 260 209 489 538 489c374 0 562 -265 562 -675v-121c0 -424 -167 -704 -554 -704zM628 188c208 0 310 150 310 386v17h-612v-23
c0 -215 106 -380 302 -380zM977 1672h-696v166h696v-166z" />
    <glyph glyph-name="uni04E0" unicode="&#x4e0;" 
d="M1144 440c0 -284 -195 -469 -511 -469c-299 0 -505 178 -515 444h231c8 -147 117 -241 284 -241c165 0 266 96 266 260c0 160 -110 248 -325 248h-148v189l355 354v13h-605v205h895v-185l-381 -383v-13c276 -25 454 -167 454 -422z" />
    <glyph glyph-name="uni0510" unicode="&#x510;" 
d="M833 636h-186c-193 0 -305 -82 -305 -223c0 -145 118 -235 297 -235c176 0 299 89 308 223h231c-11 -258 -227 -430 -537 -430c-323 0 -547 174 -547 429c0 197 128 325 327 343v16c-161 33 -268 160 -268 328c0 228 199 385 488 385c300 0 498 -164 509 -423h-225
c-9 137 -117 225 -277 225s-263 -84 -263 -216c0 -135 106 -223 267 -223h181v-199z" />
    <glyph glyph-name="uniF538" 
d="M833 636h-186c-193 0 -305 -82 -305 -223c0 -145 118 -235 297 -235c176 0 299 89 308 223h231c-11 -258 -227 -430 -537 -430c-323 0 -547 174 -547 429c0 197 128 325 327 343v16c-161 33 -268 160 -268 328c0 228 199 385 488 385c300 0 498 -164 509 -423h-225
c-9 137 -117 225 -277 225s-263 -84 -263 -216c0 -135 106 -223 267 -223h181v-199zM428 1633c-73 0 -135 63 -135 138c0 76 62 139 135 139s135 -63 135 -139c0 -75 -62 -138 -135 -138zM867 1633c-73 0 -135 63 -135 138c0 76 62 139 135 139s135 -63 135 -139
c0 -75 -62 -138 -135 -138z" />
    <glyph glyph-name="uni0474" unicode="&#x474;" 
d="M792 1129c51 245 124 345 304 345c76 0 145 -27 172 -46l-59 -183c-10 5 -42 18 -76 18c-64 0 -96 -33 -119 -121l-306 -1142h-261l-398 1443h248l282 -1170h9z" />
    <glyph glyph-name="uni051C" unicode="&#x51c;" 
d="M655 869h-14l-176 -869h-216l-234 1443h222l70 -531l68 -583h14l161 784h196l161 -784h14l68 583l70 531h222l-234 -1443h-216z" />
    <glyph glyph-name="Dzecyrillic" unicode="&#x405;" 
d="M112 396h231c14 -139 126 -221 302 -221c170 0 279 85 279 218c0 109 -72 171 -250 213l-139 33c-264 63 -390 196 -390 408c0 259 194 425 497 425c290 0 487 -164 496 -414h-230c-13 132 -112 210 -264 210c-160 0 -257 -75 -257 -200c0 -111 70 -174 239 -213l139 -33
c279 -65 399 -189 399 -408c0 -274 -200 -443 -523 -443c-316 0 -517 161 -529 425z" />
    <glyph glyph-name="Jecyrillic" unicode="&#x408;" 
d="M591 -29c-276 0 -459 170 -460 429h234c4 -126 94 -209 223 -209c144 0 225 88 225 248v796h-510v208h752v-1008c0 -292 -174 -464 -464 -464z" />
    <glyph glyph-name="a" unicode="a" 
d="M500 -18c-208 0 -347 132 -347 330c0 196 142 312 404 328l274 16v92c0 113 -73 177 -201 177c-107 0 -185 -46 -209 -126h-228c20 189 197 314 443 314c271 0 425 -133 425 -367v-746h-221v153h-21c-53 -109 -170 -171 -319 -171zM575 172c148 0 256 95 256 227v100
l-239 -13c-137 -8 -208 -63 -208 -160c0 -95 74 -154 191 -154z" />
    <glyph glyph-name="agrave" unicode="&#xe0;" 
d="M500 -18c-208 0 -347 132 -347 330c0 196 142 312 404 328l274 16v92c0 113 -73 177 -201 177c-107 0 -185 -46 -209 -126h-228c20 189 197 314 443 314c271 0 425 -133 425 -367v-746h-221v153h-21c-53 -109 -170 -171 -319 -171zM575 172c148 0 256 95 256 227v100
l-239 -13c-137 -8 -208 -63 -208 -160c0 -95 74 -154 191 -154zM823 1296h-230l-274 347h264z" />
    <glyph glyph-name="aacute" unicode="&#xe1;" 
d="M735 1296h-230l240 347h264zM831 499l-239 -13c-137 -8 -208 -63 -208 -160c0 -95 74 -154 191 -154c148 0 256 95 256 227v100zM840 153h-21c-53 -109 -170 -171 -319 -171c-208 0 -347 132 -347 330c0 196 142 312 404 328l274 16v92c0 113 -73 177 -201 177
c-107 0 -185 -46 -209 -126h-228c20 189 197 314 443 314c271 0 425 -133 425 -367v-746h-221v153z" />
    <glyph glyph-name="adieresis" unicode="&#xe4;" 
d="M500 -18c-208 0 -347 132 -347 330c0 196 142 312 404 328l274 16v92c0 113 -73 177 -201 177c-107 0 -185 -46 -209 -126h-228c20 189 197 314 443 314c271 0 425 -133 425 -367v-746h-221v153h-21c-53 -109 -170 -171 -319 -171zM575 172c148 0 256 95 256 227v100
l-239 -13c-137 -8 -208 -63 -208 -160c0 -95 74 -154 191 -154zM424 1292c-73 0 -135 63 -135 139s62 139 135 139s136 -63 136 -139s-63 -139 -136 -139zM863 1292c-73 0 -135 63 -135 139s62 139 135 139s135 -63 135 -139s-62 -139 -135 -139z" />
    <glyph glyph-name="adieresismacron" unicode="&#x1df;" 
d="M853 1566c72 0 135 -63 135 -139s-63 -139 -135 -139c-73 0 -136 63 -136 139s63 139 136 139zM414 1566c73 0 135 -63 135 -139s-62 -139 -135 -139s-135 63 -135 139s62 139 135 139zM981 1724h-696v166h696v-166zM831 499l-239 -13c-137 -8 -208 -63 -208 -160
c0 -95 74 -154 191 -154c148 0 256 95 256 227v100zM840 153h-21c-53 -109 -170 -171 -319 -171c-208 0 -347 132 -347 330c0 196 142 312 404 328l274 16v92c0 113 -73 177 -201 177c-107 0 -185 -46 -209 -126h-228c20 189 197 314 443 314c271 0 425 -133 425 -367v-746
h-221v153z" />
    <glyph glyph-name="aring" unicode="&#xe5;" 
d="M500 -18c-208 0 -347 132 -347 330c0 196 142 312 404 328l274 16v92c0 113 -73 177 -201 177c-107 0 -185 -46 -209 -126h-228c20 189 197 314 443 314c271 0 425 -133 425 -367v-746h-221v153h-21c-53 -109 -170 -171 -319 -171zM575 172c148 0 256 95 256 227v100
l-239 -13c-137 -8 -208 -63 -208 -160c0 -95 74 -154 191 -154zM633 1372c62 0 109 48 109 110s-47 110 -109 110c-61 0 -108 -48 -108 -110s47 -110 108 -110zM633 1245c-128 0 -233 106 -233 237s105 237 233 237c129 0 234 -106 234 -237s-105 -237 -234 -237z" />
    <glyph glyph-name="aringacute" unicode="&#x1fb;" 
d="M723 1737h-179l161 241h213zM633 1226c-121 0 -213 91 -213 211s92 210 213 210s214 -90 214 -210s-93 -211 -214 -211zM633 1339c57 0 99 42 99 98s-42 98 -99 98c-56 0 -98 -42 -98 -98s42 -98 98 -98zM831 499l-239 -13c-137 -8 -208 -63 -208 -160
c0 -95 74 -154 191 -154c148 0 256 95 256 227v100zM840 153h-21c-53 -109 -170 -171 -319 -171c-208 0 -347 132 -347 330c0 196 142 312 404 328l274 16v92c0 113 -73 177 -201 177c-107 0 -185 -46 -209 -126h-228c20 189 197 314 443 314c271 0 425 -133 425 -367v-746
h-221v153z" />
    <glyph glyph-name="atilde" unicode="&#xe3;" 
d="M500 -18c-208 0 -347 132 -347 330c0 196 142 312 404 328l274 16v92c0 113 -73 177 -201 177c-107 0 -185 -46 -209 -126h-228c20 189 197 314 443 314c271 0 425 -133 425 -367v-746h-221v153h-21c-53 -109 -170 -171 -319 -171zM575 172c148 0 256 95 256 227v100
l-239 -13c-137 -8 -208 -63 -208 -160c0 -95 74 -154 191 -154zM497 1414c-55 0 -83 -50 -83 -147h-167c0 189 95 311 244 311c151 0 197 -148 279 -148c55 0 83 47 83 143h167c0 -187 -96 -309 -244 -309c-151 0 -197 150 -279 150z" />
    <glyph glyph-name="abrevegrave" unicode="&#x1eb1;" 
d="M256 1603h184c0 -109 71 -186 193 -186s192 77 193 186h184c0 -202 -145 -344 -377 -344c-231 0 -377 142 -377 344zM548 1978l194 -324h-176l-234 324h216zM831 499l-239 -13c-137 -8 -208 -63 -208 -160c0 -95 74 -154 191 -154c148 0 256 95 256 227v100zM840 153h-21
c-53 -109 -170 -171 -319 -171c-208 0 -347 132 -347 330c0 196 142 312 404 328l274 16v92c0 113 -73 177 -201 177c-107 0 -185 -46 -209 -126h-228c20 189 197 314 443 314c271 0 425 -133 425 -367v-746h-221v153z" />
    <glyph glyph-name="adotmacron" unicode="&#x1e1;" 
d="M500 -18c-208 0 -347 132 -347 330c0 196 142 312 404 328l274 16v92c0 113 -73 177 -201 177c-107 0 -185 -46 -209 -126h-228c20 189 197 314 443 314c271 0 425 -133 425 -367v-746h-221v153h-21c-53 -109 -170 -171 -319 -171zM575 172c148 0 256 95 256 227v100
l-239 -13c-137 -8 -208 -63 -208 -160c0 -95 74 -154 191 -154zM981 1726h-696v166h696v-166zM633 1273c-79 0 -145 67 -145 148s66 149 145 149c80 0 146 -68 146 -149s-66 -148 -146 -148z" />
    <glyph glyph-name="aringbelow" unicode="&#x1e01;" 
d="M500 -18c-208 0 -347 132 -347 330c0 196 142 312 404 328l274 16v92c0 113 -73 177 -201 177c-107 0 -185 -46 -209 -126h-228c20 189 197 314 443 314c271 0 425 -133 425 -367v-746h-221v153h-21c-53 -109 -170 -171 -319 -171zM575 172c148 0 256 95 256 227v100
l-239 -13c-137 -8 -208 -63 -208 -160c0 -95 74 -154 191 -154zM608 -458c61 0 108 49 108 111c0 61 -47 110 -108 110c-62 0 -109 -49 -109 -110c0 -62 47 -111 109 -111zM608 -585c-129 0 -234 107 -234 238c0 130 105 237 234 237c128 0 233 -107 233 -237
c0 -131 -105 -238 -233 -238z" />
    <glyph glyph-name="acircumflex" unicode="&#xe2;" 
d="M500 -18c-208 0 -347 132 -347 330c0 196 142 312 404 328l274 16v92c0 113 -73 177 -201 177c-107 0 -185 -46 -209 -126h-228c20 189 197 314 443 314c271 0 425 -133 425 -367v-746h-221v153h-21c-53 -109 -170 -171 -319 -171zM575 172c148 0 256 95 256 227v100
l-239 -13c-137 -8 -208 -63 -208 -160c0 -95 74 -154 191 -154zM507 1627h253l270 -351h-234l-154 216h-17l-155 -216h-233z" />
    <glyph glyph-name="acircumflexdotbelow" unicode="&#x1ead;" 
d="M500 -18c-208 0 -347 132 -347 330c0 196 142 312 404 328l274 16v92c0 113 -73 177 -201 177c-107 0 -185 -46 -209 -126h-228c20 189 197 314 443 314c271 0 425 -133 425 -367v-746h-221v153h-21c-53 -109 -170 -171 -319 -171zM575 172c148 0 256 95 256 227v100
l-239 -13c-137 -8 -208 -63 -208 -160c0 -95 74 -154 191 -154zM507 1627h253l270 -351h-234l-154 216h-17l-155 -216h-233zM608 -456c-80 0 -146 67 -146 148c0 82 66 149 146 149c79 0 145 -67 145 -149c0 -81 -66 -148 -145 -148z" />
    <glyph glyph-name="acircumflexacute" unicode="&#x1ea5;" 
d="M500 -18c-208 0 -347 132 -347 330c0 196 142 312 404 328l274 16v92c0 113 -73 177 -201 177c-107 0 -185 -46 -209 -126h-228c20 189 197 314 443 314c271 0 425 -133 425 -367v-746h-221v153h-21c-53 -109 -170 -171 -319 -171zM575 172c148 0 256 95 256 227v100
l-239 -13c-137 -8 -208 -63 -208 -160c0 -95 74 -154 191 -154zM845 1650l200 324h230l-234 -324h-196zM507 1627h253l270 -351h-234l-154 216h-17l-155 -216h-233z" />
    <glyph glyph-name="acircumflextilde" unicode="&#x1eab;" 
d="M500 -18c-208 0 -347 132 -347 330c0 196 142 312 404 328l274 16v92c0 113 -73 177 -201 177c-107 0 -185 -46 -209 -126h-228c20 189 197 314 443 314c271 0 425 -133 425 -367v-746h-221v153h-21c-53 -109 -170 -171 -319 -171zM575 172c148 0 256 95 256 227v100
l-239 -13c-137 -8 -208 -63 -208 -160c0 -95 74 -154 191 -154zM495 1856c-59 0 -85 -44 -86 -145h-163c0 186 89 299 236 299c160 0 203 -144 289 -144c59 0 85 42 87 141h162c0 -184 -89 -297 -235 -297c-161 0 -203 146 -290 146zM507 1627h253l270 -351h-234l-154 216
h-17l-155 -216h-233z" />
    <glyph glyph-name="acircumflexgrave" unicode="&#x1ea7;" 
d="M500 -18c-208 0 -347 132 -347 330c0 196 142 312 404 328l274 16v92c0 113 -73 177 -201 177c-107 0 -185 -46 -209 -126h-228c20 189 197 314 443 314c271 0 425 -133 425 -367v-746h-221v153h-21c-53 -109 -170 -171 -319 -171zM575 172c148 0 256 95 256 227v100
l-239 -13c-137 -8 -208 -63 -208 -160c0 -95 74 -154 191 -154zM1129 1650h-197l-233 324h230zM507 1627h253l270 -351h-234l-154 216h-17l-155 -216h-233z" />
    <glyph glyph-name="acircumflexhookabove" unicode="&#x1ea9;" 
d="M500 -18c-208 0 -347 132 -347 330c0 196 142 312 404 328l274 16v92c0 113 -73 177 -201 177c-107 0 -185 -46 -209 -126h-228c20 189 197 314 443 314c271 0 425 -133 425 -367v-746h-221v153h-21c-53 -109 -170 -171 -319 -171zM575 172c148 0 256 95 256 227v100
l-239 -13c-137 -8 -208 -63 -208 -160c0 -95 74 -154 191 -154zM507 1627h253l270 -351h-234l-154 216h-17l-155 -216h-233zM773 1847v134c36 15 91 28 151 28c132 0 225 -79 225 -198c0 -103 -68 -185 -182 -230l-80 102c60 22 102 63 102 106c0 48 -41 81 -106 81
c-39 0 -81 -9 -110 -23z" />
    <glyph glyph-name="abreve" unicode="&#x103;" 
d="M500 -18c-208 0 -347 132 -347 330c0 196 142 312 404 328l274 16v92c0 113 -73 177 -201 177c-107 0 -185 -46 -209 -126h-228c20 189 197 314 443 314c271 0 425 -133 425 -367v-746h-221v153h-21c-53 -109 -170 -171 -319 -171zM575 172c148 0 256 95 256 227v100
l-239 -13c-137 -8 -208 -63 -208 -160c0 -95 74 -154 191 -154zM620 1417c122 0 192 77 193 186h183c0 -202 -145 -344 -376 -344c-232 0 -377 142 -377 344h183c1 -109 72 -186 194 -186z" />
    <glyph glyph-name="abreveacute" unicode="&#x1eaf;" 
d="M500 -18c-208 0 -347 132 -347 330c0 196 142 312 404 328l274 16v92c0 113 -73 177 -201 177c-107 0 -185 -46 -209 -126h-228c20 189 197 314 443 314c271 0 425 -133 425 -367v-746h-221v153h-21c-53 -109 -170 -171 -319 -171zM575 172c148 0 256 95 256 227v100
l-239 -13c-137 -8 -208 -63 -208 -160c0 -95 74 -154 191 -154zM524 1654l194 324h216l-234 -324h-176zM633 1417c123 0 193 77 194 186h183c0 -202 -145 -344 -377 -344c-231 0 -377 142 -377 344h184c1 -109 71 -186 193 -186z" />
    <glyph glyph-name="abrevetilde" unicode="&#x1eb5;" 
d="M500 -18c-208 0 -347 132 -347 330c0 196 142 312 404 328l274 16v92c0 113 -73 177 -201 177c-107 0 -185 -46 -209 -126h-228c20 189 197 314 443 314c271 0 425 -133 425 -367v-746h-221v153h-21c-53 -109 -170 -171 -319 -171zM575 172c148 0 256 95 256 227v100
l-239 -13c-137 -8 -208 -63 -208 -160c0 -95 74 -154 191 -154zM633 1417c123 0 193 76 194 186h183c0 -203 -145 -344 -377 -344c-231 0 -377 141 -377 344h184c1 -110 71 -186 193 -186zM497 1839c-55 0 -83 -49 -83 -147h-167c0 190 95 311 244 311
c151 0 197 -148 279 -148c55 0 83 48 83 144h167c0 -188 -96 -309 -244 -309c-151 0 -197 149 -279 149z" />
    <glyph glyph-name="abrevehookabove" unicode="&#x1eb3;" 
d="M500 -18c-208 0 -347 132 -347 330c0 196 142 312 404 328l274 16v92c0 113 -73 177 -201 177c-107 0 -185 -46 -209 -126h-228c20 189 197 314 443 314c271 0 425 -133 425 -367v-746h-221v153h-21c-53 -109 -170 -171 -319 -171zM575 172c148 0 256 95 256 227v100
l-239 -13c-137 -8 -208 -63 -208 -160c0 -95 74 -154 191 -154zM633 1416c123 0 193 77 194 186h183c0 -202 -145 -344 -377 -344c-231 0 -377 142 -377 344h184c1 -109 71 -186 193 -186zM434 1851v135c36 15 91 27 151 27c132 0 225 -79 225 -197
c0 -103 -68 -185 -182 -230l-80 101c61 22 102 63 102 107c0 48 -41 80 -106 80c-39 0 -81 -9 -110 -23z" />
    <glyph glyph-name="abrevedotbelow" unicode="&#x1eb7;" 
d="M500 -18c-208 0 -347 132 -347 330c0 196 142 312 404 328l274 16v92c0 113 -73 177 -201 177c-107 0 -185 -46 -209 -126h-228c20 189 197 314 443 314c271 0 425 -133 425 -367v-746h-221v153h-21c-53 -109 -170 -171 -319 -171zM575 172c148 0 256 95 256 227v100
l-239 -13c-137 -8 -208 -63 -208 -160c0 -95 74 -154 191 -154zM633 1417c123 0 193 77 194 186h183c0 -202 -145 -344 -377 -344c-231 0 -377 142 -377 344h184c1 -109 71 -186 193 -186zM608 -466c-80 0 -146 67 -146 149c0 81 66 148 146 148c79 0 145 -67 145 -148
c0 -82 -66 -149 -145 -149z" />
    <glyph glyph-name="ainvertedbreve" unicode="&#x203;" 
d="M1010 1259h-183c-1 109 -71 186 -194 186c-122 0 -192 -77 -193 -186h-184c0 203 146 344 377 344c232 0 377 -141 377 -344zM831 499l-239 -13c-137 -8 -208 -63 -208 -160c0 -95 74 -154 191 -154c148 0 256 95 256 227v100zM840 153h-21c-53 -109 -170 -171 -319 -171
c-208 0 -347 132 -347 330c0 196 142 312 404 328l274 16v92c0 113 -73 177 -201 177c-107 0 -185 -46 -209 -126h-228c20 189 197 314 443 314c271 0 425 -133 425 -367v-746h-221v153z" />
    <glyph glyph-name="acaron" unicode="&#x1ce;" 
d="M760 1296h-253l-270 350h233l155 -216h17l154 216h234zM831 499l-239 -13c-137 -8 -208 -63 -208 -160c0 -95 74 -154 191 -154c148 0 256 95 256 227v100zM840 153h-21c-53 -109 -170 -171 -319 -171c-208 0 -347 132 -347 330c0 196 142 312 404 328l274 16v92
c0 113 -73 177 -201 177c-107 0 -185 -46 -209 -126h-228c20 189 197 314 443 314c271 0 425 -133 425 -367v-746h-221v153z" />
    <glyph glyph-name="adotaccent" unicode="&#x227;" 
d="M500 -18c-208 0 -347 132 -347 330c0 196 142 312 404 328l274 16v92c0 113 -73 177 -201 177c-107 0 -185 -46 -209 -126h-228c20 189 197 314 443 314c271 0 425 -133 425 -367v-746h-221v153h-21c-53 -109 -170 -171 -319 -171zM575 172c148 0 256 95 256 227v100
l-239 -13c-137 -8 -208 -63 -208 -160c0 -95 74 -154 191 -154zM633 1289c-79 0 -145 67 -145 149c0 81 66 148 145 148c80 0 146 -67 146 -148c0 -82 -66 -149 -146 -149z" />
    <glyph glyph-name="adotbelow" unicode="&#x1ea1;" 
d="M500 -18c-208 0 -347 132 -347 330c0 196 142 312 404 328l274 16v92c0 113 -73 177 -201 177c-107 0 -185 -46 -209 -126h-228c20 189 197 314 443 314c271 0 425 -133 425 -367v-746h-221v153h-21c-53 -109 -170 -171 -319 -171zM575 172c148 0 256 95 256 227v100
l-239 -13c-137 -8 -208 -63 -208 -160c0 -95 74 -154 191 -154zM608 -466c-80 0 -146 67 -146 149c0 81 66 148 146 148c79 0 145 -67 145 -148c0 -82 -66 -149 -145 -149z" />
    <glyph glyph-name="ahookabove" unicode="&#x1ea3;" 
d="M500 -18c-208 0 -347 132 -347 330c0 196 142 312 404 328l274 16v92c0 113 -73 177 -201 177c-107 0 -185 -46 -209 -126h-228c20 189 197 314 443 314c271 0 425 -133 425 -367v-746h-221v153h-21c-53 -109 -170 -171 -319 -171zM575 172c148 0 256 95 256 227v100
l-239 -13c-137 -8 -208 -63 -208 -160c0 -95 74 -154 191 -154zM455 1505v134c36 15 92 28 152 28c131 0 224 -79 224 -198c0 -103 -68 -185 -182 -230l-80 102c61 22 103 63 103 106c0 48 -41 81 -106 81c-40 0 -82 -9 -111 -23z" />
    <glyph glyph-name="adblgrave" unicode="&#x201;" 
d="M742 1644l209 -348h-201l-234 348h226zM331 1644l209 -348h-201l-235 348h227zM831 499l-239 -13c-137 -8 -208 -63 -208 -160c0 -95 74 -154 191 -154c148 0 256 95 256 227v100zM840 153h-21c-53 -109 -170 -171 -319 -171c-208 0 -347 132 -347 330
c0 196 142 312 404 328l274 16v92c0 113 -73 177 -201 177c-107 0 -185 -46 -209 -126h-228c20 189 197 314 443 314c271 0 425 -133 425 -367v-746h-221v153z" />
    <glyph glyph-name="amacron" unicode="&#x101;" 
d="M500 -18c-208 0 -347 132 -347 330c0 196 142 312 404 328l274 16v92c0 113 -73 177 -201 177c-107 0 -185 -46 -209 -126h-228c20 189 197 314 443 314c271 0 425 -133 425 -367v-746h-221v153h-21c-53 -109 -170 -171 -319 -171zM575 172c148 0 256 95 256 227v100
l-239 -13c-137 -8 -208 -63 -208 -160c0 -95 74 -154 191 -154zM981 1362h-696v165h696v-165z" />
    <glyph glyph-name="aogonek" unicode="&#x105;" 
d="M575 172c148 0 256 95 256 228v100l-239 -13c-137 -8 -208 -64 -208 -161c0 -95 74 -154 191 -154zM840 0v154h-21c-53 -109 -170 -171 -319 -171c-208 0 -347 132 -347 330c0 196 142 311 404 328l274 15v93c0 112 -73 176 -201 176c-107 0 -185 -46 -209 -125h-228
c20 189 197 313 443 313c271 0 425 -133 425 -367v-746l-18 -5c-103 -40 -169 -112 -169 -186c0 -59 45 -96 116 -96c28 0 56 3 71 9v-149c-28 -12 -86 -22 -135 -22c-148 0 -249 85 -249 209c0 96 53 175 163 240z" />
    <glyph glyph-name="b" unicode="b" 
d="M734 -17c-159 0 -270 69 -315 197h-20v-180h-237v1518h241v-602h20c41 127 153 198 311 198c252 0 407 -177 407 -468v-195c0 -292 -155 -468 -407 -468zM651 186c156 0 254 107 254 279v171c0 172 -98 280 -254 280s-254 -107 -254 -280v-171c0 -172 98 -279 254 -279z
" />
    <glyph glyph-name="blinebelow" unicode="&#x1e07;" 
d="M734 -17c-159 0 -270 69 -315 197h-20v-180h-237v1518h241v-602h20c41 127 153 198 311 198c252 0 407 -177 407 -468v-195c0 -292 -155 -468 -407 -468zM651 186c156 0 254 107 254 279v171c0 172 -98 280 -254 280s-254 -107 -254 -280v-171c0 -172 98 -279 254 -279z
M981 -407h-696v166h696v-166z" />
    <glyph glyph-name="bdotbelow" unicode="&#x1e05;" 
d="M734 -17c-159 0 -270 69 -315 197h-20v-180h-237v1518h241v-602h20c41 127 153 198 311 198c252 0 407 -177 407 -468v-195c0 -292 -155 -468 -407 -468zM651 186c156 0 254 107 254 279v171c0 172 -98 280 -254 280s-254 -107 -254 -280v-171c0 -172 98 -279 254 -279z
M633 -466c-79 0 -146 67 -146 149c0 81 67 148 146 148s146 -67 146 -148c0 -82 -67 -149 -146 -149z" />
    <glyph glyph-name="bdotaccent" unicode="&#x1e03;" 
d="M734 -17c-159 0 -270 69 -315 197h-20v-180h-237v1518h241v-602h20c41 127 153 198 311 198c252 0 407 -177 407 -468v-195c0 -292 -155 -468 -407 -468zM651 186c156 0 254 107 254 279v171c0 172 -98 280 -254 280s-254 -107 -254 -280v-171c0 -172 98 -279 254 -279z
M765 1289c-79 0 -146 67 -146 149c0 81 67 148 146 148s146 -67 146 -148c0 -82 -67 -149 -146 -149z" />
    <glyph glyph-name="c" unicode="c" 
d="M1113 730h-228c-19 125 -106 194 -233 194c-164 0 -254 -118 -254 -333v-84c0 -215 90 -333 254 -333c128 0 213 66 233 187h228c-25 -245 -192 -383 -459 -383c-313 0 -490 182 -490 508v126c0 325 177 508 490 508c268 0 433 -139 459 -390z" />
    <glyph glyph-name="cacute" unicode="&#x107;" 
d="M742 1296h-230l240 347h264zM1113 730h-228c-19 125 -106 194 -233 194c-164 0 -254 -118 -254 -333v-84c0 -215 90 -333 254 -333c128 0 213 66 233 187h228c-25 -245 -192 -383 -459 -383c-313 0 -490 182 -490 508v126c0 325 177 508 490 508c268 0 433 -139 459 -390
z" />
    <glyph glyph-name="ccaron" unicode="&#x10d;" 
d="M766 1296h-253l-270 350h234l155 -216h16l155 216h233zM1113 730h-228c-19 125 -106 194 -233 194c-164 0 -254 -118 -254 -333v-84c0 -215 90 -333 254 -333c128 0 213 66 233 187h228c-25 -245 -192 -383 -459 -383c-313 0 -490 182 -490 508v126
c0 325 177 508 490 508c268 0 433 -139 459 -390z" />
    <glyph glyph-name="ccircumflex" unicode="&#x109;" 
d="M1113 730h-228c-19 125 -106 194 -233 194c-164 0 -254 -118 -254 -333v-84c0 -215 90 -333 254 -333c128 0 213 66 233 187h228c-25 -245 -192 -383 -459 -383c-313 0 -490 182 -490 508v126c0 325 177 508 490 508c268 0 433 -139 459 -390zM514 1627h253l270 -351
h-234l-155 216h-16l-155 -216h-233z" />
    <glyph glyph-name="cdotaccent" unicode="&#x10b;" 
d="M1113 730h-228c-19 125 -106 194 -233 194c-164 0 -254 -118 -254 -333v-84c0 -215 90 -333 254 -333c128 0 213 66 233 187h228c-25 -245 -192 -383 -459 -383c-313 0 -490 182 -490 508v126c0 325 177 508 490 508c268 0 433 -139 459 -390zM641 1294
c-80 0 -146 67 -146 149c0 81 66 148 146 148c79 0 145 -67 145 -148c0 -82 -66 -149 -145 -149z" />
    <glyph glyph-name="ccedilla" unicode="&#xe7;" 
d="M398 591v-84c0 -215 90 -333 254 -333c128 0 213 66 233 187h228c-23 -229 -171 -365 -408 -381l-41 -98c123 -4 190 -65 190 -173c0 -124 -95 -198 -252 -198c-52 0 -94 6 -136 17v126c21 -8 77 -14 116 -14c71 0 110 22 110 63c0 43 -39 60 -133 60h-58v104l50 118
c-249 37 -387 213 -387 501v126c0 325 177 508 490 508c268 0 433 -139 459 -390h-228c-19 125 -106 194 -233 194c-164 0 -254 -118 -254 -333z" />
    <glyph glyph-name="ccedillaacute" unicode="&#x1e09;" 
d="M1016 1643l-274 -347h-230l240 347h264zM398 591v-84c0 -215 90 -333 254 -333c128 0 213 66 233 187h228c-23 -224 -165 -359 -393 -380l-41 -99c124 -4 191 -65 191 -173c0 -124 -96 -198 -253 -198c-52 0 -94 6 -136 17v126c22 -8 77 -14 116 -14c72 0 110 22 110 63
c0 43 -38 60 -132 60h-59v104l50 116c-258 32 -402 209 -402 503v126c0 325 177 508 490 508c268 0 433 -139 459 -390h-228c-19 125 -106 194 -233 194c-164 0 -254 -118 -254 -333z" />
    <glyph glyph-name="d" unicode="d" 
d="M362 636v-171c0 -172 97 -279 254 -279c156 0 253 107 253 279v171c0 173 -97 280 -253 280c-157 0 -254 -108 -254 -280zM868 180h-20c-46 -128 -157 -197 -316 -197c-251 0 -407 176 -407 468v195c0 291 156 468 407 468c158 0 271 -71 312 -198h20v602h240v-1518h-236
v180z" />
    <glyph glyph-name="ddotaccent" unicode="&#x1e0b;" 
d="M498 1289c-79 0 -146 67 -146 149c0 81 67 148 146 148s145 -67 145 -148c0 -82 -66 -149 -145 -149zM362 636v-171c0 -172 97 -279 254 -279c156 0 253 107 253 279v171c0 173 -97 280 -253 280c-157 0 -254 -108 -254 -280zM868 180h-20c-46 -128 -157 -197 -316 -197
c-251 0 -407 176 -407 468v195c0 291 156 468 407 468c158 0 271 -71 312 -198h20v602h240v-1518h-236v180z" />
    <glyph glyph-name="dcircumflexbelow" unicode="&#x1e13;" 
d="M506 -162h254l270 -351h-234l-155 216h-16l-155 -216h-234zM362 636v-171c0 -172 97 -279 254 -279c156 0 253 107 253 279v171c0 173 -97 280 -253 280c-157 0 -254 -108 -254 -280zM868 180h-20c-46 -128 -157 -197 -316 -197c-251 0 -407 176 -407 468v195
c0 291 156 468 407 468c158 0 271 -71 312 -198h20v602h240v-1518h-236v180z" />
    <glyph glyph-name="dcommaaccent" unicode="&#x1e11;" 
d="M658 -513h-208l123 357h236zM362 636v-171c0 -172 97 -279 254 -279c156 0 253 107 253 279v171c0 173 -97 280 -253 280c-157 0 -254 -108 -254 -280zM868 180h-20c-46 -128 -157 -197 -316 -197c-251 0 -407 176 -407 468v195c0 291 156 468 407 468
c158 0 271 -71 312 -198h20v602h240v-1518h-236v180z" />
    <glyph glyph-name="dlinebelow" unicode="&#x1e0f;" 
d="M981 -407h-696v166h696v-166zM362 636v-171c0 -172 97 -279 254 -279c156 0 253 107 253 279v171c0 173 -97 280 -253 280c-157 0 -254 -108 -254 -280zM868 180h-20c-46 -128 -157 -197 -316 -197c-251 0 -407 176 -407 468v195c0 291 156 468 407 468
c158 0 271 -71 312 -198h20v602h240v-1518h-236v180z" />
    <glyph glyph-name="dcaron" unicode="&#x10f;" 
d="M281 631v-161c0 -189 74 -284 219 -284s219 95 219 284v161c0 190 -74 285 -219 285s-219 -95 -219 -285zM740 180h-20c-48 -133 -144 -197 -287 -197c-239 0 -362 158 -362 468v195c0 309 123 468 362 468c143 0 241 -66 283 -198h20v602h204v-1518h-200v180zM1055 1518
h187l-35 -477h-152v477z" />
    <glyph glyph-name="ddotbelow" unicode="&#x1e0d;" 
d="M633 -466c-79 0 -146 67 -146 149c0 81 67 148 146 148s146 -67 146 -148c0 -82 -67 -149 -146 -149zM362 636v-171c0 -172 97 -279 254 -279c156 0 253 107 253 279v171c0 173 -97 280 -253 280c-157 0 -254 -108 -254 -280zM868 180h-20c-46 -128 -157 -197 -316 -197
c-251 0 -407 176 -407 468v195c0 291 156 468 407 468c158 0 271 -71 312 -198h20v602h240v-1518h-236v180z" />
    <glyph glyph-name="dcroat" unicode="&#x111;" 
d="M866 465v171c0 173 -98 280 -254 280s-254 -108 -254 -280v-171c0 -172 98 -279 254 -279s254 107 254 279zM1244 1393v-131h-143v-1262h-237v180h-20c-45 -128 -156 -197 -315 -197c-252 0 -407 176 -407 468v195c0 291 155 468 407 468c158 0 270 -71 311 -198h20v346
h-187v131h187v125h241v-125h143z" />
    <glyph glyph-name="e" unicode="e" 
d="M645 933c-157 0 -251 -107 -251 -286h496c0 178 -92 286 -245 286zM893 297h221c-26 -188 -212 -319 -457 -319c-312 0 -492 179 -492 491v171c0 287 193 477 484 477c288 0 467 -189 467 -493v-133h-722v-53c0 -167 103 -275 262 -275c121 0 214 53 237 134z" />
    <glyph glyph-name="egrave" unicode="&#xe8;" 
d="M645 933c-157 0 -251 -107 -251 -286h496c0 178 -92 286 -245 286zM893 297h221c-26 -188 -212 -319 -457 -319c-312 0 -492 179 -492 491v171c0 287 193 477 484 477c288 0 467 -189 467 -493v-133h-722v-53c0 -167 103 -275 262 -275c121 0 214 53 237 134zM786 1296
h-230l-274 347h264z" />
    <glyph glyph-name="edblgrave" unicode="&#x205;" 
d="M750 1644l209 -348h-201l-234 348h226zM339 1644l209 -348h-201l-234 348h226zM893 297h221c-26 -188 -212 -319 -457 -319c-312 0 -492 179 -492 491v171c0 287 193 477 484 477c288 0 467 -189 467 -493v-133h-722v-53c0 -167 103 -275 262 -275c121 0 214 53 237 134z
M394 647h496c0 178 -92 286 -245 286c-157 0 -251 -107 -251 -286z" />
    <glyph glyph-name="eacute" unicode="&#xe9;" 
d="M743 1296h-230l240 347h264zM893 297h221c-26 -188 -212 -319 -457 -319c-312 0 -492 179 -492 491v171c0 287 193 477 484 477c288 0 467 -189 467 -493v-133h-722v-53c0 -167 103 -275 262 -275c121 0 214 53 237 134zM394 647h496c0 178 -92 286 -245 286
c-157 0 -251 -107 -251 -286z" />
    <glyph glyph-name="ecircumflex" unicode="&#xea;" 
d="M645 933c-157 0 -251 -107 -251 -286h496c0 178 -92 286 -245 286zM893 297h221c-26 -188 -212 -319 -457 -319c-312 0 -492 179 -492 491v171c0 287 193 477 484 477c288 0 467 -189 467 -493v-133h-722v-53c0 -167 103 -275 262 -275c121 0 214 53 237 134zM514 1627
h254l270 -351h-234l-155 216h-16l-155 -216h-234z" />
    <glyph glyph-name="ecircumflexhookabove" unicode="&#x1ec3;" 
d="M645 933c-157 0 -251 -107 -251 -286h496c0 178 -92 286 -245 286zM893 297h221c-26 -188 -212 -319 -457 -319c-312 0 -492 179 -492 491v171c0 287 193 477 484 477c288 0 467 -189 467 -493v-133h-722v-53c0 -167 103 -275 262 -275c121 0 214 53 237 134zM515 1627
h253l270 -351h-234l-154 216h-17l-155 -216h-233zM781 1847v134c36 15 92 28 151 28c132 0 225 -79 225 -198c0 -103 -68 -185 -182 -230l-80 102c61 22 103 63 103 106c0 48 -42 81 -106 81c-40 0 -82 -9 -111 -23z" />
    <glyph glyph-name="ecircumflexgrave" unicode="&#x1ec1;" 
d="M645 933c-157 0 -251 -107 -251 -286h496c0 178 -92 286 -245 286zM893 297h221c-26 -188 -212 -319 -457 -319c-312 0 -492 179 -492 491v171c0 287 193 477 484 477c288 0 467 -189 467 -493v-133h-722v-53c0 -167 103 -275 262 -275c121 0 214 53 237 134zM1137 1650
h-197l-233 324h230zM515 1627h253l270 -351h-234l-154 216h-17l-155 -216h-233z" />
    <glyph glyph-name="ecircumflextilde" unicode="&#x1ec5;" 
d="M645 933c-157 0 -251 -107 -251 -286h496c0 178 -92 286 -245 286zM893 297h221c-26 -188 -212 -319 -457 -319c-312 0 -492 179 -492 491v171c0 287 193 477 484 477c288 0 467 -189 467 -493v-133h-722v-53c0 -167 103 -275 262 -275c121 0 214 53 237 134zM504 1856
c-59 0 -86 -44 -87 -145h-163c0 186 89 299 236 299c160 0 203 -144 289 -144c60 0 86 42 87 141h163c0 -184 -90 -297 -236 -297c-160 0 -203 146 -289 146zM515 1627h253l270 -351h-234l-154 216h-17l-155 -216h-233z" />
    <glyph glyph-name="ecircumflexdotbelow" unicode="&#x1ec7;" 
d="M645 933c-157 0 -251 -107 -251 -286h496c0 178 -92 286 -245 286zM893 297h221c-26 -188 -212 -319 -457 -319c-312 0 -492 179 -492 491v171c0 287 193 477 484 477c288 0 467 -189 467 -493v-133h-722v-53c0 -167 103 -275 262 -275c121 0 214 53 237 134zM515 1627
h253l270 -351h-234l-154 216h-17l-155 -216h-233zM641 -466c-79 0 -145 67 -145 149c0 81 66 148 145 148c80 0 146 -67 146 -148c0 -82 -66 -149 -146 -149z" />
    <glyph glyph-name="ecircumflexacute" unicode="&#x1ebf;" 
d="M645 933c-157 0 -251 -107 -251 -286h496c0 178 -92 286 -245 286zM893 297h221c-26 -188 -212 -319 -457 -319c-312 0 -492 179 -492 491v171c0 287 193 477 484 477c288 0 467 -189 467 -493v-133h-722v-53c0 -167 103 -275 262 -275c121 0 214 53 237 134zM853 1650
l200 324h230l-233 -324h-197zM515 1627h253l270 -351h-234l-154 216h-17l-155 -216h-233z" />
    <glyph glyph-name="edieresis" unicode="&#xeb;" 
d="M645 933c-157 0 -251 -107 -251 -286h496c0 178 -92 286 -245 286zM893 297h221c-26 -188 -212 -319 -457 -319c-312 0 -492 179 -492 491v171c0 287 193 477 484 477c288 0 467 -189 467 -493v-133h-722v-53c0 -167 103 -275 262 -275c121 0 214 53 237 134zM422 1308
c-73 0 -136 63 -136 139s63 139 136 139c72 0 135 -63 135 -139s-63 -139 -135 -139zM860 1308c-73 0 -135 63 -135 139s62 139 135 139s135 -63 135 -139s-62 -139 -135 -139z" />
    <glyph glyph-name="edotbelow" unicode="&#x1eb9;" 
d="M645 933c-157 0 -251 -107 -251 -286h496c0 178 -92 286 -245 286zM893 297h221c-26 -188 -212 -319 -457 -319c-312 0 -492 179 -492 491v171c0 287 193 477 484 477c288 0 467 -189 467 -493v-133h-722v-53c0 -167 103 -275 262 -275c121 0 214 53 237 134zM641 -466
c-79 0 -145 67 -145 149c0 81 66 148 145 148c80 0 146 -67 146 -148c0 -82 -66 -149 -146 -149z" />
    <glyph glyph-name="einvertedbreve" unicode="&#x207;" 
d="M1018 1259h-183c-1 109 -71 186 -194 186c-121 0 -192 -77 -193 -186h-183c0 203 145 344 376 344c232 0 377 -141 377 -344zM893 297h221c-26 -188 -212 -319 -457 -319c-312 0 -492 179 -492 491v171c0 287 193 477 484 477c288 0 467 -189 467 -493v-133h-722v-53
c0 -167 103 -275 262 -275c121 0 214 53 237 134zM394 647h496c0 178 -92 286 -245 286c-157 0 -251 -107 -251 -286z" />
    <glyph glyph-name="ehookabove" unicode="&#x1ebb;" 
d="M645 933c-157 0 -251 -107 -251 -286h496c0 178 -92 286 -245 286zM893 297h221c-26 -188 -212 -319 -457 -319c-312 0 -492 179 -492 491v171c0 287 193 477 484 477c288 0 467 -189 467 -493v-133h-722v-53c0 -167 103 -275 262 -275c121 0 214 53 237 134zM463 1505
v134c36 15 92 28 152 28c131 0 224 -79 224 -198c0 -103 -67 -185 -181 -230l-81 102c61 22 103 63 103 106c0 48 -41 81 -106 81c-39 0 -81 -9 -111 -23z" />
    <glyph glyph-name="ecaron" unicode="&#x11b;" 
d="M767 1296h-253l-270 350h234l154 -216h17l155 216h233zM893 297h221c-26 -188 -212 -319 -457 -319c-312 0 -492 179 -492 491v171c0 287 193 477 484 477c288 0 467 -189 467 -493v-133h-722v-53c0 -167 103 -275 262 -275c121 0 214 53 237 134zM394 647h496
c0 178 -92 286 -245 286c-157 0 -251 -107 -251 -286z" />
    <glyph glyph-name="emacron" unicode="&#x113;" 
d="M645 933c-157 0 -251 -107 -251 -286h496c0 178 -92 286 -245 286zM893 297h221c-26 -188 -212 -319 -457 -319c-312 0 -492 179 -492 491v171c0 287 193 477 484 477c288 0 467 -189 467 -493v-133h-722v-53c0 -167 103 -275 262 -275c121 0 214 53 237 134zM989 1362
h-696v165h696v-165z" />
    <glyph glyph-name="emacrongrave" unicode="&#x1e15;" 
d="M645 933c-157 0 -251 -107 -251 -286h496c0 178 -92 286 -245 286zM893 297h221c-26 -188 -212 -319 -457 -319c-312 0 -492 179 -492 491v171c0 287 193 477 484 477c288 0 467 -189 467 -493v-133h-722v-53c0 -167 103 -275 262 -275c121 0 214 53 237 134zM758 1669
h-201l-244 306h233zM989 1359h-695v166h695v-166z" />
    <glyph glyph-name="emacronacute" unicode="&#x1e17;" 
d="M989 1359h-695v166h695v-166zM725 1669h-200l211 306h234zM893 297h221c-26 -188 -212 -319 -457 -319c-312 0 -492 179 -492 491v171c0 287 193 477 484 477c288 0 467 -189 467 -493v-133h-722v-53c0 -167 103 -275 262 -275c121 0 214 53 237 134zM394 647h496
c0 178 -92 286 -245 286c-157 0 -251 -107 -251 -286z" />
    <glyph glyph-name="etilde" unicode="&#x1ebd;" 
d="M645 933c-157 0 -251 -107 -251 -286h496c0 178 -92 286 -245 286zM893 297h221c-26 -188 -212 -319 -457 -319c-312 0 -492 179 -492 491v171c0 287 193 477 484 477c288 0 467 -189 467 -493v-133h-722v-53c0 -167 103 -275 262 -275c121 0 214 53 237 134zM506 1414
c-56 0 -84 -50 -84 -147h-167c0 189 96 311 244 311c151 0 197 -148 279 -148c56 0 83 47 83 143h167c0 -187 -95 -309 -244 -309c-151 0 -196 150 -278 150z" />
    <glyph glyph-name="ecircumflexbelow" unicode="&#x1e19;" 
d="M645 933c-157 0 -251 -107 -251 -286h496c0 178 -92 286 -245 286zM893 297h221c-26 -188 -212 -319 -457 -319c-312 0 -492 179 -492 491v171c0 287 193 477 484 477c288 0 467 -189 467 -493v-133h-722v-53c0 -167 103 -275 262 -275c121 0 214 53 237 134zM515 -162
h253l270 -351h-234l-154 216h-17l-155 -216h-233z" />
    <glyph glyph-name="ebreve" unicode="&#x115;" 
d="M645 933c-157 0 -251 -107 -251 -286h496c0 178 -92 286 -245 286zM893 297h221c-26 -188 -212 -319 -457 -319c-312 0 -492 179 -492 491v171c0 287 193 477 484 477c288 0 467 -189 467 -493v-133h-722v-53c0 -167 103 -275 262 -275c121 0 214 53 237 134zM641 1422
c123 0 193 77 194 186h183c0 -202 -145 -344 -377 -344c-231 0 -376 142 -376 344h183c1 -109 72 -186 193 -186z" />
    <glyph glyph-name="etildebelow" unicode="&#x1e1b;" 
d="M645 933c-157 0 -251 -107 -251 -286h496c0 178 -92 286 -245 286zM893 297h221c-26 -188 -212 -319 -457 -319c-312 0 -492 179 -492 491v171c0 287 193 477 484 477c288 0 467 -189 467 -493v-133h-722v-53c0 -167 103 -275 262 -275c121 0 214 53 237 134zM516 -320
c-56 0 -84 -49 -84 -147h-167c0 190 96 311 244 311c151 0 197 -148 279 -148c56 0 83 48 83 144h167c0 -188 -95 -309 -244 -309c-151 0 -196 149 -278 149z" />
    <glyph glyph-name="edotaccent" unicode="&#x117;" 
d="M645 933c-157 0 -251 -107 -251 -286h496c0 178 -92 286 -245 286zM893 297h221c-26 -188 -212 -319 -457 -319c-312 0 -492 179 -492 491v171c0 287 193 477 484 477c288 0 467 -189 467 -493v-133h-722v-53c0 -167 103 -275 262 -275c121 0 214 53 237 134zM641 1294
c-79 0 -145 67 -145 149c0 81 66 148 145 148c80 0 146 -67 146 -148c0 -82 -66 -149 -146 -149z" />
    <glyph glyph-name="ecedilla" unicode="&#x229;" 
d="M394 647h496c0 178 -92 286 -245 286c-157 0 -251 -107 -251 -286zM1116 491h-722v-53c0 -167 103 -275 262 -275c121 0 214 53 237 134h221c-24 -171 -180 -295 -393 -316l-41 -99c124 -4 191 -65 191 -173c0 -124 -96 -198 -253 -198c-52 0 -94 6 -136 17v126
c22 -8 77 -14 116 -14c72 0 110 22 110 63c0 43 -39 60 -132 60h-59v104l50 116c-256 32 -402 205 -402 486v171c0 287 193 477 484 477c288 0 467 -189 467 -493v-133z" />
    <glyph glyph-name="ecedillabreve" unicode="&#x1e1d;" 
d="M835 1603h183c0 -202 -145 -344 -377 -344c-231 0 -376 142 -376 344h183c1 -109 72 -186 193 -186c123 0 193 77 194 186zM394 647h496c0 178 -92 286 -245 286c-157 0 -251 -107 -251 -286zM1116 491h-722v-53c0 -167 103 -275 262 -275c121 0 214 53 237 134h221
c-24 -171 -180 -295 -393 -316l-41 -99c124 -4 191 -65 191 -173c0 -124 -96 -198 -253 -198c-52 0 -94 6 -136 17v126c22 -8 77 -14 116 -14c72 0 110 22 110 63c0 43 -39 60 -132 60h-59v104l50 116c-256 32 -402 205 -402 486v171c0 287 193 477 484 477
c288 0 467 -189 467 -493v-133z" />
    <glyph glyph-name="eogonek" unicode="&#x119;" 
d="M850 -448c-150 0 -256 88 -256 212c0 81 50 160 134 210v16c-22 -7 -60 -12 -95 -12c-294 0 -468 181 -468 491v171c0 287 193 477 484 477c288 0 467 -189 467 -493v-133h-722v-53c0 -167 103 -275 262 -275c121 0 214 53 237 134h221c-12 -84 -69 -173 -164 -256
c-125 -104 -169 -165 -169 -230s47 -106 122 -106c30 0 56 3 69 8v-142c-33 -12 -75 -19 -122 -19zM645 933c-157 0 -251 -107 -251 -286h496c0 178 -92 286 -245 286z" />
    <glyph glyph-name="f" unicode="f" 
d="M456 0v900h-293v188h293v91c0 233 122 329 408 329c41 0 255 -4 278 -7v-175c-31 3 -233 6 -273 6c-122 0 -185 -48 -185 -141v-103h458v-188h-454v-900h-232z" />
    <glyph glyph-name="fdotaccent" unicode="&#x1e1f;" 
d="M456 0v900h-293v188h293v91c0 233 122 329 408 329c41 0 255 -4 278 -7v-175c-31 3 -233 6 -273 6c-122 0 -185 -48 -185 -141v-103h458v-188h-454v-900h-232zM199 1289c-79 0 -145 67 -145 149c0 81 66 148 145 148c80 0 146 -67 146 -148c0 -82 -66 -149 -146 -149z
" />
    <glyph glyph-name="g" unicode="g" 
d="M350 482c0 -171 101 -280 259 -280c157 0 258 109 258 280v154c0 171 -101 280 -258 280c-158 0 -259 -109 -259 -280v-154zM602 -412c-272 0 -452 117 -472 306h228c20 -79 117 -130 247 -130c171 0 264 82 264 235v198h-20c-39 -121 -165 -198 -326 -198
c-253 0 -410 179 -410 468v179c0 291 159 468 419 468c159 0 281 -76 321 -198h20v179h229v-1094c0 -257 -189 -413 -500 -413z" />
    <glyph glyph-name="gacute" unicode="&#x1f5;" 
d="M709 1296h-230l240 347h264zM1102 1095v-1094c0 -257 -189 -413 -500 -413c-272 0 -452 117 -472 306h228c20 -79 117 -130 247 -130c171 0 264 82 264 235v198h-20c-39 -121 -165 -198 -326 -198c-253 0 -410 179 -410 468v179c0 291 159 468 419 468
c159 0 281 -76 321 -198h20v179h229zM350 636v-154c0 -171 101 -280 259 -280c157 0 258 109 258 280v154c0 171 -101 280 -258 280c-158 0 -259 -109 -259 -280z" />
    <glyph glyph-name="gcaron" unicode="&#x1e7;" 
d="M734 1296h-253l-270 350h233l155 -216h17l155 216h233zM1102 1095v-1094c0 -257 -189 -413 -500 -413c-272 0 -452 117 -472 306h228c20 -79 117 -130 247 -130c171 0 264 82 264 235v198h-20c-39 -121 -165 -198 -326 -198c-253 0 -410 179 -410 468v179
c0 291 159 468 419 468c159 0 281 -76 321 -198h20v179h229zM350 636v-154c0 -171 101 -280 259 -280c157 0 258 109 258 280v154c0 171 -101 280 -258 280c-158 0 -259 -109 -259 -280z" />
    <glyph glyph-name="gcircumflex" unicode="&#x11d;" 
d="M350 482c0 -171 101 -280 259 -280c157 0 258 109 258 280v154c0 171 -101 280 -258 280c-158 0 -259 -109 -259 -280v-154zM602 -412c-272 0 -452 117 -472 306h228c20 -79 117 -130 247 -130c171 0 264 82 264 235v198h-20c-39 -121 -165 -198 -326 -198
c-253 0 -410 179 -410 468v179c0 291 159 468 419 468c159 0 281 -76 321 -198h20v179h229v-1094c0 -257 -189 -413 -500 -413zM481 1627h253l270 -351h-234l-155 216h-16l-155 -216h-234z" />
    <glyph glyph-name="gbreve" unicode="&#x11f;" 
d="M350 482c0 -171 101 -280 259 -280c157 0 258 109 258 280v154c0 171 -101 280 -258 280c-158 0 -259 -109 -259 -280v-154zM602 -412c-272 0 -452 117 -472 306h228c20 -79 117 -130 247 -130c171 0 264 82 264 235v198h-20c-39 -121 -165 -198 -326 -198
c-253 0 -410 179 -410 468v179c0 291 159 468 419 468c159 0 281 -76 321 -198h20v179h229v-1094c0 -257 -189 -413 -500 -413zM607 1422c123 0 193 77 194 186h183c0 -202 -145 -344 -377 -344c-231 0 -376 142 -376 344h183c1 -109 72 -186 193 -186z" />
    <glyph glyph-name="gmacron" unicode="&#x1e21;" 
d="M350 482c0 -171 101 -280 259 -280c157 0 258 109 258 280v154c0 171 -101 280 -258 280c-158 0 -259 -109 -259 -280v-154zM602 -412c-272 0 -452 117 -472 306h228c20 -79 117 -130 247 -130c171 0 264 82 264 235v198h-20c-39 -121 -165 -198 -326 -198
c-253 0 -410 179 -410 468v179c0 291 159 468 419 468c159 0 281 -76 321 -198h20v179h229v-1094c0 -257 -189 -413 -500 -413zM955 1362h-695v165h695v-165z" />
    <glyph glyph-name="gdotaccent" unicode="&#x121;" 
d="M350 482c0 -171 101 -280 259 -280c157 0 258 109 258 280v154c0 171 -101 280 -258 280c-158 0 -259 -109 -259 -280v-154zM602 -412c-272 0 -452 117 -472 306h228c20 -79 117 -130 247 -130c171 0 264 82 264 235v198h-20c-39 -121 -165 -198 -326 -198
c-253 0 -410 179 -410 468v179c0 291 159 468 419 468c159 0 281 -76 321 -198h20v179h229v-1094c0 -257 -189 -413 -500 -413zM607 1294c-79 0 -145 67 -145 149c0 81 66 148 145 148c80 0 146 -67 146 -148c0 -82 -66 -149 -146 -149z" />
    <glyph glyph-name="gcommaaccent" unicode="&#x123;" 
d="M350 482c0 -171 101 -280 259 -280c157 0 258 109 258 280v154c0 171 -101 280 -258 280c-158 0 -259 -109 -259 -280v-154zM602 -412c-272 0 -452 117 -472 306h228c20 -79 117 -130 247 -130c171 0 264 82 264 235v198h-20c-39 -121 -165 -198 -326 -198
c-253 0 -410 179 -410 468v179c0 291 159 468 419 468c159 0 281 -76 321 -198h20v179h229v-1094c0 -257 -189 -413 -500 -413zM636 1653h209l-123 -357h-236z" />
    <glyph glyph-name="h" unicode="h" 
d="M158 0v1518h226v-612h15c55 133 179 209 341 209c239 0 369 -144 369 -407v-708h-233v651c0 175 -73 260 -224 260c-158 0 -262 -110 -262 -276v-635h-232z" />
    <glyph glyph-name="hdieresis" unicode="&#x1e27;" 
d="M158 0v1518h226v-612h15c55 133 179 209 341 209c239 0 369 -144 369 -407v-708h-233v651c0 175 -73 260 -224 260c-158 0 -262 -110 -262 -276v-635h-232zM57 1708c-73 0 -135 63 -135 139c0 75 62 139 135 139s135 -64 135 -139c0 -76 -62 -139 -135 -139zM496 1708
c-73 0 -135 63 -135 139c0 75 62 139 135 139s135 -64 135 -139c0 -76 -62 -139 -135 -139z" />
    <glyph glyph-name="hcaron" unicode="&#x21f;" 
d="M665 2000l-283 -324h-218l-282 324h220l163 -196h16l164 196h220zM158 0v1518h226v-612h15c55 133 179 209 341 209c239 0 369 -144 369 -407v-708h-233v651c0 175 -73 260 -224 260c-158 0 -262 -110 -262 -276v-635h-232z" />
    <glyph glyph-name="hcircumflex" unicode="&#x125;" 
d="M158 0v1518h226v-612h15c55 133 179 209 341 209c239 0 369 -144 369 -407v-708h-233v651c0 175 -73 260 -224 260c-158 0 -262 -110 -262 -276v-635h-232zM152 1959h253l270 -350h-234l-154 216h-17l-155 -216h-233z" />
    <glyph glyph-name="hdotbelow" unicode="&#x1e25;" 
d="M158 0v1518h226v-612h15c55 133 179 209 341 209c239 0 369 -144 369 -407v-708h-233v651c0 175 -73 260 -224 260c-158 0 -262 -110 -262 -276v-635h-232zM633 -466c-79 0 -145 67 -145 149c0 81 66 148 145 148c80 0 146 -67 146 -148c0 -82 -66 -149 -146 -149z" />
    <glyph glyph-name="hdotaccent" unicode="&#x1e23;" 
d="M158 0v1518h226v-612h15c55 133 179 209 341 209c239 0 369 -144 369 -407v-708h-233v651c0 175 -73 260 -224 260c-158 0 -262 -110 -262 -276v-635h-232zM269 1690c-80 0 -146 67 -146 149c0 81 66 148 146 148c79 0 145 -67 145 -148c0 -82 -66 -149 -145 -149z" />
    <glyph glyph-name="hbrevebelow" unicode="&#x1e2b;" 
d="M158 0v1518h226v-612h15c55 133 179 209 341 209c239 0 369 -144 369 -407v-708h-233v651c0 175 -73 260 -224 260c-158 0 -262 -110 -262 -276v-635h-232zM633 -310c123 0 193 77 194 186h183c0 -203 -145 -344 -377 -344c-231 0 -376 141 -376 344h183
c1 -109 72 -186 193 -186z" />
    <glyph glyph-name="hcedilla" unicode="&#x1e29;" 
d="M246 0h-88v1518h226v-612h15c55 133 179 209 341 209c239 0 369 -144 369 -407v-708h-233v651c0 175 -73 260 -224 260c-158 0 -262 -110 -262 -276v-635l-53 -125c126 -2 203 -67 203 -171c0 -122 -92 -197 -253 -197c-58 0 -109 7 -145 19v116c25 -9 79 -16 121 -16
c77 0 120 26 120 70c0 47 -41 68 -139 68h-58v98z" />
    <glyph glyph-name="hbar" unicode="&#x127;" 
d="M384 906h15c55 133 179 209 341 209c239 0 369 -144 369 -407v-708h-233v651c0 175 -73 260 -224 260c-158 0 -262 -110 -262 -276v-635h-232v1263h-142v131h142v124h226v-124h256v-131h-256v-357z" />
    <glyph glyph-name="hlinebelow" unicode="&#x1e96;" 
d="M158 0v1518h226v-612h15c55 133 179 209 341 209c239 0 369 -144 369 -407v-708h-233v651c0 175 -73 260 -224 260c-158 0 -262 -110 -262 -276v-635h-232zM981 -407h-695v166h695v-166z" />
    <glyph glyph-name="i" unicode="i" 
d="M650 1338c-99 0 -169 65 -169 159s70 159 169 159c100 0 170 -65 170 -159s-70 -159 -170 -159zM1115 0h-932v186h361v723h-349v186h576v-909h344v-186z" />
    <glyph glyph-name="idotaccent" 
d="M1115 0h-932v186h361v723h-349v186h576v-909h344v-186zM652 1284c-79 0 -145 68 -145 149s66 148 145 148s146 -67 146 -148s-67 -149 -146 -149z" />
    <glyph glyph-name="igrave" unicode="&#xec;" 
d="M1115 0h-932v186h361v723h-349v186h576v-909h344v-186zM797 1291h-230l-274 347h264z" />
    <glyph glyph-name="idblgrave" unicode="&#x209;" 
d="M761 1639l209 -348h-201l-234 348h226zM350 1639l209 -348h-201l-235 348h227zM1115 0h-932v186h361v723h-349v186h576v-909h344v-186z" />
    <glyph glyph-name="iacute" unicode="&#xed;" 
d="M754 1291h-230l240 347h264zM1115 0h-932v186h361v723h-349v186h576v-909h344v-186z" />
    <glyph glyph-name="icircumflex" unicode="&#xee;" 
d="M1115 0h-932v186h361v723h-349v186h576v-909h344v-186zM525 1622h253l270 -351h-233l-155 216h-17l-154 -216h-234z" />
    <glyph glyph-name="icaron" unicode="&#x1d0;" 
d="M779 1291h-253l-270 350h233l155 -215h17l154 215h234zM1115 0h-932v186h361v723h-349v186h576v-909h344v-186z" />
    <glyph glyph-name="idieresis" unicode="&#xef;" 
d="M1115 0h-932v186h361v723h-349v186h576v-909h344v-186zM432 1303c-73 0 -135 63 -135 139s62 139 135 139s136 -63 136 -139s-63 -139 -136 -139zM871 1303c-73 0 -135 63 -135 139s62 139 135 139s135 -63 135 -139s-62 -139 -135 -139z" />
    <glyph glyph-name="idieresisacute" unicode="&#x1e2f;" 
d="M1115 0h-932v186h361v723h-349v186h576v-909h344v-186zM532 1649l214 324h237l-248 -324h-203zM433 1283c-73 0 -135 63 -135 139s62 139 135 139s135 -63 135 -139s-62 -139 -135 -139zM872 1283c-73 0 -136 63 -136 139s63 139 136 139c72 0 135 -63 135 -139
s-63 -139 -135 -139z" />
    <glyph glyph-name="ibreve" unicode="&#x12d;" 
d="M1115 0h-932v186h361v723h-349v186h576v-909h344v-186zM657 1407c122 0 193 77 194 186h183c0 -202 -146 -344 -377 -344s-377 142 -377 344h184c1 -109 71 -186 193 -186z" />
    <glyph glyph-name="idotbelow" unicode="&#x1ecb;" 
d="M650 1338c-99 0 -169 65 -169 159s70 159 169 159c100 0 170 -65 170 -159s-70 -159 -170 -159zM1115 0h-932v186h361v723h-349v186h576v-909h344v-186zM633 -466c-79 0 -146 67 -146 149c0 81 67 148 146 148s146 -67 146 -148c0 -82 -67 -149 -146 -149z" />
    <glyph glyph-name="iinvertedbreve" unicode="&#x20b;" 
d="M1029 1254h-183c-1 109 -71 186 -194 186c-122 0 -192 -77 -193 -186h-184c0 203 146 344 377 344c232 0 377 -141 377 -344zM1115 0h-932v186h361v723h-349v186h576v-909h344v-186z" />
    <glyph glyph-name="imacron" unicode="&#x12b;" 
d="M1115 0h-932v186h361v723h-349v186h576v-909h344v-186zM999 1357h-695v166h695v-166z" />
    <glyph glyph-name="itildebelow" unicode="&#x1e2d;" 
d="M650 1338c-99 0 -169 65 -169 159s70 159 169 159c100 0 170 -65 170 -159s-70 -159 -170 -159zM1115 0h-932v186h361v723h-349v186h576v-909h344v-186zM497 -320c-55 0 -83 -49 -83 -147h-167c0 190 95 311 244 311c151 0 196 -148 278 -148c56 0 83 48 84 144h167
c0 -188 -96 -309 -245 -309c-150 0 -196 149 -278 149z" />
    <glyph glyph-name="ihookabove" unicode="&#x1ec9;" 
d="M1115 0h-932v186h361v723h-349v186h576v-909h344v-186zM474 1500v134c36 15 92 28 152 28c131 0 224 -79 224 -198c0 -103 -68 -185 -182 -230l-80 102c61 22 103 63 103 106c0 48 -41 81 -106 81c-40 0 -82 -9 -111 -23z" />
    <glyph glyph-name="itilde" unicode="&#x129;" 
d="M1115 0h-932v186h361v723h-349v186h576v-909h344v-186zM516 1415c-56 0 -83 -50 -84 -147h-167c0 189 96 311 245 311c151 0 196 -148 278 -148c56 0 83 47 84 143h167c0 -187 -96 -308 -245 -308c-151 0 -196 149 -278 149z" />
    <glyph glyph-name="iogonek" unicode="&#x12f;" 
d="M650 1338c-99 0 -169 65 -169 159s70 159 169 159c100 0 170 -65 170 -159s-70 -159 -170 -159zM1115 186v-186c-115 -55 -177 -123 -177 -197c0 -59 36 -90 104 -90c28 0 56 3 73 9v-151c-27 -13 -78 -20 -139 -20c-132 0 -215 73 -215 189c0 104 59 189 180 260h-758
v186h361v723h-349v186h576v-909h344z" />
    <glyph glyph-name="j" unicode="j" 
d="M893 1095v-1067c0 -272 -123 -375 -439 -375c-49 0 -228 2 -275 5v204c34 -3 224 -5 267 -5c164 0 220 47 220 178v874h-471v186h698zM765 1338c-100 0 -170 65 -170 159s70 159 170 159c99 0 169 -65 169 -159s-70 -159 -169 -159z" />
    <glyph glyph-name="jcircumflex" unicode="&#x135;" 
d="M893 1095v-1067c0 -272 -123 -375 -439 -375c-49 0 -228 2 -275 5v204c34 -3 224 -5 267 -5c164 0 220 47 220 178v874h-471v186h698zM653 1627h253l270 -351h-234l-154 216h-17l-155 -216h-233z" />
    <glyph glyph-name="k" unicode="k" 
d="M1194 0h-271l-340 500l-123 -122v-378h-232v1518h232v-884h15l420 461h271l-414 -446z" />
    <glyph glyph-name="kacute" unicode="&#x1e31;" 
d="M768 1993l-316 -311h-230l286 311h260zM1194 0h-271l-340 500l-123 -122v-378h-232v1518h232v-884h15l420 461h271l-414 -446z" />
    <glyph glyph-name="kcaron" unicode="&#x1e9;" 
d="M453 1676h-218l-282 324h220l163 -196h16l164 196h220zM1194 0h-271l-340 500l-123 -122v-378h-232v1518h232v-884h15l420 461h271l-414 -446z" />
    <glyph glyph-name="kdotbelow" unicode="&#x1e33;" 
d="M692 -169c79 0 145 -67 145 -148c0 -82 -66 -149 -145 -149c-80 0 -146 67 -146 149c0 81 66 148 146 148zM752 649l442 -649h-271l-340 500l-123 -122v-378h-232v1518h232v-884h15l420 461h271z" />
    <glyph glyph-name="klinebelow" unicode="&#x1e35;" 
d="M460 378v-378h-232v1518h232v-884h15l420 461h271l-414 -446l442 -649h-271l-340 500zM364 -407v166h695v-166h-695z" />
    <glyph glyph-name="kcommaaccent" unicode="&#x137;" 
d="M440 -494l123 357h236l-151 -357h-208zM752 649l442 -649h-271l-340 500l-123 -122v-378h-232v1518h232v-884h15l420 461h271z" />
    <glyph glyph-name="l" unicode="l" 
d="M1115 0h-932v186h359v1146h-347v186h579v-1332h341v-186z" />
    <glyph glyph-name="lacute" unicode="&#x13a;" 
d="M747 1713h-230l240 347h264zM1115 0h-932v186h359v1146h-347v186h579v-1332h341v-186z" />
    <glyph glyph-name="lcircumflexbelow" unicode="&#x1e3d;" 
d="M1115 0h-932v186h359v1146h-347v186h579v-1332h341v-186zM522 -162h253l270 -351h-233l-155 216h-17l-154 -216h-234z" />
    <glyph glyph-name="ldotbelow" unicode="&#x1e37;" 
d="M1115 0h-932v186h359v1146h-347v186h579v-1332h341v-186zM649 -466c-80 0 -146 67 -146 149c0 81 66 148 146 148c79 0 145 -67 145 -148c0 -82 -66 -149 -145 -149z" />
    <glyph glyph-name="ldotbelowmacron" unicode="&#x1e39;" 
d="M897 1748h-696v165h696v-165zM1115 0h-932v186h359v1146h-347v186h579v-1332h341v-186zM649 -466c-80 0 -146 67 -146 149c0 81 66 148 146 148c79 0 145 -67 145 -148c0 -82 -66 -149 -145 -149z" />
    <glyph glyph-name="llinebelow" unicode="&#x1e3b;" 
d="M1115 0h-932v186h359v1146h-347v186h579v-1332h341v-186zM997 -407h-696v166h696v-166z" />
    <glyph glyph-name="lcommaaccent" unicode="&#x13c;" 
d="M1115 0h-932v186h359v1146h-347v186h579v-1332h341v-186zM619 -494h-208l123 357h236z" />
    <glyph glyph-name="lcaron" unicode="&#x13e;" 
d="M987 1518h205l-43 -477h-162v477zM1115 0h-932v186h359v1146h-347v186h579v-1332h341v-186z" />
    <glyph glyph-name="ldot" unicode="&#x140;" 
d="M1115 0h-932v186h359v1146h-347v186h579v-1332h341v-186zM1123 750c-79 0 -146 67 -146 148s67 149 146 149s146 -68 146 -149s-67 -148 -146 -148z" />
    <glyph glyph-name="lslash" unicode="&#x142;" 
d="M774 186h341v-186h-932v186h359v452l-348 -192v200l348 194v492h-347v186h579v-549l319 178v-205l-319 -176v-580z" />
    <glyph glyph-name="m" unicode="m" 
d="M1176 832v-832h-200v758c0 100 -43 157 -117 157c-77 0 -125 -65 -125 -168v-747h-199v758c0 101 -42 157 -117 157c-78 0 -128 -65 -128 -168v-747h-200v1095h204v-164h25c25 119 102 186 207 186c102 0 172 -65 195 -180h25c25 112 106 180 213 180
c142 0 217 -99 217 -285z" />
    <glyph glyph-name="macute" unicode="&#x1e3f;" 
d="M781 1296h-230l240 347h264zM1176 832v-832h-200v758c0 100 -43 157 -117 157c-77 0 -125 -65 -125 -168v-747h-199v758c0 101 -42 157 -117 157c-78 0 -128 -65 -128 -168v-747h-200v1095h204v-164h25c25 119 102 186 207 186c102 0 172 -65 195 -180h25
c25 112 106 180 213 180c142 0 217 -99 217 -285z" />
    <glyph glyph-name="mdotaccent" unicode="&#x1e41;" 
d="M1176 832v-832h-200v758c0 100 -43 157 -117 157c-77 0 -125 -65 -125 -168v-747h-199v758c0 101 -42 157 -117 157c-78 0 -128 -65 -128 -168v-747h-200v1095h204v-164h25c25 119 102 186 207 186c102 0 172 -65 195 -180h25c25 112 106 180 213 180
c142 0 217 -99 217 -285zM633 1289c-79 0 -146 67 -146 149c0 81 67 148 146 148s146 -67 146 -148c0 -82 -67 -149 -146 -149z" />
    <glyph glyph-name="mdotbelow" unicode="&#x1e43;" 
d="M1176 832v-832h-200v758c0 100 -43 157 -117 157c-77 0 -125 -65 -125 -168v-747h-199v758c0 101 -42 157 -117 157c-78 0 -128 -65 -128 -168v-747h-200v1095h204v-164h25c25 119 102 186 207 186c102 0 172 -65 195 -180h25c25 112 106 180 213 180
c142 0 217 -99 217 -285zM633 -466c-79 0 -146 67 -146 149c0 81 67 148 146 148s146 -67 146 -148c0 -82 -67 -149 -146 -149z" />
    <glyph glyph-name="n" unicode="n" 
d="M160 0v1095h225v-187h16c56 134 177 209 338 209c238 0 367 -142 367 -407v-710h-233v653c0 176 -72 260 -222 260c-156 0 -258 -109 -258 -275v-638h-233z" />
    <glyph glyph-name="ngrave" unicode="&#x1f9;" 
d="M160 0v1095h225v-187h16c56 134 177 209 338 209c238 0 367 -142 367 -407v-710h-233v653c0 176 -72 260 -222 260c-156 0 -258 -109 -258 -275v-638h-233zM840 1296h-230l-274 347h264z" />
    <glyph glyph-name="nacute" unicode="&#x144;" 
d="M735 1296h-230l240 347h264zM160 0v1095h225v-187h16c56 134 177 209 338 209c238 0 367 -142 367 -407v-710h-233v653c0 176 -72 260 -222 260c-156 0 -258 -109 -258 -275v-638h-233z" />
    <glyph glyph-name="ntilde" unicode="&#xf1;" 
d="M160 0v1095h225v-187h16c56 134 177 209 338 209c238 0 367 -142 367 -407v-710h-233v653c0 176 -72 260 -222 260c-156 0 -258 -109 -258 -275v-638h-233zM497 1420c-56 0 -83 -50 -84 -147h-167c0 189 96 311 245 311c150 0 196 -148 278 -148c56 0 83 47 83 143h167
c0 -187 -95 -309 -244 -309c-151 0 -196 150 -278 150z" />
    <glyph glyph-name="ndotbelow" unicode="&#x1e47;" 
d="M160 0v1095h225v-187h16c56 134 177 209 338 209c238 0 367 -142 367 -407v-710h-233v653c0 176 -72 260 -222 260c-156 0 -258 -109 -258 -275v-638h-233zM633 -466c-79 0 -146 67 -146 149c0 81 67 148 146 148s146 -67 146 -148c0 -82 -67 -149 -146 -149z" />
    <glyph glyph-name="ndotaccent" unicode="&#x1e45;" 
d="M160 0v1095h225v-187h16c56 134 177 209 338 209c238 0 367 -142 367 -407v-710h-233v653c0 176 -72 260 -222 260c-156 0 -258 -109 -258 -275v-638h-233zM633 1289c-79 0 -146 67 -146 149c0 81 67 148 146 148s146 -67 146 -148c0 -82 -67 -149 -146 -149z" />
    <glyph glyph-name="ncaron" unicode="&#x148;" 
d="M759 1296h-253l-270 350h233l155 -216h17l154 216h234zM160 0v1095h225v-187h16c56 134 177 209 338 209c238 0 367 -142 367 -407v-710h-233v653c0 176 -72 260 -222 260c-156 0 -258 -109 -258 -275v-638h-233z" />
    <glyph glyph-name="ncircumflexbelow" unicode="&#x1e4b;" 
d="M160 0v1095h225v-187h16c56 134 177 209 338 209c238 0 367 -142 367 -407v-710h-233v653c0 176 -72 260 -222 260c-156 0 -258 -109 -258 -275v-638h-233zM506 -162h254l270 -351h-234l-155 216h-16l-155 -216h-234z" />
    <glyph glyph-name="nlinebelow" unicode="&#x1e49;" 
d="M160 0v1095h225v-187h16c56 134 177 209 338 209c238 0 367 -142 367 -407v-710h-233v653c0 176 -72 260 -222 260c-156 0 -258 -109 -258 -275v-638h-233zM981 -407h-696v166h696v-166z" />
    <glyph glyph-name="ncommaaccent" unicode="&#x146;" 
d="M160 0v1095h225v-187h16c56 134 177 209 338 209c238 0 367 -142 367 -407v-710h-233v653c0 176 -72 260 -222 260c-156 0 -258 -109 -258 -275v-638h-233zM607 -494h-209l123 357h236z" />
    <glyph glyph-name="o" unicode="o" 
d="M633 -22c-302 0 -493 188 -493 486v167c0 298 191 486 493 486s493 -188 493 -486v-167c0 -298 -191 -486 -493 -486zM633 924c-162 0 -263 -117 -263 -306v-141c0 -189 101 -306 263 -306s263 117 263 306v141c0 189 -101 306 -263 306z" />
    <glyph glyph-name="odieresis" unicode="&#xf6;" 
d="M633 -22c-302 0 -493 188 -493 486v167c0 298 191 486 493 486s493 -188 493 -486v-167c0 -298 -191 -486 -493 -486zM633 924c-162 0 -263 -117 -263 -306v-141c0 -189 101 -306 263 -306s263 117 263 306v141c0 189 -101 306 -263 306zM413 1308
c-73 0 -135 63 -135 139s62 139 135 139s135 -63 135 -139s-62 -139 -135 -139zM852 1308c-73 0 -135 63 -135 139s62 139 135 139s135 -63 135 -139s-62 -139 -135 -139z" />
    <glyph glyph-name="oslash" unicode="&#xf8;" 
d="M896 477v141c0 54 -8 101 -23 142l-414 -525c44 -42 103 -64 174 -64c162 0 263 117 263 306zM370 618v-141c0 -53 8 -101 23 -142l413 526c-44 41 -103 63 -173 63c-162 0 -263 -117 -263 -306zM1136 1095l-113 -143c67 -82 103 -191 103 -321v-167
c0 -298 -191 -486 -493 -486c-122 0 -227 31 -307 88l-52 -66h-144l112 143c-66 82 -102 191 -102 321v167c0 298 191 486 493 486c122 0 226 -31 306 -87l51 65h146z" />
    <glyph glyph-name="otilde" unicode="&#xf5;" 
d="M633 -22c-302 0 -493 188 -493 486v167c0 298 191 486 493 486s493 -188 493 -486v-167c0 -298 -191 -486 -493 -486zM633 924c-162 0 -263 -117 -263 -306v-141c0 -189 101 -306 263 -306s263 117 263 306v141c0 189 -101 306 -263 306zM497 1420
c-56 0 -83 -50 -84 -147h-167c0 189 96 311 245 311c150 0 196 -148 278 -148c56 0 83 47 83 143h167c0 -187 -95 -309 -244 -309c-151 0 -196 150 -278 150z" />
    <glyph glyph-name="oacute" unicode="&#xf3;" 
d="M735 1296h-230l240 347h264zM896 477v141c0 189 -101 306 -263 306s-263 -117 -263 -306v-141c0 -189 101 -306 263 -306s263 117 263 306zM1126 631v-167c0 -298 -191 -486 -493 -486s-493 188 -493 486v167c0 298 191 486 493 486s493 -188 493 -486z" />
    <glyph glyph-name="ocircumflex" unicode="&#xf4;" 
d="M633 -22c-302 0 -493 188 -493 486v167c0 298 191 486 493 486s493 -188 493 -486v-167c0 -298 -191 -486 -493 -486zM633 924c-162 0 -263 -117 -263 -306v-141c0 -189 101 -306 263 -306s263 117 263 306v141c0 189 -101 306 -263 306zM506 1627h254l270 -351h-234
l-155 216h-16l-155 -216h-234z" />
    <glyph glyph-name="ograve" unicode="&#xf2;" 
d="M633 -22c-302 0 -493 188 -493 486v167c0 298 191 486 493 486s493 -188 493 -486v-167c0 -298 -191 -486 -493 -486zM633 924c-162 0 -263 -117 -263 -306v-141c0 -189 101 -306 263 -306s263 117 263 306v141c0 189 -101 306 -263 306zM766 1296h-230l-274 347h264z
" />
    <glyph glyph-name="ocircumflexhookabove" unicode="&#x1ed5;" 
d="M633 -22c-302 0 -493 188 -493 486v167c0 298 191 486 493 486s493 -188 493 -486v-167c0 -298 -191 -486 -493 -486zM633 924c-162 0 -263 -117 -263 -306v-141c0 -189 101 -306 263 -306s263 117 263 306v141c0 189 -101 306 -263 306zM506 1627h254l270 -351h-234
l-155 216h-16l-155 -216h-234zM772 1847v134c36 15 92 28 152 28c131 0 224 -79 224 -198c0 -103 -67 -185 -181 -230l-81 102c61 22 103 63 103 106c0 48 -41 81 -106 81c-40 0 -81 -9 -111 -23z" />
    <glyph glyph-name="ocircumflexgrave" unicode="&#x1ed3;" 
d="M633 -22c-302 0 -493 188 -493 486v167c0 298 191 486 493 486s493 -188 493 -486v-167c0 -298 -191 -486 -493 -486zM633 924c-162 0 -263 -117 -263 -306v-141c0 -189 101 -306 263 -306s263 117 263 306v141c0 189 -101 306 -263 306zM1129 1650h-197l-234 324h231z
M506 1627h254l270 -351h-234l-155 216h-16l-155 -216h-234z" />
    <glyph glyph-name="odotbelow" unicode="&#x1ecd;" 
d="M633 -22c-302 0 -493 188 -493 486v167c0 298 191 486 493 486s493 -188 493 -486v-167c0 -298 -191 -486 -493 -486zM633 924c-162 0 -263 -117 -263 -306v-141c0 -189 101 -306 263 -306s263 117 263 306v141c0 189 -101 306 -263 306zM633 -466
c-79 0 -146 67 -146 149c0 81 67 148 146 148s146 -67 146 -148c0 -82 -67 -149 -146 -149z" />
    <glyph glyph-name="odblgrave" unicode="&#x20d;" 
d="M742 1644l208 -348h-200l-235 348h227zM331 1644l209 -348h-202l-234 348h227zM896 477v141c0 189 -101 306 -263 306s-263 -117 -263 -306v-141c0 -189 101 -306 263 -306s263 117 263 306zM1126 631v-167c0 -298 -191 -486 -493 -486s-493 188 -493 486v167
c0 298 191 486 493 486s493 -188 493 -486z" />
    <glyph glyph-name="otildeacute" unicode="&#x1e4d;" 
d="M633 -22c-302 0 -493 188 -493 486v167c0 298 191 486 493 486s493 -188 493 -486v-167c0 -298 -191 -486 -493 -486zM633 924c-162 0 -263 -117 -263 -306v-141c0 -189 101 -306 263 -306s263 117 263 306v141c0 189 -101 306 -263 306zM543 1699l164 274h215l-199 -274
h-180zM497 1415c-55 0 -83 -49 -83 -147h-167c0 190 95 311 244 311c151 0 196 -148 278 -148c56 0 83 48 84 144h167c0 -188 -96 -309 -245 -309c-150 0 -196 149 -278 149z" />
    <glyph glyph-name="omacronacute" unicode="&#x1e53;" 
d="M981 1359h-696v166h696v-166zM717 1669h-201l212 306h234zM896 477v141c0 189 -101 306 -263 306s-263 -117 -263 -306v-141c0 -189 101 -306 263 -306s263 117 263 306zM1126 631v-167c0 -298 -191 -486 -493 -486s-493 188 -493 486v167c0 298 191 486 493 486
s493 -188 493 -486z" />
    <glyph glyph-name="ocircumflextilde" unicode="&#x1ed7;" 
d="M633 -22c-302 0 -493 188 -493 486v167c0 298 191 486 493 486s493 -188 493 -486v-167c0 -298 -191 -486 -493 -486zM633 924c-162 0 -263 -117 -263 -306v-141c0 -189 101 -306 263 -306s263 117 263 306v141c0 189 -101 306 -263 306zM495 1856
c-59 0 -85 -44 -86 -145h-163c0 186 89 299 235 299c161 0 204 -144 290 -144c59 0 85 42 86 141h163c0 -184 -89 -297 -235 -297c-161 0 -204 146 -290 146zM506 1627h254l270 -351h-234l-155 216h-16l-155 -216h-234z" />
    <glyph glyph-name="odotaccentmacron" unicode="&#x231;" 
d="M633 -22c-302 0 -493 188 -493 486v167c0 298 191 486 493 486s493 -188 493 -486v-167c0 -298 -191 -486 -493 -486zM633 924c-162 0 -263 -117 -263 -306v-141c0 -189 101 -306 263 -306s263 117 263 306v141c0 189 -101 306 -263 306zM981 1726h-696v166h696v-166z
M633 1273c-79 0 -146 67 -146 148s67 149 146 149s146 -68 146 -149s-67 -148 -146 -148z" />
    <glyph glyph-name="omacrongrave" unicode="&#x1e51;" 
d="M633 -22c-302 0 -493 188 -493 486v167c0 298 191 486 493 486s493 -188 493 -486v-167c0 -298 -191 -486 -493 -486zM633 924c-162 0 -263 -117 -263 -306v-141c0 -189 101 -306 263 -306s263 117 263 306v141c0 189 -101 306 -263 306zM750 1669h-201l-245 306h234z
M981 1359h-696v166h696v-166z" />
    <glyph glyph-name="ocaron" unicode="&#x1d2;" 
d="M760 1296h-254l-270 350h234l155 -216h16l155 216h234zM896 477v141c0 189 -101 306 -263 306s-263 -117 -263 -306v-141c0 -189 101 -306 263 -306s263 117 263 306zM1126 631v-167c0 -298 -191 -486 -493 -486s-493 188 -493 486v167c0 298 191 486 493 486
s493 -188 493 -486z" />
    <glyph glyph-name="oslashacute" unicode="&#x1ff;" 
d="M1008 1643l-274 -347h-230l240 347h264zM896 477v141c0 54 -8 101 -23 142l-414 -525c44 -42 103 -64 174 -64c162 0 263 117 263 306zM370 618v-141c0 -53 8 -101 23 -142l413 526c-44 41 -103 63 -173 63c-162 0 -263 -117 -263 -306zM1136 1095l-113 -143
c67 -82 103 -191 103 -321v-167c0 -298 -191 -486 -493 -486c-122 0 -227 31 -307 88l-52 -66h-144l112 143c-66 82 -102 191 -102 321v167c0 298 191 486 493 486c122 0 226 -31 306 -87l51 65h146z" />
    <glyph glyph-name="ohungarumlaut" unicode="&#x151;" 
d="M633 -22c-302 0 -493 188 -493 486v167c0 298 191 486 493 486s493 -188 493 -486v-167c0 -298 -191 -486 -493 -486zM633 924c-162 0 -263 -117 -263 -306v-141c0 -189 101 -306 263 -306s263 117 263 306v141c0 189 -101 306 -263 306zM740 1296l209 348h226l-234 -348
h-201zM329 1296l209 348h226l-234 -348h-201z" />
    <glyph glyph-name="obreve" unicode="&#x14f;" 
d="M633 -22c-302 0 -493 188 -493 486v167c0 298 191 486 493 486s493 -188 493 -486v-167c0 -298 -191 -486 -493 -486zM633 924c-162 0 -263 -117 -263 -306v-141c0 -189 101 -306 263 -306s263 117 263 306v141c0 189 -101 306 -263 306zM633 1422c122 0 193 77 194 186
h183c0 -202 -146 -344 -377 -344s-377 142 -377 344h184c1 -109 71 -186 193 -186z" />
    <glyph glyph-name="oinvertedbreve" unicode="&#x20f;" 
d="M1010 1259h-183c-1 109 -72 186 -194 186s-192 -77 -193 -186h-184c0 203 146 344 377 344s377 -141 377 -344zM896 477v141c0 189 -101 306 -263 306s-263 -117 -263 -306v-141c0 -189 101 -306 263 -306s263 117 263 306zM1126 631v-167c0 -298 -191 -486 -493 -486
s-493 188 -493 486v167c0 298 191 486 493 486s493 -188 493 -486z" />
    <glyph glyph-name="ohookabove" unicode="&#x1ecf;" 
d="M633 -22c-302 0 -493 188 -493 486v167c0 298 191 486 493 486s493 -188 493 -486v-167c0 -298 -191 -486 -493 -486zM633 924c-162 0 -263 -117 -263 -306v-141c0 -189 101 -306 263 -306s263 117 263 306v141c0 189 -101 306 -263 306zM455 1505v134
c36 15 92 28 152 28c131 0 224 -79 224 -198c0 -103 -68 -185 -182 -230l-80 102c61 22 103 63 103 106c0 48 -42 81 -106 81c-40 0 -82 -9 -111 -23z" />
    <glyph glyph-name="odieresismacron" unicode="&#x22b;" 
d="M852 1566c73 0 136 -63 136 -139s-63 -139 -136 -139s-135 63 -135 139s62 139 135 139zM414 1566c73 0 135 -63 135 -139s-62 -139 -135 -139s-136 63 -136 139s63 139 136 139zM981 1724h-696v166h696v-166zM896 477v141c0 189 -101 306 -263 306s-263 -117 -263 -306
v-141c0 -189 101 -306 263 -306s263 117 263 306zM1126 631v-167c0 -298 -191 -486 -493 -486s-493 188 -493 486v167c0 298 191 486 493 486s493 -188 493 -486z" />
    <glyph glyph-name="otildemacron" unicode="&#x22d;" 
d="M633 -22c-302 0 -493 188 -493 486v167c0 298 191 486 493 486s493 -188 493 -486v-167c0 -298 -191 -486 -493 -486zM633 924c-162 0 -263 -117 -263 -306v-141c0 -189 101 -306 263 -306s263 117 263 306v141c0 189 -101 306 -263 306zM497 1415
c-55 0 -83 -49 -83 -147h-167c0 190 95 311 244 311c151 0 196 -148 278 -148c56 0 83 48 84 144h167c0 -188 -96 -309 -245 -309c-150 0 -196 149 -278 149zM981 1727h-696v166h696v-166z" />
    <glyph glyph-name="odotaccent" unicode="&#x22f;" 
d="M633 -22c-302 0 -493 188 -493 486v167c0 298 191 486 493 486s493 -188 493 -486v-167c0 -298 -191 -486 -493 -486zM633 924c-162 0 -263 -117 -263 -306v-141c0 -189 101 -306 263 -306s263 117 263 306v141c0 189 -101 306 -263 306zM633 1289
c-79 0 -146 67 -146 149c0 81 67 148 146 148s146 -67 146 -148c0 -82 -67 -149 -146 -149z" />
    <glyph glyph-name="ocircumflexdotbelow" unicode="&#x1ed9;" 
d="M633 -22c-302 0 -493 188 -493 486v167c0 298 191 486 493 486s493 -188 493 -486v-167c0 -298 -191 -486 -493 -486zM633 924c-162 0 -263 -117 -263 -306v-141c0 -189 101 -306 263 -306s263 117 263 306v141c0 189 -101 306 -263 306zM506 1627h254l270 -351h-234
l-155 216h-16l-155 -216h-234zM633 -466c-79 0 -146 67 -146 149c0 81 67 148 146 148s146 -67 146 -148c0 -82 -67 -149 -146 -149z" />
    <glyph glyph-name="ocircumflexacute" unicode="&#x1ed1;" 
d="M633 -22c-302 0 -493 188 -493 486v167c0 298 191 486 493 486s493 -188 493 -486v-167c0 -298 -191 -486 -493 -486zM633 924c-162 0 -263 -117 -263 -306v-141c0 -189 101 -306 263 -306s263 117 263 306v141c0 189 -101 306 -263 306zM844 1650l200 324h231l-234 -324
h-197zM506 1627h254l270 -351h-234l-155 216h-16l-155 -216h-234z" />
    <glyph glyph-name="otildedieresis" unicode="&#x1e4f;" 
d="M633 -22c-302 0 -493 188 -493 486v167c0 298 191 486 493 486s493 -188 493 -486v-167c0 -298 -191 -486 -493 -486zM633 924c-162 0 -263 -117 -263 -306v-141c0 -189 101 -306 263 -306s263 117 263 306v141c0 189 -101 306 -263 306zM414 1674
c-71 0 -131 62 -131 134c0 73 60 134 131 134c70 0 130 -61 130 -134c0 -72 -60 -134 -130 -134zM852 1674c-70 0 -130 62 -130 134c0 73 60 134 130 134c71 0 131 -61 131 -134c0 -72 -60 -134 -131 -134zM497 1415c-55 0 -83 -49 -83 -147h-167c0 190 95 311 244 311
c151 0 196 -148 278 -148c56 0 83 48 84 144h167c0 -188 -96 -309 -245 -309c-150 0 -196 149 -278 149z" />
    <glyph glyph-name="omacron" unicode="&#x14d;" 
d="M633 -22c-302 0 -493 188 -493 486v167c0 298 191 486 493 486s493 -188 493 -486v-167c0 -298 -191 -486 -493 -486zM633 924c-162 0 -263 -117 -263 -306v-141c0 -189 101 -306 263 -306s263 117 263 306v141c0 189 -101 306 -263 306zM980 1362h-695v165h695v-165z
" />
    <glyph glyph-name="oogonek" unicode="&#x1eb;" 
d="M829 -448c-149 0 -255 88 -255 212c0 82 50 161 134 210v14c-25 -6 -53 -10 -84 -10c-294 0 -484 189 -484 486v167c0 298 191 486 493 486s493 -188 493 -486v-167c0 -180 -70 -323 -213 -436c-109 -85 -153 -148 -153 -217c0 -65 48 -106 123 -106c24 0 54 4 69 8v-142
c-34 -12 -75 -19 -123 -19zM633 924c-163 0 -263 -118 -263 -306v-141c0 -188 100 -306 263 -306s263 118 263 306v141c0 188 -100 306 -263 306z" />
    <glyph glyph-name="oogonekmacron" unicode="&#x1ed;" 
d="M981 1362h-696v165h696v-165zM829 -448c-149 0 -255 88 -255 212c0 82 50 161 134 210v14c-25 -6 -53 -10 -84 -10c-294 0 -484 189 -484 486v167c0 298 191 486 493 486s493 -188 493 -486v-167c0 -180 -70 -323 -213 -436c-109 -85 -153 -148 -153 -217
c0 -65 48 -106 123 -106c24 0 54 4 69 8v-142c-34 -12 -75 -19 -123 -19zM633 924c-163 0 -263 -118 -263 -306v-141c0 -188 100 -306 263 -306s263 118 263 306v141c0 188 -100 306 -263 306z" />
    <glyph glyph-name="ohorn" unicode="&#x1a1;" 
d="M633 924c-163 0 -263 -118 -263 -306v-141c0 -188 100 -306 263 -306s263 118 263 306v141c0 188 -100 306 -263 306zM1126 464c0 -298 -191 -486 -493 -486s-493 188 -493 486v167c0 298 191 486 493 486c129 0 180 -32 296 -32c81 0 110 24 110 90v140h189v-204
c0 -115 -62 -179 -174 -179h-53v-12c79 -54 125 -162 125 -299v-157z" />
    <glyph glyph-name="ohorndotbelow" unicode="&#x1ee3;" 
d="M633 -466c-79 0 -146 67 -146 149c0 81 67 148 146 148s146 -67 146 -148c0 -82 -67 -149 -146 -149zM633 924c-163 0 -263 -118 -263 -306v-141c0 -188 100 -306 263 -306s263 118 263 306v141c0 188 -100 306 -263 306zM1126 464c0 -298 -191 -486 -493 -486
s-493 188 -493 486v167c0 298 191 486 493 486c129 0 180 -32 296 -32c81 0 110 24 110 90v140h189v-204c0 -115 -62 -179 -174 -179h-53v-12c79 -54 125 -162 125 -299v-157z" />
    <glyph glyph-name="ohornhookabove" unicode="&#x1edf;" 
d="M455 1505v134c36 15 92 28 152 28c131 0 224 -79 224 -198c0 -103 -68 -185 -182 -230l-80 102c61 22 103 63 103 106c0 48 -42 81 -106 81c-40 0 -82 -9 -111 -23zM633 924c-163 0 -263 -118 -263 -306v-141c0 -188 100 -306 263 -306s263 118 263 306v141
c0 188 -100 306 -263 306zM1126 464c0 -298 -191 -486 -493 -486s-493 188 -493 486v167c0 298 191 486 493 486c129 0 180 -32 296 -32c81 0 110 24 110 90v140h189v-204c0 -115 -62 -179 -174 -179h-53v-12c79 -54 125 -162 125 -299v-157z" />
    <glyph glyph-name="ohorntilde" unicode="&#x1ee1;" 
d="M466 1394c-50 0 -77 -49 -78 -140h-156c0 181 80 292 211 292c144 0 192 -148 267 -148c51 0 78 48 79 139h156c0 -180 -80 -290 -210 -290c-145 0 -194 147 -269 147zM633 924c-163 0 -263 -118 -263 -306v-141c0 -188 100 -306 263 -306s263 118 263 306v141
c0 188 -100 306 -263 306zM1126 464c0 -298 -191 -486 -493 -486s-493 188 -493 486v167c0 298 191 486 493 486c129 0 180 -32 296 -32c81 0 110 24 110 90v140h189v-204c0 -115 -62 -179 -174 -179h-53v-12c79 -54 125 -162 125 -299v-157z" />
    <glyph glyph-name="ohorngrave" unicode="&#x1edd;" 
d="M780 1296h-230l-275 347h264zM633 924c-163 0 -263 -118 -263 -306v-141c0 -188 100 -306 263 -306s263 118 263 306v141c0 188 -100 306 -263 306zM1126 464c0 -298 -191 -486 -493 -486s-493 188 -493 486v167c0 298 191 486 493 486c129 0 180 -32 296 -32
c81 0 110 24 110 90v140h189v-204c0 -115 -62 -179 -174 -179h-53v-12c79 -54 125 -162 125 -299v-157z" />
    <glyph glyph-name="ohornacute" unicode="&#x1edb;" 
d="M735 1296h-230l240 347h264zM1126 621v-157c0 -298 -191 -486 -493 -486s-493 188 -493 486v167c0 298 191 486 493 486c129 0 180 -32 296 -32c81 0 110 24 110 90v140h189v-204c0 -115 -62 -179 -174 -179h-53v-12c79 -54 125 -162 125 -299zM896 477v141
c0 188 -100 306 -263 306s-263 -118 -263 -306v-141c0 -188 100 -306 263 -306s263 118 263 306z" />
    <glyph glyph-name="p" unicode="p" 
d="M734 1113c252 0 408 -177 408 -468v-195c0 -292 -156 -469 -408 -469c-158 0 -270 72 -311 198h-20v-546h-240v1462h236v-180h20c46 128 157 198 315 198zM651 909c-156 0 -253 -107 -253 -279v-172c0 -172 97 -279 253 -279c157 0 254 108 254 279v172
c0 172 -97 279 -254 279z" />
    <glyph glyph-name="pdotaccent" unicode="&#x1e57;" 
d="M734 1113c252 0 408 -177 408 -468v-195c0 -292 -156 -469 -408 -469c-158 0 -270 72 -311 198h-20v-546h-240v1462h236v-180h20c46 128 157 198 315 198zM651 909c-156 0 -253 -107 -253 -279v-172c0 -172 97 -279 253 -279c157 0 254 108 254 279v172
c0 172 -97 279 -254 279zM633 1289c-79 0 -146 67 -146 149c0 81 67 148 146 148s146 -67 146 -148c0 -82 -67 -149 -146 -149z" />
    <glyph glyph-name="pacute" unicode="&#x1e55;" 
d="M800 1296h-230l240 347h264zM905 458v172c0 172 -97 279 -254 279c-156 0 -253 -107 -253 -279v-172c0 -172 97 -279 253 -279c157 0 254 108 254 279zM399 915h20c46 128 157 198 315 198c252 0 408 -177 408 -468v-195c0 -292 -156 -469 -408 -469
c-158 0 -270 72 -311 198h-20v-546h-240v1462h236v-180z" />
    <glyph glyph-name="q" unicode="q" 
d="M868 458v172c0 172 -97 279 -253 279c-157 0 -254 -107 -254 -279v-172c0 -171 97 -279 254 -279c156 0 253 107 253 279zM124 450v195c0 291 156 468 408 468c158 0 269 -70 315 -198h20v180h236v-1462h-240v546h-20c-41 -126 -153 -198 -311 -198
c-252 0 -408 177 -408 469z" />
    <glyph glyph-name="r" unicode="r" 
d="M604 815h34c45 211 167 309 375 309c62 0 119 -8 157 -23v-253c-49 19 -121 31 -181 31c-253 0 -386 -138 -386 -391v-314h326v-174h-763v174h213v747h-234v174h459v-280z" />
    <glyph glyph-name="rcaron" unicode="&#x159;" 
d="M779 1296h-253l-270 350h233l155 -216h17l154 216h234zM604 815h34c45 211 167 309 375 309c62 0 119 -8 157 -23v-253c-49 19 -121 31 -181 31c-253 0 -386 -138 -386 -391v-314h326v-174h-763v174h213v747h-234v174h459v-280z" />
    <glyph glyph-name="rlinebelow" unicode="&#x1e5f;" 
d="M162 -407v166h696v-166h-696zM604 815h34c45 211 167 309 375 309c62 0 119 -8 157 -23v-253c-49 19 -121 31 -181 31c-253 0 -386 -138 -386 -391v-314h326v-174h-763v174h213v747h-234v174h459v-280z" />
    <glyph glyph-name="rdotbelowmacron" unicode="&#x1e5d;" 
d="M1001 1527v-165h-696v165h696zM483 -169c79 0 145 -67 145 -148c0 -82 -66 -149 -145 -149s-146 67 -146 149c0 81 67 148 146 148zM604 815h34c45 211 167 309 375 309c62 0 119 -8 157 -23v-253c-49 19 -121 31 -181 31c-253 0 -386 -138 -386 -391v-314h326v-174h-763
v174h213v747h-234v174h459v-280z" />
    <glyph glyph-name="rdblgrave" unicode="&#x211;" 
d="M970 1296h-200l-235 348h227zM560 1296h-202l-234 348h226zM604 815h34c45 211 167 309 375 309c62 0 119 -8 157 -23v-253c-49 19 -121 31 -181 31c-253 0 -386 -138 -386 -391v-314h326v-174h-763v174h213v747h-234v174h459v-280z" />
    </font>
</defs>
</svg>
