<?xml version="1.0" standalone="no"?>
<!DOCTYPE svg PUBLIC "-//W3C//DTD SVG 1.1//EN" "http://www.w3.org/Graphics/SVG/1.1/DTD/svg11.dtd" >
<svg xmlns="http://www.w3.org/2000/svg" xmlns:xlink="http://www.w3.org/1999/xlink" version="1.1">
<metadata>
Created by FontForge 20170812 at Fri May  5 01:33:12 2017
 By www-data

</metadata>
<defs>
<font id="SFMono-MediumItalic" horiz-adv-x="1266" >
  <font-face 
    font-family="SFMono"
    font-weight="500"
    font-style="italic"
    font-stretch="normal"
    units-per-em="2048"
    panose-1="2 11 0 9 0 0 2 0 0 0"
    ascent="1638"
    descent="-410"
    x-height="1090"
    cap-height="1443"
    bbox="-35 -594 1688 2313"
    underline-thickness="100"
    underline-position="-200"
    slope="-10"
    stemh="110"
    stemv="141"
    unicode-range="U+0020-FB02"
  />
<missing-glyph 
 />
    <glyph glyph-name=".notdef" 
 />
    <glyph glyph-name="glyph1" 
 />
    <glyph glyph-name="nonmarkingreturn" horiz-adv-x="0" 
 />
    <glyph glyph-name="space" unicode=" " 
 />
    <glyph glyph-name="A" unicode="A" 
d="M544 567h383l-72 645h-7zM990 0l-44 398h-481l-188 -398h-216l710 1443h232l198 -1443h-211z" />
    <glyph glyph-name="Agrave" unicode="&#xc0;" 
d="M993 1610h-199l-230 307h225zM544 567h383l-72 645h-7zM990 0l-44 398h-481l-188 -398h-216l710 1443h232l198 -1443h-211z" />
    <glyph glyph-name="Aacute" unicode="&#xc1;" 
d="M1320 1917l-337 -307h-214l311 307h240zM544 567h383l-72 645h-7zM771 1443h232l198 -1443h-211l-44 398h-481l-188 -398h-216z" />
    <glyph glyph-name="Adieresis" unicode="&#xc4;" 
d="M733 1643c-67 0 -126 59 -126 129s59 129 126 129c68 0 126 -59 126 -129s-58 -129 -126 -129zM544 567h383l-72 645h-7zM771 1443h232l198 -1443h-211l-44 398h-481l-188 -398h-216zM1154 1901c67 0 126 -59 126 -129s-59 -129 -126 -129c-68 0 -126 59 -126 129
s58 129 126 129z" />
    <glyph glyph-name="Adieresismacron" unicode="&#x1de;" 
d="M544 567h383l-72 645h-7zM771 1443h232l198 -1443h-211l-44 398h-481l-188 -398h-216zM841 1685c0 -67 -53 -120 -117 -120c-65 0 -117 53 -117 120s52 120 117 120c64 0 117 -53 117 -120zM1132 1805c65 0 117 -53 117 -120s-52 -120 -117 -120s-117 53 -117 120
s52 120 117 120zM633 2074h683l-22 -133h-683z" />
    <glyph glyph-name="Aring" unicode="&#xc5;" 
d="M922 1849c-57 0 -100 -42 -100 -99c0 -58 43 -100 100 -100c58 0 100 43 100 100s-43 99 -100 99zM922 1557c-110 0 -196 84 -196 194c0 108 85 192 196 192s196 -84 196 -192c0 -110 -85 -194 -196 -194zM544 567h383l-72 645h-7zM990 0l-44 398h-481l-188 -398h-216
l710 1443h232l198 -1443h-211z" />
    <glyph glyph-name="Aringacute" unicode="&#x1fa;" 
d="M1222 2170l-167 -178h-172l144 178h195zM929 1835c-57 0 -100 -42 -100 -99c0 -58 43 -100 100 -100c58 0 100 42 100 100c0 57 -43 99 -100 99zM929 1542c-110 0 -196 85 -196 194s85 193 196 193s196 -84 196 -193s-85 -194 -196 -194zM544 567h383l-72 645h-7z
M771 1443h232l198 -1443h-211l-44 398h-481l-188 -398h-216z" />
    <glyph glyph-name="Atilde" unicode="&#xc3;" 
d="M544 567h383l-72 645h-7zM771 1443h232l198 -1443h-211l-44 398h-481l-188 -398h-216zM1159 1886h138c-10 -163 -101 -276 -232 -276c-156 0 -185 156 -282 156c-56 0 -90 -49 -97 -144h-139c11 171 101 279 233 279c161 0 194 -157 282 -157c55 0 89 50 97 142z" />
    <glyph glyph-name="Abrevegrave" unicode="&#x1eb0;" 
d="M1060 1876h-157l-154 229h187zM544 567h383l-72 645h-7zM771 1443h232l198 -1443h-211l-44 398h-481l-188 -398h-216zM1152 1867h158c-23 -167 -179 -287 -380 -287c-208 0 -344 118 -338 287h158c4 -96 77 -160 188 -160c114 0 200 67 214 160z" />
    <glyph glyph-name="Adotmacron" unicode="&#x1e0;" 
d="M544 567h383l-72 645h-7zM771 1443h232l198 -1443h-211l-44 398h-481l-188 -398h-216zM1045 1699c0 -71 -55 -127 -124 -127s-125 56 -125 127s56 127 125 127s124 -56 124 -127zM644 2074h683l-23 -133h-683z" />
    <glyph glyph-name="Aringbelow" unicode="&#x1e00;" 
d="M574 -476c65 0 113 50 113 116s-48 117 -113 117c-64 0 -113 -51 -113 -117s49 -116 113 -116zM574 -126c126 0 229 -105 229 -234s-103 -234 -229 -234s-229 105 -229 234s103 234 229 234zM544 567h383l-72 645h-7zM1201 0h-211l-44 398h-481l-188 -398h-216l710 1443
h232z" />
    <glyph glyph-name="Acircumflex" unicode="&#xc2;" 
d="M961 1807l-207 -198h-210l340 316h188l230 -316h-190l-137 198h-14zM544 567h383l-72 645h-7zM771 1443h232l198 -1443h-211l-44 398h-481l-188 -398h-216z" />
    <glyph glyph-name="Acircumflexdotbelow" unicode="&#x1eac;" 
d="M961 1807l-207 -198h-210l340 316h188l230 -316h-190l-137 198h-14zM576 -182c74 0 136 -63 136 -138s-62 -138 -136 -138c-73 0 -135 63 -135 138s62 138 135 138zM544 567h383l-72 645h-7zM771 1443h232l198 -1443h-211l-44 398h-481l-188 -398h-216z" />
    <glyph glyph-name="Acircumflexacute" unicode="&#x1ea4;" 
d="M544 567h383l-72 645h-7zM771 1443h232l198 -1443h-211l-44 398h-481l-188 -398h-216zM847 1821h206l238 -243h-203l-139 146h-15l-190 -146h-220zM1415 2105h210l-271 -252h-187z" />
    <glyph glyph-name="Acircumflextilde" unicode="&#x1eaa;" 
d="M1213 2119h136c-9 -138 -101 -237 -227 -237c-164 0 -173 127 -272 127c-52 0 -84 -39 -91 -113h-137c9 144 100 239 227 239c164 0 174 -127 273 -127c50 0 83 40 91 111zM544 567h383l-72 645h-7zM771 1443h232l198 -1443h-211l-44 398h-481l-188 -398h-216zM848 1821
h206l238 -243h-203l-139 146h-15l-190 -146h-220z" />
    <glyph glyph-name="Acircumflexgrave" unicode="&#x1ea6;" 
d="M1407 1853h-176l-184 252h198zM544 567h383l-72 645h-7zM771 1443h232l198 -1443h-211l-44 398h-481l-188 -398h-216zM849 1821h206l238 -243h-205l-138 146h-15l-191 -146h-218z" />
    <glyph glyph-name="Acircumflexhookabove" unicode="&#x1ea8;" 
d="M544 567h383l-72 645h-7zM771 1443h232l198 -1443h-211l-44 398h-481l-188 -398h-216zM849 1821h206l238 -243h-205l-138 146h-15l-191 -146h-218zM1128 2004l19 112c40 12 82 19 122 19c109 0 184 -62 184 -155c0 -97 -67 -175 -180 -210l-67 81c68 22 107 62 107 104
c0 40 -32 65 -87 65c-32 0 -62 -5 -98 -16z" />
    <glyph glyph-name="Abreve" unicode="&#x102;" 
d="M544 567h383l-72 645h-7zM771 1443h232l198 -1443h-211l-44 398h-481l-188 -398h-216zM1165 1920h158c-33 -190 -194 -316 -400 -316c-207 0 -345 138 -316 316h151c-12 -111 58 -185 175 -185c116 0 211 76 232 185z" />
    <glyph glyph-name="Abreveacute" unicode="&#x1eae;" 
d="M1241 2105l-234 -229h-173l205 229h202zM544 567h383l-72 645h-7zM771 1443h232l198 -1443h-211l-44 398h-481l-188 -398h-216zM1152 1867h158c-23 -167 -179 -287 -380 -287c-208 0 -344 118 -338 287h158c4 -96 77 -160 188 -160c114 0 200 67 214 160z" />
    <glyph glyph-name="Abrevetilde" unicode="&#x1eb4;" 
d="M1206 2099h136c-10 -127 -102 -220 -220 -220c-147 0 -193 121 -289 121c-55 0 -94 -39 -96 -98h-142c3 127 104 223 236 223c153 0 195 -121 291 -121c49 0 79 35 84 95zM544 567h383l-72 645h-7zM771 1443h232l198 -1443h-211l-44 398h-481l-188 -398h-216zM593 1827
h148c15 -80 87 -127 193 -127c103 0 184 49 209 127h155c-36 -149 -183 -247 -373 -247c-195 0 -322 94 -332 247z" />
    <glyph glyph-name="Abrevehookabove" unicode="&#x1eb2;" 
d="M935 1791l-66 76c63 22 101 62 101 105c0 37 -29 58 -79 58c-37 0 -81 -7 -104 -18l19 106c37 12 85 20 130 20c103 0 172 -56 172 -139c0 -90 -63 -165 -173 -208zM544 567h383l-72 645h-7zM771 1443h232l198 -1443h-211l-44 398h-481l-188 -398h-216zM1151 1853h154
c-26 -165 -175 -273 -377 -273c-206 0 -333 104 -331 273h145c6 -96 77 -153 196 -153c115 0 199 60 213 153z" />
    <glyph glyph-name="Abrevedotbelow" unicode="&#x1eb6;" 
d="M576 -182c74 0 136 -63 136 -138s-62 -138 -136 -138c-73 0 -135 63 -135 138s62 138 135 138zM544 567h383l-72 645h-7zM771 1443h232l198 -1443h-211l-44 398h-481l-188 -398h-216zM1165 1920h158c-33 -190 -194 -316 -400 -316c-207 0 -345 138 -316 316h151
c-12 -111 58 -185 175 -185c116 0 211 76 232 185z" />
    <glyph glyph-name="Ainvertedbreve" unicode="&#x202;" 
d="M544 567h383l-72 645h-7zM771 1443h232l198 -1443h-211l-44 398h-481l-188 -398h-216zM744 1604h-158c34 190 194 316 400 316c207 0 345 -137 316 -316h-151c13 112 -57 185 -174 185c-116 0 -212 -75 -233 -185z" />
    <glyph glyph-name="Acaron" unicode="&#x1cd;" 
d="M1010 1606h-189l-229 315h190l136 -197h15l207 197h209zM544 567h383l-72 645h-7zM771 1443h232l198 -1443h-211l-44 398h-481l-188 -398h-216z" />
    <glyph glyph-name="Adotaccent" unicode="&#x226;" 
d="M946 1628c-74 0 -136 63 -136 138s62 138 136 138c73 0 135 -63 135 -138s-62 -138 -135 -138zM544 567h383l-72 645h-7zM990 0l-44 398h-481l-188 -398h-216l710 1443h232l198 -1443h-211z" />
    <glyph glyph-name="Adotbelow" unicode="&#x1ea0;" 
d="M576 -182c74 0 136 -63 136 -138s-62 -138 -136 -138c-73 0 -135 63 -135 138s62 138 135 138zM544 567h383l-72 645h-7zM1201 0h-211l-44 398h-481l-188 -398h-216l710 1443h232z" />
    <glyph glyph-name="Ahookabove" unicode="&#x1ea2;" 
d="M933 1569l-63 92c69 22 111 67 111 109c0 44 -38 72 -100 72c-44 0 -89 -9 -115 -22l9 123c38 15 90 25 138 25c126 0 210 -69 210 -177c0 -99 -74 -184 -190 -222zM544 567h383l-72 645h-7zM990 0l-44 398h-481l-188 -398h-216l710 1443h232l198 -1443h-211z" />
    <glyph glyph-name="Adblgrave" unicode="&#x200;" 
d="M1195 1610h-180l-213 307h200zM805 1610h-180l-213 307h199zM544 567h383l-72 645h-7zM990 0l-44 398h-481l-188 -398h-216l710 1443h232l198 -1443h-211z" />
    <glyph glyph-name="Amacron" unicode="&#x100;" 
d="M544 567h383l-72 645h-7zM771 1443h232l198 -1443h-211l-44 398h-481l-188 -398h-216zM616 1836h677l-26 -151h-677z" />
    <glyph glyph-name="Aogonek" unicode="&#x104;" 
d="M849 1212l-307 -645h388l-74 645h-7zM986 37l-41 361h-477l-190 -398h-217l710 1443h233l197 -1443c-160 -33 -245 -99 -245 -186c0 -66 52 -109 129 -109c23 0 44 1 59 4l-22 -130c-26 -9 -65 -13 -107 -13c-141 0 -239 86 -239 210c0 105 75 197 210 261z" />
    <glyph glyph-name="B" unicode="B" 
d="M606 1273l-80 -445h252c177 0 299 101 300 248c0 128 -83 197 -241 197h-231zM409 172h289c207 0 341 105 341 269c0 144 -102 224 -290 224h-251zM175 0l254 1443h458c256 0 409 -125 408 -331c-2 -177 -124 -320 -303 -355l-2 -13c160 -29 263 -156 263 -324
c-2 -255 -210 -420 -532 -420h-546z" />
    <glyph glyph-name="Blinebelow" unicode="&#x1e06;" 
d="M606 1273l-80 -445h252c177 0 299 101 300 248c0 128 -83 197 -241 197h-231zM409 172h289c207 0 341 105 341 269c0 144 -102 224 -290 224h-251zM175 0l254 1443h458c256 0 409 -125 408 -331c-2 -177 -124 -320 -303 -355l-2 -13c160 -29 263 -156 263 -324
c-2 -255 -210 -420 -532 -420h-546zM848 -405h-677l26 151h677z" />
    <glyph glyph-name="Bdotbelow" unicode="&#x1e04;" 
d="M606 1273l-80 -445h252c177 0 299 101 300 248c0 128 -83 197 -241 197h-231zM409 172h289c207 0 341 105 341 269c0 144 -102 224 -290 224h-251zM175 0l254 1443h458c256 0 409 -125 408 -331c-2 -177 -124 -320 -303 -355l-2 -13c160 -29 263 -156 263 -324
c-2 -255 -210 -420 -532 -420h-546zM523 -462c-73 0 -135 62 -135 137c0 76 62 138 135 138c74 0 136 -62 136 -138c0 -75 -62 -137 -136 -137z" />
    <glyph glyph-name="Bdotaccent" unicode="&#x1e02;" 
d="M606 1273l-80 -445h252c177 0 299 101 300 248c0 128 -83 197 -241 197h-231zM409 172h289c207 0 341 105 341 269c0 144 -102 224 -290 224h-251zM175 0l254 1443h458c256 0 409 -125 408 -331c-2 -177 -124 -320 -303 -355l-2 -13c160 -29 263 -156 263 -324
c-2 -255 -210 -420 -532 -420h-546zM899 1628c-74 0 -136 63 -136 138s62 138 136 138c73 0 135 -63 135 -138s-62 -138 -135 -138z" />
    <glyph glyph-name="C" unicode="C" 
d="M1253 413c-34 -267 -251 -444 -541 -444c-306 0 -500 201 -500 520c0 53 5 112 14 157l42 242c65 379 274 585 596 585c285 0 483 -181 483 -442c0 -22 -2 -46 -6 -74h-208c2 22 3 37 3 59c0 159 -111 263 -282 263c-192 0 -324 -137 -370 -387l-46 -261
c-8 -41 -13 -95 -13 -145c0 -202 113 -323 302 -323c167 0 281 95 316 264c0 4 0 6 1 9h211c0 -9 -1 -17 -2 -23z" />
    <glyph glyph-name="Cacute" unicode="&#x106;" 
d="M1253 413c-34 -267 -251 -444 -541 -444c-306 0 -500 201 -500 520c0 53 5 112 14 157l42 242c65 379 274 585 596 585c285 0 483 -181 483 -442c0 -22 -2 -46 -6 -74h-208c2 22 3 37 3 59c0 159 -111 263 -282 263c-192 0 -324 -137 -370 -387l-46 -261
c-8 -41 -13 -95 -13 -145c0 -202 113 -323 302 -323c167 0 281 95 316 264c0 4 0 6 1 9h211c0 -9 -1 -17 -2 -23zM774 1610l312 307h239l-337 -307h-214z" />
    <glyph glyph-name="Ccaron" unicode="&#x10c;" 
d="M1253 413c-34 -267 -251 -444 -541 -444c-306 0 -500 201 -500 520c0 53 5 112 14 157l42 242c65 379 274 585 596 585c285 0 483 -181 483 -442c0 -22 -2 -46 -6 -74h-208c2 22 3 37 3 59c0 159 -111 263 -282 263c-192 0 -324 -137 -370 -387l-46 -261
c-8 -41 -13 -95 -13 -145c0 -202 113 -323 302 -323c167 0 281 95 316 264c0 4 0 6 1 9h211c0 -9 -1 -17 -2 -23zM827 1606l-230 315h190l137 -197h14l207 197h210l-340 -315h-188z" />
    <glyph glyph-name="Ccircumflex" unicode="&#x108;" 
d="M1253 413c-34 -267 -251 -444 -541 -444c-306 0 -500 201 -500 520c0 53 5 112 14 157l42 242c65 379 274 585 596 585c285 0 483 -181 483 -442c0 -22 -2 -46 -6 -74h-208c2 22 3 37 3 59c0 159 -111 263 -282 263c-192 0 -324 -137 -370 -387l-46 -261
c-8 -41 -13 -95 -13 -145c0 -202 113 -323 302 -323c167 0 281 95 316 264c0 4 0 6 1 9h211c0 -9 -1 -17 -2 -23zM1078 1925l229 -316h-190l-136 198h-15l-207 -198h-209l339 316h189z" />
    <glyph glyph-name="Cdotaccent" unicode="&#x10a;" 
d="M1253 413c-34 -267 -251 -444 -541 -444c-306 0 -500 201 -500 520c0 53 5 112 14 157l42 242c65 379 274 585 596 585c285 0 483 -181 483 -442c0 -22 -2 -46 -6 -74h-208c2 22 3 37 3 59c0 159 -111 263 -282 263c-192 0 -324 -137 -370 -387l-46 -261
c-8 -41 -13 -95 -13 -145c0 -202 113 -323 302 -323c167 0 281 95 316 264c0 4 0 6 1 9h211c0 -9 -1 -17 -2 -23zM951 1628c-74 0 -136 63 -136 138s62 138 136 138c73 0 135 -63 135 -138s-62 -138 -135 -138z" />
    <glyph glyph-name="Ccedilla" unicode="&#xc7;" 
d="M1341 957h-208c2 22 3 37 3 59c0 159 -111 263 -282 263c-192 0 -324 -137 -370 -387l-46 -261c-8 -41 -13 -95 -13 -145c0 -202 113 -323 302 -323c167 0 281 95 316 264c0 4 0 6 1 9h211c0 -9 -1 -17 -2 -23c-33 -261 -242 -436 -522 -444l-51 -97
c114 -6 179 -62 179 -153c0 -124 -102 -205 -260 -205c-50 0 -109 9 -156 25l20 115c29 -11 94 -20 133 -20c73 0 115 24 115 68c0 47 -45 70 -133 70h-55l9 93l61 115c-236 46 -381 233 -381 509c0 53 5 112 14 157l42 242c65 379 274 585 596 585c285 0 483 -181 483 -442
c0 -22 -2 -46 -6 -74z" />
    <glyph glyph-name="Ccedillaacute" unicode="&#x1e08;" 
d="M1325 1917l-337 -307h-214l312 307h239zM1341 957h-208c2 22 3 37 3 59c0 159 -111 263 -282 263c-192 0 -324 -137 -370 -387l-46 -261c-8 -41 -13 -95 -13 -145c0 -202 113 -323 302 -323c167 0 281 95 316 264c0 4 0 6 1 9h211c0 -9 -1 -17 -2 -23
c-33 -261 -242 -436 -522 -444l-51 -97c114 -6 179 -62 179 -153c0 -124 -102 -205 -260 -205c-50 0 -109 9 -156 25l20 115c29 -11 94 -20 133 -20c73 0 115 24 115 68c0 47 -45 70 -133 70h-55l9 93l61 115c-236 46 -381 233 -381 509c0 53 5 112 14 157l42 242
c65 379 274 585 596 585c285 0 483 -181 483 -442c0 -22 -2 -46 -6 -74z" />
    <glyph glyph-name="D" unicode="D" 
d="M788 1443c341 0 533 -195 533 -544c0 -50 -3 -101 -8 -142c-1 -12 -21 -126 -23 -137c-72 -413 -305 -620 -701 -620h-441l254 1443h386zM750 1260h-169l-193 -1075h184c288 0 453 150 506 451c1 7 20 109 20 119c5 37 8 83 8 128c0 249 -121 377 -356 377z" />
    <glyph glyph-name="Ddotaccent" unicode="&#x1e0a;" 
d="M788 1443c341 0 533 -195 533 -544c0 -50 -3 -101 -8 -142c-1 -12 -21 -126 -23 -137c-72 -413 -305 -620 -701 -620h-441l254 1443h386zM750 1260h-169l-193 -1075h184c288 0 453 150 506 451c1 7 20 109 20 119c5 37 8 83 8 128c0 249 -121 377 -356 377zM888 1628
c-74 0 -136 63 -136 138s62 138 136 138c73 0 135 -63 135 -138s-62 -138 -135 -138z" />
    <glyph glyph-name="Dcircumflexbelow" unicode="&#x1e12;" 
d="M788 1443c341 0 533 -195 533 -544c0 -50 -3 -101 -8 -142c-1 -12 -21 -126 -23 -137c-72 -413 -305 -620 -701 -620h-441l254 1443h386zM750 1260h-169l-193 -1075h184c288 0 453 150 506 451c1 7 20 109 20 119c5 37 8 83 8 128c0 249 -121 377 -356 377zM426 -164h226
l211 -346h-206l-125 221h-16l-202 -221h-221z" />
    <glyph glyph-name="Dcommaaccent" unicode="&#x1e10;" 
d="M788 1443c341 0 533 -195 533 -544c0 -50 -3 -101 -8 -142c-1 -12 -21 -126 -23 -137c-72 -413 -305 -620 -701 -620h-441l254 1443h386zM750 1260h-169l-193 -1075h184c288 0 453 150 506 451c1 7 20 109 20 119c5 37 8 83 8 128c0 249 -121 377 -356 377zM508 -503
h-182l136 359h205z" />
    <glyph glyph-name="Dlinebelow" unicode="&#x1e0e;" 
d="M788 1443c341 0 533 -195 533 -544c0 -50 -3 -101 -8 -142c-1 -12 -21 -126 -23 -137c-72 -413 -305 -620 -701 -620h-441l254 1443h386zM750 1260h-169l-193 -1075h184c288 0 453 150 506 451c1 7 20 109 20 119c5 37 8 83 8 128c0 249 -121 377 -356 377zM836 -401
h-678l27 151h677z" />
    <glyph glyph-name="Dcaron" unicode="&#x10e;" 
d="M788 1443c341 0 533 -195 533 -544c0 -50 -3 -101 -8 -142c-1 -12 -21 -126 -23 -137c-72 -413 -305 -620 -701 -620h-441l254 1443h386zM750 1260h-169l-193 -1075h184c288 0 453 150 506 451c1 7 20 109 20 119c5 37 8 83 8 128c0 249 -121 377 -356 377zM763 1606
l-229 315h190l136 -197h15l207 197h209l-339 -315h-189z" />
    <glyph glyph-name="Ddotbelow" unicode="&#x1e0c;" 
d="M788 1443c341 0 533 -195 533 -544c0 -50 -3 -101 -8 -142c-1 -12 -21 -126 -23 -137c-72 -413 -305 -620 -701 -620h-441l254 1443h386zM750 1260h-169l-193 -1075h184c288 0 453 150 506 451c1 7 20 109 20 119c5 37 8 83 8 128c0 249 -121 377 -356 377zM511 -458
c-74 0 -136 63 -136 138s62 138 136 138c73 0 135 -63 135 -138s-62 -138 -135 -138z" />
    <glyph glyph-name="Dcroat" unicode="&#x110;" 
d="M398 177h180c283 0 457 154 511 453c2 10 20 114 21 127c5 41 8 91 8 141c0 245 -119 368 -359 368h-166l-80 -444h275l-29 -170h-276zM426 1443h358c341 0 536 -196 536 -536c0 -55 -3 -109 -9 -151c-1 -15 -22 -131 -24 -146c-72 -401 -312 -610 -710 -610h-405
l115 652h-146l30 170h146z" />
    <glyph glyph-name="E" unicode="E" 
d="M1121 185l-32 -185h-868l254 1443h868l-30 -185h-660l-79 -437h623l-30 -174h-622l-84 -462h660z" />
    <glyph glyph-name="Egrave" unicode="&#xc8;" 
d="M805 1917l204 -307h-199l-230 307h225zM1121 185l-32 -185h-868l254 1443h868l-30 -185h-660l-79 -437h623l-30 -174h-622l-84 -462h660z" />
    <glyph glyph-name="Edblgrave" unicode="&#x204;" 
d="M1018 1917l194 -307h-181l-213 307h200zM628 1917l193 -307h-180l-213 307h200zM1121 185l-32 -185h-868l254 1443h868l-30 -185h-660l-79 -437h623l-30 -174h-622l-84 -462h660z" />
    <glyph glyph-name="Eacute" unicode="&#xc9;" 
d="M1121 185l-32 -185h-868l254 1443h868l-30 -185h-660l-79 -437h623l-30 -174h-622l-84 -462h660zM785 1610l312 307h239l-337 -307h-214z" />
    <glyph glyph-name="Ecircumflex" unicode="&#xca;" 
d="M1121 185l-32 -185h-868l254 1443h868l-30 -185h-660l-79 -437h623l-30 -174h-622l-84 -462h660zM1088 1925l230 -316h-190l-137 198h-14l-207 -198h-210l340 316h188z" />
    <glyph glyph-name="Ecircumflexhookabove" unicode="&#x1ec2;" 
d="M1121 185l-32 -185h-868l254 1443h868l-30 -185h-660l-79 -437h623l-30 -174h-622l-84 -462h660zM1071 1821l238 -243h-205l-138 146h-15l-190 -146h-219l323 243h206zM1144 2004l19 112c41 12 83 19 123 19c109 0 184 -62 184 -155c0 -97 -67 -175 -181 -210l-67 81
c68 22 107 62 107 104c0 40 -32 65 -87 65c-31 0 -62 -5 -98 -16z" />
    <glyph glyph-name="Ecircumflexgrave" unicode="&#x1ec0;" 
d="M1121 185l-32 -185h-868l254 1443h868l-30 -185h-660l-79 -437h623l-30 -174h-622l-84 -462h660zM1423 1853h-176l-184 252h198zM1071 1821l238 -243h-205l-138 146h-15l-190 -146h-219l323 243h206z" />
    <glyph glyph-name="Ecircumflextilde" unicode="&#x1ec4;" 
d="M1121 185l-32 -185h-868l254 1443h868l-30 -185h-660l-79 -437h623l-30 -174h-622l-84 -462h660zM1070 1821l238 -243h-203l-139 146h-15l-190 -146h-220l323 243h206zM866 2009c-52 0 -84 -39 -91 -113h-137c10 144 101 239 227 239c165 0 174 -127 273 -127
c51 0 83 40 91 111h137c-9 -138 -102 -237 -227 -237c-165 0 -174 127 -273 127z" />
    <glyph glyph-name="Ecircumflexdotbelow" unicode="&#x1ec6;" 
d="M1121 185l-32 -185h-868l254 1443h868l-30 -185h-660l-79 -437h623l-30 -174h-622l-84 -462h660zM1088 1925l230 -316h-190l-137 198h-14l-207 -198h-210l340 316h188zM593 -458c-74 0 -136 63 -136 138s62 138 136 138c73 0 135 -63 135 -138s-62 -138 -135 -138z" />
    <glyph glyph-name="Ecircumflexacute" unicode="&#x1ebe;" 
d="M1121 185l-32 -185h-868l254 1443h868l-30 -185h-660l-79 -437h623l-30 -174h-622l-84 -462h660zM1183 1853l248 252h210l-271 -252h-187zM1070 1821l237 -243h-203l-139 146h-15l-190 -146h-220l323 243h207z" />
    <glyph glyph-name="Edieresis" unicode="&#xcb;" 
d="M1121 185l-32 -185h-868l254 1443h868l-30 -185h-660l-79 -437h623l-30 -174h-622l-84 -462h660zM749 1643c-67 0 -126 59 -126 129s59 129 126 129c68 0 126 -59 126 -129s-58 -129 -126 -129zM1170 1643c-67 0 -126 59 -126 129s59 129 126 129c68 0 126 -59 126 -129
s-58 -129 -126 -129z" />
    <glyph glyph-name="Edotbelow" unicode="&#x1eb8;" 
d="M1121 185l-32 -185h-868l254 1443h868l-30 -185h-660l-79 -437h623l-30 -174h-622l-84 -462h660zM593 -458c-74 0 -136 63 -136 138s62 138 136 138c73 0 135 -63 135 -138s-62 -138 -135 -138z" />
    <glyph glyph-name="Einvertedbreve" unicode="&#x206;" 
d="M1121 185l-32 -185h-868l254 1443h868l-30 -185h-660l-79 -437h623l-30 -174h-622l-84 -462h660zM1002 1920c207 0 345 -137 316 -316h-151c13 112 -57 185 -174 185c-116 0 -212 -75 -232 -185h-159c34 190 194 316 400 316z" />
    <glyph glyph-name="Ehookabove" unicode="&#x1eba;" 
d="M1121 185l-32 -185h-868l254 1443h868l-30 -185h-660l-79 -437h623l-30 -174h-622l-84 -462h660zM782 1820l9 123c38 15 91 25 139 25c126 0 209 -69 209 -177c0 -99 -73 -184 -189 -222l-64 92c69 22 111 67 111 109c0 44 -38 72 -100 72c-44 0 -89 -9 -115 -22z" />
    <glyph glyph-name="Ecaron" unicode="&#x11a;" 
d="M1121 185l-32 -185h-868l254 1443h868l-30 -185h-660l-79 -437h623l-30 -174h-622l-84 -462h660zM838 1606l-230 315h190l137 -197h14l207 197h210l-340 -315h-188z" />
    <glyph glyph-name="Emacron" unicode="&#x112;" 
d="M1121 185l-32 -185h-868l254 1443h868l-30 -185h-660l-79 -437h623l-30 -174h-622l-84 -462h660zM1283 1685h-677l26 151h678z" />
    <glyph glyph-name="Emacrongrave" unicode="&#x1e14;" 
d="M1121 185l-32 -185h-868l254 1443h868l-30 -185h-660l-79 -437h623l-30 -174h-622l-84 -462h660zM1082 1866h-185l-174 239h207zM590 1613l22 133h683l-23 -133h-682z" />
    <glyph glyph-name="Emacronacute" unicode="&#x1e16;" 
d="M589 1612l22 133h683l-22 -133h-683zM1039 1865h-199l235 239h223zM1121 185l-32 -185h-868l254 1443h868l-30 -185h-660l-79 -437h623l-30 -174h-622l-84 -462h660z" />
    <glyph glyph-name="Etilde" unicode="&#x1ebc;" 
d="M1121 185l-32 -185h-868l254 1443h868l-30 -185h-660l-79 -437h623l-30 -174h-622l-84 -462h660zM799 1766c-56 0 -90 -49 -97 -144h-139c12 171 101 279 233 279c161 0 194 -157 282 -157c55 0 89 50 98 142h137c-10 -163 -101 -276 -232 -276c-156 0 -184 156 -282 156
z" />
    <glyph glyph-name="Ecircumflexbelow" unicode="&#x1e18;" 
d="M1121 185l-32 -185h-868l254 1443h868l-30 -185h-660l-79 -437h623l-30 -174h-622l-84 -462h660zM508 -164h226l211 -346h-206l-125 221h-16l-202 -221h-221z" />
    <glyph glyph-name="Ebreve" unicode="&#x114;" 
d="M1121 185l-32 -185h-868l254 1443h868l-30 -185h-660l-79 -437h623l-30 -174h-622l-84 -462h660zM939 1604c-207 0 -344 138 -316 316h151c-12 -111 58 -185 175 -185c116 0 211 76 232 185h158c-33 -190 -194 -316 -400 -316z" />
    <glyph glyph-name="Etildebelow" unicode="&#x1e1a;" 
d="M1121 185l-32 -185h-868l254 1443h868l-30 -185h-660l-79 -437h623l-30 -174h-622l-84 -462h660zM450 -311c-58 0 -85 -46 -90 -152h-153c12 187 103 298 244 298c161 0 201 -156 287 -156c57 0 84 44 90 150h152c-11 -184 -104 -297 -244 -297c-160 0 -201 157 -286 157
z" />
    <glyph glyph-name="Edotaccent" unicode="&#x116;" 
d="M1121 185l-32 -185h-868l254 1443h868l-30 -185h-660l-79 -437h623l-30 -174h-622l-84 -462h660zM962 1628c-74 0 -136 63 -136 138s62 138 136 138c73 0 135 -63 135 -138s-62 -138 -135 -138z" />
    <glyph glyph-name="Ecedilla" unicode="&#x228;" 
d="M1313 1258h-660l-79 -437h623l-30 -174h-622l-84 -462h660l-32 -185h-356l-67 -128c114 -6 179 -62 179 -153c0 -124 -102 -205 -261 -205c-49 0 -108 9 -155 25l20 115c29 -11 93 -20 133 -20c72 0 114 24 114 68c0 47 -44 70 -133 70h-54l8 93l72 135h-368l254 1443
h868z" />
    <glyph glyph-name="Ecedillabreve" unicode="&#x1e1c;" 
d="M1181 1920h158c-33 -190 -194 -316 -400 -316c-207 0 -344 138 -316 316h151c-12 -111 58 -185 175 -185c116 0 211 76 232 185zM1313 1258h-660l-79 -437h623l-30 -174h-622l-84 -462h660l-32 -185h-356l-67 -128c114 -6 179 -62 179 -153c0 -124 -102 -205 -261 -205
c-49 0 -108 9 -155 25l20 115c29 -11 93 -20 133 -20c72 0 114 24 114 68c0 47 -44 70 -133 70h-54l8 93l72 135h-368l254 1443h868z" />
    <glyph glyph-name="Eogonek" unicode="&#x118;" 
d="M842 -14l2 14h-623l254 1443h868l-30 -185h-660l-79 -437h623l-30 -174h-622l-84 -462h667l-31 -180c-160 -38 -246 -109 -246 -197c0 -64 49 -103 129 -103c21 0 44 2 59 4l-22 -130c-26 -9 -65 -13 -107 -13c-137 0 -237 82 -237 193c0 98 53 176 169 227z" />
    <glyph glyph-name="F" unicode="F" 
d="M451 0h-209l254 1443h870l-31 -185h-660l-85 -466h603l-30 -179h-603z" />
    <glyph glyph-name="Fdotaccent" unicode="&#x1e1e;" 
d="M451 0h-209l254 1443h870l-31 -185h-660l-85 -466h603l-30 -179h-603zM989 1628c-73 0 -135 63 -135 138s62 138 135 138c74 0 136 -63 136 -138s-62 -138 -136 -138z" />
    <glyph glyph-name="G" unicode="G" 
d="M1234 408c-48 -274 -249 -439 -532 -439c-302 0 -498 201 -498 511c0 52 6 113 15 165l48 271c63 356 276 557 588 557c282 0 475 -178 475 -437c0 -16 -1 -38 -4 -58h-203c1 16 2 31 2 44c0 153 -115 259 -283 259c-191 0 -322 -139 -368 -390l-46 -261
c-10 -55 -15 -109 -15 -148c0 -200 115 -324 302 -324c170 0 290 103 320 276l26 141h-321l29 168h524z" />
    <glyph glyph-name="Gacute" unicode="&#x1f4;" 
d="M1234 408c-48 -274 -249 -439 -532 -439c-302 0 -498 201 -498 511c0 52 6 113 15 165l48 271c63 356 276 557 588 557c282 0 475 -178 475 -437c0 -16 -1 -38 -4 -58h-203c1 16 2 31 2 44c0 153 -115 259 -283 259c-191 0 -322 -139 -368 -390l-46 -261
c-10 -55 -15 -109 -15 -148c0 -200 115 -324 302 -324c170 0 290 103 320 276l26 141h-321l29 168h524zM734 1610l312 307h240l-337 -307h-215z" />
    <glyph glyph-name="Gcaron" unicode="&#x1e6;" 
d="M1234 408c-48 -274 -249 -439 -532 -439c-302 0 -498 201 -498 511c0 52 6 113 15 165l48 271c63 356 276 557 588 557c282 0 475 -178 475 -437c0 -16 -1 -38 -4 -58h-203c1 16 2 31 2 44c0 153 -115 259 -283 259c-191 0 -322 -139 -368 -390l-46 -261
c-10 -55 -15 -109 -15 -148c0 -200 115 -324 302 -324c170 0 290 103 320 276l26 141h-321l29 168h524zM787 1606l-229 315h190l136 -197h15l207 197h209l-340 -315h-188z" />
    <glyph glyph-name="Gcircumflex" unicode="&#x11c;" 
d="M1234 408c-48 -274 -249 -439 -532 -439c-302 0 -498 201 -498 511c0 52 6 113 15 165l48 271c63 356 276 557 588 557c282 0 475 -178 475 -437c0 -16 -1 -38 -4 -58h-203c1 16 2 31 2 44c0 153 -115 259 -283 259c-191 0 -322 -139 -368 -390l-46 -261
c-10 -55 -15 -109 -15 -148c0 -200 115 -324 302 -324c170 0 290 103 320 276l26 141h-321l29 168h524zM1038 1925l229 -316h-190l-136 198h-15l-207 -198h-209l340 316h188z" />
    <glyph glyph-name="Gbreve" unicode="&#x11e;" 
d="M1234 408c-48 -274 -249 -439 -532 -439c-302 0 -498 201 -498 511c0 52 6 113 15 165l48 271c63 356 276 557 588 557c282 0 475 -178 475 -437c0 -16 -1 -38 -4 -58h-203c1 16 2 31 2 44c0 153 -115 259 -283 259c-191 0 -322 -139 -368 -390l-46 -261
c-10 -55 -15 -109 -15 -148c0 -200 115 -324 302 -324c170 0 290 103 320 276l26 141h-321l29 168h524zM889 1604c-207 0 -345 138 -316 316h151c-13 -111 57 -185 174 -185c116 0 212 76 232 185h159c-34 -190 -194 -316 -400 -316z" />
    <glyph glyph-name="Gmacron" unicode="&#x1e20;" 
d="M1234 408c-48 -274 -249 -439 -532 -439c-302 0 -498 201 -498 511c0 52 6 113 15 165l48 271c63 356 276 557 588 557c282 0 475 -178 475 -437c0 -16 -1 -38 -4 -58h-203c1 16 2 31 2 44c0 153 -115 259 -283 259c-191 0 -322 -139 -368 -390l-46 -261
c-10 -55 -15 -109 -15 -148c0 -200 115 -324 302 -324c170 0 290 103 320 276l26 141h-321l29 168h524zM1233 1685h-678l27 151h677z" />
    <glyph glyph-name="Gdotaccent" unicode="&#x120;" 
d="M1234 408c-48 -274 -249 -439 -532 -439c-302 0 -498 201 -498 511c0 52 6 113 15 165l48 271c63 356 276 557 588 557c282 0 475 -178 475 -437c0 -16 -1 -38 -4 -58h-203c1 16 2 31 2 44c0 153 -115 259 -283 259c-191 0 -322 -139 -368 -390l-46 -261
c-10 -55 -15 -109 -15 -148c0 -200 115 -324 302 -324c170 0 290 103 320 276l26 141h-321l29 168h524zM911 1628c-73 0 -135 63 -135 138s62 138 135 138c74 0 136 -63 136 -138s-62 -138 -136 -138z" />
    <glyph glyph-name="Gcommaaccent" unicode="&#x122;" 
d="M1234 408c-48 -274 -249 -439 -532 -439c-302 0 -498 201 -498 511c0 52 6 113 15 165l48 271c63 356 276 557 588 557c282 0 475 -178 475 -437c0 -16 -1 -38 -4 -58h-203c1 16 2 31 2 44c0 153 -115 259 -283 259c-191 0 -322 -139 -368 -390l-46 -261
c-10 -55 -15 -109 -15 -148c0 -200 115 -324 302 -324c170 0 290 103 320 276l26 141h-321l29 168h524zM605 -503h-182l136 359h205z" />
    <glyph glyph-name="H" unicode="H" 
d="M1123 0h-206l114 643h-568l-114 -643h-206l254 1443h206l-109 -615h569l108 615h206z" />
    <glyph glyph-name="Hdieresis" unicode="&#x1e26;" 
d="M1123 0h-206l114 643h-568l-114 -643h-206l254 1443h206l-109 -615h569l108 615h206zM727 1643c-67 0 -126 59 -126 129s59 129 126 129c68 0 126 -59 126 -129s-58 -129 -126 -129zM1148 1643c-68 0 -126 59 -126 129s58 129 126 129c67 0 126 -59 126 -129
s-59 -129 -126 -129z" />
    <glyph glyph-name="Hcaron" unicode="&#x21e;" 
d="M1123 0h-206l114 643h-568l-114 -643h-206l254 1443h206l-109 -615h569l108 615h206zM816 1606l-230 315h190l136 -197h15l207 197h210l-340 -315h-188z" />
    <glyph glyph-name="Hcircumflex" unicode="&#x124;" 
d="M1123 0h-206l114 643h-568l-114 -643h-206l254 1443h206l-109 -615h569l108 615h206zM1066 1925l230 -316h-190l-137 198h-14l-207 -198h-210l340 316h188z" />
    <glyph glyph-name="Hdotbelow" unicode="&#x1e24;" 
d="M1123 0h-206l114 643h-568l-114 -643h-206l254 1443h206l-109 -615h569l108 615h206zM576 -458c-73 0 -135 63 -135 138s62 138 135 138c74 0 136 -63 136 -138s-62 -138 -136 -138z" />
    <glyph glyph-name="Hdotaccent" unicode="&#x1e22;" 
d="M1123 0h-206l114 643h-568l-114 -643h-206l254 1443h206l-109 -615h569l108 615h206zM940 1628c-74 0 -136 63 -136 138s62 138 136 138c73 0 135 -63 135 -138s-62 -138 -135 -138z" />
    <glyph glyph-name="Hbrevebelow" unicode="&#x1e2a;" 
d="M1123 0h-206l114 643h-568l-114 -643h-206l254 1443h206l-109 -615h569l108 615h206zM585 -473c-212 0 -360 152 -326 336h155c-14 -115 61 -193 186 -193c119 0 212 78 228 193h160c-27 -201 -188 -336 -403 -336z" />
    <glyph glyph-name="Hcedilla" unicode="&#x1e28;" 
d="M349 0l-38 -128c94 -13 150 -70 150 -153c0 -125 -103 -205 -261 -205c-49 0 -108 9 -156 25l21 115c30 -11 95 -20 133 -20c72 0 114 24 114 68c0 47 -43 71 -131 71h-42l18 100l37 127h-51l254 1443h206l-109 -615h569l108 615h206l-254 -1443h-206l114 643h-568z" />
    <glyph glyph-name="Hbar" unicode="&#x126;" 
d="M505 825h544l46 256h-544zM478 643l-114 -643h-209l191 1078h-114l26 154h114l37 211h209l-37 -211h536l37 211h209l-37 -211h115l-26 -154h-115l-191 -1078h-209l114 643h-536z" />
    <glyph glyph-name="I" unicode="I" 
d="M1031 0h-796l30 181h295l193 1081h-294l30 181h796l-30 -181h-294l-193 -1081h294z" />
    <glyph glyph-name="Idotaccent" unicode="&#x130;" 
d="M1031 0h-796l30 181h295l193 1081h-294l30 181h796l-30 -181h-294l-193 -1081h294zM946 1628c-74 0 -136 63 -136 138s62 138 136 138c73 0 135 -63 135 -138s-62 -138 -135 -138z" />
    <glyph glyph-name="Igrave" unicode="&#xcc;" 
d="M789 1917l204 -307h-199l-230 307h225zM1031 0h-796l30 181h295l193 1081h-294l30 181h796l-30 -181h-294l-193 -1081h294z" />
    <glyph glyph-name="Idblgrave" unicode="&#x208;" 
d="M1003 1917l193 -307h-181l-213 307h201zM612 1917l193 -307h-180l-213 307h200zM1031 0h-796l30 181h295l193 1081h-294l30 181h796l-30 -181h-294l-193 -1081h294z" />
    <glyph glyph-name="Iacute" unicode="&#xcd;" 
d="M1031 0h-796l30 181h295l193 1081h-294l30 181h796l-30 -181h-294l-193 -1081h294zM769 1610l312 307h239l-337 -307h-214z" />
    <glyph glyph-name="Icircumflex" unicode="&#xce;" 
d="M1031 0h-796l30 181h295l193 1081h-294l30 181h796l-30 -181h-294l-193 -1081h294zM1073 1925l229 -316h-190l-136 198h-15l-207 -198h-209l339 316h189z" />
    <glyph glyph-name="Icaron" unicode="&#x1cf;" 
d="M1031 0h-796l30 181h295l193 1081h-294l30 181h796l-30 -181h-294l-193 -1081h294zM822 1606l-230 315h190l137 -197h14l207 197h210l-340 -315h-188z" />
    <glyph glyph-name="Idieresis" unicode="&#xcf;" 
d="M1031 0h-796l30 181h295l193 1081h-294l30 181h796l-30 -181h-294l-193 -1081h294zM733 1643c-67 0 -125 59 -125 129s58 129 125 129c68 0 126 -59 126 -129s-58 -129 -126 -129zM1154 1643c-67 0 -126 59 -126 129s59 129 126 129c68 0 126 -59 126 -129
s-58 -129 -126 -129z" />
    <glyph glyph-name="Idieresisacute" unicode="&#x1e2e;" 
d="M1031 0h-796l30 181h295l193 1081h-294l30 181h796l-30 -181h-294l-193 -1081h294zM814 1876l235 229h224l-264 -229h-195zM722 1565c-65 0 -117 54 -117 120c0 67 52 121 117 121s117 -54 117 -121c0 -66 -52 -120 -117 -120zM1130 1565c-65 0 -117 54 -117 120
c0 67 52 121 117 121s117 -54 117 -121c0 -66 -52 -120 -117 -120z" />
    <glyph glyph-name="Ibreve" unicode="&#x12c;" 
d="M1031 0h-796l30 181h295l193 1081h-294l30 181h796l-30 -181h-294l-193 -1081h294zM923 1604c-206 0 -344 138 -316 316h152c-13 -111 57 -185 174 -185c116 0 211 76 232 185h158c-33 -190 -194 -316 -400 -316z" />
    <glyph glyph-name="Idotbelow" unicode="&#x1eca;" 
d="M1031 0h-796l30 181h295l193 1081h-294l30 181h796l-30 -181h-294l-193 -1081h294zM576 -458c-74 0 -136 63 -136 138s62 138 136 138c73 0 135 -63 135 -138s-62 -138 -135 -138z" />
    <glyph glyph-name="Iinvertedbreve" unicode="&#x20a;" 
d="M1031 0h-796l30 181h295l193 1081h-294l30 181h796l-30 -181h-294l-193 -1081h294zM987 1920c206 0 344 -137 315 -316h-151c13 112 -57 185 -174 185c-116 0 -212 -75 -232 -185h-159c34 190 195 316 401 316z" />
    <glyph glyph-name="Imacron" unicode="&#x12a;" 
d="M1031 0h-796l30 181h295l193 1081h-294l30 181h796l-30 -181h-294l-193 -1081h294zM1267 1685h-677l26 151h678z" />
    <glyph glyph-name="Itildebelow" unicode="&#x1e2c;" 
d="M1031 0h-796l30 181h295l193 1081h-294l30 181h796l-30 -181h-294l-193 -1081h294zM432 -311c-57 0 -84 -46 -90 -152h-152c12 187 103 298 244 298c161 0 201 -156 287 -156c57 0 84 44 89 150h153c-11 -184 -104 -297 -244 -297c-161 0 -201 157 -287 157z" />
    <glyph glyph-name="Ihookabove" unicode="&#x1ec8;" 
d="M1031 0h-796l30 181h295l193 1081h-294l30 181h796l-30 -181h-294l-193 -1081h294zM766 1820l10 123c37 15 90 25 138 25c126 0 210 -69 210 -177c0 -99 -74 -184 -190 -222l-63 92c68 22 110 67 110 109c0 44 -38 72 -100 72c-43 0 -89 -9 -115 -22z" />
    <glyph glyph-name="Itilde" unicode="&#x128;" 
d="M1031 0h-796l30 181h295l193 1081h-294l30 181h796l-30 -181h-294l-193 -1081h294zM783 1766c-56 0 -89 -49 -97 -144h-139c12 171 101 279 233 279c161 0 194 -157 282 -157c55 0 89 50 98 142h138c-11 -163 -102 -276 -233 -276c-156 0 -184 156 -282 156z" />
    <glyph glyph-name="Iogonek" unicode="&#x12e;" 
d="M784 0h-549l30 181h295l193 1081h-294l30 181h796l-30 -181h-294l-193 -1081h294l-30 -176c-155 -38 -241 -109 -241 -197c0 -63 50 -103 129 -103c22 0 41 1 59 4l-22 -130c-26 -9 -65 -13 -107 -13c-138 0 -238 82 -238 196c0 98 60 176 170 224z" />
    <glyph glyph-name="J" unicode="J" 
d="M635 -30c-249 0 -424 154 -424 375c0 18 2 35 4 51h196c-1 -8 -2 -19 -2 -28c0 -121 95 -205 232 -205c139 0 230 85 258 244l153 855h-502l30 181h712l-189 -1063c-47 -270 -207 -410 -468 -410z" />
    <glyph glyph-name="Jcircumflex" unicode="&#x134;" 
d="M635 -30c-249 0 -424 154 -424 375c0 18 2 35 4 51h196c-1 -8 -2 -19 -2 -28c0 -121 95 -205 232 -205c139 0 230 85 258 244l153 855h-502l30 181h712l-189 -1063c-47 -270 -207 -410 -468 -410zM1114 1925l230 -316h-190l-137 198h-14l-208 -198h-209l340 316h188z" />
    <glyph glyph-name="K" unicode="K" 
d="M850 801l396 -801h-233l-331 668l-196 -184l-86 -484h-201l254 1443h201l-126 -694h13l703 694h246z" />
    <glyph glyph-name="Kacute" unicode="&#x1e30;" 
d="M850 801l396 -801h-233l-331 668l-196 -184l-86 -484h-201l254 1443h201l-126 -694h13l703 694h246zM803 1610l312 307h239l-337 -307h-214z" />
    <glyph glyph-name="Kcaron" unicode="&#x1e8;" 
d="M850 801l396 -801h-233l-331 668l-196 -184l-86 -484h-201l254 1443h201l-126 -694h13l703 694h246zM856 1606l-230 315h190l137 -197h14l208 197h209l-340 -315h-188z" />
    <glyph glyph-name="Kdotbelow" unicode="&#x1e32;" 
d="M850 801l396 -801h-233l-331 668l-196 -184l-86 -484h-201l254 1443h201l-126 -694h13l703 694h246zM627 -458c-74 0 -136 63 -136 138s62 138 136 138c73 0 135 -63 135 -138s-62 -138 -135 -138z" />
    <glyph glyph-name="Klinebelow" unicode="&#x1e34;" 
d="M850 801l396 -801h-233l-331 668l-196 -184l-86 -484h-201l254 1443h201l-126 -694h13l703 694h246zM952 -401h-677l26 151h677z" />
    <glyph glyph-name="Kcommaaccent" unicode="&#x136;" 
d="M850 801l396 -801h-233l-331 668l-196 -184l-86 -484h-201l254 1443h201l-126 -694h13l703 694h246zM625 -503h-183l136 359h206z" />
    <glyph glyph-name="L" unicode="L" 
d="M1160 188l-31 -188h-875l254 1443h206l-222 -1255h668z" />
    <glyph glyph-name="Lacute" unicode="&#x139;" 
d="M1160 188l-31 -188h-875l254 1443h206l-222 -1255h668zM494 1610l311 307h240l-337 -307h-214z" />
    <glyph glyph-name="Lcircumflexbelow" unicode="&#x1e3c;" 
d="M1160 188l-31 -188h-875l254 1443h206l-222 -1255h668zM549 -164h226l211 -346h-206l-125 221h-16l-202 -221h-221z" />
    <glyph glyph-name="Ldotbelow" unicode="&#x1e36;" 
d="M1160 188l-31 -188h-875l254 1443h206l-222 -1255h668zM633 -458c-73 0 -135 63 -135 138s62 138 135 138c74 0 136 -63 136 -138s-62 -138 -136 -138z" />
    <glyph glyph-name="Ldotbelowmacron" unicode="&#x1e38;" 
d="M1160 188l-31 -188h-875l254 1443h206l-222 -1255h668zM633 -458c-73 0 -135 63 -135 138s62 138 135 138c74 0 136 -63 136 -138s-62 -138 -136 -138zM992 1685h-677l26 151h677z" />
    <glyph glyph-name="Llinebelow" unicode="&#x1e3a;" 
d="M1160 188l-31 -188h-875l254 1443h206l-222 -1255h668zM958 -401h-677l26 151h677z" />
    <glyph glyph-name="Lcommaaccent" unicode="&#x13b;" 
d="M1160 188l-31 -188h-875l254 1443h206l-222 -1255h668zM631 -503h-182l135 359h206z" />
    <glyph glyph-name="Lcaron" unicode="&#x13d;" 
d="M1020 1443h179l-125 -486h-139zM1160 188l-31 -188h-875l254 1443h206l-222 -1255h668z" />
    <glyph glyph-name="Ldot" unicode="&#x13f;" 
d="M1160 188l-31 -188h-875l254 1443h206l-222 -1255h668zM1146 912c-74 0 -136 63 -136 138s62 138 136 138c73 0 135 -63 135 -138s-62 -138 -135 -138z" />
    <glyph glyph-name="Lslash" unicode="&#x141;" 
d="M492 188h668l-31 -188h-875l98 558l-197 -100l31 181l198 102l124 702h206l-104 -585l536 276l-32 -188l-536 -273z" />
    <glyph glyph-name="M" unicode="M" 
d="M373 533l-96 -533h-181l254 1443h221l151 -875h14l456 875h232l-254 -1443h-181l95 533l121 582h-16l-418 -776h-154l-144 776h-15z" />
    <glyph glyph-name="Macute" unicode="&#x1e3e;" 
d="M373 533l-96 -533h-181l254 1443h221l151 -875h14l456 875h232l-254 -1443h-181l95 533l121 582h-16l-418 -776h-154l-144 776h-15zM770 1610l311 307h240l-337 -307h-214z" />
    <glyph glyph-name="Mdotaccent" unicode="&#x1e40;" 
d="M373 533l-96 -533h-181l254 1443h221l151 -875h14l456 875h232l-254 -1443h-181l95 533l121 582h-16l-418 -776h-154l-144 776h-15zM947 1628c-74 0 -136 63 -136 138s62 138 136 138c73 0 135 -63 135 -138s-62 -138 -135 -138z" />
    <glyph glyph-name="Mdotbelow" unicode="&#x1e42;" 
d="M373 533l-96 -533h-181l254 1443h221l151 -875h14l456 875h232l-254 -1443h-181l95 533l121 582h-16l-418 -776h-154l-144 776h-15zM576 -458c-73 0 -135 63 -135 138s62 138 135 138c74 0 136 -63 136 -138s-62 -138 -136 -138z" />
    <glyph glyph-name="N" unicode="N" 
d="M330 0h-185l254 1443h194l389 -1079h15l193 1079h185l-254 -1443h-192l-391 1082h-15z" />
    <glyph glyph-name="Ngrave" unicode="&#x1f8;" 
d="M787 1917l204 -307h-199l-230 307h225zM330 0h-185l254 1443h194l389 -1079h15l193 1079h185l-254 -1443h-192l-391 1082h-15z" />
    <glyph glyph-name="Nacute" unicode="&#x143;" 
d="M330 0h-185l254 1443h194l389 -1079h15l193 1079h185l-254 -1443h-192l-391 1082h-15zM767 1610l312 307h239l-337 -307h-214z" />
    <glyph glyph-name="Ntilde" unicode="&#xd1;" 
d="M330 0h-185l254 1443h194l389 -1079h15l193 1079h185l-254 -1443h-192l-391 1082h-15zM781 1766c-56 0 -89 -49 -97 -144h-139c12 171 101 279 233 279c161 0 194 -157 282 -157c55 0 89 50 98 142h138c-11 -163 -102 -276 -233 -276c-155 0 -184 156 -282 156z" />
    <glyph glyph-name="Ndotbelow" unicode="&#x1e46;" 
d="M330 0h-185l254 1443h194l389 -1079h15l193 1079h185l-254 -1443h-192l-391 1082h-15zM573 -458c-74 0 -136 63 -136 138s62 138 136 138c73 0 135 -63 135 -138s-62 -138 -135 -138z" />
    <glyph glyph-name="Ndotaccent" unicode="&#x1e44;" 
d="M330 0h-185l254 1443h194l389 -1079h15l193 1079h185l-254 -1443h-192l-391 1082h-15zM944 1628c-74 0 -136 63 -136 138s62 138 136 138c73 0 136 -63 136 -138s-63 -138 -136 -138z" />
    <glyph glyph-name="Ncaron" unicode="&#x147;" 
d="M330 0h-185l254 1443h194l389 -1079h15l193 1079h185l-254 -1443h-192l-391 1082h-15zM820 1606l-230 315h190l137 -197h14l207 197h210l-340 -315h-188z" />
    <glyph glyph-name="Ncircumflexbelow" unicode="&#x1e4a;" 
d="M330 0h-185l254 1443h194l389 -1079h15l193 1079h185l-254 -1443h-192l-391 1082h-15zM488 -164h226l211 -346h-206l-125 221h-16l-202 -221h-221z" />
    <glyph glyph-name="Nlinebelow" unicode="&#x1e48;" 
d="M330 0h-185l254 1443h194l389 -1079h15l193 1079h185l-254 -1443h-192l-391 1082h-15zM897 -401h-677l26 151h678z" />
    <glyph glyph-name="Ncommaaccent" unicode="&#x145;" 
d="M330 0h-185l254 1443h194l389 -1079h15l193 1079h185l-254 -1443h-192l-391 1082h-15zM570 -503h-182l136 359h205z" />
    <glyph glyph-name="O" unicode="O" 
d="M1265 529c-64 -364 -265 -559 -575 -559c-291 0 -492 209 -492 512c0 93 4 154 15 208l41 228c62 352 271 555 569 555c300 0 499 -209 499 -522c0 -69 -5 -130 -15 -193zM704 160c185 0 308 139 355 407l41 229c8 46 13 108 13 152c0 202 -118 335 -299 335
c-184 0 -306 -133 -352 -395l-40 -223c-10 -61 -14 -107 -14 -164c0 -210 113 -341 296 -341z" />
    <glyph glyph-name="Odieresis" unicode="&#xd6;" 
d="M1265 529c-64 -364 -265 -559 -575 -559c-291 0 -492 209 -492 512c0 93 4 154 15 208l41 228c62 352 271 555 569 555c300 0 499 -209 499 -522c0 -69 -5 -130 -15 -193zM704 160c185 0 308 139 355 407l41 229c8 46 13 108 13 152c0 202 -118 335 -299 335
c-184 0 -306 -133 -352 -395l-40 -223c-10 -61 -14 -107 -14 -164c0 -210 113 -341 296 -341zM733 1643c-67 0 -126 59 -126 129s59 129 126 129c68 0 126 -59 126 -129s-58 -129 -126 -129zM1154 1643c-68 0 -126 59 -126 129s58 129 126 129c67 0 126 -59 126 -129
s-59 -129 -126 -129z" />
    <glyph glyph-name="Oslash" unicode="&#xd8;" 
d="M1059 567l41 229c8 46 13 108 13 152c0 32 -3 63 -9 92l-636 -763c51 -75 132 -117 236 -117c185 0 308 139 355 407zM462 888l-40 -223c-10 -61 -14 -107 -14 -164c0 -35 3 -68 9 -98l638 758c-52 77 -136 122 -241 122c-184 0 -306 -133 -352 -395zM1441 1443
l-182 -218c41 -77 63 -170 63 -274c0 -69 -5 -130 -15 -193l-42 -229c-64 -364 -265 -559 -575 -559c-147 0 -271 53 -358 145l-96 -115h-157l181 216c-40 75 -62 166 -62 266c0 93 4 154 15 208l41 228c62 352 271 555 569 555c153 0 280 -55 368 -150l100 120h150z" />
    <glyph glyph-name="Otilde" unicode="&#xd5;" 
d="M1265 529c-64 -364 -265 -559 -575 -559c-291 0 -492 209 -492 512c0 93 4 154 15 208l41 228c62 352 271 555 569 555c300 0 499 -209 499 -522c0 -69 -5 -130 -15 -193zM704 160c185 0 308 139 355 407l41 229c8 46 13 108 13 152c0 202 -118 335 -299 335
c-184 0 -306 -133 -352 -395l-40 -223c-10 -61 -14 -107 -14 -164c0 -210 113 -341 296 -341zM783 1766c-56 0 -90 -49 -97 -144h-139c11 171 101 279 233 279c161 0 194 -157 282 -157c55 0 89 50 97 142h138c-10 -163 -101 -276 -232 -276c-156 0 -185 156 -282 156z" />
    <glyph glyph-name="Oacute" unicode="&#xd3;" 
d="M1265 529c-64 -364 -265 -559 -575 -559c-291 0 -492 209 -492 512c0 93 4 154 15 208l41 228c62 352 271 555 569 555c300 0 499 -209 499 -522c0 -69 -5 -130 -15 -193zM704 160c185 0 308 139 355 407l41 229c8 46 13 108 13 152c0 202 -118 335 -299 335
c-184 0 -306 -133 -352 -395l-40 -223c-10 -61 -14 -107 -14 -164c0 -210 113 -341 296 -341zM769 1610l311 307h240l-337 -307h-214z" />
    <glyph glyph-name="Ocircumflex" unicode="&#xd4;" 
d="M1265 529c-64 -364 -265 -559 -575 -559c-291 0 -492 209 -492 512c0 93 4 154 15 208l41 228c62 352 271 555 569 555c300 0 499 -209 499 -522c0 -69 -5 -130 -15 -193zM704 160c185 0 308 139 355 407l41 229c8 46 13 108 13 152c0 202 -118 335 -299 335
c-184 0 -306 -133 -352 -395l-40 -223c-10 -61 -14 -107 -14 -164c0 -210 113 -341 296 -341zM1072 1925l230 -316h-190l-137 198h-14l-207 -198h-210l340 316h188z" />
    <glyph glyph-name="Ograve" unicode="&#xd2;" 
d="M789 1917l204 -307h-199l-230 307h225zM462 888l-40 -223c-10 -61 -14 -107 -14 -164c0 -210 113 -341 296 -341c185 0 308 139 355 407l41 229c8 46 13 108 13 152c0 202 -118 335 -299 335c-184 0 -306 -133 -352 -395zM1307 758l-42 -229
c-64 -364 -265 -559 -575 -559c-291 0 -492 209 -492 512c0 93 4 154 15 208l41 228c62 352 271 555 569 555c300 0 499 -209 499 -522c0 -69 -5 -130 -15 -193z" />
    <glyph glyph-name="Ocircumflexhookabove" unicode="&#x1ed4;" 
d="M1265 529c-64 -364 -265 -559 -575 -559c-291 0 -492 209 -492 512c0 93 4 154 15 208l41 228c62 352 271 555 569 555c300 0 499 -209 499 -522c0 -69 -5 -130 -15 -193zM704 160c185 0 308 139 355 407l41 229c8 46 13 108 13 152c0 202 -118 335 -299 335
c-184 0 -306 -133 -352 -395l-40 -223c-10 -61 -14 -107 -14 -164c0 -210 113 -341 296 -341zM1055 1821l238 -243h-205l-138 146h-15l-191 -146h-218l323 243h206zM1128 2004l19 112c40 12 82 19 122 19c109 0 184 -62 184 -155c0 -97 -67 -175 -180 -210l-67 81
c68 22 107 62 107 104c0 40 -32 65 -87 65c-32 0 -62 -5 -98 -16z" />
    <glyph glyph-name="Ocircumflexgrave" unicode="&#x1ed2;" 
d="M1265 529c-64 -364 -265 -559 -575 -559c-291 0 -492 209 -492 512c0 93 4 154 15 208l41 228c62 352 271 555 569 555c300 0 499 -209 499 -522c0 -69 -5 -130 -15 -193zM704 160c185 0 308 139 355 407l41 229c8 46 13 108 13 152c0 202 -118 335 -299 335
c-184 0 -306 -133 -352 -395l-40 -223c-10 -61 -14 -107 -14 -164c0 -210 113 -341 296 -341zM1407 1853h-176l-184 252h198zM1055 1821l238 -243h-205l-138 146h-15l-191 -146h-218l323 243h206z" />
    <glyph glyph-name="Odotbelow" unicode="&#x1ecc;" 
d="M1265 529c-64 -364 -265 -559 -575 -559c-291 0 -492 209 -492 512c0 93 4 154 15 208l41 228c62 352 271 555 569 555c300 0 499 -209 499 -522c0 -69 -5 -130 -15 -193zM704 160c185 0 308 139 355 407l41 229c8 46 13 108 13 152c0 202 -118 335 -299 335
c-184 0 -306 -133 -352 -395l-40 -223c-10 -61 -14 -107 -14 -164c0 -210 113 -341 296 -341zM576 -458c-73 0 -135 63 -135 138s62 138 135 138c74 0 136 -63 136 -138s-62 -138 -136 -138z" />
    <glyph glyph-name="Odblgrave" unicode="&#x20c;" 
d="M1002 1917l193 -307h-180l-213 307h200zM611 1917l194 -307h-180l-213 307h199zM462 888l-40 -223c-10 -61 -14 -107 -14 -164c0 -210 113 -341 296 -341c185 0 308 139 355 407l41 229c8 46 13 108 13 152c0 202 -118 335 -299 335c-184 0 -306 -133 -352 -395z
M1307 758l-42 -229c-64 -364 -265 -559 -575 -559c-291 0 -492 209 -492 512c0 93 4 154 15 208l41 228c62 352 271 555 569 555c300 0 499 -209 499 -522c0 -69 -5 -130 -15 -193z" />
    <glyph glyph-name="Otildeacute" unicode="&#x1e4c;" 
d="M1265 529c-64 -364 -265 -559 -575 -559c-291 0 -492 209 -492 512c0 93 4 154 15 208l41 228c62 352 271 555 569 555c300 0 499 -209 499 -522c0 -69 -5 -130 -15 -193zM704 160c185 0 308 139 355 407l41 229c8 46 13 108 13 152c0 202 -118 335 -299 335
c-184 0 -306 -133 -352 -395l-40 -223c-10 -61 -14 -107 -14 -164c0 -210 113 -341 296 -341zM825 1905l139 224h199l-163 -224h-175zM765 1693c-53 0 -86 -41 -93 -120h-139c12 150 102 248 232 248c165 0 176 -133 274 -133c51 0 85 41 93 117h138
c-11 -143 -103 -246 -231 -246c-166 0 -176 134 -274 134z" />
    <glyph glyph-name="Omacronacute" unicode="&#x1e52;" 
d="M573 1612l22 133h683l-22 -133h-683zM1023 1865h-200l235 239h223zM462 888l-40 -223c-10 -61 -14 -107 -14 -164c0 -210 113 -341 296 -341c185 0 308 139 355 407l41 229c8 46 13 108 13 152c0 202 -118 335 -299 335c-184 0 -306 -133 -352 -395zM1307 758l-42 -229
c-64 -364 -265 -559 -575 -559c-291 0 -492 209 -492 512c0 93 4 154 15 208l41 228c62 352 271 555 569 555c300 0 499 -209 499 -522c0 -69 -5 -130 -15 -193z" />
    <glyph glyph-name="Ocircumflextilde" unicode="&#x1ed6;" 
d="M1265 529c-64 -364 -265 -559 -575 -559c-291 0 -492 209 -492 512c0 93 4 154 15 208l41 228c62 352 271 555 569 555c300 0 499 -209 499 -522c0 -69 -5 -130 -15 -193zM704 160c185 0 308 139 355 407l41 229c8 46 13 108 13 152c0 202 -118 335 -299 335
c-184 0 -306 -133 -352 -395l-40 -223c-10 -61 -14 -107 -14 -164c0 -210 113 -341 296 -341zM1054 1821l238 -243h-203l-139 146h-15l-190 -146h-220l323 243h206zM850 2009c-52 0 -84 -39 -91 -113h-137c9 144 100 239 227 239c164 0 174 -127 273 -127c50 0 83 40 91 111
h136c-9 -138 -101 -237 -227 -237c-164 0 -173 127 -272 127z" />
    <glyph glyph-name="Odotaccentmacron" unicode="&#x230;" 
d="M921 1826c69 0 124 -56 124 -127s-55 -127 -124 -127s-125 56 -125 127s56 127 125 127zM621 1941l23 133h683l-23 -133h-683zM462 888l-40 -223c-10 -61 -14 -107 -14 -164c0 -210 113 -341 296 -341c185 0 308 139 355 407l41 229c8 46 13 108 13 152
c0 202 -118 335 -299 335c-184 0 -306 -133 -352 -395zM1307 758l-42 -229c-64 -364 -265 -559 -575 -559c-291 0 -492 209 -492 512c0 93 4 154 15 208l41 228c62 352 271 555 569 555c300 0 499 -209 499 -522c0 -69 -5 -130 -15 -193z" />
    <glyph glyph-name="Omacrongrave" unicode="&#x1e50;" 
d="M1265 529c-64 -364 -265 -559 -575 -559c-291 0 -492 209 -492 512c0 93 4 154 15 208l41 228c62 352 271 555 569 555c300 0 499 -209 499 -522c0 -69 -5 -130 -15 -193zM704 160c185 0 308 139 355 407l41 229c8 46 13 108 13 152c0 202 -118 335 -299 335
c-184 0 -306 -133 -352 -395l-40 -223c-10 -61 -14 -107 -14 -164c0 -210 113 -341 296 -341zM1065 1866h-184l-175 239h208zM573 1613l23 133h683l-23 -133h-683z" />
    <glyph glyph-name="Ocaron" unicode="&#x1d1;" 
d="M1265 529c-64 -364 -265 -559 -575 -559c-291 0 -492 209 -492 512c0 93 4 154 15 208l41 228c62 352 271 555 569 555c300 0 499 -209 499 -522c0 -69 -5 -130 -15 -193zM704 160c185 0 308 139 355 407l41 229c8 46 13 108 13 152c0 202 -118 335 -299 335
c-184 0 -306 -133 -352 -395l-40 -223c-10 -61 -14 -107 -14 -164c0 -210 113 -341 296 -341zM821 1606l-229 315h190l136 -197h15l207 197h209l-339 -315h-189z" />
    <glyph glyph-name="Oslashacute" unicode="&#x1fe;" 
d="M1313 1917l-337 -307h-214l312 307h239zM1059 567l41 229c8 46 13 108 13 152c0 32 -3 63 -9 92l-636 -763c51 -75 132 -117 236 -117c185 0 308 139 355 407zM462 888l-40 -223c-10 -61 -14 -107 -14 -164c0 -35 3 -68 9 -98l638 758c-52 77 -136 122 -241 122
c-184 0 -306 -133 -352 -395zM1441 1443l-182 -218c41 -77 63 -170 63 -274c0 -69 -5 -130 -15 -193l-42 -229c-64 -364 -265 -559 -575 -559c-147 0 -271 53 -358 145l-96 -115h-157l181 216c-40 75 -62 166 -62 266c0 93 4 154 15 208l41 228c62 352 271 555 569 555
c153 0 280 -55 368 -150l100 120h150z" />
    <glyph glyph-name="Ohungarumlaut" unicode="&#x150;" 
d="M1265 529c-64 -364 -265 -559 -575 -559c-291 0 -492 209 -492 512c0 93 4 154 15 208l41 228c62 352 271 555 569 555c300 0 499 -209 499 -522c0 -69 -5 -130 -15 -193zM704 160c185 0 308 139 355 407l41 229c8 46 13 108 13 152c0 202 -118 335 -299 335
c-184 0 -306 -133 -352 -395l-40 -223c-10 -61 -14 -107 -14 -164c0 -210 113 -341 296 -341zM1042 1610l301 307h211l-320 -307h-192zM652 1610l300 307h211l-320 -307h-191z" />
    <glyph glyph-name="Obreve" unicode="&#x14e;" 
d="M1265 529c-64 -364 -265 -559 -575 -559c-291 0 -492 209 -492 512c0 93 4 154 15 208l41 228c62 352 271 555 569 555c300 0 499 -209 499 -522c0 -69 -5 -130 -15 -193zM704 160c185 0 308 139 355 407l41 229c8 46 13 108 13 152c0 202 -118 335 -299 335
c-184 0 -306 -133 -352 -395l-40 -223c-10 -61 -14 -107 -14 -164c0 -210 113 -341 296 -341zM923 1604c-207 0 -345 138 -316 316h151c-12 -111 58 -185 175 -185c116 0 211 76 232 185h158c-33 -190 -194 -316 -400 -316z" />
    <glyph glyph-name="Oinvertedbreve" unicode="&#x20e;" 
d="M1265 529c-64 -364 -265 -559 -575 -559c-291 0 -492 209 -492 512c0 93 4 154 15 208l41 228c62 352 271 555 569 555c300 0 499 -209 499 -522c0 -69 -5 -130 -15 -193zM704 160c185 0 308 139 355 407l41 229c8 46 13 108 13 152c0 202 -118 335 -299 335
c-184 0 -306 -133 -352 -395l-40 -223c-10 -61 -14 -107 -14 -164c0 -210 113 -341 296 -341zM986 1920c207 0 345 -137 316 -316h-151c13 112 -57 185 -174 185c-116 0 -212 -75 -233 -185h-158c34 190 194 316 400 316z" />
    <glyph glyph-name="Ohookabove" unicode="&#x1ece;" 
d="M1265 529c-64 -364 -265 -559 -575 -559c-291 0 -492 209 -492 512c0 93 4 154 15 208l41 228c62 352 271 555 569 555c300 0 499 -209 499 -522c0 -69 -5 -130 -15 -193zM704 160c185 0 308 139 355 407l41 229c8 46 13 108 13 152c0 202 -118 335 -299 335
c-184 0 -306 -133 -352 -395l-40 -223c-10 -61 -14 -107 -14 -164c0 -210 113 -341 296 -341zM766 1820l9 123c38 15 90 25 138 25c126 0 210 -69 210 -177c0 -99 -74 -184 -190 -222l-63 92c69 22 111 67 111 109c0 44 -38 72 -100 72c-44 0 -89 -9 -115 -22z" />
    <glyph glyph-name="Odieresismacron" unicode="&#x22a;" 
d="M1265 529c-64 -364 -265 -559 -575 -559c-291 0 -492 209 -492 512c0 93 4 154 15 208l41 228c62 352 271 555 569 555c300 0 499 -209 499 -522c0 -69 -5 -130 -15 -193zM704 160c185 0 308 139 355 407l41 229c8 46 13 108 13 152c0 202 -118 335 -299 335
c-184 0 -306 -133 -352 -395l-40 -223c-10 -61 -14 -107 -14 -164c0 -210 113 -341 296 -341zM1132 1805c65 0 117 -53 117 -120s-52 -120 -117 -120s-117 53 -117 120s52 120 117 120zM1316 2074l-22 -133h-683l22 133h683zM724 1805c64 0 117 -53 117 -120
s-53 -120 -117 -120c-65 0 -117 53 -117 120s52 120 117 120z" />
    <glyph glyph-name="Otildemacron" unicode="&#x22c;" 
d="M1265 529c-64 -364 -265 -559 -575 -559c-291 0 -492 209 -492 512c0 93 4 154 15 208l41 228c62 352 271 555 569 555c300 0 499 -209 499 -522c0 -69 -5 -130 -15 -193zM704 160c185 0 308 139 355 407l41 229c8 46 13 108 13 152c0 202 -118 335 -299 335
c-184 0 -306 -133 -352 -395l-40 -223c-10 -61 -14 -107 -14 -164c0 -210 113 -341 296 -341zM1303 1947h-683l23 133h683zM797 1693c-54 0 -86 -41 -94 -120h-138c11 150 102 248 231 248c166 0 177 -133 274 -133c52 0 85 41 94 117h137c-10 -143 -102 -246 -231 -246
c-165 0 -176 134 -273 134z" />
    <glyph glyph-name="Odotaccent" unicode="&#x22e;" 
d="M1265 529c-64 -364 -265 -559 -575 -559c-291 0 -492 209 -492 512c0 93 4 154 15 208l41 228c62 352 271 555 569 555c300 0 499 -209 499 -522c0 -69 -5 -130 -15 -193zM704 160c185 0 308 139 355 407l41 229c8 46 13 108 13 152c0 202 -118 335 -299 335
c-184 0 -306 -133 -352 -395l-40 -223c-10 -61 -14 -107 -14 -164c0 -210 113 -341 296 -341zM946 1628c-74 0 -136 63 -136 138s62 138 136 138c73 0 135 -63 135 -138s-62 -138 -135 -138z" />
    <glyph glyph-name="Ocircumflexdotbelow" unicode="&#x1ed8;" 
d="M1265 529c-64 -364 -265 -559 -575 -559c-291 0 -492 209 -492 512c0 93 4 154 15 208l41 228c62 352 271 555 569 555c300 0 499 -209 499 -522c0 -69 -5 -130 -15 -193zM704 160c185 0 308 139 355 407l41 229c8 46 13 108 13 152c0 202 -118 335 -299 335
c-184 0 -306 -133 -352 -395l-40 -223c-10 -61 -14 -107 -14 -164c0 -210 113 -341 296 -341zM1072 1925l230 -316h-190l-137 198h-14l-207 -198h-210l340 316h188zM576 -458c-73 0 -135 63 -135 138s62 138 135 138c74 0 136 -63 136 -138s-62 -138 -136 -138z" />
    <glyph glyph-name="Ocircumflexacute" unicode="&#x1ed0;" 
d="M1265 529c-64 -364 -265 -559 -575 -559c-291 0 -492 209 -492 512c0 93 4 154 15 208l41 228c62 352 271 555 569 555c300 0 499 -209 499 -522c0 -69 -5 -130 -15 -193zM704 160c185 0 308 139 355 407l41 229c8 46 13 108 13 152c0 202 -118 335 -299 335
c-184 0 -306 -133 -352 -395l-40 -223c-10 -61 -14 -107 -14 -164c0 -210 113 -341 296 -341zM1167 1853l248 252h210l-271 -252h-187zM1053 1821l238 -243h-203l-139 146h-15l-190 -146h-220l323 243h206z" />
    <glyph glyph-name="Otildedieresis" unicode="&#x1e4e;" 
d="M1265 529c-64 -364 -265 -559 -575 -559c-291 0 -492 209 -492 512c0 93 4 154 15 208l41 228c62 352 271 555 569 555c300 0 499 -209 499 -522c0 -69 -5 -130 -15 -193zM704 160c185 0 308 139 355 407l41 229c8 46 13 108 13 152c0 202 -118 335 -299 335
c-184 0 -306 -133 -352 -395l-40 -223c-10 -61 -14 -107 -14 -164c0 -210 113 -341 296 -341zM776 1889c-61 0 -111 50 -111 113s50 113 111 113s111 -50 111 -113s-50 -113 -111 -113zM1184 1889c-61 0 -111 50 -111 113s50 113 111 113c62 0 111 -50 111 -113
s-49 -113 -111 -113zM792 1681c-52 0 -84 -40 -91 -113h-138c10 143 101 238 228 238c164 0 174 -126 273 -126c50 0 83 39 91 110h136c-9 -137 -102 -237 -227 -237c-164 0 -174 128 -272 128z" />
    <glyph glyph-name="Omacron" unicode="&#x14c;" 
d="M1265 529c-64 -364 -265 -559 -575 -559c-291 0 -492 209 -492 512c0 93 4 154 15 208l41 228c62 352 271 555 569 555c300 0 499 -209 499 -522c0 -69 -5 -130 -15 -193zM704 160c185 0 308 139 355 407l41 229c8 46 13 108 13 152c0 202 -118 335 -299 335
c-184 0 -306 -133 -352 -395l-40 -223c-10 -61 -14 -107 -14 -164c0 -210 113 -341 296 -341zM1267 1685h-677l26 151h677z" />
    <glyph glyph-name="Oogonek" unicode="&#x1ea;" 
d="M871 -431c-136 0 -236 81 -236 191c0 84 42 155 154 228l-3 13c-32 -19 -65 -27 -113 -27c-277 -4 -475 208 -475 508c0 100 4 160 15 208l41 228c62 352 271 555 569 555c300 0 499 -209 499 -522c0 -66 -4 -127 -15 -193l-42 -229c-37 -211 -115 -356 -250 -463
c-158 -127 -202 -183 -202 -257c0 -59 49 -100 117 -100c31 0 58 2 72 5l-23 -131c-24 -9 -65 -14 -108 -14zM704 160c186 0 307 137 355 407l41 229c8 46 13 108 13 152c0 202 -118 335 -299 335c-184 0 -305 -134 -351 -395l-40 -223c-10 -60 -15 -106 -15 -164
c0 -210 113 -341 296 -341z" />
    <glyph glyph-name="Oogonekmacron" unicode="&#x1ec;" 
d="M1269 1685h-677l26 151h677zM871 -431c-136 0 -236 81 -236 191c0 84 42 155 154 228l-3 13c-32 -19 -65 -27 -113 -27c-277 -4 -475 208 -475 508c0 100 4 160 15 208l41 228c62 352 271 555 569 555c300 0 499 -209 499 -522c0 -66 -4 -127 -15 -193l-42 -229
c-37 -211 -115 -356 -250 -463c-158 -127 -202 -183 -202 -257c0 -59 49 -100 117 -100c31 0 58 2 72 5l-23 -131c-24 -9 -65 -14 -108 -14zM704 160c186 0 307 137 355 407l41 229c8 46 13 108 13 152c0 202 -118 335 -299 335c-184 0 -305 -134 -351 -395l-40 -223
c-10 -60 -15 -106 -15 -164c0 -210 113 -341 296 -341z" />
    <glyph glyph-name="Ohorn" unicode="&#x1a0;" 
d="M463 888l-40 -223c-11 -68 -16 -114 -16 -165c0 -207 116 -340 298 -340c183 0 303 137 351 407l41 229c9 51 12 94 12 152c0 203 -117 335 -297 335c-181 0 -302 -134 -349 -395zM1293 708l-31 -179c-66 -364 -265 -559 -574 -559c-290 0 -489 209 -489 512
c0 95 4 155 15 208l41 228c63 353 270 555 570 555c193 0 251 -76 391 -76c83 0 135 46 152 137l25 142h168c-19 -101 -37 -210 -47 -233c-39 -128 -132 -195 -258 -188h-19l-1 -7c54 -86 82 -184 82 -296c0 -77 -9 -160 -25 -244z" />
    <glyph glyph-name="Ohorndotbelow" unicode="&#x1ee2;" 
d="M576 -458c-73 0 -135 63 -135 138s62 138 135 138c74 0 136 -63 136 -138s-62 -138 -136 -138zM463 888l-40 -223c-11 -68 -16 -114 -16 -165c0 -207 116 -340 298 -340c183 0 303 137 351 407l41 229c9 51 12 94 12 152c0 203 -117 335 -297 335
c-181 0 -302 -134 -349 -395zM1293 708l-31 -179c-66 -364 -265 -559 -574 -559c-290 0 -489 209 -489 512c0 95 4 155 15 208l41 228c63 353 270 555 570 555c193 0 251 -76 391 -76c83 0 135 46 152 137l25 142h168c-19 -101 -37 -210 -47 -233
c-39 -128 -132 -195 -258 -188h-19l-1 -7c54 -86 82 -184 82 -296c0 -77 -9 -160 -25 -244z" />
    <glyph glyph-name="Ohornhookabove" unicode="&#x1ede;" 
d="M463 888l-40 -223c-11 -68 -16 -114 -16 -165c0 -207 116 -340 298 -340c183 0 303 137 351 407l41 229c9 51 12 94 12 152c0 203 -117 335 -297 335c-181 0 -302 -134 -349 -395zM1293 708l-31 -179c-66 -364 -265 -559 -574 -559c-290 0 -489 209 -489 512
c0 95 4 155 15 208l41 228c63 353 270 555 570 555c193 0 251 -76 391 -76c83 0 135 46 152 137l25 142h168c-19 -101 -37 -210 -47 -233c-39 -128 -132 -195 -258 -188h-19l-1 -7c54 -86 82 -184 82 -296c0 -77 -9 -160 -25 -244zM768 1820l9 123c38 15 90 25 138 25
c126 0 210 -69 210 -177c0 -99 -74 -184 -190 -222l-63 92c69 22 110 67 110 109c0 44 -37 72 -100 72c-43 0 -88 -9 -114 -22z" />
    <glyph glyph-name="Ohorntilde" unicode="&#x1ee0;" 
d="M1161 1886h138c-10 -163 -101 -276 -232 -276c-156 0 -185 156 -282 156c-56 0 -90 -49 -98 -144h-138c11 171 100 279 233 279c161 0 194 -157 282 -157c54 0 89 50 97 142zM463 888l-40 -223c-11 -68 -16 -114 -16 -165c0 -207 116 -340 298 -340
c183 0 303 137 351 407l41 229c9 51 12 94 12 152c0 203 -117 335 -297 335c-181 0 -302 -134 -349 -395zM1293 708l-31 -179c-66 -364 -265 -559 -574 -559c-290 0 -489 209 -489 512c0 95 4 155 15 208l41 228c63 353 270 555 570 555c193 0 251 -76 391 -76
c83 0 135 46 152 137l25 142h168c-19 -101 -37 -210 -47 -233c-39 -128 -132 -195 -258 -188h-19l-1 -7c54 -86 82 -184 82 -296c0 -77 -9 -160 -25 -244z" />
    <glyph glyph-name="Ohorngrave" unicode="&#x1edc;" 
d="M860 1917l204 -307h-199l-230 307h225zM1293 708l-31 -179c-66 -364 -265 -559 -574 -559c-290 0 -489 209 -489 512c0 95 4 155 15 208l41 228c63 353 270 555 570 555c193 0 251 -76 391 -76c83 0 135 46 152 137l25 142h168c-19 -101 -37 -210 -47 -233
c-39 -128 -132 -195 -258 -188h-19l-1 -7c54 -86 82 -184 82 -296c0 -77 -9 -160 -25 -244zM463 888l-40 -223c-11 -68 -16 -114 -16 -165c0 -207 116 -340 298 -340c183 0 303 137 351 407l41 229c9 51 12 94 12 152c0 203 -117 335 -297 335c-181 0 -302 -134 -349 -395z
" />
    <glyph glyph-name="Ohornacute" unicode="&#x1eda;" 
d="M765 1610l312 307h239l-336 -307h-215zM463 888l-40 -223c-11 -68 -16 -114 -16 -165c0 -207 116 -340 298 -340c183 0 303 137 351 407l41 229c9 51 12 94 12 152c0 203 -117 335 -297 335c-181 0 -302 -134 -349 -395zM1293 708l-31 -179c-66 -364 -265 -559 -574 -559
c-290 0 -489 209 -489 512c0 95 4 155 15 208l41 228c63 353 270 555 570 555c193 0 251 -76 391 -76c83 0 135 46 152 137l25 142h168c-19 -101 -37 -210 -47 -233c-39 -128 -132 -195 -258 -188h-19l-1 -7c54 -86 82 -184 82 -296c0 -77 -9 -160 -25 -244z" />
    <glyph glyph-name="P" unicode="P" 
d="M437 1443h457c269 0 440 -156 440 -402c0 -329 -224 -539 -580 -539h-273l-89 -502h-209zM616 1265l-104 -586h244c230 0 370 132 370 347c0 152 -99 239 -271 239h-239z" />
    <glyph glyph-name="Pdotaccent" unicode="&#x1e56;" 
d="M437 1443h457c269 0 440 -156 440 -402c0 -329 -224 -539 -580 -539h-273l-89 -502h-209zM616 1265l-104 -586h244c230 0 370 132 370 347c0 152 -99 239 -271 239h-239zM896 1628c-74 0 -136 63 -136 138s62 138 136 138c73 0 135 -63 135 -138s-62 -138 -135 -138z" />
    <glyph glyph-name="Pacute" unicode="&#x1e54;" 
d="M437 1443h457c269 0 440 -156 440 -402c0 -329 -224 -539 -580 -539h-273l-89 -502h-209zM616 1265l-104 -586h244c230 0 370 132 370 347c0 152 -99 239 -271 239h-239zM719 1610l311 307h240l-337 -307h-214z" />
    <glyph glyph-name="Q" unicode="Q" 
d="M1060 563l42 230c7 46 13 107 13 154c0 203 -119 336 -301 336c-184 0 -306 -133 -353 -398l-40 -224c-10 -60 -14 -107 -14 -165c0 -211 113 -342 297 -342c30 0 58 4 85 11l-134 296h205l86 -190c54 68 92 166 114 292zM213 690l41 228c62 352 271 555 569 555
c300 0 499 -209 499 -522c0 -66 -5 -128 -15 -193l-42 -229c-37 -205 -116 -356 -233 -449l110 -243h-205l-71 157c-54 -16 -113 -24 -176 -24c-291 0 -492 209 -492 512c0 93 4 154 15 208z" />
    <glyph glyph-name="R" unicode="R" 
d="M601 1266l-95 -535h249c196 0 316 97 344 253c3 15 5 41 5 63c1 135 -88 219 -243 219h-260zM377 0h-207l254 1443h478c253 0 420 -147 419 -386c0 -31 -2 -63 -7 -96c-31 -186 -152 -320 -335 -368l191 -593h-220l-176 565c-15 -1 -53 -2 -72 -2h-225z" />
    <glyph glyph-name="Rcaron" unicode="&#x158;" 
d="M601 1266l-95 -535h249c196 0 316 97 344 253c3 15 5 41 5 63c1 135 -88 219 -243 219h-260zM377 0h-207l254 1443h478c253 0 420 -147 419 -386c0 -31 -2 -63 -7 -96c-31 -186 -152 -320 -335 -368l191 -593h-220l-176 565c-15 -1 -53 -2 -72 -2h-225zM784 1606
l-230 315h190l137 -197h14l207 197h210l-340 -315h-188z" />
    <glyph glyph-name="Rlinebelow" unicode="&#x1e5e;" 
d="M601 1266l-95 -535h249c196 0 316 97 344 253c3 15 5 41 5 63c1 135 -88 219 -243 219h-260zM377 0h-207l254 1443h478c253 0 420 -147 419 -386c0 -31 -2 -63 -7 -96c-31 -186 -152 -320 -335 -368l191 -593h-220l-176 565c-15 -1 -53 -2 -72 -2h-225zM906 -401h-677
l26 152h678z" />
    <glyph glyph-name="Rdotbelowmacron" unicode="&#x1e5c;" 
d="M601 1266l-95 -535h249c196 0 316 97 344 253c3 15 5 41 5 63c1 135 -88 219 -243 219h-260zM377 0h-207l254 1443h478c253 0 420 -147 419 -386c0 -31 -2 -63 -7 -96c-31 -186 -152 -320 -335 -368l191 -593h-220l-176 565c-15 -1 -53 -2 -72 -2h-225zM581 -458
c-73 0 -135 63 -135 138s62 138 135 138c74 0 136 -63 136 -138s-62 -138 -136 -138zM1229 1685h-677l26 151h678z" />
    <glyph glyph-name="Rdblgrave" unicode="&#x210;" 
d="M964 1917l194 -307h-181l-213 307h200zM574 1917l193 -307h-180l-213 307h200zM377 0h-207l254 1443h478c253 0 420 -147 419 -386c0 -31 -2 -63 -7 -96c-31 -186 -152 -320 -335 -368l191 -593h-220l-176 565c-15 -1 -53 -2 -72 -2h-225zM601 1266l-95 -535h249
c196 0 316 97 344 253c3 15 5 41 5 63c1 135 -88 219 -243 219h-260z" />
    <glyph glyph-name="Rinvertedbreve" unicode="&#x212;" 
d="M601 1266l-95 -535h249c196 0 316 97 344 253c3 15 5 41 5 63c1 135 -88 219 -243 219h-260zM377 0h-207l254 1443h478c253 0 420 -147 419 -386c0 -31 -2 -63 -7 -96c-31 -186 -152 -320 -335 -368l191 -593h-220l-176 565c-15 -1 -53 -2 -72 -2h-225zM949 1920
c206 0 344 -137 315 -316h-151c13 112 -57 185 -174 185c-116 0 -212 -75 -232 -185h-159c34 190 195 316 401 316z" />
    <glyph glyph-name="Racute" unicode="&#x154;" 
d="M601 1266l-95 -535h249c196 0 316 97 344 253c3 15 5 41 5 63c1 135 -88 219 -243 219h-260zM377 0h-207l254 1443h478c253 0 420 -147 419 -386c0 -31 -2 -63 -7 -96c-31 -186 -152 -320 -335 -368l191 -593h-220l-176 565c-15 -1 -53 -2 -72 -2h-225zM731 1610l312 307
h239l-337 -307h-214z" />
    <glyph glyph-name="Rdotbelow" unicode="&#x1e5a;" 
d="M601 1266l-95 -535h249c196 0 316 97 344 253c3 15 5 41 5 63c1 135 -88 219 -243 219h-260zM377 0h-207l254 1443h478c253 0 420 -147 419 -386c0 -31 -2 -63 -7 -96c-31 -186 -152 -320 -335 -368l191 -593h-220l-176 565c-15 -1 -53 -2 -72 -2h-225zM581 -458
c-73 0 -135 63 -135 138s62 138 135 138c74 0 136 -63 136 -138s-62 -138 -136 -138z" />
    <glyph glyph-name="Rdotaccent" unicode="&#x1e58;" 
d="M601 1266l-95 -535h249c196 0 316 97 344 253c3 15 5 41 5 63c1 135 -88 219 -243 219h-260zM377 0h-207l254 1443h478c253 0 420 -147 419 -386c0 -31 -2 -63 -7 -96c-31 -186 -152 -320 -335 -368l191 -593h-220l-176 565c-15 -1 -53 -2 -72 -2h-225zM908 1628
c-74 0 -136 63 -136 138s62 138 136 138c73 0 135 -63 135 -138s-62 -138 -135 -138z" />
    <glyph glyph-name="Rcommaaccent" unicode="&#x156;" 
d="M601 1266l-95 -535h249c196 0 316 97 344 253c3 15 5 41 5 63c1 135 -88 219 -243 219h-260zM377 0h-207l254 1443h478c253 0 420 -147 419 -386c0 -31 -2 -63 -7 -96c-31 -186 -152 -320 -335 -368l191 -593h-220l-176 565c-15 -1 -53 -2 -72 -2h-225zM579 -503h-182
l136 359h205z" />
    <glyph glyph-name="S" unicode="S" 
d="M188 418h203c-1 -11 -2 -18 -2 -27c0 -140 132 -240 318 -240c178 0 302 98 302 236c0 107 -64 170 -243 236l-104 37c-235 86 -338 206 -338 388c0 252 202 425 497 425c278 0 475 -160 476 -386c0 -13 -2 -32 -3 -40h-203c1 3 1 7 1 23c0 128 -113 222 -270 222
c-167 0 -283 -91 -283 -222c0 -105 63 -171 228 -231l112 -41c245 -90 343 -201 343 -379c0 -272 -204 -449 -519 -449c-298 0 -518 171 -518 402c0 22 1 36 3 46z" />
    <glyph glyph-name="Scaron" unicode="&#x160;" 
d="M188 418h203c-1 -11 -2 -18 -2 -27c0 -140 132 -240 318 -240c178 0 302 98 302 236c0 107 -64 170 -243 236l-104 37c-235 86 -338 206 -338 388c0 252 202 425 497 425c278 0 475 -160 476 -386c0 -13 -2 -32 -3 -40h-203c1 3 1 7 1 23c0 128 -113 222 -270 222
c-167 0 -283 -91 -283 -222c0 -105 63 -171 228 -231l112 -41c245 -90 343 -201 343 -379c0 -272 -204 -449 -519 -449c-298 0 -518 171 -518 402c0 22 1 36 3 46zM802 1606l-230 315h190l137 -197h14l207 197h210l-340 -315h-188z" />
    <glyph glyph-name="Scedilla" unicode="&#x15e;" 
d="M1294 1047h-203c1 3 1 7 1 23c0 128 -113 222 -270 222c-167 0 -283 -91 -283 -222c0 -105 63 -171 228 -231l112 -41c245 -90 343 -201 343 -379c0 -272 -204 -449 -519 -449h-5l-51 -98c114 -6 179 -62 179 -153c0 -124 -102 -205 -260 -205c-50 0 -109 9 -156 25
l20 115c29 -11 94 -20 133 -20c73 0 115 24 115 68c0 47 -45 70 -133 70h-55l9 93l63 119c-224 44 -377 195 -377 388c0 22 1 36 3 46h203c-1 -11 -2 -18 -2 -27c0 -140 132 -240 318 -240c178 0 302 98 302 236c0 107 -64 170 -243 236l-104 37c-235 86 -338 206 -338 388
c0 252 202 425 497 425c278 0 475 -160 476 -386c0 -13 -2 -32 -3 -40z" />
    <glyph glyph-name="Sdotaccent" unicode="&#x1e60;" 
d="M188 418h203c-1 -11 -2 -18 -2 -27c0 -140 132 -240 318 -240c178 0 302 98 302 236c0 107 -64 170 -243 236l-104 37c-235 86 -338 206 -338 388c0 252 202 425 497 425c278 0 475 -160 476 -386c0 -13 -2 -32 -3 -40h-203c1 3 1 7 1 23c0 128 -113 222 -270 222
c-167 0 -283 -91 -283 -222c0 -105 63 -171 228 -231l112 -41c245 -90 343 -201 343 -379c0 -272 -204 -449 -519 -449c-298 0 -518 171 -518 402c0 22 1 36 3 46zM926 1628c-74 0 -136 63 -136 138s62 138 136 138c73 0 135 -63 135 -138s-62 -138 -135 -138z" />
    <glyph glyph-name="Sdotbelow" unicode="&#x1e62;" 
d="M188 418h203c-1 -11 -2 -18 -2 -27c0 -140 132 -240 318 -240c178 0 302 98 302 236c0 107 -64 170 -243 236l-104 37c-235 86 -338 206 -338 388c0 252 202 425 497 425c278 0 475 -160 476 -386c0 -13 -2 -32 -3 -40h-203c1 3 1 7 1 23c0 128 -113 222 -270 222
c-167 0 -283 -91 -283 -222c0 -105 63 -171 228 -231l112 -41c245 -90 343 -201 343 -379c0 -272 -204 -449 -519 -449c-298 0 -518 171 -518 402c0 22 1 36 3 46zM572 -458c-74 0 -136 63 -136 138s62 138 136 138c73 0 135 -63 135 -138s-62 -138 -135 -138z" />
    <glyph glyph-name="Scommaaccent" unicode="&#x218;" 
d="M188 418h203c-1 -11 -2 -18 -2 -27c0 -140 132 -240 318 -240c178 0 302 98 302 236c0 107 -64 170 -243 236l-104 37c-235 86 -338 206 -338 388c0 252 202 425 497 425c278 0 475 -160 476 -386c0 -13 -2 -32 -3 -40h-203c1 3 1 7 1 23c0 128 -113 222 -270 222
c-167 0 -283 -91 -283 -222c0 -105 63 -171 228 -231l112 -41c245 -90 343 -201 343 -379c0 -272 -204 -449 -519 -449c-298 0 -518 171 -518 402c0 22 1 36 3 46zM569 -516h-182l136 359h205z" />
    <glyph glyph-name="Sdotbelowdotaccent" unicode="&#x1e68;" 
d="M188 418h203c-1 -11 -2 -18 -2 -27c0 -140 132 -240 318 -240c178 0 302 98 302 236c0 107 -64 170 -243 236l-104 37c-235 86 -338 206 -338 388c0 252 202 425 497 425c278 0 475 -160 476 -386c0 -13 -2 -32 -3 -40h-203c1 3 1 7 1 23c0 128 -113 222 -270 222
c-167 0 -283 -91 -283 -222c0 -105 63 -171 228 -231l112 -41c245 -90 343 -201 343 -379c0 -272 -204 -449 -519 -449c-298 0 -518 171 -518 402c0 22 1 36 3 46zM572 -458c-74 0 -136 63 -136 138s62 138 136 138c73 0 135 -63 135 -138s-62 -138 -135 -138zM926 1628
c-74 0 -136 63 -136 138s62 138 136 138c73 0 135 -63 135 -138s-62 -138 -135 -138z" />
    <glyph glyph-name="Scarondotaccent" unicode="&#x1e66;" 
d="M188 418h203c-1 -11 -2 -18 -2 -27c0 -140 132 -240 318 -240c178 0 302 98 302 236c0 107 -64 170 -243 236l-104 37c-235 86 -338 206 -338 388c0 252 202 425 497 425c278 0 475 -160 476 -386c0 -13 -2 -32 -3 -40h-203c1 3 1 7 1 23c0 128 -113 222 -270 222
c-167 0 -283 -91 -283 -222c0 -105 63 -171 228 -231l112 -41c245 -90 343 -201 343 -379c0 -272 -204 -449 -519 -449c-298 0 -518 171 -518 402c0 22 1 36 3 46zM915 1879c-73 0 -127 54 -127 124c0 71 54 124 127 124c72 0 126 -53 126 -124c0 -70 -54 -124 -126 -124z
M977 1578h-207l-238 245h205l139 -146h15l190 146h218z" />
    <glyph glyph-name="Scircumflex" unicode="&#x15c;" 
d="M188 418h203c-1 -11 -2 -18 -2 -27c0 -140 132 -240 318 -240c178 0 302 98 302 236c0 107 -64 170 -243 236l-104 37c-235 86 -338 206 -338 388c0 252 202 425 497 425c278 0 475 -160 476 -386c0 -13 -2 -32 -3 -40h-203c1 3 1 7 1 23c0 128 -113 222 -270 222
c-167 0 -283 -91 -283 -222c0 -105 63 -171 228 -231l112 -41c245 -90 343 -201 343 -379c0 -272 -204 -449 -519 -449c-298 0 -518 171 -518 402c0 22 1 36 3 46zM1053 1925l229 -316h-190l-136 198h-15l-207 -198h-209l339 316h189z" />
    <glyph glyph-name="Sacutedotaccent" unicode="&#x1e64;" 
d="M188 418h203c-1 -11 -2 -18 -2 -27c0 -140 132 -240 318 -240c178 0 302 98 302 236c0 107 -64 170 -243 236l-104 37c-235 86 -338 206 -338 388c0 252 202 425 497 425c278 0 475 -160 476 -386c0 -13 -2 -32 -3 -40h-203c1 3 1 7 1 23c0 128 -113 222 -270 222
c-167 0 -283 -91 -283 -222c0 -105 63 -171 228 -231l112 -41c245 -90 343 -201 343 -379c0 -272 -204 -449 -519 -449c-298 0 -518 171 -518 402c0 22 1 36 3 46zM946 1610l311 307h240l-337 -307h-214zM765 1671c-73 0 -135 63 -135 138c0 76 62 138 135 138
c74 0 136 -62 136 -138c0 -75 -62 -138 -136 -138z" />
    <glyph glyph-name="Sacute" unicode="&#x15a;" 
d="M188 418h203c-1 -11 -2 -18 -2 -27c0 -140 132 -240 318 -240c178 0 302 98 302 236c0 107 -64 170 -243 236l-104 37c-235 86 -338 206 -338 388c0 252 202 425 497 425c278 0 475 -160 476 -386c0 -13 -2 -32 -3 -40h-203c1 3 1 7 1 23c0 128 -113 222 -270 222
c-167 0 -283 -91 -283 -222c0 -105 63 -171 228 -231l112 -41c245 -90 343 -201 343 -379c0 -272 -204 -449 -519 -449c-298 0 -518 171 -518 402c0 22 1 36 3 46zM749 1610l312 307h239l-337 -307h-214z" />
    <glyph glyph-name="T" unicode="T" 
d="M737 0h-208l223 1258h-429l31 185h1066l-31 -185h-429z" />
    <glyph glyph-name="Tcircumflexbelow" unicode="&#x1e70;" 
d="M737 0h-208l223 1258h-429l31 185h1066l-31 -185h-429zM490 -164h226l211 -346h-206l-125 221h-16l-202 -221h-221z" />
    <glyph glyph-name="Tdotbelow" unicode="&#x1e6c;" 
d="M737 0h-208l223 1258h-429l31 185h1066l-31 -185h-429zM575 -458c-74 0 -136 63 -136 138s62 138 136 138c73 0 135 -63 135 -138s-62 -138 -135 -138z" />
    <glyph glyph-name="Tcommaaccent" unicode="&#x21a;" 
d="M737 0h-208l223 1258h-429l31 185h1066l-31 -185h-429zM572 -503h-182l136 359h205z" />
    <glyph glyph-name="Tdotaccent" unicode="&#x1e6a;" 
d="M737 0h-208l223 1258h-429l31 185h1066l-31 -185h-429zM946 1628c-74 0 -136 63 -136 138s62 138 136 138c73 0 135 -63 135 -138s-62 -138 -135 -138z" />
    <glyph glyph-name="Tcedilla" unicode="&#x162;" 
d="M583 -1l-54 1l223 1258h-429l31 185h1066l-31 -185h-429l-223 -1258l-38 -128c94 -13 150 -70 150 -153c0 -125 -103 -205 -261 -205c-49 0 -108 9 -155 25l20 115c30 -11 95 -20 133 -20c73 0 114 24 114 68c0 47 -43 71 -131 71h-41l18 100z" />
    <glyph glyph-name="Tlinebelow" unicode="&#x1e6e;" 
d="M737 0h-208l223 1258h-429l31 185h1066l-31 -185h-429zM900 -401h-678l27 151h677z" />
    <glyph glyph-name="Tcaron" unicode="&#x164;" 
d="M737 0h-208l223 1258h-429l31 185h1066l-31 -185h-429zM822 1606l-230 315h190l137 -197h14l207 197h210l-340 -315h-188z" />
    <glyph glyph-name="Tbar" unicode="&#x166;" 
d="M1389 1258h-429l-82 -464h293l-27 -159h-294l-113 -635h-208l113 635h-294l27 159h295l82 464h-429l31 185h1066z" />
    <glyph glyph-name="U" unicode="U" 
d="M218 555l157 888h208l-157 -889c-6 -36 -11 -77 -11 -102c0 -180 117 -291 286 -291c167 0 292 121 328 319l171 963h208l-176 -991c-55 -304 -254 -482 -537 -482c-292 0 -488 183 -488 464c0 37 4 75 11 121z" />
    <glyph glyph-name="Ugrave" unicode="&#xd9;" 
d="M814 1917l204 -307h-199l-230 307h225zM218 555l157 888h208l-157 -889c-6 -36 -11 -77 -11 -102c0 -180 117 -291 286 -291c167 0 292 121 328 319l171 963h208l-176 -991c-55 -304 -254 -482 -537 -482c-292 0 -488 183 -488 464c0 37 4 75 11 121z" />
    <glyph glyph-name="Udblgrave" unicode="&#x214;" 
d="M1007 1917l193 -307h-180l-213 307h200zM616 1917l194 -307h-181l-213 307h200zM218 555l157 888h208l-157 -889c-6 -36 -11 -77 -11 -102c0 -180 117 -291 286 -291c167 0 292 121 328 319l171 963h208l-176 -991c-55 -304 -254 -482 -537 -482
c-292 0 -488 183 -488 464c0 37 4 75 11 121z" />
    <glyph glyph-name="Uacute" unicode="&#xda;" 
d="M218 555l157 888h208l-157 -889c-6 -36 -11 -77 -11 -102c0 -180 117 -291 286 -291c167 0 292 121 328 319l171 963h208l-176 -991c-55 -304 -254 -482 -537 -482c-292 0 -488 183 -488 464c0 37 4 75 11 121zM774 1610l311 307h240l-337 -307h-214z" />
    <glyph glyph-name="Uhungarumlaut" unicode="&#x170;" 
d="M218 555l157 888h208l-157 -889c-6 -36 -11 -77 -11 -102c0 -180 117 -291 286 -291c167 0 292 121 328 319l171 963h208l-176 -991c-55 -304 -254 -482 -537 -482c-292 0 -488 183 -488 464c0 37 4 75 11 121zM999 1610l301 307h210l-320 -307h-191zM608 1610l301 307
h211l-320 -307h-192z" />
    <glyph glyph-name="Ucircumflex" unicode="&#xdb;" 
d="M218 555l157 888h208l-157 -889c-6 -36 -11 -77 -11 -102c0 -180 117 -291 286 -291c167 0 292 121 328 319l171 963h208l-176 -991c-55 -304 -254 -482 -537 -482c-292 0 -488 183 -488 464c0 37 4 75 11 121zM1077 1925l230 -316h-190l-137 198h-14l-208 -198h-209
l340 316h188z" />
    <glyph glyph-name="Ucaron" unicode="&#x1d3;" 
d="M218 555l157 888h208l-157 -889c-6 -36 -11 -77 -11 -102c0 -180 117 -291 286 -291c167 0 292 121 328 319l171 963h208l-176 -991c-55 -304 -254 -482 -537 -482c-292 0 -488 183 -488 464c0 37 4 75 11 121zM826 1606l-229 315h190l136 -197h15l207 197h209l-340 -315
h-188z" />
    <glyph glyph-name="Ucircumflexbelow" unicode="&#x1e76;" 
d="M218 555l157 888h208l-157 -889c-6 -36 -11 -77 -11 -102c0 -180 117 -291 286 -291c167 0 292 121 328 319l171 963h208l-176 -991c-55 -304 -254 -482 -537 -482c-292 0 -488 183 -488 464c0 37 4 75 11 121zM510 -164h226l211 -346h-206l-125 221h-16l-202 -221h-221z
" />
    <glyph glyph-name="Udieresis" unicode="&#xdc;" 
d="M218 555l157 888h208l-157 -889c-6 -36 -11 -77 -11 -102c0 -180 117 -291 286 -291c167 0 292 121 328 319l171 963h208l-176 -991c-55 -304 -254 -482 -537 -482c-292 0 -488 183 -488 464c0 37 4 75 11 121zM738 1643c-68 0 -126 59 -126 129s58 129 126 129
c67 0 126 -59 126 -129s-59 -129 -126 -129zM1159 1643c-68 0 -126 59 -126 129s58 129 126 129c67 0 126 -59 126 -129s-59 -129 -126 -129z" />
    <glyph glyph-name="Udieresisgrave" unicode="&#x1db;" 
d="M727 1565c-65 0 -117 54 -117 120c0 67 52 121 117 121s117 -54 117 -121c0 -66 -52 -120 -117 -120zM1135 1565c-64 0 -117 54 -117 120c0 67 53 121 117 121c65 0 117 -54 117 -121c0 -66 -52 -120 -117 -120zM894 2105l156 -229h-190l-186 229h220zM218 555l157 888
h208l-157 -889c-6 -36 -11 -77 -11 -102c0 -180 117 -291 286 -291c167 0 292 121 328 319l171 963h208l-176 -991c-55 -304 -254 -482 -537 -482c-292 0 -488 183 -488 464c0 37 4 75 11 121z" />
    <glyph glyph-name="Udieresisacute" unicode="&#x1d7;" 
d="M218 555l157 888h208l-157 -889c-6 -36 -11 -77 -11 -102c0 -180 117 -291 286 -291c167 0 292 121 328 319l171 963h208l-176 -991c-55 -304 -254 -482 -537 -482c-292 0 -488 183 -488 464c0 37 4 75 11 121zM818 1876l235 229h225l-265 -229h-195zM726 1565
c-65 0 -117 54 -117 120c0 67 52 121 117 121s117 -54 117 -121c0 -66 -52 -120 -117 -120zM1134 1565c-64 0 -117 54 -117 120c0 67 53 121 117 121c65 0 117 -54 117 -121c0 -66 -52 -120 -117 -120z" />
    <glyph glyph-name="Udieresismacron" unicode="&#x1d5;" 
d="M218 555l157 888h208l-157 -889c-6 -36 -11 -77 -11 -102c0 -180 117 -291 286 -291c167 0 292 121 328 319l171 963h208l-176 -991c-55 -304 -254 -482 -537 -482c-292 0 -488 183 -488 464c0 37 4 75 11 121zM1137 1805c64 0 117 -53 117 -120s-53 -120 -117 -120
c-65 0 -117 53 -117 120s52 120 117 120zM1321 2074l-23 -133h-683l23 133h683zM728 1805c65 0 117 -53 117 -120s-52 -120 -117 -120c-64 0 -117 53 -117 120s53 120 117 120z" />
    <glyph glyph-name="Udieresiscaron" unicode="&#x1d9;" 
d="M218 555l157 888h208l-157 -889c-6 -36 -11 -77 -11 -102c0 -180 117 -291 286 -291c167 0 292 121 328 319l171 963h208l-176 -991c-55 -304 -254 -482 -537 -482c-292 0 -488 183 -488 464c0 37 4 75 11 121zM1041 1866h-197l-236 261h200l137 -158h15l191 158h214z
M727 1565c-65 0 -117 54 -117 120c0 67 52 121 117 121s117 -54 117 -121c0 -66 -52 -120 -117 -120zM1135 1565c-65 0 -117 54 -117 120c0 67 52 121 117 121s117 -54 117 -121c0 -66 -52 -120 -117 -120z" />
    <glyph glyph-name="Udieresisbelow" unicode="&#x1e72;" 
d="M218 555l157 888h208l-157 -889c-6 -36 -11 -77 -11 -102c0 -180 117 -291 286 -291c167 0 292 121 328 319l171 963h208l-176 -991c-55 -304 -254 -482 -537 -482c-292 0 -488 183 -488 464c0 37 4 75 11 121zM384 -449c-67 0 -126 59 -126 129s59 129 126 129
c68 0 126 -59 126 -129s-58 -129 -126 -129zM805 -449c-68 0 -126 59 -126 129s58 129 126 129c67 0 126 -59 126 -129s-59 -129 -126 -129z" />
    <glyph glyph-name="Utildebelow" unicode="&#x1e74;" 
d="M218 555l157 888h208l-157 -889c-6 -36 -11 -77 -11 -102c0 -180 117 -291 286 -291c167 0 292 121 328 319l171 963h208l-176 -991c-55 -304 -254 -482 -537 -482c-292 0 -488 183 -488 464c0 37 4 75 11 121zM452 -311c-57 0 -85 -46 -90 -152h-153
c12 187 103 298 245 298c160 0 200 -156 286 -156c57 0 84 44 90 150h153c-12 -184 -105 -297 -245 -297c-160 0 -200 157 -286 157z" />
    <glyph glyph-name="Uhookabove" unicode="&#x1ee6;" 
d="M218 555l157 888h208l-157 -889c-6 -36 -11 -77 -11 -102c0 -180 117 -291 286 -291c167 0 292 121 328 319l171 963h208l-176 -991c-55 -304 -254 -482 -537 -482c-292 0 -488 183 -488 464c0 37 4 75 11 121zM771 1820l9 123c37 15 90 25 138 25
c126 0 210 -69 210 -177c0 -99 -74 -184 -190 -222l-63 92c68 22 110 67 110 109c0 44 -37 72 -100 72c-43 0 -88 -9 -114 -22z" />
    <glyph glyph-name="Ubreve" unicode="&#x16c;" 
d="M218 555l157 888h208l-157 -889c-6 -36 -11 -77 -11 -102c0 -180 117 -291 286 -291c167 0 292 121 328 319l171 963h208l-176 -991c-55 -304 -254 -482 -537 -482c-292 0 -488 183 -488 464c0 37 4 75 11 121zM928 1604c-207 0 -345 138 -316 316h151
c-13 -111 57 -185 174 -185c116 0 212 76 233 185h158c-34 -190 -194 -316 -400 -316z" />
    <glyph glyph-name="Uinvertedbreve" unicode="&#x216;" 
d="M218 555l157 888h208l-157 -889c-6 -36 -11 -77 -11 -102c0 -180 117 -291 286 -291c167 0 292 121 328 319l171 963h208l-176 -991c-55 -304 -254 -482 -537 -482c-292 0 -488 183 -488 464c0 37 4 75 11 121zM964 1920c207 0 345 -137 316 -316h-151
c13 112 -57 185 -175 185c-115 0 -211 -75 -232 -185h-158c34 190 194 316 400 316z" />
    <glyph glyph-name="Utildeacute" unicode="&#x1e78;" 
d="M218 555l157 888h208l-157 -889c-6 -36 -11 -77 -11 -102c0 -180 117 -291 286 -291c167 0 292 121 328 319l171 963h208l-176 -991c-55 -304 -254 -482 -537 -482c-292 0 -488 183 -488 464c0 37 4 75 11 121zM830 1905l138 224h200l-163 -224h-175zM770 1693
c-53 0 -86 -41 -93 -120h-139c11 150 102 248 231 248c166 0 177 -133 274 -133c52 0 85 41 94 117h137c-10 -143 -102 -246 -231 -246c-165 0 -176 134 -273 134z" />
    <glyph glyph-name="Udotbelow" unicode="&#x1ee4;" 
d="M218 555l157 888h208l-157 -889c-6 -36 -11 -77 -11 -102c0 -180 117 -291 286 -291c167 0 292 121 328 319l171 963h208l-176 -991c-55 -304 -254 -482 -537 -482c-292 0 -488 183 -488 464c0 37 4 75 11 121zM595 -458c-74 0 -136 63 -136 138s62 138 136 138
c73 0 135 -63 135 -138s-62 -138 -135 -138z" />
    <glyph glyph-name="Utilde" unicode="&#x168;" 
d="M218 555l157 888h208l-157 -889c-6 -36 -11 -77 -11 -102c0 -180 117 -291 286 -291c167 0 292 121 328 319l171 963h208l-176 -991c-55 -304 -254 -482 -537 -482c-292 0 -488 183 -488 464c0 37 4 75 11 121zM788 1766c-56 0 -90 -49 -98 -144h-138
c11 171 100 279 233 279c161 0 194 -157 282 -157c54 0 89 50 97 142h138c-10 -163 -101 -276 -232 -276c-156 0 -185 156 -282 156z" />
    <glyph glyph-name="Umacron" unicode="&#x16a;" 
d="M218 555l157 888h208l-157 -889c-6 -36 -11 -77 -11 -102c0 -180 117 -291 286 -291c167 0 292 121 328 319l171 963h208l-176 -991c-55 -304 -254 -482 -537 -482c-292 0 -488 183 -488 464c0 37 4 75 11 121zM1259 1685h-677l26 151h678z" />
    <glyph glyph-name="Umacrondieresis" unicode="&#x1e7a;" 
d="M218 555l157 888h208l-157 -889c-6 -36 -11 -77 -11 -102c0 -180 117 -291 286 -291c167 0 292 121 328 319l171 963h208l-176 -991c-55 -304 -254 -482 -537 -482c-292 0 -488 183 -488 464c0 37 4 75 11 121zM756 1882c-65 0 -118 53 -118 120s53 120 118 120
c64 0 117 -53 117 -120s-53 -120 -117 -120zM571 1613l23 133h683l-23 -133h-683zM1164 1882c-65 0 -117 53 -117 120s52 120 117 120s117 -53 117 -120s-52 -120 -117 -120z" />
    <glyph glyph-name="Uring" unicode="&#x16e;" 
d="M218 555l157 888h208l-157 -889c-6 -36 -11 -77 -11 -102c0 -180 117 -291 286 -291c167 0 292 121 328 319l171 963h208l-176 -991c-55 -304 -254 -482 -537 -482c-292 0 -488 183 -488 464c0 37 4 75 11 121zM920 1557c-111 0 -196 84 -196 194c0 108 85 192 196 192
c110 0 195 -84 195 -192c0 -110 -85 -194 -195 -194zM920 1650c58 0 100 43 100 100s-43 99 -100 99s-101 -42 -101 -99c0 -58 44 -100 101 -100z" />
    <glyph glyph-name="Uogonek" unicode="&#x172;" 
d="M878 -431c-137 0 -238 80 -238 190c0 86 49 158 146 222l2 14c-25 -13 -61 -21 -96 -21c-291 -4 -485 180 -485 460c0 50 3 85 11 121l157 888h208l-157 -889c-6 -29 -11 -70 -11 -102c0 -175 113 -291 286 -291c166 0 293 123 328 319l172 963h206l-175 -991
c-32 -176 -101 -300 -216 -389c-154 -122 -197 -178 -197 -256c0 -59 49 -98 124 -98c27 0 54 2 65 5l-23 -131c-30 -10 -61 -14 -107 -14z" />
    <glyph glyph-name="Uhorn" unicode="&#x1af;" 
d="M687 -30c-289 0 -478 181 -478 456c0 36 3 72 11 119l158 898h208l-159 -902c-7 -35 -11 -75 -11 -98c0 -171 110 -282 277 -282c161 0 284 117 319 307l172 975h176c76 0 124 45 139 131l21 126h168l-25 -151c-30 -166 -119 -251 -265 -251h-31l-151 -855
c-53 -297 -250 -473 -529 -473z" />
    <glyph glyph-name="Uhorngrave" unicode="&#x1eea;" 
d="M1367 1298l-151 -855c-53 -297 -250 -473 -529 -473c-289 0 -478 181 -478 456c0 36 3 72 11 119l158 898h208l-159 -902c-7 -35 -11 -75 -11 -98c0 -171 110 -282 277 -282c161 0 284 117 319 307l172 975h176c76 0 124 45 139 131l21 126h168l-25 -151
c-30 -166 -119 -251 -265 -251h-31zM851 1917l205 -307h-199l-230 307h224z" />
    <glyph glyph-name="Uhornacute" unicode="&#x1ee8;" 
d="M687 -30c-289 0 -478 181 -478 456c0 36 3 72 11 119l158 898h208l-159 -902c-7 -35 -11 -75 -11 -98c0 -171 110 -282 277 -282c161 0 284 117 319 307l172 975h176c76 0 124 45 139 131l21 126h168l-25 -151c-30 -166 -119 -251 -265 -251h-31l-151 -855
c-53 -297 -250 -473 -529 -473zM741 1610l312 307h239l-336 -307h-215z" />
    <glyph glyph-name="Uhorndotbelow" unicode="&#x1ef0;" 
d="M574 -458c-73 0 -135 63 -135 138s62 138 135 138c74 0 136 -63 136 -138s-62 -138 -136 -138zM687 -30c-289 0 -478 181 -478 456c0 36 3 72 11 119l158 898h208l-159 -902c-7 -35 -11 -75 -11 -98c0 -171 110 -282 277 -282c161 0 284 117 319 307l172 975h176
c76 0 124 45 139 131l21 126h168l-25 -151c-30 -166 -119 -251 -265 -251h-31l-151 -855c-53 -297 -250 -473 -529 -473z" />
    <glyph glyph-name="Uhornhookabove" unicode="&#x1eec;" 
d="M772 1820l9 123c38 15 90 25 138 25c126 0 210 -69 210 -177c0 -99 -74 -184 -190 -222l-63 92c69 22 111 67 111 109c0 44 -38 72 -100 72c-44 0 -89 -9 -115 -22zM687 -30c-289 0 -478 181 -478 456c0 36 3 72 11 119l158 898h208l-159 -902c-7 -35 -11 -75 -11 -98
c0 -171 110 -282 277 -282c161 0 284 117 319 307l172 975h176c76 0 124 45 139 131l21 126h168l-25 -151c-30 -166 -119 -251 -265 -251h-31l-151 -855c-53 -297 -250 -473 -529 -473z" />
    <glyph glyph-name="Uhorntilde" unicode="&#x1eee;" 
d="M687 -30c-289 0 -478 181 -478 456c0 36 3 72 11 119l158 898h208l-159 -902c-7 -35 -11 -75 -11 -98c0 -171 110 -282 277 -282c161 0 284 117 319 307l172 975h176c76 0 124 45 139 131l21 126h168l-25 -151c-30 -166 -119 -251 -265 -251h-31l-151 -855
c-53 -297 -250 -473 -529 -473zM786 1766c-56 0 -90 -49 -98 -144h-138c11 171 101 279 233 279c161 0 194 -157 282 -157c54 0 89 50 97 142h138c-10 -163 -101 -276 -232 -276c-156 0 -185 156 -282 156z" />
    <glyph glyph-name="V" unicode="V" 
d="M673 231l575 1212h217l-716 -1443h-232l-208 1443h214l143 -1212h7z" />
    <glyph glyph-name="Vtilde" unicode="&#x1e7c;" 
d="M673 231l575 1212h217l-716 -1443h-232l-208 1443h214l143 -1212h7zM783 1766c-56 0 -90 -49 -98 -144h-138c11 171 100 279 233 279c161 0 194 -157 282 -157c54 0 89 50 97 142h138c-10 -163 -101 -276 -232 -276c-156 0 -185 156 -282 156z" />
    <glyph glyph-name="Vdotbelow" unicode="&#x1e7e;" 
d="M673 231l575 1212h217l-716 -1443h-232l-208 1443h214l143 -1212h7zM576 -458c-73 0 -135 63 -135 138s62 138 135 138c74 0 136 -63 136 -138s-62 -138 -136 -138z" />
    <glyph glyph-name="W" unicode="W" 
d="M800 883h-12l-348 -883h-200l15 1443h185l-13 -551l-20 -611h12l326 832h173l34 -832h12l180 595l182 567h194l-488 -1443h-198z" />
    <glyph glyph-name="Wgrave" unicode="&#x1e80;" 
d="M789 1917l204 -307h-199l-230 307h225zM800 883h-12l-348 -883h-200l15 1443h185l-13 -551l-20 -611h12l326 832h173l34 -832h12l180 595l182 567h194l-488 -1443h-198z" />
    <glyph glyph-name="Wacute" unicode="&#x1e82;" 
d="M800 883h-12l-348 -883h-200l15 1443h185l-13 -551l-20 -611h12l326 832h173l34 -832h12l180 595l182 567h194l-488 -1443h-198zM769 1610l312 307h239l-337 -307h-214z" />
    <glyph glyph-name="Wdotaccent" unicode="&#x1e86;" 
d="M800 883h-12l-348 -883h-200l15 1443h185l-13 -551l-20 -611h12l326 832h173l34 -832h12l180 595l182 567h194l-488 -1443h-198zM946 1628c-74 0 -136 63 -136 138s62 138 136 138c73 0 135 -63 135 -138s-62 -138 -135 -138z" />
    <glyph glyph-name="Wdotbelow" unicode="&#x1e88;" 
d="M800 883h-12l-348 -883h-200l15 1443h185l-13 -551l-20 -611h12l326 832h173l34 -832h12l180 595l182 567h194l-488 -1443h-198zM576 -458c-73 0 -135 63 -135 138s62 138 135 138c74 0 136 -63 136 -138s-62 -138 -136 -138z" />
    <glyph glyph-name="Wdieresis" unicode="&#x1e84;" 
d="M800 883h-12l-348 -883h-200l15 1443h185l-13 -551l-20 -611h12l326 832h173l34 -832h12l180 595l182 567h194l-488 -1443h-198zM733 1643c-67 0 -125 59 -125 129s58 129 125 129c68 0 126 -59 126 -129s-58 -129 -126 -129zM1154 1643c-67 0 -126 59 -126 129
s59 129 126 129c68 0 126 -59 126 -129s-58 -129 -126 -129z" />
    <glyph glyph-name="Wcircumflex" unicode="&#x174;" 
d="M800 883h-12l-348 -883h-200l15 1443h185l-13 -551l-20 -611h12l326 832h173l34 -832h12l180 595l182 567h194l-488 -1443h-198zM1073 1925l229 -316h-190l-136 198h-15l-207 -198h-209l339 316h189z" />
    <glyph glyph-name="X" unicode="X" 
d="M48 0l578 727l-326 716h222l250 -566h10l450 566h236l-592 -724l338 -719h-219l-261 560h-11l-446 -560h-229z" />
    <glyph glyph-name="Xdotaccent" unicode="&#x1e8a;" 
d="M48 0l578 727l-326 716h222l250 -566h10l450 566h236l-592 -724l338 -719h-219l-261 560h-11l-446 -560h-229zM939 1628c-73 0 -135 63 -135 138s62 138 135 138c74 0 136 -63 136 -138s-62 -138 -136 -138z" />
    <glyph glyph-name="Xdieresis" unicode="&#x1e8c;" 
d="M48 0l578 727l-326 716h222l250 -566h10l450 566h236l-592 -724l338 -719h-219l-261 560h-11l-446 -560h-229zM727 1643c-68 0 -126 59 -126 129s58 129 126 129c67 0 126 -59 126 -129s-59 -129 -126 -129zM1147 1643c-67 0 -126 59 -126 129s59 129 126 129
c68 0 126 -59 126 -129s-58 -129 -126 -129z" />
    <glyph glyph-name="Y" unicode="Y" 
d="M737 0h-207l103 580l-340 863h218l246 -650h14l467 650h237l-635 -862z" />
    <glyph glyph-name="Ygrave" unicode="&#x1ef2;" 
d="M776 1917l205 -307h-199l-230 307h224zM737 0h-207l103 580l-340 863h218l246 -650h14l467 650h237l-635 -862z" />
    <glyph glyph-name="Yacute" unicode="&#xdd;" 
d="M737 0h-207l103 580l-340 863h218l246 -650h14l467 650h237l-635 -862zM757 1610l311 307h240l-337 -307h-214z" />
    <glyph glyph-name="Ydotaccent" unicode="&#x1e8e;" 
d="M737 0h-207l103 580l-340 863h218l246 -650h14l467 650h237l-635 -862zM934 1628c-74 0 -136 63 -136 138s62 138 136 138c73 0 135 -63 135 -138s-62 -138 -135 -138z" />
    <glyph glyph-name="Ydotbelow" unicode="&#x1ef4;" 
d="M737 0h-207l103 580l-340 863h218l246 -650h14l467 650h237l-635 -862zM575 -458c-74 0 -136 63 -136 138s62 138 136 138c73 0 135 -63 135 -138s-62 -138 -135 -138z" />
    <glyph glyph-name="Ydieresis" unicode="&#x178;" 
d="M737 0h-207l103 580l-340 863h218l246 -650h14l467 650h237l-635 -862zM721 1643c-68 0 -126 59 -126 129s58 129 126 129s126 -59 126 -129s-58 -129 -126 -129zM1142 1643c-68 0 -126 59 -126 129s58 129 126 129c67 0 126 -59 126 -129s-59 -129 -126 -129z" />
    <glyph glyph-name="Ytilde" unicode="&#x1ef8;" 
d="M737 0h-207l103 580l-340 863h218l246 -650h14l467 650h237l-635 -862zM771 1766c-56 0 -90 -49 -98 -144h-138c11 171 100 279 233 279c161 0 194 -157 282 -157c54 0 89 50 97 142h138c-10 -163 -101 -276 -232 -276c-156 0 -185 156 -282 156z" />
    <glyph glyph-name="Ycircumflex" unicode="&#x176;" 
d="M737 0h-207l103 580l-340 863h218l246 -650h14l467 650h237l-635 -862zM1060 1925l230 -316h-190l-137 198h-14l-208 -198h-209l340 316h188z" />
    <glyph glyph-name="Ymacron" unicode="&#x232;" 
d="M737 0h-207l103 580l-340 863h218l246 -650h14l467 650h237l-635 -862zM1255 1685h-677l26 151h677z" />
    <glyph glyph-name="Yhookabove" unicode="&#x1ef6;" 
d="M737 0h-207l103 580l-340 863h218l246 -650h14l467 650h237l-635 -862zM754 1820l9 123c38 15 90 25 138 25c126 0 210 -69 210 -177c0 -99 -74 -184 -190 -222l-63 92c69 22 110 67 110 109c0 44 -37 72 -100 72c-43 0 -88 -9 -114 -22z" />
    <glyph glyph-name="Z" unicode="Z" 
d="M136 0l25 153l923 1092l1 13h-703l31 185h965l-26 -156l-923 -1089l-2 -13h744l-31 -185h-1004z" />
    <glyph glyph-name="Zacute" unicode="&#x179;" 
d="M136 0l25 153l923 1092l1 13h-703l31 185h965l-26 -156l-923 -1089l-2 -13h744l-31 -185h-1004zM768 1610l312 307h239l-337 -307h-214z" />
    <glyph glyph-name="Zcaron" unicode="&#x17d;" 
d="M136 0l25 153l923 1092l1 13h-703l31 185h965l-26 -156l-923 -1089l-2 -13h744l-31 -185h-1004zM821 1606l-230 315h190l137 -197h14l207 197h210l-340 -315h-188z" />
    <glyph glyph-name="Zcircumflex" unicode="&#x1e90;" 
d="M136 0l25 153l923 1092l1 13h-703l31 185h965l-26 -156l-923 -1089l-2 -13h744l-31 -185h-1004zM1072 1925l229 -316h-190l-136 198h-15l-207 -198h-210l340 316h189z" />
    <glyph glyph-name="Zlinebelow" unicode="&#x1e94;" 
d="M136 0l25 153l923 1092l1 13h-703l31 185h965l-26 -156l-923 -1089l-2 -13h744l-31 -185h-1004zM901 -401h-677l26 151h677z" />
    <glyph glyph-name="Zdotbelow" unicode="&#x1e92;" 
d="M136 0l25 153l923 1092l1 13h-703l31 185h965l-26 -156l-923 -1089l-2 -13h744l-31 -185h-1004zM576 -458c-73 0 -135 63 -135 138s62 138 135 138c74 0 136 -63 136 -138s-62 -138 -136 -138z" />
    <glyph glyph-name="Zdotaccent" unicode="&#x17b;" 
d="M136 0l25 153l923 1092l1 13h-703l31 185h965l-26 -156l-923 -1089l-2 -13h744l-31 -185h-1004zM945 1628c-74 0 -136 63 -136 138s62 138 136 138c73 0 135 -63 135 -138s-62 -138 -135 -138z" />
    <glyph glyph-name="AE" unicode="&#xc6;" 
d="M738 589l117 659h-91l-290 -659h264zM1461 1259h-416l-80 -444h379l-30 -176h-379l-82 -454h416l-32 -185h-604l73 413h-309l-182 -413h-212l661 1443h827z" />
    <glyph glyph-name="AEmacron" unicode="&#x1e2;" 
d="M1481 1836l-26 -151h-677l26 151h677zM738 589l117 659h-91l-290 -659h264zM1461 1259h-416l-80 -444h379l-30 -176h-379l-82 -454h416l-32 -185h-604l73 413h-309l-182 -413h-212l661 1443h827z" />
    <glyph glyph-name="AEacute" unicode="&#x1fc;" 
d="M1508 1917l-337 -307h-214l311 307h240zM855 1248h-91l-290 -659h264zM3 0l661 1443h827l-30 -184h-416l-80 -444h379l-30 -176h-379l-82 -454h416l-32 -185h-604l73 413h-309l-182 -413h-212z" />
    <glyph glyph-name="OE" unicode="&#x152;" 
d="M385 886l-38 -214c-13 -78 -20 -161 -20 -232c0 -153 67 -248 174 -248c136 0 225 118 269 356l41 229c14 70 19 126 19 204c0 180 -62 271 -184 271c-131 0 -217 -121 -261 -366zM713 179c-66 -149 -151 -212 -286 -212c-189 0 -303 154 -303 410c0 104 7 188 26 303
l43 251c62 365 206 546 431 546c157 0 253 -98 270 -268h9l41 234h566l-31 -190h-399l-77 -427h363l-31 -184h-363l-83 -453h399l-32 -189h-566l31 179h-8z" />
    <glyph glyph-name="Eth" unicode="&#xd0;" 
d="M388 185h184c288 0 453 150 506 451c1 7 20 109 20 119c5 37 8 83 8 128c0 249 -121 377 -356 377h-169l-78 -437h252l-30 -177h-254zM402 1443h386c341 0 533 -195 533 -544c0 -50 -3 -101 -8 -142c-1 -12 -21 -126 -23 -137c-72 -413 -305 -620 -701 -620h-441l114 646
h-130l30 177h131z" />
    <glyph glyph-name="Thorn" unicode="&#xde;" 
d="M437 1443h215l-46 -257h286c259 0 410 -158 389 -409c-22 -286 -209 -451 -511 -451h-313l-58 -326h-216zM575 999l-86 -485h272c184 0 293 91 307 256c16 152 -64 229 -233 229h-260z" />
    <glyph glyph-name="Alphagreek" unicode="&#x391;" 
d="M544 567h383l-72 645h-7zM990 0l-44 398h-481l-188 -398h-216l710 1443h232l198 -1443h-211z" />
    <glyph glyph-name="Betagreek" unicode="&#x392;" 
d="M606 1273l-80 -445h252c177 0 299 101 300 248c0 128 -83 197 -241 197h-231zM409 172h289c207 0 341 105 341 269c0 144 -102 224 -290 224h-251zM175 0l254 1443h458c256 0 409 -125 408 -331c-2 -177 -124 -320 -303 -355l-2 -13c160 -29 263 -156 263 -324
c-2 -255 -210 -420 -532 -420h-546z" />
    <glyph glyph-name="Gammagreek" unicode="&#x393;" 
d="M254 0l254 1443h869l-31 -185h-660l-223 -1258h-209z" />
    <glyph glyph-name="Deltagreek" unicode="&#x394;" 
d="M83 0l22 132l666 1311h232l198 -1311l-23 -132h-1095zM343 185h645l3 14l-136 1017h-7l-502 -1017z" />
    <glyph glyph-name="Deltagreek" unicode="&#x2206;" 
d="M83 0l22 132l666 1311h232l198 -1311l-23 -132h-1095zM343 185h645l3 14l-136 1017h-7l-502 -1017z" />
    <glyph glyph-name="Epsilongreek" unicode="&#x395;" 
d="M1121 185l-32 -185h-868l254 1443h868l-30 -185h-660l-79 -437h623l-30 -174h-622l-84 -462h660z" />
    <glyph glyph-name="Zetagreek" unicode="&#x396;" 
d="M136 0l25 153l923 1092l1 13h-703l31 185h965l-26 -156l-923 -1089l-2 -13h744l-31 -185h-1004z" />
    <glyph glyph-name="Etagreek" unicode="&#x397;" 
d="M1123 0h-206l114 643h-568l-114 -643h-206l254 1443h206l-109 -615h569l108 615h206z" />
    <glyph glyph-name="Thetagreek" unicode="&#x398;" 
d="M514 631l30 181h461l-31 -181h-460zM1265 529c-64 -364 -265 -559 -575 -559c-291 0 -492 209 -492 512c0 94 4 155 15 208l41 228c62 352 271 555 569 555c300 0 499 -209 499 -522c0 -71 -4 -125 -15 -193zM702 160c196 0 321 141 367 407l41 229c8 45 14 106 14 152
c0 201 -116 335 -308 335c-198 0 -318 -134 -364 -395l-40 -222c-10 -60 -14 -107 -14 -165c0 -209 111 -341 304 -341z" />
    <glyph glyph-name="Iotagreek" unicode="&#x399;" 
d="M1031 0h-796l30 181h295l193 1081h-294l30 181h796l-30 -181h-294l-193 -1081h294z" />
    <glyph glyph-name="Kappagreek" unicode="&#x39a;" 
d="M850 801l396 -801h-233l-331 668l-196 -184l-86 -484h-201l254 1443h201l-126 -694h13l703 694h246z" />
    <glyph glyph-name="Lambdagreek" unicode="&#x39b;" 
d="M77 0l694 1443h232l181 -1443h-210l-120 1205h-7l-553 -1205h-217z" />
    <glyph glyph-name="Mugreek" unicode="&#x39c;" 
d="M373 533l-96 -533h-181l254 1443h221l151 -875h14l456 875h232l-254 -1443h-181l95 533l121 582h-16l-418 -776h-154l-144 776h-15z" />
    <glyph glyph-name="Nugreek" unicode="&#x39d;" 
d="M330 0h-185l254 1443h194l389 -1079h15l193 1079h185l-254 -1443h-192l-391 1082h-15z" />
    <glyph glyph-name="Xigreek" unicode="&#x39e;" 
d="M155 0l33 190h956l-33 -190h-956zM349 637l32 189h795l-32 -189h-795zM377 1253l32 190h956l-32 -190h-956z" />
    <glyph glyph-name="Omicrongreek" unicode="&#x39f;" 
d="M1265 529c-64 -364 -265 -559 -575 -559c-291 0 -492 209 -492 512c0 93 4 154 15 208l41 228c62 352 271 555 569 555c300 0 499 -209 499 -522c0 -69 -5 -130 -15 -193zM704 160c185 0 308 139 355 407l41 229c8 46 13 108 13 152c0 202 -118 335 -299 335
c-184 0 -306 -133 -352 -395l-40 -223c-10 -61 -14 -107 -14 -164c0 -210 113 -341 296 -341z" />
    <glyph glyph-name="Pigreek" unicode="&#x3a0;" 
d="M149 0l254 1443h968l-254 -1443h-206l223 1258h-557l-222 -1258h-206z" />
    <glyph glyph-name="Rhogreek" unicode="&#x3a1;" 
d="M437 1443h457c269 0 440 -156 440 -402c0 -329 -224 -539 -580 -539h-273l-89 -502h-209zM616 1265l-104 -586h244c230 0 370 132 370 347c0 152 -99 239 -271 239h-239z" />
    <glyph glyph-name="Sigmagreek" unicode="&#x3a3;" 
d="M136 0l25 149l477 579l-255 559l26 156h916l-31 -185h-666l-3 -14l238 -516l-6 -30l-420 -500l-2 -13h686l-31 -185h-954z" />
    <glyph glyph-name="Taugreek" unicode="&#x3a4;" 
d="M737 0h-208l223 1258h-429l31 185h1066l-31 -185h-429z" />
    <glyph glyph-name="Upsilongreek" unicode="&#x3a5;" 
d="M737 0h-207l103 580l-340 863h218l246 -650h14l467 650h237l-635 -862z" />
    <glyph glyph-name="Phigreek" unicode="&#x3a6;" 
d="M746 58l-26 -142h-188l25 146c-249 39 -387 227 -387 525c0 208 49 407 157 553c101 137 253 225 460 228l25 148h190l-26 -152c248 -39 387 -227 387 -525c0 -205 -49 -406 -157 -552c-101 -138 -254 -227 -460 -229zM347 581c0 -212 89 -327 242 -354l174 979
c-139 0 -236 -74 -302 -178c-85 -133 -114 -316 -114 -447zM1185 845c0 212 -88 327 -242 354l-174 -979c139 0 236 74 302 178c86 133 114 316 114 447z" />
    <glyph glyph-name="Chigreek" unicode="&#x3a7;" 
d="M48 0l578 727l-326 716h222l250 -566h10l450 566h236l-592 -724l338 -719h-219l-261 560h-11l-446 -560h-229z" />
    <glyph glyph-name="Psigreek" unicode="&#x3a8;" 
d="M533 0l56 321c-249 34 -368 154 -368 387c0 55 7 119 20 200l94 535h185l-95 -548c-14 -80 -20 -128 -20 -166c0 -146 67 -222 220 -240l169 954h186l-170 -962c198 2 293 105 341 375l103 587h185l-108 -616c-62 -356 -225 -506 -542 -516l-56 -311h-200z" />
    <glyph glyph-name="Omegagreek" unicode="&#x3a9;" 
d="M829 1473c327 0 502 -191 502 -522c0 -42 -2 -105 -12 -169c-2 -15 -18 -104 -21 -117c-46 -230 -151 -373 -330 -471l-3 -14h258l-31 -180h-470l36 215c150 51 265 195 312 390c15 24 37 118 42 151c13 77 15 117 15 165c0 230 -107 362 -314 362
c-184 0 -313 -129 -363 -353c-9 -22 -36 -163 -38 -194c-7 -44 -9 -84 -9 -125c1 -170 59 -318 171 -390l-38 -221h-448l31 180h256l3 14c-110 86 -175 249 -175 439c0 53 4 106 12 153c3 25 31 169 39 191c72 306 274 496 575 496z" />
    <glyph glyph-name="Omegagreek" unicode="&#x2126;" 
d="M829 1473c327 0 502 -191 502 -522c0 -42 -2 -105 -12 -169c-2 -15 -18 -104 -21 -117c-46 -230 -151 -373 -330 -471l-3 -14h258l-31 -180h-470l36 215c150 51 265 195 312 390c15 24 37 118 42 151c13 77 15 117 15 165c0 230 -107 362 -314 362
c-184 0 -313 -129 -363 -353c-9 -22 -36 -163 -38 -194c-7 -44 -9 -84 -9 -125c1 -170 59 -318 171 -390l-38 -221h-448l31 180h256l3 14c-110 86 -175 249 -175 439c0 53 4 106 12 153c3 25 31 169 39 191c72 306 274 496 575 496z" />
    <glyph glyph-name="Alphatonosgreek" unicode="&#x386;" 
d="M649 1443l-233 -354h-154l169 354h218zM643 567h300l-31 645h-8zM970 0l-19 398h-376l-161 -398h-206l622 1443h232l115 -1443h-207z" />
    <glyph glyph-name="Epsilontonosgreek" unicode="&#x388;" 
d="M1175 185l-32 -185h-672l254 1443h672l-30 -185h-470l-78 -437h432l-30 -174h-432l-84 -462h470zM215 1089l170 354h218l-234 -354h-154z" />
    <glyph glyph-name="Etatonosgreek" unicode="&#x389;" 
d="M1192 0h-191l115 650h-383l-115 -650h-192l254 1443h192l-110 -622h383l110 622h191zM202 1089l169 354h218l-233 -354h-154z" />
    <glyph glyph-name="Iotatonosgreek" unicode="&#x38a;" 
d="M1184 0h-716l30 181h264l193 1081h-263l30 181h716l-30 -181h-264l-193 -1081h264zM260 1089l169 354h218l-233 -354h-154z" />
    <glyph glyph-name="Iotatonosgreek.1" 
d="M890 0h-208l254 1443h208zM319 1089l169 354h218l-233 -354h-154z" />
    <glyph glyph-name="Iotadieresisgreek" unicode="&#x3aa;" 
d="M1031 0h-796l30 181h295l193 1081h-294l30 181h796l-30 -181h-294l-193 -1081h294zM733 1643c-67 0 -125 59 -125 129s58 129 125 129c68 0 126 -59 126 -129s-58 -129 -126 -129zM1154 1643c-67 0 -126 59 -126 129s59 129 126 129c68 0 126 -59 126 -129
s-58 -129 -126 -129z" />
    <glyph glyph-name="Omicrontonosgreek" unicode="&#x38c;" 
d="M614 455c0 -164 55 -295 206 -295c145 0 251 129 297 385l41 235c14 86 21 181 21 218c0 165 -64 285 -208 285c-134 0 -247 -125 -291 -370l-50 -279c-11 -66 -16 -123 -16 -179zM1312 543c-66 -382 -237 -573 -501 -573c-249 0 -383 175 -383 467c0 71 8 154 31 282
l33 191c65 374 239 563 500 563c254 0 383 -183 383 -464c0 -46 -7 -143 -21 -231zM220 1089l169 354h218l-233 -354h-154z" />
    <glyph glyph-name="Upsilontonosgreek" unicode="&#x38e;" 
d="M905 0h-195l103 580l-192 863h207l111 -648h14l332 648h223l-500 -863zM206 1089l169 354h218l-233 -354h-154z" />
    <glyph glyph-name="Upsilondieresisgreek" unicode="&#x3ab;" 
d="M737 0h-207l103 580l-340 863h218l246 -650h14l467 650h237l-635 -862zM721 1643c-68 0 -126 59 -126 129s58 129 126 129s126 -59 126 -129s-58 -129 -126 -129zM1142 1643c-68 0 -126 59 -126 129s58 129 126 129c67 0 126 -59 126 -129s-59 -129 -126 -129z" />
    <glyph glyph-name="Omegatonosgreek" unicode="&#x38f;" 
d="M947 1472c282 0 429 -169 429 -491c0 -45 -2 -113 -12 -174c-1 -13 -17 -102 -19 -116c-45 -253 -129 -401 -308 -511l-3 -13h231l-29 -167h-428l40 237c166 65 265 220 310 478c2 12 16 88 17 98c12 67 14 105 14 151c0 210 -82 320 -255 320
c-176 0 -276 -116 -325 -386c-3 -21 -27 -152 -28 -167c-9 -50 -12 -104 -12 -144c1 -151 53 -275 153 -342l-40 -245h-406l29 167h229l2 13c-98 85 -157 236 -157 406c0 47 4 96 11 144c2 16 27 153 29 172c67 375 248 570 528 570zM167 1089l169 354h218l-233 -354h-154z
" />
    <glyph glyph-name="Acyrillic" unicode="&#x410;" 
d="M544 567h383l-72 645h-7zM990 0l-44 398h-481l-188 -398h-216l710 1443h232l198 -1443h-211z" />
    <glyph glyph-name="uni04D0" unicode="&#x4d0;" 
d="M544 567h383l-72 645h-7zM771 1443h232l198 -1443h-211l-44 398h-481l-188 -398h-216zM1143 1930h161c-25 -191 -173 -320 -380 -320c-206 0 -340 147 -306 320h155c-14 -111 45 -193 165 -193c111 0 187 80 205 193z" />
    <glyph glyph-name="uni04D2" unicode="&#x4d2;" 
d="M733 1643c-67 0 -126 59 -126 129s59 129 126 129c68 0 126 -59 126 -129s-58 -129 -126 -129zM544 567h383l-72 645h-7zM771 1443h232l198 -1443h-211l-44 398h-481l-188 -398h-216zM1154 1901c67 0 126 -59 126 -129s-59 -129 -126 -129c-68 0 -126 59 -126 129
s58 129 126 129z" />
    <glyph glyph-name="uniF50E" 
d="M544 567h383l-72 645h-7zM771 1443h232l198 -1443h-211l-44 398h-481l-188 -398h-216zM616 1836h677l-26 -151h-677z" />
    <glyph glyph-name="uniF460" 
d="M1320 1917l-337 -307h-214l311 307h240zM544 567h383l-72 645h-7zM771 1443h232l198 -1443h-211l-44 398h-481l-188 -398h-216z" />
    <glyph glyph-name="uni041B.BUL" 
d="M852 1212l-575 -1212h-216l715 1443h232l208 -1443h-214l-142 1212h-8z" />
    <glyph glyph-name="Becyrillic" unicode="&#x411;" 
d="M697 0h-528l254 1443h869l-30 -185h-660l-70 -383h290c266 0 430 -153 430 -400c0 -279 -229 -475 -555 -475zM409 180h287c202 0 341 119 341 288c0 150 -96 233 -272 233h-263z" />
    <glyph glyph-name="Vecyrillic" unicode="&#x412;" 
d="M606 1273l-80 -445h252c177 0 299 101 300 248c0 128 -83 197 -241 197h-231zM409 172h289c207 0 341 105 341 269c0 144 -102 224 -290 224h-251zM175 0l254 1443h458c256 0 409 -125 408 -331c-2 -177 -124 -320 -303 -355l-2 -13c160 -29 263 -156 263 -324
c-2 -255 -210 -420 -532 -420h-546z" />
    <glyph glyph-name="Gecyrillic" unicode="&#x413;" 
d="M1466 1443l-76 -436h-189l44 251h-511l-190 -1073h259l-30 -185h-712l30 185h243l188 1073h-239l32 185h1151z" />
    <glyph glyph-name="Gjecyrillic" unicode="&#x403;" 
d="M1377 1917l-337 -307h-214l311 307h240zM1466 1443l-76 -436h-189l44 251h-511l-190 -1073h259l-30 -185h-712l30 185h243l188 1073h-239l32 185h1151z" />
    <glyph glyph-name="uni04F6" unicode="&#x4f6;" 
d="M1466 1443l-76 -436h-189l44 251h-511l-190 -1073h260l-18 -102l-13 -83h-1l-49 -286h-196l50 286h-516l30 185h243l188 1073h-239l32 185h1151z" />
    <glyph glyph-name="Geupturncyrillic" unicode="&#x490;" 
d="M1515 1720l-75 -432h-1l-49 -281h-189l44 251h-511l-190 -1073h259l-30 -185h-712l30 185h243l188 1073h-239l32 185h962l49 277h189z" />
    <glyph glyph-name="uni0492" unicode="&#x492;" 
d="M1466 1443l-76 -436h-189l44 251h-511l-78 -440h337l-29 -169h-338l-82 -464h259l-30 -185h-712l30 185h243l81 464h-242l29 169h243l77 440h-239l32 185h1151z" />
    <glyph glyph-name="uniF53C" 
d="M451 0h-209l254 1443h870l-31 -185h-660l-85 -466h603l-30 -179h-603z" />
    <glyph glyph-name="uni04FA" unicode="&#x4fa;" 
d="M1467 1443l-76 -436h-190l44 251h-511l-78 -440h337l-29 -169h-337l-115 -649c-45 -260 -184 -337 -385 -337c-53 0 -94 3 -118 6l30 174c16 -2 48 -3 86 -3c106 0 158 58 177 160l31 178l83 471h-243l29 169h244l77 440h-239l31 185h1152z" />
    <glyph glyph-name="Decyrillic" unicode="&#x414;" 
d="M1068 0h-860l-50 -285h-190l81 470h87c88 52 145 161 200 394l202 864h813l-223 -1258h161l-81 -470h-190zM695 1259l-166 -703c-46 -196 -91 -303 -151 -353l-3 -18h546l192 1074h-418z" />
    <glyph glyph-name="uni0414.BUL" 
d="M839 1212l-468 -1027h578l-103 1027h-7zM1164 185h117l-82 -470h-197l51 285h-839l-51 -285h-198l82 470h120l604 1258h232z" />
    <glyph glyph-name="Iecyrillic" unicode="&#x415;" 
d="M1121 185l-32 -185h-868l254 1443h868l-30 -185h-660l-79 -437h623l-30 -174h-622l-84 -462h660z" />
    <glyph glyph-name="Iocyrillic" unicode="&#x401;" 
d="M1121 185l-32 -185h-868l254 1443h868l-30 -185h-660l-79 -437h623l-30 -174h-622l-84 -462h660zM749 1643c-67 0 -126 59 -126 129s59 129 126 129c68 0 126 -59 126 -129s-58 -129 -126 -129zM1170 1643c-67 0 -126 59 -126 129s59 129 126 129c68 0 126 -59 126 -129
s-58 -129 -126 -129z" />
    <glyph glyph-name="uni04D6" unicode="&#x4d6;" 
d="M1121 185l-32 -185h-868l254 1443h868l-30 -185h-660l-79 -437h623l-30 -174h-622l-84 -462h660zM937 1610c-205 0 -339 147 -305 320h155c-15 -111 45 -193 165 -193c111 0 187 80 204 193h162c-25 -191 -173 -320 -381 -320z" />
    <glyph glyph-name="uniF510" 
d="M1121 185l-32 -185h-868l254 1443h868l-30 -185h-660l-79 -437h623l-30 -174h-622l-84 -462h660zM1283 1685h-677l26 151h678z" />
    <glyph glyph-name="uniF512" 
d="M1121 185l-32 -185h-868l254 1443h868l-30 -185h-660l-79 -437h623l-30 -174h-622l-84 -462h660zM1147 1886c65 0 117 -54 117 -121s-52 -120 -117 -120s-117 53 -117 120s52 121 117 121zM613 2022l23 132h683l-23 -132h-683zM738 1886c65 0 117 -54 117 -121
s-52 -120 -117 -120c-64 0 -117 53 -117 120s53 121 117 121z" />
    <glyph glyph-name="uni0400" unicode="&#x400;" 
d="M805 1917l204 -307h-199l-230 307h225zM1121 185l-32 -185h-868l254 1443h868l-30 -185h-660l-79 -437h623l-30 -174h-622l-84 -462h660z" />
    <glyph glyph-name="uniF461" 
d="M1121 185l-32 -185h-868l254 1443h868l-30 -185h-660l-79 -437h623l-30 -174h-622l-84 -462h660zM785 1610l312 307h239l-337 -307h-214z" />
    <glyph glyph-name="uniF469" 
d="M1121 185l-32 -185h-868l254 1443h868l-30 -185h-660l-79 -437h623l-30 -174h-622l-84 -462h660zM611 1603c-66 0 -120 55 -120 123c0 67 54 123 120 123s120 -56 120 -123c0 -68 -54 -123 -120 -123zM1252 1603c-66 0 -120 55 -120 123c0 67 54 123 120 123
s120 -56 120 -123c0 -68 -54 -123 -120 -123zM798 1591l95 351h206l-149 -351h-152z" />
    <glyph glyph-name="uniF514" 
d="M1121 185l-32 -185h-868l254 1443h868l-30 -185h-660l-79 -437h623l-30 -174h-622l-84 -462h660zM959 1930c206 0 339 -147 306 -319h-156c15 110 -45 192 -164 192c-112 0 -188 -80 -205 -192h-162c26 190 173 319 381 319zM990 1993c-206 0 -340 147 -306 320h155
c-14 -111 46 -193 165 -193c111 0 188 80 205 193h161c-25 -190 -172 -320 -380 -320z" />
    <glyph glyph-name="Zhecyrillic" unicode="&#x416;" 
d="M185 0h-202l483 739l-195 704h186l168 -636h62l112 636h177l-112 -636h53l391 636h197l-442 -716l220 -727h-190l-193 642h-64l-114 -642h-177l115 642h-54z" />
    <glyph glyph-name="uni04C1" unicode="&#x4c1;" 
d="M185 0h-202l483 739l-195 704h186l168 -636h62l112 636h177l-112 -636h53l391 636h197l-442 -716l220 -727h-190l-193 642h-64l-114 -642h-177l115 642h-54zM904 1610c-205 0 -339 147 -306 320h156c-15 -111 45 -193 165 -193c111 0 187 80 204 193h162
c-25 -191 -173 -320 -381 -320z" />
    <glyph glyph-name="uni04DC" unicode="&#x4dc;" 
d="M185 0h-202l483 739l-195 704h186l168 -636h62l112 636h177l-112 -636h53l391 636h197l-442 -716l220 -727h-190l-193 642h-64l-114 -642h-177l115 642h-54zM713 1643c-67 0 -126 59 -126 129s59 129 126 129c68 0 126 -59 126 -129s-58 -129 -126 -129zM1134 1643
c-68 0 -126 59 -126 129s58 129 126 129c67 0 126 -59 126 -129s-59 -129 -126 -129z" />
    <glyph glyph-name="uni0496" unicode="&#x496;" 
d="M1015 727l144 -547h137l-81 -466h-163l51 286h-78v2l-173 640h-53l-115 -642h-169l115 642h-45l-404 -642h-192l458 739l-176 704h177l151 -636h59l113 636h169l-113 -636h50l376 636h188z" />
    <glyph glyph-name="uni0416.BUL" 
d="M584 654l-414 -654h-187l518 809l-227 634h168l237 -680h10l122 680h163l-121 -680h10l481 680h173l-462 -646l229 -797h-180l-182 654l-117 -164l-87 -490h-163l86 490z" />
    <glyph glyph-name="Zecyrillic" unicode="&#x417;" 
d="M562 650l31 182h170c185 0 312 102 312 252c0 131 -101 213 -266 213c-143 0 -248 -68 -278 -180h-195c42 220 227 356 484 356c275 0 458 -145 458 -364c0 -186 -144 -344 -327 -363l-1 -14c163 -30 266 -151 266 -312c0 -268 -219 -450 -542 -450
c-285 0 -486 156 -486 378c0 9 1 48 2 54h198c-1 -2 -1 -13 -1 -20c0 -130 127 -230 292 -230c196 0 323 110 323 276c0 135 -109 222 -278 222h-162z" />
    <glyph glyph-name="uni04DE" unicode="&#x4de;" 
d="M562 650l31 182h170c185 0 312 102 312 252c0 131 -101 213 -266 213c-143 0 -248 -68 -278 -180h-195c42 220 227 356 484 356c275 0 458 -145 458 -364c0 -186 -144 -344 -327 -363l-1 -14c163 -30 266 -151 266 -312c0 -268 -219 -450 -542 -450
c-285 0 -486 156 -486 378c0 9 1 48 2 54h198c-1 -2 -1 -13 -1 -20c0 -130 127 -230 292 -230c196 0 323 110 323 276c0 135 -109 222 -278 222h-162zM718 1643c-68 0 -126 59 -126 129s58 129 126 129c67 0 126 -59 126 -129s-59 -129 -126 -129zM1139 1643
c-68 0 -126 59 -126 129s58 129 126 129c67 0 125 -59 125 -129s-58 -129 -125 -129z" />
    <glyph glyph-name="uni0498" unicode="&#x498;" 
d="M951 746l-1 -14c163 -30 266 -151 266 -312c0 -245 -184 -419 -463 -446l-45 -260h-196l46 265c-222 36 -370 178 -370 369c0 9 1 48 2 54h198c-1 -2 -1 -13 -1 -20c0 -130 127 -230 292 -230c196 0 323 110 323 276c0 135 -109 222 -278 222h-162l31 182h170
c185 0 312 102 312 252c0 131 -101 213 -266 213c-143 0 -248 -68 -278 -180h-195c42 220 227 356 484 356c275 0 458 -145 458 -364c0 -186 -144 -344 -327 -363z" />
    <glyph glyph-name="uniF50A" 
d="M951 746l-1 -14c163 -30 266 -151 266 -312c0 -256 -200 -433 -499 -449l-52 -99c114 -6 179 -62 179 -153c0 -124 -102 -205 -260 -205c-49 0 -109 9 -156 25l20 115c29 -11 94 -20 134 -20c72 0 114 24 114 68c0 47 -45 70 -133 70h-54l8 93l59 111
c-232 32 -388 176 -388 372c0 9 1 48 2 54h198c-1 -2 -1 -13 -1 -20c0 -130 127 -230 292 -230c196 0 323 110 323 276c0 135 -109 222 -278 222h-162l31 182h170c185 0 312 102 312 252c0 131 -101 213 -266 213c-143 0 -248 -68 -278 -180h-195c42 220 227 356 484 356
c275 0 458 -145 458 -364c0 -186 -144 -344 -327 -363z" />
    <glyph glyph-name="uniF516" 
d="M562 650l31 182h170c185 0 312 102 312 252c0 131 -101 213 -266 213c-143 0 -248 -68 -278 -180h-195c42 220 227 356 484 356c275 0 458 -145 458 -364c0 -186 -144 -344 -327 -363l-1 -14c163 -30 266 -151 266 -312c0 -268 -219 -450 -542 -450
c-285 0 -486 156 -486 378c0 9 1 48 2 54h198c-1 -2 -1 -13 -1 -20c0 -130 127 -230 292 -230c196 0 323 110 323 276c0 135 -109 222 -278 222h-162zM767 1606l-229 315h190l136 -197h15l207 197h209l-339 -315h-189z" />
    <glyph glyph-name="Iicyrillic" unicode="&#x418;" 
d="M398 1443h183l-192 -1078h15l785 1078h187l-254 -1443h-183l192 1076h-15l-785 -1076h-187z" />
    <glyph glyph-name="Iishortcyrillic" unicode="&#x419;" 
d="M1147 1930h162c-26 -191 -173 -320 -381 -320c-206 0 -339 147 -306 320h156c-15 -111 45 -193 164 -193c112 0 188 80 205 193zM398 1443h183l-192 -1078h15l785 1078h187l-254 -1443h-183l192 1076h-15l-785 -1076h-187z" />
    <glyph glyph-name="uni040D" unicode="&#x40d;" 
d="M796 1917l205 -307h-199l-230 307h224zM398 1443h183l-192 -1078h15l785 1078h187l-254 -1443h-183l192 1076h-15l-785 -1076h-187z" />
    <glyph glyph-name="uni04E2" unicode="&#x4e2;" 
d="M1262 1682h-677l26 151h677zM398 1443h183l-192 -1078h15l785 1078h187l-254 -1443h-183l192 1076h-15l-785 -1076h-187z" />
    <glyph glyph-name="uni04E4" unicode="&#x4e4;" 
d="M1151 1643c-67 0 -126 59 -126 129s59 129 126 129c68 0 126 -59 126 -129s-58 -129 -126 -129zM731 1643c-68 0 -126 59 -126 129s58 129 126 129c67 0 126 -59 126 -129s-59 -129 -126 -129zM398 1443h183l-192 -1078h15l785 1078h187l-254 -1443h-183l192 1076h-15
l-785 -1076h-187z" />
    <glyph glyph-name="uni048A" unicode="&#x48a;" 
d="M1134 1930h158c-24 -189 -171 -320 -376 -320c-210 0 -337 138 -304 320h157c-16 -114 47 -193 154 -193c108 0 193 77 211 193zM1358 1443l-221 -1252h161l-9 -52l-209 -425h-175l149 286h-130l20 111l13 80h1l160 885h-15l-782 -1076h-184l254 1443h180l-194 -1078h15
l780 1078h186z" />
    <glyph glyph-name="uniF462" 
d="M788 1610l311 307h240l-337 -307h-214zM398 1443h183l-192 -1078h15l785 1078h187l-254 -1443h-183l192 1076h-15l-785 -1076h-187z" />
    <glyph glyph-name="uniF532" 
d="M1147 1930h162c-26 -191 -173 -320 -381 -320c-206 0 -339 147 -306 320h156c-15 -111 45 -193 164 -193c112 0 188 80 205 193zM1189 1443h187l-254 -1443h-1c-45 -254 -166 -337 -352 -337c-53 0 -94 3 -118 6l30 174c16 -2 48 -3 86 -3c103 0 152 60 170 160l31 178h3
l160 898h-15l-785 -1076h-187l254 1443h183l-192 -1078h15z" />
    <glyph glyph-name="Kacyrillic" unicode="&#x41a;" 
d="M607 1443l-112 -634h41l661 634h248l-754 -717l533 -726h-247l-464 641h-46l-114 -641h-206l254 1443h206z" />
    <glyph glyph-name="Kjecyrillic" unicode="&#x40c;" 
d="M721 1610l312 307h239l-336 -307h-215zM607 1443l-112 -634h41l661 634h248l-754 -717l533 -726h-247l-464 641h-46l-114 -641h-206l254 1443h206z" />
    <glyph glyph-name="uni049A" unicode="&#x49a;" 
d="M688 726l390 -534h200l-82 -477h-188l51 285h-85l-464 641h-46l-114 -641h-203l254 1443h203l-112 -634h41l661 634h245z" />
    <glyph glyph-name="uni049C" unicode="&#x49c;" 
d="M401 1443h197l-254 -1443h-197zM1451 1443l-478 -688l258 -755h-220l-228 647h-13l-60 -338h-145l151 856h145l-59 -336h11l426 614h212z" />
    <glyph glyph-name="uni049E" unicode="&#x49e;" 
d="M1445 1443l-754 -717l533 -726h-247l-464 641h-46l-114 -641h-206l205 1163h-159l29 172h160l19 108h206l-19 -108h229l-29 -172h-230l-63 -354h41l661 634h248z" />
    <glyph glyph-name="uni04A0" unicode="&#x4a0;" 
d="M1454 1443l-565 -718l341 -725h-217l-307 641h-41l-114 -641h-191l222 1258h-373l31 185h565l-112 -634h41l502 634h218z" />
    <glyph glyph-name="uni04C3" unicode="&#x4c3;" 
d="M1443 1443l-688 -657c257 -50 416 -219 416 -484c0 -347 -220 -659 -607 -659c-36 0 -71 4 -91 10l31 184c21 -3 46 -5 75 -5c248 0 380 233 380 461c0 221 -159 349 -426 349h-67l-113 -642h-206l254 1443h206l-111 -621h51l648 621h248z" />
    <glyph glyph-name="uni041A.BUL" 
d="M850 801l396 -801h-233l-331 668l-196 -184l-86 -484h-201l254 1443h201l-126 -694h13l703 694h246z" />
    <glyph glyph-name="Elcyrillic" unicode="&#x41b;" 
d="M1389 1443l-254 -1443h-206l223 1258h-459l-97 -431c-175 -706 -240 -840 -487 -840c-28 0 -80 8 -97 14l35 198c19 -6 43 -10 62 -10c114 0 140 65 291 650l138 604h851z" />
    <glyph glyph-name="uni04C5" unicode="&#x4c5;" 
d="M1371 1443l-220 -1252h153l-9 -52l-212 -425h-188l151 286h-124l32 191h2l188 1067h-448l-166 -721c-82 -370 -200 -550 -432 -550c-27 0 -64 6 -86 14l33 192c12 -4 34 -7 54 -7c116 0 188 105 247 360l203 897h822z" />
    <glyph glyph-name="uniF530" 
d="M1374 1443l-220 -1252h151l-82 -477h-186l51 286h-167l31 191h3l188 1067h-450l-166 -721c-82 -370 -197 -550 -429 -550c-27 0 -64 6 -86 14l33 192c12 -4 34 -7 54 -7c116 0 182 105 241 360l203 897h831z" />
    <glyph glyph-name="uni052E" unicode="&#x52e;" 
d="M1374 1443l-220 -1252h151l-82 -477h-186l51 286h-167l31 191h3l188 1067h-450l-166 -721c-82 -370 -197 -550 -429 -550c-27 0 -64 6 -86 14l33 192c12 -4 34 -7 54 -7c116 0 182 105 241 360l203 897h831z" />
    <glyph glyph-name="uni0512" unicode="&#x512;" 
d="M538 1443h851l-254 -1443c-46 -262 -188 -337 -377 -337c-52 0 -94 3 -117 6l30 174c15 -2 47 -3 85 -3c105 0 155 60 173 160l31 178h1l191 1080h-459l-97 -431c-175 -706 -240 -840 -487 -840c-28 0 -80 8 -97 14l35 198c19 -6 43 -10 62 -10c114 0 140 65 291 650z
" />
    <glyph glyph-name="Emcyrillic" unicode="&#x41c;" 
d="M373 533l-96 -533h-181l254 1443h221l151 -875h14l456 875h232l-254 -1443h-181l95 533l121 582h-16l-418 -776h-154l-144 776h-15z" />
    <glyph glyph-name="uni04CD" unicode="&#x4cd;" 
d="M1377 1443l-220 -1252h145l-9 -52l-210 -425h-176l149 286h-115l33 183l1 8l61 342l120 582h-15l-394 -776h-154l-120 776h-16l-85 -582l-95 -533h-181l254 1443h224l128 -875h14l437 875h224z" />
    <glyph glyph-name="Encyrillic" unicode="&#x41d;" 
d="M1123 0h-206l114 643h-568l-114 -643h-206l254 1443h206l-109 -615h569l108 615h206z" />
    <glyph glyph-name="uni04C7" unicode="&#x4c7;" 
d="M1171 1443h206l-254 -1443c-46 -263 -179 -337 -376 -337c-53 0 -94 3 -118 6l30 174c16 -2 48 -3 85 -3c104 0 155 56 173 160l31 178h1l82 465h-568l-114 -643h-206l254 1443h206l-109 -615h569z" />
    <glyph glyph-name="uni04A2" unicode="&#x4a2;" 
d="M1366 1443l-220 -1252h153l-83 -477h-196l51 286h-163l32 191h2l80 452h-563l-114 -643h-202l254 1443h202l-109 -615h563l109 615h204z" />
    <glyph glyph-name="uni04C9" unicode="&#x4c9;" 
d="M1376 1443l-220 -1252h137l-9 -52l-209 -425h-181l147 286h-123l32 191h2l79 452h-570l-114 -643h-204l254 1443h204l-109 -615h571l109 615h204z" />
    <glyph glyph-name="uni04A4" unicode="&#x4a4;" 
d="M1519 1443l-31 -184h-416l-222 -1259h-194l114 643h-389l-113 -643h-194l254 1443h194l-109 -615h388l109 615h609z" />
    <glyph glyph-name="Ocyrillic" unicode="&#x41e;" 
d="M1265 529c-64 -364 -265 -559 -575 -559c-291 0 -492 209 -492 512c0 93 4 154 15 208l41 228c62 352 271 555 569 555c300 0 499 -209 499 -522c0 -69 -5 -130 -15 -193zM704 160c185 0 308 139 355 407l41 229c8 46 13 108 13 152c0 202 -118 335 -299 335
c-184 0 -306 -133 -352 -395l-40 -223c-10 -61 -14 -107 -14 -164c0 -210 113 -341 296 -341z" />
    <glyph glyph-name="uni04E6" unicode="&#x4e6;" 
d="M1265 529c-64 -364 -265 -559 -575 -559c-291 0 -492 209 -492 512c0 93 4 154 15 208l41 228c62 352 271 555 569 555c300 0 499 -209 499 -522c0 -69 -5 -130 -15 -193zM704 160c185 0 308 139 355 407l41 229c8 46 13 108 13 152c0 202 -118 335 -299 335
c-184 0 -306 -133 -352 -395l-40 -223c-10 -61 -14 -107 -14 -164c0 -210 113 -341 296 -341zM733 1643c-67 0 -126 59 -126 129s59 129 126 129c68 0 126 -59 126 -129s-58 -129 -126 -129zM1154 1643c-68 0 -126 59 -126 129s58 129 126 129c67 0 126 -59 126 -129
s-59 -129 -126 -129z" />
    <glyph glyph-name="uniF518" 
d="M1265 529c-64 -364 -265 -559 -575 -559c-291 0 -492 209 -492 512c0 93 4 154 15 208l41 228c62 352 271 555 569 555c300 0 499 -209 499 -522c0 -69 -5 -130 -15 -193zM704 160c185 0 308 139 355 407l41 229c8 46 13 108 13 152c0 202 -118 335 -299 335
c-184 0 -306 -133 -352 -395l-40 -223c-10 -61 -14 -107 -14 -164c0 -210 113 -341 296 -341zM1267 1685h-677l26 151h677z" />
    <glyph glyph-name="uniF463" 
d="M1265 529c-64 -364 -265 -559 -575 -559c-291 0 -492 209 -492 512c0 93 4 154 15 208l41 228c62 352 271 555 569 555c300 0 499 -209 499 -522c0 -69 -5 -130 -15 -193zM704 160c185 0 308 139 355 407l41 229c8 46 13 108 13 152c0 202 -118 335 -299 335
c-184 0 -306 -133 -352 -395l-40 -223c-10 -61 -14 -107 -14 -164c0 -210 113 -341 296 -341zM769 1610l311 307h240l-337 -307h-214z" />
    <glyph glyph-name="uniF4D2" 
d="M789 1917l204 -307h-199l-230 307h225zM462 888l-40 -223c-10 -61 -14 -107 -14 -164c0 -210 113 -341 296 -341c185 0 308 139 355 407l41 229c8 46 13 108 13 152c0 202 -118 335 -299 335c-184 0 -306 -133 -352 -395zM1307 758l-42 -229
c-64 -364 -265 -559 -575 -559c-291 0 -492 209 -492 512c0 93 4 154 15 208l41 228c62 352 271 555 569 555c300 0 499 -209 499 -522c0 -69 -5 -130 -15 -193z" />
    <glyph glyph-name="uniF51A" 
d="M1265 529c-64 -364 -265 -559 -575 -559c-291 0 -492 209 -492 512c0 93 4 154 15 208l41 228c62 352 271 555 569 555c300 0 499 -209 499 -522c0 -69 -5 -130 -15 -193zM704 160c185 0 308 139 355 407l41 229c8 46 13 108 13 152c0 202 -118 335 -299 335
c-184 0 -306 -133 -352 -395l-40 -223c-10 -61 -14 -107 -14 -164c0 -210 113 -341 296 -341zM908 1607c-206 0 -340 147 -306 320h155c-14 -111 46 -193 165 -193c111 0 188 80 205 193h161c-25 -191 -172 -320 -380 -320z" />
    <glyph glyph-name="uni04E8" unicode="&#x4e8;" 
d="M1072 642h-654c-7 -50 -10 -91 -10 -141c0 -210 113 -341 296 -341c185 0 308 139 355 407zM450 819h654c5 42 9 92 9 129c0 202 -118 335 -299 335c-184 0 -306 -133 -352 -395zM213 690l41 228c62 352 271 555 569 555c300 0 499 -209 499 -522c0 -69 -5 -130 -15 -193
l-42 -229c-64 -364 -265 -559 -575 -559c-291 0 -492 209 -492 512c0 93 4 154 15 208z" />
    <glyph glyph-name="uniF49A" 
d="M1292 1837l-26 -151h-677l26 151h677zM1072 642h-654c-7 -50 -10 -91 -10 -141c0 -210 113 -341 296 -341c185 0 308 139 355 407zM450 819h654c5 42 9 92 9 129c0 202 -118 335 -299 335c-184 0 -306 -133 -352 -395zM213 690l41 228c62 352 271 555 569 555
c300 0 499 -209 499 -522c0 -69 -5 -130 -15 -193l-42 -229c-64 -364 -265 -559 -575 -559c-291 0 -492 209 -492 512c0 93 4 154 15 208z" />
    <glyph glyph-name="uniF51C" 
d="M1120 1930h161c-25 -191 -173 -320 -380 -320c-206 0 -340 147 -306 320h155c-14 -111 45 -193 165 -193c111 0 187 80 205 193zM1072 642h-654c-7 -50 -10 -91 -10 -141c0 -210 113 -341 296 -341c185 0 308 139 355 407zM450 819h654c5 42 9 92 9 129
c0 202 -118 335 -299 335c-184 0 -306 -133 -352 -395zM213 690l41 228c62 352 271 555 569 555c300 0 499 -209 499 -522c0 -69 -5 -130 -15 -193l-42 -229c-64 -364 -265 -559 -575 -559c-291 0 -492 209 -492 512c0 93 4 154 15 208z" />
    <glyph glyph-name="uniF51E" 
d="M1193 2309h161c-25 -190 -172 -319 -380 -319c-206 0 -339 147 -306 319h156c-15 -110 45 -192 164 -192c111 0 188 80 205 192zM1238 1611h-155c14 110 -45 192 -165 192c-111 0 -187 -80 -204 -192h-162c25 190 173 319 380 319c206 0 340 -147 306 -319zM1072 642
h-654c-7 -50 -10 -91 -10 -141c0 -210 113 -341 296 -341c185 0 308 139 355 407zM450 819h654c5 42 9 92 9 129c0 202 -118 335 -299 335c-184 0 -306 -133 -352 -395zM213 690l41 228c62 352 271 555 569 555c300 0 499 -209 499 -522c0 -69 -5 -130 -15 -193l-42 -229
c-64 -364 -265 -559 -575 -559c-291 0 -492 209 -492 512c0 93 4 154 15 208z" />
    <glyph glyph-name="uni04EA" unicode="&#x4ea;" 
d="M1136 1643c-67 0 -126 59 -126 129s59 129 126 129c68 0 126 -59 126 -129s-58 -129 -126 -129zM716 1643c-68 0 -126 59 -126 129s58 129 126 129c67 0 126 -59 126 -129s-59 -129 -126 -129zM1072 642h-654c-7 -50 -10 -91 -10 -141c0 -210 113 -341 296 -341
c185 0 308 139 355 407zM450 819h654c5 42 9 92 9 129c0 202 -118 335 -299 335c-184 0 -306 -133 -352 -395zM213 690l41 228c62 352 271 555 569 555c300 0 499 -209 499 -522c0 -69 -5 -130 -15 -193l-42 -229c-64 -364 -265 -559 -575 -559c-291 0 -492 209 -492 512
c0 93 4 154 15 208z" />
    <glyph glyph-name="uni0472" unicode="&#x472;" 
d="M1059 568l16 88c-50 -42 -111 -69 -181 -69c-172 0 -185 92 -323 92c-76 0 -126 -38 -157 -73c-4 -35 -6 -68 -6 -104c0 -211 113 -341 296 -341c185 0 308 139 355 407zM462 888l-18 -101c50 42 112 70 183 70c172 0 185 -92 323 -92c75 0 125 38 156 72
c4 38 7 79 7 112c0 202 -118 334 -299 334c-184 0 -306 -132 -352 -395zM213 690l41 229c62 352 271 554 569 554c300 0 499 -208 499 -521c0 -69 -5 -131 -15 -194l-42 -228c-64 -365 -265 -559 -575 -559c-291 0 -492 209 -492 512c0 93 4 154 15 207z" />
    <glyph glyph-name="Pecyrillic" unicode="&#x41f;" 
d="M1402 1443l-254 -1443h-209l223 1258h-613l-222 -1258h-209l254 1443h1030z" />
    <glyph glyph-name="uni0524" unicode="&#x524;" 
d="M1367 1443l-220 -1252h151l-83 -477h-183l51 286h-178l31 191h3l188 1067h-578l-223 -1258h-208l254 1443h995z" />
    <glyph glyph-name="Ercyrillic" unicode="&#x420;" 
d="M437 1443h457c269 0 440 -156 440 -402c0 -329 -224 -539 -580 -539h-273l-89 -502h-209zM616 1265l-104 -586h244c230 0 370 132 370 347c0 152 -99 239 -271 239h-239z" />
    <glyph glyph-name="uni048E" unicode="&#x48e;" 
d="M854 961l112 -234c102 57 160 161 160 299c0 152 -99 239 -271 239h-239l-104 -586h244c27 0 52 2 77 5l-103 213zM437 1443h457c269 0 440 -156 440 -402c0 -219 -99 -385 -271 -472l113 -235l-154 -83l-126 263c-44 -8 -92 -12 -142 -12h-273l-89 -502h-209z" />
    <glyph glyph-name="uniF4D4" 
d="M437 1443h457c269 0 440 -156 440 -402c0 -329 -224 -539 -580 -539h-273l-89 -502h-209zM616 1265l-104 -586h244c230 0 370 132 370 347c0 152 -99 239 -271 239h-239zM802 1606l-230 315h190l136 -197h15l207 197h210l-340 -315h-188z" />
    <glyph glyph-name="Escyrillic" unicode="&#x421;" 
d="M1253 413c-34 -267 -251 -444 -541 -444c-306 0 -500 201 -500 520c0 53 5 112 14 157l42 242c65 379 274 585 596 585c285 0 483 -181 483 -442c0 -22 -2 -46 -6 -74h-208c2 22 3 37 3 59c0 159 -111 263 -282 263c-192 0 -324 -137 -370 -387l-46 -261
c-8 -41 -13 -95 -13 -145c0 -202 113 -323 302 -323c167 0 281 95 316 264c0 4 0 6 1 9h211c0 -9 -1 -17 -2 -23z" />
    <glyph glyph-name="uni04AA" unicode="&#x4aa;" 
d="M1341 957h-208c2 22 3 37 3 59c0 159 -111 263 -282 263c-192 0 -324 -137 -370 -387l-46 -261c-8 -41 -13 -95 -13 -145c0 -202 113 -323 302 -323c167 0 281 95 316 264c0 4 0 6 1 9h211c0 -9 -1 -17 -2 -23c-33 -261 -242 -436 -522 -444l-51 -97
c114 -6 179 -62 179 -153c0 -124 -102 -205 -260 -205c-50 0 -109 9 -156 25l20 115c29 -11 94 -20 133 -20c73 0 115 24 115 68c0 47 -45 70 -133 70h-55l9 93l61 115c-236 46 -381 233 -381 509c0 53 5 112 14 157l42 242c65 379 274 585 596 585c285 0 483 -181 483 -442
c0 -22 -2 -46 -6 -74z" />
    <glyph glyph-name="uniF53E" 
d="M1341 957h-208c2 22 3 37 3 59c0 159 -111 263 -282 263c-192 0 -324 -137 -370 -387l-46 -261c-8 -41 -13 -95 -13 -145c0 -202 113 -323 302 -323c167 0 281 95 316 264c0 4 0 6 1 9h211c0 -9 -1 -17 -2 -23c-32 -249 -223 -420 -484 -442l-44 -257h-196l47 270
c-226 51 -364 236 -364 505c0 53 5 112 14 157l42 242c65 379 274 585 596 585c285 0 483 -181 483 -442c0 -22 -2 -46 -6 -74z" />
    <glyph glyph-name="Ecyrillic" unicode="&#x404;" 
d="M719 -29c-308 0 -512 211 -512 529c0 40 3 77 8 121c6 46 34 216 54 315c64 341 276 538 578 538c293 0 495 -186 495 -454c0 -6 -1 -34 -2 -48h-210c0 16 0 31 -1 50c-10 155 -124 258 -288 258c-182 0 -312 -133 -361 -370l-18 -86h530l-30 -176h-529
c-9 -48 -15 -103 -15 -144c0 -209 121 -341 311 -341c152 0 268 84 309 229c3 12 6 23 8 35h210c-2 -17 -4 -34 -7 -48c-48 -248 -256 -408 -530 -408z" />
    <glyph glyph-name="uniF526" 
d="M719 -29c-308 0 -512 211 -512 529c0 40 3 77 8 121c6 46 34 216 54 315c64 341 276 538 578 538c293 0 495 -186 495 -454c0 -6 -1 -34 -2 -48h-210c0 16 0 31 -1 50c-10 155 -124 258 -288 258c-182 0 -312 -133 -361 -370l-18 -86h530l-30 -176h-529
c-9 -48 -15 -103 -15 -144c0 -209 121 -341 311 -341c152 0 268 84 309 229c3 12 6 23 8 35h210c-2 -17 -4 -34 -7 -48c-48 -248 -256 -408 -530 -408zM760 1643c-68 0 -126 59 -126 129s58 129 126 129c67 0 126 -59 126 -129s-59 -129 -126 -129zM1180 1643
c-67 0 -126 59 -126 129s59 129 126 129c68 0 126 -59 126 -129s-58 -129 -126 -129z" />
    <glyph glyph-name="Tecyrillic" unicode="&#x422;" 
d="M737 0h-208l223 1258h-429l31 185h1066l-31 -185h-429z" />
    <glyph glyph-name="uni04AC" unicode="&#x4ac;" 
d="M354 1443h1066l-31 -185h-429l-188 -1063h169l-83 -481h-196l50 286h-183l33 195h2l188 1063h-429z" />
    <glyph glyph-name="Ucyrillic" unicode="&#x423;" 
d="M1468 1443l-605 -1058c-166 -292 -296 -396 -500 -396c-38 0 -93 6 -106 12l28 190c19 -6 54 -10 83 -10c101 0 175 50 264 183l-324 1079h218l240 -853h9l466 853h227z" />
    <glyph glyph-name="Ushortcyrillic" unicode="&#x40e;" 
d="M1468 1443l-605 -1058c-166 -292 -296 -396 -500 -396c-38 0 -93 6 -106 12l28 190c19 -6 54 -10 83 -10c101 0 175 50 264 183l-324 1079h218l240 -853h9l466 853h227zM1134 1930h162c-26 -191 -173 -320 -381 -320c-206 0 -339 147 -306 320h156
c-15 -111 45 -193 164 -193c111 0 188 80 205 193z" />
    <glyph glyph-name="uni04EE" unicode="&#x4ee;" 
d="M1269 1685h-677l26 151h678zM1468 1443l-605 -1058c-166 -292 -296 -396 -500 -396c-38 0 -93 6 -106 12l28 190c19 -6 54 -10 83 -10c101 0 175 50 264 183l-324 1079h218l240 -853h9l466 853h227z" />
    <glyph glyph-name="uni04F0" unicode="&#x4f0;" 
d="M1136 1642c-68 0 -126 59 -126 129s58 129 126 129c67 0 126 -59 126 -129s-59 -129 -126 -129zM715 1642c-67 0 -126 59 -126 129s59 129 126 129c68 0 126 -59 126 -129s-58 -129 -126 -129zM1468 1443l-605 -1058c-166 -292 -296 -396 -500 -396c-38 0 -93 6 -106 12
l28 190c19 -6 54 -10 83 -10c101 0 175 50 264 183l-324 1079h218l240 -853h9l466 853h227z" />
    <glyph glyph-name="uni04F2" unicode="&#x4f2;" 
d="M609 1611l300 307h211l-320 -307h-191zM999 1611l301 307h211l-320 -307h-192zM1468 1443l-605 -1058c-166 -292 -296 -396 -500 -396c-38 0 -93 6 -106 12l28 190c19 -6 54 -10 83 -10c101 0 175 50 264 183l-324 1079h218l240 -853h9l466 853h227z" />
    <glyph glyph-name="uniF4CC" 
d="M788 1611l311 307h240l-337 -307h-214zM1468 1443l-605 -1058c-166 -292 -296 -396 -500 -396c-38 0 -93 6 -106 12l28 190c19 -6 54 -10 83 -10c101 0 175 50 264 183l-324 1079h218l240 -853h9l466 853h227z" />
    <glyph glyph-name="uniF464" 
d="M788 1611l311 307h240l-337 -307h-214zM1468 1443l-605 -1058c-166 -292 -296 -396 -500 -396c-38 0 -93 6 -106 12l28 190c19 -6 54 -10 83 -10c101 0 175 50 264 183l-324 1079h218l240 -853h9l466 853h227z" />
    <glyph glyph-name="Efcyrillic" unicode="&#x424;" 
d="M363 779c-2 -11 -9 -57 -10 -66c-7 -49 -8 -68 -8 -99c0 -168 87 -270 243 -293l146 821c-215 -5 -334 -122 -371 -363zM1346 647c-57 -334 -254 -500 -584 -506l-28 -164h-208l32 178c-258 33 -403 193 -403 449c0 43 2 76 6 105c1 11 14 83 15 95
c58 339 250 500 585 506l27 156h207l-29 -168c254 -33 401 -196 401 -450c0 -47 -2 -78 -7 -106c-1 -11 -13 -83 -14 -95zM935 1128l-147 -819c216 8 334 125 372 365c2 10 8 55 8 64c7 44 8 70 8 98c0 167 -83 267 -241 292z" />
    <glyph glyph-name="Xacyrillic" unicode="&#x425;" 
d="M48 0l578 727l-326 716h222l250 -566h10l450 566h236l-592 -724l338 -719h-219l-261 560h-11l-446 -560h-229z" />
    <glyph glyph-name="uni04B2" unicode="&#x4b2;" 
d="M852 719l241 -528h170l-83 -477h-188l51 286h-76l-253 560h-11l-432 -560h-223l560 727l-316 716h217l241 -566h11l435 566h231z" />
    <glyph glyph-name="uni04FE" unicode="&#x4fe;" 
d="M1468 1443l-527 -644h334l-29 -169h-328l296 -630h-219l-261 560h-11l-446 -560h-229l501 630h-326l29 169h341l-293 644h222l250 -566h10l450 566h236z" />
    <glyph glyph-name="uni04FC" unicode="&#x4fc;" 
d="M888 242l-154 318h-11l-446 -560h-229l578 727l-326 716h222l250 -566h10l450 566h236l-592 -724l184 -378c74 -161 122 -263 122 -370c0 -209 -139 -345 -368 -345c-47 0 -75 4 -97 8l31 184c17 -4 37 -5 72 -5c92 0 160 68 160 161c0 75 -38 148 -92 268z" />
    <glyph glyph-name="Tsecyrillic" unicode="&#x426;" 
d="M1296 185l-81 -470h-191l50 285h-972l254 1443h208l-222 -1258h593l222 1258h209l-223 -1258h153z" />
    <glyph glyph-name="uni04B4" unicode="&#x4b4;" 
d="M1377 1443l-224 -1258h123l-82 -470h-190l51 285h-773l222 1259h-274l31 184h711l-31 -184h-229l-191 -1074h424l223 1258h209z" />
    <glyph glyph-name="Checyrillic" unicode="&#x427;" 
d="M1387 1443l-254 -1443h-208l113 637h-10c-98 -72 -220 -111 -353 -111c-300 0 -456 205 -401 524l69 393h209l-70 -398c-36 -206 57 -327 251 -327c147 0 256 53 340 117l106 608h208z" />
    <glyph glyph-name="uni04F4" unicode="&#x4f4;" 
d="M1131 1643c-68 0 -126 59 -126 129s58 129 126 129c67 0 126 -59 126 -129s-59 -129 -126 -129zM710 1643c-68 0 -126 59 -126 129s58 129 126 129s126 -59 126 -129s-58 -129 -126 -129zM1387 1443l-254 -1443h-208l113 637h-10c-98 -72 -220 -111 -353 -111
c-300 0 -456 205 -401 524l69 393h209l-70 -398c-36 -206 57 -327 251 -327c147 0 256 53 340 117l106 608h208z" />
    <glyph glyph-name="uni04B6" unicode="&#x4b6;" 
d="M1367 1443l-222 -1252h150l-82 -477h-191l51 286h-164l115 637h-10c-97 -72 -217 -111 -343 -111c-300 0 -452 205 -396 524l69 393h202l-70 -398c-36 -206 55 -327 247 -327c144 0 253 53 336 117l107 608h201z" />
    <glyph glyph-name="uni04CB" unicode="&#x4cb;" 
d="M1179 1443h208l-254 -1443h-183l-50 -286h-196l82 477h173l79 446h-10c-98 -72 -220 -111 -353 -111c-300 0 -456 205 -401 524l69 393h209l-70 -398c-36 -206 57 -327 251 -327c147 0 256 53 340 117z" />
    <glyph glyph-name="uniF4C6" 
d="M1179 1443h208l-254 -1443c-45 -255 -186 -337 -383 -337c-52 0 -94 3 -117 6l30 174c16 -2 47 -3 85 -3c104 0 158 57 177 160l31 178h1l81 459h-10c-98 -72 -220 -111 -353 -111c-300 0 -456 205 -401 524l69 393h209l-70 -398c-36 -206 57 -327 251 -327
c147 0 256 53 340 117z" />
    <glyph glyph-name="uni04B8" unicode="&#x4b8;" 
d="M1181 1443h207l-254 -1443h-207l114 640h-10c-71 -50 -155 -82 -243 -97l-56 -314h-144l54 306c-282 13 -420 208 -368 509l70 399h207l-72 -416c-32 -180 37 -286 196 -306l61 345h144l-61 -342c95 12 178 47 255 106z" />
    <glyph glyph-name="uni04BA" unicode="&#x4ba;" 
d="M143 0l254 1443h208l-114 -637h11c98 72 219 111 353 111c299 0 456 -205 400 -524l-69 -393h-208l69 398c36 206 -56 327 -251 327c-146 0 -256 -53 -339 -117l-106 -608h-208z" />
    <glyph glyph-name="uniF49E" 
d="M550 800h9c89 61 197 95 316 95c280 0 427 -193 374 -499l-69 -396h-198l70 400c34 192 -53 304 -234 304c-118 0 -217 -37 -302 -101l-107 -603h-197l195 1106h-195l28 169h196l30 168h197l-30 -168h475l-28 -169h-476z" />
    <glyph glyph-name="uni0526" unicode="&#x526;" 
d="M1149 191h143l-82 -477h-183l51 286h-158l33 191l37 211c36 202 -52 323 -233 323c-132 0 -234 -54 -305 -106l-109 -619h-200l253 1443h200l-110 -625h10c86 63 194 99 314 99c283 0 429 -205 374 -524z" />
    <glyph glyph-name="Djecyrillic" unicode="&#x402;" 
d="M1323 497c0 -306 -185 -533 -451 -533c-52 0 -110 8 -133 17l33 180c21 -7 57 -12 87 -12c148 0 258 130 258 312c0 148 -77 237 -211 237c-102 0 -196 -41 -244 -90l-107 -608h-196l224 1259h-360l31 184h926l-30 -184h-372l-82 -457l8 -1c64 46 157 81 268 81
c215 0 351 -146 351 -385z" />
    <glyph glyph-name="Tshecyrillic" unicode="&#x40b;" 
d="M527 0h-201l223 1258h-326l31 185h874l-31 -185h-346l-85 -467h9c74 64 187 105 289 105c214 0 333 -122 333 -342c0 -43 -5 -91 -14 -141l-72 -413h-202l70 398c6 36 9 69 9 99c0 137 -71 213 -198 213c-91 0 -192 -43 -255 -103z" />
    <glyph glyph-name="uni04C0" unicode="&#x4c0;" 
d="M1031 0h-796l30 181h295l193 1081h-294l30 181h796l-30 -181h-294l-193 -1081h294z" />
    <glyph glyph-name="Icyrillic" unicode="&#x406;" 
d="M1031 0h-796l30 181h295l193 1081h-294l30 181h796l-30 -181h-294l-193 -1081h294z" />
    <glyph glyph-name="Yicyrillic" unicode="&#x407;" 
d="M1031 0h-796l30 181h295l193 1081h-294l30 181h796l-30 -181h-294l-193 -1081h294zM733 1643c-67 0 -125 59 -125 129s58 129 125 129c68 0 126 -59 126 -129s-58 -129 -126 -129zM1154 1643c-67 0 -126 59 -126 129s59 129 126 129c68 0 126 -59 126 -129
s-58 -129 -126 -129z" />
    <glyph glyph-name="Dzhecyrillic" unicode="&#x40f;" 
d="M485 -285l50 285h-430l254 1443h208l-223 -1258h641l222 1258h208l-254 -1443h-430l-50 -285h-196z" />
    <glyph glyph-name="Shacyrillic" unicode="&#x428;" 
d="M1193 0h-1120l254 1443h171l-224 -1265h304l224 1265h170l-223 -1265h303l224 1265h171z" />
    <glyph glyph-name="Shchacyrillic" unicode="&#x429;" 
d="M1068 -285l50 285h-1072l254 1443h171l-224 -1269h288l224 1269h171l-224 -1269h288l224 1269h171l-224 -1265h150l-80 -463h-167z" />
    <glyph glyph-name="Hardsigncyrillic" unicode="&#x42a;" 
d="M682 922h235c226 0 374 -156 374 -394c0 -328 -199 -528 -531 -528h-449l224 1259h-291l31 184h498zM647 742l-100 -560h211c204 0 324 125 324 330c0 145 -81 230 -220 230h-215z" />
    <glyph glyph-name="Yericyrillic" unicode="&#x42b;" 
d="M411 742l-101 -562h112c200 0 320 127 320 336c0 142 -79 226 -212 226h-119zM397 0h-301l254 1443h187l-93 -523h124c224 0 364 -144 364 -378c0 -344 -194 -542 -535 -542zM1170 0h-186l254 1443h186z" />
    <glyph glyph-name="uni04F8" unicode="&#x4f8;" 
d="M1140 1586c-68 0 -126 59 -126 129s58 129 126 129c67 0 126 -59 126 -129s-59 -129 -126 -129zM719 1586c-67 0 -126 59 -126 129s59 129 126 129c68 0 126 -59 126 -129s-58 -129 -126 -129zM407 742l-101 -562h112c200 0 319 127 319 336c0 142 -78 226 -211 226h-119
zM393 0h-301l254 1443h187l-93 -523h124c224 0 364 -144 364 -378c0 -344 -194 -542 -535 -542zM1166 0h-186l254 1443h186z" />
    <glyph glyph-name="uniF520" 
d="M1265 1685h-677l26 151h677zM411 742l-101 -562h112c200 0 320 127 320 336c0 142 -79 226 -212 226h-119zM397 0h-301l254 1443h187l-93 -523h124c224 0 364 -144 364 -378c0 -344 -194 -542 -535 -542zM1170 0h-186l254 1443h186z" />
    <glyph glyph-name="uniF536" 
d="M1109 1930h162c-25 -191 -173 -320 -381 -320c-206 0 -339 147 -306 320h156c-15 -111 45 -193 164 -193c112 0 188 80 205 193zM411 742l-101 -562h112c200 0 320 127 320 336c0 142 -79 226 -212 226h-119zM397 0h-301l254 1443h187l-93 -523h124
c224 0 364 -144 364 -378c0 -344 -194 -542 -535 -542zM1170 0h-186l254 1443h186z" />
    <glyph glyph-name="uniF465" 
d="M763 1611l312 307h239l-337 -307h-214zM411 742l-101 -562h112c200 0 320 127 320 336c0 142 -79 226 -212 226h-119zM397 0h-301l254 1443h187l-93 -523h124c224 0 364 -144 364 -378c0 -344 -194 -542 -535 -542zM1170 0h-186l254 1443h186z" />
    <glyph glyph-name="Softsigncyrillic" unicode="&#x42c;" 
d="M508 742l-100 -562h300c214 0 335 120 335 332c0 146 -85 230 -230 230h-305zM713 0h-545l254 1443h209l-93 -523h332c232 0 384 -154 384 -392c0 -331 -200 -528 -541 -528z" />
    <glyph glyph-name="uni048C" unicode="&#x48c;" 
d="M519 180h199c243 0 360 124 360 306c0 129 -96 202 -268 202h-199zM640 866h232c265 0 421 -136 421 -359c0 -296 -205 -507 -551 -507h-462l189 1074h-289l30 172h289l35 197h209l-35 -197h482l-30 -172h-483z" />
    <glyph glyph-name="uni0462" unicode="&#x462;" 
d="M519 180h199c243 0 360 124 360 306c0 129 -96 202 -268 202h-199zM640 866h232c265 0 421 -136 421 -359c0 -296 -205 -507 -551 -507h-462l189 1074h-289l30 172h289l35 197h209l-35 -197h482l-30 -172h-483z" />
    <glyph glyph-name="Ljecyrillic" unicode="&#x409;" 
d="M895 742l-101 -565h94c156 0 264 143 264 351c0 138 -58 214 -163 214h-94zM578 1277l-88 -458c-131 -652 -192 -829 -401 -829c-35 0 -71 6 -88 12l34 191c9 -4 28 -9 41 -9c94 0 134 137 237 645l117 614h597l-95 -525h96c193 0 306 -137 306 -357
c0 -343 -175 -560 -451 -560h-292l226 1276h-239z" />
    <glyph glyph-name="Njecyrillic" unicode="&#x40a;" 
d="M266 0h-176l254 1443h176l-109 -614h322l108 614h177l-109 -614h84c199 0 314 -113 314 -334c0 -320 -161 -495 -448 -495h-272l116 654h-322zM876 657l-88 -492h88c162 0 254 117 254 309c0 117 -58 183 -162 183h-92z" />
    <glyph glyph-name="Ereversedcyrillic" unicode="&#x42d;" 
d="M268 1061c80 262 288 414 560 414c321 0 515 -202 515 -537c0 -62 -6 -128 -20 -208c-10 -57 -40 -219 -57 -266c-92 -321 -299 -494 -598 -494c-315 0 -508 180 -508 468c0 6 1 26 2 40h211c0 -8 -1 -15 -1 -27c1 -182 110 -289 298 -289c196 0 336 136 402 384
c8 27 17 70 22 99h-541l30 177h539c5 40 8 77 8 109c0 224 -120 351 -313 351c-159 0 -278 -86 -341 -250c-3 -11 -6 -19 -9 -29h-214c4 20 9 41 15 58z" />
    <glyph glyph-name="uni04EC" unicode="&#x4ec;" 
d="M268 1061c80 262 288 414 560 414c321 0 515 -202 515 -537c0 -62 -6 -128 -20 -208c-10 -57 -40 -219 -57 -266c-92 -321 -299 -494 -598 -494c-315 0 -508 180 -508 468c0 6 1 26 2 40h211c0 -8 -1 -15 -1 -27c1 -182 110 -289 298 -289c196 0 336 136 402 384
c8 27 17 70 22 99h-541l30 177h539c5 40 8 77 8 109c0 224 -120 351 -313 351c-159 0 -278 -86 -341 -250c-3 -11 -6 -19 -9 -29h-214c4 20 9 41 15 58zM704 1645c-68 0 -126 59 -126 129s58 129 126 129c67 0 126 -59 126 -129s-59 -129 -126 -129zM1124 1645
c-67 0 -126 59 -126 129s59 129 126 129c68 0 126 -59 126 -129s-58 -129 -126 -129z" />
    <glyph glyph-name="uniF522" 
d="M268 1061c80 262 288 414 560 414c321 0 515 -202 515 -537c0 -62 -6 -128 -20 -208c-10 -57 -40 -219 -57 -266c-92 -321 -299 -494 -598 -494c-315 0 -508 180 -508 468c0 6 1 26 2 40h211c0 -8 -1 -15 -1 -27c1 -182 110 -289 298 -289c196 0 336 136 402 384
c8 27 17 70 22 99h-541l30 177h539c5 40 8 77 8 109c0 224 -120 351 -313 351c-159 0 -278 -86 -341 -250c-3 -11 -6 -19 -9 -29h-214c4 20 9 41 15 58zM1239 1685h-677l26 151h677z" />
    <glyph glyph-name="uniF466" 
d="M268 1061c80 262 288 414 560 414c321 0 515 -202 515 -537c0 -62 -6 -128 -20 -208c-10 -57 -40 -219 -57 -266c-92 -321 -299 -494 -598 -494c-315 0 -508 180 -508 468c0 6 1 26 2 40h211c0 -8 -1 -15 -1 -27c1 -182 110 -289 298 -289c196 0 336 136 402 384
c8 27 17 70 22 99h-541l30 177h539c5 40 8 77 8 109c0 224 -120 351 -313 351c-159 0 -278 -86 -341 -250c-3 -11 -6 -19 -9 -29h-214c4 20 9 41 15 58zM745 1611l312 307h239l-337 -307h-214z" />
    <glyph glyph-name="uniF524" 
d="M268 1061c80 262 288 414 560 414c321 0 515 -202 515 -537c0 -62 -6 -128 -20 -208c-10 -57 -40 -219 -57 -266c-92 -321 -299 -494 -598 -494c-315 0 -508 180 -508 468c0 6 1 26 2 40h211c0 -8 -1 -15 -1 -27c1 -182 110 -289 298 -289c196 0 336 136 402 384
c8 27 17 70 22 99h-541l30 177h539c5 40 8 77 8 109c0 224 -120 351 -313 351c-159 0 -278 -86 -341 -250c-3 -11 -6 -19 -9 -29h-214c4 20 9 41 15 58zM890 1607c-206 0 -340 147 -306 320h155c-14 -111 45 -193 165 -193c111 0 187 80 205 193h161
c-25 -191 -173 -320 -380 -320z" />
    <glyph glyph-name="uniF4D6" 
d="M268 1061c80 262 288 414 560 414c321 0 515 -202 515 -537c0 -62 -6 -128 -20 -208c-10 -57 -40 -219 -57 -266c-92 -321 -299 -494 -598 -494c-315 0 -508 180 -508 468c0 6 1 26 2 40h211c0 -8 -1 -15 -1 -27c1 -182 110 -289 298 -289c196 0 336 136 402 384
c8 27 17 70 22 99h-541l30 177h539c5 40 8 77 8 109c0 224 -120 351 -313 351c-159 0 -278 -86 -341 -250c-3 -11 -6 -19 -9 -29h-214c4 20 9 41 15 58zM918 1623c-73 0 -135 63 -135 138s62 138 135 138c74 0 136 -63 136 -138s-62 -138 -136 -138z" />
    <glyph glyph-name="IUcyrillic" unicode="&#x42e;" 
d="M832 -30c-224 0 -371 189 -371 481c0 79 3 115 13 181h-146l-112 -632h-172l254 1443h172l-111 -627h145c2 12 22 121 25 132c69 339 237 525 479 525c244 0 388 -182 388 -493c0 -79 -6 -161 -21 -251c-3 -21 -36 -193 -40 -212c-75 -370 -238 -547 -503 -547zM1215 961
c0 202 -82 322 -220 322c-150 0 -251 -133 -302 -390c-3 -13 -34 -177 -36 -193c-16 -87 -21 -142 -21 -221c0 -199 84 -319 219 -319c155 0 256 132 308 403c3 12 33 182 35 197c11 60 17 140 17 201z" />
    <glyph glyph-name="uniF52C" 
d="M832 -30c-224 0 -371 189 -371 481c0 79 3 115 13 181h-146l-112 -632h-172l254 1443h172l-111 -627h145c2 12 22 121 25 132c69 339 237 525 479 525c244 0 388 -182 388 -493c0 -79 -6 -161 -21 -251c-3 -21 -36 -193 -40 -212c-75 -370 -238 -547 -503 -547zM1215 961
c0 202 -82 322 -220 322c-150 0 -251 -133 -302 -390c-3 -13 -34 -177 -36 -193c-16 -87 -21 -142 -21 -221c0 -199 84 -319 219 -319c155 0 256 132 308 403c3 12 33 182 35 197c11 60 17 140 17 201zM1224 1685h-678l27 151h677z" />
    <glyph glyph-name="uniF467" 
d="M832 -30c-224 0 -371 189 -371 481c0 79 3 115 13 181h-146l-112 -632h-172l254 1443h172l-111 -627h145c2 12 22 121 25 132c69 339 237 525 479 525c244 0 388 -182 388 -493c0 -79 -6 -161 -21 -251c-3 -21 -36 -193 -40 -212c-75 -370 -238 -547 -503 -547zM1215 961
c0 202 -82 322 -220 322c-150 0 -251 -133 -302 -390c-3 -13 -34 -177 -36 -193c-16 -87 -21 -142 -21 -221c0 -199 84 -319 219 -319c155 0 256 132 308 403c3 12 33 182 35 197c11 60 17 140 17 201zM702 1611l312 307h239l-337 -307h-214z" />
    <glyph glyph-name="uniF52E" 
d="M832 -30c-224 0 -371 189 -371 481c0 79 3 115 13 181h-146l-112 -632h-172l254 1443h172l-111 -627h145c2 12 22 121 25 132c69 339 237 525 479 525c244 0 388 -182 388 -493c0 -79 -6 -161 -21 -251c-3 -21 -36 -193 -40 -212c-75 -370 -238 -547 -503 -547zM1215 961
c0 202 -82 322 -220 322c-150 0 -251 -133 -302 -390c-3 -13 -34 -177 -36 -193c-16 -87 -21 -142 -21 -221c0 -199 84 -319 219 -319c155 0 256 132 308 403c3 12 33 182 35 197c11 60 17 140 17 201zM827 1607c-206 0 -340 147 -306 320h155c-14 -111 45 -193 165 -193
c111 0 187 80 205 193h161c-25 -191 -173 -320 -380 -320z" />
    <glyph glyph-name="uniF498" 
d="M832 -30c-224 0 -371 189 -371 481c0 79 3 115 13 181h-146l-112 -632h-172l254 1443h172l-111 -627h145c2 12 22 121 25 132c69 339 237 525 479 525c244 0 388 -182 388 -493c0 -79 -6 -161 -21 -251c-3 -21 -36 -193 -40 -212c-75 -370 -238 -547 -503 -547zM1215 961
c0 202 -82 322 -220 322c-150 0 -251 -133 -302 -390c-3 -13 -34 -177 -36 -193c-16 -87 -21 -142 -21 -221c0 -199 84 -319 219 -319c155 0 256 132 308 403c3 12 33 182 35 197c11 60 17 140 17 201zM651 1643c-68 0 -126 59 -126 129s58 129 126 129
c67 0 126 -59 126 -129s-59 -129 -126 -129zM1072 1643c-68 0 -126 59 -126 129s58 129 126 129c67 0 126 -59 126 -129s-59 -129 -126 -129z" />
    <glyph glyph-name="IAcyrillic" unicode="&#x42f;" 
d="M1037 552h-241l-423 -552h-238l458 588c-149 57 -239 191 -239 353c0 307 204 502 565 502h480l-254 -1443h-206zM807 723h259l97 543h-259c-210 0 -338 -116 -338 -307c0 -141 97 -236 241 -236z" />
    <glyph glyph-name="uniF528" 
d="M1352 1684h-677l26 151h678zM1037 552h-241l-423 -552h-238l458 588c-149 57 -239 191 -239 353c0 307 204 502 565 502h480l-254 -1443h-206zM807 723h259l97 543h-259c-210 0 -338 -116 -338 -307c0 -141 97 -236 241 -236z" />
    <glyph glyph-name="uniF468" 
d="M879 1611l311 307h240l-337 -307h-214zM1037 552h-241l-423 -552h-238l458 588c-149 57 -239 191 -239 353c0 307 204 502 565 502h480l-254 -1443h-206zM807 723h259l97 543h-259c-210 0 -338 -116 -338 -307c0 -141 97 -236 241 -236z" />
    <glyph glyph-name="uniF4D9" 
d="M1232 1643c-67 0 -126 59 -126 129s59 129 126 129c68 0 126 -59 126 -129s-58 -129 -126 -129zM812 1643c-68 0 -126 59 -126 129s58 129 126 129c67 0 126 -59 126 -129s-59 -129 -126 -129zM1037 552h-241l-423 -552h-238l458 588c-149 57 -239 191 -239 353
c0 307 204 502 565 502h480l-254 -1443h-206zM807 723h259l97 543h-259c-210 0 -338 -116 -338 -307c0 -141 97 -236 241 -236z" />
    <glyph glyph-name="uniF52A" 
d="M1223 1929h161c-25 -190 -173 -320 -380 -320c-206 0 -340 147 -306 320h155c-14 -111 45 -192 165 -192c111 0 187 80 205 192zM1037 552h-241l-423 -552h-238l458 588c-149 57 -239 191 -239 353c0 307 204 502 565 502h480l-254 -1443h-206zM807 723h259l97 543h-259
c-210 0 -338 -116 -338 -307c0 -141 97 -236 241 -236z" />
    <glyph glyph-name="uni0494" unicode="&#x494;" 
d="M699 -15c-56 0 -98 10 -111 16l31 183c11 -5 47 -11 92 -11c151 0 256 135 256 318c0 130 -78 207 -211 207c-128 0 -237 -55 -303 -120l-102 -578h-208l254 1443h803l-31 -184h-596l-84 -469h11c74 58 182 102 316 102c238 0 364 -145 364 -370
c0 -298 -179 -537 -481 -537z" />
    <glyph glyph-name="uni04A6" unicode="&#x4a6;" 
d="M962 -20c-41 0 -73 10 -82 15l25 182c9 -5 36 -11 69 -11c135 0 204 160 204 356c0 116 -44 179 -143 179c-82 0 -162 -49 -201 -93l-108 -608h-176l224 1262h-287l-223 -1262h-176l254 1443h638l-110 -625h8c56 46 126 74 212 74c174 0 258 -132 258 -339
c0 -329 -146 -573 -386 -573z" />
    <glyph glyph-name="uni04A8" unicode="&#x4a8;" 
d="M1048 -32c-83 0 -163 26 -226 76h-10c-80 -50 -173 -75 -261 -75c-336 0 -485 260 -403 729l22 128c65 365 253 623 582 640l-30 -179c-221 -17 -327 -241 -375 -505l-19 -104c-60 -333 24 -534 241 -534c58 0 99 6 133 17v6c-114 114 -144 326 -103 565l14 77
c47 280 209 474 431 474c259 0 348 -210 296 -517l-12 -68c-42 -243 -179 -450 -342 -545v-8c24 -6 57 -9 93 -9c60 0 134 27 191 69l31 -146c-82 -64 -164 -91 -253 -91zM779 707c-37 -205 -14 -386 81 -482c139 84 246 263 283 470l13 69c36 201 6 340 -131 340
c-120 0 -200 -138 -232 -324z" />
    <glyph glyph-name="uni04AE" unicode="&#x4ae;" 
d="M737 0h-207l103 580l-340 863h218l246 -650h14l467 650h237l-635 -862z" />
    <glyph glyph-name="uniF43A" 
d="M737 0h-207l103 580l-340 863h218l246 -650h14l467 650h237l-635 -862zM1270 1685h-677l26 151h677z" />
    <glyph glyph-name="uni04B0" unicode="&#x4b0;" 
d="M1475 1443l-634 -861h350l-29 -172h-352l-73 -410h-207l73 410h-351l30 172h350l-339 861h218l246 -650h14l467 650h237z" />
    <glyph glyph-name="uni04BC" unicode="&#x4bc;" 
d="M1175 878l3 20c46 246 -35 385 -214 385c-190 0 -316 -152 -368 -400l-1 -5h580zM402 877h1c83 386 278 596 578 596c324 0 443 -254 382 -607c-7 -43 -32 -171 -32 -171h-769l-12 -63c-56 -312 26 -470 218 -470c154 0 267 116 329 293h191
c-85 -289 -272 -484 -533 -484c-324 0 -465 261 -386 713l2 13h-2c-161 0 -238 92 -238 221c0 88 34 164 60 200h159c-16 -27 -48 -93 -48 -153c0 -58 31 -88 100 -88z" />
    <glyph glyph-name="uni04BE" unicode="&#x4be;" 
d="M1175 878l3 20c46 246 -35 385 -214 385c-190 0 -316 -152 -368 -400l-1 -5h580zM402 877h1c83 386 278 596 578 596c324 0 443 -254 382 -607c-7 -43 -32 -171 -32 -171h-769l-12 -63c-56 -312 26 -470 218 -470c154 0 267 116 329 293h191
c-77 -263 -239 -448 -464 -479l-46 -262h-182l47 269c-244 56 -343 305 -274 701l2 13h-2c-161 0 -238 92 -238 221c0 88 34 164 60 200h159c-16 -27 -48 -93 -48 -153c0 -58 31 -88 100 -88z" />
    <glyph glyph-name="uni04D4" unicode="&#x4d4;" 
d="M748 589l117 659h-91l-290 -659h264zM1471 1259h-416l-80 -444h379l-30 -176h-379l-82 -454h416l-32 -185h-604l73 413h-309l-182 -413h-212l661 1443h827z" />
    <glyph glyph-name="uni04D8" unicode="&#x4d8;" 
d="M666 -29c-371 0 -535 292 -469 671c5 30 27 142 27 142h878l5 28c52 273 -59 470 -286 470c-173 0 -293 -121 -350 -293h-212c81 273 264 484 577 484c385 0 539 -317 477 -681l-17 -108c-79 -460 -264 -713 -630 -713zM679 161c219 0 344 156 388 431l3 16h-670l-4 -23
c-44 -247 50 -424 283 -424z" />
    <glyph glyph-name="uni04DA" unicode="&#x4da;" 
d="M666 -29c-371 0 -535 292 -469 671c5 30 27 142 27 142h878l5 28c52 273 -59 470 -286 470c-173 0 -293 -121 -350 -293h-212c81 273 264 484 577 484c385 0 539 -317 477 -681l-17 -108c-79 -460 -264 -713 -630 -713zM679 161c219 0 344 156 388 431l3 16h-670l-4 -23
c-44 -247 50 -424 283 -424zM711 1643c-68 0 -126 59 -126 129s58 129 126 129c67 0 126 -59 126 -129s-59 -129 -126 -129zM1131 1643c-67 0 -126 59 -126 129s59 129 126 129c68 0 126 -59 126 -129s-58 -129 -126 -129z" />
    <glyph glyph-name="uniF49C" 
d="M666 -29c-371 0 -535 292 -469 671c5 30 27 142 27 142h878l5 28c52 273 -59 470 -286 470c-173 0 -293 -121 -350 -293h-212c81 273 264 484 577 484c385 0 539 -317 477 -681l-17 -108c-79 -460 -264 -713 -630 -713zM679 161c219 0 344 156 388 431l3 16h-670l-4 -23
c-44 -247 50 -424 283 -424zM1262 1685h-677l26 151h678z" />
    <glyph glyph-name="uni04E0" unicode="&#x4e0;" 
d="M1200 484c0 -274 -209 -514 -557 -514c-309 0 -464 152 -464 364c0 16 1 35 4 55h198c-2 -12 -3 -24 -3 -34c0 -119 98 -206 266 -206c212 0 345 141 345 322c0 156 -105 229 -321 229h-124l28 168l437 383l2 11h-619l31 181h877l-27 -161l-468 -410l-2 -12
c247 -20 397 -146 397 -376z" />
    <glyph glyph-name="uni0510" unicode="&#x510;" 
d="M932 650h-189c-253 0 -380 -120 -380 -278c0 -141 108 -220 282 -220c187 0 339 97 374 240h200c-57 -265 -303 -422 -590 -422c-301 0 -483 142 -483 386c0 201 151 367 400 388l2 15c-136 30 -218 128 -218 265c0 237 199 449 538 449c282 0 445 -136 445 -354
c0 -19 -1 -40 -4 -60h-196c1 10 1 20 1 30c0 127 -97 208 -256 208c-208 0 -328 -127 -328 -276c0 -119 94 -195 248 -195h184z" />
    <glyph glyph-name="uniF538" 
d="M932 650h-189c-253 0 -380 -120 -380 -278c0 -141 108 -220 282 -220c187 0 339 97 374 240h200c-57 -265 -303 -422 -590 -422c-301 0 -483 142 -483 386c0 201 151 367 400 388l2 15c-136 30 -218 128 -218 265c0 237 199 449 538 449c282 0 445 -136 445 -354
c0 -19 -1 -40 -4 -60h-196c1 10 1 20 1 30c0 127 -97 208 -256 208c-208 0 -328 -127 -328 -276c0 -119 94 -195 248 -195h184zM748 1643c-67 0 -126 59 -126 129s59 129 126 129c68 0 126 -59 126 -129s-58 -129 -126 -129zM1169 1643c-68 0 -126 59 -126 129
s58 129 126 129c67 0 126 -59 126 -129s-59 -129 -126 -129z" />
    <glyph glyph-name="uni0474" unicode="&#x474;" 
d="M1001 1190c76 195 166 284 329 284c85 0 144 -28 161 -42l-82 -162c-6 4 -38 18 -76 18c-67 0 -105 -35 -143 -122l-524 -1166h-221l-152 1443h207l92 -1195h7z" />
    <glyph glyph-name="uni051C" unicode="&#x51c;" 
d="M815 883h-12l-348 -883h-200l15 1443h185l-13 -551l-20 -611h12l326 832h173l34 -832h12l180 595l182 567h194l-488 -1443h-198z" />
    <glyph glyph-name="Dzecyrillic" unicode="&#x405;" 
d="M188 418h203c-1 -11 -2 -18 -2 -27c0 -140 132 -240 318 -240c178 0 302 98 302 236c0 107 -64 170 -243 236l-104 37c-235 86 -338 206 -338 388c0 252 202 425 497 425c278 0 475 -160 476 -386c0 -13 -2 -32 -3 -40h-203c1 3 1 7 1 23c0 128 -113 222 -270 222
c-167 0 -283 -91 -283 -222c0 -105 63 -171 228 -231l112 -41c245 -90 343 -201 343 -379c0 -272 -204 -449 -519 -449c-298 0 -518 171 -518 402c0 22 1 36 3 46z" />
    <glyph glyph-name="Jecyrillic" unicode="&#x408;" 
d="M635 -30c-249 0 -424 154 -424 375c0 18 2 35 4 51h196c-1 -8 -2 -19 -2 -28c0 -121 95 -205 232 -205c139 0 230 85 258 244l153 855h-502l30 181h712l-189 -1063c-47 -270 -207 -410 -468 -410z" />
    <glyph glyph-name="a" unicode="a" 
d="M555 -18c-193 0 -327 125 -329 305c-2 228 165 355 471 359l263 3l10 58c5 29 7 45 7 64c0 102 -81 169 -207 169c-109 0 -201 -55 -229 -137h-199c34 178 219 302 446 302c234 0 389 -123 389 -310c0 -43 -3 -71 -19 -157l-113 -638h-191l27 153h-13
c-54 -106 -172 -171 -313 -171zM627 150c141 0 262 101 287 241l21 115l-234 -2c-172 -2 -269 -70 -270 -188c0 -101 76 -166 196 -166z" />
    <glyph glyph-name="agrave" unicode="&#xe0;" 
d="M555 -18c-193 0 -327 125 -329 305c-2 228 165 355 471 359l263 3l10 58c5 29 7 45 7 64c0 102 -81 169 -207 169c-109 0 -201 -55 -229 -137h-199c34 178 219 302 446 302c234 0 389 -123 389 -310c0 -43 -3 -71 -19 -157l-113 -638h-191l27 153h-13
c-54 -106 -172 -171 -313 -171zM627 150c141 0 262 101 287 241l21 115l-234 -2c-172 -2 -269 -70 -270 -188c0 -101 76 -166 196 -166zM1001 1296h-200l-210 343h230z" />
    <glyph glyph-name="aacute" unicode="&#xe1;" 
d="M939 1296h-211l300 343h240zM935 506l-234 -2c-172 -2 -269 -70 -270 -188c0 -101 76 -166 196 -166c141 0 262 101 287 241zM881 153h-13c-54 -106 -172 -171 -313 -171c-193 0 -327 125 -329 305c-2 228 165 355 471 359l263 3l10 58c5 29 7 45 7 64
c0 102 -81 169 -207 169c-109 0 -201 -55 -229 -137h-199c34 178 219 302 446 302c234 0 389 -123 389 -310c0 -43 -3 -71 -19 -157l-113 -638h-191z" />
    <glyph glyph-name="adieresis" unicode="&#xe4;" 
d="M555 -18c-193 0 -327 125 -329 305c-2 228 165 355 471 359l263 3l10 58c5 29 7 45 7 64c0 102 -81 169 -207 169c-109 0 -201 -55 -229 -137h-199c34 178 219 302 446 302c234 0 389 -123 389 -310c0 -43 -3 -71 -19 -157l-113 -638h-191l27 153h-13
c-54 -106 -172 -171 -313 -171zM627 150c141 0 262 101 287 241l21 115l-234 -2c-172 -2 -269 -70 -270 -188c0 -101 76 -166 196 -166zM681 1296c-67 0 -126 59 -126 129s59 130 126 130c68 0 126 -60 126 -130s-58 -129 -126 -129zM1102 1296c-68 0 -126 59 -126 129
s58 130 126 130c67 0 126 -60 126 -130s-59 -129 -126 -129z" />
    <glyph glyph-name="adieresismacron" unicode="&#x1df;" 
d="M555 -18c-193 0 -327 125 -329 305c-2 228 165 355 471 359l263 3l10 58c5 29 7 45 7 64c0 102 -81 169 -207 169c-109 0 -201 -55 -229 -137h-199c34 178 219 302 446 302c234 0 389 -123 389 -310c0 -43 -3 -71 -19 -157l-113 -638h-191l27 153h-13
c-54 -106 -172 -171 -313 -171zM627 150c141 0 262 101 287 241l21 115l-234 -2c-172 -2 -269 -70 -270 -188c0 -101 76 -166 196 -166zM1100 1560c67 0 126 -60 126 -130s-59 -129 -126 -129c-68 0 -126 59 -126 129s58 130 126 130zM679 1560c67 0 126 -60 126 -130
s-59 -129 -126 -129c-68 0 -126 59 -126 129s58 130 126 130zM627 1878h678l-27 -151h-677z" />
    <glyph glyph-name="aring" unicode="&#xe5;" 
d="M555 -18c-193 0 -327 125 -329 305c-2 228 165 355 471 359l263 3l10 58c5 29 7 45 7 64c0 102 -81 169 -207 169c-109 0 -201 -55 -229 -137h-199c34 178 219 302 446 302c234 0 389 -123 389 -310c0 -43 -3 -71 -19 -157l-113 -638h-191l27 153h-13
c-54 -106 -172 -171 -313 -171zM627 150c141 0 262 101 287 241l21 115l-234 -2c-172 -2 -269 -70 -270 -188c0 -101 76 -166 196 -166zM899 1366c64 0 113 50 113 116s-49 116 -113 116c-65 0 -114 -50 -114 -116s49 -116 114 -116zM899 1248c-127 0 -230 105 -230 234
s103 234 230 234c126 0 229 -105 229 -234s-103 -234 -229 -234z" />
    <glyph glyph-name="aringacute" unicode="&#x1fb;" 
d="M1023 1730h-164l205 241h195zM890 1228c-117 0 -207 88 -207 204c0 115 90 203 207 203c116 0 206 -88 206 -203c0 -116 -90 -204 -206 -204zM890 1330c58 0 101 44 101 102c0 57 -43 101 -101 101s-102 -44 -102 -101c0 -58 44 -102 102 -102zM935 506l-234 -2
c-172 -2 -269 -70 -270 -188c0 -101 76 -166 196 -166c141 0 262 101 287 241zM881 153h-13c-54 -106 -172 -171 -313 -171c-193 0 -327 125 -329 305c-2 228 165 355 471 359l263 3l10 58c5 29 7 45 7 64c0 102 -81 169 -207 169c-109 0 -201 -55 -229 -137h-199
c34 178 219 302 446 302c234 0 389 -123 389 -310c0 -43 -3 -71 -19 -157l-113 -638h-191z" />
    <glyph glyph-name="atilde" unicode="&#xe3;" 
d="M555 -18c-193 0 -327 125 -329 305c-2 228 165 355 471 359l263 3l10 58c5 29 7 45 7 64c0 102 -81 169 -207 169c-109 0 -201 -55 -229 -137h-199c34 178 219 302 446 302c234 0 389 -123 389 -310c0 -43 -3 -71 -19 -157l-113 -638h-191l27 153h-13
c-54 -106 -172 -171 -313 -171zM627 150c141 0 262 101 287 241l21 115l-234 -2c-172 -2 -269 -70 -270 -188c0 -101 76 -166 196 -166zM742 1422c-57 0 -84 -46 -90 -152h-153c13 187 103 298 245 298c161 0 201 -156 287 -156c57 0 84 44 89 150h153
c-11 -184 -105 -297 -244 -297c-161 0 -201 157 -287 157z" />
    <glyph glyph-name="abrevegrave" unicode="&#x1eb1;" 
d="M1122 1595h159c-26 -201 -187 -336 -403 -336c-212 0 -360 152 -326 336h156c-14 -115 61 -193 186 -193c119 0 212 78 228 193zM853 1974l143 -316h-160l-178 316h195zM935 506l-234 -2c-172 -2 -269 -70 -270 -188c0 -101 76 -166 196 -166c141 0 262 101 287 241z
M881 153h-13c-54 -106 -172 -171 -313 -171c-193 0 -327 125 -329 305c-2 228 165 355 471 359l263 3l10 58c5 29 7 45 7 64c0 102 -81 169 -207 169c-109 0 -201 -55 -229 -137h-199c34 178 219 302 446 302c234 0 389 -123 389 -310c0 -43 -3 -71 -19 -157l-113 -638h-191
z" />
    <glyph glyph-name="adotmacron" unicode="&#x1e1;" 
d="M555 -18c-193 0 -327 125 -329 305c-2 228 165 355 471 359l263 3l10 58c5 29 7 45 7 64c0 102 -81 169 -207 169c-109 0 -201 -55 -229 -137h-199c34 178 219 302 446 302c234 0 389 -123 389 -310c0 -43 -3 -71 -19 -157l-113 -638h-191l27 153h-13
c-54 -106 -172 -171 -313 -171zM627 150c141 0 262 101 287 241l21 115l-234 -2c-172 -2 -269 -70 -270 -188c0 -101 76 -166 196 -166zM1281 1728h-678l27 151h677zM888 1283c-74 0 -136 63 -136 138s62 138 136 138c73 0 135 -63 135 -138s-62 -138 -135 -138z" />
    <glyph glyph-name="aringbelow" unicode="&#x1e01;" 
d="M555 -18c-193 0 -327 125 -329 305c-2 228 165 355 471 359l263 3l10 58c5 29 7 45 7 64c0 102 -81 169 -207 169c-109 0 -201 -55 -229 -137h-199c34 178 219 302 446 302c234 0 389 -123 389 -310c0 -43 -3 -71 -19 -157l-113 -638h-191l27 153h-13
c-54 -106 -172 -171 -313 -171zM627 150c141 0 262 101 287 241l21 115l-234 -2c-172 -2 -269 -70 -270 -188c0 -101 76 -166 196 -166zM566 -477c65 0 114 51 114 116c0 66 -49 117 -114 117c-64 0 -113 -51 -113 -117c0 -65 49 -116 113 -116zM566 -594
c-126 0 -229 105 -229 233c0 129 103 234 229 234c127 0 230 -105 230 -234c0 -128 -103 -233 -230 -233z" />
    <glyph glyph-name="acircumflex" unicode="&#xe2;" 
d="M555 -18c-193 0 -327 125 -329 305c-2 228 165 355 471 359l263 3l10 58c5 29 7 45 7 64c0 102 -81 169 -207 169c-109 0 -201 -55 -229 -137h-199c34 178 219 302 446 302c234 0 389 -123 389 -310c0 -43 -3 -71 -19 -157l-113 -638h-191l27 153h-13
c-54 -106 -172 -171 -313 -171zM627 150c141 0 262 101 287 241l21 115l-234 -2c-172 -2 -269 -70 -270 -188c0 -101 76 -166 196 -166zM811 1625h226l211 -346h-206l-125 222h-16l-202 -222h-221z" />
    <glyph glyph-name="acircumflexdotbelow" unicode="&#x1ead;" 
d="M555 -18c-193 0 -327 125 -329 305c-2 228 165 355 471 359l263 3l10 58c5 29 7 45 7 64c0 102 -81 169 -207 169c-109 0 -201 -55 -229 -137h-199c34 178 219 302 446 302c234 0 389 -123 389 -310c0 -43 -3 -71 -19 -157l-113 -638h-191l27 153h-13
c-54 -106 -172 -171 -313 -171zM627 150c141 0 262 101 287 241l21 115l-234 -2c-172 -2 -269 -70 -270 -188c0 -101 76 -166 196 -166zM811 1625h226l211 -346h-206l-125 222h-16l-202 -222h-221zM568 -458c-73 0 -135 63 -135 138s62 138 135 138c74 0 136 -63 136 -138
s-62 -138 -136 -138z" />
    <glyph glyph-name="acircumflexacute" unicode="&#x1ea5;" 
d="M555 -18c-193 0 -327 125 -329 305c-2 228 165 355 471 359l263 3l10 58c5 29 7 45 7 64c0 102 -81 169 -207 169c-109 0 -201 -55 -229 -137h-199c34 178 219 302 446 302c234 0 389 -123 389 -310c0 -43 -3 -71 -19 -157l-113 -638h-191l27 153h-13
c-54 -106 -172 -171 -313 -171zM627 150c141 0 262 101 287 241l21 115l-234 -2c-172 -2 -269 -70 -270 -188c0 -101 76 -166 196 -166zM1131 1658l258 316h214l-288 -316h-184zM812 1628h226l211 -346h-206l-125 222h-16l-202 -222h-221z" />
    <glyph glyph-name="acircumflextilde" unicode="&#x1eab;" 
d="M555 -18c-193 0 -327 125 -329 305c-2 228 165 355 471 359l263 3l10 58c5 29 7 45 7 64c0 102 -81 169 -207 169c-109 0 -201 -55 -229 -137h-199c34 178 219 302 446 302c234 0 389 -123 389 -310c0 -43 -3 -71 -19 -157l-113 -638h-191l27 153h-13
c-54 -106 -172 -171 -313 -171zM627 150c141 0 262 101 287 241l21 115l-234 -2c-172 -2 -269 -70 -270 -188c0 -101 76 -166 196 -166zM823 1865c-55 0 -81 -43 -89 -146h-152c9 177 103 288 242 288c160 0 199 -145 285 -145c54 0 80 41 87 142h153
c-9 -173 -105 -286 -242 -286c-160 0 -199 147 -284 147zM812 1628h226l211 -346h-206l-125 222h-16l-202 -222h-221z" />
    <glyph glyph-name="acircumflexgrave" unicode="&#x1ea7;" 
d="M555 -18c-193 0 -327 125 -329 305c-2 228 165 355 471 359l263 3l10 58c5 29 7 45 7 64c0 102 -81 169 -207 169c-109 0 -201 -55 -229 -137h-199c34 178 219 302 446 302c234 0 389 -123 389 -310c0 -43 -3 -71 -19 -157l-113 -638h-191l27 153h-13
c-54 -106 -172 -171 -313 -171zM627 150c141 0 262 101 287 241l21 115l-234 -2c-172 -2 -269 -70 -270 -188c0 -101 76 -166 196 -166zM1401 1658h-175l-177 316h205zM812 1628h226l211 -346h-206l-125 222h-16l-202 -222h-221z" />
    <glyph glyph-name="acircumflexhookabove" unicode="&#x1ea9;" 
d="M555 -18c-193 0 -327 125 -329 305c-2 228 165 355 471 359l263 3l10 58c5 29 7 45 7 64c0 102 -81 169 -207 169c-109 0 -201 -55 -229 -137h-199c34 178 219 302 446 302c234 0 389 -123 389 -310c0 -43 -3 -71 -19 -157l-113 -638h-191l27 153h-13
c-54 -106 -172 -171 -313 -171zM627 150c141 0 262 101 287 241l21 115l-234 -2c-172 -2 -269 -70 -270 -188c0 -101 76 -166 196 -166zM812 1628h226l211 -346h-206l-125 222h-16l-202 -222h-221zM1042 1854l10 125c37 17 88 27 138 27c127 0 212 -73 212 -184
c0 -100 -71 -185 -189 -225l-68 100c67 21 107 62 107 108c0 45 -39 74 -101 74c-38 0 -76 -9 -109 -25z" />
    <glyph glyph-name="abreve" unicode="&#x103;" 
d="M555 -18c-193 0 -327 125 -329 305c-2 228 165 355 471 359l263 3l10 58c5 29 7 45 7 64c0 102 -81 169 -207 169c-109 0 -201 -55 -229 -137h-199c34 178 219 302 446 302c234 0 389 -123 389 -310c0 -43 -3 -71 -19 -157l-113 -638h-191l27 153h-13
c-54 -106 -172 -171 -313 -171zM627 150c141 0 262 101 287 241l21 115l-234 -2c-172 -2 -269 -70 -270 -188c0 -101 76 -166 196 -166zM880 1244c-212 0 -360 153 -326 337h156c-14 -116 61 -194 186 -194c119 0 212 78 228 194h159c-26 -202 -187 -337 -403 -337z" />
    <glyph glyph-name="abreveacute" unicode="&#x1eaf;" 
d="M555 -18c-193 0 -327 125 -329 305c-2 228 165 355 471 359l263 3l10 58c5 29 7 45 7 64c0 102 -81 169 -207 169c-109 0 -201 -55 -229 -137h-199c34 178 219 302 446 302c234 0 389 -123 389 -310c0 -43 -3 -71 -19 -157l-113 -638h-191l27 153h-13
c-54 -106 -172 -171 -313 -171zM627 150c141 0 262 101 287 241l21 115l-234 -2c-172 -2 -269 -70 -270 -188c0 -101 76 -166 196 -166zM812 1658l253 316h200l-288 -316h-165zM880 1259c-212 0 -360 152 -326 336h155c-14 -115 61 -193 187 -193c119 0 211 78 227 193h160
c-27 -201 -188 -336 -403 -336z" />
    <glyph glyph-name="abrevetilde" unicode="&#x1eb5;" 
d="M555 -18c-193 0 -327 125 -329 305c-2 228 165 355 471 359l263 3l10 58c5 29 7 45 7 64c0 102 -81 169 -207 169c-109 0 -201 -55 -229 -137h-199c34 178 219 302 446 302c234 0 389 -123 389 -310c0 -43 -3 -71 -19 -157l-113 -638h-191l27 153h-13
c-54 -106 -172 -171 -313 -171zM627 150c141 0 262 101 287 241l21 115l-234 -2c-172 -2 -269 -70 -270 -188c0 -101 76 -166 196 -166zM880 1259c-212 0 -360 152 -326 336h156c-14 -115 61 -193 186 -193c119 0 212 78 228 193h159c-26 -201 -187 -336 -403 -336z
M822 1848c-58 0 -85 -46 -90 -152h-153c12 187 103 298 244 298c161 0 201 -156 287 -156c57 0 84 44 89 150h153c-11 -184 -104 -297 -244 -297c-161 0 -201 157 -286 157z" />
    <glyph glyph-name="abrevehookabove" unicode="&#x1eb3;" 
d="M555 -18c-193 0 -327 125 -329 305c-2 228 165 355 471 359l263 3l10 58c5 29 7 45 7 64c0 102 -81 169 -207 169c-109 0 -201 -55 -229 -137h-199c34 178 219 302 446 302c234 0 389 -123 389 -310c0 -43 -3 -71 -19 -157l-113 -638h-191l27 153h-13
c-54 -106 -172 -171 -313 -171zM627 150c141 0 262 101 287 241l21 115l-234 -2c-172 -2 -269 -70 -270 -188c0 -101 76 -166 196 -166zM880 1259c-212 0 -360 152 -326 336h156c-14 -115 61 -193 186 -193c119 0 212 78 228 193h159c-26 -201 -187 -336 -403 -336z
M729 1854l10 125c37 18 88 28 139 28c126 0 211 -74 211 -184c0 -101 -70 -186 -189 -226l-68 100c68 21 107 62 107 109c0 44 -39 73 -100 73c-39 0 -77 -9 -110 -25z" />
    <glyph glyph-name="abrevedotbelow" unicode="&#x1eb7;" 
d="M555 -18c-193 0 -327 125 -329 305c-2 228 165 355 471 359l263 3l10 58c5 29 7 45 7 64c0 102 -81 169 -207 169c-109 0 -201 -55 -229 -137h-199c34 178 219 302 446 302c234 0 389 -123 389 -310c0 -43 -3 -71 -19 -157l-113 -638h-191l27 153h-13
c-54 -106 -172 -171 -313 -171zM627 150c141 0 262 101 287 241l21 115l-234 -2c-172 -2 -269 -70 -270 -188c0 -101 76 -166 196 -166zM880 1244c-212 0 -360 153 -326 337h156c-14 -116 61 -194 186 -194c119 0 212 78 228 194h159c-26 -202 -187 -337 -403 -337z
M568 -458c-73 0 -135 63 -135 138s62 138 135 138c74 0 136 -63 136 -138s-62 -138 -136 -138z" />
    <glyph glyph-name="ainvertedbreve" unicode="&#x203;" 
d="M555 -18c-193 0 -327 125 -329 305c-2 228 165 355 471 359l263 3l10 58c5 29 7 45 7 64c0 102 -81 169 -207 169c-109 0 -201 -55 -229 -137h-199c34 178 219 302 446 302c234 0 389 -123 389 -310c0 -43 -3 -71 -19 -157l-113 -638h-191l27 153h-13
c-54 -106 -172 -171 -313 -171zM627 150c141 0 262 101 287 241l21 115l-234 -2c-172 -2 -269 -70 -270 -188c0 -101 76 -166 196 -166zM905 1595c212 0 360 -152 326 -336h-156c15 116 -60 193 -186 193c-119 0 -211 -78 -227 -193h-160c27 202 188 336 403 336z" />
    <glyph glyph-name="acaron" unicode="&#x1ce;" 
d="M555 -18c-193 0 -327 125 -329 305c-2 228 165 355 471 359l263 3l10 58c5 29 7 45 7 64c0 102 -81 169 -207 169c-109 0 -201 -55 -229 -137h-199c34 178 219 302 446 302c234 0 389 -123 389 -310c0 -43 -3 -71 -19 -157l-113 -638h-191l27 153h-13
c-54 -106 -172 -171 -313 -171zM627 150c141 0 262 101 287 241l21 115l-234 -2c-172 -2 -269 -70 -270 -188c0 -101 76 -166 196 -166zM974 1296h-226l-211 346h206l125 -222h16l202 222h221z" />
    <glyph glyph-name="adotaccent" unicode="&#x227;" 
d="M555 -18c-193 0 -327 125 -329 305c-2 228 165 355 471 359l263 3l10 58c5 29 7 45 7 64c0 102 -81 169 -207 169c-109 0 -201 -55 -229 -137h-199c34 178 219 302 446 302c234 0 389 -123 389 -310c0 -43 -3 -71 -19 -157l-113 -638h-191l27 153h-13
c-54 -106 -172 -171 -313 -171zM627 150c141 0 262 101 287 241l21 115l-234 -2c-172 -2 -269 -70 -270 -188c0 -101 76 -166 196 -166zM890 1295c-74 0 -136 62 -136 137c0 76 62 138 136 138c73 0 135 -62 135 -138c0 -75 -62 -137 -135 -137z" />
    <glyph glyph-name="adotbelow" unicode="&#x1ea1;" 
d="M555 -18c-193 0 -327 125 -329 305c-2 228 165 355 471 359l263 3l10 58c5 29 7 45 7 64c0 102 -81 169 -207 169c-109 0 -201 -55 -229 -137h-199c34 178 219 302 446 302c234 0 389 -123 389 -310c0 -43 -3 -71 -19 -157l-113 -638h-191l27 153h-13
c-54 -106 -172 -171 -313 -171zM627 150c141 0 262 101 287 241l21 115l-234 -2c-172 -2 -269 -70 -270 -188c0 -101 76 -166 196 -166zM568 -458c-73 0 -135 63 -135 138s62 138 135 138c74 0 136 -63 136 -138s-62 -138 -136 -138z" />
    <glyph glyph-name="ahookabove" unicode="&#x1ea3;" 
d="M555 -18c-193 0 -327 125 -329 305c-2 228 165 355 471 359l263 3l10 58c5 29 7 45 7 64c0 102 -81 169 -207 169c-109 0 -201 -55 -229 -137h-199c34 178 219 302 446 302c234 0 389 -123 389 -310c0 -43 -3 -71 -19 -157l-113 -638h-191l27 153h-13
c-54 -106 -172 -171 -313 -171zM627 150c141 0 262 101 287 241l21 115l-234 -2c-172 -2 -269 -70 -270 -188c0 -101 76 -166 196 -166zM716 1495l11 125c37 18 87 28 138 28c127 0 211 -74 211 -184c0 -101 -70 -186 -189 -226l-67 100c67 22 107 62 107 109
c0 45 -39 73 -101 73c-38 0 -76 -9 -110 -25z" />
    <glyph glyph-name="adblgrave" unicode="&#x201;" 
d="M970 1639l158 -343h-180l-182 343h204zM577 1639l159 -343h-181l-182 343h204zM935 506l-234 -2c-172 -2 -269 -70 -270 -188c0 -101 76 -166 196 -166c141 0 262 101 287 241zM881 153h-13c-54 -106 -172 -171 -313 -171c-193 0 -327 125 -329 305
c-2 228 165 355 471 359l263 3l10 58c5 29 7 45 7 64c0 102 -81 169 -207 169c-109 0 -201 -55 -229 -137h-199c34 178 219 302 446 302c234 0 389 -123 389 -310c0 -43 -3 -71 -19 -157l-113 -638h-191z" />
    <glyph glyph-name="amacron" unicode="&#x101;" 
d="M555 -18c-193 0 -327 125 -329 305c-2 228 165 355 471 359l263 3l10 58c5 29 7 45 7 64c0 102 -81 169 -207 169c-109 0 -201 -55 -229 -137h-199c34 178 219 302 446 302c234 0 389 -123 389 -310c0 -43 -3 -71 -19 -157l-113 -638h-191l27 153h-13
c-54 -106 -172 -171 -313 -171zM627 150c141 0 262 101 287 241l21 115l-234 -2c-172 -2 -269 -70 -270 -188c0 -101 76 -166 196 -166zM1217 1366h-677l26 151h678z" />
    <glyph glyph-name="aogonek" unicode="&#x105;" 
d="M627 150c138 0 266 105 290 241l22 115l-238 -2c-172 -2 -269 -70 -270 -188c0 -101 76 -166 196 -166zM871 30l21 123h-21c-52 -99 -186 -171 -316 -171c-193 0 -327 126 -329 305c-2 228 165 355 471 359l266 3l10 58c4 24 6 43 6 66c0 101 -80 167 -206 167
c-110 0 -204 -55 -232 -137h-199c34 177 220 302 449 302c234 0 389 -123 389 -310c0 -51 -3 -79 -19 -157l-112 -638c-155 -55 -220 -112 -220 -193c0 -62 49 -103 123 -103c21 0 29 1 45 5l-23 -130c-25 -10 -54 -13 -95 -13c-133 0 -230 85 -230 201
c0 109 53 174 222 263z" />
    <glyph glyph-name="b" unicode="b" 
d="M764 -18c-172 0 -295 91 -327 239h-15l-40 -221h-206l268 1515h205l-104 -592h19c58 115 177 185 316 185c223 0 365 -152 365 -391c0 -33 -2 -64 -11 -111l-34 -193c-48 -272 -208 -431 -436 -431zM721 160c145 0 252 101 282 268l30 168c4 28 6 58 6 93
c0 152 -94 245 -248 245c-146 0 -265 -112 -295 -276l-29 -165c-5 -25 -7 -49 -7 -74c0 -148 108 -259 261 -259z" />
    <glyph glyph-name="blinebelow" unicode="&#x1e07;" 
d="M764 -18c-172 0 -295 91 -327 239h-15l-40 -221h-206l268 1515h205l-104 -592h19c58 115 177 185 316 185c223 0 365 -152 365 -391c0 -33 -2 -64 -11 -111l-34 -193c-48 -272 -208 -431 -436 -431zM721 160c145 0 252 101 282 268l30 168c4 28 6 58 6 93
c0 152 -94 245 -248 245c-146 0 -265 -112 -295 -276l-29 -165c-5 -25 -7 -49 -7 -74c0 -148 108 -259 261 -259zM901 -401h-677l26 151h677z" />
    <glyph glyph-name="bdotbelow" unicode="&#x1e05;" 
d="M764 -18c-172 0 -295 91 -327 239h-15l-40 -221h-206l268 1515h205l-104 -592h19c58 115 177 185 316 185c223 0 365 -152 365 -391c0 -33 -2 -64 -11 -111l-34 -193c-48 -272 -208 -431 -436 -431zM721 160c145 0 252 101 282 268l30 168c4 28 6 58 6 93
c0 152 -94 245 -248 245c-146 0 -265 -112 -295 -276l-29 -165c-5 -25 -7 -49 -7 -74c0 -148 108 -259 261 -259zM576 -458c-73 0 -135 63 -135 138s62 138 135 138c74 0 136 -63 136 -138s-62 -138 -136 -138z" />
    <glyph glyph-name="bdotaccent" unicode="&#x1e03;" 
d="M764 -18c-172 0 -295 91 -327 239h-15l-40 -221h-206l268 1515h205l-104 -592h19c58 115 177 185 316 185c223 0 365 -152 365 -391c0 -33 -2 -64 -11 -111l-34 -193c-48 -272 -208 -431 -436 -431zM721 160c145 0 252 101 282 268l30 168c4 28 6 58 6 93
c0 152 -94 245 -248 245c-146 0 -265 -112 -295 -276l-29 -165c-5 -25 -7 -49 -7 -74c0 -148 108 -259 261 -259zM1031 1295c-74 0 -136 62 -136 137c0 76 62 138 136 138c73 0 135 -62 135 -138c0 -75 -62 -137 -135 -137z" />
    <glyph glyph-name="c" unicode="c" 
d="M1233 721h-198v9c0 122 -99 210 -240 210c-172 0 -273 -105 -312 -320l-12 -71c-8 -42 -14 -93 -14 -129c0 -172 91 -269 254 -269c126 0 222 64 259 179h198c-45 -213 -229 -351 -467 -351c-274 0 -444 159 -444 414c0 38 3 81 11 129c4 28 17 111 26 158
c48 270 239 432 508 432c258 0 432 -146 432 -364c0 -7 -1 -17 -1 -27z" />
    <glyph glyph-name="cacute" unicode="&#x107;" 
d="M1233 721h-198v9c0 122 -99 210 -240 210c-172 0 -273 -105 -312 -320l-12 -71c-8 -42 -14 -93 -14 -129c0 -172 91 -269 254 -269c126 0 222 64 259 179h198c-45 -213 -229 -351 -467 -351c-274 0 -444 159 -444 414c0 38 3 81 11 129c4 28 17 111 26 158
c48 270 239 432 508 432c258 0 432 -146 432 -364c0 -7 -1 -17 -1 -27zM917 1296h-210l300 343h239z" />
    <glyph glyph-name="ccaron" unicode="&#x10d;" 
d="M953 1296h-226l-211 346h206l125 -222h16l202 222h221zM1233 721h-198v9c0 122 -99 210 -240 210c-172 0 -273 -105 -312 -320l-12 -71c-8 -42 -14 -93 -14 -129c0 -172 91 -269 254 -269c126 0 222 64 259 179h198c-45 -213 -229 -351 -467 -351
c-274 0 -444 159 -444 414c0 38 3 81 11 129c4 28 17 111 26 158c48 270 239 432 508 432c258 0 432 -146 432 -364c0 -7 -1 -17 -1 -27z" />
    <glyph glyph-name="ccircumflex" unicode="&#x109;" 
d="M790 1625h226l211 -346h-206l-125 222h-16l-202 -222h-221zM1233 721h-198v9c0 122 -99 210 -240 210c-172 0 -273 -105 -312 -320l-12 -71c-8 -42 -14 -93 -14 -129c0 -172 91 -269 254 -269c126 0 222 64 259 179h198c-45 -213 -229 -351 -467 -351
c-274 0 -444 159 -444 414c0 38 3 81 11 129c4 28 17 111 26 158c48 270 239 432 508 432c258 0 432 -146 432 -364c0 -7 -1 -17 -1 -27z" />
    <glyph glyph-name="cdotaccent" unicode="&#x10b;" 
d="M868 1295c-73 0 -135 62 -135 137c0 76 62 138 135 138c74 0 136 -62 136 -138c0 -75 -62 -137 -136 -137zM1233 721h-198v9c0 122 -99 210 -240 210c-172 0 -273 -105 -312 -320l-12 -71c-8 -42 -14 -93 -14 -129c0 -172 91 -269 254 -269c126 0 222 64 259 179h198
c-45 -213 -229 -351 -467 -351c-274 0 -444 159 -444 414c0 38 3 81 11 129c4 28 17 111 26 158c48 270 239 432 508 432c258 0 432 -146 432 -364c0 -7 -1 -17 -1 -27z" />
    <glyph glyph-name="ccedilla" unicode="&#xe7;" 
d="M1233 721h-198v9c0 122 -99 210 -240 210c-172 0 -273 -105 -312 -320l-12 -71c-8 -42 -14 -93 -14 -129c0 -172 91 -269 254 -269c126 0 222 64 259 179h198c-43 -203 -212 -338 -434 -350l-56 -108c114 -6 179 -62 179 -153c0 -124 -102 -205 -261 -205
c-49 0 -108 9 -155 25l20 115c29 -11 94 -20 133 -20c73 0 115 24 115 68c0 47 -45 70 -133 70h-55l8 93l66 123c-211 36 -338 185 -338 405c0 38 3 81 11 129c4 28 17 111 26 158c48 270 239 432 508 432c258 0 432 -146 432 -364c0 -7 -1 -17 -1 -27z" />
    <glyph glyph-name="ccedillaacute" unicode="&#x1e09;" 
d="M1247 1639l-329 -343h-210l300 343h239zM529 -135l66 123c-211 36 -338 185 -338 405c0 38 3 81 11 129c4 28 17 111 26 158c48 270 239 432 508 432c258 0 432 -146 432 -364c0 -7 -1 -17 -1 -27h-198v9c0 122 -99 210 -240 210c-172 0 -273 -105 -312 -320l-12 -71
c-8 -42 -14 -93 -14 -129c0 -172 91 -269 254 -269c126 0 222 64 259 179h198c-43 -203 -212 -338 -434 -350l-56 -108c114 -6 179 -62 179 -153c0 -124 -102 -205 -261 -205c-49 0 -108 9 -155 25l20 115c29 -11 94 -20 133 -20c73 0 115 24 115 68c0 47 -45 70 -133 70
h-55z" />
    <glyph glyph-name="d" unicode="d" 
d="M704 1108c163 0 300 -92 325 -233h11l114 640h203l-267 -1515h-201l34 193h-14c-48 -128 -174 -211 -319 -211c-228 0 -373 151 -373 387c0 50 5 102 11 137l29 176c43 264 213 426 447 426zM743 931c-154 0 -253 -96 -285 -273l-27 -150c-4 -24 -7 -62 -7 -96
c0 -150 92 -248 236 -248c161 0 275 105 307 276l29 164c4 28 6 48 6 65c0 152 -110 262 -259 262z" />
    <glyph glyph-name="ddotaccent" unicode="&#x1e0b;" 
d="M704 1108c163 0 300 -92 325 -233h11l114 640h203l-267 -1515h-201l34 193h-14c-48 -128 -174 -211 -319 -211c-228 0 -373 151 -373 387c0 50 5 102 11 137l29 176c43 264 213 426 447 426zM743 931c-154 0 -253 -96 -285 -273l-27 -150c-4 -24 -7 -62 -7 -96
c0 -150 92 -248 236 -248c161 0 275 105 307 276l29 164c4 28 6 48 6 65c0 152 -110 262 -259 262zM728 1295c-73 0 -135 62 -135 137c0 76 62 138 135 138c74 0 136 -62 136 -138c0 -75 -62 -137 -136 -137z" />
    <glyph glyph-name="dcircumflexbelow" unicode="&#x1e13;" 
d="M704 1108c163 0 300 -92 325 -233h11l114 640h203l-267 -1515h-201l34 193h-14c-48 -128 -174 -211 -319 -211c-228 0 -373 151 -373 387c0 50 5 102 11 137l29 176c43 264 213 426 447 426zM743 931c-154 0 -253 -96 -285 -273l-27 -150c-4 -24 -7 -62 -7 -96
c0 -150 92 -248 236 -248c161 0 275 105 307 276l29 164c4 28 6 48 6 65c0 152 -110 262 -259 262zM492 -164h226l211 -346h-206l-125 221h-16l-202 -221h-221z" />
    <glyph glyph-name="dcommaaccent" unicode="&#x1e11;" 
d="M704 1108c163 0 300 -92 325 -233h11l114 640h203l-267 -1515h-201l34 193h-14c-48 -128 -174 -211 -319 -211c-228 0 -373 151 -373 387c0 50 5 102 11 137l29 176c43 264 213 426 447 426zM743 931c-154 0 -253 -96 -285 -273l-27 -150c-4 -24 -7 -62 -7 -96
c0 -150 92 -248 236 -248c161 0 275 105 307 276l29 164c4 28 6 48 6 65c0 152 -110 262 -259 262zM589 -516h-182l136 359h205z" />
    <glyph glyph-name="dlinebelow" unicode="&#x1e0f;" 
d="M704 1108c163 0 300 -92 325 -233h11l114 640h203l-267 -1515h-201l34 193h-14c-48 -128 -174 -211 -319 -211c-228 0 -373 151 -373 387c0 50 5 102 11 137l29 176c43 264 213 426 447 426zM743 931c-154 0 -253 -96 -285 -273l-27 -150c-4 -24 -7 -62 -7 -96
c0 -150 92 -248 236 -248c161 0 275 105 307 276l29 164c4 28 6 48 6 65c0 152 -110 262 -259 262zM901 -401h-677l26 151h677z" />
    <glyph glyph-name="dcaron" unicode="&#x10f;" 
d="M1358 1515h175l-119 -468h-138zM610 1108c155 0 257 -88 282 -221h10l112 628h187l-267 -1515h-182l32 181h-14c-50 -126 -146 -199 -278 -199c-209 0 -335 141 -335 370c0 54 4 100 11 134l36 214c45 258 192 408 406 408zM636 931c-141 0 -224 -80 -256 -263l-30 -173
c-4 -21 -7 -53 -7 -84c0 -154 76 -247 208 -247c148 0 243 90 275 266l31 185c5 26 7 47 7 82c0 134 -91 234 -228 234z" />
    <glyph glyph-name="ddotbelow" unicode="&#x1e0d;" 
d="M704 1108c163 0 300 -92 325 -233h11l114 640h203l-267 -1515h-201l34 193h-14c-48 -128 -174 -211 -319 -211c-228 0 -373 151 -373 387c0 50 5 102 11 137l29 176c43 264 213 426 447 426zM743 931c-154 0 -253 -96 -285 -273l-27 -150c-4 -24 -7 -62 -7 -96
c0 -150 92 -248 236 -248c161 0 275 105 307 276l29 164c4 28 6 48 6 65c0 152 -110 262 -259 262zM576 -458c-73 0 -135 63 -135 138s62 138 135 138c74 0 136 -63 136 -138s-62 -138 -136 -138z" />
    <glyph glyph-name="dcroat" unicode="&#x111;" 
d="M964 440l29 164c5 28 6 48 6 65c0 152 -109 262 -259 262c-154 0 -253 -96 -285 -273l-26 -150c-4 -24 -8 -62 -8 -96c0 -150 93 -248 236 -248c161 0 276 105 307 276zM1494 1388l-21 -121h-163l-223 -1267h-200l34 193h-14c-49 -128 -174 -211 -319 -211
c-229 0 -373 151 -373 387c0 50 5 102 10 137l29 176c44 264 214 426 447 426c163 0 301 -92 326 -233h11l70 392h-201l21 121h201l23 127h202l-22 -127h162z" />
    <glyph glyph-name="e" unicode="e" 
d="M794 947c-154 0 -265 -93 -296 -249c-1 -4 -11 -57 -11 -62h539c1 7 6 43 6 51c16 154 -81 260 -238 260zM1153 288c-30 -180 -221 -309 -455 -309c-269 0 -435 160 -435 421c0 43 4 85 16 156l21 134c43 259 236 421 506 421c261 0 438 -180 417 -424
c0 -18 -8 -85 -10 -99l-14 -93h-733c-2 -12 -9 -68 -9 -74c-14 -167 86 -277 252 -277c120 0 221 58 246 144h198z" />
    <glyph glyph-name="egrave" unicode="&#xe8;" 
d="M794 947c-154 0 -265 -93 -296 -249c-1 -4 -11 -57 -11 -62h539c1 7 6 43 6 51c16 154 -81 260 -238 260zM1153 288c-30 -180 -221 -309 -455 -309c-269 0 -435 160 -435 421c0 43 4 85 16 156l21 134c43 259 236 421 506 421c261 0 438 -180 417 -424
c0 -18 -8 -85 -10 -99l-14 -93h-733c-2 -12 -9 -68 -9 -74c-14 -167 86 -277 252 -277c120 0 221 58 246 144h198zM989 1296h-200l-209 343h230z" />
    <glyph glyph-name="edblgrave" unicode="&#x205;" 
d="M959 1639l158 -343h-180l-183 343h205zM566 1639l158 -343h-181l-182 343h205zM955 288h198c-30 -180 -221 -309 -455 -309c-269 0 -435 160 -435 421c0 43 4 85 16 156l21 134c43 259 236 421 506 421c261 0 438 -180 417 -424c0 -18 -8 -85 -10 -99l-14 -93h-733
c-2 -12 -9 -68 -9 -74c-14 -167 86 -277 252 -277c120 0 221 58 246 144zM487 636h539c1 7 6 43 6 51c16 154 -81 260 -238 260c-154 0 -265 -93 -296 -249c-1 -4 -11 -57 -11 -62z" />
    <glyph glyph-name="eacute" unicode="&#xe9;" 
d="M927 1296h-210l299 343h240zM955 288h198c-30 -180 -221 -309 -455 -309c-269 0 -435 160 -435 421c0 43 4 85 16 156l21 134c43 259 236 421 506 421c261 0 438 -180 417 -424c0 -18 -8 -85 -10 -99l-14 -93h-733c-2 -12 -9 -68 -9 -74c-14 -167 86 -277 252 -277
c120 0 221 58 246 144zM487 636h539c1 7 6 43 6 51c16 154 -81 260 -238 260c-154 0 -265 -93 -296 -249c-1 -4 -11 -57 -11 -62z" />
    <glyph glyph-name="ecircumflex" unicode="&#xea;" 
d="M794 947c-154 0 -265 -93 -296 -249c-1 -4 -11 -57 -11 -62h539c1 7 6 43 6 51c16 154 -81 260 -238 260zM1153 288c-30 -180 -221 -309 -455 -309c-269 0 -435 160 -435 421c0 43 4 85 16 156l21 134c43 259 236 421 506 421c261 0 438 -180 417 -424
c0 -18 -8 -85 -10 -99l-14 -93h-733c-2 -12 -9 -68 -9 -74c-14 -167 86 -277 252 -277c120 0 221 58 246 144h198zM800 1625h226l211 -346h-206l-125 222h-16l-202 -222h-221z" />
    <glyph glyph-name="ecircumflexhookabove" unicode="&#x1ec3;" 
d="M794 947c-154 0 -265 -93 -296 -249c-1 -4 -11 -57 -11 -62h539c1 7 6 43 6 51c16 154 -81 260 -238 260zM1153 288c-30 -180 -221 -309 -455 -309c-269 0 -435 160 -435 421c0 43 4 85 16 156l21 134c43 259 236 421 506 421c261 0 438 -180 417 -424
c0 -18 -8 -85 -10 -99l-14 -93h-733c-2 -12 -9 -68 -9 -74c-14 -167 86 -277 252 -277c120 0 221 58 246 144h198zM800 1628h226l211 -346h-206l-125 222h-16l-202 -222h-221zM1030 1854l10 125c37 17 88 27 139 27c127 0 211 -73 211 -184c0 -100 -70 -185 -189 -225
l-68 100c68 21 108 62 108 108c0 45 -39 74 -101 74c-39 0 -76 -9 -110 -25z" />
    <glyph glyph-name="ecircumflexgrave" unicode="&#x1ec1;" 
d="M794 947c-154 0 -265 -93 -296 -249c-1 -4 -11 -57 -11 -62h539c1 7 6 43 6 51c16 154 -81 260 -238 260zM1153 288c-30 -180 -221 -309 -455 -309c-269 0 -435 160 -435 421c0 43 4 85 16 156l21 134c43 259 236 421 506 421c261 0 438 -180 417 -424
c0 -18 -8 -85 -10 -99l-14 -93h-733c-2 -12 -9 -68 -9 -74c-14 -167 86 -277 252 -277c120 0 221 58 246 144h198zM1389 1658h-174l-177 316h204zM800 1628h226l211 -346h-206l-125 222h-16l-202 -222h-221z" />
    <glyph glyph-name="ecircumflextilde" unicode="&#x1ec5;" 
d="M794 947c-154 0 -265 -93 -296 -249c-1 -4 -11 -57 -11 -62h539c1 7 6 43 6 51c16 154 -81 260 -238 260zM1153 288c-30 -180 -221 -309 -455 -309c-269 0 -435 160 -435 421c0 43 4 85 16 156l21 134c43 259 236 421 506 421c261 0 438 -180 417 -424
c0 -18 -8 -85 -10 -99l-14 -93h-733c-2 -12 -9 -68 -9 -74c-14 -167 86 -277 252 -277c120 0 221 58 246 144h198zM811 1865c-55 0 -81 -43 -88 -146h-153c10 177 103 288 242 288c161 0 199 -145 285 -145c55 0 80 41 88 142h153c-9 -173 -105 -286 -242 -286
c-161 0 -199 147 -285 147zM800 1628h226l211 -346h-206l-125 222h-16l-202 -222h-221z" />
    <glyph glyph-name="ecircumflexdotbelow" unicode="&#x1ec7;" 
d="M794 947c-154 0 -265 -93 -296 -249c-1 -4 -11 -57 -11 -62h539c1 7 6 43 6 51c16 154 -81 260 -238 260zM1153 288c-30 -180 -221 -309 -455 -309c-269 0 -435 160 -435 421c0 43 4 85 16 156l21 134c43 259 236 421 506 421c261 0 438 -180 417 -424
c0 -18 -8 -85 -10 -99l-14 -93h-733c-2 -12 -9 -68 -9 -74c-14 -167 86 -277 252 -277c120 0 221 58 246 144h198zM800 1625h226l211 -346h-206l-125 222h-16l-202 -222h-221zM629 -458c-73 0 -135 63 -135 138s62 138 135 138c74 0 136 -63 136 -138s-62 -138 -136 -138z
" />
    <glyph glyph-name="ecircumflexacute" unicode="&#x1ebf;" 
d="M794 947c-154 0 -265 -93 -296 -249c-1 -4 -11 -57 -11 -62h539c1 7 6 43 6 51c16 154 -81 260 -238 260zM1153 288c-30 -180 -221 -309 -455 -309c-269 0 -435 160 -435 421c0 43 4 85 16 156l21 134c43 259 236 421 506 421c261 0 438 -180 417 -424
c0 -18 -8 -85 -10 -99l-14 -93h-733c-2 -12 -9 -68 -9 -74c-14 -167 86 -277 252 -277c120 0 221 58 246 144h198zM1120 1658l257 316h214l-287 -316h-184zM800 1628h226l211 -346h-206l-125 222h-16l-202 -222h-221z" />
    <glyph glyph-name="edieresis" unicode="&#xeb;" 
d="M794 947c-154 0 -265 -93 -296 -249c-1 -4 -11 -57 -11 -62h539c1 7 6 43 6 51c16 154 -81 260 -238 260zM1153 288c-30 -180 -221 -309 -455 -309c-269 0 -435 160 -435 421c0 43 4 85 16 156l21 134c43 259 236 421 506 421c261 0 438 -180 417 -424
c0 -18 -8 -85 -10 -99l-14 -93h-733c-2 -12 -9 -68 -9 -74c-14 -167 86 -277 252 -277c120 0 221 58 246 144h198zM685 1313c-68 0 -126 59 -126 129s58 129 126 129c67 0 126 -59 126 -129s-59 -129 -126 -129zM1105 1313c-67 0 -126 59 -126 129s59 129 126 129
c68 0 126 -59 126 -129s-58 -129 -126 -129z" />
    <glyph glyph-name="edotbelow" unicode="&#x1eb9;" 
d="M794 947c-154 0 -265 -93 -296 -249c-1 -4 -11 -57 -11 -62h539c1 7 6 43 6 51c16 154 -81 260 -238 260zM1153 288c-30 -180 -221 -309 -455 -309c-269 0 -435 160 -435 421c0 43 4 85 16 156l21 134c43 259 236 421 506 421c261 0 438 -180 417 -424
c0 -18 -8 -85 -10 -99l-14 -93h-733c-2 -12 -9 -68 -9 -74c-14 -167 86 -277 252 -277c120 0 221 58 246 144h198zM629 -458c-73 0 -135 63 -135 138s62 138 135 138c74 0 136 -63 136 -138s-62 -138 -136 -138z" />
    <glyph glyph-name="einvertedbreve" unicode="&#x207;" 
d="M794 947c-154 0 -265 -93 -296 -249c-1 -4 -11 -57 -11 -62h539c1 7 6 43 6 51c16 154 -81 260 -238 260zM1153 288c-30 -180 -221 -309 -455 -309c-269 0 -435 160 -435 421c0 43 4 85 16 156l21 134c43 259 236 421 506 421c261 0 438 -180 417 -424
c0 -18 -8 -85 -10 -99l-14 -93h-733c-2 -12 -9 -68 -9 -74c-14 -167 86 -277 252 -277c120 0 221 58 246 144h198zM893 1595c213 0 361 -152 327 -336h-156c14 116 -61 193 -186 193c-119 0 -212 -78 -228 -193h-159c26 202 187 336 402 336z" />
    <glyph glyph-name="ehookabove" unicode="&#x1ebb;" 
d="M794 947c-154 0 -265 -93 -296 -249c-1 -4 -11 -57 -11 -62h539c1 7 6 43 6 51c16 154 -81 260 -238 260zM1153 288c-30 -180 -221 -309 -455 -309c-269 0 -435 160 -435 421c0 43 4 85 16 156l21 134c43 259 236 421 506 421c261 0 438 -180 417 -424
c0 -18 -8 -85 -10 -99l-14 -93h-733c-2 -12 -9 -68 -9 -74c-14 -167 86 -277 252 -277c120 0 221 58 246 144h198zM705 1495l10 125c37 18 88 28 139 28c126 0 211 -74 211 -184c0 -101 -70 -186 -189 -226l-68 100c68 22 107 62 107 109c0 45 -39 73 -100 73
c-39 0 -77 -9 -110 -25z" />
    <glyph glyph-name="ecaron" unicode="&#x11b;" 
d="M794 947c-154 0 -265 -93 -296 -249c-1 -4 -11 -57 -11 -62h539c1 7 6 43 6 51c16 154 -81 260 -238 260zM1153 288c-30 -180 -221 -309 -455 -309c-269 0 -435 160 -435 421c0 43 4 85 16 156l21 134c43 259 236 421 506 421c261 0 438 -180 417 -424
c0 -18 -8 -85 -10 -99l-14 -93h-733c-2 -12 -9 -68 -9 -74c-14 -167 86 -277 252 -277c120 0 221 58 246 144h198zM963 1296h-226l-211 346h206l125 -222h16l202 222h221z" />
    <glyph glyph-name="emacron" unicode="&#x113;" 
d="M794 947c-154 0 -265 -93 -296 -249c-1 -4 -11 -57 -11 -62h539c1 7 6 43 6 51c16 154 -81 260 -238 260zM1153 288c-30 -180 -221 -309 -455 -309c-269 0 -435 160 -435 421c0 43 4 85 16 156l21 134c43 259 236 421 506 421c261 0 438 -180 417 -424
c0 -18 -8 -85 -10 -99l-14 -93h-733c-2 -12 -9 -68 -9 -74c-14 -167 86 -277 252 -277c120 0 221 58 246 144h198zM1206 1366h-678l27 151h677z" />
    <glyph glyph-name="emacrongrave" unicode="&#x1e15;" 
d="M794 947c-154 0 -265 -93 -296 -249c-1 -4 -11 -57 -11 -62h539c1 7 6 43 6 51c16 154 -81 260 -238 260zM1153 288c-30 -180 -221 -309 -455 -309c-269 0 -435 160 -435 421c0 43 4 85 16 156l21 134c43 259 236 421 506 421c261 0 438 -180 417 -424
c0 -18 -8 -85 -10 -99l-14 -93h-733c-2 -12 -9 -68 -9 -74c-14 -167 86 -277 252 -277c120 0 221 58 246 144h198zM1027 1668h-175l-187 303h205zM1205 1364h-677l26 152h678z" />
    <glyph glyph-name="emacronacute" unicode="&#x1e17;" 
d="M1206 1362h-678l26 152h678zM966 1666h-170l191 303h200zM955 288h198c-30 -180 -221 -309 -455 -309c-269 0 -435 160 -435 421c0 43 4 85 16 156l21 134c43 259 236 421 506 421c261 0 438 -180 417 -424c0 -18 -8 -85 -10 -99l-14 -93h-733c-2 -12 -9 -68 -9 -74
c-14 -167 86 -277 252 -277c120 0 221 58 246 144zM487 636h539c1 7 6 43 6 51c16 154 -81 260 -238 260c-154 0 -265 -93 -296 -249c-1 -4 -11 -57 -11 -62z" />
    <glyph glyph-name="etilde" unicode="&#x1ebd;" 
d="M794 947c-154 0 -265 -93 -296 -249c-1 -4 -11 -57 -11 -62h539c1 7 6 43 6 51c16 154 -81 260 -238 260zM1153 288c-30 -180 -221 -309 -455 -309c-269 0 -435 160 -435 421c0 43 4 85 16 156l21 134c43 259 236 421 506 421c261 0 438 -180 417 -424
c0 -18 -8 -85 -10 -99l-14 -93h-733c-2 -12 -9 -68 -9 -74c-14 -167 86 -277 252 -277c120 0 221 58 246 144h198zM731 1422c-57 0 -85 -46 -90 -152h-153c12 187 103 298 245 298c160 0 200 -156 286 -156c57 0 84 44 90 150h153c-12 -184 -105 -297 -245 -297
c-160 0 -200 157 -286 157z" />
    <glyph glyph-name="ecircumflexbelow" unicode="&#x1e19;" 
d="M794 947c-154 0 -265 -93 -296 -249c-1 -4 -11 -57 -11 -62h539c1 7 6 43 6 51c16 154 -81 260 -238 260zM1153 288c-30 -180 -221 -309 -455 -309c-269 0 -435 160 -435 421c0 43 4 85 16 156l21 134c43 259 236 421 506 421c261 0 438 -180 417 -424
c0 -18 -8 -85 -10 -99l-14 -93h-733c-2 -12 -9 -68 -9 -74c-14 -167 86 -277 252 -277c120 0 221 58 246 144h198zM544 -164h226l212 -346h-206l-126 221h-15l-203 -221h-220z" />
    <glyph glyph-name="ebreve" unicode="&#x115;" 
d="M794 947c-154 0 -265 -93 -296 -249c-1 -4 -11 -57 -11 -62h539c1 7 6 43 6 51c16 154 -81 260 -238 260zM1153 288c-30 -180 -221 -309 -455 -309c-269 0 -435 160 -435 421c0 43 4 85 16 156l21 134c43 259 236 421 506 421c261 0 438 -180 417 -424
c0 -18 -8 -85 -10 -99l-14 -93h-733c-2 -12 -9 -68 -9 -74c-14 -167 86 -277 252 -277c120 0 221 58 246 144h198zM869 1244c-212 0 -360 153 -326 337h155c-14 -116 61 -194 187 -194c119 0 211 78 227 194h160c-27 -202 -188 -337 -403 -337z" />
    <glyph glyph-name="etildebelow" unicode="&#x1e1b;" 
d="M794 947c-154 0 -265 -93 -296 -249c-1 -4 -11 -57 -11 -62h539c1 7 6 43 6 51c16 154 -81 260 -238 260zM1153 288c-30 -180 -221 -309 -455 -309c-269 0 -435 160 -435 421c0 43 4 85 16 156l21 134c43 259 236 421 506 421c261 0 438 -180 417 -424
c0 -18 -8 -85 -10 -99l-14 -93h-733c-2 -12 -9 -68 -9 -74c-14 -167 86 -277 252 -277c120 0 221 58 246 144h198zM486 -311c-57 0 -85 -46 -90 -152h-153c12 187 103 298 245 298c160 0 201 -156 286 -156c58 0 84 44 90 150h153c-11 -184 -105 -297 -245 -297
c-160 0 -200 157 -286 157z" />
    <glyph glyph-name="edotaccent" unicode="&#x117;" 
d="M794 947c-154 0 -265 -93 -296 -249c-1 -4 -11 -57 -11 -62h539c1 7 6 43 6 51c16 154 -81 260 -238 260zM1153 288c-30 -180 -221 -309 -455 -309c-269 0 -435 160 -435 421c0 43 4 85 16 156l21 134c43 259 236 421 506 421c261 0 438 -180 417 -424
c0 -18 -8 -85 -10 -99l-14 -93h-733c-2 -12 -9 -68 -9 -74c-14 -167 86 -277 252 -277c120 0 221 58 246 144h198zM878 1295c-73 0 -135 62 -135 137c0 76 62 138 135 138c74 0 136 -62 136 -138c0 -75 -62 -137 -136 -137z" />
    <glyph glyph-name="ecedilla" unicode="&#x229;" 
d="M487 636h539c1 7 6 43 6 51c16 154 -81 260 -238 260c-154 0 -265 -93 -296 -249c-1 -4 -11 -57 -11 -62zM279 556l21 134c43 259 236 421 506 421c261 0 438 -180 417 -424c0 -18 -8 -85 -10 -99l-14 -93h-733c-2 -12 -9 -68 -9 -74c-14 -167 86 -277 252 -277
c120 0 221 58 246 144h198c-27 -164 -189 -286 -394 -306l-58 -110c114 -6 179 -62 179 -153c0 -124 -102 -205 -260 -205c-50 0 -109 9 -156 25l20 115c29 -11 94 -20 133 -20c73 0 115 24 115 68c0 47 -45 70 -133 70h-55l8 93l64 119c-220 30 -353 182 -353 416
c0 43 4 85 16 156z" />
    <glyph glyph-name="ecedillabreve" unicode="&#x1e1d;" 
d="M1107 1581h160c-26 -202 -188 -337 -403 -337c-212 0 -360 153 -326 337h156c-15 -116 61 -194 186 -194c119 0 211 78 227 194zM487 636h539c1 7 6 43 6 51c16 154 -81 260 -238 260c-154 0 -265 -93 -296 -249c-1 -4 -11 -57 -11 -62zM279 556l21 134
c43 259 236 421 506 421c261 0 438 -180 417 -424c0 -18 -8 -85 -10 -99l-14 -93h-733c-2 -12 -9 -68 -9 -74c-14 -167 86 -277 252 -277c120 0 221 58 246 144h198c-27 -164 -189 -286 -394 -306l-58 -110c114 -6 179 -62 179 -153c0 -124 -102 -205 -260 -205
c-50 0 -109 9 -156 25l20 115c29 -11 94 -20 133 -20c73 0 115 24 115 68c0 47 -45 70 -133 70h-55l8 93l64 119c-220 30 -353 182 -353 416c0 43 4 85 16 156z" />
    <glyph glyph-name="eogonek" unicode="&#x119;" 
d="M854 -431c-134 0 -235 85 -235 198c0 87 48 154 161 225l-2 13c-25 -14 -60 -22 -90 -22c-260 -4 -425 159 -425 417c0 42 4 85 16 156l21 134c43 259 236 421 506 421c261 0 438 -180 417 -424c0 -19 -8 -85 -10 -99l-14 -93h-733c-2 -12 -9 -68 -9 -74
c-14 -167 86 -277 252 -277c124 0 234 59 259 144h196c-21 -105 -71 -168 -186 -250c-138 -100 -180 -147 -180 -224c0 -62 55 -106 131 -106c21 0 46 3 58 5l-22 -129c-28 -10 -66 -15 -111 -15zM794 947c-152 0 -262 -91 -294 -242c-2 -6 -12 -61 -13 -69h539
c1 7 6 43 6 51c16 154 -81 260 -238 260z" />
    <glyph glyph-name="f" unicode="f" 
d="M465 0l162 919h-291l28 165h292l18 102c39 225 182 324 458 324c50 0 219 -7 263 -19l-27 -158c-40 10 -211 19 -259 19c-138 0 -218 -54 -237 -159l-19 -109h469l-29 -165h-465l-163 -919h-200z" />
    <glyph glyph-name="fdotaccent" unicode="&#x1e1f;" 
d="M465 0l162 919h-291l28 165h292l18 102c39 225 182 324 458 324c50 0 219 -7 263 -19l-27 -158c-40 10 -211 19 -259 19c-138 0 -218 -54 -237 -159l-19 -109h469l-29 -165h-465l-163 -919h-200zM421 1295c-73 0 -136 62 -136 137c0 76 63 138 136 138
c74 0 136 -62 136 -138c0 -75 -62 -137 -136 -137z" />
    <glyph glyph-name="g" unicode="g" 
d="M1277 1090l-189 -1084c-48 -271 -227 -415 -517 -415c-251 0 -431 130 -431 310v21h198v-11c3 -93 109 -162 249 -162c169 0 271 90 304 266l33 192h-14c-48 -121 -177 -201 -326 -201c-217 0 -372 164 -372 395c0 45 6 104 13 145l21 130c45 267 216 432 446 432
c177 0 299 -85 334 -234h14l37 216h200zM959 454l23 131c6 35 9 65 9 87c0 154 -106 260 -258 260c-144 0 -254 -106 -286 -279l-18 -103c-6 -35 -10 -81 -10 -105c0 -160 98 -262 252 -262c143 0 259 110 288 271z" />
    <glyph glyph-name="gacute" unicode="&#x1f5;" 
d="M959 454l23 131c6 35 9 65 9 87c0 154 -106 260 -258 260c-144 0 -254 -106 -286 -279l-18 -103c-6 -35 -10 -81 -10 -105c0 -160 98 -262 252 -262c143 0 259 110 288 271zM1277 1090l-189 -1084c-48 -271 -227 -415 -517 -415c-251 0 -431 130 -431 310v21h198v-11
c3 -93 109 -162 249 -162c169 0 271 90 304 266l33 192h-14c-48 -121 -177 -201 -326 -201c-217 0 -372 164 -372 395c0 45 6 104 13 145l21 130c45 267 216 432 446 432c177 0 299 -85 334 -234h14l37 216h200zM870 1296h-211l300 343h239z" />
    <glyph glyph-name="gcaron" unicode="&#x1e7;" 
d="M905 1296h-226l-211 346h206l125 -222h16l202 222h221zM1277 1090l-189 -1084c-48 -271 -227 -415 -517 -415c-251 0 -431 130 -431 310v21h198v-11c3 -93 109 -162 249 -162c169 0 271 90 304 266l33 192h-14c-48 -121 -177 -201 -326 -201c-217 0 -372 164 -372 395
c0 45 6 104 13 145l21 130c45 267 216 432 446 432c177 0 299 -85 334 -234h14l37 216h200zM959 454l23 131c6 35 9 65 9 87c0 154 -106 260 -258 260c-144 0 -254 -106 -286 -279l-18 -103c-6 -35 -10 -81 -10 -105c0 -160 98 -262 252 -262c143 0 259 110 288 271z" />
    <glyph glyph-name="gcircumflex" unicode="&#x11d;" 
d="M742 1625h226l211 -346h-206l-125 222h-16l-202 -222h-221zM1277 1090l-189 -1084c-48 -271 -227 -415 -517 -415c-251 0 -431 130 -431 310v21h198v-11c3 -93 109 -162 249 -162c169 0 271 90 304 266l33 192h-14c-48 -121 -177 -201 -326 -201
c-217 0 -372 164 -372 395c0 45 6 104 13 145l21 130c45 267 216 432 446 432c177 0 299 -85 334 -234h14l37 216h200zM959 454l23 131c6 35 9 65 9 87c0 154 -106 260 -258 260c-144 0 -254 -106 -286 -279l-18 -103c-6 -35 -10 -81 -10 -105c0 -160 98 -262 252 -262
c143 0 259 110 288 271z" />
    <glyph glyph-name="gbreve" unicode="&#x11f;" 
d="M1054 1581h160c-26 -202 -188 -337 -403 -337c-212 0 -360 153 -326 337h156c-15 -116 61 -194 186 -194c119 0 211 78 227 194zM1277 1090l-189 -1084c-48 -271 -227 -415 -517 -415c-251 0 -431 130 -431 310v21h198v-11c3 -93 109 -162 249 -162c169 0 271 90 304 266
l33 192h-14c-48 -121 -177 -201 -326 -201c-217 0 -372 164 -372 395c0 45 6 104 13 145l21 130c45 267 216 432 446 432c177 0 299 -85 334 -234h14l37 216h200zM959 454l23 131c6 35 9 65 9 87c0 154 -106 260 -258 260c-144 0 -254 -106 -286 -279l-18 -103
c-6 -35 -10 -81 -10 -105c0 -160 98 -262 252 -262c143 0 259 110 288 271z" />
    <glyph glyph-name="gmacron" unicode="&#x1e21;" 
d="M1148 1366h-677l26 151h677zM1277 1090l-189 -1084c-48 -271 -227 -415 -517 -415c-251 0 -431 130 -431 310v21h198v-11c3 -93 109 -162 249 -162c169 0 271 90 304 266l33 192h-14c-48 -121 -177 -201 -326 -201c-217 0 -372 164 -372 395c0 45 6 104 13 145l21 130
c45 267 216 432 446 432c177 0 299 -85 334 -234h14l37 216h200zM959 454l23 131c6 35 9 65 9 87c0 154 -106 260 -258 260c-144 0 -254 -106 -286 -279l-18 -103c-6 -35 -10 -81 -10 -105c0 -160 98 -262 252 -262c143 0 259 110 288 271z" />
    <glyph glyph-name="gdotaccent" unicode="&#x121;" 
d="M820 1295c-73 0 -135 62 -135 137c0 76 62 138 135 138c74 0 136 -62 136 -138c0 -75 -62 -137 -136 -137zM1277 1090l-189 -1084c-48 -271 -227 -415 -517 -415c-251 0 -431 130 -431 310v21h198v-11c3 -93 109 -162 249 -162c169 0 271 90 304 266l33 192h-14
c-48 -121 -177 -201 -326 -201c-217 0 -372 164 -372 395c0 45 6 104 13 145l21 130c45 267 216 432 446 432c177 0 299 -85 334 -234h14l37 216h200zM959 454l23 131c6 35 9 65 9 87c0 154 -106 260 -258 260c-144 0 -254 -106 -286 -279l-18 -103c-6 -35 -10 -81 -10 -105
c0 -160 98 -262 252 -262c143 0 259 110 288 271z" />
    <glyph glyph-name="gcommaaccent" unicode="&#x123;" 
d="M892 1266h-182l136 359h205zM1277 1090l-189 -1084c-48 -271 -227 -415 -517 -415c-251 0 -431 130 -431 310v21h198v-11c3 -93 109 -162 249 -162c169 0 271 90 304 266l33 192h-14c-48 -121 -177 -201 -326 -201c-217 0 -372 164 -372 395c0 45 6 104 13 145l21 130
c45 267 216 432 446 432c177 0 299 -85 334 -234h14l37 216h200zM959 454l23 131c6 35 9 65 9 87c0 154 -106 260 -258 260c-144 0 -254 -106 -286 -279l-18 -103c-6 -35 -10 -81 -10 -105c0 -160 98 -262 252 -262c143 0 259 110 288 271z" />
    <glyph glyph-name="h" unicode="h" 
d="M173 0l268 1515h194l-109 -610h13c59 126 185 204 335 204c206 0 344 -136 344 -342c0 -35 -5 -76 -16 -143l-109 -624h-200l108 612c7 38 11 75 11 103c0 128 -88 215 -221 215c-150 0 -272 -108 -304 -287l-113 -643h-201z" />
    <glyph glyph-name="hdieresis" unicode="&#x1e27;" 
d="M173 0l268 1515h194l-109 -610h13c59 126 185 204 335 204c206 0 344 -136 344 -342c0 -35 -5 -76 -16 -143l-109 -624h-200l108 612c7 38 11 75 11 103c0 128 -88 215 -221 215c-150 0 -272 -108 -304 -287l-113 -643h-201zM384 1714c-67 0 -126 59 -126 129
c0 71 59 130 126 130c68 0 126 -59 126 -130c0 -70 -58 -129 -126 -129zM805 1714c-68 0 -126 59 -126 129c0 71 58 130 126 130s126 -59 126 -130c0 -70 -58 -129 -126 -129z" />
    <glyph glyph-name="hcaron" unicode="&#x21f;" 
d="M173 0l268 1515h194l-109 -610h13c59 126 185 204 335 204c206 0 344 -136 344 -342c0 -35 -5 -76 -16 -143l-109 -624h-200l108 612c7 38 11 75 11 103c0 128 -88 215 -221 215c-150 0 -272 -108 -304 -287l-113 -643h-201zM473 1677l-230 316h190l137 -198h14l207 198
h210l-340 -316h-188z" />
    <glyph glyph-name="hcircumflex" unicode="&#x125;" 
d="M173 0l268 1515h194l-109 -610h13c59 126 185 204 335 204c206 0 344 -136 344 -342c0 -35 -5 -76 -16 -143l-109 -624h-200l108 612c7 38 11 75 11 103c0 128 -88 215 -221 215c-150 0 -272 -108 -304 -287l-113 -643h-201zM723 1997l230 -316h-190l-137 197h-14
l-207 -197h-210l340 316h188z" />
    <glyph glyph-name="hdotbelow" unicode="&#x1e25;" 
d="M173 0l268 1515h194l-109 -610h13c59 126 185 204 335 204c206 0 344 -136 344 -342c0 -35 -5 -76 -16 -143l-109 -624h-200l108 612c7 38 11 75 11 103c0 128 -88 215 -221 215c-150 0 -272 -108 -304 -287l-113 -643h-201zM577 -458c-74 0 -136 63 -136 138
s62 138 136 138c73 0 135 -63 135 -138s-62 -138 -135 -138z" />
    <glyph glyph-name="hdotaccent" unicode="&#x1e23;" 
d="M173 0l268 1515h194l-109 -610h13c59 126 185 204 335 204c206 0 344 -136 344 -342c0 -35 -5 -76 -16 -143l-109 -624h-200l108 612c7 38 11 75 11 103c0 128 -88 215 -221 215c-150 0 -272 -108 -304 -287l-113 -643h-201zM1031 1295c-74 0 -136 62 -136 137
c0 76 62 138 136 138c73 0 135 -62 135 -138c0 -75 -62 -137 -135 -137z" />
    <glyph glyph-name="hbrevebelow" unicode="&#x1e2b;" 
d="M173 0l268 1515h194l-109 -610h13c59 126 185 204 335 204c206 0 344 -136 344 -342c0 -35 -5 -76 -16 -143l-109 -624h-200l108 612c7 38 11 75 11 103c0 128 -88 215 -221 215c-150 0 -272 -108 -304 -287l-113 -643h-201zM585 -470c-212 0 -360 153 -326 337h156
c-15 -116 60 -193 186 -193c119 0 211 78 227 193h160c-27 -202 -188 -337 -403 -337z" />
    <glyph glyph-name="hcedilla" unicode="&#x1e29;" 
d="M223 -1l-50 1l268 1515h194l-109 -610h13c59 127 186 204 335 204c206 0 344 -136 344 -342c0 -34 -4 -73 -16 -143l-109 -624h-200l108 612c8 42 11 76 11 103c0 129 -89 215 -221 215c-153 0 -272 -112 -304 -287l-113 -643l-37 -129c95 -17 148 -72 148 -152
c0 -121 -106 -205 -260 -205c-49 0 -108 9 -156 25l20 115c32 -11 96 -20 133 -20c76 0 115 23 115 68c0 48 -44 71 -135 71h-34l18 99z" />
    <glyph glyph-name="hbar" unicode="&#x127;" 
d="M526 905h13c59 126 185 204 335 204c206 0 344 -136 344 -342c0 -35 -5 -76 -16 -143l-109 -624h-200l108 612c7 38 11 75 11 103c0 128 -88 215 -221 215c-150 0 -272 -108 -304 -287l-113 -643h-201l224 1268h-152l21 121h153l22 126h194l-23 -126h254l-21 -121h-254z
" />
    <glyph glyph-name="hlinebelow" unicode="&#x1e96;" 
d="M173 0l268 1515h194l-109 -610h13c59 126 185 204 335 204c206 0 344 -136 344 -342c0 -35 -5 -76 -16 -143l-109 -624h-200l108 612c7 38 11 75 11 103c0 128 -88 215 -221 215c-150 0 -272 -108 -304 -287l-113 -643h-201zM901 -401h-677l26 151h678z" />
    <glyph glyph-name="i" unicode="i" 
d="M913 1345c-90 0 -155 62 -155 148c0 87 65 149 155 149c89 0 155 -62 155 -149c0 -86 -66 -148 -155 -148zM1111 0h-915l28 162h366l137 766h-359l27 162h556l-164 -928h351z" />
    <glyph glyph-name="idotaccent" 
d="M1111 0h-915l28 162h366l137 766h-359l27 162h556l-164 -928h351zM915 1295c-74 0 -136 62 -136 137c0 76 62 138 136 138c73 0 135 -62 135 -138c0 -75 -62 -137 -135 -137z" />
    <glyph glyph-name="igrave" unicode="&#xec;" 
d="M1111 0h-915l28 162h366l137 766h-359l27 162h556l-164 -928h351zM1026 1296h-200l-210 343h230z" />
    <glyph glyph-name="idblgrave" unicode="&#x209;" 
d="M995 1639l158 -343h-180l-182 343h204zM602 1639l158 -343h-180l-182 343h204zM1111 0h-915l28 162h366l137 766h-359l27 162h556l-164 -928h351z" />
    <glyph glyph-name="iacute" unicode="&#xed;" 
d="M964 1296h-211l300 343h239zM1111 0h-915l28 162h366l137 766h-359l27 162h556l-164 -928h351z" />
    <glyph glyph-name="icircumflex" unicode="&#xee;" 
d="M1111 0h-915l28 162h366l137 766h-359l27 162h556l-164 -928h351zM836 1625h226l211 -346h-206l-125 222h-16l-202 -222h-221z" />
    <glyph glyph-name="icaron" unicode="&#x1d0;" 
d="M1111 0h-915l28 162h366l137 766h-359l27 162h556l-164 -928h351zM999 1296h-226l-211 346h206l125 -222h16l202 222h221z" />
    </font>
</defs>
</svg>
