<?xml version="1.0" standalone="no"?>
<!DOCTYPE svg PUBLIC "-//W3C//DTD SVG 1.1//EN" "http://www.w3.org/Graphics/SVG/1.1/DTD/svg11.dtd" >
<svg xmlns="http://www.w3.org/2000/svg" xmlns:xlink="http://www.w3.org/1999/xlink" version="1.1">
<metadata>
Created by FontForge 20170812 at Fri May  5 01:33:48 2017
 By www-data

</metadata>
<defs>
<font id="SFMono-SemiboldItalic" horiz-adv-x="1266" >
  <font-face 
    font-family="SFMono"
    font-weight="600"
    font-style="italic"
    font-stretch="normal"
    units-per-em="2048"
    panose-1="2 11 0 9 0 0 2 0 0 0"
    ascent="1638"
    descent="-410"
    x-height="1095"
    cap-height="1443"
    bbox="-62 -595 1688 2323"
    underline-thickness="100"
    underline-position="-200"
    slope="-10"
    stemh="149"
    stemv="189"
    unicode-range="U+0020-FB02"
  />
<missing-glyph 
 />
    <glyph glyph-name=".notdef" 
 />
    <glyph glyph-name="glyph1" 
 />
    <glyph glyph-name="nonmarkingreturn" horiz-adv-x="0" 
 />
    <glyph glyph-name="space" unicode=" " 
 />
    <glyph glyph-name="A" unicode="A" 
d="M560 571h352l-60 619h-10zM967 0l-37 379h-458l-173 -379h-251l700 1443h278l188 -1443h-247z" />
    <glyph glyph-name="Agrave" unicode="&#xc0;" 
d="M1009 1606h-223l-234 312h253zM560 571h352l-60 619h-10zM967 0l-37 379h-458l-173 -379h-251l700 1443h278l188 -1443h-247z" />
    <glyph glyph-name="Aacute" unicode="&#xc1;" 
d="M1343 1918l-342 -312h-235l312 312h265zM560 571h352l-60 619h-10zM748 1443h278l188 -1443h-247l-37 379h-458l-173 -379h-251z" />
    <glyph glyph-name="Adieresis" unicode="&#xc4;" 
d="M723 1633c-73 0 -135 63 -135 138c0 76 62 139 135 139s135 -63 135 -139c0 -75 -62 -138 -135 -138zM560 571h352l-60 619h-10zM748 1443h278l188 -1443h-247l-37 379h-458l-173 -379h-251zM1162 1910c73 0 135 -63 135 -139c0 -75 -62 -138 -135 -138s-136 63 -136 138
c0 76 63 139 136 139z" />
    <glyph glyph-name="Adieresismacron" unicode="&#x1de;" 
d="M560 571h352l-60 619h-10zM748 1443h278l188 -1443h-247l-37 379h-458l-173 -379h-251zM843 1695c0 -73 -57 -132 -128 -132s-128 59 -128 132c0 74 57 133 128 133s128 -59 128 -133zM1144 1828c71 0 128 -59 128 -133c0 -73 -57 -132 -128 -132s-128 59 -128 132
c0 74 57 133 128 133zM632 2101h703l-25 -148h-704z" />
    <glyph glyph-name="Aring" unicode="&#xc5;" 
d="M925 1845c-56 0 -98 -41 -98 -97c0 -55 42 -96 98 -96s98 41 98 96c0 56 -42 97 -98 97zM925 1553c-113 0 -199 85 -199 196s86 195 199 195s198 -84 198 -195s-85 -196 -198 -196zM560 571h352l-60 619h-10zM967 0l-37 379h-458l-173 -379h-251l700 1443h278l188 -1443
h-247z" />
    <glyph glyph-name="Aringacute" unicode="&#x1fa;" 
d="M1229 2184l-163 -182h-193l138 182h218zM931 1839c-56 0 -98 -41 -98 -97s42 -97 98 -97c57 0 98 41 98 97s-42 97 -98 97zM931 1547c-112 0 -198 84 -198 196c0 110 85 194 198 194s198 -84 198 -194c0 -112 -85 -196 -198 -196zM560 571h352l-60 619h-10zM748 1443h278
l188 -1443h-247l-37 379h-458l-173 -379h-251z" />
    <glyph glyph-name="Atilde" unicode="&#xc3;" 
d="M560 571h352l-60 619h-10zM748 1443h278l188 -1443h-247l-37 379h-458l-173 -379h-251zM1159 1885h153c-15 -167 -111 -284 -246 -284c-156 0 -186 151 -280 151c-52 0 -85 -47 -95 -139h-154c17 176 111 289 246 289c161 0 195 -153 281 -153c51 0 84 47 95 136z" />
    <glyph glyph-name="Abrevegrave" unicode="&#x1eb0;" 
d="M1063 1892h-175l-157 238h209zM560 571h352l-60 619h-10zM748 1443h278l188 -1443h-247l-37 379h-458l-173 -379h-251zM1146 1880h177c-22 -173 -186 -300 -395 -300c-215 0 -358 125 -348 300h176c3 -96 74 -159 182 -159c112 0 196 66 208 159z" />
    <glyph glyph-name="Adotmacron" unicode="&#x1e0;" 
d="M560 571h352l-60 619h-10zM748 1443h278l188 -1443h-247l-37 379h-458l-173 -379h-251zM1057 1706c0 -76 -61 -137 -135 -137s-134 61 -134 137c0 77 60 138 134 138s135 -61 135 -138zM639 2101h704l-25 -148h-704z" />
    <glyph glyph-name="Aringbelow" unicode="&#x1e00;" 
d="M574 -467c61 0 108 48 108 110s-47 110 -108 110c-62 0 -109 -48 -109 -110s47 -110 109 -110zM574 -120c128 0 233 -106 233 -237c0 -130 -105 -237 -233 -237c-129 0 -234 107 -234 237c0 131 105 237 234 237zM560 571h352l-60 619h-10zM1214 0h-247l-37 379h-458
l-173 -379h-251l700 1443h278z" />
    <glyph glyph-name="Acircumflex" unicode="&#xc2;" 
d="M962 1802l-198 -196h-230l339 324h218l226 -324h-211l-128 196h-16zM560 571h352l-60 619h-10zM748 1443h278l188 -1443h-247l-37 379h-458l-173 -379h-251z" />
    <glyph glyph-name="Acircumflexdotbelow" unicode="&#x1eac;" 
d="M962 1802l-198 -196h-230l339 324h218l226 -324h-211l-128 196h-16zM577 -169c79 0 145 -67 145 -148c0 -82 -66 -149 -145 -149s-146 67 -146 149c0 81 67 148 146 148zM560 571h352l-60 619h-10zM748 1443h278l188 -1443h-247l-37 379h-458l-173 -379h-251z" />
    <glyph glyph-name="Acircumflexacute" unicode="&#x1ea4;" 
d="M560 571h352l-60 619h-10zM748 1443h278l188 -1443h-247l-37 379h-458l-173 -379h-251zM832 1829h235l234 -250h-222l-131 146h-17l-183 -146h-237zM1418 2130h230l-266 -267h-206z" />
    <glyph glyph-name="Acircumflextilde" unicode="&#x1eaa;" 
d="M1211 2138h152c-14 -139 -111 -242 -239 -242c-162 0 -176 123 -271 123c-49 0 -80 -38 -89 -109h-152c14 148 110 246 239 246c162 0 177 -123 272 -123c47 0 79 38 88 105zM560 571h352l-60 619h-10zM748 1443h278l188 -1443h-247l-37 379h-458l-173 -379h-251z
M834 1829h234l234 -250h-222l-131 146h-17l-183 -146h-237z" />
    <glyph glyph-name="Acircumflexgrave" unicode="&#x1ea6;" 
d="M1434 1863h-195l-175 267h219zM560 571h352l-60 619h-10zM748 1443h278l188 -1443h-247l-37 379h-458l-173 -379h-251zM835 1829h235l234 -250h-224l-132 146h-16l-183 -146h-235z" />
    <glyph glyph-name="Acircumflexhookabove" unicode="&#x1ea8;" 
d="M560 571h352l-60 619h-10zM748 1443h278l188 -1443h-247l-37 379h-458l-173 -379h-251zM835 1829h235l234 -250h-224l-132 146h-16l-183 -146h-235zM1129 2014l22 124c43 13 87 20 130 20c113 0 193 -65 193 -164c0 -104 -72 -186 -195 -224l-69 89c71 23 111 65 111 106
c0 42 -32 66 -89 66c-34 0 -68 -6 -103 -17z" />
    <glyph glyph-name="Abreve" unicode="&#x102;" 
d="M560 571h352l-60 619h-10zM748 1443h278l188 -1443h-247l-37 379h-458l-173 -379h-251zM1157 1923h177c-34 -195 -200 -324 -413 -324s-356 141 -329 324h171c-10 -108 58 -179 170 -179s203 72 224 179z" />
    <glyph glyph-name="Abreveacute" unicode="&#x1eae;" 
d="M1261 2130l-241 -238h-188l206 238h223zM560 571h352l-60 619h-10zM748 1443h278l188 -1443h-247l-37 379h-458l-173 -379h-251zM1146 1880h177c-22 -173 -186 -300 -395 -300c-215 0 -358 125 -348 300h176c3 -96 74 -159 182 -159c112 0 196 66 208 159z" />
    <glyph glyph-name="Abrevetilde" unicode="&#x1eb4;" 
d="M1206 2124h151c-14 -134 -112 -230 -234 -230c-148 0 -191 118 -284 118c-53 0 -92 -39 -95 -97h-158c5 132 113 233 250 233c153 0 195 -118 288 -118c46 0 76 34 82 94zM560 571h352l-60 619h-10zM748 1443h278l188 -1443h-247l-37 379h-458l-173 -379h-251zM584 1840
h163c13 -80 83 -130 187 -130c103 0 183 51 205 130h170c-34 -155 -187 -260 -384 -260c-205 0 -335 99 -341 260z" />
    <glyph glyph-name="Abrevehookabove" unicode="&#x1eb2;" 
d="M933 1800l-66 84c63 22 101 61 101 103c0 38 -29 59 -81 59c-38 0 -82 -7 -106 -18l21 116c39 13 88 21 134 21c108 0 182 -60 182 -148c0 -95 -67 -173 -185 -217zM560 571h352l-60 619h-10zM748 1443h278l188 -1443h-247l-37 379h-458l-173 -379h-251zM1145 1860h170
c-26 -167 -181 -280 -388 -280c-213 0 -344 107 -340 280h162c4 -93 74 -150 187 -150c114 0 196 59 209 150z" />
    <glyph glyph-name="Abrevedotbelow" unicode="&#x1eb6;" 
d="M577 -169c79 0 145 -67 145 -148c0 -82 -66 -149 -145 -149s-146 67 -146 149c0 81 67 148 146 148zM560 571h352l-60 619h-10zM748 1443h278l188 -1443h-247l-37 379h-458l-173 -379h-251zM1157 1923h177c-34 -195 -200 -324 -413 -324s-356 141 -329 324h171
c-10 -108 58 -179 170 -179s203 72 224 179z" />
    <glyph glyph-name="Ainvertedbreve" unicode="&#x202;" 
d="M560 571h352l-60 619h-10zM748 1443h278l188 -1443h-247l-37 379h-458l-173 -379h-251zM748 1599h-177c35 195 201 324 414 324s356 -141 328 -324h-171c11 108 -57 179 -169 179s-204 -72 -225 -179z" />
    <glyph glyph-name="Acaron" unicode="&#x1cd;" 
d="M1023 1601h-218l-226 324h211l128 -196h16l198 196h230zM560 571h352l-60 619h-10zM748 1443h278l188 -1443h-247l-37 379h-458l-173 -379h-251z" />
    <glyph glyph-name="Adotaccent" unicode="&#x226;" 
d="M944 1615c-80 0 -146 67 -146 148c0 82 66 149 146 149c79 0 145 -67 145 -149c0 -81 -66 -148 -145 -148zM560 571h352l-60 619h-10zM967 0l-37 379h-458l-173 -379h-251l700 1443h278l188 -1443h-247z" />
    <glyph glyph-name="Adotbelow" unicode="&#x1ea0;" 
d="M577 -169c79 0 145 -67 145 -148c0 -82 -66 -149 -145 -149s-146 67 -146 149c0 81 67 148 146 148zM560 571h352l-60 619h-10zM1214 0h-247l-37 379h-458l-173 -379h-251l700 1443h278z" />
    <glyph glyph-name="Ahookabove" unicode="&#x1ea2;" 
d="M924 1565l-65 99c73 24 115 69 115 112c0 44 -36 71 -99 71c-44 0 -91 -9 -117 -21l14 133c41 16 93 25 143 25c129 0 216 -72 216 -183c0 -107 -80 -195 -207 -236zM560 571h352l-60 619h-10zM967 0l-37 379h-458l-173 -379h-251l700 1443h278l188 -1443h-247z" />
    <glyph glyph-name="Adblgrave" unicode="&#x200;" 
d="M1217 1606h-198l-208 312h219zM814 1606h-198l-208 312h219zM560 571h352l-60 619h-10zM748 1443h278l188 -1443h-247l-37 379h-458l-173 -379h-251z" />
    <glyph glyph-name="Amacron" unicode="&#x100;" 
d="M560 571h352l-60 619h-10zM748 1443h278l188 -1443h-247l-37 379h-458l-173 -379h-251zM606 1838h696l-29 -166h-695z" />
    <glyph glyph-name="Aogonek" unicode="&#x104;" 
d="M843 1190l-287 -619h359l-63 619h-9zM964 28l-35 351h-453l-177 -379h-251l700 1443h279l188 -1443c-165 -32 -254 -98 -254 -187c0 -63 52 -106 129 -106c25 0 49 2 66 6l-25 -142c-28 -10 -70 -16 -118 -16c-149 0 -252 87 -252 214c0 104 72 193 203 259z" />
    <glyph glyph-name="B" unicode="B" 
d="M621 1252l-75 -415h231c163 0 276 95 277 230c0 120 -79 185 -226 185h-207zM431 194h267c192 0 315 98 315 252c0 135 -97 209 -276 209h-222zM161 0l254 1443h467c265 0 424 -126 423 -334c-1 -177 -124 -318 -310 -353l-3 -14c163 -28 270 -157 269 -325
c-1 -250 -209 -417 -525 -417h-575z" />
    <glyph glyph-name="Blinebelow" unicode="&#x1e06;" 
d="M621 1252l-75 -415h231c163 0 276 95 277 230c0 120 -79 185 -226 185h-207zM431 194h267c192 0 315 98 315 252c0 135 -97 209 -276 209h-222zM161 0l254 1443h467c265 0 424 -126 423 -334c-1 -177 -124 -318 -310 -353l-3 -14c163 -28 270 -157 269 -325
c-1 -250 -209 -417 -525 -417h-575zM854 -413h-696l29 165h696z" />
    <glyph glyph-name="Bdotbelow" unicode="&#x1e04;" 
d="M621 1252l-75 -415h231c163 0 276 95 277 230c0 120 -79 185 -226 185h-207zM431 194h267c192 0 315 98 315 252c0 135 -97 209 -276 209h-222zM161 0l254 1443h467c265 0 424 -126 423 -334c-1 -177 -124 -318 -310 -353l-3 -14c163 -28 270 -157 269 -325
c-1 -250 -209 -417 -525 -417h-575zM522 -472c-80 0 -146 67 -146 149c0 81 66 148 146 148c79 0 145 -67 145 -148c0 -82 -66 -149 -145 -149z" />
    <glyph glyph-name="Bdotaccent" unicode="&#x1e02;" 
d="M621 1252l-75 -415h231c163 0 276 95 277 230c0 120 -79 185 -226 185h-207zM431 194h267c192 0 315 98 315 252c0 135 -97 209 -276 209h-222zM161 0l254 1443h467c265 0 424 -126 423 -334c-1 -177 -124 -318 -310 -353l-3 -14c163 -28 270 -157 269 -325
c-1 -250 -209 -417 -525 -417h-575zM897 1615c-79 0 -145 67 -145 148c0 82 66 149 145 149c80 0 146 -67 146 -149c0 -81 -66 -148 -146 -148z" />
    <glyph glyph-name="C" unicode="C" 
d="M1269 429c-39 -281 -256 -459 -554 -459c-311 0 -512 203 -512 518c0 52 6 108 14 154l45 258c64 371 275 572 602 572c292 0 495 -185 495 -453c0 -21 -2 -44 -6 -75h-243c2 22 3 38 3 63c0 148 -102 245 -259 245c-178 0 -300 -128 -342 -358l-48 -272
c-7 -41 -12 -92 -12 -137c0 -183 104 -294 277 -294c158 0 263 90 297 259c1 5 1 8 1 11h246c-1 -11 -2 -24 -4 -32z" />
    <glyph glyph-name="Cacute" unicode="&#x106;" 
d="M1269 429c-39 -281 -256 -459 -554 -459c-311 0 -512 203 -512 518c0 52 6 108 14 154l45 258c64 371 275 572 602 572c292 0 495 -185 495 -453c0 -21 -2 -44 -6 -75h-243c2 22 3 38 3 63c0 148 -102 245 -259 245c-178 0 -300 -128 -342 -358l-48 -272
c-7 -41 -12 -92 -12 -137c0 -183 104 -294 277 -294c158 0 263 90 297 259c1 5 1 8 1 11h246c-1 -11 -2 -24 -4 -32zM771 1606l313 312h265l-342 -312h-236z" />
    <glyph glyph-name="Ccaron" unicode="&#x10c;" 
d="M1269 429c-39 -281 -256 -459 -554 -459c-311 0 -512 203 -512 518c0 52 6 108 14 154l45 258c64 371 275 572 602 572c292 0 495 -185 495 -453c0 -21 -2 -44 -6 -75h-243c2 22 3 38 3 63c0 148 -102 245 -259 245c-178 0 -300 -128 -342 -358l-48 -272
c-7 -41 -12 -92 -12 -137c0 -183 104 -294 277 -294c158 0 263 90 297 259c1 5 1 8 1 11h246c-1 -11 -2 -24 -4 -32zM810 1601l-226 324h211l129 -196h15l199 196h230l-339 -324h-219z" />
    <glyph glyph-name="Ccircumflex" unicode="&#x108;" 
d="M1269 429c-39 -281 -256 -459 -554 -459c-311 0 -512 203 -512 518c0 52 6 108 14 154l45 258c64 371 275 572 602 572c292 0 495 -185 495 -453c0 -21 -2 -44 -6 -75h-243c2 22 3 38 3 63c0 148 -102 245 -259 245c-178 0 -300 -128 -342 -358l-48 -272
c-7 -41 -12 -92 -12 -137c0 -183 104 -294 277 -294c158 0 263 90 297 259c1 5 1 8 1 11h246c-1 -11 -2 -24 -4 -32zM1096 1930l226 -324h-210l-129 196h-15l-199 -196h-230l339 324h218z" />
    <glyph glyph-name="Cdotaccent" unicode="&#x10a;" 
d="M1269 429c-39 -281 -256 -459 -554 -459c-311 0 -512 203 -512 518c0 52 6 108 14 154l45 258c64 371 275 572 602 572c292 0 495 -185 495 -453c0 -21 -2 -44 -6 -75h-243c2 22 3 38 3 63c0 148 -102 245 -259 245c-178 0 -300 -128 -342 -358l-48 -272
c-7 -41 -12 -92 -12 -137c0 -183 104 -294 277 -294c158 0 263 90 297 259c1 5 1 8 1 11h246c-1 -11 -2 -24 -4 -32zM949 1615c-79 0 -145 67 -145 148c0 82 66 149 145 149s146 -67 146 -149c0 -81 -67 -148 -146 -148z" />
    <glyph glyph-name="Ccedilla" unicode="&#xc7;" 
d="M1353 944h-243c2 22 3 38 3 63c0 148 -102 245 -259 245c-178 0 -300 -128 -342 -358l-48 -272c-7 -41 -12 -92 -12 -137c0 -183 104 -294 277 -294c158 0 263 90 297 259c1 5 1 8 1 11h246c-1 -11 -2 -24 -4 -32c-38 -276 -248 -452 -537 -459l-51 -92
c110 -9 174 -66 174 -154c0 -132 -102 -212 -272 -212c-48 0 -106 9 -152 23l21 124c26 -10 88 -19 128 -19c72 0 114 24 114 66s-43 63 -127 63h-55l11 104l62 110c-236 50 -382 237 -382 505c0 52 6 108 14 154l45 258c64 371 275 572 602 572c292 0 495 -185 495 -453
c0 -21 -2 -44 -6 -75z" />
    <glyph glyph-name="Ccedillaacute" unicode="&#x1e08;" 
d="M1349 1918l-342 -312h-236l313 312h265zM1353 944h-243c2 22 3 38 3 63c0 148 -102 245 -259 245c-178 0 -300 -128 -342 -358l-48 -272c-7 -41 -12 -92 -12 -137c0 -183 104 -294 277 -294c158 0 263 90 297 259c1 5 1 8 1 11h246c-1 -11 -2 -24 -4 -32
c-38 -276 -248 -452 -537 -459l-51 -92c110 -9 174 -66 174 -154c0 -132 -102 -212 -272 -212c-48 0 -106 9 -152 23l21 124c26 -10 88 -19 128 -19c72 0 114 24 114 66s-43 63 -127 63h-55l11 104l62 110c-236 50 -382 237 -382 505c0 52 6 108 14 154l45 258
c64 371 275 572 602 572c292 0 495 -185 495 -453c0 -21 -2 -44 -6 -75z" />
    <glyph glyph-name="D" unicode="D" 
d="M786 1443c345 0 541 -198 541 -548c0 -48 -3 -95 -7 -134c-1 -17 -18 -112 -21 -128c-73 -421 -303 -633 -690 -633h-473l254 1443h396zM743 1235h-146l-183 -1024h168c268 0 418 144 469 439c2 10 17 94 18 109c4 35 7 78 7 119c0 234 -116 357 -333 357z" />
    <glyph glyph-name="Ddotaccent" unicode="&#x1e0a;" 
d="M786 1443c345 0 541 -198 541 -548c0 -48 -3 -95 -7 -134c-1 -17 -18 -112 -21 -128c-73 -421 -303 -633 -690 -633h-473l254 1443h396zM743 1235h-146l-183 -1024h168c268 0 418 144 469 439c2 10 17 94 18 109c4 35 7 78 7 119c0 234 -116 357 -333 357zM881 1615
c-79 0 -146 67 -146 148c0 82 67 149 146 149s146 -67 146 -149c0 -81 -67 -148 -146 -148z" />
    <glyph glyph-name="Dcircumflexbelow" unicode="&#x1e12;" 
d="M786 1443c345 0 541 -198 541 -548c0 -48 -3 -95 -7 -134c-1 -17 -18 -112 -21 -128c-73 -421 -303 -633 -690 -633h-473l254 1443h396zM743 1235h-146l-183 -1024h168c268 0 418 144 469 439c2 10 17 94 18 109c4 35 7 78 7 119c0 234 -116 357 -333 357zM405 -162h253
l208 -351h-227l-117 216h-17l-192 -216h-240z" />
    <glyph glyph-name="Dcommaaccent" unicode="&#x1e10;" 
d="M786 1443c345 0 541 -198 541 -548c0 -48 -3 -95 -7 -134c-1 -17 -18 -112 -21 -128c-73 -421 -303 -633 -690 -633h-473l254 1443h396zM743 1235h-146l-183 -1024h168c268 0 418 144 469 439c2 10 17 94 18 109c4 35 7 78 7 119c0 234 -116 357 -333 357zM494 -504h-208
l151 357h236z" />
    <glyph glyph-name="Dlinebelow" unicode="&#x1e0e;" 
d="M786 1443c345 0 541 -198 541 -548c0 -48 -3 -95 -7 -134c-1 -17 -18 -112 -21 -128c-73 -421 -303 -633 -690 -633h-473l254 1443h396zM743 1235h-146l-183 -1024h168c268 0 418 144 469 439c2 10 17 94 18 109c4 35 7 78 7 119c0 234 -116 357 -333 357zM836 -407h-696
l29 165h695z" />
    <glyph glyph-name="Dcaron" unicode="&#x10e;" 
d="M786 1443c345 0 541 -198 541 -548c0 -48 -3 -95 -7 -134c-1 -17 -18 -112 -21 -128c-73 -421 -303 -633 -690 -633h-473l254 1443h396zM743 1235h-146l-183 -1024h168c268 0 418 144 469 439c2 10 17 94 18 109c4 35 7 78 7 119c0 234 -116 357 -333 357zM742 1601
l-226 324h211l128 -196h16l199 196h230l-340 -324h-218z" />
    <glyph glyph-name="Ddotbelow" unicode="&#x1e0c;" 
d="M786 1443c345 0 541 -198 541 -548c0 -48 -3 -95 -7 -134c-1 -17 -18 -112 -21 -128c-73 -421 -303 -633 -690 -633h-473l254 1443h396zM743 1235h-146l-183 -1024h168c268 0 418 144 469 439c2 10 17 94 18 109c4 35 7 78 7 119c0 234 -116 357 -333 357zM503 -466
c-79 0 -145 67 -145 149c0 81 66 148 145 148c80 0 146 -67 146 -148c0 -82 -66 -149 -146 -149z" />
    <glyph glyph-name="Dcroat" unicode="&#x110;" 
d="M429 200h162c261 0 423 149 476 441c3 14 18 101 20 121c4 40 7 88 7 138c0 227 -114 343 -338 343h-141l-74 -414h272l-33 -189h-273zM425 1443h356c342 0 544 -199 544 -537c0 -53 -2 -105 -7 -147c-2 -21 -20 -119 -23 -140c-73 -404 -315 -619 -703 -619h-421
l113 640h-143l33 189h143z" />
    <glyph glyph-name="E" unicode="E" 
d="M1133 211l-35 -211h-887l254 1443h887l-36 -211h-644l-73 -402h608l-34 -197h-607l-77 -422h644z" />
    <glyph glyph-name="Egrave" unicode="&#xc8;" 
d="M818 1918l203 -312h-223l-233 312h253zM1133 211l-35 -211h-887l254 1443h887l-36 -211h-644l-73 -402h608l-34 -197h-607l-77 -422h644z" />
    <glyph glyph-name="Edblgrave" unicode="&#x204;" 
d="M1043 1918l187 -312h-198l-209 312h220zM639 1918l188 -312h-198l-208 312h218zM1133 211l-35 -211h-887l254 1443h887l-36 -211h-644l-73 -402h608l-34 -197h-607l-77 -422h644z" />
    <glyph glyph-name="Eacute" unicode="&#xc9;" 
d="M1133 211l-35 -211h-887l254 1443h887l-36 -211h-644l-73 -402h608l-34 -197h-607l-77 -422h644zM778 1606l313 312h265l-342 -312h-236z" />
    <glyph glyph-name="Ecircumflex" unicode="&#xca;" 
d="M1133 211l-35 -211h-887l254 1443h887l-36 -211h-644l-73 -402h608l-34 -197h-607l-77 -422h644zM1104 1930l226 -324h-211l-129 196h-15l-199 -196h-230l339 324h219z" />
    <glyph glyph-name="Ecircumflexhookabove" unicode="&#x1ec2;" 
d="M1133 211l-35 -211h-887l254 1443h887l-36 -211h-644l-73 -402h608l-34 -197h-607l-77 -422h644zM1082 1829l234 -250h-224l-131 146h-17l-183 -146h-235l322 250h234zM1142 2014l21 124c43 13 87 20 130 20c114 0 193 -65 193 -164c0 -104 -72 -186 -195 -224l-69 89
c72 23 111 65 111 106c0 42 -31 66 -88 66c-34 0 -69 -6 -103 -17z" />
    <glyph glyph-name="Ecircumflexgrave" unicode="&#x1ec0;" 
d="M1133 211l-35 -211h-887l254 1443h887l-36 -211h-644l-73 -402h608l-34 -197h-607l-77 -422h644zM1446 1863h-195l-174 267h219zM1082 1829l234 -250h-224l-131 146h-17l-183 -146h-235l322 250h234z" />
    <glyph glyph-name="Ecircumflextilde" unicode="&#x1ec4;" 
d="M1133 211l-35 -211h-887l254 1443h887l-36 -211h-644l-73 -402h608l-34 -197h-607l-77 -422h644zM1081 1829l234 -250h-222l-132 146h-16l-183 -146h-237l321 250h235zM865 2019c-48 0 -80 -38 -89 -109h-152c15 148 110 246 240 246c162 0 176 -123 271 -123
c48 0 80 38 89 105h151c-13 -139 -110 -242 -238 -242c-163 0 -177 123 -272 123z" />
    <glyph glyph-name="Ecircumflexdotbelow" unicode="&#x1ec6;" 
d="M1133 211l-35 -211h-887l254 1443h887l-36 -211h-644l-73 -402h608l-34 -197h-607l-77 -422h644zM1104 1930l226 -324h-211l-129 196h-15l-199 -196h-230l339 324h219zM590 -466c-79 0 -146 67 -146 149c0 81 67 148 146 148s145 -67 145 -148c0 -82 -66 -149 -145 -149z
" />
    <glyph glyph-name="Ecircumflexacute" unicode="&#x1ebe;" 
d="M1133 211l-35 -211h-887l254 1443h887l-36 -211h-644l-73 -402h608l-34 -197h-607l-77 -422h644zM1189 1863l241 267h231l-267 -267h-205zM1080 1829l234 -250h-223l-131 146h-16l-184 -146h-236l321 250h235z" />
    <glyph glyph-name="Edieresis" unicode="&#xcb;" 
d="M1133 211l-35 -211h-887l254 1443h887l-36 -211h-644l-73 -402h608l-34 -197h-607l-77 -422h644zM736 1633c-73 0 -136 63 -136 138c0 76 63 139 136 139c72 0 135 -63 135 -139c0 -75 -63 -138 -135 -138zM1174 1633c-73 0 -135 63 -135 138c0 76 62 139 135 139
s136 -63 136 -139c0 -75 -63 -138 -136 -138z" />
    <glyph glyph-name="Edotbelow" unicode="&#x1eb8;" 
d="M1133 211l-35 -211h-887l254 1443h887l-36 -211h-644l-73 -402h608l-34 -197h-607l-77 -422h644zM590 -466c-79 0 -146 67 -146 149c0 81 67 148 146 148s145 -67 145 -148c0 -82 -66 -149 -145 -149z" />
    <glyph glyph-name="Einvertedbreve" unicode="&#x206;" 
d="M1133 211l-35 -211h-887l254 1443h887l-36 -211h-644l-73 -402h608l-34 -197h-607l-77 -422h644zM997 1923c213 0 357 -141 329 -324h-171c10 108 -58 179 -169 179c-113 0 -204 -72 -225 -179h-177c35 195 200 324 413 324z" />
    <glyph glyph-name="Ehookabove" unicode="&#x1eba;" 
d="M1133 211l-35 -211h-887l254 1443h887l-36 -211h-644l-73 -402h608l-34 -197h-607l-77 -422h644zM770 1826l14 133c41 16 94 25 144 25c128 0 215 -72 215 -183c0 -107 -79 -195 -206 -236l-65 99c73 24 115 69 115 112c0 44 -36 71 -100 71c-44 0 -90 -9 -117 -21z" />
    <glyph glyph-name="Ecaron" unicode="&#x11a;" 
d="M1133 211l-35 -211h-887l254 1443h887l-36 -211h-644l-73 -402h608l-34 -197h-607l-77 -422h644zM817 1601l-226 324h211l129 -196h15l199 196h230l-339 -324h-219z" />
    <glyph glyph-name="Emacron" unicode="&#x112;" 
d="M1133 211l-35 -211h-887l254 1443h887l-36 -211h-644l-73 -402h608l-34 -197h-607l-77 -422h644zM1286 1672h-696l29 166h696z" />
    <glyph glyph-name="Emacrongrave" unicode="&#x1e14;" 
d="M1133 211l-35 -211h-887l254 1443h887l-36 -211h-644l-73 -402h608l-34 -197h-607l-77 -422h644zM1085 1881h-206l-160 249h230zM574 1611l26 148h704l-26 -148h-704z" />
    <glyph glyph-name="Emacronacute" unicode="&#x1e16;" 
d="M574 1611l25 148h704l-25 -148h-704zM1057 1881h-219l223 249h244zM1133 211l-35 -211h-887l254 1443h887l-36 -211h-644l-73 -402h608l-34 -197h-607l-77 -422h644z" />
    <glyph glyph-name="Etilde" unicode="&#x1ebc;" 
d="M1133 211l-35 -211h-887l254 1443h887l-36 -211h-644l-73 -402h608l-34 -197h-607l-77 -422h644zM799 1752c-52 0 -86 -47 -96 -139h-153c16 176 110 289 246 289c160 0 194 -153 280 -153c52 0 85 47 95 136h153c-15 -167 -110 -284 -245 -284c-156 0 -187 151 -280 151
z" />
    <glyph glyph-name="Ecircumflexbelow" unicode="&#x1e18;" 
d="M1133 211l-35 -211h-887l254 1443h887l-36 -211h-644l-73 -402h608l-34 -197h-607l-77 -422h644zM491 -162h253l209 -351h-227l-117 216h-17l-192 -216h-240z" />
    <glyph glyph-name="Ebreve" unicode="&#x114;" 
d="M1133 211l-35 -211h-887l254 1443h887l-36 -211h-644l-73 -402h608l-34 -197h-607l-77 -422h644zM934 1599c-213 0 -357 141 -329 324h171c-11 -108 57 -179 169 -179c113 0 204 72 225 179h177c-35 -195 -200 -324 -413 -324z" />
    <glyph glyph-name="Etildebelow" unicode="&#x1e1a;" 
d="M1133 211l-35 -211h-887l254 1443h887l-36 -211h-644l-73 -402h608l-34 -197h-607l-77 -422h644zM448 -315c-54 0 -83 -46 -91 -147h-167c18 192 115 306 258 306c162 0 202 -153 287 -153c54 0 81 44 89 144h167c-17 -187 -116 -304 -258 -304c-161 0 -201 154 -285 154
z" />
    <glyph glyph-name="Edotaccent" unicode="&#x116;" 
d="M1133 211l-35 -211h-887l254 1443h887l-36 -211h-644l-73 -402h608l-34 -197h-607l-77 -422h644zM956 1615c-79 0 -145 67 -145 148c0 82 66 149 145 149s146 -67 146 -149c0 -81 -67 -148 -146 -148z" />
    <glyph glyph-name="Ecedilla" unicode="&#x228;" 
d="M1316 1232h-644l-73 -402h608l-34 -197h-607l-77 -422h644l-35 -211h-362l-66 -122c110 -9 174 -66 174 -154c0 -132 -103 -212 -272 -212c-48 0 -106 9 -153 23l22 124c26 -10 87 -19 127 -19c72 0 115 24 115 66s-43 63 -127 63h-56l12 104l71 127h-372l254 1443h887z
" />
    <glyph glyph-name="Ecedillabreve" unicode="&#x1e1c;" 
d="M1170 1923h177c-35 -195 -200 -324 -413 -324s-357 141 -329 324h171c-11 -108 57 -179 169 -179c113 0 204 72 225 179zM1316 1232h-644l-73 -402h608l-34 -197h-607l-77 -422h644l-35 -211h-362l-66 -122c110 -9 174 -66 174 -154c0 -132 -103 -212 -272 -212
c-48 0 -106 9 -153 23l22 124c26 -10 87 -19 127 -19c72 0 115 24 115 66s-43 63 -127 63h-56l12 104l71 127h-372l254 1443h887z" />
    <glyph glyph-name="Eogonek" unicode="&#x118;" 
d="M828 -15l2 15h-619l254 1443h887l-36 -211h-644l-73 -402h608l-34 -197h-607l-77 -422h650l-35 -208c-167 -35 -255 -104 -255 -194c0 -63 49 -102 129 -102c23 0 50 3 66 6l-25 -142c-28 -10 -70 -16 -118 -16c-145 0 -250 84 -250 198c0 102 57 182 177 232z" />
    <glyph glyph-name="F" unicode="F" 
d="M473 0h-242l254 1443h887l-35 -211h-646l-78 -434h588l-34 -202h-589z" />
    <glyph glyph-name="Fdotaccent" unicode="&#x1e1e;" 
d="M473 0h-242l254 1443h887l-35 -211h-646l-78 -434h588l-34 -202h-589zM984 1615c-79 0 -145 67 -145 148c0 82 66 149 145 149s146 -67 146 -149c0 -81 -67 -148 -146 -148z" />
    <glyph glyph-name="G" unicode="G" 
d="M1247 423c-49 -287 -250 -453 -543 -453c-306 0 -506 201 -506 509c0 50 5 109 14 161l49 280c63 354 277 552 594 552c289 0 486 -182 486 -447c0 -16 -1 -36 -3 -53h-236c1 14 2 29 2 42c0 142 -107 240 -261 240c-176 0 -299 -130 -341 -362l-48 -273
c-9 -53 -14 -103 -14 -139c0 -182 106 -295 278 -295c160 0 271 97 300 266l22 115h-305l33 187h538z" />
    <glyph glyph-name="Gacute" unicode="&#x1f4;" 
d="M1247 423c-49 -287 -250 -453 -543 -453c-306 0 -506 201 -506 509c0 50 5 109 14 161l49 280c63 354 277 552 594 552c289 0 486 -182 486 -447c0 -16 -1 -36 -3 -53h-236c1 14 2 29 2 42c0 142 -107 240 -261 240c-176 0 -299 -130 -341 -362l-48 -273
c-9 -53 -14 -103 -14 -139c0 -182 106 -295 278 -295c160 0 271 97 300 266l22 115h-305l33 187h538zM736 1606l312 312h266l-342 -312h-236z" />
    <glyph glyph-name="Gcaron" unicode="&#x1e6;" 
d="M1247 423c-49 -287 -250 -453 -543 -453c-306 0 -506 201 -506 509c0 50 5 109 14 161l49 280c63 354 277 552 594 552c289 0 486 -182 486 -447c0 -16 -1 -36 -3 -53h-236c1 14 2 29 2 42c0 142 -107 240 -261 240c-176 0 -299 -130 -341 -362l-48 -273
c-9 -53 -14 -103 -14 -139c0 -182 106 -295 278 -295c160 0 271 97 300 266l22 115h-305l33 187h538zM775 1601l-226 324h211l128 -196h16l198 196h230l-339 -324h-218z" />
    <glyph glyph-name="Gcircumflex" unicode="&#x11c;" 
d="M1247 423c-49 -287 -250 -453 -543 -453c-306 0 -506 201 -506 509c0 50 5 109 14 161l49 280c63 354 277 552 594 552c289 0 486 -182 486 -447c0 -16 -1 -36 -3 -53h-236c1 14 2 29 2 42c0 142 -107 240 -261 240c-176 0 -299 -130 -341 -362l-48 -273
c-9 -53 -14 -103 -14 -139c0 -182 106 -295 278 -295c160 0 271 97 300 266l22 115h-305l33 187h538zM1061 1930l226 -324h-211l-128 196h-16l-198 -196h-230l339 324h218z" />
    <glyph glyph-name="Gbreve" unicode="&#x11e;" 
d="M1247 423c-49 -287 -250 -453 -543 -453c-306 0 -506 201 -506 509c0 50 5 109 14 161l49 280c63 354 277 552 594 552c289 0 486 -182 486 -447c0 -16 -1 -36 -3 -53h-236c1 14 2 29 2 42c0 142 -107 240 -261 240c-176 0 -299 -130 -341 -362l-48 -273
c-9 -53 -14 -103 -14 -139c0 -182 106 -295 278 -295c160 0 271 97 300 266l22 115h-305l33 187h538zM891 1599c-213 0 -356 141 -328 324h170c-10 -108 58 -179 170 -179s203 72 224 179h177c-34 -195 -200 -324 -413 -324z" />
    <glyph glyph-name="Gmacron" unicode="&#x1e20;" 
d="M1247 423c-49 -287 -250 -453 -543 -453c-306 0 -506 201 -506 509c0 50 5 109 14 161l49 280c63 354 277 552 594 552c289 0 486 -182 486 -447c0 -16 -1 -36 -3 -53h-236c1 14 2 29 2 42c0 142 -107 240 -261 240c-176 0 -299 -130 -341 -362l-48 -273
c-9 -53 -14 -103 -14 -139c0 -182 106 -295 278 -295c160 0 271 97 300 266l22 115h-305l33 187h538zM1243 1672h-695l29 166h695z" />
    <glyph glyph-name="Gdotaccent" unicode="&#x120;" 
d="M1247 423c-49 -287 -250 -453 -543 -453c-306 0 -506 201 -506 509c0 50 5 109 14 161l49 280c63 354 277 552 594 552c289 0 486 -182 486 -447c0 -16 -1 -36 -3 -53h-236c1 14 2 29 2 42c0 142 -107 240 -261 240c-176 0 -299 -130 -341 -362l-48 -273
c-9 -53 -14 -103 -14 -139c0 -182 106 -295 278 -295c160 0 271 97 300 266l22 115h-305l33 187h538zM914 1615c-80 0 -146 67 -146 148c0 82 66 149 146 149c79 0 145 -67 145 -149c0 -81 -66 -148 -145 -148z" />
    <glyph glyph-name="Gcommaaccent" unicode="&#x122;" 
d="M1247 423c-49 -287 -250 -453 -543 -453c-306 0 -506 201 -506 509c0 50 5 109 14 161l49 280c63 354 277 552 594 552c289 0 486 -182 486 -447c0 -16 -1 -36 -3 -53h-236c1 14 2 29 2 42c0 142 -107 240 -261 240c-176 0 -299 -130 -341 -362l-48 -273
c-9 -53 -14 -103 -14 -139c0 -182 106 -295 278 -295c160 0 271 97 300 266l22 115h-305l33 187h538zM602 -504h-208l151 357h236z" />
    <glyph glyph-name="H" unicode="H" 
d="M1134 0h-238l112 629h-527l-111 -629h-238l254 1443h238l-107 -603h527l106 603h238z" />
    <glyph glyph-name="Hdieresis" unicode="&#x1e26;" 
d="M1134 0h-238l112 629h-527l-111 -629h-238l254 1443h238l-107 -603h527l106 603h238zM714 1633c-73 0 -135 63 -135 138c0 76 62 139 135 139s136 -63 136 -139c0 -75 -63 -138 -136 -138zM1153 1633c-73 0 -135 63 -135 138c0 76 62 139 135 139s135 -63 135 -139
c0 -75 -62 -138 -135 -138z" />
    <glyph glyph-name="Hcaron" unicode="&#x21e;" 
d="M1134 0h-238l112 629h-527l-111 -629h-238l254 1443h238l-107 -603h527l106 603h238zM796 1601l-226 324h211l128 -196h16l199 196h230l-340 -324h-218z" />
    <glyph glyph-name="Hcircumflex" unicode="&#x124;" 
d="M1134 0h-238l112 629h-527l-111 -629h-238l254 1443h238l-107 -603h527l106 603h238zM1082 1930l226 -324h-211l-128 196h-16l-198 -196h-230l339 324h218z" />
    <glyph glyph-name="Hdotbelow" unicode="&#x1e24;" 
d="M1134 0h-238l112 629h-527l-111 -629h-238l254 1443h238l-107 -603h527l106 603h238zM577 -466c-79 0 -146 67 -146 149c0 81 67 148 146 148s145 -67 145 -148c0 -82 -66 -149 -145 -149z" />
    <glyph glyph-name="Hdotaccent" unicode="&#x1e22;" 
d="M1134 0h-238l112 629h-527l-111 -629h-238l254 1443h238l-107 -603h527l106 603h238zM935 1615c-79 0 -146 67 -146 148c0 82 67 149 146 149s145 -67 145 -149c0 -81 -66 -148 -145 -148z" />
    <glyph glyph-name="Hbrevebelow" unicode="&#x1e2a;" 
d="M1134 0h-238l112 629h-527l-111 -629h-238l254 1443h238l-107 -603h527l106 603h238zM584 -471c-220 0 -373 155 -338 344h173c-12 -112 60 -186 181 -186c117 0 205 74 219 186h178c-23 -205 -190 -344 -413 -344z" />
    <glyph glyph-name="Hcedilla" unicode="&#x1e28;" 
d="M370 0l-44 -122c94 -14 151 -72 151 -154c0 -132 -103 -212 -272 -212c-48 0 -106 9 -152 23l21 124c27 -10 89 -19 128 -19c72 0 114 24 114 66s-42 64 -126 64h-45l19 109l43 121h-75l254 1443h238l-107 -603h527l106 603h238l-254 -1443h-238l112 629h-527z" />
    <glyph glyph-name="Hbar" unicode="&#x126;" 
d="M533 835h491l43 240h-491zM504 629l-112 -629h-242l189 1071h-108l29 172h108l36 200h242l-35 -200h479l35 200h242l-35 -200h111l-29 -172h-111l-190 -1071h-242l112 629h-479z" />
    <glyph glyph-name="I" unicode="I" 
d="M1050 0h-834l35 208h297l184 1027h-297l35 208h834l-35 -208h-296l-184 -1027h296z" />
    <glyph glyph-name="Idotaccent" unicode="&#x130;" 
d="M1050 0h-834l35 208h297l184 1027h-297l35 208h834l-35 -208h-296l-184 -1027h296zM944 1615c-79 0 -145 67 -145 148c0 82 66 149 145 149s146 -67 146 -149c0 -81 -67 -148 -146 -148z" />
    <glyph glyph-name="Igrave" unicode="&#xcc;" 
d="M806 1918l203 -312h-223l-233 312h253zM1050 0h-834l35 208h297l184 1027h-297l35 208h834l-35 -208h-296l-184 -1027h296z" />
    <glyph glyph-name="Idblgrave" unicode="&#x208;" 
d="M1031 1918l187 -312h-198l-209 312h220zM627 1918l188 -312h-198l-209 312h219zM1050 0h-834l35 208h297l184 1027h-297l35 208h834l-35 -208h-296l-184 -1027h296z" />
    <glyph glyph-name="Iacute" unicode="&#xcd;" 
d="M1050 0h-834l35 208h297l184 1027h-297l35 208h834l-35 -208h-296l-184 -1027h296zM766 1606l313 312h265l-342 -312h-236z" />
    <glyph glyph-name="Icircumflex" unicode="&#xce;" 
d="M1050 0h-834l35 208h297l184 1027h-297l35 208h834l-35 -208h-296l-184 -1027h296zM1091 1930l226 -324h-210l-129 196h-15l-199 -196h-230l339 324h218z" />
    <glyph glyph-name="Icaron" unicode="&#x1cf;" 
d="M1050 0h-834l35 208h297l184 1027h-297l35 208h834l-35 -208h-296l-184 -1027h296zM805 1601l-226 324h211l129 -196h15l199 196h230l-339 -324h-219z" />
    <glyph glyph-name="Idieresis" unicode="&#xcf;" 
d="M1050 0h-834l35 208h297l184 1027h-297l35 208h834l-35 -208h-296l-184 -1027h296zM723 1633c-72 0 -135 63 -135 138c0 76 63 139 135 139c73 0 136 -63 136 -139c0 -75 -63 -138 -136 -138zM1162 1633c-73 0 -135 63 -135 138c0 76 62 139 135 139s135 -63 135 -139
c0 -75 -62 -138 -135 -138z" />
    <glyph glyph-name="Idieresisacute" unicode="&#x1e2e;" 
d="M1050 0h-834l35 208h297l184 1027h-297l35 208h834l-35 -208h-296l-184 -1027h296zM809 1896l223 234h246l-257 -234h-212zM712 1564c-70 0 -128 59 -128 132s58 132 128 132c71 0 128 -59 128 -132s-57 -132 -128 -132zM1141 1564c-71 0 -128 59 -128 132
s57 132 128 132s128 -59 128 -132s-57 -132 -128 -132z" />
    <glyph glyph-name="Ibreve" unicode="&#x12c;" 
d="M1050 0h-834l35 208h297l184 1027h-297l35 208h834l-35 -208h-296l-184 -1027h296zM922 1599c-214 0 -357 141 -329 324h171c-11 -108 57 -179 169 -179s204 72 225 179h177c-35 -195 -201 -324 -413 -324z" />
    <glyph glyph-name="Idotbelow" unicode="&#x1eca;" 
d="M1050 0h-834l35 208h297l184 1027h-297l35 208h834l-35 -208h-296l-184 -1027h296zM576 -466c-79 0 -145 67 -145 149c0 81 66 148 145 148c80 0 146 -67 146 -148c0 -82 -66 -149 -146 -149z" />
    <glyph glyph-name="Iinvertedbreve" unicode="&#x20a;" 
d="M1050 0h-834l35 208h297l184 1027h-297l35 208h834l-35 -208h-296l-184 -1027h296zM985 1923c213 0 356 -141 329 -324h-171c10 108 -58 179 -170 179s-203 -72 -224 -179h-177c34 195 200 324 413 324z" />
    <glyph glyph-name="Imacron" unicode="&#x12a;" 
d="M1050 0h-834l35 208h297l184 1027h-297l35 208h834l-35 -208h-296l-184 -1027h296zM1274 1672h-696l29 166h695z" />
    <glyph glyph-name="Itildebelow" unicode="&#x1e2c;" 
d="M1050 0h-834l35 208h297l184 1027h-297l35 208h834l-35 -208h-296l-184 -1027h296zM434 -315c-54 0 -83 -46 -90 -147h-167c18 192 114 306 258 306c161 0 201 -153 286 -153c54 0 82 44 89 144h167c-16 -187 -116 -304 -257 -304c-162 0 -201 154 -286 154z" />
    <glyph glyph-name="Ihookabove" unicode="&#x1ec8;" 
d="M1050 0h-834l35 208h297l184 1027h-297l35 208h834l-35 -208h-296l-184 -1027h296zM758 1826l14 133c41 16 94 25 144 25c128 0 215 -72 215 -183c0 -107 -79 -195 -206 -236l-65 99c72 24 115 69 115 112c0 44 -37 71 -100 71c-44 0 -90 -9 -117 -21z" />
    <glyph glyph-name="Itilde" unicode="&#x128;" 
d="M1050 0h-834l35 208h297l184 1027h-297l35 208h834l-35 -208h-296l-184 -1027h296zM787 1752c-53 0 -86 -47 -96 -139h-153c16 176 110 289 246 289c160 0 194 -153 280 -153c51 0 85 47 95 136h153c-15 -167 -111 -284 -245 -284c-156 0 -187 151 -280 151z" />
    <glyph glyph-name="Iogonek" unicode="&#x12e;" 
d="M784 0h-568l35 208h297l184 1027h-297l35 208h834l-35 -208h-296l-184 -1027h296l-35 -205c-158 -34 -247 -104 -247 -194c0 -61 52 -102 128 -102c26 0 47 2 67 6l-25 -142c-28 -10 -70 -16 -117 -16c-147 0 -251 85 -251 203c0 99 63 180 177 227z" />
    <glyph glyph-name="J" unicode="J" 
d="M639 -29c-262 0 -442 159 -442 392c0 18 1 34 4 50h227c-1 -8 -2 -18 -2 -26c0 -115 89 -196 217 -196c130 0 216 82 243 235l146 809h-509l34 208h752l-186 -1049c-49 -279 -215 -423 -484 -423z" />
    <glyph glyph-name="Jcircumflex" unicode="&#x134;" 
d="M639 -29c-262 0 -442 159 -442 392c0 18 1 34 4 50h227c-1 -8 -2 -18 -2 -26c0 -115 89 -196 217 -196c130 0 216 82 243 235l146 809h-509l34 208h752l-186 -1049c-49 -279 -215 -423 -484 -423zM1127 1930l226 -324h-211l-128 196h-16l-199 -196h-230l340 324h218z" />
    <glyph glyph-name="K" unicode="K" 
d="M881 803l376 -803h-268l-306 648l-188 -181l-83 -467h-231l254 1443h231l-122 -677h15l667 677h280z" />
    <glyph glyph-name="Kacute" unicode="&#x1e30;" 
d="M881 803l376 -803h-268l-306 648l-188 -181l-83 -467h-231l254 1443h231l-122 -677h15l667 677h280zM805 1606l312 312h265l-342 -312h-235z" />
    <glyph glyph-name="Kcaron" unicode="&#x1e8;" 
d="M881 803l376 -803h-268l-306 648l-188 -181l-83 -467h-231l254 1443h231l-122 -677h15l667 677h280zM844 1601l-226 324h210l129 -196h15l199 196h230l-339 -324h-218z" />
    <glyph glyph-name="Kdotbelow" unicode="&#x1e32;" 
d="M881 803l376 -803h-268l-306 648l-188 -181l-83 -467h-231l254 1443h231l-122 -677h15l667 677h280zM627 -466c-79 0 -145 67 -145 149c0 81 66 148 145 148c80 0 146 -67 146 -148c0 -82 -66 -149 -146 -149z" />
    <glyph glyph-name="Klinebelow" unicode="&#x1e34;" 
d="M881 803l376 -803h-268l-306 648l-188 -181l-83 -467h-231l254 1443h231l-122 -677h15l667 677h280zM960 -407h-696l29 165h695z" />
    <glyph glyph-name="Kcommaaccent" unicode="&#x136;" 
d="M881 803l376 -803h-268l-306 648l-188 -181l-83 -467h-231l254 1443h231l-122 -677h15l667 677h280zM618 -504h-208l151 357h236z" />
    <glyph glyph-name="L" unicode="L" 
d="M1172 215l-37 -215h-891l254 1443h239l-218 -1228h653z" />
    <glyph glyph-name="Lacute" unicode="&#x139;" 
d="M1172 215l-37 -215h-891l254 1443h239l-218 -1228h653zM497 1606l312 312h266l-342 -312h-236z" />
    <glyph glyph-name="Lcircumflexbelow" unicode="&#x1e3c;" 
d="M1172 215l-37 -215h-891l254 1443h239l-218 -1228h653zM533 -162h253l208 -351h-226l-118 216h-16l-192 -216h-241z" />
    <glyph glyph-name="Ldotbelow" unicode="&#x1e36;" 
d="M1172 215l-37 -215h-891l254 1443h239l-218 -1228h653zM632 -466c-80 0 -146 67 -146 149c0 81 66 148 146 148c79 0 145 -67 145 -148c0 -82 -66 -149 -145 -149z" />
    <glyph glyph-name="Ldotbelowmacron" unicode="&#x1e38;" 
d="M1172 215l-37 -215h-891l254 1443h239l-218 -1228h653zM632 -466c-80 0 -146 67 -146 149c0 81 66 148 146 148c79 0 145 -67 145 -148c0 -82 -66 -149 -145 -149zM1005 1672h-696l29 166h695z" />
    <glyph glyph-name="Llinebelow" unicode="&#x1e3a;" 
d="M1172 215l-37 -215h-891l254 1443h239l-218 -1228h653zM964 -407h-696l29 165h696z" />
    <glyph glyph-name="Lcommaaccent" unicode="&#x13b;" 
d="M1172 215l-37 -215h-891l254 1443h239l-218 -1228h653zM622 -504h-208l152 357h236z" />
    <glyph glyph-name="Lcaron" unicode="&#x13d;" 
d="M1024 1443h201l-128 -492h-159zM1172 215l-37 -215h-891l254 1443h239l-218 -1228h653z" />
    <glyph glyph-name="Ldot" unicode="&#x13f;" 
d="M1172 215l-37 -215h-891l254 1443h239l-218 -1228h653zM1146 925c-80 0 -146 67 -146 148s66 149 146 149c79 0 145 -68 145 -149s-66 -148 -145 -148z" />
    <glyph glyph-name="Lslash" unicode="&#x141;" 
d="M519 215h653l-37 -215h-891l95 541l-192 -97l35 204l193 98l123 697h239l-100 -563l531 270l-36 -210l-532 -268z" />
    <glyph glyph-name="M" unicode="M" 
d="M389 508l-91 -508h-206l254 1443h253l127 -854h15l426 854h261l-254 -1443h-206l91 508l128 580h-18l-389 -749h-171l-125 749h-17z" />
    <glyph glyph-name="Macute" unicode="&#x1e3e;" 
d="M389 508l-91 -508h-206l254 1443h253l127 -854h15l426 854h261l-254 -1443h-206l91 508l128 580h-18l-389 -749h-171l-125 749h-17zM767 1606l313 312h265l-342 -312h-236z" />
    <glyph glyph-name="Mdotaccent" unicode="&#x1e40;" 
d="M389 508l-91 -508h-206l254 1443h253l127 -854h15l426 854h261l-254 -1443h-206l91 508l128 580h-18l-389 -749h-171l-125 749h-17zM945 1615c-79 0 -146 67 -146 148c0 82 67 149 146 149s146 -67 146 -149c0 -81 -67 -148 -146 -148z" />
    <glyph glyph-name="Mdotbelow" unicode="&#x1e42;" 
d="M389 508l-91 -508h-206l254 1443h253l127 -854h15l426 854h261l-254 -1443h-206l91 508l128 580h-18l-389 -749h-171l-125 749h-17zM577 -466c-79 0 -146 67 -146 149c0 81 67 148 146 148s145 -67 145 -148c0 -82 -66 -149 -145 -149z" />
    <glyph glyph-name="N" unicode="N" 
d="M349 0h-212l254 1443h220l360 -1028h16l184 1028h212l-254 -1443h-219l-361 1032h-16z" />
    <glyph glyph-name="Ngrave" unicode="&#x1f8;" 
d="M805 1918l203 -312h-223l-233 312h253zM349 0h-212l254 1443h220l360 -1028h16l184 1028h212l-254 -1443h-219l-361 1032h-16z" />
    <glyph glyph-name="Nacute" unicode="&#x143;" 
d="M349 0h-212l254 1443h220l360 -1028h16l184 1028h212l-254 -1443h-219l-361 1032h-16zM765 1606l313 312h265l-342 -312h-236z" />
    <glyph glyph-name="Ntilde" unicode="&#xd1;" 
d="M349 0h-212l254 1443h220l360 -1028h16l184 1028h212l-254 -1443h-219l-361 1032h-16zM786 1752c-53 0 -86 -47 -96 -139h-153c16 176 110 289 246 289c160 0 194 -153 280 -153c51 0 85 47 95 136h153c-15 -167 -111 -284 -245 -284c-156 0 -187 151 -280 151z" />
    <glyph glyph-name="Ndotbelow" unicode="&#x1e46;" 
d="M349 0h-212l254 1443h220l360 -1028h16l184 1028h212l-254 -1443h-219l-361 1032h-16zM572 -466c-79 0 -145 67 -145 149c0 81 66 148 145 148c80 0 146 -67 146 -148c0 -82 -66 -149 -146 -149z" />
    <glyph glyph-name="Ndotaccent" unicode="&#x1e44;" 
d="M349 0h-212l254 1443h220l360 -1028h16l184 1028h212l-254 -1443h-219l-361 1032h-16zM943 1615c-79 0 -146 67 -146 148c0 82 67 149 146 149s146 -67 146 -149c0 -81 -67 -148 -146 -148z" />
    <glyph glyph-name="Ncaron" unicode="&#x147;" 
d="M349 0h-212l254 1443h220l360 -1028h16l184 1028h212l-254 -1443h-219l-361 1032h-16zM804 1601l-226 324h211l129 -196h15l199 196h230l-340 -324h-218z" />
    <glyph glyph-name="Ncircumflexbelow" unicode="&#x1e4a;" 
d="M349 0h-212l254 1443h220l360 -1028h16l184 1028h212l-254 -1443h-219l-361 1032h-16zM474 -162h253l208 -351h-227l-117 216h-17l-192 -216h-240z" />
    <glyph glyph-name="Nlinebelow" unicode="&#x1e48;" 
d="M349 0h-212l254 1443h220l360 -1028h16l184 1028h212l-254 -1443h-219l-361 1032h-16zM905 -407h-696l29 165h695z" />
    <glyph glyph-name="Ncommaaccent" unicode="&#x145;" 
d="M349 0h-212l254 1443h220l360 -1028h16l184 1028h212l-254 -1443h-219l-361 1032h-16zM563 -504h-208l151 357h236z" />
    <glyph glyph-name="O" unicode="O" 
d="M1274 535c-66 -368 -269 -564 -585 -564c-293 0 -498 207 -498 505c0 98 4 156 15 210l40 225c64 360 274 561 580 561c300 0 503 -207 503 -512c0 -79 -5 -138 -15 -200zM703 187c173 0 284 129 330 388l40 224c9 51 14 108 14 156c0 182 -107 301 -272 301
c-171 0 -282 -124 -328 -380l-38 -218c-11 -62 -15 -108 -15 -165c0 -189 103 -306 269 -306z" />
    <glyph glyph-name="Odieresis" unicode="&#xd6;" 
d="M1274 535c-66 -368 -269 -564 -585 -564c-293 0 -498 207 -498 505c0 98 4 156 15 210l40 225c64 360 274 561 580 561c300 0 503 -207 503 -512c0 -79 -5 -138 -15 -200zM703 187c173 0 284 129 330 388l40 224c9 51 14 108 14 156c0 182 -107 301 -272 301
c-171 0 -282 -124 -328 -380l-38 -218c-11 -62 -15 -108 -15 -165c0 -189 103 -306 269 -306zM723 1633c-73 0 -135 63 -135 138c0 76 62 139 135 139s135 -63 135 -139c0 -75 -62 -138 -135 -138zM1162 1633c-73 0 -136 63 -136 138c0 76 63 139 136 139s135 -63 135 -139
c0 -75 -62 -138 -135 -138z" />
    <glyph glyph-name="Oslash" unicode="&#xd8;" 
d="M1033 575l40 224c9 51 14 108 14 156c0 18 -1 35 -3 51l-604 -701c46 -75 123 -118 223 -118c173 0 284 129 330 388zM487 876l-38 -218c-11 -62 -15 -108 -15 -165c0 -20 1 -39 3 -57l605 698c-46 77 -126 122 -227 122c-171 0 -282 -124 -328 -380zM1460 1443
l-191 -222c39 -74 60 -163 60 -261c0 -79 -5 -138 -15 -200l-40 -225c-66 -368 -269 -564 -585 -564c-151 0 -279 55 -367 150l-104 -121h-158l191 220c-39 74 -60 160 -60 256c0 98 4 156 15 210l40 225c64 360 274 561 580 561c156 0 287 -56 375 -153l108 124h151z" />
    <glyph glyph-name="Otilde" unicode="&#xd5;" 
d="M1274 535c-66 -368 -269 -564 -585 -564c-293 0 -498 207 -498 505c0 98 4 156 15 210l40 225c64 360 274 561 580 561c300 0 503 -207 503 -512c0 -79 -5 -138 -15 -200zM703 187c173 0 284 129 330 388l40 224c9 51 14 108 14 156c0 182 -107 301 -272 301
c-171 0 -282 -124 -328 -380l-38 -218c-11 -62 -15 -108 -15 -165c0 -189 103 -306 269 -306zM786 1752c-52 0 -85 -47 -95 -139h-154c17 176 111 289 246 289c161 0 195 -153 281 -153c51 0 84 47 95 136h153c-15 -167 -111 -284 -246 -284c-156 0 -186 151 -280 151z" />
    <glyph glyph-name="Oacute" unicode="&#xd3;" 
d="M1274 535c-66 -368 -269 -564 -585 -564c-293 0 -498 207 -498 505c0 98 4 156 15 210l40 225c64 360 274 561 580 561c300 0 503 -207 503 -512c0 -79 -5 -138 -15 -200zM703 187c173 0 284 129 330 388l40 224c9 51 14 108 14 156c0 182 -107 301 -272 301
c-171 0 -282 -124 -328 -380l-38 -218c-11 -62 -15 -108 -15 -165c0 -189 103 -306 269 -306zM766 1606l312 312h265l-342 -312h-235z" />
    <glyph glyph-name="Ocircumflex" unicode="&#xd4;" 
d="M1274 535c-66 -368 -269 -564 -585 -564c-293 0 -498 207 -498 505c0 98 4 156 15 210l40 225c64 360 274 561 580 561c300 0 503 -207 503 -512c0 -79 -5 -138 -15 -200zM703 187c173 0 284 129 330 388l40 224c9 51 14 108 14 156c0 182 -107 301 -272 301
c-171 0 -282 -124 -328 -380l-38 -218c-11 -62 -15 -108 -15 -165c0 -189 103 -306 269 -306zM1091 1930l226 -324h-211l-128 196h-16l-198 -196h-230l339 324h218z" />
    <glyph glyph-name="Ograve" unicode="&#xd2;" 
d="M805 1918l204 -312h-223l-234 312h253zM487 876l-38 -218c-11 -62 -15 -108 -15 -165c0 -189 103 -306 269 -306c173 0 284 129 330 388l40 224c9 51 14 108 14 156c0 182 -107 301 -272 301c-171 0 -282 -124 -328 -380zM1314 760l-40 -225
c-66 -368 -269 -564 -585 -564c-293 0 -498 207 -498 505c0 98 4 156 15 210l40 225c64 360 274 561 580 561c300 0 503 -207 503 -512c0 -79 -5 -138 -15 -200z" />
    <glyph glyph-name="Ocircumflexhookabove" unicode="&#x1ed4;" 
d="M1274 535c-66 -368 -269 -564 -585 -564c-293 0 -498 207 -498 505c0 98 4 156 15 210l40 225c64 360 274 561 580 561c300 0 503 -207 503 -512c0 -79 -5 -138 -15 -200zM703 187c173 0 284 129 330 388l40 224c9 51 14 108 14 156c0 182 -107 301 -272 301
c-171 0 -282 -124 -328 -380l-38 -218c-11 -62 -15 -108 -15 -165c0 -189 103 -306 269 -306zM1070 1829l234 -250h-224l-132 146h-16l-183 -146h-235l321 250h235zM1129 2014l22 124c43 13 87 20 130 20c113 0 193 -65 193 -164c0 -104 -72 -186 -195 -224l-69 89
c71 23 111 65 111 106c0 42 -32 66 -89 66c-34 0 -68 -6 -103 -17z" />
    <glyph glyph-name="Ocircumflexgrave" unicode="&#x1ed2;" 
d="M1274 535c-66 -368 -269 -564 -585 -564c-293 0 -498 207 -498 505c0 98 4 156 15 210l40 225c64 360 274 561 580 561c300 0 503 -207 503 -512c0 -79 -5 -138 -15 -200zM703 187c173 0 284 129 330 388l40 224c9 51 14 108 14 156c0 182 -107 301 -272 301
c-171 0 -282 -124 -328 -380l-38 -218c-11 -62 -15 -108 -15 -165c0 -189 103 -306 269 -306zM1434 1863h-195l-175 267h219zM1070 1829l234 -250h-224l-132 146h-16l-183 -146h-235l321 250h235z" />
    <glyph glyph-name="Odotbelow" unicode="&#x1ecc;" 
d="M1274 535c-66 -368 -269 -564 -585 -564c-293 0 -498 207 -498 505c0 98 4 156 15 210l40 225c64 360 274 561 580 561c300 0 503 -207 503 -512c0 -79 -5 -138 -15 -200zM703 187c173 0 284 129 330 388l40 224c9 51 14 108 14 156c0 182 -107 301 -272 301
c-171 0 -282 -124 -328 -380l-38 -218c-11 -62 -15 -108 -15 -165c0 -189 103 -306 269 -306zM577 -466c-79 0 -146 67 -146 149c0 81 67 148 146 148s145 -67 145 -148c0 -82 -66 -149 -145 -149z" />
    <glyph glyph-name="Odblgrave" unicode="&#x20c;" 
d="M1030 1918l187 -312h-198l-208 312h219zM627 1918l187 -312h-198l-208 312h219zM487 876l-38 -218c-11 -62 -15 -108 -15 -165c0 -189 103 -306 269 -306c173 0 284 129 330 388l40 224c9 51 14 108 14 156c0 182 -107 301 -272 301c-171 0 -282 -124 -328 -380z
M1314 760l-40 -225c-66 -368 -269 -564 -585 -564c-293 0 -498 207 -498 505c0 98 4 156 15 210l40 225c64 360 274 561 580 561c300 0 503 -207 503 -512c0 -79 -5 -138 -15 -200z" />
    <glyph glyph-name="Otildeacute" unicode="&#x1e4c;" 
d="M1274 535c-66 -368 -269 -564 -585 -564c-293 0 -498 207 -498 505c0 98 4 156 15 210l40 225c64 360 274 561 580 561c300 0 503 -207 503 -512c0 -79 -5 -138 -15 -200zM703 187c173 0 284 129 330 388l40 224c9 51 14 108 14 156c0 182 -107 301 -272 301
c-171 0 -282 -124 -328 -380l-38 -218c-11 -62 -15 -108 -15 -165c0 -189 103 -306 269 -306zM823 1919l137 229h223l-161 -229h-199zM772 1694c-50 0 -82 -40 -92 -119h-153c16 157 111 260 244 260c164 0 181 -132 274 -132c49 0 82 39 92 115h153
c-15 -148 -112 -256 -245 -256c-163 0 -179 132 -273 132z" />
    <glyph glyph-name="Omacronacute" unicode="&#x1e52;" 
d="M561 1611l26 148h703l-25 -148h-704zM1045 1881h-219l222 249h244zM487 876l-38 -218c-11 -62 -15 -108 -15 -165c0 -189 103 -306 269 -306c173 0 284 129 330 388l40 224c9 51 14 108 14 156c0 182 -107 301 -272 301c-171 0 -282 -124 -328 -380zM1314 760l-40 -225
c-66 -368 -269 -564 -585 -564c-293 0 -498 207 -498 505c0 98 4 156 15 210l40 225c64 360 274 561 580 561c300 0 503 -207 503 -512c0 -79 -5 -138 -15 -200z" />
    <glyph glyph-name="Ocircumflextilde" unicode="&#x1ed6;" 
d="M1274 535c-66 -368 -269 -564 -585 -564c-293 0 -498 207 -498 505c0 98 4 156 15 210l40 225c64 360 274 561 580 561c300 0 503 -207 503 -512c0 -79 -5 -138 -15 -200zM703 187c173 0 284 129 330 388l40 224c9 51 14 108 14 156c0 182 -107 301 -272 301
c-171 0 -282 -124 -328 -380l-38 -218c-11 -62 -15 -108 -15 -165c0 -189 103 -306 269 -306zM1068 1829l234 -250h-222l-131 146h-17l-183 -146h-237l322 250h234zM853 2019c-49 0 -80 -38 -89 -109h-152c14 148 110 246 239 246c162 0 177 -123 272 -123
c47 0 79 38 88 105h152c-14 -139 -111 -242 -239 -242c-162 0 -176 123 -271 123z" />
    <glyph glyph-name="Odotaccentmacron" unicode="&#x230;" 
d="M922 1844c74 0 135 -61 135 -138c0 -76 -61 -137 -135 -137s-134 61 -134 137c0 77 60 138 134 138zM614 1953l25 148h704l-25 -148h-704zM487 876l-38 -218c-11 -62 -15 -108 -15 -165c0 -189 103 -306 269 -306c173 0 284 129 330 388l40 224c9 51 14 108 14 156
c0 182 -107 301 -272 301c-171 0 -282 -124 -328 -380zM1314 760l-40 -225c-66 -368 -269 -564 -585 -564c-293 0 -498 207 -498 505c0 98 4 156 15 210l40 225c64 360 274 561 580 561c300 0 503 -207 503 -512c0 -79 -5 -138 -15 -200z" />
    <glyph glyph-name="Omacrongrave" unicode="&#x1e50;" 
d="M1274 535c-66 -368 -269 -564 -585 -564c-293 0 -498 207 -498 505c0 98 4 156 15 210l40 225c64 360 274 561 580 561c300 0 503 -207 503 -512c0 -79 -5 -138 -15 -200zM703 187c173 0 284 129 330 388l40 224c9 51 14 108 14 156c0 182 -107 301 -272 301
c-171 0 -282 -124 -328 -380l-38 -218c-11 -62 -15 -108 -15 -165c0 -189 103 -306 269 -306zM1072 1881h-205l-161 249h230zM562 1611l25 148h704l-25 -148h-704z" />
    <glyph glyph-name="Ocaron" unicode="&#x1d1;" 
d="M1274 535c-66 -368 -269 -564 -585 -564c-293 0 -498 207 -498 505c0 98 4 156 15 210l40 225c64 360 274 561 580 561c300 0 503 -207 503 -512c0 -79 -5 -138 -15 -200zM703 187c173 0 284 129 330 388l40 224c9 51 14 108 14 156c0 182 -107 301 -272 301
c-171 0 -282 -124 -328 -380l-38 -218c-11 -62 -15 -108 -15 -165c0 -189 103 -306 269 -306zM805 1601l-226 324h211l128 -196h16l198 196h230l-339 -324h-218z" />
    <glyph glyph-name="Oslashacute" unicode="&#x1fe;" 
d="M1334 1918l-342 -312h-236l313 312h265zM1033 575l40 224c9 51 14 108 14 156c0 18 -1 35 -3 51l-604 -701c46 -75 123 -118 223 -118c173 0 284 129 330 388zM487 876l-38 -218c-11 -62 -15 -108 -15 -165c0 -20 1 -39 3 -57l605 698c-46 77 -126 122 -227 122
c-171 0 -282 -124 -328 -380zM1460 1443l-191 -222c39 -74 60 -163 60 -261c0 -79 -5 -138 -15 -200l-40 -225c-66 -368 -269 -564 -585 -564c-151 0 -279 55 -367 150l-104 -121h-158l191 220c-39 74 -60 160 -60 256c0 98 4 156 15 210l40 225c64 360 274 561 580 561
c156 0 287 -56 375 -153l108 124h151z" />
    <glyph glyph-name="Ohungarumlaut" unicode="&#x150;" 
d="M1274 535c-66 -368 -269 -564 -585 -564c-293 0 -498 207 -498 505c0 98 4 156 15 210l40 225c64 360 274 561 580 561c300 0 503 -207 503 -512c0 -79 -5 -138 -15 -200zM703 187c173 0 284 129 330 388l40 224c9 51 14 108 14 156c0 182 -107 301 -272 301
c-171 0 -282 -124 -328 -380l-38 -218c-11 -62 -15 -108 -15 -165c0 -189 103 -306 269 -306zM1036 1606l296 312h228l-317 -312h-207zM633 1606l295 312h229l-317 -312h-207z" />
    <glyph glyph-name="Obreve" unicode="&#x14e;" 
d="M1274 535c-66 -368 -269 -564 -585 -564c-293 0 -498 207 -498 505c0 98 4 156 15 210l40 225c64 360 274 561 580 561c300 0 503 -207 503 -512c0 -79 -5 -138 -15 -200zM703 187c173 0 284 129 330 388l40 224c9 51 14 108 14 156c0 182 -107 301 -272 301
c-171 0 -282 -124 -328 -380l-38 -218c-11 -62 -15 -108 -15 -165c0 -189 103 -306 269 -306zM921 1599c-213 0 -356 141 -329 324h171c-10 -108 58 -179 170 -179s203 72 224 179h177c-34 -195 -200 -324 -413 -324z" />
    <glyph glyph-name="Oinvertedbreve" unicode="&#x20e;" 
d="M1274 535c-66 -368 -269 -564 -585 -564c-293 0 -498 207 -498 505c0 98 4 156 15 210l40 225c64 360 274 561 580 561c300 0 503 -207 503 -512c0 -79 -5 -138 -15 -200zM703 187c173 0 284 129 330 388l40 224c9 51 14 108 14 156c0 182 -107 301 -272 301
c-171 0 -282 -124 -328 -380l-38 -218c-11 -62 -15 -108 -15 -165c0 -189 103 -306 269 -306zM985 1923c213 0 356 -141 328 -324h-171c11 108 -57 179 -169 179s-204 -72 -225 -179h-177c35 195 201 324 414 324z" />
    <glyph glyph-name="Ohookabove" unicode="&#x1ece;" 
d="M1274 535c-66 -368 -269 -564 -585 -564c-293 0 -498 207 -498 505c0 98 4 156 15 210l40 225c64 360 274 561 580 561c300 0 503 -207 503 -512c0 -79 -5 -138 -15 -200zM703 187c173 0 284 129 330 388l40 224c9 51 14 108 14 156c0 182 -107 301 -272 301
c-171 0 -282 -124 -328 -380l-38 -218c-11 -62 -15 -108 -15 -165c0 -189 103 -306 269 -306zM758 1826l14 133c41 16 93 25 143 25c129 0 216 -72 216 -183c0 -107 -80 -195 -207 -236l-65 99c73 24 115 69 115 112c0 44 -36 71 -99 71c-44 0 -91 -9 -117 -21z" />
    <glyph glyph-name="Odieresismacron" unicode="&#x22a;" 
d="M1274 535c-66 -368 -269 -564 -585 -564c-293 0 -498 207 -498 505c0 98 4 156 15 210l40 225c64 360 274 561 580 561c300 0 503 -207 503 -512c0 -79 -5 -138 -15 -200zM703 187c173 0 284 129 330 388l40 224c9 51 14 108 14 156c0 182 -107 301 -272 301
c-171 0 -282 -124 -328 -380l-38 -218c-11 -62 -15 -108 -15 -165c0 -189 103 -306 269 -306zM1144 1828c71 0 128 -59 128 -133c0 -73 -57 -132 -128 -132s-128 59 -128 132c0 74 57 133 128 133zM1335 2101l-25 -148h-704l26 148h703zM715 1828c71 0 128 -59 128 -133
c0 -73 -57 -132 -128 -132s-128 59 -128 132c0 74 57 133 128 133z" />
    <glyph glyph-name="Otildemacron" unicode="&#x22c;" 
d="M1274 535c-66 -368 -269 -564 -585 -564c-293 0 -498 207 -498 505c0 98 4 156 15 210l40 225c64 360 274 561 580 561c300 0 503 -207 503 -512c0 -79 -5 -138 -15 -200zM703 187c173 0 284 129 330 388l40 224c9 51 14 108 14 156c0 182 -107 301 -272 301
c-171 0 -282 -124 -328 -380l-38 -218c-11 -62 -15 -108 -15 -165c0 -189 103 -306 269 -306zM1317 1962h-704l26 147h703zM797 1694c-50 0 -82 -40 -92 -119h-154c17 157 112 260 245 260c164 0 181 -132 274 -132c49 0 82 39 92 115h153c-15 -148 -112 -256 -245 -256
c-163 0 -179 132 -273 132z" />
    <glyph glyph-name="Odotaccent" unicode="&#x22e;" 
d="M1274 535c-66 -368 -269 -564 -585 -564c-293 0 -498 207 -498 505c0 98 4 156 15 210l40 225c64 360 274 561 580 561c300 0 503 -207 503 -512c0 -79 -5 -138 -15 -200zM703 187c173 0 284 129 330 388l40 224c9 51 14 108 14 156c0 182 -107 301 -272 301
c-171 0 -282 -124 -328 -380l-38 -218c-11 -62 -15 -108 -15 -165c0 -189 103 -306 269 -306zM944 1615c-80 0 -146 67 -146 148c0 82 66 149 146 149c79 0 145 -67 145 -149c0 -81 -66 -148 -145 -148z" />
    <glyph glyph-name="Ocircumflexdotbelow" unicode="&#x1ed8;" 
d="M1274 535c-66 -368 -269 -564 -585 -564c-293 0 -498 207 -498 505c0 98 4 156 15 210l40 225c64 360 274 561 580 561c300 0 503 -207 503 -512c0 -79 -5 -138 -15 -200zM703 187c173 0 284 129 330 388l40 224c9 51 14 108 14 156c0 182 -107 301 -272 301
c-171 0 -282 -124 -328 -380l-38 -218c-11 -62 -15 -108 -15 -165c0 -189 103 -306 269 -306zM1091 1930l226 -324h-211l-128 196h-16l-198 -196h-230l339 324h218zM577 -466c-79 0 -146 67 -146 149c0 81 67 148 146 148s145 -67 145 -148c0 -82 -66 -149 -145 -149z" />
    <glyph glyph-name="Ocircumflexacute" unicode="&#x1ed0;" 
d="M1274 535c-66 -368 -269 -564 -585 -564c-293 0 -498 207 -498 505c0 98 4 156 15 210l40 225c64 360 274 561 580 561c300 0 503 -207 503 -512c0 -79 -5 -138 -15 -200zM703 187c173 0 284 129 330 388l40 224c9 51 14 108 14 156c0 182 -107 301 -272 301
c-171 0 -282 -124 -328 -380l-38 -218c-11 -62 -15 -108 -15 -165c0 -189 103 -306 269 -306zM1176 1863l242 267h230l-266 -267h-206zM1067 1829l234 -250h-222l-131 146h-17l-183 -146h-237l321 250h235z" />
    <glyph glyph-name="Otildedieresis" unicode="&#x1e4e;" 
d="M1274 535c-66 -368 -269 -564 -585 -564c-293 0 -498 207 -498 505c0 98 4 156 15 210l40 225c64 360 274 561 580 561c300 0 503 -207 503 -512c0 -79 -5 -138 -15 -200zM703 187c173 0 284 129 330 388l40 224c9 51 14 108 14 156c0 182 -107 301 -272 301
c-171 0 -282 -124 -328 -380l-38 -218c-11 -62 -15 -108 -15 -165c0 -189 103 -306 269 -306zM767 1895c-66 0 -119 54 -119 122c0 67 53 122 119 122s119 -55 119 -122c0 -68 -53 -122 -119 -122zM1196 1895c-66 0 -119 54 -119 122c0 67 53 122 119 122s119 -55 119 -122
c0 -68 -53 -122 -119 -122zM792 1677c-48 0 -80 -39 -89 -110h-151c14 149 109 246 239 246c162 0 176 -122 271 -122c48 0 80 37 89 105h151c-13 -140 -110 -242 -238 -242c-163 0 -177 123 -272 123z" />
    <glyph glyph-name="Omacron" unicode="&#x14c;" 
d="M1274 535c-66 -368 -269 -564 -585 -564c-293 0 -498 207 -498 505c0 98 4 156 15 210l40 225c64 360 274 561 580 561c300 0 503 -207 503 -512c0 -79 -5 -138 -15 -200zM703 187c173 0 284 129 330 388l40 224c9 51 14 108 14 156c0 182 -107 301 -272 301
c-171 0 -282 -124 -328 -380l-38 -218c-11 -62 -15 -108 -15 -165c0 -189 103 -306 269 -306zM1273 1672h-695l28 166h696z" />
    <glyph glyph-name="Oogonek" unicode="&#x1ea;" 
d="M856 -440c-145 0 -250 83 -250 196c0 84 44 157 158 226l-1 14c-26 -15 -52 -20 -90 -20c-279 -5 -482 204 -482 500c0 103 4 160 15 210l40 225c64 360 274 561 580 561c300 0 503 -207 503 -512c0 -76 -4 -135 -15 -200l-40 -225c-39 -218 -124 -370 -266 -475
c-158 -119 -203 -174 -203 -248c0 -58 48 -99 117 -99c34 0 66 2 79 6l-26 -143c-26 -10 -71 -16 -119 -16zM703 187c174 0 284 127 330 388l40 224c9 51 14 108 14 156c0 182 -107 301 -272 301c-172 0 -282 -124 -327 -380l-39 -218c-10 -61 -15 -107 -15 -165
c0 -189 103 -306 269 -306z" />
    <glyph glyph-name="Oogonekmacron" unicode="&#x1ec;" 
d="M1276 1672h-696l29 166h696zM856 -440c-145 0 -250 83 -250 196c0 84 44 157 158 226l-1 14c-26 -15 -52 -20 -90 -20c-279 -5 -482 204 -482 500c0 103 4 160 15 210l40 225c64 360 274 561 580 561c300 0 503 -207 503 -512c0 -76 -4 -135 -15 -200l-40 -225
c-39 -218 -124 -370 -266 -475c-158 -119 -203 -174 -203 -248c0 -58 48 -99 117 -99c34 0 66 2 79 6l-26 -143c-26 -10 -71 -16 -119 -16zM703 187c174 0 284 127 330 388l40 224c9 51 14 108 14 156c0 182 -107 301 -272 301c-172 0 -282 -124 -327 -380l-39 -218
c-10 -61 -15 -107 -15 -165c0 -189 103 -306 269 -306z" />
    <glyph glyph-name="Ohorn" unicode="&#x1a0;" 
d="M687 -29c-292 0 -495 207 -495 505c0 99 4 157 15 210l40 225c64 360 273 561 581 561c199 0 246 -71 395 -71c80 0 130 43 145 126l27 150h189c-15 -77 -38 -220 -46 -238c-36 -131 -129 -202 -259 -196h-27c0 -1 -2 -10 -2 -10c50 -83 76 -173 76 -273
c0 -83 -8 -159 -23 -238l-33 -187c-66 -369 -268 -564 -583 -564zM703 187c172 0 281 127 327 388l40 224c10 55 14 98 14 156c0 183 -106 301 -270 301c-170 0 -280 -125 -326 -380l-39 -218c-11 -67 -15 -112 -15 -165c0 -187 105 -306 269 -306z" />
    <glyph glyph-name="Ohorndotbelow" unicode="&#x1ee2;" 
d="M687 -29c-292 0 -495 207 -495 505c0 99 4 157 15 210l40 225c64 360 273 561 581 561c199 0 246 -71 395 -71c80 0 130 43 145 126l27 150h189c-15 -77 -38 -220 -46 -238c-36 -131 -129 -202 -259 -196h-27c0 -1 -2 -10 -2 -10c50 -83 76 -173 76 -273
c0 -83 -8 -159 -23 -238l-33 -187c-66 -369 -268 -564 -583 -564zM703 187c172 0 281 127 327 388l40 224c10 55 14 98 14 156c0 183 -106 301 -270 301c-170 0 -280 -125 -326 -380l-39 -218c-11 -67 -15 -112 -15 -165c0 -187 105 -306 269 -306zM577 -466
c-79 0 -146 67 -146 149c0 81 67 148 146 148s145 -67 145 -148c0 -82 -66 -149 -145 -149z" />
    <glyph glyph-name="Ohornhookabove" unicode="&#x1ede;" 
d="M761 1826l13 133c41 16 94 25 144 25c128 0 216 -72 216 -183c0 -107 -80 -195 -207 -236l-65 99c73 24 115 69 115 112c0 44 -36 71 -100 71c-43 0 -90 -9 -116 -21zM687 -29c-292 0 -495 207 -495 505c0 99 4 157 15 210l40 225c64 360 273 561 581 561
c199 0 246 -71 395 -71c80 0 130 43 145 126l27 150h189c-15 -77 -38 -220 -46 -238c-36 -131 -129 -202 -259 -196h-27c0 -1 -2 -10 -2 -10c50 -83 76 -173 76 -273c0 -83 -8 -159 -23 -238l-33 -187c-66 -369 -268 -564 -583 -564zM703 187c172 0 281 127 327 388l40 224
c10 55 14 98 14 156c0 183 -106 301 -270 301c-170 0 -280 -125 -326 -380l-39 -218c-11 -67 -15 -112 -15 -165c0 -187 105 -306 269 -306z" />
    <glyph glyph-name="Ohorntilde" unicode="&#x1ee0;" 
d="M687 -29c-292 0 -495 207 -495 505c0 99 4 157 15 210l40 225c64 360 273 561 581 561c199 0 246 -71 395 -71c80 0 130 43 145 126l27 150h189c-15 -77 -38 -220 -46 -238c-36 -131 -129 -202 -259 -196h-27c0 -1 -2 -10 -2 -10c50 -83 76 -173 76 -273
c0 -83 -8 -159 -23 -238l-33 -187c-66 -369 -268 -564 -583 -564zM703 187c172 0 281 127 327 388l40 224c10 55 14 98 14 156c0 183 -106 301 -270 301c-170 0 -280 -125 -326 -380l-39 -218c-11 -67 -15 -112 -15 -165c0 -187 105 -306 269 -306zM789 1752
c-52 0 -85 -47 -95 -139h-154c17 176 111 289 246 289c160 0 195 -153 280 -153c52 0 85 47 95 136h153c-15 -167 -110 -284 -245 -284c-156 0 -187 151 -280 151z" />
    <glyph glyph-name="Ohorngrave" unicode="&#x1edc;" 
d="M488 876l-39 -218c-11 -67 -15 -112 -15 -165c0 -187 105 -306 269 -306c172 0 281 127 327 388l40 224c10 55 14 98 14 156c0 183 -106 301 -270 301c-170 0 -280 -125 -326 -380zM1303 722l-33 -187c-66 -369 -268 -564 -583 -564c-292 0 -495 207 -495 505
c0 99 4 157 15 210l40 225c64 360 273 561 581 561c199 0 246 -71 395 -71c80 0 130 43 145 126l27 150h189c-15 -77 -38 -220 -46 -238c-36 -131 -129 -202 -259 -196h-27c0 -1 -2 -10 -2 -10c50 -83 76 -173 76 -273c0 -83 -8 -159 -23 -238zM865 1918l203 -312h-223
l-233 312h253z" />
    <glyph glyph-name="Ohornacute" unicode="&#x1eda;" 
d="M687 -29c-292 0 -495 207 -495 505c0 99 4 157 15 210l40 225c64 360 273 561 581 561c199 0 246 -71 395 -71c80 0 130 43 145 126l27 150h189c-15 -77 -38 -220 -46 -238c-36 -131 -129 -202 -259 -196h-27c0 -1 -2 -10 -2 -10c50 -83 76 -173 76 -273
c0 -83 -8 -159 -23 -238l-33 -187c-66 -369 -268 -564 -583 -564zM703 187c172 0 281 127 327 388l40 224c10 55 14 98 14 156c0 183 -106 301 -270 301c-170 0 -280 -125 -326 -380l-39 -218c-11 -67 -15 -112 -15 -165c0 -187 105 -306 269 -306zM761 1606l312 312h265
l-342 -312h-235z" />
    <glyph glyph-name="P" unicode="P" 
d="M422 1443h460c281 0 458 -161 458 -415c0 -326 -234 -545 -588 -545h-255l-87 -483h-242zM630 1241l-99 -556h216c217 0 350 124 350 326c0 147 -95 230 -261 230h-206z" />
    <glyph glyph-name="Pdotaccent" unicode="&#x1e56;" 
d="M422 1443h460c281 0 458 -161 458 -415c0 -326 -234 -545 -588 -545h-255l-87 -483h-242zM630 1241l-99 -556h216c217 0 350 124 350 326c0 147 -95 230 -261 230h-206zM893 1615c-79 0 -146 67 -146 148c0 82 67 149 146 149s145 -67 145 -149c0 -81 -66 -148 -145 -148
z" />
    <glyph glyph-name="Pacute" unicode="&#x1e54;" 
d="M422 1443h460c281 0 458 -161 458 -415c0 -326 -234 -545 -588 -545h-255l-87 -483h-242zM630 1241l-99 -556h216c217 0 350 124 350 326c0 147 -95 230 -261 230h-206zM715 1606l312 312h266l-342 -312h-236z" />
    <glyph glyph-name="Q" unicode="Q" 
d="M1035 570l40 225c9 51 14 107 14 158c0 183 -107 303 -273 303c-173 0 -284 -124 -330 -383l-39 -220c-11 -62 -15 -108 -15 -167c0 -190 104 -308 270 -308c23 0 46 2 67 7l-121 276h232l65 -148c41 63 71 149 90 257zM206 686l40 225c64 360 274 561 580 561
c300 0 503 -207 503 -512c0 -75 -5 -135 -15 -200l-41 -225c-36 -204 -114 -354 -229 -448l108 -248h-232l-67 152c-50 -13 -105 -20 -164 -20c-293 0 -498 207 -498 505c0 97 4 156 15 210z" />
    <glyph glyph-name="R" unicode="R" 
d="M619 1242l-90 -503h225c185 0 297 90 325 237c3 15 5 38 5 58c0 128 -85 208 -232 208h-233zM399 0h-241l254 1443h485c260 0 439 -152 438 -397c0 -31 -2 -63 -8 -97c-31 -185 -149 -316 -330 -367l189 -582h-256l-172 551c-11 -1 -55 -2 -70 -2h-192z" />
    <glyph glyph-name="Rcaron" unicode="&#x158;" 
d="M619 1242l-90 -503h225c185 0 297 90 325 237c3 15 5 38 5 58c0 128 -85 208 -232 208h-233zM399 0h-241l254 1443h485c260 0 439 -152 438 -397c0 -31 -2 -63 -8 -97c-31 -185 -149 -316 -330 -367l189 -582h-256l-172 551c-11 -1 -55 -2 -70 -2h-192zM758 1601
l-226 324h211l129 -196h15l199 196h230l-339 -324h-219z" />
    <glyph glyph-name="Rlinebelow" unicode="&#x1e5e;" 
d="M619 1242l-90 -503h225c185 0 297 90 325 237c3 15 5 38 5 58c0 128 -85 208 -232 208h-233zM399 0h-241l254 1443h485c260 0 439 -152 438 -397c0 -31 -2 -63 -8 -97c-31 -185 -149 -316 -330 -367l189 -582h-256l-172 551c-11 -1 -55 -2 -70 -2h-192zM915 -407h-696
l29 166h696z" />
    <glyph glyph-name="Rdotbelowmacron" unicode="&#x1e5c;" 
d="M619 1242l-90 -503h225c185 0 297 90 325 237c3 15 5 38 5 58c0 128 -85 208 -232 208h-233zM399 0h-241l254 1443h485c260 0 439 -152 438 -397c0 -31 -2 -63 -8 -97c-31 -185 -149 -316 -330 -367l189 -582h-256l-172 551c-11 -1 -55 -2 -70 -2h-192zM583 -465
c-80 0 -146 67 -146 148s66 149 146 149c79 0 145 -68 145 -149s-66 -148 -145 -148zM1227 1672h-696l29 166h696z" />
    <glyph glyph-name="Rdblgrave" unicode="&#x210;" 
d="M984 1918l187 -312h-198l-209 312h220zM580 1918l188 -312h-198l-208 312h218zM399 0h-241l254 1443h485c260 0 439 -152 438 -397c0 -31 -2 -63 -8 -97c-31 -185 -149 -316 -330 -367l189 -582h-256l-172 551c-11 -1 -55 -2 -70 -2h-192zM619 1242l-90 -503h225
c185 0 297 90 325 237c3 15 5 38 5 58c0 128 -85 208 -232 208h-233z" />
    <glyph glyph-name="Rinvertedbreve" unicode="&#x212;" 
d="M619 1242l-90 -503h225c185 0 297 90 325 237c3 15 5 38 5 58c0 128 -85 208 -232 208h-233zM399 0h-241l254 1443h485c260 0 439 -152 438 -397c0 -31 -2 -63 -8 -97c-31 -185 -149 -316 -330 -367l189 -582h-256l-172 551c-11 -1 -55 -2 -70 -2h-192zM938 1923
c213 0 357 -141 329 -324h-171c10 108 -58 179 -169 179c-113 0 -204 -72 -225 -179h-177c35 195 200 324 413 324z" />
    <glyph glyph-name="Racute" unicode="&#x154;" 
d="M619 1242l-90 -503h225c185 0 297 90 325 237c3 15 5 38 5 58c0 128 -85 208 -232 208h-233zM399 0h-241l254 1443h485c260 0 439 -152 438 -397c0 -31 -2 -63 -8 -97c-31 -185 -149 -316 -330 -367l189 -582h-256l-172 551c-11 -1 -55 -2 -70 -2h-192zM719 1606l313 312
h265l-342 -312h-236z" />
    <glyph glyph-name="Rdotbelow" unicode="&#x1e5a;" 
d="M619 1242l-90 -503h225c185 0 297 90 325 237c3 15 5 38 5 58c0 128 -85 208 -232 208h-233zM399 0h-241l254 1443h485c260 0 439 -152 438 -397c0 -31 -2 -63 -8 -97c-31 -185 -149 -316 -330 -367l189 -582h-256l-172 551c-11 -1 -55 -2 -70 -2h-192zM583 -465
c-80 0 -146 67 -146 148s66 149 146 149c79 0 145 -68 145 -149s-66 -148 -145 -148z" />
    <glyph glyph-name="Rdotaccent" unicode="&#x1e58;" 
d="M619 1242l-90 -503h225c185 0 297 90 325 237c3 15 5 38 5 58c0 128 -85 208 -232 208h-233zM399 0h-241l254 1443h485c260 0 439 -152 438 -397c0 -31 -2 -63 -8 -97c-31 -185 -149 -316 -330 -367l189 -582h-256l-172 551c-11 -1 -55 -2 -70 -2h-192zM897 1615
c-79 0 -145 67 -145 148c0 82 66 149 145 149s146 -67 146 -149c0 -81 -67 -148 -146 -148z" />
    <glyph glyph-name="Rcommaaccent" unicode="&#x156;" 
d="M619 1242l-90 -503h225c185 0 297 90 325 237c3 15 5 38 5 58c0 128 -85 208 -232 208h-233zM399 0h-241l254 1443h485c260 0 439 -152 438 -397c0 -31 -2 -63 -8 -97c-31 -185 -149 -316 -330 -367l189 -582h-256l-172 551c-11 -1 -55 -2 -70 -2h-192zM574 -503h-209
l152 357h236z" />
    <glyph glyph-name="S" unicode="S" 
d="M177 424h233c-1 -10 -2 -15 -2 -25c0 -131 125 -223 302 -223c165 0 281 88 281 214c0 99 -62 159 -229 218l-114 40c-230 81 -336 205 -336 387c0 260 207 437 509 437c287 0 491 -163 491 -395c0 -16 -1 -31 -3 -40h-232c1 4 1 7 1 23c0 119 -108 208 -254 208
c-156 0 -263 -83 -263 -204c0 -98 61 -160 214 -214l118 -42c242 -85 345 -200 345 -378c0 -279 -208 -459 -531 -459c-307 0 -533 172 -533 408c0 20 1 34 3 45z" />
    <glyph glyph-name="Scaron" unicode="&#x160;" 
d="M177 424h233c-1 -10 -2 -15 -2 -25c0 -131 125 -223 302 -223c165 0 281 88 281 214c0 99 -62 159 -229 218l-114 40c-230 81 -336 205 -336 387c0 260 207 437 509 437c287 0 491 -163 491 -395c0 -16 -1 -31 -3 -40h-232c1 4 1 7 1 23c0 119 -108 208 -254 208
c-156 0 -263 -83 -263 -204c0 -98 61 -160 214 -214l118 -42c242 -85 345 -200 345 -378c0 -279 -208 -459 -531 -459c-307 0 -533 172 -533 408c0 20 1 34 3 45zM785 1601l-226 324h211l129 -196h15l199 196h230l-339 -324h-219z" />
    <glyph glyph-name="Scedilla" unicode="&#x15e;" 
d="M1309 1037h-232c1 4 1 7 1 23c0 119 -108 208 -254 208c-156 0 -263 -83 -263 -204c0 -98 61 -160 214 -214l118 -42c242 -85 345 -200 345 -378c0 -279 -208 -459 -531 -459h-1l-51 -93c110 -9 174 -66 174 -154c0 -132 -102 -212 -272 -212c-48 0 -106 9 -152 23
l21 124c26 -10 88 -19 128 -19c72 0 114 24 114 66s-43 63 -127 63h-56l12 104l63 112c-230 46 -386 198 -386 394c0 20 1 34 3 45h233c-1 -10 -2 -15 -2 -25c0 -131 125 -223 302 -223c165 0 281 88 281 214c0 99 -62 159 -229 218l-114 40c-230 81 -336 205 -336 387
c0 260 207 437 509 437c287 0 491 -163 491 -395c0 -16 -1 -31 -3 -40z" />
    <glyph glyph-name="Sdotaccent" unicode="&#x1e60;" 
d="M177 424h233c-1 -10 -2 -15 -2 -25c0 -131 125 -223 302 -223c165 0 281 88 281 214c0 99 -62 159 -229 218l-114 40c-230 81 -336 205 -336 387c0 260 207 437 509 437c287 0 491 -163 491 -395c0 -16 -1 -31 -3 -40h-232c1 4 1 7 1 23c0 119 -108 208 -254 208
c-156 0 -263 -83 -263 -204c0 -98 61 -160 214 -214l118 -42c242 -85 345 -200 345 -378c0 -279 -208 -459 -531 -459c-307 0 -533 172 -533 408c0 20 1 34 3 45zM924 1615c-79 0 -145 67 -145 148c0 82 66 149 145 149s146 -67 146 -149c0 -81 -67 -148 -146 -148z" />
    <glyph glyph-name="Sdotbelow" unicode="&#x1e62;" 
d="M177 424h233c-1 -10 -2 -15 -2 -25c0 -131 125 -223 302 -223c165 0 281 88 281 214c0 99 -62 159 -229 218l-114 40c-230 81 -336 205 -336 387c0 260 207 437 509 437c287 0 491 -163 491 -395c0 -16 -1 -31 -3 -40h-232c1 4 1 7 1 23c0 119 -108 208 -254 208
c-156 0 -263 -83 -263 -204c0 -98 61 -160 214 -214l118 -42c242 -85 345 -200 345 -378c0 -279 -208 -459 -531 -459c-307 0 -533 172 -533 408c0 20 1 34 3 45zM572 -466c-80 0 -146 67 -146 149c0 81 66 148 146 148c79 0 145 -67 145 -148c0 -82 -66 -149 -145 -149z
" />
    <glyph glyph-name="Scommaaccent" unicode="&#x218;" 
d="M177 424h233c-1 -10 -2 -15 -2 -25c0 -131 125 -223 302 -223c165 0 281 88 281 214c0 99 -62 159 -229 218l-114 40c-230 81 -336 205 -336 387c0 260 207 437 509 437c287 0 491 -163 491 -395c0 -16 -1 -31 -3 -40h-232c1 4 1 7 1 23c0 119 -108 208 -254 208
c-156 0 -263 -83 -263 -204c0 -98 61 -160 214 -214l118 -42c242 -85 345 -200 345 -378c0 -279 -208 -459 -531 -459c-307 0 -533 172 -533 408c0 20 1 34 3 45zM563 -513h-209l152 357h236z" />
    <glyph glyph-name="Sdotbelowdotaccent" unicode="&#x1e68;" 
d="M177 424h233c-1 -10 -2 -15 -2 -25c0 -131 125 -223 302 -223c165 0 281 88 281 214c0 99 -62 159 -229 218l-114 40c-230 81 -336 205 -336 387c0 260 207 437 509 437c287 0 491 -163 491 -395c0 -16 -1 -31 -3 -40h-232c1 4 1 7 1 23c0 119 -108 208 -254 208
c-156 0 -263 -83 -263 -204c0 -98 61 -160 214 -214l118 -42c242 -85 345 -200 345 -378c0 -279 -208 -459 -531 -459c-307 0 -533 172 -533 408c0 20 1 34 3 45zM572 -466c-80 0 -146 67 -146 149c0 81 66 148 146 148c79 0 145 -67 145 -148c0 -82 -66 -149 -145 -149z
M924 1615c-79 0 -145 67 -145 148c0 82 66 149 145 149s146 -67 146 -149c0 -81 -67 -148 -146 -148z" />
    <glyph glyph-name="Scarondotaccent" unicode="&#x1e66;" 
d="M177 424h233c-1 -10 -2 -15 -2 -25c0 -131 125 -223 302 -223c165 0 281 88 281 214c0 99 -62 159 -229 218l-114 40c-230 81 -336 205 -336 387c0 260 207 437 509 437c287 0 491 -163 491 -395c0 -16 -1 -31 -3 -40h-232c1 4 1 7 1 23c0 119 -108 208 -254 208
c-156 0 -263 -83 -263 -204c0 -98 61 -160 214 -214l118 -42c242 -85 345 -200 345 -378c0 -279 -208 -459 -531 -459c-307 0 -533 172 -533 408c0 20 1 34 3 45zM928 1892c-79 0 -137 57 -137 133s58 132 137 132s137 -56 137 -132s-58 -133 -137 -133zM993 1579h-234
l-234 254h224l132 -146h17l182 146h235z" />
    <glyph glyph-name="Scircumflex" unicode="&#x15c;" 
d="M177 424h233c-1 -10 -2 -15 -2 -25c0 -131 125 -223 302 -223c165 0 281 88 281 214c0 99 -62 159 -229 218l-114 40c-230 81 -336 205 -336 387c0 260 207 437 509 437c287 0 491 -163 491 -395c0 -16 -1 -31 -3 -40h-232c1 4 1 7 1 23c0 119 -108 208 -254 208
c-156 0 -263 -83 -263 -204c0 -98 61 -160 214 -214l118 -42c242 -85 345 -200 345 -378c0 -279 -208 -459 -531 -459c-307 0 -533 172 -533 408c0 20 1 34 3 45zM1071 1930l226 -324h-210l-129 196h-15l-199 -196h-230l339 324h218z" />
    <glyph glyph-name="Sacutedotaccent" unicode="&#x1e64;" 
d="M177 424h233c-1 -10 -2 -15 -2 -25c0 -131 125 -223 302 -223c165 0 281 88 281 214c0 99 -62 159 -229 218l-114 40c-230 81 -336 205 -336 387c0 260 207 437 509 437c287 0 491 -163 491 -395c0 -16 -1 -31 -3 -40h-232c1 4 1 7 1 23c0 119 -108 208 -254 208
c-156 0 -263 -83 -263 -204c0 -98 61 -160 214 -214l118 -42c242 -85 345 -200 345 -378c0 -279 -208 -459 -531 -459c-307 0 -533 172 -533 408c0 20 1 34 3 45zM941 1606l312 312h265l-342 -312h-235zM754 1652c-79 0 -146 67 -146 148s67 149 146 149s145 -68 145 -149
s-66 -148 -145 -148z" />
    <glyph glyph-name="Sacute" unicode="&#x15a;" 
d="M177 424h233c-1 -10 -2 -15 -2 -25c0 -131 125 -223 302 -223c165 0 281 88 281 214c0 99 -62 159 -229 218l-114 40c-230 81 -336 205 -336 387c0 260 207 437 509 437c287 0 491 -163 491 -395c0 -16 -1 -31 -3 -40h-232c1 4 1 7 1 23c0 119 -108 208 -254 208
c-156 0 -263 -83 -263 -204c0 -98 61 -160 214 -214l118 -42c242 -85 345 -200 345 -378c0 -279 -208 -459 -531 -459c-307 0 -533 172 -533 408c0 20 1 34 3 45zM746 1606l313 312h265l-342 -312h-236z" />
    <glyph glyph-name="T" unicode="T" 
d="M754 0h-242l219 1232h-422l35 211h1086l-36 -211h-422z" />
    <glyph glyph-name="Tcircumflexbelow" unicode="&#x1e70;" 
d="M754 0h-242l219 1232h-422l35 211h1086l-36 -211h-422zM476 -162h253l208 -351h-226l-118 216h-16l-192 -216h-241z" />
    <glyph glyph-name="Tdotbelow" unicode="&#x1e6c;" 
d="M754 0h-242l219 1232h-422l35 211h1086l-36 -211h-422zM575 -466c-80 0 -146 67 -146 149c0 81 66 148 146 148c79 0 145 -67 145 -148c0 -82 -66 -149 -145 -149z" />
    <glyph glyph-name="Tcommaaccent" unicode="&#x21a;" 
d="M754 0h-242l219 1232h-422l35 211h1086l-36 -211h-422zM566 -504h-209l152 357h236z" />
    <glyph glyph-name="Tdotaccent" unicode="&#x1e6a;" 
d="M754 0h-242l219 1232h-422l35 211h1086l-36 -211h-422zM944 1615c-79 0 -145 67 -145 148c0 82 66 149 145 149s146 -67 146 -149c0 -81 -67 -148 -146 -148z" />
    <glyph glyph-name="Tcedilla" unicode="&#x162;" 
d="M592 -1l-80 1l219 1232h-422l35 211h1086l-36 -211h-422l-218 -1232l-44 -122c94 -14 151 -72 151 -154c0 -132 -103 -212 -272 -212c-48 0 -106 9 -153 23l22 124c27 -10 88 -19 128 -19c71 0 114 24 114 66s-42 64 -126 64h-45l20 109z" />
    <glyph glyph-name="Tlinebelow" unicode="&#x1e6e;" 
d="M754 0h-242l219 1232h-422l35 211h1086l-36 -211h-422zM907 -407h-696l29 165h696z" />
    <glyph glyph-name="Tcaron" unicode="&#x164;" 
d="M754 0h-242l219 1232h-422l35 211h1086l-36 -211h-422zM805 1601l-226 324h211l129 -196h15l199 196h230l-339 -324h-219z" />
    <glyph glyph-name="Tbar" unicode="&#x166;" 
d="M1394 1232h-422l-77 -436h288l-30 -179h-290l-109 -617h-242l110 617h-289l30 179h290l78 436h-422l35 211h1086z" />
    <glyph glyph-name="U" unicode="U" 
d="M207 546l158 897h242l-158 -893c-6 -34 -10 -71 -10 -94c0 -167 110 -267 264 -267s268 111 302 298l170 956h241l-177 -991c-55 -304 -256 -481 -542 -481c-299 0 -500 182 -500 465c0 34 3 69 10 110z" />
    <glyph glyph-name="Ugrave" unicode="&#xd9;" 
d="M826 1918l203 -312h-223l-233 312h253zM207 546l158 897h242l-158 -893c-6 -34 -10 -71 -10 -94c0 -167 110 -267 264 -267s268 111 302 298l170 956h241l-177 -991c-55 -304 -256 -481 -542 -481c-299 0 -500 182 -500 465c0 34 3 69 10 110z" />
    <glyph glyph-name="Udblgrave" unicode="&#x214;" 
d="M1034 1918l187 -312h-198l-208 312h219zM631 1918l187 -312h-197l-209 312h219zM207 546l158 897h242l-158 -893c-6 -34 -10 -71 -10 -94c0 -167 110 -267 264 -267s268 111 302 298l170 956h241l-177 -991c-55 -304 -256 -481 -542 -481c-299 0 -500 182 -500 465
c0 34 3 69 10 110z" />
    <glyph glyph-name="Uacute" unicode="&#xda;" 
d="M207 546l158 897h242l-158 -893c-6 -34 -10 -71 -10 -94c0 -167 110 -267 264 -267s268 111 302 298l170 956h241l-177 -991c-55 -304 -256 -481 -542 -481c-299 0 -500 182 -500 465c0 34 3 69 10 110zM770 1606l312 312h266l-342 -312h-236z" />
    <glyph glyph-name="Uhungarumlaut" unicode="&#x170;" 
d="M207 546l158 897h242l-158 -893c-6 -34 -10 -71 -10 -94c0 -167 110 -267 264 -267s268 111 302 298l170 956h241l-177 -991c-55 -304 -256 -481 -542 -481c-299 0 -500 182 -500 465c0 34 3 69 10 110zM1002 1606l296 312h228l-317 -312h-207zM599 1606l296 312h228
l-317 -312h-207z" />
    <glyph glyph-name="Ucircumflex" unicode="&#xdb;" 
d="M207 546l158 897h242l-158 -893c-6 -34 -10 -71 -10 -94c0 -167 110 -267 264 -267s268 111 302 298l170 956h241l-177 -991c-55 -304 -256 -481 -542 -481c-299 0 -500 182 -500 465c0 34 3 69 10 110zM1095 1930l226 -324h-211l-128 196h-16l-198 -196h-230l339 324
h218z" />
    <glyph glyph-name="Ucaron" unicode="&#x1d3;" 
d="M207 546l158 897h242l-158 -893c-6 -34 -10 -71 -10 -94c0 -167 110 -267 264 -267s268 111 302 298l170 956h241l-177 -991c-55 -304 -256 -481 -542 -481c-299 0 -500 182 -500 465c0 34 3 69 10 110zM809 1601l-226 324h211l128 -196h16l198 196h230l-339 -324h-218z
" />
    <glyph glyph-name="Ucircumflexbelow" unicode="&#x1e76;" 
d="M207 546l158 897h242l-158 -893c-6 -34 -10 -71 -10 -94c0 -167 110 -267 264 -267s268 111 302 298l170 956h241l-177 -991c-55 -304 -256 -481 -542 -481c-299 0 -500 182 -500 465c0 34 3 69 10 110zM493 -162h253l208 -351h-226l-118 216h-16l-192 -216h-241z" />
    <glyph glyph-name="Udieresis" unicode="&#xdc;" 
d="M207 546l158 897h242l-158 -893c-6 -34 -10 -71 -10 -94c0 -167 110 -267 264 -267s268 111 302 298l170 956h241l-177 -991c-55 -304 -256 -481 -542 -481c-299 0 -500 182 -500 465c0 34 3 69 10 110zM727 1633c-73 0 -135 63 -135 138c0 76 62 139 135 139
s135 -63 135 -139c0 -75 -62 -138 -135 -138zM1166 1633c-73 0 -135 63 -135 138c0 76 62 139 135 139s135 -63 135 -139c0 -75 -62 -138 -135 -138z" />
    <glyph glyph-name="Udieresisgrave" unicode="&#x1db;" 
d="M717 1564c-70 0 -128 59 -128 132s58 132 128 132c71 0 129 -59 129 -132s-58 -132 -129 -132zM1146 1564c-70 0 -128 59 -128 132s58 132 128 132c71 0 128 -59 128 -132s-57 -132 -128 -132zM917 2130l141 -234h-207l-175 234h241zM207 546l158 897h242l-158 -893
c-6 -34 -10 -71 -10 -94c0 -167 110 -267 264 -267s268 111 302 298l170 956h241l-177 -991c-55 -304 -256 -481 -542 -481c-299 0 -500 182 -500 465c0 34 3 69 10 110z" />
    <glyph glyph-name="Udieresisacute" unicode="&#x1d7;" 
d="M207 546l158 897h242l-158 -893c-6 -34 -10 -71 -10 -94c0 -167 110 -267 264 -267s268 111 302 298l170 956h241l-177 -991c-55 -304 -256 -481 -542 -481c-299 0 -500 182 -500 465c0 34 3 69 10 110zM813 1896l223 234h246l-257 -234h-212zM716 1564
c-71 0 -128 59 -128 132s57 132 128 132s128 -59 128 -132s-57 -132 -128 -132zM1145 1564c-71 0 -128 59 -128 132s57 132 128 132s128 -59 128 -132s-57 -132 -128 -132z" />
    <glyph glyph-name="Udieresismacron" unicode="&#x1d5;" 
d="M207 546l158 897h242l-158 -893c-6 -34 -10 -71 -10 -94c0 -167 110 -267 264 -267s268 111 302 298l170 956h241l-177 -991c-55 -304 -256 -481 -542 -481c-299 0 -500 182 -500 465c0 34 3 69 10 110zM1148 1828c71 0 128 -59 128 -133c0 -73 -57 -132 -128 -132
s-128 59 -128 132c0 74 57 133 128 133zM1339 2101l-25 -148h-704l26 148h703zM719 1828c71 0 128 -59 128 -133c0 -73 -57 -132 -128 -132s-128 59 -128 132c0 74 57 133 128 133z" />
    <glyph glyph-name="Udieresiscaron" unicode="&#x1d9;" 
d="M207 546l158 897h242l-158 -893c-6 -34 -10 -71 -10 -94c0 -167 110 -267 264 -267s268 111 302 298l170 956h241l-177 -991c-55 -304 -256 -481 -542 -481c-299 0 -500 182 -500 465c0 34 3 69 10 110zM1059 1881h-221l-231 276h218l128 -162h17l184 162h230zM717 1564
c-71 0 -128 59 -128 132s57 132 128 132s128 -59 128 -132s-57 -132 -128 -132zM1146 1564c-71 0 -128 59 -128 132s57 132 128 132s128 -59 128 -132s-57 -132 -128 -132z" />
    <glyph glyph-name="Udieresisbelow" unicode="&#x1e72;" 
d="M207 546l158 897h242l-158 -893c-6 -34 -10 -71 -10 -94c0 -167 110 -267 264 -267s268 111 302 298l170 956h241l-177 -991c-55 -304 -256 -481 -542 -481c-299 0 -500 182 -500 465c0 34 3 69 10 110zM372 -456c-73 0 -136 63 -136 139s63 139 136 139
s135 -63 135 -139s-62 -139 -135 -139zM810 -456c-73 0 -135 63 -135 139s62 139 135 139s136 -63 136 -139s-63 -139 -136 -139z" />
    <glyph glyph-name="Utildebelow" unicode="&#x1e74;" 
d="M207 546l158 897h242l-158 -893c-6 -34 -10 -71 -10 -94c0 -167 110 -267 264 -267s268 111 302 298l170 956h241l-177 -991c-55 -304 -256 -481 -542 -481c-299 0 -500 182 -500 465c0 34 3 69 10 110zM449 -315c-54 0 -82 -46 -90 -147h-167c18 192 114 306 258 306
c161 0 201 -153 286 -153c54 0 82 44 90 144h167c-17 -187 -117 -304 -258 -304c-161 0 -201 154 -286 154z" />
    <glyph glyph-name="Uhookabove" unicode="&#x1ee6;" 
d="M207 546l158 897h242l-158 -893c-6 -34 -10 -71 -10 -94c0 -167 110 -267 264 -267s268 111 302 298l170 956h241l-177 -991c-55 -304 -256 -481 -542 -481c-299 0 -500 182 -500 465c0 34 3 69 10 110zM762 1826l14 133c41 16 94 25 144 25c128 0 215 -72 215 -183
c0 -107 -79 -195 -207 -236l-65 99c73 24 116 69 116 112c0 44 -37 71 -100 71c-44 0 -91 -9 -117 -21z" />
    <glyph glyph-name="Ubreve" unicode="&#x16c;" 
d="M207 546l158 897h242l-158 -893c-6 -34 -10 -71 -10 -94c0 -167 110 -267 264 -267s268 111 302 298l170 956h241l-177 -991c-55 -304 -256 -481 -542 -481c-299 0 -500 182 -500 465c0 34 3 69 10 110zM925 1599c-213 0 -356 141 -328 324h170
c-10 -108 58 -179 170 -179s203 72 224 179h177c-34 -195 -200 -324 -413 -324z" />
    <glyph glyph-name="Uinvertedbreve" unicode="&#x216;" 
d="M207 546l158 897h242l-158 -893c-6 -34 -10 -71 -10 -94c0 -167 110 -267 264 -267s268 111 302 298l170 956h241l-177 -991c-55 -304 -256 -481 -542 -481c-299 0 -500 182 -500 465c0 34 3 69 10 110zM968 1923c213 0 356 -141 328 -324h-171c11 108 -57 179 -169 179
s-204 -72 -225 -179h-177c35 195 201 324 414 324z" />
    <glyph glyph-name="Utildeacute" unicode="&#x1e78;" 
d="M207 546l158 897h242l-158 -893c-6 -34 -10 -71 -10 -94c0 -167 110 -267 264 -267s268 111 302 298l170 956h241l-177 -991c-55 -304 -256 -481 -542 -481c-299 0 -500 182 -500 465c0 34 3 69 10 110zM828 1919l136 229h224l-162 -229h-198zM776 1694
c-50 0 -82 -40 -92 -119h-153c16 157 111 260 245 260c163 0 180 -132 273 -132c50 0 82 39 92 115h153c-15 -148 -112 -256 -244 -256c-164 0 -180 132 -274 132z" />
    <glyph glyph-name="Udotbelow" unicode="&#x1ee4;" 
d="M207 546l158 897h242l-158 -893c-6 -34 -10 -71 -10 -94c0 -167 110 -267 264 -267s268 111 302 298l170 956h241l-177 -991c-55 -304 -256 -481 -542 -481c-299 0 -500 182 -500 465c0 34 3 69 10 110zM591 -466c-79 0 -145 67 -145 149c0 81 66 148 145 148
c80 0 146 -67 146 -148c0 -82 -66 -149 -146 -149z" />
    <glyph glyph-name="Utilde" unicode="&#x168;" 
d="M207 546l158 897h242l-158 -893c-6 -34 -10 -71 -10 -94c0 -167 110 -267 264 -267s268 111 302 298l170 956h241l-177 -991c-55 -304 -256 -481 -542 -481c-299 0 -500 182 -500 465c0 34 3 69 10 110zM791 1752c-53 0 -86 -47 -96 -139h-153c16 176 110 289 246 289
c160 0 194 -153 280 -153c51 0 84 47 95 136h153c-15 -167 -111 -284 -246 -284c-156 0 -186 151 -279 151z" />
    <glyph glyph-name="Umacron" unicode="&#x16a;" 
d="M207 546l158 897h242l-158 -893c-6 -34 -10 -71 -10 -94c0 -167 110 -267 264 -267s268 111 302 298l170 956h241l-177 -991c-55 -304 -256 -481 -542 -481c-299 0 -500 182 -500 465c0 34 3 69 10 110zM1268 1672h-696l29 166h695z" />
    <glyph glyph-name="Umacrondieresis" unicode="&#x1e7a;" 
d="M207 546l158 897h242l-158 -893c-6 -34 -10 -71 -10 -94c0 -167 110 -267 264 -267s268 111 302 298l170 956h241l-177 -991c-55 -304 -256 -481 -542 -481c-299 0 -500 182 -500 465c0 34 3 69 10 110zM752 1885c-71 0 -128 58 -128 132c0 73 57 132 128 132
s128 -59 128 -132c0 -74 -57 -132 -128 -132zM561 1611l25 148h704l-26 -148h-703zM1181 1885c-71 0 -128 58 -128 132c0 73 57 132 128 132s128 -59 128 -132c0 -74 -57 -132 -128 -132z" />
    <glyph glyph-name="Uring" unicode="&#x16e;" 
d="M207 546l158 897h242l-158 -893c-6 -34 -10 -71 -10 -94c0 -167 110 -267 264 -267s268 111 302 298l170 956h241l-177 -991c-55 -304 -256 -481 -542 -481c-299 0 -500 182 -500 465c0 34 3 69 10 110zM924 1553c-113 0 -199 85 -199 196s86 195 199 195
c112 0 198 -84 198 -195s-86 -196 -198 -196zM923 1652c57 0 99 41 99 96c0 56 -43 97 -99 97c-55 0 -98 -41 -98 -97c0 -55 43 -96 98 -96z" />
    <glyph glyph-name="Uogonek" unicode="&#x172;" 
d="M866 -440c-146 0 -251 82 -251 195c0 87 51 161 151 221l1 15c-19 -10 -47 -15 -75 -15c-296 -5 -495 180 -495 460c0 47 3 78 10 110l159 897h241l-158 -893c-6 -29 -10 -66 -10 -94c0 -161 105 -267 264 -267c153 0 268 113 302 298l170 956h241l-177 -991
c-32 -178 -106 -307 -228 -394c-152 -113 -198 -171 -198 -248c0 -58 49 -97 123 -97c30 0 62 2 73 6l-26 -143c-31 -11 -68 -16 -117 -16z" />
    <glyph glyph-name="Uhorn" unicode="&#x1af;" 
d="M684 -29c-292 0 -484 179 -484 453c0 34 2 67 10 108l160 911h241l-161 -912c-6 -33 -9 -68 -9 -90c0 -152 98 -252 250 -252c147 0 256 106 288 281l173 973h193c71 0 117 41 131 117l24 142h188l-29 -178c-29 -161 -121 -246 -268 -246h-26l-149 -838
c-52 -295 -251 -469 -532 -469z" />
    <glyph glyph-name="Uhorngrave" unicode="&#x1eea;" 
d="M1365 1278l-149 -838c-52 -295 -251 -469 -532 -469c-292 0 -484 179 -484 453c0 34 2 67 10 108l160 911h241l-161 -912c-6 -33 -9 -68 -9 -90c0 -152 98 -252 250 -252c147 0 256 106 288 281l173 973h193c71 0 117 41 131 117l24 142h188l-29 -178
c-29 -161 -121 -246 -268 -246h-26zM850 1918l203 -312h-223l-233 312h253z" />
    <glyph glyph-name="Uhornacute" unicode="&#x1ee8;" 
d="M684 -29c-292 0 -484 179 -484 453c0 34 2 67 10 108l160 911h241l-161 -912c-6 -33 -9 -68 -9 -90c0 -152 98 -252 250 -252c147 0 256 106 288 281l173 973h193c71 0 117 41 131 117l24 142h188l-29 -178c-29 -161 -121 -246 -268 -246h-26l-149 -838
c-52 -295 -251 -469 -532 -469zM723 1606l312 312h266l-342 -312h-236z" />
    <glyph glyph-name="Uhorndotbelow" unicode="&#x1ef0;" 
d="M575 -466c-79 0 -145 67 -145 149c0 81 66 148 145 148s146 -67 146 -148c0 -82 -67 -149 -146 -149zM684 -29c-292 0 -484 179 -484 453c0 34 2 67 10 108l160 911h241l-161 -912c-6 -33 -9 -68 -9 -90c0 -152 98 -252 250 -252c147 0 256 106 288 281l173 973h193
c71 0 117 41 131 117l24 142h188l-29 -178c-29 -161 -121 -246 -268 -246h-26l-149 -838c-52 -295 -251 -469 -532 -469z" />
    <glyph glyph-name="Uhornhookabove" unicode="&#x1eec;" 
d="M764 1826l14 133c41 16 93 25 143 25c129 0 216 -72 216 -183c0 -107 -80 -195 -207 -236l-65 99c73 24 115 69 115 112c0 44 -36 71 -99 71c-44 0 -91 -9 -117 -21zM684 -29c-292 0 -484 179 -484 453c0 34 2 67 10 108l160 911h241l-161 -912c-6 -33 -9 -68 -9 -90
c0 -152 98 -252 250 -252c147 0 256 106 288 281l173 973h193c71 0 117 41 131 117l24 142h188l-29 -178c-29 -161 -121 -246 -268 -246h-26l-149 -838c-52 -295 -251 -469 -532 -469z" />
    <glyph glyph-name="Uhorntilde" unicode="&#x1eee;" 
d="M684 -29c-292 0 -484 179 -484 453c0 34 2 67 10 108l160 911h241l-161 -912c-6 -33 -9 -68 -9 -90c0 -152 98 -252 250 -252c147 0 256 106 288 281l173 973h193c71 0 117 41 131 117l24 142h188l-29 -178c-29 -161 -121 -246 -268 -246h-26l-149 -838
c-52 -295 -251 -469 -532 -469zM788 1752c-53 0 -86 -47 -96 -139h-153c16 176 110 289 246 289c160 0 194 -153 280 -153c51 0 85 47 95 136h153c-15 -167 -111 -284 -245 -284c-156 0 -187 151 -280 151z" />
    <glyph glyph-name="V" unicode="V" 
d="M678 253l547 1190h252l-705 -1443h-278l-197 1443h250l122 -1190h9z" />
    <glyph glyph-name="Vtilde" unicode="&#x1e7c;" 
d="M678 253l547 1190h252l-705 -1443h-278l-197 1443h250l122 -1190h9zM788 1752c-53 0 -86 -47 -96 -139h-154c17 176 111 289 247 289c160 0 194 -153 280 -153c51 0 84 47 95 136h153c-15 -167 -111 -284 -246 -284c-156 0 -186 151 -279 151z" />
    <glyph glyph-name="Vdotbelow" unicode="&#x1e7e;" 
d="M678 253l547 1190h252l-705 -1443h-278l-197 1443h250l122 -1190h9zM577 -466c-79 0 -146 67 -146 149c0 81 67 148 146 148s145 -67 145 -148c0 -82 -66 -149 -145 -149z" />
    <glyph glyph-name="W" unicode="W" 
d="M797 869h-13l-327 -869h-224l22 1443h216l-20 -527l-29 -597h13l300 794h193l19 -794h14l169 585l168 539h222l-482 -1443h-222z" />
    <glyph glyph-name="Wgrave" unicode="&#x1e80;" 
d="M806 1918l203 -312h-223l-233 312h253zM797 869h-13l-327 -869h-224l22 1443h216l-20 -527l-29 -597h13l300 794h193l19 -794h14l169 585l168 539h222l-482 -1443h-222z" />
    <glyph glyph-name="Wacute" unicode="&#x1e82;" 
d="M797 869h-13l-327 -869h-224l22 1443h216l-20 -527l-29 -597h13l300 794h193l19 -794h14l169 585l168 539h222l-482 -1443h-222zM766 1606l313 312h265l-342 -312h-236z" />
    <glyph glyph-name="Wdotaccent" unicode="&#x1e86;" 
d="M797 869h-13l-327 -869h-224l22 1443h216l-20 -527l-29 -597h13l300 794h193l19 -794h14l169 585l168 539h222l-482 -1443h-222zM944 1615c-79 0 -145 67 -145 148c0 82 66 149 145 149s146 -67 146 -149c0 -81 -67 -148 -146 -148z" />
    <glyph glyph-name="Wdotbelow" unicode="&#x1e88;" 
d="M797 869h-13l-327 -869h-224l22 1443h216l-20 -527l-29 -597h13l300 794h193l19 -794h14l169 585l168 539h222l-482 -1443h-222zM577 -466c-79 0 -146 67 -146 149c0 81 67 148 146 148s145 -67 145 -148c0 -82 -66 -149 -145 -149z" />
    <glyph glyph-name="Wdieresis" unicode="&#x1e84;" 
d="M797 869h-13l-327 -869h-224l22 1443h216l-20 -527l-29 -597h13l300 794h193l19 -794h14l169 585l168 539h222l-482 -1443h-222zM723 1633c-72 0 -135 63 -135 138c0 76 63 139 135 139c73 0 136 -63 136 -139c0 -75 -63 -138 -136 -138zM1162 1633
c-73 0 -135 63 -135 138c0 76 62 139 135 139s135 -63 135 -139c0 -75 -62 -138 -135 -138z" />
    <glyph glyph-name="Wcircumflex" unicode="&#x174;" 
d="M797 869h-13l-327 -869h-224l22 1443h216l-20 -527l-29 -597h13l300 794h193l19 -794h14l169 585l168 539h222l-482 -1443h-222zM1091 1930l226 -324h-210l-129 196h-15l-199 -196h-230l339 324h218z" />
    <glyph glyph-name="X" unicode="X" 
d="M38 0l568 728l-316 715h258l228 -546h12l422 546h269l-583 -722l329 -721h-252l-242 535h-12l-422 -535h-259z" />
    <glyph glyph-name="Xdotaccent" unicode="&#x1e8a;" 
d="M38 0l568 728l-316 715h258l228 -546h12l422 546h269l-583 -722l329 -721h-252l-242 535h-12l-422 -535h-259zM938 1615c-79 0 -145 67 -145 148c0 82 66 149 145 149c80 0 146 -67 146 -149c0 -81 -66 -148 -146 -148z" />
    <glyph glyph-name="Xdieresis" unicode="&#x1e8c;" 
d="M38 0l568 728l-316 715h258l228 -546h12l422 546h269l-583 -722l329 -721h-252l-242 535h-12l-422 -535h-259zM718 1633c-73 0 -135 63 -135 138c0 76 62 139 135 139s135 -63 135 -139c0 -75 -62 -138 -135 -138zM1157 1633c-73 0 -136 63 -136 138c0 76 63 139 136 139
c72 0 135 -63 135 -139c0 -75 -63 -138 -135 -138z" />
    <glyph glyph-name="Y" unicode="Y" 
d="M754 0h-241l99 561l-327 882h253l221 -636h15l439 636h272l-632 -882z" />
    <glyph glyph-name="Ygrave" unicode="&#x1ef2;" 
d="M794 1918l204 -312h-223l-234 312h253zM754 0h-241l99 561l-327 882h253l221 -636h15l439 636h272l-632 -882z" />
    <glyph glyph-name="Yacute" unicode="&#xdd;" 
d="M754 0h-241l99 561l-327 882h253l221 -636h15l439 636h272l-632 -882zM755 1606l312 312h265l-342 -312h-235z" />
    <glyph glyph-name="Ydotaccent" unicode="&#x1e8e;" 
d="M754 0h-241l99 561l-327 882h253l221 -636h15l439 636h272l-632 -882zM932 1615c-79 0 -145 67 -145 148c0 82 66 149 145 149c80 0 146 -67 146 -149c0 -81 -66 -148 -146 -148z" />
    <glyph glyph-name="Ydotbelow" unicode="&#x1ef4;" 
d="M754 0h-241l99 561l-327 882h253l221 -636h15l439 636h272l-632 -882zM575 -466c-80 0 -146 67 -146 149c0 81 66 148 146 148c79 0 145 -67 145 -148c0 -82 -66 -149 -145 -149z" />
    <glyph glyph-name="Ydieresis" unicode="&#x178;" 
d="M754 0h-241l99 561l-327 882h253l221 -636h15l439 636h272l-632 -882zM712 1633c-73 0 -135 63 -135 138c0 76 62 139 135 139s135 -63 135 -139c0 -75 -62 -138 -135 -138zM1150 1633c-72 0 -135 63 -135 138c0 76 63 139 135 139c73 0 136 -63 136 -139
c0 -75 -63 -138 -136 -138z" />
    <glyph glyph-name="Ytilde" unicode="&#x1ef8;" 
d="M754 0h-241l99 561l-327 882h253l221 -636h15l439 636h272l-632 -882zM775 1752c-52 0 -85 -47 -95 -139h-154c17 176 111 289 246 289c160 0 195 -153 280 -153c52 0 85 47 95 136h153c-15 -167 -110 -284 -245 -284c-156 0 -187 151 -280 151z" />
    <glyph glyph-name="Ycircumflex" unicode="&#x176;" 
d="M754 0h-241l99 561l-327 882h253l221 -636h15l439 636h272l-632 -882zM1080 1930l226 -324h-211l-128 196h-16l-199 -196h-230l340 324h218z" />
    <glyph glyph-name="Ymacron" unicode="&#x232;" 
d="M754 0h-241l99 561l-327 882h253l221 -636h15l439 636h272l-632 -882zM1262 1672h-696l29 166h696z" />
    <glyph glyph-name="Yhookabove" unicode="&#x1ef6;" 
d="M754 0h-241l99 561l-327 882h253l221 -636h15l439 636h272l-632 -882zM747 1826l13 133c41 16 94 25 144 25c128 0 216 -72 216 -183c0 -107 -80 -195 -207 -236l-65 99c73 24 115 69 115 112c0 44 -36 71 -100 71c-43 0 -90 -9 -116 -21z" />
    <glyph glyph-name="Z" unicode="Z" 
d="M134 0l29 172l884 1046l2 14h-675l35 211h976l-29 -174l-885 -1044l-2 -14h714l-36 -211h-1013z" />
    <glyph glyph-name="Zacute" unicode="&#x179;" 
d="M134 0l29 172l884 1046l2 14h-675l35 211h976l-29 -174l-885 -1044l-2 -14h714l-36 -211h-1013zM765 1606l313 312h265l-342 -312h-236z" />
    <glyph glyph-name="Zcaron" unicode="&#x17d;" 
d="M134 0l29 172l884 1046l2 14h-675l35 211h976l-29 -174l-885 -1044l-2 -14h714l-36 -211h-1013zM805 1601l-226 324h210l129 -196h15l199 196h230l-339 -324h-218z" />
    <glyph glyph-name="Zcircumflex" unicode="&#x1e90;" 
d="M134 0l29 172l884 1046l2 14h-675l35 211h976l-29 -174l-885 -1044l-2 -14h714l-36 -211h-1013zM1091 1930l226 -324h-211l-129 196h-15l-199 -196h-230l339 324h219z" />
    <glyph glyph-name="Zlinebelow" unicode="&#x1e94;" 
d="M134 0l29 172l884 1046l2 14h-675l35 211h976l-29 -174l-885 -1044l-2 -14h714l-36 -211h-1013zM909 -407h-695l28 165h696z" />
    <glyph glyph-name="Zdotbelow" unicode="&#x1e92;" 
d="M134 0l29 172l884 1046l2 14h-675l35 211h976l-29 -174l-885 -1044l-2 -14h714l-36 -211h-1013zM577 -466c-79 0 -146 67 -146 149c0 81 67 148 146 148s145 -67 145 -148c0 -82 -66 -149 -145 -149z" />
    <glyph glyph-name="Zdotaccent" unicode="&#x17b;" 
d="M134 0l29 172l884 1046l2 14h-675l35 211h976l-29 -174l-885 -1044l-2 -14h714l-36 -211h-1013zM943 1615c-79 0 -145 67 -145 148c0 82 66 149 145 149c80 0 146 -67 146 -149c0 -81 -66 -148 -146 -148z" />
    <glyph glyph-name="AE" unicode="&#xc6;" 
d="M728 589l111 628h-88l-261 -628h238zM1461 1233h-400l-74 -407h364l-34 -199h-364l-76 -416h400l-35 -211h-619l69 387h-285l-161 -387h-243l634 1443h859z" />
    <glyph glyph-name="AEmacron" unicode="&#x1e2;" 
d="M1477 1838l-29 -166h-695l29 166h695zM728 589l111 628h-88l-261 -628h238zM1461 1233h-400l-74 -407h364l-34 -199h-364l-76 -416h400l-35 -211h-619l69 387h-285l-161 -387h-243l634 1443h859z" />
    <glyph glyph-name="AEacute" unicode="&#x1fc;" 
d="M1519 1918l-342 -312h-236l312 312h266zM839 1217h-88l-261 -628h238zM3 0l634 1443h859l-35 -210h-400l-74 -407h364l-34 -199h-364l-76 -416h400l-35 -211h-619l69 387h-285l-161 -387h-243z" />
    <glyph glyph-name="OE" unicode="&#x152;" 
d="M411 874l-37 -206c-12 -73 -18 -148 -18 -214c0 -138 61 -223 161 -223c127 0 209 108 249 330l40 219c14 69 19 124 19 193c0 159 -58 240 -170 240c-122 0 -203 -112 -244 -339zM709 185c-69 -156 -150 -219 -287 -219c-187 0 -300 150 -300 398c0 104 7 193 27 309
l43 250c64 375 205 554 430 554c155 0 250 -96 268 -263h10l41 229h567l-37 -221h-376l-70 -385h341l-36 -211h-341l-74 -406h376l-37 -220h-567l32 185h-10z" />
    <glyph glyph-name="Eth" unicode="&#xd0;" 
d="M414 211h168c268 0 418 144 469 439c2 10 17 94 18 109c4 35 7 78 7 119c0 234 -116 357 -333 357h-146l-72 -404h245l-34 -199h-247zM390 1443h396c345 0 541 -198 541 -548c0 -48 -3 -95 -7 -134c-1 -17 -18 -112 -21 -128c-73 -421 -303 -633 -690 -633h-473l111 632
h-125l33 199h127z" />
    <glyph glyph-name="Thorn" unicode="&#xde;" 
d="M431 1443h253l-44 -248h243c271 0 432 -160 415 -414c-17 -300 -212 -474 -533 -474h-279l-56 -307h-253zM604 982l-82 -459h239c176 0 280 89 291 248c12 137 -67 211 -223 211h-225z" />
    <glyph glyph-name="Alphagreek" unicode="&#x391;" 
d="M560 571h352l-60 619h-10zM967 0l-37 379h-458l-173 -379h-251l700 1443h278l188 -1443h-247z" />
    <glyph glyph-name="Betagreek" unicode="&#x392;" 
d="M621 1252l-75 -415h231c163 0 276 95 277 230c0 120 -79 185 -226 185h-207zM431 194h267c192 0 315 98 315 252c0 135 -97 209 -276 209h-222zM161 0l254 1443h467c265 0 424 -126 423 -334c-1 -177 -124 -318 -310 -353l-3 -14c163 -28 270 -157 269 -325
c-1 -250 -209 -417 -525 -417h-575z" />
    <glyph glyph-name="Gammagreek" unicode="&#x393;" 
d="M244 0l254 1443h888l-35 -211h-646l-219 -1232h-242z" />
    <glyph glyph-name="Deltagreek" unicode="&#x394;" 
d="M75 0l25 147l648 1296h278l186 -1296l-25 -147h-1112zM374 211h591l2 15l-115 969h-10l-465 -969z" />
    <glyph glyph-name="Deltagreek" unicode="&#x2206;" 
d="M75 0l25 147l648 1296h278l186 -1296l-25 -147h-1112zM374 211h591l2 15l-115 969h-10l-465 -969z" />
    <glyph glyph-name="Epsilongreek" unicode="&#x395;" 
d="M1133 211l-35 -211h-887l254 1443h887l-36 -211h-644l-73 -402h608l-34 -197h-607l-77 -422h644z" />
    <glyph glyph-name="Zetagreek" unicode="&#x396;" 
d="M134 0l29 172l884 1046l2 14h-675l35 211h976l-29 -174l-885 -1044l-2 -14h714l-36 -211h-1013z" />
    <glyph glyph-name="Etagreek" unicode="&#x397;" 
d="M1134 0h-238l112 629h-527l-111 -629h-238l254 1443h238l-107 -603h527l106 603h238z" />
    <glyph glyph-name="Thetagreek" unicode="&#x398;" 
d="M530 617l34 206h424l-34 -206h-424zM1274 535c-66 -368 -269 -564 -585 -564c-293 0 -498 207 -498 505c0 99 4 158 15 210l40 225c64 360 274 561 580 561c300 0 503 -207 503 -512c0 -82 -4 -130 -15 -200zM700 187c190 0 303 131 348 388l40 224c9 50 14 107 14 156
c0 181 -103 301 -284 301c-193 0 -300 -126 -345 -380l-39 -217c-10 -61 -15 -107 -15 -166c0 -187 100 -306 281 -306z" />
    <glyph glyph-name="Iotagreek" unicode="&#x399;" 
d="M1050 0h-834l35 208h297l184 1027h-297l35 208h834l-35 -208h-296l-184 -1027h296z" />
    <glyph glyph-name="Kappagreek" unicode="&#x39a;" 
d="M881 803l376 -803h-268l-306 648l-188 -181l-83 -467h-231l254 1443h231l-122 -677h15l667 677h280z" />
    <glyph glyph-name="Lambdagreek" unicode="&#x39b;" 
d="M63 0l685 1443h278l173 -1443h-247l-101 1180h-10l-526 -1180h-252z" />
    <glyph glyph-name="Mugreek" unicode="&#x39c;" 
d="M389 508l-91 -508h-206l254 1443h253l127 -854h15l426 854h261l-254 -1443h-206l91 508l128 580h-18l-389 -749h-171l-125 749h-17z" />
    <glyph glyph-name="Nugreek" unicode="&#x39d;" 
d="M349 0h-212l254 1443h220l360 -1028h16l184 1028h212l-254 -1443h-219l-361 1032h-16z" />
    <glyph glyph-name="Xigreek" unicode="&#x39e;" 
d="M150 0l38 217h965l-37 -217h-966zM343 620l36 215h802l-37 -215h-801zM368 1226l36 217h966l-37 -217h-965z" />
    <glyph glyph-name="Omicrongreek" unicode="&#x39f;" 
d="M1274 535c-66 -368 -269 -564 -585 -564c-293 0 -498 207 -498 505c0 98 4 156 15 210l40 225c64 360 274 561 580 561c300 0 503 -207 503 -512c0 -79 -5 -138 -15 -200zM703 187c173 0 284 129 330 388l40 224c9 51 14 108 14 156c0 182 -107 301 -272 301
c-171 0 -282 -124 -328 -380l-38 -218c-11 -62 -15 -108 -15 -165c0 -189 103 -306 269 -306z" />
    <glyph glyph-name="Pigreek" unicode="&#x3a0;" 
d="M137 0l254 1443h992l-254 -1443h-238l219 1232h-517l-218 -1232h-238z" />
    <glyph glyph-name="Rhogreek" unicode="&#x3a1;" 
d="M422 1443h460c281 0 458 -161 458 -415c0 -326 -234 -545 -588 -545h-255l-87 -483h-242zM630 1241l-99 -556h216c217 0 350 124 350 326c0 147 -95 230 -261 230h-206z" />
    <glyph glyph-name="Sigmagreek" unicode="&#x3a3;" 
d="M134 0l29 168l466 559l-250 542l29 174h929l-35 -211h-636l-3 -15l226 -490l-6 -31l-400 -471l-3 -14h658l-36 -211h-968z" />
    <glyph glyph-name="Taugreek" unicode="&#x3a4;" 
d="M754 0h-242l219 1232h-422l35 211h1086l-36 -211h-422z" />
    <glyph glyph-name="Upsilongreek" unicode="&#x3a5;" 
d="M754 0h-241l99 561l-327 882h253l221 -636h15l439 636h272l-632 -882z" />
    <glyph glyph-name="Phigreek" unicode="&#x3a6;" 
d="M761 57l-27 -152h-213l27 155c-245 38 -380 221 -380 514c0 217 51 418 158 563c101 140 252 228 452 232l27 156h214l-27 -159c244 -38 379 -221 379 -514c0 -214 -50 -416 -157 -563c-102 -141 -254 -230 -453 -232zM366 565c0 -197 83 -298 219 -322l168 946
c-125 -1 -216 -75 -278 -179c-79 -130 -109 -307 -109 -445zM1174 861c0 197 -84 298 -219 322l-169 -946c125 1 216 75 279 179c79 130 109 307 109 445z" />
    <glyph glyph-name="Chigreek" unicode="&#x3a7;" 
d="M38 0l568 728l-316 715h258l228 -546h12l422 546h269l-583 -722l329 -721h-252l-242 535h-12l-422 -535h-259z" />
    <glyph glyph-name="Psigreek" unicode="&#x3a8;" 
d="M517 0l55 312c-244 35 -357 148 -357 373c0 58 6 125 21 212l96 546h207l-97 -557c-14 -83 -20 -135 -20 -175c0 -130 57 -196 193 -213l167 945h209l-168 -956c181 4 260 94 307 360l104 596h208l-109 -626c-64 -367 -213 -507 -530 -519l-55 -298h-231z" />
    <glyph glyph-name="Omegagreek" unicode="&#x3a9;" 
d="M830 1473c335 0 514 -189 514 -521c0 -41 -1 -98 -11 -155c-2 -21 -16 -99 -21 -118c-46 -220 -152 -363 -331 -460l-3 -14h260l-35 -205h-488l42 249c135 47 238 170 285 335c22 34 47 126 53 173c12 67 14 107 14 153c0 223 -100 346 -295 346
c-170 0 -290 -116 -342 -316c-12 -31 -37 -157 -41 -201c-6 -40 -7 -77 -7 -115c0 -158 55 -297 164 -370l-43 -254h-466l35 205h254l3 14c-112 88 -176 246 -176 435c0 53 4 105 11 153c5 35 31 161 43 193c77 288 278 473 581 473z" />
    <glyph glyph-name="Omegagreek" unicode="&#x2126;" 
d="M830 1473c335 0 514 -189 514 -521c0 -41 -1 -98 -11 -155c-2 -21 -16 -99 -21 -118c-46 -220 -152 -363 -331 -460l-3 -14h260l-35 -205h-488l42 249c135 47 238 170 285 335c22 34 47 126 53 173c12 67 14 107 14 153c0 223 -100 346 -295 346
c-170 0 -290 -116 -342 -316c-12 -31 -37 -157 -41 -201c-6 -40 -7 -77 -7 -115c0 -158 55 -297 164 -370l-43 -254h-466l35 205h254l3 14c-112 88 -176 246 -176 435c0 53 4 105 11 153c5 35 31 161 43 193c77 288 278 473 581 473z" />
    <glyph glyph-name="Alphatonosgreek" unicode="&#x386;" 
d="M644 1443l-232 -363h-168l163 363h237zM659 571h275l-22 619h-10zM954 0l-13 379h-358l-149 -379h-236l614 1443h277l106 -1443h-241z" />
    <glyph glyph-name="Epsilontonosgreek" unicode="&#x388;" 
d="M1192 211l-35 -211h-683l254 1443h683l-36 -211h-449l-72 -402h412l-34 -197h-412l-77 -422h449zM208 1080l163 363h237l-233 -363h-167z" />
    <glyph glyph-name="Etatonosgreek" unicode="&#x389;" 
d="M1199 0h-217l113 639h-336l-113 -639h-217l254 1443h217l-108 -614h336l108 614h217zM197 1080l163 363h237l-233 -363h-167z" />
    <glyph glyph-name="Iotatonosgreek" unicode="&#x38a;" 
d="M1184 0h-716l35 208h250l185 1027h-251l35 208h716l-35 -208h-252l-184 -1027h252zM253 1080l163 363h237l-232 -363h-168z" />
    <glyph glyph-name="Iotatonosgreek.1" 
d="M915 0h-241l254 1443h241zM310 1080l163 363h237l-232 -363h-168z" />
    <glyph glyph-name="Iotadieresisgreek" unicode="&#x3aa;" 
d="M1050 0h-834l35 208h297l184 1027h-297l35 208h834l-35 -208h-296l-184 -1027h296zM723 1633c-72 0 -135 63 -135 138c0 76 63 139 135 139c73 0 136 -63 136 -139c0 -75 -63 -138 -136 -138zM1162 1633c-73 0 -135 63 -135 138c0 76 62 139 135 139s135 -63 135 -139
c0 -75 -62 -138 -135 -138z" />
    <glyph glyph-name="Omicrontonosgreek" unicode="&#x38c;" 
d="M638 447c0 -150 49 -260 182 -260c132 0 226 120 270 364l43 246c14 83 21 169 21 207c0 150 -57 252 -185 252c-122 0 -222 -116 -265 -352l-49 -281c-12 -68 -17 -124 -17 -176zM1309 553c-69 -392 -235 -583 -500 -583c-250 0 -381 166 -381 455c0 69 8 150 30 276
l34 197c67 385 237 575 498 575c255 0 382 -172 382 -453c0 -50 -7 -141 -23 -237zM215 1080l163 363h237l-232 -363h-168z" />
    <glyph glyph-name="Upsilontonosgreek" unicode="&#x38e;" 
d="M926 0h-222l99 560l-179 883h236l88 -634h15l305 634h251l-493 -882zM200 1080l163 363h237l-232 -363h-168z" />
    <glyph glyph-name="Upsilondieresisgreek" unicode="&#x3ab;" 
d="M754 0h-241l99 561l-327 882h253l221 -636h15l439 636h272l-632 -882zM712 1633c-73 0 -135 63 -135 138c0 76 62 139 135 139s135 -63 135 -139c0 -75 -62 -138 -135 -138zM1150 1633c-72 0 -135 63 -135 138c0 76 63 139 135 139c73 0 136 -63 136 -139
c0 -75 -63 -138 -136 -138z" />
    <glyph glyph-name="Omegatonosgreek" unicode="&#x38f;" 
d="M959 1471c280 0 426 -165 426 -481c0 -42 -2 -102 -11 -157c-1 -19 -15 -96 -18 -117c-46 -258 -127 -405 -299 -516l-3 -15h215l-31 -185h-422l48 280c151 66 236 201 282 461c2 17 14 82 16 97c10 58 11 93 11 133c0 189 -73 286 -229 286c-162 0 -254 -111 -301 -371
c-4 -30 -25 -142 -27 -162c-8 -48 -11 -97 -11 -134c1 -134 46 -239 135 -302l-48 -288h-404l32 185h214l2 15c-91 84 -143 224 -143 388c0 44 3 91 10 139c2 23 23 139 27 166c67 380 248 578 529 578zM169 1080l163 363h237l-232 -363h-168z" />
    <glyph glyph-name="Acyrillic" unicode="&#x410;" 
d="M560 571h352l-60 619h-10zM967 0l-37 379h-458l-173 -379h-251l700 1443h278l188 -1443h-247z" />
    <glyph glyph-name="uni04D0" unicode="&#x4d0;" 
d="M560 571h352l-60 619h-10zM748 1443h278l188 -1443h-247l-37 379h-458l-173 -379h-251zM1139 1936h180c-22 -194 -177 -329 -391 -329s-357 152 -322 329h174c-13 -108 47 -186 161 -186c108 0 181 75 198 186z" />
    <glyph glyph-name="uni04D2" unicode="&#x4d2;" 
d="M723 1633c-73 0 -135 63 -135 138c0 76 62 139 135 139s135 -63 135 -139c0 -75 -62 -138 -135 -138zM560 571h352l-60 619h-10zM748 1443h278l188 -1443h-247l-37 379h-458l-173 -379h-251zM1162 1910c73 0 135 -63 135 -139c0 -75 -62 -138 -135 -138s-136 63 -136 138
c0 76 63 139 136 139z" />
    <glyph glyph-name="uniF50E" 
d="M560 571h352l-60 619h-10zM748 1443h278l188 -1443h-247l-37 379h-458l-173 -379h-251zM606 1838h696l-29 -166h-695z" />
    <glyph glyph-name="uniF460" 
d="M1343 1918l-342 -312h-235l312 312h265zM560 571h352l-60 619h-10zM748 1443h278l188 -1443h-247l-37 379h-458l-173 -379h-251z" />
    <glyph glyph-name="uni041B.BUL" 
d="M846 1190l-547 -1190h-251l704 1443h278l197 -1443h-250l-121 1190h-10z" />
    <glyph glyph-name="Becyrillic" unicode="&#x411;" 
d="M705 0h-546l254 1443h890l-35 -211h-648l-63 -347h274c264 0 430 -156 430 -401c0 -281 -232 -484 -556 -484zM436 205h262c186 0 314 111 314 270c0 138 -90 215 -251 215h-237z" />
    <glyph glyph-name="Vecyrillic" unicode="&#x412;" 
d="M621 1252l-75 -415h231c163 0 276 95 277 230c0 120 -79 185 -226 185h-207zM431 194h267c192 0 315 98 315 252c0 135 -97 209 -276 209h-222zM161 0l254 1443h467c265 0 424 -126 423 -334c-1 -177 -124 -318 -310 -353l-3 -14c163 -28 270 -157 269 -325
c-1 -250 -209 -417 -525 -417h-575z" />
    <glyph glyph-name="Gecyrillic" unicode="&#x413;" 
d="M1468 1443l-78 -450h-218l41 239h-463l-181 -1021h246l-35 -211h-724l35 211h234l180 1021h-230l35 211h1158z" />
    <glyph glyph-name="Gjecyrillic" unicode="&#x403;" 
d="M1383 1918l-342 -312h-236l313 312h265zM1468 1443l-78 -450h-218l41 239h-463l-181 -1021h246l-35 -211h-724l35 211h234l180 1021h-230l35 211h1158z" />
    <glyph glyph-name="uni04F6" unicode="&#x4f6;" 
d="M1468 1443l-78 -450h-218l41 239h-463l-181 -1021h247l-24 -140l-12 -71h-1l-49 -286h-227l50 286h-497l35 211h234l180 1021h-230l35 211h1158z" />
    <glyph glyph-name="Geupturncyrillic" unicode="&#x490;" 
d="M1517 1722l-77 -447h-1l-49 -282h-218l41 239h-463l-181 -1021h246l-35 -211h-724l35 211h234l180 1021h-230l35 211h941l48 279h218z" />
    <glyph glyph-name="uni0492" unicode="&#x492;" 
d="M1468 1443l-78 -450h-218l41 239h-463l-72 -408h319l-32 -189h-321l-75 -424h246l-35 -211h-724l35 211h234l75 424h-234l32 189h235l72 408h-230l35 211h1158z" />
    <glyph glyph-name="uniF53C" 
d="M473 0h-242l254 1443h887l-35 -211h-646l-78 -434h588l-34 -202h-589z" />
    <glyph glyph-name="uni04FA" unicode="&#x4fa;" 
d="M1469 1443l-78 -450h-218l41 239h-464l-72 -408h319l-32 -189h-321l-112 -635c-45 -262 -189 -341 -404 -341c-50 0 -95 3 -119 6l34 198c15 -2 44 -3 77 -3c102 0 152 50 169 140l31 178l81 457h-235l32 189h236l72 408h-231l36 211h1158z" />
    <glyph glyph-name="Decyrillic" unicode="&#x414;" 
d="M1043 0h-806l-50 -285h-220l86 496h84c86 53 139 159 195 398l196 834h832l-219 -1232h157l-85 -496h-220zM709 1233l-155 -655c-44 -188 -88 -293 -146 -346l-3 -21h495l184 1022h-375z" />
    <glyph glyph-name="uni0414.BUL" 
d="M831 1190l-429 -979h519l-80 979h-10zM1172 211h114l-87 -496h-229l51 285h-777l-51 -285h-230l86 496h117l581 1232h278z" />
    <glyph glyph-name="Iecyrillic" unicode="&#x415;" 
d="M1133 211l-35 -211h-887l254 1443h887l-36 -211h-644l-73 -402h608l-34 -197h-607l-77 -422h644z" />
    <glyph glyph-name="Iocyrillic" unicode="&#x401;" 
d="M1133 211l-35 -211h-887l254 1443h887l-36 -211h-644l-73 -402h608l-34 -197h-607l-77 -422h644zM736 1633c-73 0 -136 63 -136 138c0 76 63 139 136 139c72 0 135 -63 135 -139c0 -75 -63 -138 -135 -138zM1174 1633c-73 0 -135 63 -135 138c0 76 62 139 135 139
s136 -63 136 -139c0 -75 -63 -138 -136 -138z" />
    <glyph glyph-name="uni04D6" unicode="&#x4d6;" 
d="M1133 211l-35 -211h-887l254 1443h887l-36 -211h-644l-73 -402h608l-34 -197h-607l-77 -422h644zM939 1607c-214 0 -357 152 -323 329h175c-13 -108 47 -186 161 -186c107 0 181 75 198 186h180c-22 -194 -177 -329 -391 -329z" />
    <glyph glyph-name="uniF510" 
d="M1133 211l-35 -211h-887l254 1443h887l-36 -211h-644l-73 -402h608l-34 -197h-607l-77 -422h644zM1286 1672h-696l29 166h696z" />
    <glyph glyph-name="uniF512" 
d="M1133 211l-35 -211h-887l254 1443h887l-36 -211h-644l-73 -402h608l-34 -197h-607l-77 -422h644zM1162 1900c71 0 128 -59 128 -132s-57 -132 -128 -132s-128 59 -128 132s57 132 128 132zM606 2026l25 147h704l-25 -147h-704zM733 1900c71 0 128 -59 128 -132
s-57 -132 -128 -132s-128 59 -128 132s57 132 128 132z" />
    <glyph glyph-name="uni0400" unicode="&#x400;" 
d="M818 1918l203 -312h-223l-233 312h253zM1133 211l-35 -211h-887l254 1443h887l-36 -211h-644l-73 -402h608l-34 -197h-607l-77 -422h644z" />
    <glyph glyph-name="uniF461" 
d="M1133 211l-35 -211h-887l254 1443h887l-36 -211h-644l-73 -402h608l-34 -197h-607l-77 -422h644zM778 1606l313 312h265l-342 -312h-236z" />
    <glyph glyph-name="uniF469" 
d="M1133 211l-35 -211h-887l254 1443h887l-36 -211h-644l-73 -402h608l-34 -197h-607l-77 -422h644zM594 1602c-70 0 -129 59 -129 131c0 73 59 132 129 132c71 0 129 -59 129 -132c0 -72 -58 -131 -129 -131zM1266 1602c-71 0 -129 59 -129 131c0 73 58 132 129 132
c70 0 128 -59 128 -132c0 -72 -58 -131 -128 -131zM785 1593l94 361h232l-156 -361h-170z" />
    <glyph glyph-name="uniF514" 
d="M1133 211l-35 -211h-887l254 1443h887l-36 -211h-644l-73 -402h608l-34 -197h-607l-77 -422h644zM958 1937c213 0 357 -152 322 -329h-175c13 108 -46 187 -160 187c-108 0 -182 -76 -198 -187h-180c21 194 176 329 391 329zM993 1995c-214 0 -357 151 -323 328h175
c-13 -108 47 -186 161 -186c108 0 181 76 198 186h180c-22 -194 -177 -328 -391 -328z" />
    <glyph glyph-name="Zhecyrillic" unicode="&#x416;" 
d="M202 0h-226l456 740l-171 703h210l144 -629h62l111 629h202l-111 -629h54l365 629h221l-423 -722l194 -721h-215l-165 624h-63l-111 -624h-202l110 624h-55z" />
    <glyph glyph-name="uni04C1" unicode="&#x4c1;" 
d="M202 0h-226l456 740l-171 703h210l144 -629h62l111 629h202l-111 -629h54l365 629h221l-423 -722l194 -721h-215l-165 624h-63l-111 -624h-202l110 624h-55zM904 1607c-214 0 -357 152 -322 329h175c-13 -108 46 -186 160 -186c108 0 182 75 198 186h180
c-22 -194 -176 -329 -391 -329z" />
    <glyph glyph-name="uni04DC" unicode="&#x4dc;" 
d="M202 0h-226l456 740l-171 703h210l144 -629h62l111 629h202l-111 -629h54l365 629h221l-423 -722l194 -721h-215l-165 624h-63l-111 -624h-202l110 624h-55zM705 1633c-73 0 -135 63 -135 138c0 76 62 139 135 139s136 -63 136 -139c0 -75 -63 -138 -136 -138zM1144 1633
c-73 0 -135 63 -135 138c0 76 62 139 135 139s135 -63 135 -139c0 -75 -62 -138 -135 -138z" />
    <glyph glyph-name="uni0496" unicode="&#x496;" 
d="M1050 721l120 -516h130l-85 -490h-183l51 285h-74v2l-149 622h-49l-110 -624h-195l111 624h-44l-371 -624h-218l431 740l-156 703h201l130 -629h59l111 629h194l-110 -629h51l351 629h212z" />
    <glyph glyph-name="uni0416.BUL" 
d="M573 635l-385 -635h-212l500 808l-215 635h193l215 -660h11l119 660h186l-119 -660h11l454 660h197l-450 -643l212 -800h-208l-158 635l-110 -156l-86 -479h-187l86 479z" />
    <glyph glyph-name="Zecyrillic" unicode="&#x417;" 
d="M561 636l35 204h171c175 0 294 96 294 237c0 122 -94 197 -249 197c-137 0 -237 -66 -264 -175h-225c44 231 236 373 502 373c282 0 471 -145 471 -363c0 -186 -143 -345 -325 -364l-2 -15c162 -30 263 -147 263 -305c0 -269 -225 -454 -554 -454
c-297 0 -499 156 -499 387c0 13 1 50 2 58h230c-1 -3 -1 -12 -1 -21c0 -125 118 -217 275 -217c181 0 299 101 299 256c0 123 -101 202 -257 202h-166z" />
    <glyph glyph-name="uni04DE" unicode="&#x4de;" 
d="M561 636l35 204h171c175 0 294 96 294 237c0 122 -94 197 -249 197c-137 0 -237 -66 -264 -175h-225c44 231 236 373 502 373c282 0 471 -145 471 -363c0 -186 -143 -345 -325 -364l-2 -15c162 -30 263 -147 263 -305c0 -269 -225 -454 -554 -454
c-297 0 -499 156 -499 387c0 13 1 50 2 58h230c-1 -3 -1 -12 -1 -21c0 -125 118 -217 275 -217c181 0 299 101 299 256c0 123 -101 202 -257 202h-166zM712 1633c-73 0 -135 63 -135 138c0 76 62 139 135 139s135 -63 135 -139c0 -75 -62 -138 -135 -138zM1151 1633
c-73 0 -135 63 -135 138c0 76 62 139 135 139s135 -63 135 -139c0 -75 -62 -138 -135 -138z" />
    <glyph glyph-name="uni0498" unicode="&#x498;" 
d="M971 745l-2 -15c162 -30 263 -147 263 -305c0 -243 -183 -417 -460 -449l-46 -262h-228l47 268c-223 40 -366 181 -366 376c0 13 1 50 2 58h230c-1 -3 -1 -12 -1 -21c0 -125 118 -217 275 -217c181 0 299 101 299 256c0 123 -101 202 -257 202h-166l35 204h171
c175 0 294 96 294 237c0 122 -94 197 -249 197c-137 0 -237 -66 -264 -175h-225c44 231 236 373 502 373c282 0 471 -145 471 -363c0 -186 -143 -345 -325 -364z" />
    <glyph glyph-name="uniF50A" 
d="M971 745l-2 -15c162 -30 263 -147 263 -305c0 -254 -201 -434 -501 -452l-52 -95c110 -9 174 -66 174 -154c0 -132 -102 -212 -272 -212c-48 0 -106 9 -153 23l22 124c26 -10 87 -19 128 -19c71 0 114 24 114 66s-43 63 -127 63h-56l12 104l58 104
c-242 31 -400 177 -400 381c0 13 1 50 2 58h230c-1 -3 -1 -12 -1 -21c0 -125 118 -217 275 -217c181 0 299 101 299 256c0 123 -101 202 -257 202h-166l35 204h171c175 0 294 96 294 237c0 122 -94 197 -249 197c-137 0 -237 -66 -264 -175h-225c44 231 236 373 502 373
c282 0 471 -145 471 -363c0 -186 -143 -345 -325 -364z" />
    <glyph glyph-name="uniF516" 
d="M561 636l35 204h171c175 0 294 96 294 237c0 122 -94 197 -249 197c-137 0 -237 -66 -264 -175h-225c44 231 236 373 502 373c282 0 471 -145 471 -363c0 -186 -143 -345 -325 -364l-2 -15c162 -30 263 -147 263 -305c0 -269 -225 -454 -554 -454
c-297 0 -499 156 -499 387c0 13 1 50 2 58h230c-1 -3 -1 -12 -1 -21c0 -125 118 -217 275 -217c181 0 299 101 299 256c0 123 -101 202 -257 202h-166zM760 1601l-226 324h211l128 -196h16l198 196h230l-339 -324h-218z" />
    <glyph glyph-name="Iicyrillic" unicode="&#x418;" 
d="M389 1443h211l-184 -1027h16l739 1027h214l-254 -1443h-211l183 1023h-16l-738 -1023h-214z" />
    <glyph glyph-name="Iishortcyrillic" unicode="&#x419;" 
d="M1144 1936h181c-22 -194 -177 -329 -392 -329c-213 0 -356 152 -322 329h175c-13 -108 47 -186 161 -186c107 0 181 75 197 186zM389 1443h211l-184 -1027h16l739 1027h214l-254 -1443h-211l183 1023h-16l-738 -1023h-214z" />
    <glyph glyph-name="uni040D" unicode="&#x40d;" 
d="M807 1918l204 -312h-223l-233 312h252zM389 1443h211l-184 -1027h16l739 1027h214l-254 -1443h-211l183 1023h-16l-738 -1023h-214z" />
    <glyph glyph-name="uni04E2" unicode="&#x4e2;" 
d="M1271 1669h-696l29 166h695zM389 1443h211l-184 -1027h16l739 1027h214l-254 -1443h-211l183 1023h-16l-738 -1023h-214z" />
    <glyph glyph-name="uni04E4" unicode="&#x4e4;" 
d="M1162 1633c-73 0 -135 63 -135 138c0 76 62 139 135 139s136 -63 136 -139c0 -75 -63 -138 -136 -138zM724 1633c-73 0 -136 63 -136 138c0 76 63 139 136 139s135 -63 135 -139c0 -75 -62 -138 -135 -138zM389 1443h211l-184 -1027h16l739 1027h214l-254 -1443h-211
l183 1023h-16l-738 -1023h-214z" />
    <glyph glyph-name="uni048A" unicode="&#x48a;" 
d="M1126 1937h176c-21 -193 -174 -329 -384 -329c-215 0 -352 144 -318 329h174c-15 -111 47 -187 151 -187s184 73 201 187zM1362 1443l-215 -1223h156l-10 -57l-211 -448h-200l143 285h-122l29 158l10 62h1l145 803h-15l-735 -1023h-208l255 1443h204l-185 -1027h15
l733 1027h210z" />
    <glyph glyph-name="uniF462" 
d="M779 1606l313 312h265l-342 -312h-236zM389 1443h211l-184 -1027h16l739 1027h214l-254 -1443h-211l183 1023h-16l-738 -1023h-214z" />
    <glyph glyph-name="uniF532" 
d="M1144 1936h181c-22 -194 -177 -329 -392 -329c-213 0 -356 152 -322 329h175c-13 -108 47 -186 161 -186c107 0 181 75 197 186zM1171 1443h214l-254 -1443h-3c-44 -252 -167 -341 -362 -341c-50 0 -95 3 -119 6l34 198c15 -2 44 -3 77 -3c96 0 144 52 160 140l31 178h3
l151 845h-16l-738 -1023h-214l254 1443h211l-184 -1027h16z" />
    <glyph glyph-name="Kacyrillic" unicode="&#x41a;" 
d="M629 1443l-110 -627h39l623 627h280l-724 -720l498 -723h-283l-420 622h-46l-111 -622h-239l254 1443h239z" />
    <glyph glyph-name="Kjecyrillic" unicode="&#x40c;" 
d="M717 1606l312 312h265l-342 -312h-235zM629 1443l-110 -627h39l623 627h280l-724 -720l498 -723h-283l-420 622h-46l-111 -622h-239l254 1443h239z" />
    <glyph glyph-name="uni049A" unicode="&#x49a;" 
d="M733 723l342 -502h212l-87 -505h-220l51 284h-84l-420 622h-46l-111 -622h-234l254 1443h234l-110 -627h39l623 627h276z" />
    <glyph glyph-name="uni049C" unicode="&#x49c;" 
d="M390 1443h226l-254 -1443h-226zM1470 1443l-458 -682l228 -761h-251l-196 631h-15l-57 -322h-152l151 856h152l-56 -320h13l400 598h241z" />
    <glyph glyph-name="uni049E" unicode="&#x49e;" 
d="M1461 1443l-724 -720l498 -723h-283l-420 622h-46l-111 -622h-239l201 1142h-146l33 193h147l19 108h239l-19 -108h211l-33 -193h-212l-57 -326h39l623 627h280z" />
    <glyph glyph-name="uni04A0" unicode="&#x4a0;" 
d="M1464 1443l-546 -721l315 -722h-246l-277 622h-40l-110 -622h-220l218 1232h-354l36 211h574l-112 -627h39l478 627h245z" />
    <glyph glyph-name="uni04C3" unicode="&#x4c3;" 
d="M1460 1443l-650 -653c237 -56 385 -223 385 -480c0 -358 -224 -668 -614 -668c-40 0 -79 6 -100 12l37 221c21 -4 48 -6 77 -6c232 0 352 215 352 429c0 207 -149 326 -396 326h-66l-110 -624h-239l254 1443h239l-108 -608h53l602 608h284z" />
    <glyph glyph-name="uni041A.BUL" 
d="M881 803l376 -803h-268l-306 648l-188 -181l-83 -467h-231l254 1443h231l-122 -677h15l667 677h280z" />
    <glyph glyph-name="Elcyrillic" unicode="&#x41b;" 
d="M1399 1443l-254 -1443h-238l219 1232h-422l-100 -462c-155 -631 -230 -784 -489 -784c-30 0 -85 7 -105 14l39 227c20 -6 43 -9 62 -9c110 0 138 68 266 565l147 660h875z" />
    <glyph glyph-name="uni04C5" unicode="&#x4c5;" 
d="M1371 1443l-215 -1223h151l-10 -57l-215 -448h-215l146 285h-119l37 220h2l179 1012h-408l-154 -683c-81 -375 -196 -563 -443 -563c-29 0 -73 6 -97 14l38 223c13 -5 35 -8 55 -8c112 0 180 100 236 344l198 884h834z" />
    <glyph glyph-name="uniF530" 
d="M1377 1443l-215 -1223h147l-88 -505h-212l51 285h-165l36 220h3l179 1012h-414l-154 -683c-81 -375 -191 -563 -438 -563c-29 0 -73 6 -97 14l38 223c13 -5 35 -8 55 -8c112 0 171 100 227 344l198 884h849z" />
    <glyph glyph-name="uni052E" unicode="&#x52e;" 
d="M1377 1443l-215 -1223h147l-88 -505h-212l51 285h-165l36 220h3l179 1012h-414l-154 -683c-81 -375 -191 -563 -438 -563c-29 0 -73 6 -97 14l38 223c13 -5 35 -8 55 -8c112 0 171 100 227 344l198 884h849z" />
    <glyph glyph-name="uni0512" unicode="&#x512;" 
d="M524 1443h875l-254 -1443c-46 -262 -188 -341 -393 -341c-51 0 -96 3 -120 6l34 198c15 -2 44 -3 77 -3c102 0 147 52 164 140l31 178h1l187 1054h-422l-100 -462c-155 -631 -230 -784 -489 -784c-30 0 -85 7 -105 14l39 227c20 -6 43 -9 62 -9c110 0 138 68 266 565z
" />
    <glyph glyph-name="Emcyrillic" unicode="&#x41c;" 
d="M389 508l-91 -508h-206l254 1443h253l127 -854h15l426 854h261l-254 -1443h-206l91 508l128 580h-18l-389 -749h-171l-125 749h-17z" />
    <glyph glyph-name="uni04CD" unicode="&#x4cd;" 
d="M1387 1443l-215 -1223h135l-9 -57l-213 -448h-198l145 285h-106l33 183l6 37l52 288l128 580h-18l-368 -749h-171l-104 749h-18l-77 -580l-91 -508h-206l254 1443h255l107 -854h15l409 854h255z" />
    <glyph glyph-name="Encyrillic" unicode="&#x41d;" 
d="M1134 0h-238l112 629h-527l-111 -629h-238l254 1443h238l-107 -603h527l106 603h238z" />
    <glyph glyph-name="uni04C7" unicode="&#x4c7;" 
d="M1150 1443h238l-254 -1443c-46 -263 -181 -341 -393 -341c-50 0 -96 3 -119 6l34 198c14 -2 43 -3 77 -3c99 0 146 49 163 140l31 178h1l80 451h-527l-111 -629h-238l254 1443h238l-107 -603h527z" />
    <glyph glyph-name="uni04A2" unicode="&#x4a2;" 
d="M1371 1443l-215 -1223h150l-88 -505h-227l51 285h-159l37 220h2l72 409h-518l-111 -629h-233l254 1443h233l-107 -603h518l107 603h234z" />
    <glyph glyph-name="uni04C9" unicode="&#x4c9;" 
d="M1386 1443l-215 -1223h128l-10 -57l-211 -448h-205l142 285h-118l37 220h2l72 409h-529l-111 -629h-236l254 1443h236l-107 -603h529l107 603h235z" />
    <glyph glyph-name="uni04A4" unicode="&#x4a4;" 
d="M1514 1443l-35 -210h-394l-217 -1233h-220l111 629h-350l-111 -629h-221l254 1443h221l-107 -603h350l107 603h612z" />
    <glyph glyph-name="Ocyrillic" unicode="&#x41e;" 
d="M1274 535c-66 -368 -269 -564 -585 -564c-293 0 -498 207 -498 505c0 98 4 156 15 210l40 225c64 360 274 561 580 561c300 0 503 -207 503 -512c0 -79 -5 -138 -15 -200zM703 187c173 0 284 129 330 388l40 224c9 51 14 108 14 156c0 182 -107 301 -272 301
c-171 0 -282 -124 -328 -380l-38 -218c-11 -62 -15 -108 -15 -165c0 -189 103 -306 269 -306z" />
    <glyph glyph-name="uni04E6" unicode="&#x4e6;" 
d="M1274 535c-66 -368 -269 -564 -585 -564c-293 0 -498 207 -498 505c0 98 4 156 15 210l40 225c64 360 274 561 580 561c300 0 503 -207 503 -512c0 -79 -5 -138 -15 -200zM703 187c173 0 284 129 330 388l40 224c9 51 14 108 14 156c0 182 -107 301 -272 301
c-171 0 -282 -124 -328 -380l-38 -218c-11 -62 -15 -108 -15 -165c0 -189 103 -306 269 -306zM723 1633c-73 0 -135 63 -135 138c0 76 62 139 135 139s135 -63 135 -139c0 -75 -62 -138 -135 -138zM1162 1633c-73 0 -136 63 -136 138c0 76 63 139 136 139s135 -63 135 -139
c0 -75 -62 -138 -135 -138z" />
    <glyph glyph-name="uniF518" 
d="M1274 535c-66 -368 -269 -564 -585 -564c-293 0 -498 207 -498 505c0 98 4 156 15 210l40 225c64 360 274 561 580 561c300 0 503 -207 503 -512c0 -79 -5 -138 -15 -200zM703 187c173 0 284 129 330 388l40 224c9 51 14 108 14 156c0 182 -107 301 -272 301
c-171 0 -282 -124 -328 -380l-38 -218c-11 -62 -15 -108 -15 -165c0 -189 103 -306 269 -306zM1273 1672h-695l28 166h696z" />
    <glyph glyph-name="uniF463" 
d="M1274 535c-66 -368 -269 -564 -585 -564c-293 0 -498 207 -498 505c0 98 4 156 15 210l40 225c64 360 274 561 580 561c300 0 503 -207 503 -512c0 -79 -5 -138 -15 -200zM703 187c173 0 284 129 330 388l40 224c9 51 14 108 14 156c0 182 -107 301 -272 301
c-171 0 -282 -124 -328 -380l-38 -218c-11 -62 -15 -108 -15 -165c0 -189 103 -306 269 -306zM766 1606l312 312h265l-342 -312h-235z" />
    <glyph glyph-name="uniF4D2" 
d="M805 1918l204 -312h-223l-234 312h253zM487 876l-38 -218c-11 -62 -15 -108 -15 -165c0 -189 103 -306 269 -306c173 0 284 129 330 388l40 224c9 51 14 108 14 156c0 182 -107 301 -272 301c-171 0 -282 -124 -328 -380zM1314 760l-40 -225
c-66 -368 -269 -564 -585 -564c-293 0 -498 207 -498 505c0 98 4 156 15 210l40 225c64 360 274 561 580 561c300 0 503 -207 503 -512c0 -79 -5 -138 -15 -200z" />
    <glyph glyph-name="uniF51A" 
d="M1274 535c-66 -368 -269 -564 -585 -564c-293 0 -498 207 -498 505c0 98 4 156 15 210l40 225c64 360 274 561 580 561c300 0 503 -207 503 -512c0 -79 -5 -138 -15 -200zM703 187c173 0 284 129 330 388l40 224c9 51 14 108 14 156c0 182 -107 301 -272 301
c-171 0 -282 -124 -328 -380l-38 -218c-11 -62 -15 -108 -15 -165c0 -189 103 -306 269 -306zM913 1604c-213 0 -356 152 -322 329h175c-13 -108 47 -186 161 -186c107 0 181 75 197 186h181c-22 -194 -177 -329 -392 -329z" />
    <glyph glyph-name="uni04E8" unicode="&#x4e8;" 
d="M1042 628h-598c-7 -48 -10 -88 -10 -135c0 -189 103 -306 269 -306c173 0 284 129 330 388zM479 828h599c6 43 9 88 9 127c0 182 -107 301 -272 301c-171 0 -282 -124 -328 -380zM206 686l40 225c64 360 274 561 580 561c300 0 503 -207 503 -512c0 -79 -5 -138 -15 -200
l-40 -225c-66 -368 -269 -564 -585 -564c-293 0 -498 207 -498 505c0 98 4 156 15 210z" />
    <glyph glyph-name="uniF49A" 
d="M1300 1839l-29 -166h-695l29 166h695zM1042 628h-598c-7 -48 -10 -88 -10 -135c0 -189 103 -306 269 -306c173 0 284 129 330 388zM479 828h599c6 43 9 88 9 127c0 182 -107 301 -272 301c-171 0 -282 -124 -328 -380zM206 686l40 225c64 360 274 561 580 561
c300 0 503 -207 503 -512c0 -79 -5 -138 -15 -200l-40 -225c-66 -368 -269 -564 -585 -564c-293 0 -498 207 -498 505c0 98 4 156 15 210z" />
    <glyph glyph-name="uniF51C" 
d="M1116 1936h180c-22 -194 -177 -329 -391 -329s-357 152 -322 329h174c-13 -108 47 -186 161 -186c108 0 181 75 198 186zM1042 628h-598c-7 -48 -10 -88 -10 -135c0 -189 103 -306 269 -306c173 0 284 129 330 388zM479 828h599c6 43 9 88 9 127c0 182 -107 301 -272 301
c-171 0 -282 -124 -328 -380zM206 686l40 225c64 360 274 561 580 561c300 0 503 -207 503 -512c0 -79 -5 -138 -15 -200l-40 -225c-66 -368 -269 -564 -585 -564c-293 0 -498 207 -498 505c0 98 4 156 15 210z" />
    <glyph glyph-name="uniF51E" 
d="M1189 2318h181c-22 -194 -177 -329 -392 -329c-213 0 -357 152 -322 329h175c-13 -108 46 -186 161 -186c107 0 181 75 197 186zM1254 1608h-175c13 108 -46 187 -160 187c-108 0 -182 -76 -198 -187h-180c22 194 177 329 391 329s357 -152 322 -329zM1042 628h-598
c-7 -48 -10 -88 -10 -135c0 -189 103 -306 269 -306c173 0 284 129 330 388zM479 828h599c6 43 9 88 9 127c0 182 -107 301 -272 301c-171 0 -282 -124 -328 -380zM206 686l40 225c64 360 274 561 580 561c300 0 503 -207 503 -512c0 -79 -5 -138 -15 -200l-40 -225
c-66 -368 -269 -564 -585 -564c-293 0 -498 207 -498 505c0 98 4 156 15 210z" />
    <glyph glyph-name="uni04EA" unicode="&#x4ea;" 
d="M1149 1633c-73 0 -135 63 -135 138c0 76 62 139 135 139s135 -63 135 -139c0 -75 -62 -138 -135 -138zM711 1633c-73 0 -136 63 -136 138c0 76 63 139 136 139c72 0 135 -63 135 -139c0 -75 -63 -138 -135 -138zM1042 628h-598c-7 -48 -10 -88 -10 -135
c0 -189 103 -306 269 -306c173 0 284 129 330 388zM479 828h599c6 43 9 88 9 127c0 182 -107 301 -272 301c-171 0 -282 -124 -328 -380zM206 686l40 225c64 360 274 561 580 561c300 0 503 -207 503 -512c0 -79 -5 -138 -15 -200l-40 -225c-66 -368 -269 -564 -585 -564
c-293 0 -498 207 -498 505c0 98 4 156 15 210z" />
    <glyph glyph-name="uni0472" unicode="&#x472;" 
d="M1033 576l12 65c-47 -38 -105 -63 -171 -63c-157 0 -169 85 -297 85c-65 0 -109 -31 -137 -64c-4 -35 -6 -68 -6 -105c0 -189 103 -306 269 -306c173 0 284 128 330 388zM487 877l-13 -77c47 40 106 65 173 65c157 0 169 -85 297 -85c64 0 108 31 135 63c5 39 8 78 8 112
c0 183 -107 301 -272 301c-171 0 -282 -123 -328 -379zM206 687l40 225c64 359 274 561 580 561c300 0 503 -207 503 -513c0 -79 -5 -137 -15 -199l-40 -225c-66 -369 -269 -565 -585 -565c-293 0 -498 208 -498 505c0 98 4 157 15 211z" />
    <glyph glyph-name="Pecyrillic" unicode="&#x41f;" 
d="M1415 1443l-254 -1443h-242l219 1232h-573l-218 -1232h-242l254 1443h1056z" />
    <glyph glyph-name="uni0524" unicode="&#x524;" 
d="M1370 1443l-215 -1223h148l-88 -505h-208l51 285h-184l37 220h2l180 1012h-529l-218 -1232h-241l254 1443h1011z" />
    <glyph glyph-name="Ercyrillic" unicode="&#x420;" 
d="M422 1443h460c281 0 458 -161 458 -415c0 -326 -234 -545 -588 -545h-255l-87 -483h-242zM630 1241l-99 -556h216c217 0 350 124 350 326c0 147 -95 230 -261 230h-206z" />
    <glyph glyph-name="uni048E" unicode="&#x48e;" 
d="M859 952l101 -213c88 55 137 149 137 272c0 147 -95 230 -261 230h-206l-99 -556h216c24 0 46 1 68 4l-93 191zM422 1443h460c281 0 458 -161 458 -415c0 -212 -99 -379 -266 -470l107 -223l-175 -95l-121 254c-42 -7 -87 -11 -133 -11h-255l-87 -483h-242z" />
    <glyph glyph-name="uniF4D4" 
d="M422 1443h460c281 0 458 -161 458 -415c0 -326 -234 -545 -588 -545h-255l-87 -483h-242zM630 1241l-99 -556h216c217 0 350 124 350 326c0 147 -95 230 -261 230h-206zM775 1601l-226 324h211l128 -196h16l199 196h230l-340 -324h-218z" />
    <glyph glyph-name="Escyrillic" unicode="&#x421;" 
d="M1269 429c-39 -281 -256 -459 -554 -459c-311 0 -512 203 -512 518c0 52 6 108 14 154l45 258c64 371 275 572 602 572c292 0 495 -185 495 -453c0 -21 -2 -44 -6 -75h-243c2 22 3 38 3 63c0 148 -102 245 -259 245c-178 0 -300 -128 -342 -358l-48 -272
c-7 -41 -12 -92 -12 -137c0 -183 104 -294 277 -294c158 0 263 90 297 259c1 5 1 8 1 11h246c-1 -11 -2 -24 -4 -32z" />
    <glyph glyph-name="uni04AA" unicode="&#x4aa;" 
d="M1353 944h-243c2 22 3 38 3 63c0 148 -102 245 -259 245c-178 0 -300 -128 -342 -358l-48 -272c-7 -41 -12 -92 -12 -137c0 -183 104 -294 277 -294c158 0 263 90 297 259c1 5 1 8 1 11h246c-1 -11 -2 -24 -4 -32c-38 -276 -248 -452 -537 -459l-51 -92
c110 -9 174 -66 174 -154c0 -132 -102 -212 -272 -212c-48 0 -106 9 -152 23l21 124c26 -10 88 -19 128 -19c72 0 114 24 114 66s-43 63 -127 63h-55l11 104l62 110c-236 50 -382 237 -382 505c0 52 6 108 14 154l45 258c64 371 275 572 602 572c292 0 495 -185 495 -453
c0 -21 -2 -44 -6 -75z" />
    <glyph glyph-name="uniF53E" 
d="M1353 944h-243c2 22 3 38 3 63c0 148 -102 245 -259 245c-178 0 -300 -128 -342 -358l-48 -272c-7 -41 -12 -92 -12 -137c0 -183 104 -294 277 -294c158 0 263 90 297 259c1 5 1 8 1 11h246c-1 -11 -2 -24 -4 -32c-36 -257 -221 -428 -480 -455l-46 -259h-227l48 273
c-223 56 -361 239 -361 500c0 52 6 108 14 154l45 258c64 371 275 572 602 572c292 0 495 -185 495 -453c0 -21 -2 -44 -6 -75z" />
    <glyph glyph-name="Ecyrillic" unicode="&#x404;" 
d="M721 -29c-312 0 -521 211 -521 526c0 42 2 81 9 126c4 35 38 238 54 314c63 342 276 536 588 536c298 0 504 -189 504 -462c0 -9 -1 -35 -3 -55h-244c0 17 1 33 0 56c-8 144 -113 240 -264 240c-169 0 -290 -124 -335 -345l-16 -73h500l-34 -199h-499
c-9 -47 -14 -98 -14 -136c0 -188 111 -308 284 -308c146 0 253 80 291 226c3 13 5 22 7 33h244c-1 -18 -3 -37 -6 -52c-51 -264 -260 -427 -545 -427z" />
    <glyph glyph-name="uniF526" 
d="M721 -29c-312 0 -521 211 -521 526c0 42 2 81 9 126c4 35 38 238 54 314c63 342 276 536 588 536c298 0 504 -189 504 -462c0 -9 -1 -35 -3 -55h-244c0 17 1 33 0 56c-8 144 -113 240 -264 240c-169 0 -290 -124 -335 -345l-16 -73h500l-34 -199h-499
c-9 -47 -14 -98 -14 -136c0 -188 111 -308 284 -308c146 0 253 80 291 226c3 13 5 22 7 33h244c-1 -18 -3 -37 -6 -52c-51 -264 -260 -427 -545 -427zM748 1633c-73 0 -135 63 -135 138c0 76 62 139 135 139s136 -63 136 -139c0 -75 -63 -138 -136 -138zM1187 1633
c-73 0 -135 63 -135 138c0 76 62 139 135 139s135 -63 135 -139c0 -75 -62 -138 -135 -138z" />
    <glyph glyph-name="Tecyrillic" unicode="&#x422;" 
d="M754 0h-242l219 1232h-422l35 211h1086l-36 -211h-422z" />
    <glyph glyph-name="uni04AC" unicode="&#x4ac;" 
d="M344 1443h1086l-36 -211h-422l-178 -1007h172l-88 -510h-227l50 285h-189l38 225h2l179 1007h-422z" />
    <glyph glyph-name="Ucyrillic" unicode="&#x423;" 
d="M1477 1443l-601 -1051c-168 -296 -305 -404 -518 -404c-40 0 -102 7 -113 13l33 214c19 -6 53 -10 83 -10c96 0 165 43 246 158l-306 1080h251l210 -825h11l440 825h264z" />
    <glyph glyph-name="Ushortcyrillic" unicode="&#x40e;" 
d="M1477 1443l-601 -1051c-168 -296 -305 -404 -518 -404c-40 0 -102 7 -113 13l33 214c19 -6 53 -10 83 -10c96 0 165 43 246 158l-306 1080h251l210 -825h11l440 825h264zM1120 1936h181c-22 -194 -177 -329 -391 -329s-357 152 -323 329h175c-13 -108 47 -186 161 -186
c107 0 181 75 197 186z" />
    <glyph glyph-name="uni04EE" unicode="&#x4ee;" 
d="M1274 1672h-696l29 166h695zM1477 1443l-601 -1051c-168 -296 -305 -404 -518 -404c-40 0 -102 7 -113 13l33 214c19 -6 53 -10 83 -10c96 0 165 43 246 158l-306 1080h251l210 -825h11l440 825h264z" />
    <glyph glyph-name="uni04F0" unicode="&#x4f0;" 
d="M1142 1632c-73 0 -136 63 -136 138c0 76 63 139 136 139s135 -63 135 -139c0 -75 -62 -138 -135 -138zM703 1632c-73 0 -135 63 -135 138c0 76 62 139 135 139s135 -63 135 -139c0 -75 -62 -138 -135 -138zM1477 1443l-601 -1051c-168 -296 -305 -404 -518 -404
c-40 0 -102 7 -113 13l33 214c19 -6 53 -10 83 -10c96 0 165 43 246 158l-306 1080h251l210 -825h11l440 825h264z" />
    <glyph glyph-name="uni04F2" unicode="&#x4f2;" 
d="M593 1607l296 312h228l-317 -312h-207zM996 1607l296 312h228l-317 -312h-207zM1477 1443l-601 -1051c-168 -296 -305 -404 -518 -404c-40 0 -102 7 -113 13l33 214c19 -6 53 -10 83 -10c96 0 165 43 246 158l-306 1080h251l210 -825h11l440 825h264z" />
    <glyph glyph-name="uniF4CC" 
d="M780 1607l312 312h265l-341 -312h-236zM1477 1443l-601 -1051c-168 -296 -305 -404 -518 -404c-40 0 -102 7 -113 13l33 214c19 -6 53 -10 83 -10c96 0 165 43 246 158l-306 1080h251l210 -825h11l440 825h264z" />
    <glyph glyph-name="uniF464" 
d="M780 1607l312 312h265l-341 -312h-236zM1477 1443l-601 -1051c-168 -296 -305 -404 -518 -404c-40 0 -102 7 -113 13l33 214c19 -6 53 -10 83 -10c96 0 165 43 246 158l-306 1080h251l210 -825h11l440 825h264z" />
    <glyph glyph-name="Efcyrillic" unicode="&#x424;" 
d="M379 771c-2 -16 -9 -57 -10 -71c-6 -43 -7 -64 -7 -93c0 -155 76 -248 213 -268l141 787c-191 -5 -300 -121 -337 -355zM1355 655c-58 -345 -253 -513 -577 -517l-28 -164h-241l32 180c-255 32 -395 188 -395 444c0 39 2 72 6 101c1 17 12 79 15 97
c59 347 250 511 577 516l28 157h240l-30 -173c252 -32 394 -189 394 -444c0 -42 -2 -73 -7 -102c-1 -15 -11 -78 -14 -95zM947 1109l-140 -785c190 7 299 122 336 356c3 15 8 56 9 69c6 39 8 65 8 92c0 155 -73 246 -213 268z" />
    <glyph glyph-name="Xacyrillic" unicode="&#x425;" 
d="M38 0l568 728l-316 715h258l228 -546h12l422 546h269l-583 -722l329 -721h-252l-242 535h-12l-422 -535h-259z" />
    <glyph glyph-name="uni04B2" unicode="&#x4b2;" 
d="M874 721l222 -501h177l-88 -505h-219l51 285h-70l-234 535h-13l-409 -535h-253l552 728l-307 715h251l222 -546h12l410 546h263z" />
    <glyph glyph-name="uni04FE" unicode="&#x4fe;" 
d="M1479 1443l-515 -638h321l-33 -190h-308l281 -615h-252l-242 535h-12l-422 -535h-259l480 615h-308l32 190h330l-282 638h258l228 -546h12l422 546h269z" />
    <glyph glyph-name="uni04FC" unicode="&#x4fc;" 
d="M866 250l-135 285h-12l-422 -535h-259l568 728l-316 715h258l228 -546h12l422 546h269l-583 -722l170 -357c75 -168 119 -268 119 -373c0 -220 -144 -357 -385 -357c-54 0 -86 4 -111 9l36 210c19 -3 40 -5 73 -5c91 0 154 61 154 148c0 68 -34 135 -86 254z" />
    <glyph glyph-name="Tsecyrillic" unicode="&#x426;" 
d="M1301 211l-86 -496h-219l50 285h-948l254 1443h242l-219 -1232h536l218 1232h242l-218 -1232h148z" />
    <glyph glyph-name="uni04B4" unicode="&#x4b4;" 
d="M1385 1443l-218 -1232h118l-87 -496h-219l51 285h-767l217 1233h-257l36 210h706l-36 -210h-207l-182 -1022h384l219 1232h242z" />
    <glyph glyph-name="Checyrillic" unicode="&#x427;" 
d="M1399 1443l-254 -1443h-241l109 616h-12c-92 -66 -208 -101 -339 -101c-299 0 -454 207 -398 531l70 397h242l-69 -396c-35 -198 50 -313 233 -313c144 0 247 57 312 106l106 603h241z" />
    <glyph glyph-name="uni04F4" unicode="&#x4f4;" 
d="M1137 1633c-72 0 -135 63 -135 138c0 76 63 139 135 139c73 0 136 -63 136 -139c0 -75 -63 -138 -136 -138zM699 1633c-73 0 -135 63 -135 138c0 76 62 139 135 139s135 -63 135 -139c0 -75 -62 -138 -135 -138zM1399 1443l-254 -1443h-241l109 616h-12
c-92 -66 -208 -101 -339 -101c-299 0 -454 207 -398 531l70 397h242l-69 -396c-35 -198 50 -313 233 -313c144 0 247 57 312 106l106 603h241z" />
    <glyph glyph-name="uni04B6" unicode="&#x4b6;" 
d="M1371 1443l-219 -1223h149l-88 -505h-219l51 285h-164l111 616h-11c-91 -66 -205 -101 -326 -101c-297 0 -447 207 -389 531l70 397h232l-70 -396c-35 -198 48 -313 227 -313c141 0 242 57 307 106l107 603h232z" />
    <glyph glyph-name="uni04CB" unicode="&#x4cb;" 
d="M1158 1443h241l-254 -1443h-189l-50 -285h-227l87 505h177l70 396h-12c-92 -66 -208 -101 -339 -101c-299 0 -454 207 -398 531l70 397h242l-69 -396c-35 -198 50 -313 233 -313c144 0 247 57 312 106z" />
    <glyph glyph-name="uniF4C6" 
d="M1158 1443h241l-254 -1443c-44 -251 -188 -341 -402 -341c-50 0 -95 3 -119 6l34 198c15 -2 44 -3 77 -3c100 0 152 49 169 140l31 178l78 438h-12c-92 -66 -208 -101 -339 -101c-299 0 -454 207 -398 531l70 397h242l-69 -396c-35 -198 50 -313 233 -313
c144 0 247 57 312 106z" />
    <glyph glyph-name="uni04B8" unicode="&#x4b8;" 
d="M1161 1443h240l-254 -1443h-240l111 621h-12c-63 -42 -136 -70 -215 -84l-54 -308h-152l52 297c-287 10 -427 206 -373 511l71 406h240l-74 -422c-29 -167 30 -263 174 -283l58 332h152l-58 -330c85 12 161 42 227 93z" />
    <glyph glyph-name="uni04BA" unicode="&#x4ba;" 
d="M132 0l254 1443h241l-109 -616h12c92 66 208 101 339 101c299 0 454 -207 398 -531l-70 -397h-242l69 396c35 198 -50 313 -233 313c-144 0 -247 -57 -312 -106l-106 -603h-241z" />
    <glyph glyph-name="uniF49E" 
d="M573 811h12c85 56 187 86 305 86c277 0 421 -191 367 -496l-69 -401h-226l70 399c32 178 -48 279 -218 279c-110 0 -202 -32 -279 -89l-104 -589h-225l191 1087h-195l32 188h196l30 168h225l-30 -168h464l-32 -188h-465z" />
    <glyph glyph-name="uni0526" unicode="&#x526;" 
d="M1159 220h139l-87 -505h-209l51 285h-154l38 220l32 181c34 193 -46 308 -217 308c-131 0 -226 -57 -283 -97l-107 -612h-230l253 1443h230l-107 -607h11c82 59 185 92 303 92c282 0 424 -207 368 -531z" />
    <glyph glyph-name="Djecyrillic" unicode="&#x402;" 
d="M1326 504c0 -318 -182 -552 -455 -552c-54 0 -122 11 -146 21l36 204c24 -8 60 -13 88 -13c138 0 239 121 239 293c0 139 -68 221 -195 221c-94 0 -182 -38 -226 -85l-105 -593h-223l219 1233h-339l35 210h919l-35 -210h-357l-77 -424h9c65 46 159 79 266 79
c213 0 347 -143 347 -384z" />
    <glyph glyph-name="Tshecyrillic" unicode="&#x40b;" 
d="M538 0h-233l219 1232h-305l35 211h874l-35 -211h-336l-79 -434h10c73 63 181 101 281 101c212 0 328 -119 328 -335c0 -45 -4 -95 -14 -147l-73 -417h-232l69 392c6 36 9 69 9 100c0 125 -64 194 -180 194c-84 0 -176 -38 -233 -92z" />
    <glyph glyph-name="uni04C0" unicode="&#x4c0;" 
d="M1050 0h-834l35 208h297l184 1027h-297l35 208h834l-35 -208h-296l-184 -1027h296z" />
    <glyph glyph-name="Icyrillic" unicode="&#x406;" 
d="M1050 0h-834l35 208h297l184 1027h-297l35 208h834l-35 -208h-296l-184 -1027h296z" />
    <glyph glyph-name="Yicyrillic" unicode="&#x407;" 
d="M1050 0h-834l35 208h297l184 1027h-297l35 208h834l-35 -208h-296l-184 -1027h296zM723 1633c-72 0 -135 63 -135 138c0 76 63 139 135 139c73 0 136 -63 136 -139c0 -75 -63 -138 -136 -138zM1162 1633c-73 0 -135 63 -135 138c0 76 62 139 135 139s135 -63 135 -139
c0 -75 -62 -138 -135 -138z" />
    <glyph glyph-name="Dzhecyrillic" unicode="&#x40f;" 
d="M469 -285l50 285h-425l254 1443h242l-219 -1232h595l218 1232h242l-254 -1443h-426l-50 -285h-227z" />
    <glyph glyph-name="Shacyrillic" unicode="&#x428;" 
d="M1193 0h-1120l254 1443h187l-220 -1242h279l220 1242h188l-221 -1242h280l220 1242h187z" />
    <glyph glyph-name="Shchacyrillic" unicode="&#x429;" 
d="M1057 -285l50 285h-1063l254 1443h187l-221 -1248h268l220 1248h188l-221 -1248h268l220 1248h187l-220 -1242h153l-84 -486h-186z" />
    <glyph glyph-name="Hardsigncyrillic" unicode="&#x42a;" 
d="M707 937h215c230 0 380 -159 380 -401c0 -328 -205 -536 -535 -536h-467l219 1233h-282l34 210h525zM667 734l-95 -528h184c188 0 303 121 303 312c0 136 -75 216 -205 216h-187z" />
    <glyph glyph-name="Yericyrillic" unicode="&#x42b;" 
d="M421 734l-95 -530h96c182 0 296 125 296 319c0 132 -72 211 -193 211h-104zM393 0h-308l254 1443h210l-89 -507h108c226 0 365 -144 365 -380c0 -351 -199 -556 -540 -556zM1181 0h-210l254 1443h210z" />
    <glyph glyph-name="uni04F8" unicode="&#x4f8;" 
d="M1146 1576c-73 0 -136 63 -136 138c0 76 63 139 136 139s135 -63 135 -139c0 -75 -62 -138 -135 -138zM707 1576c-73 0 -135 63 -135 138c0 76 62 139 135 139s135 -63 135 -139c0 -75 -62 -138 -135 -138zM415 734l-95 -530h96c182 0 296 125 296 319
c0 132 -72 211 -193 211h-104zM387 0h-308l254 1443h210l-89 -507h108c226 0 365 -144 365 -380c0 -351 -198 -556 -540 -556zM1175 0h-210l254 1443h210z" />
    <glyph glyph-name="uniF520" 
d="M1272 1672h-696l29 166h696zM421 734l-95 -530h96c182 0 296 125 296 319c0 132 -72 211 -193 211h-104zM393 0h-308l254 1443h210l-89 -507h108c226 0 365 -144 365 -380c0 -351 -199 -556 -540 -556zM1181 0h-210l254 1443h210z" />
    <glyph glyph-name="uniF536" 
d="M1106 1936h180c-22 -194 -176 -329 -391 -329c-214 0 -357 152 -322 329h175c-13 -108 46 -186 160 -186c108 0 182 75 198 186zM421 734l-95 -530h96c182 0 296 125 296 319c0 132 -72 211 -193 211h-104zM393 0h-308l254 1443h210l-89 -507h108
c226 0 365 -144 365 -380c0 -351 -199 -556 -540 -556zM1181 0h-210l254 1443h210z" />
    <glyph glyph-name="uniF465" 
d="M756 1607l312 312h266l-342 -312h-236zM421 734l-95 -530h96c182 0 296 125 296 319c0 132 -72 211 -193 211h-104zM393 0h-308l254 1443h210l-89 -507h108c226 0 365 -144 365 -380c0 -351 -199 -556 -540 -556zM1181 0h-210l254 1443h210z" />
    <glyph glyph-name="Softsigncyrillic" unicode="&#x42c;" 
d="M530 734l-95 -530h266c203 0 318 114 318 314c0 137 -81 216 -220 216h-269zM714 0h-556l254 1443h242l-89 -508h305c238 0 395 -158 395 -399c0 -332 -208 -536 -551 -536z" />
    <glyph glyph-name="uni048C" unicode="&#x48c;" 
d="M535 204h175c229 0 336 115 336 284c0 119 -89 185 -250 185h-175zM654 875h216c267 0 425 -138 425 -360c0 -304 -205 -515 -556 -515h-480l187 1062h-270l33 193h271l33 188h242l-33 -188h467l-33 -193h-469z" />
    <glyph glyph-name="uni0462" unicode="&#x462;" 
d="M535 204h175c229 0 336 115 336 284c0 119 -89 185 -250 185h-175zM654 875h216c267 0 425 -138 425 -360c0 -304 -205 -515 -556 -515h-480l187 1062h-270l33 193h271l33 188h242l-33 -188h467l-33 -193h-469z" />
    <glyph glyph-name="Ljecyrillic" unicode="&#x409;" 
d="M906 734l-95 -532h80c145 0 245 136 245 333c0 129 -53 199 -150 199h-80zM591 1257l-95 -497c-121 -598 -185 -771 -402 -771c-38 0 -77 6 -95 12l38 215c10 -4 28 -8 41 -8c90 0 127 121 218 561l129 674h617l-91 -509h80c197 0 310 -136 310 -358
c0 -347 -176 -576 -451 -576h-307l222 1257h-214z" />
    <glyph glyph-name="Njecyrillic" unicode="&#x40a;" 
d="M275 0h-197l254 1443h197l-106 -599h301l106 599h198l-107 -599h74c200 0 318 -114 318 -343c0 -323 -163 -501 -449 -501h-288l114 644h-301zM882 649l-83 -464h82c150 0 235 114 235 292c0 110 -54 172 -150 172h-84z" />
    <glyph glyph-name="Ereversedcyrillic" unicode="&#x42d;" 
d="M258 1049c75 271 285 425 568 425c323 0 523 -204 523 -532c0 -59 -5 -119 -18 -192c-8 -44 -43 -240 -56 -276c-86 -328 -295 -503 -604 -503c-318 0 -514 185 -514 473c0 8 0 29 2 49h246c-1 -11 -2 -22 -2 -38c1 -166 102 -265 272 -265c181 0 308 126 367 356
c6 20 15 63 20 86h-509l34 199h507c5 40 8 77 8 107c0 200 -110 315 -286 315c-151 0 -261 -79 -316 -236c-3 -11 -5 -18 -8 -27h-248c3 21 8 42 14 59z" />
    <glyph glyph-name="uni04EC" unicode="&#x4ec;" 
d="M258 1049c75 271 285 425 568 425c323 0 523 -204 523 -532c0 -59 -5 -119 -18 -192c-8 -44 -43 -240 -56 -276c-86 -328 -295 -503 -604 -503c-318 0 -514 185 -514 473c0 8 0 29 2 49h246c-1 -11 -2 -22 -2 -38c1 -166 102 -265 272 -265c181 0 308 126 367 356
c6 20 15 63 20 86h-509l34 199h507c5 40 8 77 8 107c0 200 -110 315 -286 315c-151 0 -261 -79 -316 -236c-3 -11 -5 -18 -8 -27h-248c3 21 8 42 14 59zM692 1635c-73 0 -135 63 -135 138c0 76 62 139 135 139s135 -63 135 -139c0 -75 -62 -138 -135 -138zM1131 1635
c-73 0 -136 63 -136 138c0 76 63 139 136 139s135 -63 135 -139c0 -75 -62 -138 -135 -138z" />
    <glyph glyph-name="uniF522" 
d="M258 1049c75 271 285 425 568 425c323 0 523 -204 523 -532c0 -59 -5 -119 -18 -192c-8 -44 -43 -240 -56 -276c-86 -328 -295 -503 -604 -503c-318 0 -514 185 -514 473c0 8 0 29 2 49h246c-1 -11 -2 -22 -2 -38c1 -166 102 -265 272 -265c181 0 308 126 367 356
c6 20 15 63 20 86h-509l34 199h507c5 40 8 77 8 107c0 200 -110 315 -286 315c-151 0 -261 -79 -316 -236c-3 -11 -5 -18 -8 -27h-248c3 21 8 42 14 59zM1245 1672h-695l28 166h696z" />
    <glyph glyph-name="uniF466" 
d="M258 1049c75 271 285 425 568 425c323 0 523 -204 523 -532c0 -59 -5 -119 -18 -192c-8 -44 -43 -240 -56 -276c-86 -328 -295 -503 -604 -503c-318 0 -514 185 -514 473c0 8 0 29 2 49h246c-1 -11 -2 -22 -2 -38c1 -166 102 -265 272 -265c181 0 308 126 367 356
c6 20 15 63 20 86h-509l34 199h507c5 40 8 77 8 107c0 200 -110 315 -286 315c-151 0 -261 -79 -316 -236c-3 -11 -5 -18 -8 -27h-248c3 21 8 42 14 59zM732 1607l312 312h266l-342 -312h-236z" />
    <glyph glyph-name="uniF524" 
d="M258 1049c75 271 285 425 568 425c323 0 523 -204 523 -532c0 -59 -5 -119 -18 -192c-8 -44 -43 -240 -56 -276c-86 -328 -295 -503 -604 -503c-318 0 -514 185 -514 473c0 8 0 29 2 49h246c-1 -11 -2 -22 -2 -38c1 -166 102 -265 272 -265c181 0 308 126 367 356
c6 20 15 63 20 86h-509l34 199h507c5 40 8 77 8 107c0 200 -110 315 -286 315c-151 0 -261 -79 -316 -236c-3 -11 -5 -18 -8 -27h-248c3 21 8 42 14 59zM892 1604c-214 0 -357 152 -322 329h174c-13 -108 47 -186 161 -186c108 0 181 75 198 186h180
c-22 -194 -177 -329 -391 -329z" />
    <glyph glyph-name="uniF4D6" 
d="M258 1049c75 271 285 425 568 425c323 0 523 -204 523 -532c0 -59 -5 -119 -18 -192c-8 -44 -43 -240 -56 -276c-86 -328 -295 -503 -604 -503c-318 0 -514 185 -514 473c0 8 0 29 2 49h246c-1 -11 -2 -22 -2 -38c1 -166 102 -265 272 -265c181 0 308 126 367 356
c6 20 15 63 20 86h-509l34 199h507c5 40 8 77 8 107c0 200 -110 315 -286 315c-151 0 -261 -79 -316 -236c-3 -11 -5 -18 -8 -27h-248c3 21 8 42 14 59zM913 1610c-79 0 -145 67 -145 148c0 82 66 149 145 149c80 0 146 -67 146 -149c0 -81 -66 -148 -146 -148z" />
    <glyph glyph-name="IUcyrillic" unicode="&#x42e;" 
d="M828 -30c-221 0 -365 190 -365 486c0 70 2 106 11 164h-136l-111 -620h-190l254 1443h190l-108 -612h136c2 16 20 107 24 122c72 333 241 519 477 519c244 0 386 -180 386 -492c0 -81 -6 -166 -22 -260c-5 -30 -33 -175 -39 -201c-79 -368 -245 -549 -507 -549zM1195 954
c0 190 -74 302 -200 302c-138 0 -232 -128 -283 -371c-5 -19 -31 -154 -35 -177c-16 -86 -21 -145 -21 -221c0 -190 75 -300 198 -300c142 0 238 128 290 383c5 18 30 157 33 178c11 65 18 144 18 206z" />
    <glyph glyph-name="uniF52C" 
d="M828 -30c-221 0 -365 190 -365 486c0 70 2 106 11 164h-136l-111 -620h-190l254 1443h190l-108 -612h136c2 16 20 107 24 122c72 333 241 519 477 519c244 0 386 -180 386 -492c0 -81 -6 -166 -22 -260c-5 -30 -33 -175 -39 -201c-79 -368 -245 -549 -507 -549zM1195 954
c0 190 -74 302 -200 302c-138 0 -232 -128 -283 -371c-5 -19 -31 -154 -35 -177c-16 -86 -21 -145 -21 -221c0 -190 75 -300 198 -300c142 0 238 128 290 383c5 18 30 157 33 178c11 65 18 144 18 206zM1228 1672h-696l29 166h696z" />
    <glyph glyph-name="uniF467" 
d="M828 -30c-221 0 -365 190 -365 486c0 70 2 106 11 164h-136l-111 -620h-190l254 1443h190l-108 -612h136c2 16 20 107 24 122c72 333 241 519 477 519c244 0 386 -180 386 -492c0 -81 -6 -166 -22 -260c-5 -30 -33 -175 -39 -201c-79 -368 -245 -549 -507 -549zM1195 954
c0 190 -74 302 -200 302c-138 0 -232 -128 -283 -371c-5 -19 -31 -154 -35 -177c-16 -86 -21 -145 -21 -221c0 -190 75 -300 198 -300c142 0 238 128 290 383c5 18 30 157 33 178c11 65 18 144 18 206zM686 1607l312 312h265l-342 -312h-235z" />
    <glyph glyph-name="uniF52E" 
d="M828 -30c-221 0 -365 190 -365 486c0 70 2 106 11 164h-136l-111 -620h-190l254 1443h190l-108 -612h136c2 16 20 107 24 122c72 333 241 519 477 519c244 0 386 -180 386 -492c0 -81 -6 -166 -22 -260c-5 -30 -33 -175 -39 -201c-79 -368 -245 -549 -507 -549zM1195 954
c0 190 -74 302 -200 302c-138 0 -232 -128 -283 -371c-5 -19 -31 -154 -35 -177c-16 -86 -21 -145 -21 -221c0 -190 75 -300 198 -300c142 0 238 128 290 383c5 18 30 157 33 178c11 65 18 144 18 206zM831 1604c-214 0 -357 152 -322 329h175c-13 -108 46 -186 160 -186
c108 0 182 75 198 186h180c-22 -194 -176 -329 -391 -329z" />
    <glyph glyph-name="uniF498" 
d="M828 -30c-221 0 -365 190 -365 486c0 70 2 106 11 164h-136l-111 -620h-190l254 1443h190l-108 -612h136c2 16 20 107 24 122c72 333 241 519 477 519c244 0 386 -180 386 -492c0 -81 -6 -166 -22 -260c-5 -30 -33 -175 -39 -201c-79 -368 -245 -549 -507 -549zM1195 954
c0 190 -74 302 -200 302c-138 0 -232 -128 -283 -371c-5 -19 -31 -154 -35 -177c-16 -86 -21 -145 -21 -221c0 -190 75 -300 198 -300c142 0 238 128 290 383c5 18 30 157 33 178c11 65 18 144 18 206zM638 1633c-73 0 -135 63 -135 138c0 76 62 139 135 139
s135 -63 135 -139c0 -75 -62 -138 -135 -138zM1077 1633c-73 0 -135 63 -135 138c0 76 62 139 135 139s135 -63 135 -139c0 -75 -62 -138 -135 -138z" />
    <glyph glyph-name="IAcyrillic" unicode="&#x42f;" 
d="M1005 540h-215l-410 -540h-272l451 582c-144 59 -232 192 -232 353c0 305 209 508 575 508h500l-254 -1443h-239zM803 732h234l93 510h-242c-192 0 -314 -111 -314 -287c0 -133 92 -223 229 -223z" />
    <glyph glyph-name="uniF528" 
d="M1352 1671h-695l28 166h696zM1005 540h-215l-410 -540h-272l451 582c-144 59 -232 192 -232 353c0 305 209 508 575 508h500l-254 -1443h-239zM803 732h234l93 510h-242c-192 0 -314 -111 -314 -287c0 -133 92 -223 229 -223z" />
    <glyph glyph-name="uniF468" 
d="M861 1607l312 312h265l-342 -312h-235zM1005 540h-215l-410 -540h-272l451 582c-144 59 -232 192 -232 353c0 305 209 508 575 508h500l-254 -1443h-239zM803 732h234l93 510h-242c-192 0 -314 -111 -314 -287c0 -133 92 -223 229 -223z" />
    <glyph glyph-name="uniF4D9" 
d="M1234 1633c-73 0 -135 63 -135 138c0 76 62 139 135 139s136 -63 136 -139c0 -75 -63 -138 -136 -138zM796 1633c-73 0 -136 63 -136 138c0 76 63 139 136 139s135 -63 135 -139c0 -75 -62 -138 -135 -138zM1005 540h-215l-410 -540h-272l451 582
c-144 59 -232 192 -232 353c0 305 209 508 575 508h500l-254 -1443h-239zM803 732h234l93 510h-242c-192 0 -314 -111 -314 -287c0 -133 92 -223 229 -223z" />
    <glyph glyph-name="uniF52A" 
d="M1209 1937h181c-22 -194 -177 -329 -391 -329s-357 152 -323 329h175c-13 -109 47 -187 161 -187c107 0 181 76 197 187zM1005 540h-215l-410 -540h-272l451 582c-144 59 -232 192 -232 353c0 305 209 508 575 508h500l-254 -1443h-239zM803 732h234l93 510h-242
c-192 0 -314 -111 -314 -287c0 -133 92 -223 229 -223z" />
    <glyph glyph-name="uni0494" unicode="&#x494;" 
d="M698 -15c-62 0 -105 11 -115 15l35 210c9 -4 43 -11 89 -11c143 0 236 122 236 284c0 118 -70 186 -191 186c-118 0 -218 -49 -279 -108l-100 -561h-241l254 1443h824l-36 -210h-582l-79 -436h10c74 56 177 97 307 97c239 0 361 -150 361 -369
c0 -299 -179 -540 -493 -540z" />
    <glyph glyph-name="uni04A6" unicode="&#x4a6;" 
d="M967 -23c-44 0 -76 11 -83 16l28 207c7 -4 32 -11 65 -11c123 0 185 141 185 315c0 109 -41 169 -131 169c-76 0 -148 -42 -184 -82l-106 -591h-197l219 1237h-257l-219 -1237h-199l254 1443h653l-108 -620h6c53 44 121 71 204 71c172 0 253 -140 253 -346
c0 -324 -140 -571 -383 -571z" />
    <glyph glyph-name="uni04A8" unicode="&#x4a8;" 
d="M1044 -30c-84 0 -164 27 -224 79h-14c-79 -53 -173 -79 -262 -79c-331 0 -482 254 -398 734l22 125c64 366 248 621 576 638l-34 -203c-199 -18 -296 -229 -342 -483l-18 -98c-59 -330 21 -515 219 -515c54 0 90 6 117 14v9c-109 111 -133 320 -94 548l12 67
c47 284 212 479 439 479c258 0 347 -209 295 -522l-11 -62c-40 -230 -170 -433 -329 -525v-9c19 -5 48 -7 79 -7c62 0 134 27 190 70l34 -166c-84 -68 -166 -94 -257 -94zM795 708c-34 -191 -16 -361 67 -454c126 83 221 251 256 445l11 60c34 189 11 323 -111 323
c-109 0 -180 -133 -211 -310z" />
    <glyph glyph-name="uni04AE" unicode="&#x4ae;" 
d="M754 0h-241l99 561l-327 882h253l221 -636h15l439 636h272l-632 -882z" />
    <glyph glyph-name="uniF43A" 
d="M754 0h-241l99 561l-327 882h253l221 -636h15l439 636h272l-632 -882zM1277 1672h-696l29 166h696z" />
    <glyph glyph-name="uni04B0" unicode="&#x4b0;" 
d="M1485 1443l-630 -879h343l-33 -193h-346l-65 -371h-241l65 371h-343l33 193h343l-326 879h253l221 -636h15l439 636h272z" />
    <glyph glyph-name="uni04BC" unicode="&#x4bc;" 
d="M1157 887l3 18c40 215 -27 351 -191 351c-174 0 -287 -141 -334 -362l-1 -7h523zM414 885h4c80 379 274 587 575 587c321 0 436 -257 374 -613c-10 -62 -35 -180 -35 -180h-736l-10 -51c-52 -292 19 -439 193 -439c143 0 245 112 300 272h216
c-84 -289 -267 -489 -535 -489c-321 0 -456 260 -379 710h-5c-161 0 -240 94 -240 229c0 92 36 172 62 207h173c-14 -22 -47 -89 -47 -150c0 -53 28 -83 90 -83z" />
    <glyph glyph-name="uni04BE" unicode="&#x4be;" 
d="M1157 887l3 18c40 215 -27 351 -191 351c-174 0 -287 -141 -334 -362l-1 -7h523zM414 885h4c80 379 274 587 575 587c321 0 436 -257 374 -613c-10 -62 -35 -180 -35 -180h-736l-10 -51c-52 -292 19 -439 193 -439c143 0 245 112 300 272h216
c-75 -258 -228 -445 -451 -482l-46 -265h-207l47 272c-232 61 -324 307 -257 696h-5c-161 0 -240 94 -240 229c0 92 36 172 62 207h173c-14 -22 -47 -89 -47 -150c0 -53 28 -83 90 -83z" />
    <glyph glyph-name="uni04D4" unicode="&#x4d4;" 
d="M738 589l111 628h-88l-261 -628h238zM1471 1233h-400l-74 -407h364l-34 -199h-364l-76 -416h400l-35 -211h-619l69 387h-285l-161 -387h-243l634 1443h859z" />
    <glyph glyph-name="uni04D8" unicode="&#x4d8;" 
d="M665 -28c-371 0 -538 289 -472 669c7 44 30 148 30 148h854l5 27c50 262 -47 439 -256 439c-163 0 -273 -116 -324 -272h-246c80 276 265 489 587 489c392 0 540 -318 479 -675l-20 -121c-75 -443 -259 -704 -637 -704zM679 188c203 0 319 144 359 386l3 17h-612l-4 -23
c-39 -216 41 -380 254 -380z" />
    <glyph glyph-name="uni04DA" unicode="&#x4da;" 
d="M665 -28c-371 0 -538 289 -472 669c7 44 30 148 30 148h854l5 27c50 262 -47 439 -256 439c-163 0 -273 -116 -324 -272h-246c80 276 265 489 587 489c392 0 540 -318 479 -675l-20 -121c-75 -443 -259 -704 -637 -704zM679 188c203 0 319 144 359 386l3 17h-612l-4 -23
c-39 -216 41 -380 254 -380zM706 1633c-73 0 -135 63 -135 138c0 76 62 139 135 139s136 -63 136 -139c0 -75 -63 -138 -136 -138zM1145 1633c-73 0 -135 63 -135 138c0 76 62 139 135 139s135 -63 135 -139c0 -75 -62 -138 -135 -138z" />
    <glyph glyph-name="uniF49C" 
d="M665 -28c-371 0 -538 289 -472 669c7 44 30 148 30 148h854l5 27c50 262 -47 439 -256 439c-163 0 -273 -116 -324 -272h-246c80 276 265 489 587 489c392 0 540 -318 479 -675l-20 -121c-75 -443 -259 -704 -637 -704zM679 188c203 0 319 144 359 386l3 17h-612l-4 -23
c-39 -216 41 -380 254 -380zM1272 1672h-696l29 166h696z" />
    <glyph glyph-name="uni04E0" unicode="&#x4e0;" 
d="M1214 485c0 -269 -201 -514 -567 -514c-324 0 -477 160 -477 378c0 18 1 42 5 66h231c-2 -15 -3 -30 -3 -43c0 -116 90 -198 246 -198c195 0 317 128 317 293c0 146 -96 215 -297 215h-136l32 189l419 354l2 13h-605l35 205h895l-31 -185l-450 -383l-3 -13
c241 -21 387 -149 387 -377z" />
    <glyph glyph-name="uni0510" unicode="&#x510;" 
d="M930 636h-186c-233 0 -349 -110 -349 -258c0 -128 98 -200 258 -200c176 0 315 89 348 223h231c-58 -268 -305 -430 -601 -430c-303 0 -489 142 -489 386c0 199 149 365 394 386l2 16c-134 29 -215 128 -215 263c0 243 204 450 551 450c285 0 450 -137 450 -358
c0 -20 -1 -43 -5 -65h-225c2 10 2 21 2 31c0 119 -90 194 -238 194c-192 0 -306 -120 -306 -259c0 -110 87 -180 231 -180h181z" />
    <glyph glyph-name="uniF538" 
d="M930 636h-186c-233 0 -349 -110 -349 -258c0 -128 98 -200 258 -200c176 0 315 89 348 223h231c-58 -268 -305 -430 -601 -430c-303 0 -489 142 -489 386c0 199 149 365 394 386l2 16c-134 29 -215 128 -215 263c0 243 204 450 551 450c285 0 450 -137 450 -358
c0 -20 -1 -43 -5 -65h-225c2 10 2 21 2 31c0 119 -90 194 -238 194c-192 0 -306 -120 -306 -259c0 -110 87 -180 231 -180h181zM740 1633c-73 0 -135 63 -135 138c0 76 62 139 135 139s136 -63 136 -139c0 -75 -63 -138 -136 -138zM1179 1633c-73 0 -135 63 -135 138
c0 76 62 139 135 139s135 -63 135 -139c0 -75 -62 -138 -135 -138z" />
    <glyph glyph-name="uni0474" unicode="&#x474;" 
d="M976 1163c82 217 180 311 353 311c83 0 147 -27 171 -46l-90 -183c-10 5 -40 18 -73 18c-65 0 -102 -33 -141 -121l-509 -1142h-261l-143 1443h239l74 -1170h8z" />
    <glyph glyph-name="uni051C" unicode="&#x51c;" 
d="M812 869h-13l-327 -869h-224l22 1443h216l-20 -527l-29 -597h13l300 794h193l19 -794h14l169 585l168 539h222l-482 -1443h-222z" />
    <glyph glyph-name="Dzecyrillic" unicode="&#x405;" 
d="M177 424h233c-1 -10 -2 -15 -2 -25c0 -131 125 -223 302 -223c165 0 281 88 281 214c0 99 -62 159 -229 218l-114 40c-230 81 -336 205 -336 387c0 260 207 437 509 437c287 0 491 -163 491 -395c0 -16 -1 -31 -3 -40h-232c1 4 1 7 1 23c0 119 -108 208 -254 208
c-156 0 -263 -83 -263 -204c0 -98 61 -160 214 -214l118 -42c242 -85 345 -200 345 -378c0 -279 -208 -459 -531 -459c-307 0 -533 172 -533 408c0 20 1 34 3 45z" />
    <glyph glyph-name="Jecyrillic" unicode="&#x408;" 
d="M639 -29c-262 0 -442 159 -442 392c0 18 1 34 4 50h227c-1 -8 -2 -18 -2 -26c0 -115 89 -196 217 -196c130 0 216 82 243 235l146 809h-509l34 208h752l-186 -1049c-49 -279 -215 -423 -484 -423z" />
    <glyph glyph-name="a" unicode="a" 
d="M543 -17c-193 0 -329 126 -330 305c-2 230 167 359 477 364l256 4l10 61c5 24 6 40 6 55c0 93 -75 153 -191 153c-100 0 -184 -49 -212 -125h-229c35 183 227 313 462 313c242 0 401 -126 401 -319c0 -38 -3 -68 -17 -141l-115 -653h-221l26 149h-17
c-53 -105 -167 -166 -306 -166zM630 172c133 0 246 94 270 227l19 100l-220 -3c-160 -2 -250 -65 -251 -174c-1 -91 71 -150 182 -150z" />
    <glyph glyph-name="agrave" unicode="&#xe0;" 
d="M543 -17c-193 0 -329 126 -330 305c-2 230 167 359 477 364l256 4l10 61c5 24 6 40 6 55c0 93 -75 153 -191 153c-100 0 -184 -49 -212 -125h-229c35 183 227 313 462 313c242 0 401 -126 401 -319c0 -38 -3 -68 -17 -141l-115 -653h-221l26 149h-17
c-53 -105 -167 -166 -306 -166zM630 172c133 0 246 94 270 227l19 100l-220 -3c-160 -2 -250 -65 -251 -174c-1 -91 71 -150 182 -150zM1016 1296h-225l-213 347h259z" />
    <glyph glyph-name="aacute" unicode="&#xe1;" 
d="M952 1296h-235l301 347h268zM919 499l-220 -3c-160 -2 -250 -65 -251 -174c-1 -91 71 -150 182 -150c133 0 246 94 270 227zM866 149h-17c-53 -105 -167 -166 -306 -166c-193 0 -329 126 -330 305c-2 230 167 359 477 364l256 4l10 61c5 24 6 40 6 55
c0 93 -75 153 -191 153c-100 0 -184 -49 -212 -125h-229c35 183 227 313 462 313c242 0 401 -126 401 -319c0 -38 -3 -68 -17 -141l-115 -653h-221z" />
    <glyph glyph-name="adieresis" unicode="&#xe4;" 
d="M543 -17c-193 0 -329 126 -330 305c-2 230 167 359 477 364l256 4l10 61c5 24 6 40 6 55c0 93 -75 153 -191 153c-100 0 -184 -49 -212 -125h-229c35 183 227 313 462 313c242 0 401 -126 401 -319c0 -38 -3 -68 -17 -141l-115 -653h-221l26 149h-17
c-53 -105 -167 -166 -306 -166zM630 172c133 0 246 94 270 227l19 100l-220 -3c-160 -2 -250 -65 -251 -174c-1 -91 71 -150 182 -150zM674 1292c-73 0 -136 63 -136 139s63 139 136 139s135 -63 135 -139s-62 -139 -135 -139zM1112 1292c-73 0 -135 63 -135 139
s62 139 135 139s136 -63 136 -139s-63 -139 -136 -139z" />
    <glyph glyph-name="adieresismacron" unicode="&#x1df;" 
d="M543 -17c-193 0 -329 126 -330 305c-2 230 167 359 477 364l256 4l10 61c5 24 6 40 6 55c0 93 -75 153 -191 153c-100 0 -184 -49 -212 -125h-229c35 183 227 313 462 313c242 0 401 -126 401 -319c0 -38 -3 -68 -17 -141l-115 -653h-221l26 149h-17
c-53 -105 -167 -166 -306 -166zM630 172c133 0 246 94 270 227l19 100l-220 -3c-160 -2 -250 -65 -251 -174c-1 -91 71 -150 182 -150zM1109 1566c73 0 135 -63 135 -139c0 -75 -62 -139 -135 -139s-135 64 -135 139c0 76 62 139 135 139zM670 1566c73 0 136 -63 136 -139
c0 -75 -63 -139 -136 -139c-72 0 -135 64 -135 139c0 76 63 139 135 139zM620 1890h695l-28 -166h-696z" />
    <glyph glyph-name="aring" unicode="&#xe5;" 
d="M543 -17c-193 0 -329 126 -330 305c-2 230 167 359 477 364l256 4l10 61c5 24 6 40 6 55c0 93 -75 153 -191 153c-100 0 -184 -49 -212 -125h-229c35 183 227 313 462 313c242 0 401 -126 401 -319c0 -38 -3 -68 -17 -141l-115 -653h-221l26 149h-17
c-53 -105 -167 -166 -306 -166zM630 172c133 0 246 94 270 227l19 100l-220 -3c-160 -2 -250 -65 -251 -174c-1 -91 71 -150 182 -150zM900 1372c62 0 109 48 109 110s-47 110 -109 110c-61 0 -108 -48 -108 -110s47 -110 108 -110zM900 1245c-128 0 -233 106 -233 237
s105 237 233 237c129 0 233 -106 233 -237s-104 -237 -233 -237z" />
    <glyph glyph-name="aringacute" unicode="&#x1fb;" 
d="M1031 1737h-178l203 241h213zM892 1226c-121 0 -214 91 -214 211s93 210 214 210s213 -90 213 -210s-92 -211 -213 -211zM892 1339c56 0 98 42 98 98s-42 98 -98 98c-57 0 -99 -42 -99 -98s42 -98 99 -98zM919 499l-220 -3c-160 -2 -250 -65 -251 -174
c-1 -91 71 -150 182 -150c133 0 246 94 270 227zM866 149h-17c-53 -105 -167 -166 -306 -166c-193 0 -329 126 -330 305c-2 230 167 359 477 364l256 4l10 61c5 24 6 40 6 55c0 93 -75 153 -191 153c-100 0 -184 -49 -212 -125h-229c35 183 227 313 462 313
c242 0 401 -126 401 -319c0 -38 -3 -68 -17 -141l-115 -653h-221z" />
    <glyph glyph-name="atilde" unicode="&#xe3;" 
d="M543 -17c-193 0 -329 126 -330 305c-2 230 167 359 477 364l256 4l10 61c5 24 6 40 6 55c0 93 -75 153 -191 153c-100 0 -184 -49 -212 -125h-229c35 183 227 313 462 313c242 0 401 -126 401 -319c0 -38 -3 -68 -17 -141l-115 -653h-221l26 149h-17
c-53 -105 -167 -166 -306 -166zM630 172c133 0 246 94 270 227l19 100l-220 -3c-160 -2 -250 -65 -251 -174c-1 -91 71 -150 182 -150zM745 1418c-54 0 -82 -46 -90 -147h-167c18 192 114 306 258 306c161 0 201 -153 286 -153c54 0 82 44 90 144h166
c-16 -187 -116 -304 -257 -304c-161 0 -201 154 -286 154z" />
    <glyph glyph-name="abrevegrave" unicode="&#x1eb1;" 
d="M1116 1603h177c-23 -205 -190 -344 -413 -344c-220 0 -373 156 -338 344h174c-13 -112 59 -186 180 -186c117 0 206 75 220 186zM864 1978l137 -324h-171l-178 324h212zM919 499l-220 -3c-160 -2 -250 -65 -251 -174c-1 -91 71 -150 182 -150c133 0 246 94 270 227z
M866 149h-17c-53 -105 -167 -166 -306 -166c-193 0 -329 126 -330 305c-2 230 167 359 477 364l256 4l10 61c5 24 6 40 6 55c0 93 -75 153 -191 153c-100 0 -184 -49 -212 -125h-229c35 183 227 313 462 313c242 0 401 -126 401 -319c0 -38 -3 -68 -17 -141l-115 -653h-221z
" />
    <glyph glyph-name="adotmacron" unicode="&#x1e1;" 
d="M543 -17c-193 0 -329 126 -330 305c-2 230 167 359 477 364l256 4l10 61c5 24 6 40 6 55c0 93 -75 153 -191 153c-100 0 -184 -49 -212 -125h-229c35 183 227 313 462 313c242 0 401 -126 401 -319c0 -38 -3 -68 -17 -141l-115 -653h-221l26 149h-17
c-53 -105 -167 -166 -306 -166zM630 172c133 0 246 94 270 227l19 100l-220 -3c-160 -2 -250 -65 -251 -174c-1 -91 71 -150 182 -150zM1291 1725h-696l29 166h695zM889 1273c-79 0 -145 67 -145 148s66 149 145 149s146 -68 146 -149s-67 -148 -146 -148z" />
    <glyph glyph-name="aringbelow" unicode="&#x1e01;" 
d="M543 -17c-193 0 -329 126 -330 305c-2 230 167 359 477 364l256 4l10 61c5 24 6 40 6 55c0 93 -75 153 -191 153c-100 0 -184 -49 -212 -125h-229c35 183 227 313 462 313c242 0 401 -126 401 -319c0 -38 -3 -68 -17 -141l-115 -653h-221l26 149h-17
c-53 -105 -167 -166 -306 -166zM630 172c133 0 246 94 270 227l19 100l-220 -3c-160 -2 -250 -65 -251 -174c-1 -91 71 -150 182 -150zM562 -468c62 0 109 49 109 111c0 61 -47 110 -109 110c-61 0 -108 -49 -108 -110c0 -62 47 -111 108 -111zM562 -595
c-128 0 -233 107 -233 238c0 130 105 237 233 237c129 0 234 -107 234 -237c0 -131 -105 -238 -234 -238z" />
    <glyph glyph-name="acircumflex" unicode="&#xe2;" 
d="M543 -17c-193 0 -329 126 -330 305c-2 230 167 359 477 364l256 4l10 61c5 24 6 40 6 55c0 93 -75 153 -191 153c-100 0 -184 -49 -212 -125h-229c35 183 227 313 462 313c242 0 401 -126 401 -319c0 -38 -3 -68 -17 -141l-115 -653h-221l26 149h-17
c-53 -105 -167 -166 -306 -166zM630 172c133 0 246 94 270 227l19 100l-220 -3c-160 -2 -250 -65 -251 -174c-1 -91 71 -150 182 -150zM799 1627h253l208 -351h-226l-118 216h-16l-192 -216h-241z" />
    <glyph glyph-name="acircumflexdotbelow" unicode="&#x1ead;" 
d="M543 -17c-193 0 -329 126 -330 305c-2 230 167 359 477 364l256 4l10 61c5 24 6 40 6 55c0 93 -75 153 -191 153c-100 0 -184 -49 -212 -125h-229c35 183 227 313 462 313c242 0 401 -126 401 -319c0 -38 -3 -68 -17 -141l-115 -653h-221l26 149h-17
c-53 -105 -167 -166 -306 -166zM630 172c133 0 246 94 270 227l19 100l-220 -3c-160 -2 -250 -65 -251 -174c-1 -91 71 -150 182 -150zM799 1627h253l208 -351h-226l-118 216h-16l-192 -216h-241zM565 -466c-79 0 -145 67 -145 149c0 81 66 148 145 148
c80 0 146 -67 146 -148c0 -82 -66 -149 -146 -149z" />
    <glyph glyph-name="acircumflexacute" unicode="&#x1ea5;" 
d="M543 -17c-193 0 -329 126 -330 305c-2 230 167 359 477 364l256 4l10 61c5 24 6 40 6 55c0 93 -75 153 -191 153c-100 0 -184 -49 -212 -125h-229c35 183 227 313 462 313c242 0 401 -126 401 -319c0 -38 -3 -68 -17 -141l-115 -653h-221l26 149h-17
c-53 -105 -167 -166 -306 -166zM630 172c133 0 246 94 270 227l19 100l-220 -3c-160 -2 -250 -65 -251 -174c-1 -91 71 -150 182 -150zM1138 1654l257 324h235l-291 -324h-201zM800 1631h253l208 -350h-227l-117 216h-17l-192 -216h-240z" />
    <glyph glyph-name="acircumflextilde" unicode="&#x1eab;" 
d="M543 -17c-193 0 -329 126 -330 305c-2 230 167 359 477 364l256 4l10 61c5 24 6 40 6 55c0 93 -75 153 -191 153c-100 0 -184 -49 -212 -125h-229c35 183 227 313 462 313c242 0 401 -126 401 -319c0 -38 -3 -68 -17 -141l-115 -653h-221l26 149h-17
c-53 -105 -167 -166 -306 -166zM630 172c133 0 246 94 270 227l19 100l-220 -3c-160 -2 -250 -65 -251 -174c-1 -91 71 -150 182 -150zM826 1858c-51 0 -78 -42 -88 -137h-167c14 176 114 291 254 291c162 0 199 -138 284 -138c50 0 76 40 87 134h167
c-13 -172 -117 -289 -254 -289c-162 0 -199 139 -283 139zM800 1631h253l208 -350h-227l-117 216h-17l-192 -216h-240z" />
    <glyph glyph-name="acircumflexgrave" unicode="&#x1ea7;" 
d="M543 -17c-193 0 -329 126 -330 305c-2 230 167 359 477 364l256 4l10 61c5 24 6 40 6 55c0 93 -75 153 -191 153c-100 0 -184 -49 -212 -125h-229c35 183 227 313 462 313c242 0 401 -126 401 -319c0 -38 -3 -68 -17 -141l-115 -653h-221l26 149h-17
c-53 -105 -167 -166 -306 -166zM630 172c133 0 246 94 270 227l19 100l-220 -3c-160 -2 -250 -65 -251 -174c-1 -91 71 -150 182 -150zM1423 1654h-193l-177 324h226zM800 1631h253l208 -350h-227l-117 216h-17l-192 -216h-240z" />
    <glyph glyph-name="acircumflexhookabove" unicode="&#x1ea9;" 
d="M543 -17c-193 0 -329 126 -330 305c-2 230 167 359 477 364l256 4l10 61c5 24 6 40 6 55c0 93 -75 153 -191 153c-100 0 -184 -49 -212 -125h-229c35 183 227 313 462 313c242 0 401 -126 401 -319c0 -38 -3 -68 -17 -141l-115 -653h-221l26 149h-17
c-53 -105 -167 -166 -306 -166zM630 172c133 0 246 94 270 227l19 100l-220 -3c-160 -2 -250 -65 -251 -174c-1 -91 71 -150 182 -150zM800 1631h253l208 -350h-227l-117 216h-17l-192 -216h-240zM1058 1853l16 132c38 18 87 28 139 28c133 0 221 -75 221 -190
c0 -107 -76 -196 -203 -238l-72 109c72 22 111 61 111 109c0 45 -40 74 -101 74c-39 0 -76 -8 -111 -24z" />
    <glyph glyph-name="abreve" unicode="&#x103;" 
d="M543 -17c-193 0 -329 126 -330 305c-2 230 167 359 477 364l256 4l10 61c5 24 6 40 6 55c0 93 -75 153 -191 153c-100 0 -184 -49 -212 -125h-229c35 183 227 313 462 313c242 0 401 -126 401 -319c0 -38 -3 -68 -17 -141l-115 -653h-221l26 149h-17
c-53 -105 -167 -166 -306 -166zM630 172c133 0 246 94 270 227l19 100l-220 -3c-160 -2 -250 -65 -251 -174c-1 -91 71 -150 182 -150zM882 1238c-220 0 -373 155 -338 344h173c-12 -112 60 -186 181 -186c117 0 205 74 219 186h178c-23 -205 -190 -344 -413 -344z" />
    <glyph glyph-name="abreveacute" unicode="&#x1eaf;" 
d="M543 -17c-193 0 -329 126 -330 305c-2 230 167 359 477 364l256 4l10 61c5 24 6 40 6 55c0 93 -75 153 -191 153c-100 0 -184 -49 -212 -125h-229c35 183 227 313 462 313c242 0 401 -126 401 -319c0 -38 -3 -68 -17 -141l-115 -653h-221l26 149h-17
c-53 -105 -167 -166 -306 -166zM630 172c133 0 246 94 270 227l19 100l-220 -3c-160 -2 -250 -65 -251 -174c-1 -91 71 -150 182 -150zM812 1654l250 324h216l-290 -324h-176zM883 1259c-220 0 -373 156 -339 344h174c-13 -112 59 -186 180 -186c117 0 206 75 220 186h178
c-24 -205 -191 -344 -413 -344z" />
    <glyph glyph-name="abrevetilde" unicode="&#x1eb5;" 
d="M543 -17c-193 0 -329 126 -330 305c-2 230 167 359 477 364l256 4l10 61c5 24 6 40 6 55c0 93 -75 153 -191 153c-100 0 -184 -49 -212 -125h-229c35 183 227 313 462 313c242 0 401 -126 401 -319c0 -38 -3 -68 -17 -141l-115 -653h-221l26 149h-17
c-53 -105 -167 -166 -306 -166zM630 172c133 0 246 94 270 227l19 100l-220 -3c-160 -2 -250 -65 -251 -174c-1 -91 71 -150 182 -150zM882 1259c-220 0 -373 156 -338 344h173c-12 -112 60 -186 181 -186c117 0 205 75 219 186h178c-23 -205 -190 -344 -413 -344zM824 1844
c-54 0 -82 -46 -90 -147h-167c18 192 114 306 258 306c161 0 201 -153 286 -153c54 0 82 44 90 144h167c-17 -187 -117 -304 -258 -304c-161 0 -201 154 -286 154z" />
    <glyph glyph-name="abrevehookabove" unicode="&#x1eb3;" 
d="M543 -17c-193 0 -329 126 -330 305c-2 230 167 359 477 364l256 4l10 61c5 24 6 40 6 55c0 93 -75 153 -191 153c-100 0 -184 -49 -212 -125h-229c35 183 227 313 462 313c242 0 401 -126 401 -319c0 -38 -3 -68 -17 -141l-115 -653h-221l26 149h-17
c-53 -105 -167 -166 -306 -166zM630 172c133 0 246 94 270 227l19 100l-220 -3c-160 -2 -250 -65 -251 -174c-1 -91 71 -150 182 -150zM882 1259c-220 0 -373 156 -338 344h173c-12 -112 60 -186 181 -186c117 0 205 75 219 186h178c-23 -205 -190 -344 -413 -344zM724 1854
l15 132c38 18 87 27 139 27c133 0 221 -75 221 -190c0 -106 -76 -195 -203 -237l-72 108c72 23 111 62 111 110c0 45 -40 74 -101 74c-39 0 -76 -8 -110 -24z" />
    <glyph glyph-name="abrevedotbelow" unicode="&#x1eb7;" 
d="M543 -17c-193 0 -329 126 -330 305c-2 230 167 359 477 364l256 4l10 61c5 24 6 40 6 55c0 93 -75 153 -191 153c-100 0 -184 -49 -212 -125h-229c35 183 227 313 462 313c242 0 401 -126 401 -319c0 -38 -3 -68 -17 -141l-115 -653h-221l26 149h-17
c-53 -105 -167 -166 -306 -166zM630 172c133 0 246 94 270 227l19 100l-220 -3c-160 -2 -250 -65 -251 -174c-1 -91 71 -150 182 -150zM882 1238c-220 0 -373 155 -338 344h173c-12 -112 60 -186 181 -186c117 0 205 74 219 186h178c-23 -205 -190 -344 -413 -344zM565 -466
c-79 0 -145 67 -145 149c0 81 66 148 145 148c80 0 146 -67 146 -148c0 -82 -66 -149 -146 -149z" />
    <glyph glyph-name="ainvertedbreve" unicode="&#x203;" 
d="M543 -17c-193 0 -329 126 -330 305c-2 230 167 359 477 364l256 4l10 61c5 24 6 40 6 55c0 93 -75 153 -191 153c-100 0 -184 -49 -212 -125h-229c35 183 227 313 462 313c242 0 401 -126 401 -319c0 -38 -3 -68 -17 -141l-115 -653h-221l26 149h-17
c-53 -105 -167 -166 -306 -166zM630 172c133 0 246 94 270 227l19 100l-220 -3c-160 -2 -250 -65 -251 -174c-1 -91 71 -150 182 -150zM903 1603c220 0 373 -155 338 -344h-173c12 112 -60 186 -180 186c-118 0 -206 -74 -220 -186h-178c23 205 190 344 413 344z" />
    <glyph glyph-name="acaron" unicode="&#x1ce;" 
d="M543 -17c-193 0 -329 126 -330 305c-2 230 167 359 477 364l256 4l10 61c5 24 6 40 6 55c0 93 -75 153 -191 153c-100 0 -184 -49 -212 -125h-229c35 183 227 313 462 313c242 0 401 -126 401 -319c0 -38 -3 -68 -17 -141l-115 -653h-221l26 149h-17
c-53 -105 -167 -166 -306 -166zM630 172c133 0 246 94 270 227l19 100l-220 -3c-160 -2 -250 -65 -251 -174c-1 -91 71 -150 182 -150zM990 1296h-253l-208 350h226l118 -216h16l192 216h241z" />
    <glyph glyph-name="adotaccent" unicode="&#x227;" 
d="M543 -17c-193 0 -329 126 -330 305c-2 230 167 359 477 364l256 4l10 61c5 24 6 40 6 55c0 93 -75 153 -191 153c-100 0 -184 -49 -212 -125h-229c35 183 227 313 462 313c242 0 401 -126 401 -319c0 -38 -3 -68 -17 -141l-115 -653h-221l26 149h-17
c-53 -105 -167 -166 -306 -166zM630 172c133 0 246 94 270 227l19 100l-220 -3c-160 -2 -250 -65 -251 -174c-1 -91 71 -150 182 -150zM892 1289c-79 0 -146 67 -146 149c0 81 67 148 146 148s145 -67 145 -148c0 -82 -66 -149 -145 -149z" />
    <glyph glyph-name="adotbelow" unicode="&#x1ea1;" 
d="M543 -17c-193 0 -329 126 -330 305c-2 230 167 359 477 364l256 4l10 61c5 24 6 40 6 55c0 93 -75 153 -191 153c-100 0 -184 -49 -212 -125h-229c35 183 227 313 462 313c242 0 401 -126 401 -319c0 -38 -3 -68 -17 -141l-115 -653h-221l26 149h-17
c-53 -105 -167 -166 -306 -166zM630 172c133 0 246 94 270 227l19 100l-220 -3c-160 -2 -250 -65 -251 -174c-1 -91 71 -150 182 -150zM565 -466c-79 0 -145 67 -145 149c0 81 66 148 145 148c80 0 146 -67 146 -148c0 -82 -66 -149 -146 -149z" />
    <glyph glyph-name="ahookabove" unicode="&#x1ea3;" 
d="M543 -17c-193 0 -329 126 -330 305c-2 230 167 359 477 364l256 4l10 61c5 24 6 40 6 55c0 93 -75 153 -191 153c-100 0 -184 -49 -212 -125h-229c35 183 227 313 462 313c242 0 401 -126 401 -319c0 -38 -3 -68 -17 -141l-115 -653h-221l26 149h-17
c-53 -105 -167 -166 -306 -166zM630 172c133 0 246 94 270 227l19 100l-220 -3c-160 -2 -250 -65 -251 -174c-1 -91 71 -150 182 -150zM715 1503l15 132c38 18 87 27 139 27c133 0 221 -75 221 -190c0 -106 -76 -196 -203 -237l-72 108c72 23 111 62 111 110
c0 45 -40 74 -101 74c-39 0 -76 -8 -110 -24z" />
    <glyph glyph-name="adblgrave" unicode="&#x201;" 
d="M993 1644l148 -348h-196l-174 348h222zM587 1644l149 -348h-197l-173 348h221zM919 499l-220 -3c-160 -2 -250 -65 -251 -174c-1 -91 71 -150 182 -150c133 0 246 94 270 227zM866 149h-17c-53 -105 -167 -166 -306 -166c-193 0 -329 126 -330 305
c-2 230 167 359 477 364l256 4l10 61c5 24 6 40 6 55c0 93 -75 153 -191 153c-100 0 -184 -49 -212 -125h-229c35 183 227 313 462 313c242 0 401 -126 401 -319c0 -38 -3 -68 -17 -141l-115 -653h-221z" />
    <glyph glyph-name="amacron" unicode="&#x101;" 
d="M543 -17c-193 0 -329 126 -330 305c-2 230 167 359 477 364l256 4l10 61c5 24 6 40 6 55c0 93 -75 153 -191 153c-100 0 -184 -49 -212 -125h-229c35 183 227 313 462 313c242 0 401 -126 401 -319c0 -38 -3 -68 -17 -141l-115 -653h-221l26 149h-17
c-53 -105 -167 -166 -306 -166zM630 172c133 0 246 94 270 227l19 100l-220 -3c-160 -2 -250 -65 -251 -174c-1 -91 71 -150 182 -150zM1227 1361h-696l29 166h695z" />
    <glyph glyph-name="aogonek" unicode="&#x105;" 
d="M630 172c131 0 249 97 273 227l19 100l-223 -3c-160 -2 -250 -65 -251 -174c-1 -91 71 -150 182 -150zM853 23l22 126h-23c-52 -99 -178 -166 -309 -166c-193 0 -329 126 -330 305c-2 230 167 359 477 364l258 4l11 61c3 20 5 38 5 57c0 92 -74 151 -191 151
c-100 0 -186 -49 -214 -125h-229c35 183 228 313 465 313c241 0 400 -126 400 -319c0 -44 -3 -74 -16 -141l-115 -653c-156 -50 -223 -108 -223 -192c0 -61 48 -101 121 -101c22 0 33 1 51 6l-25 -142c-29 -11 -61 -16 -106 -16c-139 0 -241 87 -241 207
c0 110 52 176 212 261z" />
    <glyph glyph-name="b" unicode="b" 
d="M780 -17c-171 0 -295 90 -322 234h-17l-38 -217h-241l268 1518h240l-105 -597h20c55 119 174 193 314 193c220 0 361 -150 361 -382c0 -34 -3 -68 -11 -116l-34 -190c-49 -282 -209 -443 -435 -443zM719 186c136 0 236 94 264 249l30 169c4 27 6 56 6 89
c0 136 -88 223 -230 223c-135 0 -245 -102 -273 -255l-30 -167c-4 -25 -6 -49 -6 -75c0 -133 100 -233 239 -233z" />
    <glyph glyph-name="blinebelow" unicode="&#x1e07;" 
d="M780 -17c-171 0 -295 90 -322 234h-17l-38 -217h-241l268 1518h240l-105 -597h20c55 119 174 193 314 193c220 0 361 -150 361 -382c0 -34 -3 -68 -11 -116l-34 -190c-49 -282 -209 -443 -435 -443zM719 186c136 0 236 94 264 249l30 169c4 27 6 56 6 89
c0 136 -88 223 -230 223c-135 0 -245 -102 -273 -255l-30 -167c-4 -25 -6 -49 -6 -75c0 -133 100 -233 239 -233zM909 -407h-695l28 165h696z" />
    <glyph glyph-name="bdotbelow" unicode="&#x1e05;" 
d="M780 -17c-171 0 -295 90 -322 234h-17l-38 -217h-241l268 1518h240l-105 -597h20c55 119 174 193 314 193c220 0 361 -150 361 -382c0 -34 -3 -68 -11 -116l-34 -190c-49 -282 -209 -443 -435 -443zM719 186c136 0 236 94 264 249l30 169c4 27 6 56 6 89
c0 136 -88 223 -230 223c-135 0 -245 -102 -273 -255l-30 -167c-4 -25 -6 -49 -6 -75c0 -133 100 -233 239 -233zM577 -466c-79 0 -146 67 -146 149c0 81 67 148 146 148s145 -67 145 -148c0 -82 -66 -149 -145 -149z" />
    <glyph glyph-name="bdotaccent" unicode="&#x1e03;" 
d="M780 -17c-171 0 -295 90 -322 234h-17l-38 -217h-241l268 1518h240l-105 -597h20c55 119 174 193 314 193c220 0 361 -150 361 -382c0 -34 -3 -68 -11 -116l-34 -190c-49 -282 -209 -443 -435 -443zM719 186c136 0 236 94 264 249l30 169c4 27 6 56 6 89
c0 136 -88 223 -230 223c-135 0 -245 -102 -273 -255l-30 -167c-4 -25 -6 -49 -6 -75c0 -133 100 -233 239 -233zM1042 1289c-79 0 -145 67 -145 149c0 81 66 148 145 148s146 -67 146 -148c0 -82 -67 -149 -146 -149z" />
    <glyph glyph-name="c" unicode="c" 
d="M1245 716h-228v12c0 114 -92 196 -222 196c-159 0 -253 -98 -290 -297l-13 -78c-8 -43 -14 -93 -14 -126c0 -160 84 -249 233 -249c120 0 206 59 244 173h228c-46 -224 -236 -370 -485 -370c-277 0 -451 161 -451 415c0 43 4 92 12 143c3 21 19 116 26 152
c48 269 245 433 519 433c263 0 443 -148 443 -365c0 -11 -1 -25 -2 -39z" />
    <glyph glyph-name="cacute" unicode="&#x107;" 
d="M1245 716h-228v12c0 114 -92 196 -222 196c-159 0 -253 -98 -290 -297l-13 -78c-8 -43 -14 -93 -14 -126c0 -160 84 -249 233 -249c120 0 206 59 244 173h228c-46 -224 -236 -370 -485 -370c-277 0 -451 161 -451 415c0 43 4 92 12 143c3 21 19 116 26 152
c48 269 245 433 519 433c263 0 443 -148 443 -365c0 -11 -1 -25 -2 -39zM937 1296h-235l301 347h268z" />
    <glyph glyph-name="ccaron" unicode="&#x10d;" 
d="M975 1296h-253l-208 350h226l118 -216h17l192 216h240zM1245 716h-228v12c0 114 -92 196 -222 196c-159 0 -253 -98 -290 -297l-13 -78c-8 -43 -14 -93 -14 -126c0 -160 84 -249 233 -249c120 0 206 59 244 173h228c-46 -224 -236 -370 -485 -370
c-277 0 -451 161 -451 415c0 43 4 92 12 143c3 21 19 116 26 152c48 269 245 433 519 433c263 0 443 -148 443 -365c0 -11 -1 -25 -2 -39z" />
    <glyph glyph-name="ccircumflex" unicode="&#x109;" 
d="M784 1627h253l208 -351h-226l-118 216h-16l-192 -216h-241zM1245 716h-228v12c0 114 -92 196 -222 196c-159 0 -253 -98 -290 -297l-13 -78c-8 -43 -14 -93 -14 -126c0 -160 84 -249 233 -249c120 0 206 59 244 173h228c-46 -224 -236 -370 -485 -370
c-277 0 -451 161 -451 415c0 43 4 92 12 143c3 21 19 116 26 152c48 269 245 433 519 433c263 0 443 -148 443 -365c0 -11 -1 -25 -2 -39z" />
    <glyph glyph-name="cdotaccent" unicode="&#x10b;" 
d="M877 1289c-79 0 -146 67 -146 149c0 81 67 148 146 148s145 -67 145 -148c0 -82 -66 -149 -145 -149zM1245 716h-228v12c0 114 -92 196 -222 196c-159 0 -253 -98 -290 -297l-13 -78c-8 -43 -14 -93 -14 -126c0 -160 84 -249 233 -249c120 0 206 59 244 173h228
c-46 -224 -236 -370 -485 -370c-277 0 -451 161 -451 415c0 43 4 92 12 143c3 21 19 116 26 152c48 269 245 433 519 433c263 0 443 -148 443 -365c0 -11 -1 -25 -2 -39z" />
    <glyph glyph-name="ccedilla" unicode="&#xe7;" 
d="M1245 716h-228v12c0 114 -92 196 -222 196c-159 0 -253 -98 -290 -297l-13 -78c-8 -43 -14 -93 -14 -126c0 -160 84 -249 233 -249c120 0 206 59 244 173h228c-44 -214 -220 -357 -453 -369l-54 -100c109 -9 174 -66 174 -154c0 -132 -103 -212 -272 -212
c-48 0 -106 9 -153 23l22 124c26 -10 87 -19 127 -19c72 0 114 24 114 66s-42 63 -126 63h-56l12 104l63 115c-208 39 -334 188 -334 404c0 43 4 92 12 143c3 21 19 116 26 152c48 269 245 433 519 433c263 0 443 -148 443 -365c0 -11 -1 -25 -2 -39z" />
    <glyph glyph-name="ccedillaacute" unicode="&#x1e09;" 
d="M1273 1643l-335 -347h-235l301 347h269zM518 -127l63 115c-208 39 -334 188 -334 404c0 43 4 92 12 143c3 21 19 116 26 152c48 269 245 433 519 433c263 0 443 -148 443 -365c0 -11 -1 -25 -2 -39h-228v12c0 114 -92 196 -222 196c-159 0 -253 -98 -290 -297l-13 -78
c-8 -43 -14 -93 -14 -126c0 -160 84 -249 233 -249c120 0 206 59 244 173h228c-44 -214 -220 -357 -453 -369l-54 -100c109 -9 174 -66 174 -154c0 -132 -103 -212 -272 -212c-48 0 -106 9 -153 23l22 124c26 -10 87 -19 127 -19c72 0 114 24 114 66s-42 63 -126 63h-56z
" />
    <glyph glyph-name="d" unicode="d" 
d="M687 1114c163 0 297 -91 320 -230h14l113 634h238l-268 -1518h-236l34 196h-15c-48 -130 -173 -213 -317 -213c-224 0 -367 147 -367 378c0 49 4 98 10 136l29 177c43 273 213 440 445 440zM744 914c-142 0 -236 -91 -265 -253l-27 -156c-4 -25 -8 -59 -8 -91
c0 -135 88 -225 221 -225c147 0 254 97 283 255l29 166c5 28 6 48 6 68c0 136 -101 236 -239 236z" />
    <glyph glyph-name="ddotaccent" unicode="&#x1e0b;" 
d="M687 1114c163 0 297 -91 320 -230h14l113 634h238l-268 -1518h-236l34 196h-15c-48 -130 -173 -213 -317 -213c-224 0 -367 147 -367 378c0 49 4 98 10 136l29 177c43 273 213 440 445 440zM744 914c-142 0 -236 -91 -265 -253l-27 -156c-4 -25 -8 -59 -8 -91
c0 -135 88 -225 221 -225c147 0 254 97 283 255l29 166c5 28 6 48 6 68c0 136 -101 236 -239 236zM716 1289c-79 0 -145 67 -145 149c0 81 66 148 145 148c80 0 146 -67 146 -148c0 -82 -66 -149 -146 -149z" />
    <glyph glyph-name="dcircumflexbelow" unicode="&#x1e13;" 
d="M687 1114c163 0 297 -91 320 -230h14l113 634h238l-268 -1518h-236l34 196h-15c-48 -130 -173 -213 -317 -213c-224 0 -367 147 -367 378c0 49 4 98 10 136l29 177c43 273 213 440 445 440zM744 914c-142 0 -236 -91 -265 -253l-27 -156c-4 -25 -8 -59 -8 -91
c0 -135 88 -225 221 -225c147 0 254 97 283 255l29 166c5 28 6 48 6 68c0 136 -101 236 -239 236zM478 -162h253l209 -351h-227l-117 216h-17l-192 -216h-240z" />
    <glyph glyph-name="dcommaaccent" unicode="&#x1e11;" 
d="M687 1114c163 0 297 -91 320 -230h14l113 634h238l-268 -1518h-236l34 196h-15c-48 -130 -173 -213 -317 -213c-224 0 -367 147 -367 378c0 49 4 98 10 136l29 177c43 273 213 440 445 440zM744 914c-142 0 -236 -91 -265 -253l-27 -156c-4 -25 -8 -59 -8 -91
c0 -135 88 -225 221 -225c147 0 254 97 283 255l29 166c5 28 6 48 6 68c0 136 -101 236 -239 236zM590 -513h-208l151 357h236z" />
    <glyph glyph-name="dlinebelow" unicode="&#x1e0f;" 
d="M687 1114c163 0 297 -91 320 -230h14l113 634h238l-268 -1518h-236l34 196h-15c-48 -130 -173 -213 -317 -213c-224 0 -367 147 -367 378c0 49 4 98 10 136l29 177c43 273 213 440 445 440zM744 914c-142 0 -236 -91 -265 -253l-27 -156c-4 -25 -8 -59 -8 -91
c0 -135 88 -225 221 -225c147 0 254 97 283 255l29 166c5 28 6 48 6 68c0 136 -101 236 -239 236zM909 -407h-695l28 165h696z" />
    <glyph glyph-name="dcaron" unicode="&#x10f;" 
d="M1343 1518h190l-119 -477h-155zM594 1114c153 0 248 -87 271 -213h12l110 617h213l-267 -1518h-210l32 178h-16c-49 -123 -140 -195 -270 -195c-200 0 -326 136 -326 349c0 57 5 101 12 136l39 232c45 259 191 414 400 414zM630 914c-128 0 -206 -74 -236 -239l-32 -188
c-4 -21 -7 -50 -7 -80c0 -133 70 -218 193 -218c132 0 221 81 250 240l34 197c4 25 6 46 6 79c0 117 -82 209 -208 209z" />
    <glyph glyph-name="ddotbelow" unicode="&#x1e0d;" 
d="M687 1114c163 0 297 -91 320 -230h14l113 634h238l-268 -1518h-236l34 196h-15c-48 -130 -173 -213 -317 -213c-224 0 -367 147 -367 378c0 49 4 98 10 136l29 177c43 273 213 440 445 440zM744 914c-142 0 -236 -91 -265 -253l-27 -156c-4 -25 -8 -59 -8 -91
c0 -135 88 -225 221 -225c147 0 254 97 283 255l29 166c5 28 6 48 6 68c0 136 -101 236 -239 236zM577 -466c-79 0 -146 67 -146 149c0 81 67 148 146 148s145 -67 145 -148c0 -82 -66 -149 -145 -149z" />
    <glyph glyph-name="dcroat" unicode="&#x111;" 
d="M944 444l29 166c5 28 6 48 6 68c0 136 -101 236 -238 236c-143 0 -236 -91 -266 -253l-27 -156c-4 -25 -7 -59 -7 -91c0 -135 87 -225 220 -225c148 0 254 97 283 255zM1498 1393l-22 -131h-153l-223 -1262h-236l35 196h-16c-48 -130 -172 -213 -317 -213
c-224 0 -367 147 -367 378c0 49 5 98 11 136l28 177c44 273 213 440 446 440c163 0 296 -91 320 -230h13l67 378h-180l22 131h182l22 125h238l-22 -125h152z" />
    <glyph glyph-name="e" unicode="e" 
d="M936 297h230c-33 -188 -226 -319 -471 -319c-274 0 -444 162 -444 424c0 47 5 90 16 159l23 131c44 261 243 425 516 425c263 0 445 -177 429 -416c0 -27 -7 -89 -11 -110l-15 -100h-725c-4 -17 -10 -69 -10 -77c-11 -152 81 -251 233 -251c113 0 203 52 229 134z
M508 647h500c2 9 6 44 6 55c13 137 -76 232 -220 232c-142 0 -245 -86 -276 -232z" />
    <glyph glyph-name="egrave" unicode="&#xe8;" 
d="M1008 1296h-225l-213 347h259zM936 297h230c-33 -188 -226 -319 -471 -319c-274 0 -444 162 -444 424c0 47 5 90 16 159l23 131c44 261 243 425 516 425c263 0 445 -177 429 -416c0 -27 -7 -89 -11 -110l-15 -100h-725c-4 -17 -10 -69 -10 -77c-11 -152 81 -251 233 -251
c113 0 203 52 229 134zM508 647h500c2 9 6 44 6 55c13 137 -76 232 -220 232c-142 0 -245 -86 -276 -232z" />
    <glyph glyph-name="edblgrave" unicode="&#x205;" 
d="M508 647h500c2 9 6 44 6 55c13 137 -76 232 -220 232c-142 0 -245 -86 -276 -232zM936 297h230c-33 -188 -226 -319 -471 -319c-274 0 -444 162 -444 424c0 47 5 90 16 159l23 131c44 261 243 425 516 425c263 0 445 -177 429 -416c0 -27 -7 -89 -11 -110l-15 -100h-725
c-4 -17 -10 -69 -10 -77c-11 -152 81 -251 233 -251c113 0 203 52 229 134zM579 1644l149 -348h-197l-173 348h221zM985 1644l148 -348h-196l-174 348h222z" />
    <glyph glyph-name="eacute" unicode="&#xe9;" 
d="M508 647h500c2 9 6 44 6 55c13 137 -76 232 -220 232c-142 0 -245 -86 -276 -232zM936 297h230c-33 -188 -226 -319 -471 -319c-274 0 -444 162 -444 424c0 47 5 90 16 159l23 131c44 261 243 425 516 425c263 0 445 -177 429 -416c0 -27 -7 -89 -11 -110l-15 -100h-725
c-4 -17 -10 -69 -10 -77c-11 -152 81 -251 233 -251c113 0 203 52 229 134zM944 1296h-236l302 347h268z" />
    <glyph glyph-name="ecircumflex" unicode="&#xea;" 
d="M791 1627h253l208 -351h-226l-118 216h-17l-192 -216h-240zM936 297h230c-33 -188 -226 -319 -471 -319c-274 0 -444 162 -444 424c0 47 5 90 16 159l23 131c44 261 243 425 516 425c263 0 445 -177 429 -416c0 -27 -7 -89 -11 -110l-15 -100h-725
c-4 -17 -10 -69 -10 -77c-11 -152 81 -251 233 -251c113 0 203 52 229 134zM508 647h500c2 9 6 44 6 55c13 137 -76 232 -220 232c-142 0 -245 -86 -276 -232z" />
    <glyph glyph-name="ecircumflexhookabove" unicode="&#x1ec3;" 
d="M1050 1853l16 132c38 18 87 28 139 28c133 0 221 -75 221 -190c0 -107 -76 -196 -203 -238l-72 109c72 22 111 61 111 109c0 45 -40 74 -101 74c-39 0 -76 -8 -111 -24zM792 1631h253l208 -350h-227l-117 216h-17l-192 -216h-240zM936 297h230
c-33 -188 -226 -319 -471 -319c-274 0 -444 162 -444 424c0 47 5 90 16 159l23 131c44 261 243 425 516 425c263 0 445 -177 429 -416c0 -27 -7 -89 -11 -110l-15 -100h-725c-4 -17 -10 -69 -10 -77c-11 -152 81 -251 233 -251c113 0 203 52 229 134zM508 647h500
c2 9 6 44 6 55c13 137 -76 232 -220 232c-142 0 -245 -86 -276 -232z" />
    <glyph glyph-name="ecircumflexgrave" unicode="&#x1ec1;" 
d="M792 1631h253l208 -350h-227l-117 216h-17l-192 -216h-240zM1415 1654h-193l-177 324h226zM936 297h230c-33 -188 -226 -319 -471 -319c-274 0 -444 162 -444 424c0 47 5 90 16 159l23 131c44 261 243 425 516 425c263 0 445 -177 429 -416c0 -27 -7 -89 -11 -110
l-15 -100h-725c-4 -17 -10 -69 -10 -77c-11 -152 81 -251 233 -251c113 0 203 52 229 134zM508 647h500c2 9 6 44 6 55c13 137 -76 232 -220 232c-142 0 -245 -86 -276 -232z" />
    <glyph glyph-name="ecircumflextilde" unicode="&#x1ec5;" 
d="M792 1631h253l208 -350h-227l-117 216h-17l-192 -216h-240zM1188 2008h166c-12 -172 -116 -289 -253 -289c-162 0 -199 139 -283 139c-51 0 -78 -42 -88 -137h-167c14 176 114 291 254 291c162 0 199 -138 284 -138c50 0 76 40 87 134zM936 297h230
c-33 -188 -226 -319 -471 -319c-274 0 -444 162 -444 424c0 47 5 90 16 159l23 131c44 261 243 425 516 425c263 0 445 -177 429 -416c0 -27 -7 -89 -11 -110l-15 -100h-725c-4 -17 -10 -69 -10 -77c-11 -152 81 -251 233 -251c113 0 203 52 229 134zM508 647h500
c2 9 6 44 6 55c13 137 -76 232 -220 232c-142 0 -245 -86 -276 -232z" />
    <glyph glyph-name="ecircumflexdotbelow" unicode="&#x1ec7;" 
d="M617 -466c-79 0 -145 67 -145 149c0 81 66 148 145 148c80 0 146 -67 146 -148c0 -82 -66 -149 -146 -149zM791 1627h253l208 -351h-226l-118 216h-17l-192 -216h-240zM936 297h230c-33 -188 -226 -319 -471 -319c-274 0 -444 162 -444 424c0 47 5 90 16 159l23 131
c44 261 243 425 516 425c263 0 445 -177 429 -416c0 -27 -7 -89 -11 -110l-15 -100h-725c-4 -17 -10 -69 -10 -77c-11 -152 81 -251 233 -251c113 0 203 52 229 134zM508 647h500c2 9 6 44 6 55c13 137 -76 232 -220 232c-142 0 -245 -86 -276 -232z" />
    <glyph glyph-name="ecircumflexacute" unicode="&#x1ebf;" 
d="M792 1631h253l208 -350h-227l-117 216h-17l-192 -216h-240zM1130 1654l257 324h235l-291 -324h-201zM936 297h230c-33 -188 -226 -319 -471 -319c-274 0 -444 162 -444 424c0 47 5 90 16 159l23 131c44 261 243 425 516 425c263 0 445 -177 429 -416
c0 -27 -7 -89 -11 -110l-15 -100h-725c-4 -17 -10 -69 -10 -77c-11 -152 81 -251 233 -251c113 0 203 52 229 134zM508 647h500c2 9 6 44 6 55c13 137 -76 232 -220 232c-142 0 -245 -86 -276 -232z" />
    <glyph glyph-name="edieresis" unicode="&#xeb;" 
d="M1116 1305c-73 0 -135 63 -135 139c0 75 62 139 135 139s136 -64 136 -139c0 -76 -63 -139 -136 -139zM678 1305c-73 0 -136 63 -136 139c0 75 63 139 136 139s135 -64 135 -139c0 -76 -62 -139 -135 -139zM936 297h230c-33 -188 -226 -319 -471 -319
c-274 0 -444 162 -444 424c0 47 5 90 16 159l23 131c44 261 243 425 516 425c263 0 445 -177 429 -416c0 -27 -7 -89 -11 -110l-15 -100h-725c-4 -17 -10 -69 -10 -77c-11 -152 81 -251 233 -251c113 0 203 52 229 134zM508 647h500c2 9 6 44 6 55c13 137 -76 232 -220 232
c-142 0 -245 -86 -276 -232z" />
    <glyph glyph-name="edotbelow" unicode="&#x1eb9;" 
d="M617 -466c-79 0 -145 67 -145 149c0 81 66 148 145 148c80 0 146 -67 146 -148c0 -82 -66 -149 -146 -149zM936 297h230c-33 -188 -226 -319 -471 -319c-274 0 -444 162 -444 424c0 47 5 90 16 159l23 131c44 261 243 425 516 425c263 0 445 -177 429 -416
c0 -27 -7 -89 -11 -110l-15 -100h-725c-4 -17 -10 -69 -10 -77c-11 -152 81 -251 233 -251c113 0 203 52 229 134zM508 647h500c2 9 6 44 6 55c13 137 -76 232 -220 232c-142 0 -245 -86 -276 -232z" />
    <glyph glyph-name="einvertedbreve" unicode="&#x207;" 
d="M660 1259h-178c23 205 190 344 413 344c220 0 373 -155 338 -344h-173c12 112 -60 186 -181 186c-117 0 -205 -74 -219 -186zM936 297h230c-33 -188 -226 -319 -471 -319c-274 0 -444 162 -444 424c0 47 5 90 16 159l23 131c44 261 243 425 516 425
c263 0 445 -177 429 -416c0 -27 -7 -89 -11 -110l-15 -100h-725c-4 -17 -10 -69 -10 -77c-11 -152 81 -251 233 -251c113 0 203 52 229 134zM508 647h500c2 9 6 44 6 55c13 137 -76 232 -220 232c-142 0 -245 -86 -276 -232z" />
    <glyph glyph-name="ehookabove" unicode="&#x1ebb;" 
d="M706 1503l16 132c38 18 87 27 139 27c133 0 221 -75 221 -190c0 -106 -76 -196 -203 -237l-72 108c72 23 111 62 111 110c0 45 -40 74 -101 74c-39 0 -76 -8 -111 -24zM936 297h230c-33 -188 -226 -319 -471 -319c-274 0 -444 162 -444 424c0 47 5 90 16 159l23 131
c44 261 243 425 516 425c263 0 445 -177 429 -416c0 -27 -7 -89 -11 -110l-15 -100h-725c-4 -17 -10 -69 -10 -77c-11 -152 81 -251 233 -251c113 0 203 52 229 134zM508 647h500c2 9 6 44 6 55c13 137 -76 232 -220 232c-142 0 -245 -86 -276 -232z" />
    <glyph glyph-name="ecaron" unicode="&#x11b;" 
d="M982 1296h-253l-208 350h226l118 -216h16l192 216h241zM936 297h230c-33 -188 -226 -319 -471 -319c-274 0 -444 162 -444 424c0 47 5 90 16 159l23 131c44 261 243 425 516 425c263 0 445 -177 429 -416c0 -27 -7 -89 -11 -110l-15 -100h-725c-4 -17 -10 -69 -10 -77
c-11 -152 81 -251 233 -251c113 0 203 52 229 134zM508 647h500c2 9 6 44 6 55c13 137 -76 232 -220 232c-142 0 -245 -86 -276 -232z" />
    <glyph glyph-name="emacron" unicode="&#x113;" 
d="M1219 1361h-696l29 166h695zM936 297h230c-33 -188 -226 -319 -471 -319c-274 0 -444 162 -444 424c0 47 5 90 16 159l23 131c44 261 243 425 516 425c263 0 445 -177 429 -416c0 -27 -7 -89 -11 -110l-15 -100h-725c-4 -17 -10 -69 -10 -77c-11 -152 81 -251 233 -251
c113 0 203 52 229 134zM508 647h500c2 9 6 44 6 55c13 137 -76 232 -220 232c-142 0 -245 -86 -276 -232z" />
    <glyph glyph-name="emacrongrave" unicode="&#x1e15;" 
d="M1218 1359h-695l28 165h696zM1040 1669h-198l-191 306h231zM936 297h230c-33 -188 -226 -319 -471 -319c-274 0 -444 162 -444 424c0 47 5 90 16 159l23 131c44 261 243 425 516 425c263 0 445 -177 429 -416c0 -27 -7 -89 -11 -110l-15 -100h-725
c-4 -17 -10 -69 -10 -77c-11 -152 81 -251 233 -251c113 0 203 52 229 134zM508 647h500c2 9 6 44 6 55c13 137 -76 232 -220 232c-142 0 -245 -86 -276 -232z" />
    <glyph glyph-name="emacronacute" unicode="&#x1e17;" 
d="M508 647h500c2 9 6 44 6 55c13 137 -76 232 -220 232c-142 0 -245 -86 -276 -232zM936 297h230c-33 -188 -226 -319 -471 -319c-274 0 -444 162 -444 424c0 47 5 90 16 159l23 131c44 261 243 425 516 425c263 0 445 -177 429 -416c0 -27 -7 -89 -11 -110l-15 -100h-725
c-4 -17 -10 -69 -10 -77c-11 -152 81 -251 233 -251c113 0 203 52 229 134zM984 1665h-194l208 307h227zM1219 1356h-696l28 166h696z" />
    <glyph glyph-name="etilde" unicode="&#x1ebd;" 
d="M1114 1568h166c-16 -187 -116 -304 -257 -304c-161 0 -201 154 -286 154c-54 0 -82 -46 -90 -147h-167c18 192 114 306 258 306c161 0 201 -153 286 -153c54 0 82 44 90 144zM936 297h230c-33 -188 -226 -319 -471 -319c-274 0 -444 162 -444 424c0 47 5 90 16 159
l23 131c44 261 243 425 516 425c263 0 445 -177 429 -416c0 -27 -7 -89 -11 -110l-15 -100h-725c-4 -17 -10 -69 -10 -77c-11 -152 81 -251 233 -251c113 0 203 52 229 134zM508 647h500c2 9 6 44 6 55c13 137 -76 232 -220 232c-142 0 -245 -86 -276 -232z" />
    <glyph glyph-name="ecircumflexbelow" unicode="&#x1e19;" 
d="M519 -162h253l208 -351h-226l-118 216h-17l-192 -216h-240zM936 297h230c-33 -188 -226 -319 -471 -319c-274 0 -444 162 -444 424c0 47 5 90 16 159l23 131c44 261 243 425 516 425c263 0 445 -177 429 -416c0 -27 -7 -89 -11 -110l-15 -100h-725
c-4 -17 -10 -69 -10 -77c-11 -152 81 -251 233 -251c113 0 203 52 229 134zM508 647h500c2 9 6 44 6 55c13 137 -76 232 -220 232c-142 0 -245 -86 -276 -232z" />
    <glyph glyph-name="ebreve" unicode="&#x115;" 
d="M1109 1582h178c-23 -205 -190 -344 -413 -344c-220 0 -373 155 -338 344h173c-12 -112 60 -186 181 -186c117 0 205 74 219 186zM936 297h230c-33 -188 -226 -319 -471 -319c-274 0 -444 162 -444 424c0 47 5 90 16 159l23 131c44 261 243 425 516 425
c263 0 445 -177 429 -416c0 -27 -7 -89 -11 -110l-15 -100h-725c-4 -17 -10 -69 -10 -77c-11 -152 81 -251 233 -251c113 0 203 52 229 134zM508 647h500c2 9 6 44 6 55c13 137 -76 232 -220 232c-142 0 -245 -86 -276 -232z" />
    <glyph glyph-name="etildebelow" unicode="&#x1e1b;" 
d="M852 -165h166c-16 -187 -116 -304 -257 -304c-161 0 -201 154 -286 154c-54 0 -82 -46 -90 -147h-167c18 192 114 306 258 306c161 0 201 -153 286 -153c54 0 82 44 90 144zM936 297h230c-33 -188 -226 -319 -471 -319c-274 0 -444 162 -444 424c0 47 5 90 16 159l23 131
c44 261 243 425 516 425c263 0 445 -177 429 -416c0 -27 -7 -89 -11 -110l-15 -100h-725c-4 -17 -10 -69 -10 -77c-11 -152 81 -251 233 -251c113 0 203 52 229 134zM508 647h500c2 9 6 44 6 55c13 137 -76 232 -220 232c-142 0 -245 -86 -276 -232z" />
    <glyph glyph-name="edotaccent" unicode="&#x117;" 
d="M884 1289c-79 0 -146 67 -146 149c0 81 67 148 146 148s145 -67 145 -148c0 -82 -66 -149 -145 -149zM936 297h230c-33 -188 -226 -319 -471 -319c-274 0 -444 162 -444 424c0 47 5 90 16 159l23 131c44 261 243 425 516 425c263 0 445 -177 429 -416
c0 -27 -7 -89 -11 -110l-15 -100h-725c-4 -17 -10 -69 -10 -77c-11 -152 81 -251 233 -251c113 0 203 52 229 134zM508 647h500c2 9 6 44 6 55c13 137 -76 232 -220 232c-142 0 -245 -86 -276 -232z" />
    <glyph glyph-name="ecedilla" unicode="&#x229;" 
d="M508 647h500c2 9 6 44 6 55c13 137 -76 232 -220 232c-142 0 -245 -86 -276 -232zM267 561l23 131c44 261 243 425 516 425c263 0 445 -177 429 -416c0 -27 -7 -89 -11 -110l-15 -100h-725c-4 -17 -10 -69 -10 -77c-11 -152 81 -251 233 -251c113 0 203 52 229 134h230
c-30 -173 -196 -298 -414 -317l-56 -102c110 -9 174 -66 174 -154c0 -132 -102 -212 -272 -212c-48 0 -106 9 -152 23l21 124c26 -10 87 -19 128 -19c71 0 114 24 114 66s-43 63 -127 63h-56l12 104l63 112c-219 33 -350 187 -350 417c0 47 5 90 16 159z" />
    <glyph glyph-name="ecedillabreve" unicode="&#x1e1d;" 
d="M1102 1582h178c-23 -205 -190 -344 -413 -344c-220 0 -373 155 -338 344h173c-12 -112 60 -186 181 -186c117 0 205 74 219 186zM508 647h500c2 9 6 44 6 55c13 137 -76 232 -220 232c-142 0 -245 -86 -276 -232zM267 561l23 131c44 261 243 425 516 425
c263 0 445 -177 429 -416c0 -27 -7 -89 -11 -110l-15 -100h-725c-4 -17 -10 -69 -10 -77c-11 -152 81 -251 233 -251c113 0 203 52 229 134h230c-30 -173 -196 -298 -414 -317l-56 -102c110 -9 174 -66 174 -154c0 -132 -102 -212 -272 -212c-48 0 -106 9 -152 23l21 124
c26 -10 87 -19 128 -19c71 0 114 24 114 66s-43 63 -127 63h-56l12 104l63 112c-219 33 -350 187 -350 417c0 47 5 90 16 159z" />
    <glyph glyph-name="eogonek" unicode="&#x119;" 
d="M844 -440c-143 0 -249 86 -249 202c0 87 48 154 162 223l-1 15c-20 -11 -47 -17 -71 -17c-264 -5 -434 159 -434 419c0 46 5 89 16 159l23 131c44 261 243 425 516 425c263 0 445 -177 429 -416c0 -28 -7 -90 -11 -110l-15 -100h-725c-4 -17 -10 -68 -10 -77
c-11 -152 81 -251 233 -251c116 0 213 53 239 134h228c-21 -109 -79 -180 -196 -261c-139 -96 -184 -144 -184 -220c0 -62 54 -104 132 -104c23 0 53 3 64 6l-25 -141c-29 -11 -71 -17 -121 -17zM794 934c-140 0 -241 -82 -273 -222c-2 -8 -12 -55 -13 -65h500
c2 9 6 44 6 55c13 137 -76 232 -220 232z" />
    <glyph glyph-name="f" unicode="f" 
d="M456 0l159 900h-293l33 188h292l17 91c40 237 180 334 465 334c40 0 244 -6 278 -15l-30 -177c-31 8 -234 15 -272 15c-123 0 -194 -49 -211 -145l-18 -103h458l-32 -188h-454l-160 -900h-232z" />
    <glyph glyph-name="fdotaccent" unicode="&#x1e1f;" 
d="M456 0l159 900h-293l33 188h292l17 91c40 237 180 334 465 334c40 0 244 -6 278 -15l-30 -177c-31 8 -234 15 -272 15c-123 0 -194 -49 -211 -145l-18 -103h458l-32 -188h-454l-160 -900h-232zM414 1289c-79 0 -145 67 -145 149c0 81 66 148 145 148s146 -67 146 -148
c0 -82 -67 -149 -146 -149z" />
    <glyph glyph-name="g" unicode="g" 
d="M1295 1095l-191 -1090c-48 -269 -236 -416 -534 -416c-260 0 -445 128 -445 309v22h228v-8c5 -85 104 -146 236 -146c159 0 256 84 285 246l35 201h-15c-48 -123 -179 -205 -328 -205c-215 0 -366 158 -366 385c0 45 5 98 12 141l22 138c45 274 215 442 445 442
c172 0 292 -84 331 -231h17l36 212h232zM943 462l23 133c6 36 8 63 8 85c0 138 -98 234 -237 234c-135 0 -237 -98 -266 -257l-20 -113c-6 -35 -9 -74 -9 -98c0 -143 92 -235 232 -235c134 0 242 100 269 251z" />
    <glyph glyph-name="gacute" unicode="&#x1f5;" 
d="M943 462l23 133c6 36 8 63 8 85c0 138 -98 234 -237 234c-135 0 -237 -98 -266 -257l-20 -113c-6 -35 -9 -74 -9 -98c0 -143 92 -235 232 -235c134 0 242 100 269 251zM1295 1095l-191 -1090c-48 -269 -236 -416 -534 -416c-260 0 -445 128 -445 309v22h228v-8
c5 -85 104 -146 236 -146c159 0 256 84 285 246l35 201h-15c-48 -123 -179 -205 -328 -205c-215 0 -366 158 -366 385c0 45 5 98 12 141l22 138c45 274 215 442 445 442c172 0 292 -84 331 -231h17l36 212h232zM891 1296h-235l301 347h268z" />
    <glyph glyph-name="gcaron" unicode="&#x1e7;" 
d="M929 1296h-253l-208 350h226l118 -216h17l192 216h240zM1295 1095l-191 -1090c-48 -269 -236 -416 -534 -416c-260 0 -445 128 -445 309v22h228v-8c5 -85 104 -146 236 -146c159 0 256 84 285 246l35 201h-15c-48 -123 -179 -205 -328 -205c-215 0 -366 158 -366 385
c0 45 5 98 12 141l22 138c45 274 215 442 445 442c172 0 292 -84 331 -231h17l36 212h232zM943 462l23 133c6 36 8 63 8 85c0 138 -98 234 -237 234c-135 0 -237 -98 -266 -257l-20 -113c-6 -35 -9 -74 -9 -98c0 -143 92 -235 232 -235c134 0 242 100 269 251z" />
    <glyph glyph-name="gcircumflex" unicode="&#x11d;" 
d="M738 1627h253l208 -351h-226l-118 216h-16l-192 -216h-241zM1295 1095l-191 -1090c-48 -269 -236 -416 -534 -416c-260 0 -445 128 -445 309v22h228v-8c5 -85 104 -146 236 -146c159 0 256 84 285 246l35 201h-15c-48 -123 -179 -205 -328 -205c-215 0 -366 158 -366 385
c0 45 5 98 12 141l22 138c45 274 215 442 445 442c172 0 292 -84 331 -231h17l36 212h232zM943 462l23 133c6 36 8 63 8 85c0 138 -98 234 -237 234c-135 0 -237 -98 -266 -257l-20 -113c-6 -35 -9 -74 -9 -98c0 -143 92 -235 232 -235c134 0 242 100 269 251z" />
    <glyph glyph-name="gbreve" unicode="&#x11f;" 
d="M1056 1582h178c-23 -205 -190 -344 -413 -344c-220 0 -373 155 -338 344h173c-12 -112 60 -186 181 -186c117 0 205 74 219 186zM1295 1095l-191 -1090c-48 -269 -236 -416 -534 -416c-260 0 -445 128 -445 309v22h228v-8c5 -85 104 -146 236 -146c159 0 256 84 285 246
l35 201h-15c-48 -123 -179 -205 -328 -205c-215 0 -366 158 -366 385c0 45 5 98 12 141l22 138c45 274 215 442 445 442c172 0 292 -84 331 -231h17l36 212h232zM943 462l23 133c6 36 8 63 8 85c0 138 -98 234 -237 234c-135 0 -237 -98 -266 -257l-20 -113
c-6 -35 -9 -74 -9 -98c0 -143 92 -235 232 -235c134 0 242 100 269 251z" />
    <glyph glyph-name="gmacron" unicode="&#x1e21;" 
d="M1166 1361h-696l29 166h696zM1295 1095l-191 -1090c-48 -269 -236 -416 -534 -416c-260 0 -445 128 -445 309v22h228v-8c5 -85 104 -146 236 -146c159 0 256 84 285 246l35 201h-15c-48 -123 -179 -205 -328 -205c-215 0 -366 158 -366 385c0 45 5 98 12 141l22 138
c45 274 215 442 445 442c172 0 292 -84 331 -231h17l36 212h232zM943 462l23 133c6 36 8 63 8 85c0 138 -98 234 -237 234c-135 0 -237 -98 -266 -257l-20 -113c-6 -35 -9 -74 -9 -98c0 -143 92 -235 232 -235c134 0 242 100 269 251z" />
    <glyph glyph-name="gdotaccent" unicode="&#x121;" 
d="M831 1289c-79 0 -146 67 -146 149c0 81 67 148 146 148s145 -67 145 -148c0 -82 -66 -149 -145 -149zM1295 1095l-191 -1090c-48 -269 -236 -416 -534 -416c-260 0 -445 128 -445 309v22h228v-8c5 -85 104 -146 236 -146c159 0 256 84 285 246l35 201h-15
c-48 -123 -179 -205 -328 -205c-215 0 -366 158 -366 385c0 45 5 98 12 141l22 138c45 274 215 442 445 442c172 0 292 -84 331 -231h17l36 212h232zM943 462l23 133c6 36 8 63 8 85c0 138 -98 234 -237 234c-135 0 -237 -98 -266 -257l-20 -113c-6 -35 -9 -74 -9 -98
c0 -143 92 -235 232 -235c134 0 242 100 269 251z" />
    <glyph glyph-name="gcommaaccent" unicode="&#x123;" 
d="M911 1272h-208l151 357h236zM1295 1095l-191 -1090c-48 -269 -236 -416 -534 -416c-260 0 -445 128 -445 309v22h228v-8c5 -85 104 -146 236 -146c159 0 256 84 285 246l35 201h-15c-48 -123 -179 -205 -328 -205c-215 0 -366 158 -366 385c0 45 5 98 12 141l22 138
c45 274 215 442 445 442c172 0 292 -84 331 -231h17l36 212h232zM943 462l23 133c6 36 8 63 8 85c0 138 -98 234 -237 234c-135 0 -237 -98 -266 -257l-20 -113c-6 -35 -9 -74 -9 -98c0 -143 92 -235 232 -235c134 0 242 100 269 251z" />
    <glyph glyph-name="h" unicode="h" 
d="M158 0l267 1518h226l-108 -607h14c61 125 186 204 334 204c207 0 344 -135 344 -340c0 -36 -5 -76 -15 -137l-111 -638h-233l109 616c6 35 10 68 10 95c0 117 -84 200 -208 200c-140 0 -253 -98 -283 -266l-114 -645h-232z" />
    <glyph glyph-name="hdieresis" unicode="&#x1e27;" 
d="M158 0l267 1518h226l-108 -607h14c61 125 186 204 334 204c207 0 344 -135 344 -340c0 -36 -5 -76 -15 -137l-111 -638h-233l109 616c6 35 10 68 10 95c0 117 -84 200 -208 200c-140 0 -253 -98 -283 -266l-114 -645h-232zM375 1708c-73 0 -135 63 -135 139
c0 75 62 139 135 139s135 -64 135 -139c0 -76 -62 -139 -135 -139zM814 1708c-73 0 -135 63 -135 139c0 75 62 139 135 139s135 -64 135 -139c0 -76 -62 -139 -135 -139z" />
    <glyph glyph-name="hcaron" unicode="&#x21f;" 
d="M158 0l267 1518h226l-108 -607h14c61 125 186 204 334 204c207 0 344 -135 344 -340c0 -36 -5 -76 -15 -137l-111 -638h-233l109 616c6 35 10 68 10 95c0 117 -84 200 -208 200c-140 0 -253 -98 -283 -266l-114 -645h-232zM457 1676l-226 324h211l128 -196h16l199 196
h229l-339 -324h-218z" />
    <glyph glyph-name="hcircumflex" unicode="&#x125;" 
d="M158 0l267 1518h226l-108 -607h14c61 125 186 204 334 204c207 0 344 -135 344 -340c0 -36 -5 -76 -15 -137l-111 -638h-233l109 616c6 35 10 68 10 95c0 117 -84 200 -208 200c-140 0 -253 -98 -283 -266l-114 -645h-232zM743 2005l226 -324h-211l-128 196h-16
l-198 -196h-230l339 324h218z" />
    <glyph glyph-name="hdotbelow" unicode="&#x1e25;" 
d="M158 0l267 1518h226l-108 -607h14c61 125 186 204 334 204c207 0 344 -135 344 -340c0 -36 -5 -76 -15 -137l-111 -638h-233l109 616c6 35 10 68 10 95c0 117 -84 200 -208 200c-140 0 -253 -98 -283 -266l-114 -645h-232zM577 -466c-79 0 -145 67 -145 149
c0 81 66 148 145 148c80 0 146 -67 146 -148c0 -82 -66 -149 -146 -149z" />
    <glyph glyph-name="hdotaccent" unicode="&#x1e23;" 
d="M158 0l267 1518h226l-108 -607h14c61 125 186 204 334 204c207 0 344 -135 344 -340c0 -36 -5 -76 -15 -137l-111 -638h-233l109 616c6 35 10 68 10 95c0 117 -84 200 -208 200c-140 0 -253 -98 -283 -266l-114 -645h-232zM1042 1289c-79 0 -145 67 -145 149
c0 81 66 148 145 148s146 -67 146 -148c0 -82 -67 -149 -146 -149z" />
    <glyph glyph-name="hbrevebelow" unicode="&#x1e2b;" 
d="M158 0l267 1518h226l-108 -607h14c61 125 186 204 334 204c207 0 344 -135 344 -340c0 -36 -5 -76 -15 -137l-111 -638h-233l109 616c6 35 10 68 10 95c0 117 -84 200 -208 200c-140 0 -253 -98 -283 -266l-114 -645h-232zM585 -468c-221 0 -374 155 -339 344h174
c-13 -112 59 -186 180 -186c117 0 206 74 220 186h178c-24 -205 -191 -344 -413 -344z" />
    <glyph glyph-name="hcedilla" unicode="&#x1e29;" 
d="M230 0h-72l267 1518h226l-108 -607h14c62 127 188 204 334 204c207 0 344 -135 344 -340c0 -35 -4 -74 -15 -137l-111 -638h-232l108 616c7 40 10 69 10 95c0 118 -85 200 -208 200c-144 0 -254 -103 -283 -266l-113 -645l-44 -123c95 -17 150 -74 150 -153
c0 -127 -109 -212 -272 -212c-48 0 -105 9 -152 23l21 124c28 -10 89 -19 128 -19c76 0 114 22 114 66c0 43 -42 64 -129 64h-39l19 108z" />
    <glyph glyph-name="hbar" unicode="&#x127;" 
d="M543 911h14c61 125 186 204 334 204c207 0 344 -135 344 -340c0 -36 -5 -76 -15 -137l-111 -638h-233l109 616c6 35 10 68 10 95c0 117 -84 200 -208 200c-140 0 -253 -98 -283 -266l-114 -645h-232l222 1263h-140l22 131h141l22 124h226l-22 -124h256l-22 -131h-257z
" />
    <glyph glyph-name="hlinebelow" unicode="&#x1e96;" 
d="M158 0l267 1518h226l-108 -607h14c61 125 186 204 334 204c207 0 344 -135 344 -340c0 -36 -5 -76 -15 -137l-111 -638h-233l109 616c6 35 10 68 10 95c0 117 -84 200 -208 200c-140 0 -253 -98 -283 -266l-114 -645h-232zM910 -407h-696l29 165h695z" />
    <glyph glyph-name="i" unicode="i" 
d="M911 1338c-99 0 -169 65 -169 159s70 159 169 159c100 0 170 -65 170 -159s-70 -159 -170 -159zM1115 0h-932l32 186h361l130 723h-349l31 186h576l-161 -909h344z" />
    <glyph glyph-name="idotaccent" 
d="M1115 0h-932l32 186h361l130 723h-349l31 186h576l-161 -909h344zM913 1289c-79 0 -145 67 -145 149c0 81 66 148 145 148c80 0 146 -67 146 -148c0 -82 -66 -149 -146 -149z" />
    <glyph glyph-name="igrave" unicode="&#xec;" 
d="M1115 0h-932l32 186h361l130 723h-349l31 186h576l-161 -909h344zM1038 1296h-225l-214 347h260z" />
    <glyph glyph-name="idblgrave" unicode="&#x209;" 
d="M1015 1644l148 -348h-197l-173 348h222zM609 1644l148 -348h-196l-174 348h222zM1115 0h-932l32 186h361l130 723h-349l31 186h576l-161 -909h344z" />
    <glyph glyph-name="iacute" unicode="&#xed;" 
d="M973 1296h-235l301 347h269zM1115 0h-932l32 186h361l130 723h-349l31 186h576l-161 -909h344z" />
    <glyph glyph-name="icircumflex" unicode="&#xee;" 
d="M1115 0h-932l32 186h361l130 723h-349l31 186h576l-161 -909h344zM821 1627h253l208 -351h-227l-117 216h-17l-192 -216h-240z" />
    <glyph glyph-name="icaron" unicode="&#x1d0;" 
d="M1115 0h-932l32 186h361l130 723h-349l31 186h576l-161 -909h344zM1011 1296h-253l-208 350h227l117 -216h17l192 216h240z" />
    </font>
</defs>
</svg>
