<?xml version="1.0" standalone="no"?>
<!DOCTYPE svg PUBLIC "-//W3C//DTD SVG 1.1//EN" "http://www.w3.org/Graphics/SVG/1.1/DTD/svg11.dtd" >
<svg xmlns="http://www.w3.org/2000/svg" xmlns:xlink="http://www.w3.org/1999/xlink" version="1.1">
<metadata>
Created by FontForge 20170812 at Fri May  5 01:32:36 2017
 By www-data

</metadata>
<defs>
<font id="SFMono-RegularItalic" horiz-adv-x="1266" >
  <font-face 
    font-family="SFMono"
    font-weight="400"
    font-style="italic"
    font-stretch="normal"
    units-per-em="2048"
    panose-1="2 11 0 9 0 0 2 0 0 0"
    ascent="1638"
    descent="-410"
    x-height="1085"
    cap-height="1443"
    bbox="-33 -594 1687 2304"
    underline-thickness="100"
    underline-position="-200"
    slope="-10"
    stemh="73"
    stemv="100"
    unicode-range="U+0020-FB02"
  />
<missing-glyph 
 />
    <glyph glyph-name=".notdef" 
 />
    <glyph glyph-name="glyph1" 
 />
    <glyph glyph-name="nonmarkingreturn" horiz-adv-x="0" 
 />
    <glyph glyph-name="space" unicode=" " 
 />
    <glyph glyph-name="A" unicode="A" 
d="M531 565h410l-83 666h-5zM1012 0l-52 414h-503l-200 -414h-184l720 1443h188l207 -1443h-176z" />
    <glyph glyph-name="Agrave" unicode="&#xc0;" 
d="M978 1612h-177l-226 304h198zM531 565h410l-83 666h-5zM1012 0l-52 414h-503l-200 -414h-184l720 1443h188l207 -1443h-176z" />
    <glyph glyph-name="Aacute" unicode="&#xc1;" 
d="M1297 1916l-332 -304h-193l310 304h215zM531 565h410l-83 666h-5zM793 1443h188l207 -1443h-176l-52 414h-503l-200 -414h-184z" />
    <glyph glyph-name="Adieresis" unicode="&#xc4;" 
d="M743 1651c-63 0 -117 56 -117 121c0 66 54 121 117 121c62 0 117 -55 117 -121c0 -65 -55 -121 -117 -121zM531 565h410l-83 666h-5zM793 1443h188l207 -1443h-176l-52 414h-503l-200 -414h-184zM1146 1893c63 0 118 -55 118 -121c0 -65 -55 -121 -118 -121
c-62 0 -117 56 -117 121c0 66 55 121 117 121z" />
    <glyph glyph-name="Adieresismacron" unicode="&#x1de;" 
d="M531 565h410l-83 666h-5zM793 1443h188l207 -1443h-176l-52 414h-503l-200 -414h-184zM838 1676c0 -61 -47 -110 -106 -110s-107 49 -107 110c0 62 48 110 107 110s106 -48 106 -110zM1120 1786c60 0 107 -48 107 -110c0 -61 -47 -110 -107 -110c-59 0 -106 49 -106 110
c0 62 47 110 106 110zM635 2051h663l-20 -120h-663z" />
    <glyph glyph-name="Aring" unicode="&#xc5;" 
d="M919 1852c-58 0 -102 -42 -102 -101s44 -101 102 -101c59 0 103 42 103 101s-44 101 -103 101zM919 1559c-108 0 -193 85 -193 192c0 108 85 192 193 192c109 0 193 -84 193 -192c0 -107 -84 -192 -193 -192zM531 565h410l-83 666h-5zM1012 0l-52 414h-503l-200 -414
h-184l720 1443h188l207 -1443h-176z" />
    <glyph glyph-name="Aringacute" unicode="&#x1fa;" 
d="M1215 2158l-171 -175h-151l148 175h174zM927 1832c-58 0 -102 -43 -102 -102s44 -101 102 -101c59 0 103 43 103 101c0 59 -44 102 -103 102zM927 1538c-108 0 -193 85 -193 193c0 107 85 191 193 191c109 0 193 -84 193 -191c0 -108 -84 -193 -193 -193zM531 565h410
l-83 666h-5zM793 1443h188l207 -1443h-176l-52 414h-503l-200 -414h-184z" />
    <glyph glyph-name="Atilde" unicode="&#xc3;" 
d="M531 565h410l-83 666h-5zM793 1443h188l207 -1443h-176l-52 414h-503l-200 -414h-184zM1160 1886h123c-5 -159 -92 -268 -219 -268c-156 0 -183 159 -285 159c-59 0 -93 -50 -99 -147h-124c7 165 91 270 220 270c162 0 195 -160 285 -160c57 0 93 52 99 146z" />
    <glyph glyph-name="Abrevegrave" unicode="&#x1eb0;" 
d="M1058 1862h-141l-150 221h166zM531 565h410l-83 666h-5zM793 1443h188l207 -1443h-176l-52 414h-503l-200 -414h-184zM1157 1857h141c-25 -163 -173 -278 -367 -278c-201 0 -331 114 -327 278h140c5 -97 80 -162 194 -162c116 0 204 67 219 162z" />
    <glyph glyph-name="Adotmacron" unicode="&#x1e0;" 
d="M531 565h410l-83 666h-5zM793 1443h188l207 -1443h-176l-52 414h-503l-200 -414h-184zM1035 1693c0 -66 -52 -119 -116 -119s-115 53 -115 119s51 118 115 118s116 -52 116 -118zM649 2051h663l-21 -120h-663z" />
    <glyph glyph-name="Aringbelow" unicode="&#x1e00;" 
d="M574 -484c68 0 119 52 119 121c0 70 -51 122 -119 122c-67 0 -118 -52 -118 -122c0 -69 51 -121 118 -121zM574 -132c125 0 226 -103 226 -231c0 -127 -101 -230 -226 -230c-124 0 -225 103 -225 230c0 128 101 231 225 231zM531 565h410l-83 666h-5zM1188 0h-176
l-52 414h-503l-200 -414h-184l720 1443h188z" />
    <glyph glyph-name="Acircumflex" unicode="&#xc2;" 
d="M960 1811l-216 -199h-190l341 309h159l233 -309h-170l-144 199h-13zM531 565h410l-83 666h-5zM793 1443h188l207 -1443h-176l-52 414h-503l-200 -414h-184z" />
    <glyph glyph-name="Acircumflexdotbelow" unicode="&#x1eac;" 
d="M960 1811l-216 -199h-190l341 309h159l233 -309h-170l-144 199h-13zM576 -194c68 0 126 -59 126 -129s-58 -128 -126 -128s-126 58 -126 128s58 129 126 129zM531 565h410l-83 666h-5zM793 1443h188l207 -1443h-176l-52 414h-503l-200 -414h-184z" />
    <glyph glyph-name="Acircumflexacute" unicode="&#x1ea4;" 
d="M531 565h410l-83 666h-5zM793 1443h188l207 -1443h-176l-52 414h-503l-200 -414h-184zM861 1813h179l241 -235h-185l-145 146h-14l-197 -146h-203zM1412 2083h191l-275 -239h-171z" />
    <glyph glyph-name="Acircumflextilde" unicode="&#x1eaa;" 
d="M1214 2101h123c-5 -135 -94 -231 -216 -231c-166 0 -171 131 -274 131c-55 0 -87 -41 -92 -117h-124c6 140 92 233 216 233c167 0 172 -130 274 -130c53 0 87 41 93 114zM531 565h410l-83 666h-5zM793 1443h188l207 -1443h-176l-52 414h-503l-200 -414h-184zM861 1813
h180l241 -235h-185l-146 146h-13l-198 -146h-202z" />
    <glyph glyph-name="Acircumflexgrave" unicode="&#x1ea6;" 
d="M1381 1844h-157l-193 239h178zM531 565h410l-83 666h-5zM793 1443h188l207 -1443h-176l-52 414h-503l-200 -414h-184zM862 1813h179l241 -235h-185l-146 146h-13l-198 -146h-202z" />
    <glyph glyph-name="Acircumflexhookabove" unicode="&#x1ea8;" 
d="M531 565h410l-83 666h-5zM793 1443h188l207 -1443h-176l-52 414h-503l-200 -414h-184zM862 1813h179l241 -235h-185l-146 146h-13l-198 -146h-202zM1126 1996l18 101c37 11 78 18 115 18c104 0 175 -58 175 -147c0 -91 -62 -165 -166 -199l-65 74c64 21 103 61 103 103
c0 40 -32 64 -86 64c-29 0 -56 -4 -94 -14z" />
    <glyph glyph-name="Abreve" unicode="&#x102;" 
d="M531 565h410l-83 666h-5zM793 1443h188l207 -1443h-176l-52 414h-503l-200 -414h-184zM1172 1918h140c-32 -186 -188 -309 -387 -309c-201 0 -334 135 -304 309h133c-15 -115 56 -190 179 -190c119 0 219 78 239 190z" />
    <glyph glyph-name="Abreveacute" unicode="&#x1eae;" 
d="M1223 2083l-228 -221h-158l203 221h183zM531 565h410l-83 666h-5zM793 1443h188l207 -1443h-176l-52 414h-503l-200 -414h-184zM1157 1857h141c-25 -163 -173 -278 -367 -278c-201 0 -331 114 -327 278h140c5 -97 80 -162 194 -162c116 0 204 67 219 162z" />
    <glyph glyph-name="Abrevetilde" unicode="&#x1eb4;" 
d="M1206 2078h122c-5 -123 -93 -211 -207 -211c-145 0 -195 122 -294 122c-57 0 -96 -39 -98 -98h-127c2 121 98 213 224 213c153 0 196 -122 295 -122c50 0 81 35 85 96zM531 565h410l-83 666h-5zM793 1443h188l207 -1443h-176l-52 414h-503l-200 -414h-184zM601 1816h133
c19 -79 93 -125 201 -125c102 0 184 48 212 125h140c-38 -145 -178 -237 -362 -237c-185 0 -309 90 -324 237z" />
    <glyph glyph-name="Abrevehookabove" unicode="&#x1eb2;" 
d="M937 1783l-65 70c62 22 99 62 99 107c0 35 -29 57 -77 57c-36 0 -79 -8 -101 -19l18 97c33 12 81 20 126 20c97 0 162 -53 162 -131c0 -86 -59 -159 -162 -201zM531 565h410l-83 666h-5zM793 1443h188l207 -1443h-176l-52 414h-503l-200 -414h-184zM1157 1848h138
c-26 -164 -168 -269 -366 -269s-322 103 -323 269h130c6 -100 80 -157 203 -157c118 0 203 61 218 157z" />
    <glyph glyph-name="Abrevedotbelow" unicode="&#x1eb6;" 
d="M576 -194c68 0 126 -59 126 -129s-58 -128 -126 -128s-126 58 -126 128s58 129 126 129zM531 565h410l-83 666h-5zM793 1443h188l207 -1443h-176l-52 414h-503l-200 -414h-184zM1172 1918h140c-32 -186 -188 -309 -387 -309c-201 0 -334 135 -304 309h133
c-15 -115 56 -190 179 -190c119 0 219 78 239 190z" />
    <glyph glyph-name="Ainvertedbreve" unicode="&#x202;" 
d="M531 565h410l-83 666h-5zM793 1443h188l207 -1443h-176l-52 414h-503l-200 -414h-184zM741 1609h-141c33 186 189 309 388 309c201 0 333 -135 303 -309h-132c15 115 -57 190 -179 190c-119 0 -219 -78 -239 -190z" />
    <glyph glyph-name="Acaron" unicode="&#x1cd;" 
d="M997 1610h-160l-233 309h170l145 -200h13l216 200h189zM531 565h410l-83 666h-5zM793 1443h188l207 -1443h-176l-52 414h-503l-200 -414h-184z" />
    <glyph glyph-name="Adotaccent" unicode="&#x226;" 
d="M948 1640c-68 0 -126 59 -126 129s58 128 126 128s126 -58 126 -128s-58 -129 -126 -129zM531 565h410l-83 666h-5zM1012 0l-52 414h-503l-200 -414h-184l720 1443h188l207 -1443h-176z" />
    <glyph glyph-name="Adotbelow" unicode="&#x1ea0;" 
d="M576 -194c68 0 126 -59 126 -129s-58 -128 -126 -128s-126 58 -126 128s58 129 126 129zM531 565h410l-83 666h-5zM1188 0h-176l-52 414h-503l-200 -414h-184l720 1443h188z" />
    <glyph glyph-name="Ahookabove" unicode="&#x1ea2;" 
d="M942 1571l-61 86c64 22 106 66 106 108c0 44 -39 73 -101 73c-43 0 -87 -9 -113 -22l6 113c34 15 86 25 132 25c124 0 205 -67 205 -172c0 -92 -69 -174 -174 -211zM531 565h410l-83 666h-5zM1012 0l-52 414h-503l-200 -414h-184l720 1443h188l207 -1443h-176z" />
    <glyph glyph-name="Adblgrave" unicode="&#x200;" 
d="M1175 1612h-164l-217 304h182zM796 1612h-164l-217 304h182zM531 565h410l-83 666h-5zM1012 0l-52 414h-503l-200 -414h-184l720 1443h188l207 -1443h-176z" />
    <glyph glyph-name="Amacron" unicode="&#x100;" 
d="M531 565h410l-83 666h-5zM793 1443h188l207 -1443h-176l-52 414h-503l-200 -414h-184zM625 1834h660l-24 -139h-660z" />
    <glyph glyph-name="Aogonek" unicode="&#x104;" 
d="M854 1231l-326 -666h416l-85 666h-5zM1007 44l-47 370h-499l-203 -414h-184l719 1443h189l206 -1443c-154 -35 -237 -100 -237 -185c0 -67 52 -112 130 -112c19 0 38 1 52 4l-21 -121c-23 -7 -58 -11 -96 -11c-133 0 -226 85 -226 207c0 107 79 201 217 262z" />
    <glyph glyph-name="B" unicode="B" 
d="M592 1291l-85 -471h272c191 0 320 107 321 264c1 135 -87 207 -254 207h-254zM388 153h310c222 0 366 111 366 283c0 153 -108 237 -304 237h-278zM188 0l254 1443h451c246 0 393 -124 392 -329c-2 -175 -124 -322 -296 -357l-2 -11c159 -30 259 -155 258 -323
c-2 -259 -210 -423 -539 -423h-518z" />
    <glyph glyph-name="Blinebelow" unicode="&#x1e06;" 
d="M592 1291l-85 -471h272c191 0 320 107 321 264c1 135 -87 207 -254 207h-254zM388 153h310c222 0 366 111 366 283c0 153 -108 237 -304 237h-278zM188 0l254 1443h451c246 0 393 -124 392 -329c-2 -175 -124 -322 -296 -357l-2 -11c159 -30 259 -155 258 -323
c-2 -259 -210 -423 -539 -423h-518zM843 -398h-660l24 139h660z" />
    <glyph glyph-name="Bdotbelow" unicode="&#x1e04;" 
d="M592 1291l-85 -471h272c191 0 320 107 321 264c1 135 -87 207 -254 207h-254zM388 153h310c222 0 366 111 366 283c0 153 -108 237 -304 237h-278zM188 0l254 1443h451c246 0 393 -124 392 -329c-2 -175 -124 -322 -296 -357l-2 -11c159 -30 259 -155 258 -323
c-2 -259 -210 -423 -539 -423h-518zM525 -454c-68 0 -126 59 -126 129c0 69 58 128 126 128s126 -59 126 -128c0 -70 -58 -129 -126 -129z" />
    <glyph glyph-name="Bdotaccent" unicode="&#x1e02;" 
d="M592 1291l-85 -471h272c191 0 320 107 321 264c1 135 -87 207 -254 207h-254zM388 153h310c222 0 366 111 366 283c0 153 -108 237 -304 237h-278zM188 0l254 1443h451c246 0 393 -124 392 -329c-2 -175 -124 -322 -296 -357l-2 -11c159 -30 259 -155 258 -323
c-2 -259 -210 -423 -539 -423h-518zM900 1640c-68 0 -126 59 -126 129s58 128 126 128s126 -58 126 -128s-58 -129 -126 -129z" />
    <glyph glyph-name="C" unicode="C" 
d="M1237 399c-27 -254 -246 -430 -528 -430c-302 0 -489 199 -489 520c0 53 6 116 14 160l40 229c66 385 273 595 590 595c279 0 471 -177 471 -432c0 -22 -2 -47 -6 -74h-174c2 23 3 37 3 57c0 169 -119 279 -304 279c-206 0 -348 -146 -397 -412l-44 -251
c-8 -42 -13 -99 -13 -153c0 -220 121 -348 326 -348c175 0 298 98 333 269c1 3 1 4 1 5h178c0 -5 0 -10 -1 -14z" />
    <glyph glyph-name="Cacute" unicode="&#x106;" 
d="M1237 399c-27 -254 -246 -430 -528 -430c-302 0 -489 199 -489 520c0 53 6 116 14 160l40 229c66 385 273 595 590 595c279 0 471 -177 471 -432c0 -22 -2 -47 -6 -74h-174c2 23 3 37 3 57c0 169 -119 279 -304 279c-206 0 -348 -146 -397 -412l-44 -251
c-8 -42 -13 -99 -13 -153c0 -220 121 -348 326 -348c175 0 298 98 333 269c1 3 1 4 1 5h178c0 -5 0 -10 -1 -14zM777 1612l311 304h215l-333 -304h-193z" />
    <glyph glyph-name="Ccaron" unicode="&#x10c;" 
d="M1237 399c-27 -254 -246 -430 -528 -430c-302 0 -489 199 -489 520c0 53 6 116 14 160l40 229c66 385 273 595 590 595c279 0 471 -177 471 -432c0 -22 -2 -47 -6 -74h-174c2 23 3 37 3 57c0 169 -119 279 -304 279c-206 0 -348 -146 -397 -412l-44 -251
c-8 -42 -13 -99 -13 -153c0 -220 121 -348 326 -348c175 0 298 98 333 269c1 3 1 4 1 5h178c0 -5 0 -10 -1 -14zM842 1610l-232 309h170l144 -200h13l216 200h189l-340 -309h-160z" />
    <glyph glyph-name="Ccircumflex" unicode="&#x108;" 
d="M1237 399c-27 -254 -246 -430 -528 -430c-302 0 -489 199 -489 520c0 53 6 116 14 160l40 229c66 385 273 595 590 595c279 0 471 -177 471 -432c0 -22 -2 -47 -6 -74h-174c2 23 3 37 3 57c0 169 -119 279 -304 279c-206 0 -348 -146 -397 -412l-44 -251
c-8 -42 -13 -99 -13 -153c0 -220 121 -348 326 -348c175 0 298 98 333 269c1 3 1 4 1 5h178c0 -5 0 -10 -1 -14zM1060 1921l232 -309h-170l-144 199h-13l-216 -199h-190l341 309h160z" />
    <glyph glyph-name="Cdotaccent" unicode="&#x10a;" 
d="M1237 399c-27 -254 -246 -430 -528 -430c-302 0 -489 199 -489 520c0 53 6 116 14 160l40 229c66 385 273 595 590 595c279 0 471 -177 471 -432c0 -22 -2 -47 -6 -74h-174c2 23 3 37 3 57c0 169 -119 279 -304 279c-206 0 -348 -146 -397 -412l-44 -251
c-8 -42 -13 -99 -13 -153c0 -220 121 -348 326 -348c175 0 298 98 333 269c1 3 1 4 1 5h178c0 -5 0 -10 -1 -14zM953 1640c-68 0 -126 59 -126 129s58 128 126 128s126 -58 126 -128s-58 -129 -126 -129z" />
    <glyph glyph-name="Ccedilla" unicode="&#xc7;" 
d="M1329 967h-174c2 23 3 37 3 57c0 169 -119 279 -304 279c-206 0 -348 -146 -397 -412l-44 -251c-8 -42 -13 -99 -13 -153c0 -220 121 -348 326 -348c175 0 298 98 333 269c1 3 1 4 1 5h178c0 -5 0 -10 -1 -14c-26 -247 -234 -421 -506 -430l-52 -102
c118 -4 184 -59 184 -152c0 -118 -101 -200 -250 -200c-50 0 -110 10 -158 27l19 108c31 -12 99 -22 138 -22c73 0 115 25 115 72c0 50 -47 74 -139 74h-53l4 84l63 120c-239 42 -382 230 -382 511c0 53 6 116 14 160l40 229c66 385 273 595 590 595
c279 0 471 -177 471 -432c0 -22 -2 -47 -6 -74z" />
    <glyph glyph-name="Ccedillaacute" unicode="&#x1e08;" 
d="M1303 1916l-333 -304h-193l311 304h215zM1329 967h-174c2 23 3 37 3 57c0 169 -119 279 -304 279c-206 0 -348 -146 -397 -412l-44 -251c-8 -42 -13 -99 -13 -153c0 -220 121 -348 326 -348c175 0 298 98 333 269c1 3 1 4 1 5h178c0 -5 0 -10 -1 -14
c-26 -247 -234 -421 -506 -430l-52 -102c118 -4 184 -59 184 -152c0 -118 -101 -200 -250 -200c-50 0 -110 10 -158 27l19 108c31 -12 99 -22 138 -22c73 0 115 25 115 72c0 50 -47 74 -139 74h-53l4 84l63 120c-239 42 -382 230 -382 511c0 53 6 116 14 160l40 229
c66 385 273 595 590 595c279 0 471 -177 471 -432c0 -22 -2 -47 -6 -74z" />
    <glyph glyph-name="D" unicode="D" 
d="M790 1443c338 0 525 -192 525 -540c0 -53 -3 -108 -9 -149c0 -8 -24 -138 -25 -146c-70 -406 -305 -608 -711 -608h-410l254 1443h376zM757 1282h-193l-200 -1120h198c307 0 488 156 542 462c0 5 22 122 22 128c5 39 9 88 9 135c0 263 -126 395 -378 395z" />
    <glyph glyph-name="Ddotaccent" unicode="&#x1e0a;" 
d="M790 1443c338 0 525 -192 525 -540c0 -53 -3 -108 -9 -149c0 -8 -24 -138 -25 -146c-70 -406 -305 -608 -711 -608h-410l254 1443h376zM757 1282h-193l-200 -1120h198c307 0 488 156 542 462c0 5 22 122 22 128c5 39 9 88 9 135c0 263 -126 395 -378 395zM894 1640
c-68 0 -126 59 -126 129s58 128 126 128s126 -58 126 -128s-58 -129 -126 -129z" />
    <glyph glyph-name="Dcircumflexbelow" unicode="&#x1e12;" 
d="M790 1443c338 0 525 -192 525 -540c0 -53 -3 -108 -9 -149c0 -8 -24 -138 -25 -146c-70 -406 -305 -608 -711 -608h-410l254 1443h376zM757 1282h-193l-200 -1120h198c307 0 488 156 542 462c0 5 22 122 22 128c5 39 9 88 9 135c0 263 -126 395 -378 395zM446 -166h201
l213 -342h-186l-132 227h-15l-212 -227h-202z" />
    <glyph glyph-name="Dcommaaccent" unicode="&#x1e10;" 
d="M790 1443c338 0 525 -192 525 -540c0 -53 -3 -108 -9 -149c0 -8 -24 -138 -25 -146c-70 -406 -305 -608 -711 -608h-410l254 1443h376zM757 1282h-193l-200 -1120h198c307 0 488 156 542 462c0 5 22 122 22 128c5 39 9 88 9 135c0 263 -126 395 -378 395zM522 -503h-157
l120 361h177z" />
    <glyph glyph-name="Dlinebelow" unicode="&#x1e0e;" 
d="M790 1443c338 0 525 -192 525 -540c0 -53 -3 -108 -9 -149c0 -8 -24 -138 -25 -146c-70 -406 -305 -608 -711 -608h-410l254 1443h376zM757 1282h-193l-200 -1120h198c307 0 488 156 542 462c0 5 22 122 22 128c5 39 9 88 9 135c0 263 -126 395 -378 395zM836 -395h-660
l24 139h660z" />
    <glyph glyph-name="Dcaron" unicode="&#x10e;" 
d="M790 1443c338 0 525 -192 525 -540c0 -53 -3 -108 -9 -149c0 -8 -24 -138 -25 -146c-70 -406 -305 -608 -711 -608h-410l254 1443h376zM757 1282h-193l-200 -1120h198c307 0 488 156 542 462c0 5 22 122 22 128c5 39 9 88 9 135c0 263 -126 395 -378 395zM784 1610
l-233 309h170l144 -200h13l216 200h190l-341 -309h-159z" />
    <glyph glyph-name="Ddotbelow" unicode="&#x1e0c;" 
d="M790 1443c338 0 525 -192 525 -540c0 -53 -3 -108 -9 -149c0 -8 -24 -138 -25 -146c-70 -406 -305 -608 -711 -608h-410l254 1443h376zM757 1282h-193l-200 -1120h198c307 0 488 156 542 462c0 5 22 122 22 128c5 39 9 88 9 135c0 263 -126 395 -378 395zM518 -451
c-68 0 -126 58 -126 128s58 129 126 129s126 -59 126 -129s-58 -128 -126 -128z" />
    <glyph glyph-name="Dcroat" unicode="&#x110;" 
d="M369 157h197c303 0 489 158 544 463c1 6 22 125 23 134c5 40 9 92 9 142c0 261 -125 390 -380 390h-191l-84 -471h278l-26 -152h-279zM427 1443h361c338 0 527 -192 527 -535c0 -56 -4 -112 -10 -155c0 -9 -24 -141 -26 -151c-70 -399 -310 -602 -716 -602h-390l117 663
h-149l27 152h148z" />
    <glyph glyph-name="E" unicode="E" 
d="M1109 162l-27 -162h-852l254 1443h852l-27 -162h-674l-85 -468h638l-26 -155h-638l-90 -496h675z" />
    <glyph glyph-name="Egrave" unicode="&#xc8;" 
d="M792 1916l206 -304h-177l-226 304h197zM1109 162l-27 -162h-852l254 1443h852l-27 -162h-674l-85 -468h638l-26 -155h-638l-90 -496h675z" />
    <glyph glyph-name="Edblgrave" unicode="&#x204;" 
d="M995 1916l200 -304h-164l-218 304h182zM616 1916l200 -304h-164l-218 304h182zM1109 162l-27 -162h-852l254 1443h852l-27 -162h-674l-85 -468h638l-26 -155h-638l-90 -496h675z" />
    <glyph glyph-name="Eacute" unicode="&#xc9;" 
d="M1109 162l-27 -162h-852l254 1443h852l-27 -162h-674l-85 -468h638l-26 -155h-638l-90 -496h675zM791 1612l311 304h215l-332 -304h-194z" />
    <glyph glyph-name="Ecircumflex" unicode="&#xca;" 
d="M1109 162l-27 -162h-852l254 1443h852l-27 -162h-674l-85 -468h638l-26 -155h-638l-90 -496h675zM1074 1921l233 -309h-170l-144 199h-14l-215 -199h-190l340 309h160z" />
    <glyph glyph-name="Ecircumflexhookabove" unicode="&#x1ec2;" 
d="M1109 162l-27 -162h-852l254 1443h852l-27 -162h-674l-85 -468h638l-26 -155h-638l-90 -496h675zM1061 1813l241 -235h-186l-145 146h-14l-197 -146h-202l323 235h180zM1146 1996l17 101c38 11 78 18 115 18c105 0 176 -58 176 -147c0 -91 -62 -165 -167 -199l-64 74
c64 21 103 61 103 103c0 40 -33 64 -86 64c-29 0 -57 -4 -94 -14z" />
    <glyph glyph-name="Ecircumflexgrave" unicode="&#x1ec0;" 
d="M1109 162l-27 -162h-852l254 1443h852l-27 -162h-674l-85 -468h638l-26 -155h-638l-90 -496h675zM1401 1844h-157l-194 239h178zM1061 1813l241 -235h-186l-145 146h-14l-197 -146h-202l323 235h180z" />
    <glyph glyph-name="Ecircumflextilde" unicode="&#x1ec4;" 
d="M1109 162l-27 -162h-852l254 1443h852l-27 -162h-674l-85 -468h638l-26 -155h-638l-90 -496h675zM1061 1813l240 -235h-185l-145 146h-14l-197 -146h-203l324 235h180zM867 2001c-55 0 -88 -41 -93 -117h-123c5 140 92 233 216 233c166 0 171 -130 274 -130
c53 0 87 41 93 114h122c-5 -135 -93 -231 -215 -231c-167 0 -172 131 -274 131z" />
    <glyph glyph-name="Ecircumflexdotbelow" unicode="&#x1ec6;" 
d="M1109 162l-27 -162h-852l254 1443h852l-27 -162h-674l-85 -468h638l-26 -155h-638l-90 -496h675zM1074 1921l233 -309h-170l-144 199h-14l-215 -199h-190l340 309h160zM596 -451c-68 0 -126 58 -126 128s58 129 126 129c67 0 126 -59 126 -129s-59 -128 -126 -128z" />
    <glyph glyph-name="Ecircumflexacute" unicode="&#x1ebe;" 
d="M1109 162l-27 -162h-852l254 1443h852l-27 -162h-674l-85 -468h638l-26 -155h-638l-90 -496h675zM1177 1844l254 239h192l-275 -239h-171zM1060 1813l241 -235h-185l-145 146h-14l-197 -146h-203l323 235h180z" />
    <glyph glyph-name="Edieresis" unicode="&#xcb;" 
d="M1109 162l-27 -162h-852l254 1443h852l-27 -162h-674l-85 -468h638l-26 -155h-638l-90 -496h675zM762 1651c-62 0 -117 56 -117 121c0 66 55 121 117 121c63 0 118 -55 118 -121c0 -65 -55 -121 -118 -121zM1166 1651c-62 0 -117 56 -117 121c0 66 55 121 117 121
s117 -55 117 -121c0 -65 -55 -121 -117 -121z" />
    <glyph glyph-name="Edotbelow" unicode="&#x1eb8;" 
d="M1109 162l-27 -162h-852l254 1443h852l-27 -162h-674l-85 -468h638l-26 -155h-638l-90 -496h675zM596 -451c-68 0 -126 58 -126 128s58 129 126 129c67 0 126 -59 126 -129s-59 -128 -126 -128z" />
    <glyph glyph-name="Einvertedbreve" unicode="&#x206;" 
d="M1109 162l-27 -162h-852l254 1443h852l-27 -162h-674l-85 -468h638l-26 -155h-638l-90 -496h675zM1008 1918c200 0 333 -135 303 -309h-132c15 115 -57 190 -180 190c-119 0 -218 -78 -239 -190h-140c32 186 188 309 388 309z" />
    <glyph glyph-name="Ehookabove" unicode="&#x1eba;" 
d="M1109 162l-27 -162h-852l254 1443h852l-27 -162h-674l-85 -468h638l-26 -155h-638l-90 -496h675zM793 1816l5 113c34 15 87 25 133 25c124 0 205 -67 205 -172c0 -92 -69 -174 -174 -211l-62 86c65 22 106 66 106 108c0 44 -38 73 -100 73c-43 0 -87 -9 -113 -22z" />
    <glyph glyph-name="Ecaron" unicode="&#x11a;" 
d="M1109 162l-27 -162h-852l254 1443h852l-27 -162h-674l-85 -468h638l-26 -155h-638l-90 -496h675zM857 1610l-233 309h170l144 -200h14l215 200h190l-340 -309h-160z" />
    <glyph glyph-name="Emacron" unicode="&#x112;" 
d="M1109 162l-27 -162h-852l254 1443h852l-27 -162h-674l-85 -468h638l-26 -155h-638l-90 -496h675zM1281 1695h-660l24 139h660z" />
    <glyph glyph-name="Emacrongrave" unicode="&#x1e14;" 
d="M1109 162l-27 -162h-852l254 1443h852l-27 -162h-674l-85 -468h638l-26 -155h-638l-90 -496h675zM1079 1852h-165l-188 231h186zM604 1615l20 119h663l-20 -119h-663z" />
    <glyph glyph-name="Emacronacute" unicode="&#x1e16;" 
d="M603 1614l20 120h663l-20 -120h-663zM1022 1851h-181l247 231h203zM1109 162l-27 -162h-852l254 1443h852l-27 -162h-674l-85 -468h638l-26 -155h-638l-90 -496h675z" />
    <glyph glyph-name="Etilde" unicode="&#x1ebc;" 
d="M1109 162l-27 -162h-852l254 1443h852l-27 -162h-674l-85 -468h638l-26 -155h-638l-90 -496h675zM799 1777c-59 0 -93 -50 -99 -147h-124c6 165 91 270 220 270c162 0 194 -160 284 -160c58 0 93 52 100 146h123c-6 -159 -92 -268 -220 -268c-155 0 -182 159 -284 159z
" />
    <glyph glyph-name="Ecircumflexbelow" unicode="&#x1e18;" 
d="M1109 162l-27 -162h-852l254 1443h852l-27 -162h-674l-85 -468h638l-26 -155h-638l-90 -496h675zM524 -166h200l214 -342h-186l-133 227h-15l-211 -227h-203z" />
    <glyph glyph-name="Ebreve" unicode="&#x114;" 
d="M1109 162l-27 -162h-852l254 1443h852l-27 -162h-674l-85 -468h638l-26 -155h-638l-90 -496h675zM944 1609c-200 0 -333 135 -303 309h132c-15 -115 57 -190 179 -190c119 0 219 78 240 190h140c-32 -186 -188 -309 -388 -309z" />
    <glyph glyph-name="Etildebelow" unicode="&#x1e1a;" 
d="M1109 162l-27 -162h-852l254 1443h852l-27 -162h-674l-85 -468h638l-26 -155h-638l-90 -496h675zM452 -308c-61 0 -87 -46 -90 -157h-140c7 184 93 291 232 291c160 0 201 -158 288 -158c60 0 86 45 89 155h140c-7 -181 -94 -290 -232 -290c-160 0 -201 159 -287 159z
" />
    <glyph glyph-name="Edotaccent" unicode="&#x116;" 
d="M1109 162l-27 -162h-852l254 1443h852l-27 -162h-674l-85 -468h638l-26 -155h-638l-90 -496h675zM967 1640c-68 0 -126 59 -126 129s58 128 126 128s126 -58 126 -128s-58 -129 -126 -129z" />
    <glyph glyph-name="Ecedilla" unicode="&#x228;" 
d="M1309 1281h-674l-85 -468h638l-26 -155h-638l-90 -496h675l-27 -162h-353l-67 -133c118 -4 184 -59 184 -152c0 -118 -102 -200 -250 -200c-50 0 -111 10 -158 27l18 108c31 -12 100 -22 139 -22c73 0 114 25 114 72c0 50 -46 74 -138 74h-54l5 84l74 142h-366l254 1443
h852z" />
    <glyph glyph-name="Ecedillabreve" unicode="&#x1e1c;" 
d="M1192 1918h140c-32 -186 -188 -309 -388 -309s-333 135 -303 309h132c-15 -115 57 -190 179 -190c119 0 219 78 240 190zM1309 1281h-674l-85 -468h638l-26 -155h-638l-90 -496h675l-27 -162h-353l-67 -133c118 -4 184 -59 184 -152c0 -118 -102 -200 -250 -200
c-50 0 -111 10 -158 27l18 108c31 -12 100 -22 139 -22c73 0 114 25 114 72c0 50 -46 74 -138 74h-54l5 84l74 142h-366l254 1443h852z" />
    <glyph glyph-name="Eogonek" unicode="&#x118;" 
d="M856 -12l1 12h-627l254 1443h852l-27 -162h-674l-85 -468h638l-26 -155h-638l-90 -496h683l-26 -157c-154 -40 -238 -112 -238 -197c0 -66 48 -105 129 -105c19 0 39 1 53 4l-21 -121c-23 -7 -58 -11 -96 -11c-129 0 -224 81 -224 189c0 95 49 170 162 224z" />
    <glyph glyph-name="F" unicode="F" 
d="M431 0h-177l254 1443h851l-26 -162h-675l-89 -495h617l-27 -157h-617z" />
    <glyph glyph-name="Fdotaccent" unicode="&#x1e1e;" 
d="M431 0h-177l254 1443h851l-26 -162h-675l-89 -495h617l-27 -157h-617zM994 1640c-68 0 -126 59 -126 129s58 128 126 128s126 -58 126 -128s-58 -129 -126 -129z" />
    <glyph glyph-name="G" unicode="G" 
d="M1221 395c-46 -263 -247 -426 -522 -426c-298 0 -489 199 -489 511c0 54 6 118 15 169l47 263c64 358 275 561 583 561c276 0 465 -173 465 -427c0 -17 -2 -40 -4 -63h-173c1 17 2 33 2 46c0 164 -123 276 -304 276c-204 0 -345 -148 -394 -414l-44 -252
c-10 -57 -15 -113 -15 -155c0 -216 123 -349 324 -349c180 0 308 107 339 284l30 164h-336l26 151h510z" />
    <glyph glyph-name="Gacute" unicode="&#x1f4;" 
d="M1221 395c-46 -263 -247 -426 -522 -426c-298 0 -489 199 -489 511c0 54 6 118 15 169l47 263c64 358 275 561 583 561c276 0 465 -173 465 -427c0 -17 -2 -40 -4 -63h-173c1 17 2 33 2 46c0 164 -123 276 -304 276c-204 0 -345 -148 -394 -414l-44 -252
c-10 -57 -15 -113 -15 -155c0 -216 123 -349 324 -349c180 0 308 107 339 284l30 164h-336l26 151h510zM733 1612l311 304h215l-332 -304h-194z" />
    <glyph glyph-name="Gcaron" unicode="&#x1e6;" 
d="M1221 395c-46 -263 -247 -426 -522 -426c-298 0 -489 199 -489 511c0 54 6 118 15 169l47 263c64 358 275 561 583 561c276 0 465 -173 465 -427c0 -17 -2 -40 -4 -63h-173c1 17 2 33 2 46c0 164 -123 276 -304 276c-204 0 -345 -148 -394 -414l-44 -252
c-10 -57 -15 -113 -15 -155c0 -216 123 -349 324 -349c180 0 308 107 339 284l30 164h-336l26 151h510zM799 1610l-233 309h170l144 -200h13l216 200h190l-341 -309h-159z" />
    <glyph glyph-name="Gcircumflex" unicode="&#x11c;" 
d="M1221 395c-46 -263 -247 -426 -522 -426c-298 0 -489 199 -489 511c0 54 6 118 15 169l47 263c64 358 275 561 583 561c276 0 465 -173 465 -427c0 -17 -2 -40 -4 -63h-173c1 17 2 33 2 46c0 164 -123 276 -304 276c-204 0 -345 -148 -394 -414l-44 -252
c-10 -57 -15 -113 -15 -155c0 -216 123 -349 324 -349c180 0 308 107 339 284l30 164h-336l26 151h510zM1016 1921l233 -309h-170l-145 199h-13l-216 -199h-189l340 309h160z" />
    <glyph glyph-name="Gbreve" unicode="&#x11e;" 
d="M1221 395c-46 -263 -247 -426 -522 -426c-298 0 -489 199 -489 511c0 54 6 118 15 169l47 263c64 358 275 561 583 561c276 0 465 -173 465 -427c0 -17 -2 -40 -4 -63h-173c1 17 2 33 2 46c0 164 -123 276 -304 276c-204 0 -345 -148 -394 -414l-44 -252
c-10 -57 -15 -113 -15 -155c0 -216 123 -349 324 -349c180 0 308 107 339 284l30 164h-336l26 151h510zM886 1609c-201 0 -333 135 -303 309h132c-15 -115 57 -190 179 -190c119 0 219 78 239 190h141c-33 -186 -189 -309 -388 -309z" />
    <glyph glyph-name="Gmacron" unicode="&#x1e20;" 
d="M1221 395c-46 -263 -247 -426 -522 -426c-298 0 -489 199 -489 511c0 54 6 118 15 169l47 263c64 358 275 561 583 561c276 0 465 -173 465 -427c0 -17 -2 -40 -4 -63h-173c1 17 2 33 2 46c0 164 -123 276 -304 276c-204 0 -345 -148 -394 -414l-44 -252
c-10 -57 -15 -113 -15 -155c0 -216 123 -349 324 -349c180 0 308 107 339 284l30 164h-336l26 151h510zM1223 1695h-660l24 139h660z" />
    <glyph glyph-name="Gdotaccent" unicode="&#x120;" 
d="M1221 395c-46 -263 -247 -426 -522 -426c-298 0 -489 199 -489 511c0 54 6 118 15 169l47 263c64 358 275 561 583 561c276 0 465 -173 465 -427c0 -17 -2 -40 -4 -63h-173c1 17 2 33 2 46c0 164 -123 276 -304 276c-204 0 -345 -148 -394 -414l-44 -252
c-10 -57 -15 -113 -15 -155c0 -216 123 -349 324 -349c180 0 308 107 339 284l30 164h-336l26 151h510zM909 1640c-68 0 -126 59 -126 129s58 128 126 128s126 -58 126 -128s-58 -129 -126 -129z" />
    <glyph glyph-name="Gcommaaccent" unicode="&#x122;" 
d="M1221 395c-46 -263 -247 -426 -522 -426c-298 0 -489 199 -489 511c0 54 6 118 15 169l47 263c64 358 275 561 583 561c276 0 465 -173 465 -427c0 -17 -2 -40 -4 -63h-173c1 17 2 33 2 46c0 164 -123 276 -304 276c-204 0 -345 -148 -394 -414l-44 -252
c-10 -57 -15 -113 -15 -155c0 -216 123 -349 324 -349c180 0 308 107 339 284l30 164h-336l26 151h510zM608 -503h-157l121 361h176z" />
    <glyph glyph-name="H" unicode="H" 
d="M1113 0h-175l116 656h-609l-117 -656h-175l254 1443h175l-110 -625h609l111 625h175z" />
    <glyph glyph-name="Hdieresis" unicode="&#x1e26;" 
d="M1113 0h-175l116 656h-609l-117 -656h-175l254 1443h175l-110 -625h609l111 625h175zM740 1651c-63 0 -118 56 -118 121c0 66 55 121 118 121c62 0 117 -55 117 -121c0 -65 -55 -121 -117 -121zM1143 1651c-62 0 -117 56 -117 121c0 66 55 121 117 121
c63 0 117 -55 117 -121c0 -65 -54 -121 -117 -121z" />
    <glyph glyph-name="Hcaron" unicode="&#x21e;" 
d="M1113 0h-175l116 656h-609l-117 -656h-175l254 1443h175l-110 -625h609l111 625h175zM834 1610l-233 309h170l144 -200h14l215 200h190l-340 -309h-160z" />
    <glyph glyph-name="Hcircumflex" unicode="&#x124;" 
d="M1113 0h-175l116 656h-609l-117 -656h-175l254 1443h175l-110 -625h609l111 625h175zM1051 1921l233 -309h-170l-144 199h-14l-215 -199h-190l340 309h160z" />
    <glyph glyph-name="Hdotbelow" unicode="&#x1e24;" 
d="M1113 0h-175l116 656h-609l-117 -656h-175l254 1443h175l-110 -625h609l111 625h175zM576 -451c-68 0 -126 58 -126 128s58 129 126 129s126 -59 126 -129s-58 -128 -126 -128z" />
    <glyph glyph-name="Hdotaccent" unicode="&#x1e22;" 
d="M1113 0h-175l116 656h-609l-117 -656h-175l254 1443h175l-110 -625h609l111 625h175zM944 1640c-68 0 -126 59 -126 129s58 128 126 128s126 -58 126 -128s-58 -129 -126 -129z" />
    <glyph glyph-name="Hbrevebelow" unicode="&#x1e2a;" 
d="M1113 0h-175l116 656h-609l-117 -656h-175l254 1443h175l-110 -625h609l111 625h175zM585 -475c-204 0 -347 150 -314 330h138c-16 -119 63 -199 192 -199c121 0 217 80 235 199h142c-29 -199 -185 -330 -393 -330z" />
    <glyph glyph-name="Hcedilla" unicode="&#x1e28;" 
d="M328 0l-32 -133c94 -13 149 -68 149 -152c0 -119 -103 -200 -250 -200c-50 0 -111 10 -158 27l18 108c33 -12 102 -22 139 -22c73 0 115 25 115 72c0 50 -45 75 -138 75h-37l16 93l32 132h-29l254 1443h175l-110 -625h609l111 625h175l-254 -1443h-175l116 656h-609z" />
    <glyph glyph-name="Hbar" unicode="&#x126;" 
d="M478 816h595l49 270h-596zM453 656l-116 -656h-177l192 1084h-119l23 138h119l39 221h177l-39 -221h591l39 221h177l-39 -221h120l-24 -138h-119l-192 -1084h-177l116 656h-591z" />
    <glyph glyph-name="I" unicode="I" 
d="M1013 0h-760l26 157h292l202 1129h-292l26 157h760l-25 -157h-293l-202 -1129h293z" />
    <glyph glyph-name="Idotaccent" unicode="&#x130;" 
d="M1013 0h-760l26 157h292l202 1129h-292l26 157h760l-25 -157h-293l-202 -1129h293zM948 1640c-68 0 -126 59 -126 129s58 128 126 128s126 -58 126 -128s-58 -129 -126 -129z" />
    <glyph glyph-name="Igrave" unicode="&#xcc;" 
d="M773 1916l205 -304h-176l-227 304h198zM1013 0h-760l26 157h292l202 1129h-292l26 157h760l-25 -157h-293l-202 -1129h293z" />
    <glyph glyph-name="Idblgrave" unicode="&#x208;" 
d="M976 1916l199 -304h-164l-217 304h182zM597 1916l199 -304h-164l-217 304h182zM1013 0h-760l26 157h292l202 1129h-292l26 157h760l-25 -157h-293l-202 -1129h293z" />
    <glyph glyph-name="Iacute" unicode="&#xcd;" 
d="M1013 0h-760l26 157h292l202 1129h-292l26 157h760l-25 -157h-293l-202 -1129h293zM772 1612l311 304h215l-333 -304h-193z" />
    <glyph glyph-name="Icircumflex" unicode="&#xce;" 
d="M1013 0h-760l26 157h292l202 1129h-292l26 157h760l-25 -157h-293l-202 -1129h293zM1055 1921l232 -309h-170l-144 199h-13l-216 -199h-190l341 309h160z" />
    <glyph glyph-name="Icaron" unicode="&#x1cf;" 
d="M1013 0h-760l26 157h292l202 1129h-292l26 157h760l-25 -157h-293l-202 -1129h293zM837 1610l-232 309h170l144 -200h13l216 200h189l-340 -309h-160z" />
    <glyph glyph-name="Idieresis" unicode="&#xcf;" 
d="M1013 0h-760l26 157h292l202 1129h-292l26 157h760l-25 -157h-293l-202 -1129h293zM743 1651c-62 0 -117 56 -117 121c0 66 55 121 117 121s117 -55 117 -121c0 -65 -55 -121 -117 -121zM1147 1651c-63 0 -118 56 -118 121c0 66 55 121 118 121c62 0 117 -55 117 -121
c0 -65 -55 -121 -117 -121z" />
    <glyph glyph-name="Idieresisacute" unicode="&#x1e2e;" 
d="M1013 0h-760l26 157h292l202 1129h-292l26 157h760l-25 -157h-293l-202 -1129h293zM818 1859l247 224h204l-272 -224h-179zM731 1566c-59 0 -107 49 -107 110c0 62 48 111 107 111s106 -49 106 -111c0 -61 -47 -110 -106 -110zM1119 1566c-59 0 -106 49 -106 110
c0 62 47 111 106 111c60 0 107 -49 107 -111c0 -61 -47 -110 -107 -110z" />
    <glyph glyph-name="Ibreve" unicode="&#x12c;" 
d="M1013 0h-760l26 157h292l202 1129h-292l26 157h760l-25 -157h-293l-202 -1129h293zM925 1609c-201 0 -333 135 -304 309h133c-15 -115 57 -190 179 -190c119 0 219 78 239 190h141c-33 -186 -189 -309 -388 -309z" />
    <glyph glyph-name="Idotbelow" unicode="&#x1eca;" 
d="M1013 0h-760l26 157h292l202 1129h-292l26 157h760l-25 -157h-293l-202 -1129h293zM575 -451c-68 0 -126 58 -126 128s58 129 126 129s126 -59 126 -129s-58 -128 -126 -128z" />
    <glyph glyph-name="Iinvertedbreve" unicode="&#x20a;" 
d="M1013 0h-760l26 157h292l202 1129h-292l26 157h760l-25 -157h-293l-202 -1129h293zM988 1918c201 0 333 -135 304 -309h-133c15 115 -57 190 -179 190c-119 0 -219 -78 -239 -190h-141c33 186 189 309 388 309z" />
    <glyph glyph-name="Imacron" unicode="&#x12a;" 
d="M1013 0h-760l26 157h292l202 1129h-292l26 157h760l-25 -157h-293l-202 -1129h293zM1261 1695h-659l24 139h659z" />
    <glyph glyph-name="Itildebelow" unicode="&#x1e2c;" 
d="M1013 0h-760l26 157h292l202 1129h-292l26 157h760l-25 -157h-293l-202 -1129h293zM431 -308c-60 0 -87 -46 -90 -157h-139c6 184 92 291 232 291c160 0 200 -158 287 -158c60 0 86 45 89 155h140c-6 -181 -94 -290 -232 -290c-160 0 -200 159 -287 159z" />
    <glyph glyph-name="Ihookabove" unicode="&#x1ec8;" 
d="M1013 0h-760l26 157h292l202 1129h-292l26 157h760l-25 -157h-293l-202 -1129h293zM774 1816l5 113c34 15 86 25 133 25c123 0 204 -67 204 -172c0 -92 -68 -174 -174 -211l-61 86c64 22 106 66 106 108c0 44 -39 73 -101 73c-42 0 -87 -9 -112 -22z" />
    <glyph glyph-name="Itilde" unicode="&#x128;" 
d="M1013 0h-760l26 157h292l202 1129h-292l26 157h760l-25 -157h-293l-202 -1129h293zM780 1777c-59 0 -94 -50 -99 -147h-124c6 165 91 270 220 270c161 0 194 -160 284 -160c57 0 93 52 99 146h124c-6 -159 -93 -268 -220 -268c-156 0 -183 159 -284 159z" />
    <glyph glyph-name="Iogonek" unicode="&#x12e;" 
d="M783 0h-530l26 157h292l202 1129h-292l26 157h760l-25 -157h-293l-202 -1129h293l-26 -152c-151 -39 -235 -112 -235 -197c0 -65 49 -105 129 -105c20 0 37 1 53 4l-21 -121c-23 -7 -58 -11 -96 -11c-129 0 -224 81 -224 191c0 96 55 171 162 222z" />
    <glyph glyph-name="J" unicode="J" 
d="M631 -30c-237 0 -406 149 -406 359c0 19 2 35 4 52h166c-1 -8 -2 -20 -2 -29c0 -127 100 -214 247 -214c146 0 242 89 271 253l160 895h-495l26 157h673l-191 -1075c-45 -262 -200 -398 -453 -398z" />
    <glyph glyph-name="Jcircumflex" unicode="&#x134;" 
d="M631 -30c-237 0 -406 149 -406 359c0 19 2 35 4 52h166c-1 -8 -2 -20 -2 -29c0 -127 100 -214 247 -214c146 0 242 89 271 253l160 895h-495l26 157h673l-191 -1075c-45 -262 -200 -398 -453 -398zM1102 1921l233 -309h-170l-144 199h-14l-215 -199h-190l340 309h160z
" />
    <glyph glyph-name="K" unicode="K" 
d="M821 801l415 -801h-201l-354 685l-204 -187l-89 -498h-172l254 1443h172l-128 -709h11l737 709h214z" />
    <glyph glyph-name="Kacute" unicode="&#x1e30;" 
d="M821 801l415 -801h-201l-354 685l-204 -187l-89 -498h-172l254 1443h172l-128 -709h11l737 709h214zM802 1612l311 304h215l-333 -304h-193z" />
    <glyph glyph-name="Kcaron" unicode="&#x1e8;" 
d="M821 801l415 -801h-201l-354 685l-204 -187l-89 -498h-172l254 1443h172l-128 -709h11l737 709h214zM867 1610l-232 309h170l144 -200h13l216 200h190l-341 -309h-160z" />
    <glyph glyph-name="Kdotbelow" unicode="&#x1e32;" 
d="M821 801l415 -801h-201l-354 685l-204 -187l-89 -498h-172l254 1443h172l-128 -709h11l737 709h214zM627 -451c-68 0 -126 58 -126 128s58 129 126 129c67 0 126 -59 126 -129s-59 -128 -126 -128z" />
    <glyph glyph-name="Klinebelow" unicode="&#x1e34;" 
d="M821 801l415 -801h-201l-354 685l-204 -187l-89 -498h-172l254 1443h172l-128 -709h11l737 709h214zM944 -395h-660l24 139h660z" />
    <glyph glyph-name="Kcommaaccent" unicode="&#x136;" 
d="M821 801l415 -801h-201l-354 685l-204 -187l-89 -498h-172l254 1443h172l-128 -709h11l737 709h214zM631 -503h-158l121 361h177z" />
    <glyph glyph-name="L" unicode="L" 
d="M1150 164l-28 -164h-859l254 1443h175l-226 -1279h684z" />
    <glyph glyph-name="Lacute" unicode="&#x139;" 
d="M1150 164l-28 -164h-859l254 1443h175l-226 -1279h684zM490 1612l311 304h215l-332 -304h-194z" />
    <glyph glyph-name="Lcircumflexbelow" unicode="&#x1e3c;" 
d="M1150 164l-28 -164h-859l254 1443h175l-226 -1279h684zM563 -166h201l213 -342h-186l-132 227h-15l-212 -227h-202z" />
    <glyph glyph-name="Ldotbelow" unicode="&#x1e36;" 
d="M1150 164l-28 -164h-859l254 1443h175l-226 -1279h684zM635 -451c-68 0 -126 58 -126 128s58 129 126 129s126 -59 126 -129s-58 -128 -126 -128z" />
    <glyph glyph-name="Ldotbelowmacron" unicode="&#x1e38;" 
d="M1150 164l-28 -164h-859l254 1443h175l-226 -1279h684zM635 -451c-68 0 -126 58 -126 128s58 129 126 129s126 -59 126 -129s-58 -128 -126 -128zM980 1695h-660l24 139h660z" />
    <glyph glyph-name="Llinebelow" unicode="&#x1e3a;" 
d="M1150 164l-28 -164h-859l254 1443h175l-226 -1279h684zM953 -395h-660l24 139h660z" />
    <glyph glyph-name="Lcommaaccent" unicode="&#x13b;" 
d="M1150 164l-28 -164h-859l254 1443h175l-226 -1279h684zM639 -503h-157l120 361h177z" />
    <glyph glyph-name="Lcaron" unicode="&#x13d;" 
d="M1017 1443h157l-122 -481h-119zM1150 164l-28 -164h-859l254 1443h175l-226 -1279h684z" />
    <glyph glyph-name="Ldot" unicode="&#x13f;" 
d="M1150 164l-28 -164h-859l254 1443h175l-226 -1279h684zM1146 902c-68 0 -126 59 -126 128c0 70 58 129 126 129s126 -59 126 -129c0 -69 -58 -128 -126 -128z" />
    <glyph glyph-name="Lslash" unicode="&#x141;" 
d="M466 164h684l-28 -164h-859l101 573l-201 -103l27 161l203 106l124 706h175l-107 -605l540 282l-28 -169l-541 -279z" />
    <glyph glyph-name="M" unicode="M" 
d="M356 554l-99 -554h-158l254 1443h192l173 -893h12l485 893h206l-254 -1443h-158l99 554l113 584h-13l-445 -799h-138l-162 799h-13z" />
    <glyph glyph-name="Macute" unicode="&#x1e3e;" 
d="M356 554l-99 -554h-158l254 1443h192l173 -893h12l485 893h206l-254 -1443h-158l99 554l113 584h-13l-445 -799h-138l-162 799h-13zM772 1612l311 304h215l-332 -304h-194z" />
    <glyph glyph-name="Mdotaccent" unicode="&#x1e40;" 
d="M356 554l-99 -554h-158l254 1443h192l173 -893h12l485 893h206l-254 -1443h-158l99 554l113 584h-13l-445 -799h-138l-162 799h-13zM948 1640c-68 0 -126 59 -126 129s58 128 126 128s126 -58 126 -128s-58 -129 -126 -129z" />
    <glyph glyph-name="Mdotbelow" unicode="&#x1e42;" 
d="M356 554l-99 -554h-158l254 1443h192l173 -893h12l485 893h206l-254 -1443h-158l99 554l113 584h-13l-445 -799h-138l-162 799h-13zM576 -451c-68 0 -126 58 -126 128s58 129 126 129s126 -59 126 -129s-58 -128 -126 -128z" />
    <glyph glyph-name="N" unicode="N" 
d="M312 0h-159l254 1443h169l417 -1123h14l201 1123h159l-254 -1443h-167l-419 1126h-14z" />
    <glyph glyph-name="Ngrave" unicode="&#x1f8;" 
d="M770 1916l205 -304h-176l-227 304h198zM312 0h-159l254 1443h169l417 -1123h14l201 1123h159l-254 -1443h-167l-419 1126h-14z" />
    <glyph glyph-name="Nacute" unicode="&#x143;" 
d="M312 0h-159l254 1443h169l417 -1123h14l201 1123h159l-254 -1443h-167l-419 1126h-14zM769 1612l311 304h215l-332 -304h-194z" />
    <glyph glyph-name="Ntilde" unicode="&#xd1;" 
d="M312 0h-159l254 1443h169l417 -1123h14l201 1123h159l-254 -1443h-167l-419 1126h-14zM777 1777c-59 0 -94 -50 -99 -147h-124c6 165 91 270 220 270c162 0 194 -160 284 -160c57 0 93 52 99 146h124c-6 -159 -93 -268 -220 -268c-155 0 -183 159 -284 159z" />
    <glyph glyph-name="Ndotbelow" unicode="&#x1e46;" 
d="M312 0h-159l254 1443h169l417 -1123h14l201 1123h159l-254 -1443h-167l-419 1126h-14zM573 -451c-68 0 -126 58 -126 128s58 129 126 129s126 -59 126 -129s-58 -128 -126 -128z" />
    <glyph glyph-name="Ndotaccent" unicode="&#x1e44;" 
d="M312 0h-159l254 1443h169l417 -1123h14l201 1123h159l-254 -1443h-167l-419 1126h-14zM945 1640c-68 0 -126 59 -126 129s58 128 126 128s126 -58 126 -128s-58 -129 -126 -129z" />
    <glyph glyph-name="Ncaron" unicode="&#x147;" 
d="M312 0h-159l254 1443h169l417 -1123h14l201 1123h159l-254 -1443h-167l-419 1126h-14zM834 1610l-232 309h170l144 -200h13l216 200h190l-341 -309h-160z" />
    <glyph glyph-name="Ncircumflexbelow" unicode="&#x1e4a;" 
d="M312 0h-159l254 1443h169l417 -1123h14l201 1123h159l-254 -1443h-167l-419 1126h-14zM501 -166h201l213 -342h-186l-132 227h-15l-212 -227h-203z" />
    <glyph glyph-name="Nlinebelow" unicode="&#x1e48;" 
d="M312 0h-159l254 1443h169l417 -1123h14l201 1123h159l-254 -1443h-167l-419 1126h-14zM891 -395h-660l24 139h660z" />
    <glyph glyph-name="Ncommaaccent" unicode="&#x145;" 
d="M312 0h-159l254 1443h169l417 -1123h14l201 1123h159l-254 -1443h-167l-419 1126h-14zM577 -503h-158l121 361h177z" />
    <glyph glyph-name="O" unicode="O" 
d="M1258 524c-65 -361 -262 -554 -567 -554c-289 0 -486 210 -486 518c0 88 4 151 15 205l42 232c60 345 268 548 558 548c300 0 495 -209 495 -529c0 -61 -5 -124 -14 -188zM705 137c196 0 330 148 379 422l42 234c7 42 12 107 12 150c0 219 -129 363 -326 363
c-194 0 -327 -140 -374 -409l-41 -225c-10 -60 -14 -108 -14 -164c0 -229 124 -371 322 -371z" />
    <glyph glyph-name="Odieresis" unicode="&#xd6;" 
d="M1258 524c-65 -361 -262 -554 -567 -554c-289 0 -486 210 -486 518c0 88 4 151 15 205l42 232c60 345 268 548 558 548c300 0 495 -209 495 -529c0 -61 -5 -124 -14 -188zM705 137c196 0 330 148 379 422l42 234c7 42 12 107 12 150c0 219 -129 363 -326 363
c-194 0 -327 -140 -374 -409l-41 -225c-10 -60 -14 -108 -14 -164c0 -229 124 -371 322 -371zM743 1651c-63 0 -117 56 -117 121c0 66 54 121 117 121c62 0 117 -55 117 -121c0 -65 -55 -121 -117 -121zM1146 1651c-62 0 -117 56 -117 121c0 66 55 121 117 121
c63 0 118 -55 118 -121c0 -65 -55 -121 -118 -121z" />
    <glyph glyph-name="Oslash" unicode="&#xd8;" 
d="M1084 559l42 234c7 42 12 107 12 150c0 46 -6 89 -17 128l-664 -819c56 -74 141 -115 248 -115c196 0 330 148 379 422zM438 897l-41 -225c-10 -60 -14 -108 -14 -164c0 -50 6 -95 17 -136l665 815c-57 75 -145 119 -253 119c-194 0 -327 -140 -374 -409zM1423 1443
l-173 -213c42 -80 65 -176 65 -286c0 -61 -5 -124 -14 -188l-43 -232c-65 -361 -262 -554 -567 -554c-143 0 -263 51 -348 140l-90 -110h-156l173 212c-42 77 -65 171 -65 276c0 88 4 151 15 205l42 232c60 345 268 548 558 548c150 0 274 -52 360 -145l94 115h149z" />
    <glyph glyph-name="Otilde" unicode="&#xd5;" 
d="M1258 524c-65 -361 -262 -554 -567 -554c-289 0 -486 210 -486 518c0 88 4 151 15 205l42 232c60 345 268 548 558 548c300 0 495 -209 495 -529c0 -61 -5 -124 -14 -188zM705 137c196 0 330 148 379 422l42 234c7 42 12 107 12 150c0 219 -129 363 -326 363
c-194 0 -327 -140 -374 -409l-41 -225c-10 -60 -14 -108 -14 -164c0 -229 124 -371 322 -371zM779 1777c-59 0 -93 -50 -99 -147h-124c7 165 91 270 220 270c162 0 195 -160 285 -160c57 0 93 52 99 146h123c-5 -159 -92 -268 -219 -268c-156 0 -183 159 -285 159z" />
    <glyph glyph-name="Oacute" unicode="&#xd3;" 
d="M1258 524c-65 -361 -262 -554 -567 -554c-289 0 -486 210 -486 518c0 88 4 151 15 205l42 232c60 345 268 548 558 548c300 0 495 -209 495 -529c0 -61 -5 -124 -14 -188zM705 137c196 0 330 148 379 422l42 234c7 42 12 107 12 150c0 219 -129 363 -326 363
c-194 0 -327 -140 -374 -409l-41 -225c-10 -60 -14 -108 -14 -164c0 -229 124 -371 322 -371zM772 1612l310 304h215l-332 -304h-193z" />
    <glyph glyph-name="Ocircumflex" unicode="&#xd4;" 
d="M1258 524c-65 -361 -262 -554 -567 -554c-289 0 -486 210 -486 518c0 88 4 151 15 205l42 232c60 345 268 548 558 548c300 0 495 -209 495 -529c0 -61 -5 -124 -14 -188zM705 137c196 0 330 148 379 422l42 234c7 42 12 107 12 150c0 219 -129 363 -326 363
c-194 0 -327 -140 -374 -409l-41 -225c-10 -60 -14 -108 -14 -164c0 -229 124 -371 322 -371zM1054 1921l233 -309h-170l-144 199h-13l-216 -199h-190l341 309h159z" />
    <glyph glyph-name="Ograve" unicode="&#xd2;" 
d="M773 1916l205 -304h-177l-226 304h198zM438 897l-41 -225c-10 -60 -14 -108 -14 -164c0 -229 124 -371 322 -371c196 0 330 148 379 422l42 234c7 42 12 107 12 150c0 219 -129 363 -326 363c-194 0 -327 -140 -374 -409zM1301 756l-43 -232
c-65 -361 -262 -554 -567 -554c-289 0 -486 210 -486 518c0 88 4 151 15 205l42 232c60 345 268 548 558 548c300 0 495 -209 495 -529c0 -61 -5 -124 -14 -188z" />
    <glyph glyph-name="Ocircumflexhookabove" unicode="&#x1ed4;" 
d="M1258 524c-65 -361 -262 -554 -567 -554c-289 0 -486 210 -486 518c0 88 4 151 15 205l42 232c60 345 268 548 558 548c300 0 495 -209 495 -529c0 -61 -5 -124 -14 -188zM705 137c196 0 330 148 379 422l42 234c7 42 12 107 12 150c0 219 -129 363 -326 363
c-194 0 -327 -140 -374 -409l-41 -225c-10 -60 -14 -108 -14 -164c0 -229 124 -371 322 -371zM1041 1813l241 -235h-185l-146 146h-13l-198 -146h-202l324 235h179zM1126 1996l18 101c37 11 78 18 115 18c104 0 175 -58 175 -147c0 -91 -62 -165 -166 -199l-65 74
c64 21 103 61 103 103c0 40 -32 64 -86 64c-29 0 -56 -4 -94 -14z" />
    <glyph glyph-name="Ocircumflexgrave" unicode="&#x1ed2;" 
d="M1258 524c-65 -361 -262 -554 -567 -554c-289 0 -486 210 -486 518c0 88 4 151 15 205l42 232c60 345 268 548 558 548c300 0 495 -209 495 -529c0 -61 -5 -124 -14 -188zM705 137c196 0 330 148 379 422l42 234c7 42 12 107 12 150c0 219 -129 363 -326 363
c-194 0 -327 -140 -374 -409l-41 -225c-10 -60 -14 -108 -14 -164c0 -229 124 -371 322 -371zM1381 1844h-157l-193 239h178zM1041 1813l241 -235h-185l-146 146h-13l-198 -146h-202l324 235h179z" />
    <glyph glyph-name="Odotbelow" unicode="&#x1ecc;" 
d="M1258 524c-65 -361 -262 -554 -567 -554c-289 0 -486 210 -486 518c0 88 4 151 15 205l42 232c60 345 268 548 558 548c300 0 495 -209 495 -529c0 -61 -5 -124 -14 -188zM705 137c196 0 330 148 379 422l42 234c7 42 12 107 12 150c0 219 -129 363 -326 363
c-194 0 -327 -140 -374 -409l-41 -225c-10 -60 -14 -108 -14 -164c0 -229 124 -371 322 -371zM576 -451c-68 0 -126 58 -126 128s58 129 126 129s126 -59 126 -129s-58 -128 -126 -128z" />
    <glyph glyph-name="Odblgrave" unicode="&#x20c;" 
d="M976 1916l199 -304h-164l-217 304h182zM597 1916l199 -304h-164l-217 304h182zM438 897l-41 -225c-10 -60 -14 -108 -14 -164c0 -229 124 -371 322 -371c196 0 330 148 379 422l42 234c7 42 12 107 12 150c0 219 -129 363 -326 363c-194 0 -327 -140 -374 -409zM1301 756
l-43 -232c-65 -361 -262 -554 -567 -554c-289 0 -486 210 -486 518c0 88 4 151 15 205l42 232c60 345 268 548 558 548c300 0 495 -209 495 -529c0 -61 -5 -124 -14 -188z" />
    <glyph glyph-name="Otildeacute" unicode="&#x1e4c;" 
d="M1258 524c-65 -361 -262 -554 -567 -554c-289 0 -486 210 -486 518c0 88 4 151 15 205l42 232c60 345 268 548 558 548c300 0 495 -209 495 -529c0 -61 -5 -124 -14 -188zM705 137c196 0 330 148 379 422l42 234c7 42 12 107 12 150c0 219 -129 363 -326 363
c-194 0 -327 -140 -374 -409l-41 -225c-10 -60 -14 -108 -14 -164c0 -229 124 -371 322 -371zM826 1894l141 218h177l-164 -218h-154zM758 1692c-56 0 -88 -41 -94 -121h-124c6 144 92 239 218 239c167 0 173 -135 275 -135c54 0 88 42 94 120h123
c-5 -139 -94 -238 -218 -238c-167 0 -172 135 -274 135z" />
    <glyph glyph-name="Omacronacute" unicode="&#x1e52;" 
d="M583 1614l21 120h663l-21 -120h-663zM1003 1851h-182l247 231h203zM438 897l-41 -225c-10 -60 -14 -108 -14 -164c0 -229 124 -371 322 -371c196 0 330 148 379 422l42 234c7 42 12 107 12 150c0 219 -129 363 -326 363c-194 0 -327 -140 -374 -409zM1301 756l-43 -232
c-65 -361 -262 -554 -567 -554c-289 0 -486 210 -486 518c0 88 4 151 15 205l42 232c60 345 268 548 558 548c300 0 495 -209 495 -529c0 -61 -5 -124 -14 -188z" />
    <glyph glyph-name="Ocircumflextilde" unicode="&#x1ed6;" 
d="M1258 524c-65 -361 -262 -554 -567 -554c-289 0 -486 210 -486 518c0 88 4 151 15 205l42 232c60 345 268 548 558 548c300 0 495 -209 495 -529c0 -61 -5 -124 -14 -188zM705 137c196 0 330 148 379 422l42 234c7 42 12 107 12 150c0 219 -129 363 -326 363
c-194 0 -327 -140 -374 -409l-41 -225c-10 -60 -14 -108 -14 -164c0 -229 124 -371 322 -371zM1041 1813l241 -235h-185l-146 146h-13l-198 -146h-202l323 235h180zM847 2001c-55 0 -87 -41 -92 -117h-124c6 140 92 233 216 233c167 0 172 -130 274 -130c53 0 87 41 93 114
h123c-5 -135 -94 -231 -216 -231c-166 0 -171 131 -274 131z" />
    <glyph glyph-name="Odotaccentmacron" unicode="&#x230;" 
d="M919 1811c64 0 116 -52 116 -118s-52 -119 -116 -119s-115 53 -115 119s51 118 115 118zM628 1931l21 120h663l-21 -120h-663zM438 897l-41 -225c-10 -60 -14 -108 -14 -164c0 -229 124 -371 322 -371c196 0 330 148 379 422l42 234c7 42 12 107 12 150
c0 219 -129 363 -326 363c-194 0 -327 -140 -374 -409zM1301 756l-43 -232c-65 -361 -262 -554 -567 -554c-289 0 -486 210 -486 518c0 88 4 151 15 205l42 232c60 345 268 548 558 548c300 0 495 -209 495 -529c0 -61 -5 -124 -14 -188z" />
    <glyph glyph-name="Omacrongrave" unicode="&#x1e50;" 
d="M1258 524c-65 -361 -262 -554 -567 -554c-289 0 -486 210 -486 518c0 88 4 151 15 205l42 232c60 345 268 548 558 548c300 0 495 -209 495 -529c0 -61 -5 -124 -14 -188zM705 137c196 0 330 148 379 422l42 234c7 42 12 107 12 150c0 219 -129 363 -326 363
c-194 0 -327 -140 -374 -409l-41 -225c-10 -60 -14 -108 -14 -164c0 -229 124 -371 322 -371zM1059 1852h-164l-188 231h185zM584 1615l20 119h663l-20 -119h-663z" />
    <glyph glyph-name="Ocaron" unicode="&#x1d1;" 
d="M1258 524c-65 -361 -262 -554 -567 -554c-289 0 -486 210 -486 518c0 88 4 151 15 205l42 232c60 345 268 548 558 548c300 0 495 -209 495 -529c0 -61 -5 -124 -14 -188zM705 137c196 0 330 148 379 422l42 234c7 42 12 107 12 150c0 219 -129 363 -326 363
c-194 0 -327 -140 -374 -409l-41 -225c-10 -60 -14 -108 -14 -164c0 -229 124 -371 322 -371zM837 1610l-233 309h170l145 -200h13l216 200h189l-340 -309h-160z" />
    <glyph glyph-name="Oslashacute" unicode="&#x1fe;" 
d="M1294 1916l-332 -304h-194l311 304h215zM1084 559l42 234c7 42 12 107 12 150c0 46 -6 89 -17 128l-664 -819c56 -74 141 -115 248 -115c196 0 330 148 379 422zM438 897l-41 -225c-10 -60 -14 -108 -14 -164c0 -50 6 -95 17 -136l665 815c-57 75 -145 119 -253 119
c-194 0 -327 -140 -374 -409zM1423 1443l-173 -213c42 -80 65 -176 65 -286c0 -61 -5 -124 -14 -188l-43 -232c-65 -361 -262 -554 -567 -554c-143 0 -263 51 -348 140l-90 -110h-156l173 212c-42 77 -65 171 -65 276c0 88 4 151 15 205l42 232c60 345 268 548 558 548
c150 0 274 -52 360 -145l94 115h149z" />
    <glyph glyph-name="Ohungarumlaut" unicode="&#x150;" 
d="M1258 524c-65 -361 -262 -554 -567 -554c-289 0 -486 210 -486 518c0 88 4 151 15 205l42 232c60 345 268 548 558 548c300 0 495 -209 495 -529c0 -61 -5 -124 -14 -188zM705 137c196 0 330 148 379 422l42 234c7 42 12 107 12 150c0 219 -129 363 -326 363
c-194 0 -327 -140 -374 -409l-41 -225c-10 -60 -14 -108 -14 -164c0 -229 124 -371 322 -371zM1048 1612l306 304h194l-323 -304h-177zM670 1612l305 304h194l-323 -304h-176z" />
    <glyph glyph-name="Obreve" unicode="&#x14e;" 
d="M1258 524c-65 -361 -262 -554 -567 -554c-289 0 -486 210 -486 518c0 88 4 151 15 205l42 232c60 345 268 548 558 548c300 0 495 -209 495 -529c0 -61 -5 -124 -14 -188zM705 137c196 0 330 148 379 422l42 234c7 42 12 107 12 150c0 219 -129 363 -326 363
c-194 0 -327 -140 -374 -409l-41 -225c-10 -60 -14 -108 -14 -164c0 -229 124 -371 322 -371zM925 1609c-201 0 -334 135 -304 309h133c-15 -115 56 -190 179 -190c119 0 219 78 239 190h140c-32 -186 -188 -309 -387 -309z" />
    <glyph glyph-name="Oinvertedbreve" unicode="&#x20e;" 
d="M1258 524c-65 -361 -262 -554 -567 -554c-289 0 -486 210 -486 518c0 88 4 151 15 205l42 232c60 345 268 548 558 548c300 0 495 -209 495 -529c0 -61 -5 -124 -14 -188zM705 137c196 0 330 148 379 422l42 234c7 42 12 107 12 150c0 219 -129 363 -326 363
c-194 0 -327 -140 -374 -409l-41 -225c-10 -60 -14 -108 -14 -164c0 -229 124 -371 322 -371zM988 1918c201 0 333 -135 303 -309h-132c15 115 -57 190 -179 190c-119 0 -219 -78 -239 -190h-141c33 186 189 309 388 309z" />
    <glyph glyph-name="Ohookabove" unicode="&#x1ece;" 
d="M1258 524c-65 -361 -262 -554 -567 -554c-289 0 -486 210 -486 518c0 88 4 151 15 205l42 232c60 345 268 548 558 548c300 0 495 -209 495 -529c0 -61 -5 -124 -14 -188zM705 137c196 0 330 148 379 422l42 234c7 42 12 107 12 150c0 219 -129 363 -326 363
c-194 0 -327 -140 -374 -409l-41 -225c-10 -60 -14 -108 -14 -164c0 -229 124 -371 322 -371zM773 1816l6 113c34 15 86 25 132 25c124 0 205 -67 205 -172c0 -92 -69 -174 -174 -211l-61 86c64 22 106 66 106 108c0 44 -39 73 -101 73c-43 0 -87 -9 -113 -22z" />
    <glyph glyph-name="Odieresismacron" unicode="&#x22a;" 
d="M1258 524c-65 -361 -262 -554 -567 -554c-289 0 -486 210 -486 518c0 88 4 151 15 205l42 232c60 345 268 548 558 548c300 0 495 -209 495 -529c0 -61 -5 -124 -14 -188zM705 137c196 0 330 148 379 422l42 234c7 42 12 107 12 150c0 219 -129 363 -326 363
c-194 0 -327 -140 -374 -409l-41 -225c-10 -60 -14 -108 -14 -164c0 -229 124 -371 322 -371zM1120 1786c60 0 107 -48 107 -110c0 -61 -47 -110 -107 -110c-59 0 -106 49 -106 110c0 62 47 110 106 110zM1298 2051l-20 -120h-663l20 120h663zM732 1786
c59 0 106 -48 106 -110c0 -61 -47 -110 -106 -110s-107 49 -107 110c0 62 48 110 107 110z" />
    <glyph glyph-name="Otildemacron" unicode="&#x22c;" 
d="M1258 524c-65 -361 -262 -554 -567 -554c-289 0 -486 210 -486 518c0 88 4 151 15 205l42 232c60 345 268 548 558 548c300 0 495 -209 495 -529c0 -61 -5 -124 -14 -188zM705 137c196 0 330 148 379 422l42 234c7 42 12 107 12 150c0 219 -129 363 -326 363
c-194 0 -327 -140 -374 -409l-41 -225c-10 -60 -14 -108 -14 -164c0 -229 124 -371 322 -371zM1289 1935h-663l20 120h663zM796 1692c-56 0 -88 -41 -94 -121h-124c6 144 92 239 218 239c167 0 173 -135 275 -135c54 0 88 42 94 120h123c-5 -139 -94 -238 -218 -238
c-167 0 -172 135 -274 135z" />
    <glyph glyph-name="Odotaccent" unicode="&#x22e;" 
d="M1258 524c-65 -361 -262 -554 -567 -554c-289 0 -486 210 -486 518c0 88 4 151 15 205l42 232c60 345 268 548 558 548c300 0 495 -209 495 -529c0 -61 -5 -124 -14 -188zM705 137c196 0 330 148 379 422l42 234c7 42 12 107 12 150c0 219 -129 363 -326 363
c-194 0 -327 -140 -374 -409l-41 -225c-10 -60 -14 -108 -14 -164c0 -229 124 -371 322 -371zM948 1640c-68 0 -126 59 -126 129s58 128 126 128s126 -58 126 -128s-58 -129 -126 -129z" />
    <glyph glyph-name="Ocircumflexdotbelow" unicode="&#x1ed8;" 
d="M1258 524c-65 -361 -262 -554 -567 -554c-289 0 -486 210 -486 518c0 88 4 151 15 205l42 232c60 345 268 548 558 548c300 0 495 -209 495 -529c0 -61 -5 -124 -14 -188zM705 137c196 0 330 148 379 422l42 234c7 42 12 107 12 150c0 219 -129 363 -326 363
c-194 0 -327 -140 -374 -409l-41 -225c-10 -60 -14 -108 -14 -164c0 -229 124 -371 322 -371zM1054 1921l233 -309h-170l-144 199h-13l-216 -199h-190l341 309h159zM576 -451c-68 0 -126 58 -126 128s58 129 126 129s126 -59 126 -129s-58 -128 -126 -128z" />
    <glyph glyph-name="Ocircumflexacute" unicode="&#x1ed0;" 
d="M1258 524c-65 -361 -262 -554 -567 -554c-289 0 -486 210 -486 518c0 88 4 151 15 205l42 232c60 345 268 548 558 548c300 0 495 -209 495 -529c0 -61 -5 -124 -14 -188zM705 137c196 0 330 148 379 422l42 234c7 42 12 107 12 150c0 219 -129 363 -326 363
c-194 0 -327 -140 -374 -409l-41 -225c-10 -60 -14 -108 -14 -164c0 -229 124 -371 322 -371zM1157 1844l255 239h191l-275 -239h-171zM1040 1813l241 -235h-185l-145 146h-14l-197 -146h-203l324 235h179z" />
    <glyph glyph-name="Otildedieresis" unicode="&#x1e4e;" 
d="M1258 524c-65 -361 -262 -554 -567 -554c-289 0 -486 210 -486 518c0 88 4 151 15 205l42 232c60 345 268 548 558 548c300 0 495 -209 495 -529c0 -61 -5 -124 -14 -188zM705 137c196 0 330 148 379 422l42 234c7 42 12 107 12 150c0 219 -129 363 -326 363
c-194 0 -327 -140 -374 -409l-41 -225c-10 -60 -14 -108 -14 -164c0 -229 124 -371 322 -371zM784 1884c-57 0 -103 46 -103 105s46 106 103 106c58 0 103 -47 103 -106s-45 -105 -103 -105zM1173 1884c-57 0 -103 46 -103 105s46 106 103 106s103 -47 103 -106
s-46 -105 -103 -105zM791 1684c-55 0 -88 -40 -93 -116h-123c5 139 92 232 216 232c166 0 171 -130 274 -130c53 0 87 41 93 115h122c-5 -135 -93 -232 -216 -232c-166 0 -171 131 -273 131z" />
    <glyph glyph-name="Omacron" unicode="&#x14c;" 
d="M1258 524c-65 -361 -262 -554 -567 -554c-289 0 -486 210 -486 518c0 88 4 151 15 205l42 232c60 345 268 548 558 548c300 0 495 -209 495 -529c0 -61 -5 -124 -14 -188zM705 137c196 0 330 148 379 422l42 234c7 42 12 107 12 150c0 219 -129 363 -326 363
c-194 0 -327 -140 -374 -409l-41 -225c-10 -60 -14 -108 -14 -164c0 -229 124 -371 322 -371zM1261 1695h-660l24 139h660z" />
    <glyph glyph-name="Oogonek" unicode="&#x1ea;" 
d="M885 -423c-128 0 -223 79 -223 186c0 85 42 154 151 231l-4 11c-39 -23 -78 -33 -136 -33c-275 -2 -468 211 -468 516c0 97 4 158 15 205l42 232c60 345 268 548 558 548c300 0 495 -209 495 -529c0 -58 -4 -121 -14 -188l-43 -232c-36 -205 -109 -344 -237 -452
c-158 -135 -200 -191 -200 -265c0 -59 48 -101 117 -101c29 0 50 1 66 4l-22 -121c-20 -7 -59 -12 -97 -12zM705 137c198 0 330 145 379 422l42 234c7 42 12 107 12 150c0 219 -129 363 -326 363c-195 0 -326 -141 -374 -409l-40 -225c-10 -59 -15 -107 -15 -164
c0 -229 124 -371 322 -371z" />
    <glyph glyph-name="Oogonekmacron" unicode="&#x1ec;" 
d="M1262 1695h-660l24 139h660zM885 -423c-128 0 -223 79 -223 186c0 85 42 154 151 231l-4 11c-39 -23 -78 -33 -136 -33c-275 -2 -468 211 -468 516c0 97 4 158 15 205l42 232c60 345 268 548 558 548c300 0 495 -209 495 -529c0 -58 -4 -121 -14 -188l-43 -232
c-36 -205 -109 -344 -237 -452c-158 -135 -200 -191 -200 -265c0 -59 48 -101 117 -101c29 0 50 1 66 4l-22 -121c-20 -7 -59 -12 -97 -12zM705 137c198 0 330 145 379 422l42 234c7 42 12 107 12 150c0 219 -129 363 -326 363c-195 0 -326 -141 -374 -409l-40 -225
c-10 -59 -15 -107 -15 -164c0 -229 124 -371 322 -371z" />
    <glyph glyph-name="Ohorn" unicode="&#x1a0;" 
d="M689 -30c-288 0 -484 209 -484 518c0 91 5 153 16 205l41 232c62 346 269 548 560 548c187 0 255 -80 388 -80c85 0 139 50 157 147l24 136h148c-23 -122 -36 -202 -47 -230c-42 -124 -136 -189 -259 -180h-10c0 -1 -1 -5 -1 -6c58 -87 88 -192 88 -316
c0 -71 -10 -160 -27 -248l-30 -172c-64 -361 -261 -554 -564 -554zM706 137c194 0 324 146 374 422l42 234c8 47 11 91 11 150c0 220 -128 363 -323 363c-191 0 -323 -142 -372 -409l-40 -225c-11 -69 -16 -116 -16 -165c0 -226 127 -370 324 -370z" />
    <glyph glyph-name="Ohorndotbelow" unicode="&#x1ee2;" 
d="M689 -30c-288 0 -484 209 -484 518c0 91 5 153 16 205l41 232c62 346 269 548 560 548c187 0 255 -80 388 -80c85 0 139 50 157 147l24 136h148c-23 -122 -36 -202 -47 -230c-42 -124 -136 -189 -259 -180h-10c0 -1 -1 -5 -1 -6c58 -87 88 -192 88 -316
c0 -71 -10 -160 -27 -248l-30 -172c-64 -361 -261 -554 -564 -554zM706 137c194 0 324 146 374 422l42 234c8 47 11 91 11 150c0 220 -128 363 -323 363c-191 0 -323 -142 -372 -409l-40 -225c-11 -69 -16 -116 -16 -165c0 -226 127 -370 324 -370zM576 -451
c-68 0 -126 58 -126 128s58 129 126 129s126 -59 126 -129s-58 -128 -126 -128z" />
    <glyph glyph-name="Ohornhookabove" unicode="&#x1ede;" 
d="M774 1816l6 113c34 15 86 25 132 25c124 0 205 -67 205 -172c0 -92 -69 -174 -174 -211l-61 86c64 22 106 66 106 108c0 44 -39 73 -101 73c-43 0 -87 -9 -113 -22zM689 -30c-288 0 -484 209 -484 518c0 91 5 153 16 205l41 232c62 346 269 548 560 548
c187 0 255 -80 388 -80c85 0 139 50 157 147l24 136h148c-23 -122 -36 -202 -47 -230c-42 -124 -136 -189 -259 -180h-10c0 -1 -1 -5 -1 -6c58 -87 88 -192 88 -316c0 -71 -10 -160 -27 -248l-30 -172c-64 -361 -261 -554 -564 -554zM706 137c194 0 324 146 374 422l42 234
c8 47 11 91 11 150c0 220 -128 363 -323 363c-191 0 -323 -142 -372 -409l-40 -225c-11 -69 -16 -116 -16 -165c0 -226 127 -370 324 -370z" />
    <glyph glyph-name="Ohorntilde" unicode="&#x1ee0;" 
d="M689 -30c-288 0 -484 209 -484 518c0 91 5 153 16 205l41 232c62 346 269 548 560 548c187 0 255 -80 388 -80c85 0 139 50 157 147l24 136h148c-23 -122 -36 -202 -47 -230c-42 -124 -136 -189 -259 -180h-10c0 -1 -1 -5 -1 -6c58 -87 88 -192 88 -316
c0 -71 -10 -160 -27 -248l-30 -172c-64 -361 -261 -554 -564 -554zM706 137c194 0 324 146 374 422l42 234c8 47 11 91 11 150c0 220 -128 363 -323 363c-191 0 -323 -142 -372 -409l-40 -225c-11 -69 -16 -116 -16 -165c0 -226 127 -370 324 -370zM780 1777
c-59 0 -93 -50 -99 -147h-124c7 165 91 270 220 270c162 0 195 -160 285 -160c57 0 93 52 99 146h123c-5 -159 -92 -268 -219 -268c-156 0 -183 159 -285 159z" />
    <glyph glyph-name="Ohorngrave" unicode="&#x1edc;" 
d="M438 897l-40 -225c-11 -69 -16 -116 -16 -165c0 -226 127 -370 324 -370c194 0 324 146 374 422l42 234c8 47 11 91 11 150c0 220 -128 363 -323 363c-191 0 -323 -142 -372 -409zM1283 696l-30 -172c-64 -361 -261 -554 -564 -554c-288 0 -484 209 -484 518
c0 91 5 153 16 205l41 232c62 346 269 548 560 548c187 0 255 -80 388 -80c85 0 139 50 157 147l24 136h148c-23 -122 -36 -202 -47 -230c-42 -124 -136 -189 -259 -180h-10c0 -1 -1 -5 -1 -6c58 -87 88 -192 88 -316c0 -71 -10 -160 -27 -248zM855 1916l205 -304h-176
l-227 304h198z" />
    <glyph glyph-name="Ohornacute" unicode="&#x1eda;" 
d="M689 -30c-288 0 -484 209 -484 518c0 91 5 153 16 205l41 232c62 346 269 548 560 548c187 0 255 -80 388 -80c85 0 139 50 157 147l24 136h148c-23 -122 -36 -202 -47 -230c-42 -124 -136 -189 -259 -180h-10c0 -1 -1 -5 -1 -6c58 -87 88 -192 88 -316
c0 -71 -10 -160 -27 -248l-30 -172c-64 -361 -261 -554 -564 -554zM706 137c194 0 324 146 374 422l42 234c8 47 11 91 11 150c0 220 -128 363 -323 363c-191 0 -323 -142 -372 -409l-40 -225c-11 -69 -16 -116 -16 -165c0 -226 127 -370 324 -370zM770 1612l310 304h215
l-332 -304h-193z" />
    <glyph glyph-name="P" unicode="P" 
d="M452 1443h454c258 0 423 -152 423 -390c0 -332 -215 -535 -573 -535h-289l-92 -518h-177zM603 1286l-109 -611h272c242 0 387 136 387 364c0 156 -103 247 -279 247h-271z" />
    <glyph glyph-name="Pdotaccent" unicode="&#x1e56;" 
d="M452 1443h454c258 0 423 -152 423 -390c0 -332 -215 -535 -573 -535h-289l-92 -518h-177zM603 1286l-109 -611h272c242 0 387 136 387 364c0 156 -103 247 -279 247h-271zM899 1640c-68 0 -126 59 -126 129s58 128 126 128c67 0 126 -58 126 -128s-59 -129 -126 -129z
" />
    <glyph glyph-name="Pacute" unicode="&#x1e54;" 
d="M452 1443h454c258 0 423 -152 423 -390c0 -332 -215 -535 -573 -535h-289l-92 -518h-177zM603 1286l-109 -611h272c242 0 387 136 387 364c0 156 -103 247 -279 247h-271zM722 1612l311 304h215l-332 -304h-194z" />
    <glyph glyph-name="Q" unicode="Q" 
d="M1085 557l42 235c7 41 12 106 12 150c0 219 -129 364 -327 364c-195 0 -327 -141 -375 -410l-40 -227c-11 -60 -15 -107 -15 -164c0 -230 124 -372 323 -372c36 0 70 5 102 15l-146 313h180l105 -225c67 72 114 180 139 321zM220 693l42 232c60 345 268 548 558 548
c300 0 495 -209 495 -529c0 -60 -5 -123 -15 -188l-42 -232c-37 -206 -118 -358 -237 -450l112 -239h-180l-76 163c-57 -19 -119 -28 -186 -28c-289 0 -486 210 -486 518c0 88 4 151 15 205z" />
    <glyph glyph-name="R" unicode="R" 
d="M584 1286l-100 -562h271c207 0 336 103 363 266c3 17 6 44 6 68c1 142 -92 228 -256 228h-284zM356 0h-174l254 1443h470c247 0 403 -143 402 -377c0 -30 -2 -62 -7 -95c-30 -187 -155 -323 -339 -369l194 -602h-188l-180 577c-17 -1 -50 -2 -73 -2h-257z" />
    <glyph glyph-name="Rcaron" unicode="&#x158;" 
d="M584 1286l-100 -562h271c207 0 336 103 363 266c3 17 6 44 6 68c1 142 -92 228 -256 228h-284zM356 0h-174l254 1443h470c247 0 403 -143 402 -377c0 -30 -2 -62 -7 -95c-30 -187 -155 -323 -339 -369l194 -602h-188l-180 577c-17 -1 -50 -2 -73 -2h-257zM808 1610
l-233 309h170l144 -200h14l215 200h190l-340 -309h-160z" />
    <glyph glyph-name="Rlinebelow" unicode="&#x1e5e;" 
d="M584 1286l-100 -562h271c207 0 336 103 363 266c3 17 6 44 6 68c1 142 -92 228 -256 228h-284zM356 0h-174l254 1443h470c247 0 403 -143 402 -377c0 -30 -2 -62 -7 -95c-30 -187 -155 -323 -339 -369l194 -602h-188l-180 577c-17 -1 -50 -2 -73 -2h-257zM898 -395h-660
l24 139h660z" />
    <glyph glyph-name="Rdotbelowmacron" unicode="&#x1e5c;" 
d="M584 1286l-100 -562h271c207 0 336 103 363 266c3 17 6 44 6 68c1 142 -92 228 -256 228h-284zM356 0h-174l254 1443h470c247 0 403 -143 402 -377c0 -30 -2 -62 -7 -95c-30 -187 -155 -323 -339 -369l194 -602h-188l-180 577c-17 -1 -50 -2 -73 -2h-257zM580 -451
c-68 0 -126 59 -126 128c0 70 58 129 126 129s126 -59 126 -129c0 -69 -58 -128 -126 -128zM1232 1695h-660l24 139h660z" />
    <glyph glyph-name="Rdblgrave" unicode="&#x210;" 
d="M946 1916l199 -304h-163l-218 304h182zM567 1916l200 -304h-164l-218 304h182zM356 0h-174l254 1443h470c247 0 403 -143 402 -377c0 -30 -2 -62 -7 -95c-30 -187 -155 -323 -339 -369l194 -602h-188l-180 577c-17 -1 -50 -2 -73 -2h-257zM584 1286l-100 -562h271
c207 0 336 103 363 266c3 17 6 44 6 68c1 142 -92 228 -256 228h-284z" />
    <glyph glyph-name="Rinvertedbreve" unicode="&#x212;" 
d="M584 1286l-100 -562h271c207 0 336 103 363 266c3 17 6 44 6 68c1 142 -92 228 -256 228h-284zM356 0h-174l254 1443h470c247 0 403 -143 402 -377c0 -30 -2 -62 -7 -95c-30 -187 -155 -323 -339 -369l194 -602h-188l-180 577c-17 -1 -50 -2 -73 -2h-257zM958 1918
c201 0 334 -135 304 -309h-133c16 115 -56 190 -179 190c-119 0 -218 -78 -239 -190h-140c32 186 188 309 387 309z" />
    <glyph glyph-name="Racute" unicode="&#x154;" 
d="M584 1286l-100 -562h271c207 0 336 103 363 266c3 17 6 44 6 68c1 142 -92 228 -256 228h-284zM356 0h-174l254 1443h470c247 0 403 -143 402 -377c0 -30 -2 -62 -7 -95c-30 -187 -155 -323 -339 -369l194 -602h-188l-180 577c-17 -1 -50 -2 -73 -2h-257zM742 1612
l311 304h215l-332 -304h-194z" />
    <glyph glyph-name="Rdotbelow" unicode="&#x1e5a;" 
d="M584 1286l-100 -562h271c207 0 336 103 363 266c3 17 6 44 6 68c1 142 -92 228 -256 228h-284zM356 0h-174l254 1443h470c247 0 403 -143 402 -377c0 -30 -2 -62 -7 -95c-30 -187 -155 -323 -339 -369l194 -602h-188l-180 577c-17 -1 -50 -2 -73 -2h-257zM580 -451
c-68 0 -126 59 -126 128c0 70 58 129 126 129s126 -59 126 -129c0 -69 -58 -128 -126 -128z" />
    <glyph glyph-name="Rdotaccent" unicode="&#x1e58;" 
d="M584 1286l-100 -562h271c207 0 336 103 363 266c3 17 6 44 6 68c1 142 -92 228 -256 228h-284zM356 0h-174l254 1443h470c247 0 403 -143 402 -377c0 -30 -2 -62 -7 -95c-30 -187 -155 -323 -339 -369l194 -602h-188l-180 577c-17 -1 -50 -2 -73 -2h-257zM918 1640
c-68 0 -126 59 -126 129s58 128 126 128s126 -58 126 -128s-58 -129 -126 -129z" />
    <glyph glyph-name="Rcommaaccent" unicode="&#x156;" 
d="M584 1286l-100 -562h271c207 0 336 103 363 266c3 17 6 44 6 68c1 142 -92 228 -256 228h-284zM356 0h-174l254 1443h470c247 0 403 -143 402 -377c0 -30 -2 -62 -7 -95c-30 -187 -155 -323 -339 -369l194 -602h-188l-180 577c-17 -1 -50 -2 -73 -2h-257zM584 -503h-157
l121 361h176z" />
    <glyph glyph-name="S" unicode="S" 
d="M199 413h174c-1 -13 -2 -21 -2 -28c0 -148 139 -255 333 -255c190 0 322 105 322 254c0 114 -66 180 -256 251l-95 36c-238 90 -339 207 -339 388c0 246 197 414 484 414c269 0 462 -157 462 -377c0 -12 -1 -32 -3 -40h-174c1 3 1 6 1 23c0 135 -119 234 -286 234
c-177 0 -301 -98 -301 -237c0 -113 65 -181 240 -247l106 -40c249 -95 343 -201 343 -380c0 -265 -201 -439 -508 -439c-289 0 -505 169 -505 396c0 24 1 38 4 47z" />
    <glyph glyph-name="Scaron" unicode="&#x160;" 
d="M199 413h174c-1 -13 -2 -21 -2 -28c0 -148 139 -255 333 -255c190 0 322 105 322 254c0 114 -66 180 -256 251l-95 36c-238 90 -339 207 -339 388c0 246 197 414 484 414c269 0 462 -157 462 -377c0 -12 -1 -32 -3 -40h-174c1 3 1 6 1 23c0 135 -119 234 -286 234
c-177 0 -301 -98 -301 -237c0 -113 65 -181 240 -247l106 -40c249 -95 343 -201 343 -380c0 -265 -201 -439 -508 -439c-289 0 -505 169 -505 396c0 24 1 38 4 47zM817 1610l-232 309h170l144 -200h13l216 200h189l-340 -309h-160z" />
    <glyph glyph-name="Scedilla" unicode="&#x15e;" 
d="M1279 1056h-174c1 3 1 6 1 23c0 135 -119 234 -286 234c-177 0 -301 -98 -301 -237c0 -113 65 -181 240 -247l106 -40c249 -95 343 -201 343 -380c0 -265 -201 -439 -508 -439h-8l-52 -103c118 -4 183 -59 183 -152c0 -118 -101 -200 -249 -200c-51 0 -111 10 -159 27
l19 108c31 -12 100 -22 139 -22c73 0 114 25 114 72c0 50 -46 74 -139 74h-53l5 84l65 125c-219 44 -370 193 -370 383c0 24 1 38 4 47h174c-1 -13 -2 -21 -2 -28c0 -148 139 -255 333 -255c190 0 322 105 322 254c0 114 -66 180 -256 251l-95 36c-238 90 -339 207 -339 388
c0 246 197 414 484 414c269 0 462 -157 462 -377c0 -12 -1 -32 -3 -40z" />
    <glyph glyph-name="Sdotaccent" unicode="&#x1e60;" 
d="M199 413h174c-1 -13 -2 -21 -2 -28c0 -148 139 -255 333 -255c190 0 322 105 322 254c0 114 -66 180 -256 251l-95 36c-238 90 -339 207 -339 388c0 246 197 414 484 414c269 0 462 -157 462 -377c0 -12 -1 -32 -3 -40h-174c1 3 1 6 1 23c0 135 -119 234 -286 234
c-177 0 -301 -98 -301 -237c0 -113 65 -181 240 -247l106 -40c249 -95 343 -201 343 -380c0 -265 -201 -439 -508 -439c-289 0 -505 169 -505 396c0 24 1 38 4 47zM928 1640c-68 0 -126 59 -126 129s58 128 126 128s126 -58 126 -128s-58 -129 -126 -129z" />
    <glyph glyph-name="Sdotbelow" unicode="&#x1e62;" 
d="M199 413h174c-1 -13 -2 -21 -2 -28c0 -148 139 -255 333 -255c190 0 322 105 322 254c0 114 -66 180 -256 251l-95 36c-238 90 -339 207 -339 388c0 246 197 414 484 414c269 0 462 -157 462 -377c0 -12 -1 -32 -3 -40h-174c1 3 1 6 1 23c0 135 -119 234 -286 234
c-177 0 -301 -98 -301 -237c0 -113 65 -181 240 -247l106 -40c249 -95 343 -201 343 -380c0 -265 -201 -439 -508 -439c-289 0 -505 169 -505 396c0 24 1 38 4 47zM572 -451c-68 0 -126 58 -126 128s58 129 126 129s126 -59 126 -129s-58 -128 -126 -128z" />
    <glyph glyph-name="Scommaaccent" unicode="&#x218;" 
d="M199 413h174c-1 -13 -2 -21 -2 -28c0 -148 139 -255 333 -255c190 0 322 105 322 254c0 114 -66 180 -256 251l-95 36c-238 90 -339 207 -339 388c0 246 197 414 484 414c269 0 462 -157 462 -377c0 -12 -1 -32 -3 -40h-174c1 3 1 6 1 23c0 135 -119 234 -286 234
c-177 0 -301 -98 -301 -237c0 -113 65 -181 240 -247l106 -40c249 -95 343 -201 343 -380c0 -265 -201 -439 -508 -439c-289 0 -505 169 -505 396c0 24 1 38 4 47zM576 -519h-157l120 361h177z" />
    <glyph glyph-name="Sdotbelowdotaccent" unicode="&#x1e68;" 
d="M199 413h174c-1 -13 -2 -21 -2 -28c0 -148 139 -255 333 -255c190 0 322 105 322 254c0 114 -66 180 -256 251l-95 36c-238 90 -339 207 -339 388c0 246 197 414 484 414c269 0 462 -157 462 -377c0 -12 -1 -32 -3 -40h-174c1 3 1 6 1 23c0 135 -119 234 -286 234
c-177 0 -301 -98 -301 -237c0 -113 65 -181 240 -247l106 -40c249 -95 343 -201 343 -380c0 -265 -201 -439 -508 -439c-289 0 -505 169 -505 396c0 24 1 38 4 47zM572 -451c-68 0 -126 58 -126 128s58 129 126 129s126 -59 126 -129s-58 -128 -126 -128zM928 1640
c-68 0 -126 59 -126 129s58 128 126 128s126 -58 126 -128s-58 -129 -126 -129z" />
    <glyph glyph-name="Scarondotaccent" unicode="&#x1e66;" 
d="M199 413h174c-1 -13 -2 -21 -2 -28c0 -148 139 -255 333 -255c190 0 322 105 322 254c0 114 -66 180 -256 251l-95 36c-238 90 -339 207 -339 388c0 246 197 414 484 414c269 0 462 -157 462 -377c0 -12 -1 -32 -3 -40h-174c1 3 1 6 1 23c0 135 -119 234 -286 234
c-177 0 -301 -98 -301 -237c0 -113 65 -181 240 -247l106 -40c249 -95 343 -201 343 -380c0 -265 -201 -439 -508 -439c-289 0 -505 169 -505 396c0 24 1 38 4 47zM902 1868c-66 0 -116 51 -116 117c0 65 50 116 116 116s117 -51 117 -116c0 -66 -51 -117 -117 -117z
M960 1578h-179l-242 237h186l146 -146h14l196 146h202z" />
    <glyph glyph-name="Scircumflex" unicode="&#x15c;" 
d="M199 413h174c-1 -13 -2 -21 -2 -28c0 -148 139 -255 333 -255c190 0 322 105 322 254c0 114 -66 180 -256 251l-95 36c-238 90 -339 207 -339 388c0 246 197 414 484 414c269 0 462 -157 462 -377c0 -12 -1 -32 -3 -40h-174c1 3 1 6 1 23c0 135 -119 234 -286 234
c-177 0 -301 -98 -301 -237c0 -113 65 -181 240 -247l106 -40c249 -95 343 -201 343 -380c0 -265 -201 -439 -508 -439c-289 0 -505 169 -505 396c0 24 1 38 4 47zM1035 1921l232 -309h-170l-144 199h-13l-216 -199h-190l341 309h160z" />
    <glyph glyph-name="Sacutedotaccent" unicode="&#x1e64;" 
d="M199 413h174c-1 -13 -2 -21 -2 -28c0 -148 139 -255 333 -255c190 0 322 105 322 254c0 114 -66 180 -256 251l-95 36c-238 90 -339 207 -339 388c0 246 197 414 484 414c269 0 462 -157 462 -377c0 -12 -1 -32 -3 -40h-174c1 3 1 6 1 23c0 135 -119 234 -286 234
c-177 0 -301 -98 -301 -237c0 -113 65 -181 240 -247l106 -40c249 -95 343 -201 343 -380c0 -265 -201 -439 -508 -439c-289 0 -505 169 -505 396c0 24 1 38 4 47zM951 1612l311 304h215l-333 -304h-193zM776 1689c-68 0 -126 58 -126 128s58 129 126 129s126 -59 126 -129
s-58 -128 -126 -128z" />
    <glyph glyph-name="Sacute" unicode="&#x15a;" 
d="M199 413h174c-1 -13 -2 -21 -2 -28c0 -148 139 -255 333 -255c190 0 322 105 322 254c0 114 -66 180 -256 251l-95 36c-238 90 -339 207 -339 388c0 246 197 414 484 414c269 0 462 -157 462 -377c0 -12 -1 -32 -3 -40h-174c1 3 1 6 1 23c0 135 -119 234 -286 234
c-177 0 -301 -98 -301 -237c0 -113 65 -181 240 -247l106 -40c249 -95 343 -201 343 -380c0 -265 -201 -439 -508 -439c-289 0 -505 169 -505 396c0 24 1 38 4 47zM752 1612l311 304h215l-333 -304h-193z" />
    <glyph glyph-name="T" unicode="T" 
d="M721 0h-176l228 1281h-436l26 162h1048l-27 -162h-435z" />
    <glyph glyph-name="Tcircumflexbelow" unicode="&#x1e70;" 
d="M721 0h-176l228 1281h-436l26 162h1048l-27 -162h-435zM503 -166h201l213 -342h-186l-132 227h-15l-212 -227h-202z" />
    <glyph glyph-name="Tdotbelow" unicode="&#x1e6c;" 
d="M721 0h-176l228 1281h-436l26 162h1048l-27 -162h-435zM575 -451c-68 0 -126 58 -126 128s58 129 126 129s126 -59 126 -129s-58 -128 -126 -128z" />
    <glyph glyph-name="Tcommaaccent" unicode="&#x21a;" 
d="M721 0h-176l228 1281h-436l26 162h1048l-27 -162h-435zM579 -503h-157l120 361h177z" />
    <glyph glyph-name="Tdotaccent" unicode="&#x1e6a;" 
d="M721 0h-176l228 1281h-436l26 162h1048l-27 -162h-435zM948 1640c-68 0 -126 59 -126 129s58 128 126 128s126 -58 126 -128s-58 -129 -126 -129z" />
    <glyph glyph-name="Tcedilla" unicode="&#x162;" 
d="M575 -2l-30 2l228 1281h-436l26 162h1048l-27 -162h-435l-228 -1281l-32 -133c94 -13 148 -68 148 -152c0 -119 -102 -200 -249 -200c-51 0 -111 10 -159 27l19 108c33 -12 101 -22 138 -22c74 0 115 25 115 72c0 50 -45 75 -137 75h-37l16 92z" />
    <glyph glyph-name="Tlinebelow" unicode="&#x1e6e;" 
d="M721 0h-176l228 1281h-436l26 162h1048l-27 -162h-435zM893 -395h-660l24 139h660z" />
    <glyph glyph-name="Tcaron" unicode="&#x164;" 
d="M721 0h-176l228 1281h-436l26 162h1048l-27 -162h-435zM837 1610l-232 309h170l144 -200h13l216 200h189l-340 -309h-160z" />
    <glyph glyph-name="Tbar" unicode="&#x166;" 
d="M1384 1281h-435l-87 -489h297l-23 -141h-299l-116 -651h-176l116 651h-298l23 141h300l87 489h-436l26 162h1048z" />
    <glyph glyph-name="U" unicode="U" 
d="M229 563l155 880h176l-156 -885c-7 -38 -11 -83 -11 -108c0 -192 123 -313 306 -313c179 0 316 129 354 337l171 969h177l-176 -991c-54 -304 -251 -482 -531 -482c-287 0 -478 182 -478 463c0 38 4 79 13 130z" />
    <glyph glyph-name="Ugrave" unicode="&#xd9;" 
d="M803 1916l205 -304h-176l-227 304h198zM229 563l155 880h176l-156 -885c-7 -38 -11 -83 -11 -108c0 -192 123 -313 306 -313c179 0 316 129 354 337l171 969h177l-176 -991c-54 -304 -251 -482 -531 -482c-287 0 -478 182 -478 463c0 38 4 79 13 130z" />
    <glyph glyph-name="Udblgrave" unicode="&#x214;" 
d="M981 1916l199 -304h-164l-217 304h182zM602 1916l199 -304h-163l-218 304h182zM229 563l155 880h176l-156 -885c-7 -38 -11 -83 -11 -108c0 -192 123 -313 306 -313c179 0 316 129 354 337l171 969h177l-176 -991c-54 -304 -251 -482 -531 -482c-287 0 -478 182 -478 463
c0 38 4 79 13 130z" />
    <glyph glyph-name="Uacute" unicode="&#xda;" 
d="M229 563l155 880h176l-156 -885c-7 -38 -11 -83 -11 -108c0 -192 123 -313 306 -313c179 0 316 129 354 337l171 969h177l-176 -991c-54 -304 -251 -482 -531 -482c-287 0 -478 182 -478 463c0 38 4 79 13 130zM777 1612l311 304h215l-332 -304h-194z" />
    <glyph glyph-name="Uhungarumlaut" unicode="&#x170;" 
d="M229 563l155 880h176l-156 -885c-7 -38 -11 -83 -11 -108c0 -192 123 -313 306 -313c179 0 316 129 354 337l171 969h177l-176 -991c-54 -304 -251 -482 -531 -482c-287 0 -478 182 -478 463c0 38 4 79 13 130zM996 1612l305 304h195l-324 -304h-176zM617 1612l305 304
h195l-323 -304h-177z" />
    <glyph glyph-name="Ucircumflex" unicode="&#xdb;" 
d="M229 563l155 880h176l-156 -885c-7 -38 -11 -83 -11 -108c0 -192 123 -313 306 -313c179 0 316 129 354 337l171 969h177l-176 -991c-54 -304 -251 -482 -531 -482c-287 0 -478 182 -478 463c0 38 4 79 13 130zM1060 1921l233 -309h-170l-145 199h-13l-216 -199h-189
l340 309h160z" />
    <glyph glyph-name="Ucaron" unicode="&#x1d3;" 
d="M229 563l155 880h176l-156 -885c-7 -38 -11 -83 -11 -108c0 -192 123 -313 306 -313c179 0 316 129 354 337l171 969h177l-176 -991c-54 -304 -251 -482 -531 -482c-287 0 -478 182 -478 463c0 38 4 79 13 130zM842 1610l-232 309h170l144 -200h13l216 200h190l-341 -309
h-160z" />
    <glyph glyph-name="Ucircumflexbelow" unicode="&#x1e76;" 
d="M229 563l155 880h176l-156 -885c-7 -38 -11 -83 -11 -108c0 -192 123 -313 306 -313c179 0 316 129 354 337l171 969h177l-176 -991c-54 -304 -251 -482 -531 -482c-287 0 -478 182 -478 463c0 38 4 79 13 130zM526 -166h201l214 -342h-187l-132 227h-15l-212 -227h-202z
" />
    <glyph glyph-name="Udieresis" unicode="&#xdc;" 
d="M229 563l155 880h176l-156 -885c-7 -38 -11 -83 -11 -108c0 -192 123 -313 306 -313c179 0 316 129 354 337l171 969h177l-176 -991c-54 -304 -251 -482 -531 -482c-287 0 -478 182 -478 463c0 38 4 79 13 130zM748 1651c-62 0 -117 56 -117 121c0 66 55 121 117 121
c63 0 117 -55 117 -121c0 -65 -54 -121 -117 -121zM1152 1651c-63 0 -117 56 -117 121c0 66 54 121 117 121c62 0 117 -55 117 -121c0 -65 -55 -121 -117 -121z" />
    <glyph glyph-name="Udieresisgrave" unicode="&#x1db;" 
d="M736 1566c-59 0 -106 49 -106 110c0 62 47 111 106 111s107 -49 107 -111c0 -61 -48 -110 -107 -110zM1125 1566c-59 0 -106 49 -106 110c0 62 47 111 106 111s106 -49 106 -111c0 -61 -47 -110 -106 -110zM872 2083l169 -224h-174l-194 224h199zM229 563l155 880h176
l-156 -885c-7 -38 -11 -83 -11 -108c0 -192 123 -313 306 -313c179 0 316 129 354 337l171 969h177l-176 -991c-54 -304 -251 -482 -531 -482c-287 0 -478 182 -478 463c0 38 4 79 13 130z" />
    <glyph glyph-name="Udieresisacute" unicode="&#x1d7;" 
d="M229 563l155 880h176l-156 -885c-7 -38 -11 -83 -11 -108c0 -192 123 -313 306 -313c179 0 316 129 354 337l171 969h177l-176 -991c-54 -304 -251 -482 -531 -482c-287 0 -478 182 -478 463c0 38 4 79 13 130zM823 1859l247 224h204l-272 -224h-179zM736 1566
c-59 0 -107 49 -107 110c0 62 48 111 107 111s106 -49 106 -111c0 -61 -47 -110 -106 -110zM1125 1566c-60 0 -107 49 -107 110c0 62 47 111 107 111c59 0 106 -49 106 -111c0 -61 -47 -110 -106 -110z" />
    <glyph glyph-name="Udieresismacron" unicode="&#x1d5;" 
d="M229 563l155 880h176l-156 -885c-7 -38 -11 -83 -11 -108c0 -192 123 -313 306 -313c179 0 316 129 354 337l171 969h177l-176 -991c-54 -304 -251 -482 -531 -482c-287 0 -478 182 -478 463c0 38 4 79 13 130zM1126 1786c59 0 106 -48 106 -110
c0 -61 -47 -110 -106 -110s-107 49 -107 110c0 62 48 110 107 110zM1303 2051l-20 -120h-663l20 120h663zM737 1786c59 0 106 -48 106 -110c0 -61 -47 -110 -106 -110s-106 49 -106 110c0 62 47 110 106 110z" />
    <glyph glyph-name="Udieresiscaron" unicode="&#x1d9;" 
d="M229 563l155 880h176l-156 -885c-7 -38 -11 -83 -11 -108c0 -192 123 -313 306 -313c179 0 316 129 354 337l171 969h177l-176 -991c-54 -304 -251 -482 -531 -482c-287 0 -478 182 -478 463c0 38 4 79 13 130zM1024 1854h-175l-240 246h183l145 -153h14l197 153h200z
M736 1566c-59 0 -106 49 -106 110c0 62 47 111 106 111s107 -49 107 -111c0 -61 -48 -110 -107 -110zM1125 1566c-59 0 -107 49 -107 110c0 62 48 111 107 111s106 -49 106 -111c0 -61 -47 -110 -106 -110z" />
    <glyph glyph-name="Udieresisbelow" unicode="&#x1e72;" 
d="M229 563l155 880h176l-156 -885c-7 -38 -11 -83 -11 -108c0 -192 123 -313 306 -313c179 0 316 129 354 337l171 969h177l-176 -991c-54 -304 -251 -482 -531 -482c-287 0 -478 182 -478 463c0 38 4 79 13 130zM396 -444c-62 0 -117 56 -117 121c0 66 55 122 117 122
s117 -56 117 -122c0 -65 -55 -121 -117 -121zM800 -444c-63 0 -118 56 -118 121c0 66 55 122 118 122c62 0 117 -56 117 -122c0 -65 -55 -121 -117 -121z" />
    <glyph glyph-name="Utildebelow" unicode="&#x1e74;" 
d="M229 563l155 880h176l-156 -885c-7 -38 -11 -83 -11 -108c0 -192 123 -313 306 -313c179 0 316 129 354 337l171 969h177l-176 -991c-54 -304 -251 -482 -531 -482c-287 0 -478 182 -478 463c0 38 4 79 13 130zM454 -308c-60 0 -87 -46 -89 -157h-140
c7 184 92 291 232 291c160 0 200 -158 287 -158c60 0 86 45 89 155h140c-6 -181 -94 -290 -232 -290c-160 0 -200 159 -287 159z" />
    <glyph glyph-name="Uhookabove" unicode="&#x1ee6;" 
d="M229 563l155 880h176l-156 -885c-7 -38 -11 -83 -11 -108c0 -192 123 -313 306 -313c179 0 316 129 354 337l171 969h177l-176 -991c-54 -304 -251 -482 -531 -482c-287 0 -478 182 -478 463c0 38 4 79 13 130zM779 1816l5 113c34 15 86 25 133 25
c124 0 204 -67 204 -172c0 -92 -68 -174 -174 -211l-61 86c64 22 106 66 106 108c0 44 -39 73 -101 73c-42 0 -87 -9 -112 -22z" />
    <glyph glyph-name="Ubreve" unicode="&#x16c;" 
d="M229 563l155 880h176l-156 -885c-7 -38 -11 -83 -11 -108c0 -192 123 -313 306 -313c179 0 316 129 354 337l171 969h177l-176 -991c-54 -304 -251 -482 -531 -482c-287 0 -478 182 -478 463c0 38 4 79 13 130zM930 1609c-201 0 -333 135 -303 309h132
c-15 -115 57 -190 179 -190c119 0 219 78 239 190h141c-33 -186 -189 -309 -388 -309z" />
    <glyph glyph-name="Uinvertedbreve" unicode="&#x216;" 
d="M229 563l155 880h176l-156 -885c-7 -38 -11 -83 -11 -108c0 -192 123 -313 306 -313c179 0 316 129 354 337l171 969h177l-176 -991c-54 -304 -251 -482 -531 -482c-287 0 -478 182 -478 463c0 38 4 79 13 130zM961 1918c201 0 333 -135 303 -309h-132
c15 115 -57 190 -179 190c-119 0 -219 -78 -239 -190h-141c33 186 189 309 388 309z" />
    <glyph glyph-name="Utildeacute" unicode="&#x1e78;" 
d="M229 563l155 880h176l-156 -885c-7 -38 -11 -83 -11 -108c0 -192 123 -313 306 -313c179 0 316 129 354 337l171 969h177l-176 -991c-54 -304 -251 -482 -531 -482c-287 0 -478 182 -478 463c0 38 4 79 13 130zM832 1894l141 218h176l-164 -218h-153zM763 1692
c-56 0 -88 -41 -94 -121h-124c6 144 93 239 218 239c167 0 173 -135 275 -135c54 0 88 42 94 120h124c-6 -139 -94 -238 -219 -238c-166 0 -172 135 -274 135z" />
    <glyph glyph-name="Udotbelow" unicode="&#x1ee4;" 
d="M229 563l155 880h176l-156 -885c-7 -38 -11 -83 -11 -108c0 -192 123 -313 306 -313c179 0 316 129 354 337l171 969h177l-176 -991c-54 -304 -251 -482 -531 -482c-287 0 -478 182 -478 463c0 38 4 79 13 130zM598 -451c-68 0 -126 58 -126 128s58 129 126 129
s126 -59 126 -129s-58 -128 -126 -128z" />
    <glyph glyph-name="Utilde" unicode="&#x168;" 
d="M229 563l155 880h176l-156 -885c-7 -38 -11 -83 -11 -108c0 -192 123 -313 306 -313c179 0 316 129 354 337l171 969h177l-176 -991c-54 -304 -251 -482 -531 -482c-287 0 -478 182 -478 463c0 38 4 79 13 130zM785 1777c-59 0 -94 -50 -99 -147h-124
c6 165 91 270 220 270c162 0 194 -160 284 -160c57 0 93 52 99 146h124c-6 -159 -93 -268 -220 -268c-155 0 -183 159 -284 159z" />
    <glyph glyph-name="Umacron" unicode="&#x16a;" 
d="M229 563l155 880h176l-156 -885c-7 -38 -11 -83 -11 -108c0 -192 123 -313 306 -313c179 0 316 129 354 337l171 969h177l-176 -991c-54 -304 -251 -482 -531 -482c-287 0 -478 182 -478 463c0 38 4 79 13 130zM1252 1695h-660l24 139h660z" />
    <glyph glyph-name="Umacrondieresis" unicode="&#x1e7a;" 
d="M229 563l155 880h176l-156 -885c-7 -38 -11 -83 -11 -108c0 -192 123 -313 306 -313c179 0 316 129 354 337l171 969h177l-176 -991c-54 -304 -251 -482 -531 -482c-287 0 -478 182 -478 463c0 38 4 79 13 130zM759 1879c-59 0 -107 49 -107 110c0 62 48 111 107 111
s106 -49 106 -111c0 -61 -47 -110 -106 -110zM581 1615l20 119h663l-20 -119h-663zM1148 1879c-60 0 -107 49 -107 110c0 62 47 111 107 111c59 0 106 -49 106 -111c0 -61 -47 -110 -106 -110z" />
    <glyph glyph-name="Uring" unicode="&#x16e;" 
d="M229 563l155 880h176l-156 -885c-7 -38 -11 -83 -11 -108c0 -192 123 -313 306 -313c179 0 316 129 354 337l171 969h177l-176 -991c-54 -304 -251 -482 -531 -482c-287 0 -478 182 -478 463c0 38 4 79 13 130zM917 1559c-109 0 -194 85 -194 192c0 108 85 192 194 192
c108 0 192 -84 192 -192c0 -107 -84 -192 -192 -192zM916 1650c59 0 103 42 103 101s-44 101 -103 101c-58 0 -102 -42 -102 -101s44 -101 102 -101z" />
    <glyph glyph-name="Uogonek" unicode="&#x172;" 
d="M890 -423c-129 0 -225 79 -225 184c0 86 46 158 141 224l1 12c-30 -15 -73 -25 -115 -25c-286 -2 -476 182 -476 461c0 51 4 90 13 130l156 880h175l-156 -885c-7 -30 -11 -75 -11 -108c0 -189 121 -313 306 -313c177 0 317 132 354 337l172 969h175l-175 -991
c-31 -174 -95 -295 -205 -384c-155 -131 -196 -185 -196 -264c0 -59 49 -98 125 -98c24 0 46 1 58 4l-21 -121c-28 -9 -55 -12 -96 -12z" />
    <glyph glyph-name="Uhorn" unicode="&#x1af;" 
d="M689 -30c-285 0 -472 181 -472 458c0 36 4 76 13 129l156 886h176l-158 -894c-6 -37 -11 -80 -11 -106c0 -185 120 -306 302 -306c176 0 311 127 348 329l173 977h158c80 0 131 49 148 143l18 112h147l-21 -127c-30 -171 -116 -257 -261 -257h-35l-154 -867
c-53 -300 -249 -477 -527 -477z" />
    <glyph glyph-name="Uhorngrave" unicode="&#x1eea;" 
d="M1370 1314l-154 -867c-53 -300 -249 -477 -527 -477c-285 0 -472 181 -472 458c0 36 4 76 13 129l156 886h176l-158 -894c-6 -37 -11 -80 -11 -106c0 -185 120 -306 302 -306c176 0 311 127 348 329l173 977h158c80 0 131 49 148 143l18 112h147l-21 -127
c-30 -171 -116 -257 -261 -257h-35zM853 1916l205 -304h-176l-227 304h198z" />
    <glyph glyph-name="Uhornacute" unicode="&#x1ee8;" 
d="M689 -30c-285 0 -472 181 -472 458c0 36 4 76 13 129l156 886h176l-158 -894c-6 -37 -11 -80 -11 -106c0 -185 120 -306 302 -306c176 0 311 127 348 329l173 977h158c80 0 131 49 148 143l18 112h147l-21 -127c-30 -171 -116 -257 -261 -257h-35l-154 -867
c-53 -300 -249 -477 -527 -477zM759 1612l311 304h215l-332 -304h-194z" />
    <glyph glyph-name="Uhorndotbelow" unicode="&#x1ef0;" 
d="M573 -451c-68 0 -126 58 -126 128s58 129 126 129s126 -59 126 -129s-58 -128 -126 -128zM689 -30c-285 0 -472 181 -472 458c0 36 4 76 13 129l156 886h176l-158 -894c-6 -37 -11 -80 -11 -106c0 -185 120 -306 302 -306c176 0 311 127 348 329l173 977h158
c80 0 131 49 148 143l18 112h147l-21 -127c-30 -171 -116 -257 -261 -257h-35l-154 -867c-53 -300 -249 -477 -527 -477z" />
    <glyph glyph-name="Uhornhookabove" unicode="&#x1eec;" 
d="M779 1816l6 113c34 15 86 25 132 25c124 0 205 -67 205 -172c0 -92 -69 -174 -174 -211l-61 86c64 22 106 66 106 108c0 44 -39 73 -101 73c-43 0 -87 -9 -113 -22zM689 -30c-285 0 -472 181 -472 458c0 36 4 76 13 129l156 886h176l-158 -894c-6 -37 -11 -80 -11 -106
c0 -185 120 -306 302 -306c176 0 311 127 348 329l173 977h158c80 0 131 49 148 143l18 112h147l-21 -127c-30 -171 -116 -257 -261 -257h-35l-154 -867c-53 -300 -249 -477 -527 -477z" />
    <glyph glyph-name="Uhorntilde" unicode="&#x1eee;" 
d="M689 -30c-285 0 -472 181 -472 458c0 36 4 76 13 129l156 886h176l-158 -894c-6 -37 -11 -80 -11 -106c0 -185 120 -306 302 -306c176 0 311 127 348 329l173 977h158c80 0 131 49 148 143l18 112h147l-21 -127c-30 -171 -116 -257 -261 -257h-35l-154 -867
c-53 -300 -249 -477 -527 -477zM784 1777c-59 0 -94 -50 -99 -147h-124c6 165 91 270 220 270c162 0 194 -160 284 -160c57 0 93 52 99 146h124c-6 -159 -93 -268 -220 -268c-156 0 -183 159 -284 159z" />
    <glyph glyph-name="V" unicode="V" 
d="M668 212l602 1231h184l-727 -1443h-188l-219 1443h180l163 -1231h5z" />
    <glyph glyph-name="Vtilde" unicode="&#x1e7c;" 
d="M668 212l602 1231h184l-727 -1443h-188l-219 1443h180l163 -1231h5zM778 1777c-59 0 -93 -50 -99 -147h-124c6 165 91 270 220 270c162 0 194 -160 284 -160c58 0 93 52 100 146h123c-6 -159 -92 -268 -220 -268c-155 0 -182 159 -284 159z" />
    <glyph glyph-name="Vdotbelow" unicode="&#x1e7e;" 
d="M668 212l602 1231h184l-727 -1443h-188l-219 1443h180l163 -1231h5zM576 -451c-68 0 -126 58 -126 128s58 129 126 129s126 -59 126 -129s-58 -128 -126 -128z" />
    <glyph glyph-name="W" unicode="W" 
d="M803 895h-11l-368 -895h-178l9 1443h156l-7 -571l-11 -624h10l352 865h153l48 -865h11l190 604l196 591h167l-494 -1443h-174z" />
    <glyph glyph-name="Wgrave" unicode="&#x1e80;" 
d="M773 1916l205 -304h-176l-227 304h198zM803 895h-11l-368 -895h-178l9 1443h156l-7 -571l-11 -624h10l352 865h153l48 -865h11l190 604l196 591h167l-494 -1443h-174z" />
    <glyph glyph-name="Wacute" unicode="&#x1e82;" 
d="M803 895h-11l-368 -895h-178l9 1443h156l-7 -571l-11 -624h10l352 865h153l48 -865h11l190 604l196 591h167l-494 -1443h-174zM772 1612l311 304h215l-333 -304h-193z" />
    <glyph glyph-name="Wdotaccent" unicode="&#x1e86;" 
d="M803 895h-11l-368 -895h-178l9 1443h156l-7 -571l-11 -624h10l352 865h153l48 -865h11l190 604l196 591h167l-494 -1443h-174zM948 1640c-68 0 -126 59 -126 129s58 128 126 128s126 -58 126 -128s-58 -129 -126 -129z" />
    <glyph glyph-name="Wdotbelow" unicode="&#x1e88;" 
d="M803 895h-11l-368 -895h-178l9 1443h156l-7 -571l-11 -624h10l352 865h153l48 -865h11l190 604l196 591h167l-494 -1443h-174zM576 -451c-68 0 -126 58 -126 128s58 129 126 129s126 -59 126 -129s-58 -128 -126 -128z" />
    <glyph glyph-name="Wdieresis" unicode="&#x1e84;" 
d="M803 895h-11l-368 -895h-178l9 1443h156l-7 -571l-11 -624h10l352 865h153l48 -865h11l190 604l196 591h167l-494 -1443h-174zM743 1651c-62 0 -117 56 -117 121c0 66 55 121 117 121s117 -55 117 -121c0 -65 -55 -121 -117 -121zM1147 1651c-63 0 -118 56 -118 121
c0 66 55 121 118 121c62 0 117 -55 117 -121c0 -65 -55 -121 -117 -121z" />
    <glyph glyph-name="Wcircumflex" unicode="&#x174;" 
d="M803 895h-11l-368 -895h-178l9 1443h156l-7 -571l-11 -624h10l352 865h153l48 -865h11l190 604l196 591h167l-494 -1443h-174zM1055 1921l232 -309h-170l-144 199h-13l-216 -199h-190l341 309h160z" />
    <glyph glyph-name="X" unicode="X" 
d="M58 0l587 727l-336 716h189l269 -584h9l476 584h206l-602 -724l348 -719h-188l-279 581h-9l-469 -581h-201z" />
    <glyph glyph-name="Xdotaccent" unicode="&#x1e8a;" 
d="M58 0l587 727l-336 716h189l269 -584h9l476 584h206l-602 -724l348 -719h-188l-279 581h-9l-469 -581h-201zM940 1640c-68 0 -126 59 -126 129s58 128 126 128s126 -58 126 -128s-58 -129 -126 -129z" />
    <glyph glyph-name="Xdieresis" unicode="&#x1e8c;" 
d="M58 0l587 727l-336 716h189l269 -584h9l476 584h206l-602 -724l348 -719h-188l-279 581h-9l-469 -581h-201zM735 1651c-62 0 -117 56 -117 121c0 66 55 121 117 121s117 -55 117 -121c0 -65 -55 -121 -117 -121zM1139 1651c-63 0 -118 56 -118 121c0 66 55 121 118 121
c62 0 117 -55 117 -121c0 -65 -55 -121 -117 -121z" />
    <glyph glyph-name="Y" unicode="Y" 
d="M721 0h-175l106 598l-351 845h185l270 -663h12l493 663h205l-639 -844z" />
    <glyph glyph-name="Ygrave" unicode="&#x1ef2;" 
d="M760 1916l205 -304h-177l-226 304h198zM721 0h-175l106 598l-351 845h185l270 -663h12l493 663h205l-639 -844z" />
    <glyph glyph-name="Yacute" unicode="&#xdd;" 
d="M721 0h-175l106 598l-351 845h185l270 -663h12l493 663h205l-639 -844zM759 1612l310 304h215l-332 -304h-193z" />
    <glyph glyph-name="Ydotaccent" unicode="&#x1e8e;" 
d="M721 0h-175l106 598l-351 845h185l270 -663h12l493 663h205l-639 -844zM935 1640c-68 0 -126 59 -126 129s58 128 126 128s126 -58 126 -128s-58 -129 -126 -129z" />
    <glyph glyph-name="Ydotbelow" unicode="&#x1ef4;" 
d="M721 0h-175l106 598l-351 845h185l270 -663h12l493 663h205l-639 -844zM575 -451c-68 0 -126 58 -126 128s58 129 126 129s126 -59 126 -129s-58 -128 -126 -128z" />
    <glyph glyph-name="Ydieresis" unicode="&#x178;" 
d="M721 0h-175l106 598l-351 845h185l270 -663h12l493 663h205l-639 -844zM730 1651c-63 0 -117 56 -117 121c0 66 54 121 117 121c62 0 117 -55 117 -121c0 -65 -55 -121 -117 -121zM1133 1651c-62 0 -117 56 -117 121c0 66 55 121 117 121c63 0 118 -55 118 -121
c0 -65 -55 -121 -118 -121z" />
    <glyph glyph-name="Ytilde" unicode="&#x1ef8;" 
d="M721 0h-175l106 598l-351 845h185l270 -663h12l493 663h205l-639 -844zM766 1777c-59 0 -93 -50 -99 -147h-124c7 165 91 270 220 270c162 0 195 -160 285 -160c57 0 93 52 99 146h123c-5 -159 -92 -268 -219 -268c-156 0 -183 159 -285 159z" />
    <glyph glyph-name="Ycircumflex" unicode="&#x176;" 
d="M721 0h-175l106 598l-351 845h185l270 -663h12l493 663h205l-639 -844zM1041 1921l233 -309h-170l-144 199h-13l-216 -199h-190l341 309h159z" />
    <glyph glyph-name="Ymacron" unicode="&#x232;" 
d="M721 0h-175l106 598l-351 845h185l270 -663h12l493 663h205l-639 -844zM1248 1695h-660l24 139h660z" />
    <glyph glyph-name="Yhookabove" unicode="&#x1ef6;" 
d="M721 0h-175l106 598l-351 845h185l270 -663h12l493 663h205l-639 -844zM760 1816l6 113c34 15 86 25 132 25c124 0 205 -67 205 -172c0 -92 -69 -174 -174 -211l-61 86c64 22 106 66 106 108c0 44 -39 73 -101 73c-43 0 -87 -9 -113 -22z" />
    <glyph glyph-name="Z" unicode="Z" 
d="M137 0l22 137l960 1132l1 12h-730l26 162h956l-23 -140l-960 -1129l-2 -12h772l-27 -162h-995z" />
    <glyph glyph-name="Zacute" unicode="&#x179;" 
d="M137 0l22 137l960 1132l1 12h-730l26 162h956l-23 -140l-960 -1129l-2 -12h772l-27 -162h-995zM770 1612l311 304h215l-332 -304h-194z" />
    <glyph glyph-name="Zcaron" unicode="&#x17d;" 
d="M137 0l22 137l960 1132l1 12h-730l26 162h956l-23 -140l-960 -1129l-2 -12h772l-27 -162h-995zM836 1610l-233 309h170l145 -200h13l216 200h189l-340 -309h-160z" />
    <glyph glyph-name="Zcircumflex" unicode="&#x1e90;" 
d="M137 0l22 137l960 1132l1 12h-730l26 162h956l-23 -140l-960 -1129l-2 -12h772l-27 -162h-995zM1053 1921l233 -309h-170l-144 199h-14l-215 -199h-190l341 309h159z" />
    <glyph glyph-name="Zlinebelow" unicode="&#x1e94;" 
d="M137 0l22 137l960 1132l1 12h-730l26 162h956l-23 -140l-960 -1129l-2 -12h772l-27 -162h-995zM894 -395h-660l24 139h660z" />
    <glyph glyph-name="Zdotbelow" unicode="&#x1e92;" 
d="M137 0l22 137l960 1132l1 12h-730l26 162h956l-23 -140l-960 -1129l-2 -12h772l-27 -162h-995zM576 -451c-68 0 -126 58 -126 128s58 129 126 129s126 -59 126 -129s-58 -128 -126 -128z" />
    <glyph glyph-name="Zdotaccent" unicode="&#x17b;" 
d="M137 0l22 137l960 1132l1 12h-730l26 162h956l-23 -140l-960 -1129l-2 -12h772l-27 -162h-995zM946 1640c-67 0 -126 59 -126 129s59 128 126 128c68 0 127 -58 127 -128s-59 -129 -127 -129z" />
    <glyph glyph-name="AE" unicode="&#xc6;" 
d="M747 589l122 687h-92l-318 -687h288zM1461 1282h-430l-86 -476h393l-26 -157h-394l-87 -487h429l-27 -162h-591l77 435h-332l-201 -435h-182l686 1443h797z" />
    <glyph glyph-name="AEmacron" unicode="&#x1e2;" 
d="M1485 1834l-24 -139h-660l24 139h660zM747 589l122 687h-92l-318 -687h288zM1461 1282h-430l-86 -476h393l-26 -157h-394l-87 -487h429l-27 -162h-591l77 435h-332l-201 -435h-182l686 1443h797z" />
    <glyph glyph-name="AEacute" unicode="&#x1fc;" 
d="M1497 1916l-332 -304h-194l311 304h215zM869 1276h-92l-318 -687h288zM4 0l686 1443h797l-26 -161h-430l-86 -476h393l-26 -157h-394l-87 -487h429l-27 -162h-591l77 435h-332l-201 -435h-182z" />
    <glyph glyph-name="OE" unicode="&#x152;" 
d="M360 896l-39 -220c-13 -84 -21 -172 -21 -248c0 -166 72 -270 185 -270c146 0 242 126 288 379l43 238c14 70 19 128 19 213c0 198 -66 298 -197 298c-139 0 -231 -128 -278 -390zM716 174c-62 -143 -151 -207 -285 -207c-190 0 -305 158 -305 421c0 105 6 183 25 299
l43 251c60 357 207 539 432 539c158 0 256 -100 272 -272h8l42 238h564l-26 -162h-420l-84 -465h385l-26 -159h-386l-90 -496h420l-27 -161h-564l30 174h-8z" />
    <glyph glyph-name="Eth" unicode="&#xd0;" 
d="M364 162h198c307 0 488 156 542 462c0 5 22 122 22 128c5 39 9 88 9 135c0 263 -126 395 -378 395h-193l-83 -467h260l-26 -157h-262zM414 1443h376c338 0 525 -192 525 -540c0 -53 -3 -108 -9 -149c0 -8 -24 -138 -25 -146c-70 -406 -305 -608 -711 -608h-410l116 658
h-134l26 157h135z" />
    <glyph glyph-name="Thorn" unicode="&#xde;" 
d="M442 1443h180l-47 -266h325c249 0 390 -156 365 -403c-27 -274 -206 -432 -489 -432h-346l-61 -342h-181zM548 1014l-90 -508h304c191 0 304 93 322 263c18 165 -62 245 -243 245h-293z" />
    <glyph glyph-name="Alphagreek" unicode="&#x391;" 
d="M531 565h410l-83 666h-5zM1012 0l-52 414h-503l-200 -414h-184l720 1443h188l207 -1443h-176z" />
    <glyph glyph-name="Betagreek" unicode="&#x392;" 
d="M592 1291l-85 -471h272c191 0 320 107 321 264c1 135 -87 207 -254 207h-254zM388 153h310c222 0 366 111 366 283c0 153 -108 237 -304 237h-278zM188 0l254 1443h451c246 0 393 -124 392 -329c-2 -175 -124 -322 -296 -357l-2 -11c159 -30 259 -155 258 -323
c-2 -259 -210 -423 -539 -423h-518z" />
    <glyph glyph-name="Gammagreek" unicode="&#x393;" 
d="M263 0l254 1443h852l-27 -162h-674l-228 -1281h-177z" />
    <glyph glyph-name="Deltagreek" unicode="&#x394;" 
d="M90 0l21 119l682 1324h188l209 -1324l-20 -119h-1080zM314 162h697l2 14l-155 1058h-5l-537 -1058z" />
    <glyph glyph-name="Deltagreek" unicode="&#x2206;" 
d="M90 0l21 119l682 1324h188l209 -1324l-20 -119h-1080zM314 162h697l2 14l-155 1058h-5l-537 -1058z" />
    <glyph glyph-name="Epsilongreek" unicode="&#x395;" 
d="M1109 162l-27 -162h-852l254 1443h852l-27 -162h-674l-85 -468h638l-26 -155h-638l-90 -496h675z" />
    <glyph glyph-name="Zetagreek" unicode="&#x396;" 
d="M137 0l22 137l960 1132l1 12h-730l26 162h956l-23 -140l-960 -1129l-2 -12h772l-27 -162h-995z" />
    <glyph glyph-name="Etagreek" unicode="&#x397;" 
d="M1113 0h-175l116 656h-609l-117 -656h-175l254 1443h175l-110 -625h609l111 625h175z" />
    <glyph glyph-name="Thetagreek" unicode="&#x398;" 
d="M498 643l27 159h495l-26 -159h-496zM1258 524c-65 -361 -262 -554 -567 -554c-289 0 -486 210 -486 518c0 89 4 152 15 205l42 232c60 345 268 548 558 548c300 0 495 -209 495 -529c0 -62 -5 -121 -14 -188zM704 137c203 0 337 149 386 422l41 234c7 42 13 107 13 150
c0 218 -128 363 -331 363c-202 0 -334 -141 -381 -409l-40 -225c-10 -59 -14 -107 -14 -164c0 -228 122 -371 326 -371z" />
    <glyph glyph-name="Iotagreek" unicode="&#x399;" 
d="M1013 0h-760l26 157h292l202 1129h-292l26 157h760l-25 -157h-293l-202 -1129h293z" />
    <glyph glyph-name="Kappagreek" unicode="&#x39a;" 
d="M821 801l415 -801h-201l-354 685l-204 -187l-89 -498h-172l254 1443h172l-128 -709h11l737 709h214z" />
    <glyph glyph-name="Lambdagreek" unicode="&#x39b;" 
d="M91 0l702 1443h188l188 -1443h-175l-136 1227h-5l-578 -1227h-184z" />
    <glyph glyph-name="Mugreek" unicode="&#x39c;" 
d="M356 554l-99 -554h-158l254 1443h192l173 -893h12l485 893h206l-254 -1443h-158l99 554l113 584h-13l-445 -799h-138l-162 799h-13z" />
    <glyph glyph-name="Nugreek" unicode="&#x39d;" 
d="M312 0h-159l254 1443h169l417 -1123h14l201 1123h159l-254 -1443h-167l-419 1126h-14z" />
    <glyph glyph-name="Xigreek" unicode="&#x39e;" 
d="M159 0l29 167h947l-28 -167h-948zM355 651l27 166h789l-27 -166h-789zM386 1276l27 167h948l-28 -167h-947z" />
    <glyph glyph-name="Omicrongreek" unicode="&#x39f;" 
d="M1258 524c-65 -361 -262 -554 -567 -554c-289 0 -486 210 -486 518c0 88 4 151 15 205l42 232c60 345 268 548 558 548c300 0 495 -209 495 -529c0 -61 -5 -124 -14 -188zM705 137c196 0 330 148 379 422l42 234c7 42 12 107 12 150c0 219 -129 363 -326 363
c-194 0 -327 -140 -374 -409l-41 -225c-10 -60 -14 -108 -14 -164c0 -229 124 -371 322 -371z" />
    <glyph glyph-name="Pigreek" unicode="&#x3a0;" 
d="M160 0l254 1443h946l-254 -1443h-176l227 1281h-594l-227 -1281h-176z" />
    <glyph glyph-name="Rhogreek" unicode="&#x3a1;" 
d="M452 1443h454c258 0 423 -152 423 -390c0 -332 -215 -535 -573 -535h-289l-92 -518h-177zM603 1286l-109 -611h272c242 0 387 136 387 364c0 156 -103 247 -279 247h-271z" />
    <glyph glyph-name="Sigmagreek" unicode="&#x3a3;" 
d="M137 0l22 131l488 598l-261 573l23 141h904l-26 -162h-695l-3 -14l249 -539l-6 -28l-439 -526l-2 -12h714l-27 -162h-941z" />
    <glyph glyph-name="Taugreek" unicode="&#x3a4;" 
d="M721 0h-176l228 1281h-436l26 162h1048l-27 -162h-435z" />
    <glyph glyph-name="Upsilongreek" unicode="&#x3a5;" 
d="M721 0h-175l106 598l-351 845h185l270 -663h12l493 663h205l-639 -844z" />
    <glyph glyph-name="Phigreek" unicode="&#x3a6;" 
d="M731 58l-24 -132h-165l24 138c-253 40 -394 231 -394 534c0 200 47 398 156 544c100 134 253 223 467 226l25 140h166l-26 -145c253 -41 394 -232 394 -535c0 -198 -46 -397 -156 -543c-100 -136 -253 -225 -467 -227zM329 595c0 -224 95 -352 265 -382l179 1008
c-152 0 -255 -74 -324 -178c-92 -136 -120 -323 -120 -448zM1197 831c0 224 -94 352 -264 382l-180 -1008c152 0 255 74 324 178c92 136 120 323 120 448z" />
    <glyph glyph-name="Chigreek" unicode="&#x3a7;" 
d="M58 0l587 727l-336 716h189l269 -584h9l476 584h206l-602 -724l348 -719h-188l-279 581h-9l-469 -581h-201z" />
    <glyph glyph-name="Psigreek" unicode="&#x3a8;" 
d="M547 0l58 329c-254 33 -377 160 -377 398c0 54 6 115 19 190l92 526h163l-94 -540c-13 -77 -19 -123 -19 -159c0 -160 77 -245 246 -263l170 962h164l-171 -968c214 2 325 116 373 389l101 579h163l-106 -607c-60 -347 -236 -505 -552 -514l-58 -322h-172z" />
    <glyph glyph-name="Omegagreek" unicode="&#x3a9;" 
d="M828 1474c320 0 490 -194 490 -523c0 -44 -1 -112 -13 -182c-1 -9 -20 -108 -21 -117c-46 -239 -148 -382 -329 -481l-2 -12h256l-27 -159h-453l30 185c166 55 291 217 338 438c8 15 28 112 31 133c15 84 16 125 16 175c0 237 -113 376 -331 376
c-199 0 -335 -142 -385 -386c-5 -14 -33 -168 -35 -188c-7 -47 -9 -90 -9 -133c1 -181 62 -337 176 -408l-32 -192h-430l26 159h259l2 12c-109 85 -175 252 -175 444c0 53 4 106 12 153c2 15 32 175 37 189c67 322 270 517 569 517z" />
    <glyph glyph-name="Omegagreek" unicode="&#x2126;" 
d="M828 1474c320 0 490 -194 490 -523c0 -44 -1 -112 -13 -182c-1 -9 -20 -108 -21 -117c-46 -239 -148 -382 -329 -481l-2 -12h256l-27 -159h-453l30 185c166 55 291 217 338 438c8 15 28 112 31 133c15 84 16 125 16 175c0 237 -113 376 -331 376
c-199 0 -335 -142 -385 -386c-5 -14 -33 -168 -35 -188c-7 -47 -9 -90 -9 -133c1 -181 62 -337 176 -408l-32 -192h-430l26 159h259l2 12c-109 85 -175 252 -175 444c0 53 4 106 12 153c2 15 32 175 37 189c67 322 270 517 569 517z" />
    <glyph glyph-name="Alphatonosgreek" unicode="&#x386;" 
d="M653 1443l-234 -346h-141l175 346h200zM629 565h323l-40 666h-5zM986 0l-25 414h-394l-173 -414h-176l630 1443h189l122 -1443h-173z" />
    <glyph glyph-name="Epsilontonosgreek" unicode="&#x388;" 
d="M1158 162l-27 -162h-663l254 1443h663l-27 -162h-488l-85 -468h452l-26 -155h-452l-90 -496h489zM223 1097l175 346h200l-234 -346h-141z" />
    <glyph glyph-name="Etatonosgreek" unicode="&#x389;" 
d="M1186 0h-168l117 660h-427l-117 -660h-168l254 1443h168l-111 -630h427l111 630h168zM206 1097l176 346h199l-234 -346h-141z" />
    <glyph glyph-name="Iotatonosgreek" unicode="&#x38a;" 
d="M1184 0h-716l26 157h275l202 1129h-275l26 157h716l-26 -157h-275l-202 -1129h275zM266 1097l176 346h199l-234 -346h-141z" />
    <glyph glyph-name="Iotatonosgreek.1" 
d="M867 0h-176l254 1443h176zM327 1097l175 346h200l-234 -346h-141z" />
    <glyph glyph-name="Iotadieresisgreek" unicode="&#x3aa;" 
d="M1013 0h-760l26 157h292l202 1129h-292l26 157h760l-25 -157h-293l-202 -1129h293zM743 1651c-62 0 -117 56 -117 121c0 66 55 121 117 121s117 -55 117 -121c0 -65 -55 -121 -117 -121zM1147 1651c-63 0 -118 56 -118 121c0 66 55 121 118 121c62 0 117 -55 117 -121
c0 -65 -55 -121 -117 -121z" />
    <glyph glyph-name="Omicrontonosgreek" unicode="&#x38c;" 
d="M592 463c0 -177 60 -327 228 -327c157 0 275 138 323 404l38 224c16 89 22 193 22 228c0 178 -71 314 -231 314c-144 0 -270 -132 -316 -385l-49 -278c-11 -65 -15 -122 -15 -180zM1316 534c-65 -372 -239 -564 -503 -564c-248 0 -384 183 -384 478c0 72 8 157 31 286
l33 187c63 364 241 552 500 552c255 0 384 -192 384 -474c0 -42 -6 -144 -19 -225zM224 1097l175 346h200l-234 -346h-141z" />
    <glyph glyph-name="Upsilontonosgreek" unicode="&#x38e;" 
d="M885 0h-169l106 597l-204 846h180l133 -660h12l358 660h197l-507 -845zM211 1097l176 346h199l-234 -346h-141z" />
    <glyph glyph-name="Upsilondieresisgreek" unicode="&#x3ab;" 
d="M721 0h-175l106 598l-351 845h185l270 -663h12l493 663h205l-639 -844zM730 1651c-63 0 -117 56 -117 121c0 66 54 121 117 121c62 0 117 -55 117 -121c0 -65 -55 -121 -117 -121zM1133 1651c-62 0 -117 56 -117 121c0 66 55 121 117 121c63 0 118 -55 118 -121
c0 -65 -55 -121 -118 -121z" />
    <glyph glyph-name="Omegatonosgreek" unicode="&#x38f;" 
d="M935 1473c284 0 433 -173 433 -500c0 -47 -2 -122 -14 -188c0 -8 -19 -108 -20 -117c-44 -247 -131 -397 -316 -505l-2 -12h245l-26 -151h-434l33 199c178 65 291 238 336 493c1 8 17 93 17 99c14 76 16 117 16 167c0 228 -89 350 -278 350s-298 -122 -348 -400
c-2 -13 -29 -161 -30 -170c-9 -53 -12 -111 -12 -153c0 -167 60 -308 171 -377l-34 -208h-407l26 151h243l2 12c-105 86 -170 247 -170 423c0 47 4 98 12 147c1 10 29 165 31 177c65 369 246 563 526 563zM164 1097l175 346h200l-234 -346h-141z" />
    <glyph glyph-name="Acyrillic" unicode="&#x410;" 
d="M531 565h410l-83 666h-5zM1012 0l-52 414h-503l-200 -414h-184l720 1443h188l207 -1443h-176z" />
    <glyph glyph-name="uni04D0" unicode="&#x4d0;" 
d="M531 565h410l-83 666h-5zM793 1443h188l207 -1443h-176l-52 414h-503l-200 -414h-184zM1146 1924h144c-28 -187 -169 -312 -370 -312c-199 0 -323 143 -291 312h138c-17 -113 43 -198 168 -198c114 0 193 84 211 198z" />
    <glyph glyph-name="uni04D2" unicode="&#x4d2;" 
d="M743 1651c-63 0 -117 56 -117 121c0 66 54 121 117 121c62 0 117 -55 117 -121c0 -65 -55 -121 -117 -121zM531 565h410l-83 666h-5zM793 1443h188l207 -1443h-176l-52 414h-503l-200 -414h-184zM1146 1893c63 0 118 -55 118 -121c0 -65 -55 -121 -118 -121
c-62 0 -117 56 -117 121c0 66 55 121 117 121z" />
    <glyph glyph-name="uniF50E" 
d="M531 565h410l-83 666h-5zM793 1443h188l207 -1443h-176l-52 414h-503l-200 -414h-184zM625 1834h660l-24 -139h-660z" />
    <glyph glyph-name="uniF460" 
d="M1297 1916l-332 -304h-193l310 304h215zM531 565h410l-83 666h-5zM793 1443h188l207 -1443h-176l-52 414h-503l-200 -414h-184z" />
    <glyph glyph-name="uni041B.BUL" 
d="M858 1231l-601 -1231h-184l726 1443h189l219 -1443h-180l-164 1231h-5z" />
    <glyph glyph-name="Becyrillic" unicode="&#x411;" 
d="M690 0h-512l254 1443h850l-26 -162h-672l-76 -414h305c269 0 429 -152 429 -401c0 -276 -224 -466 -552 -466zM383 159h311c218 0 366 124 366 303c0 161 -102 249 -290 249h-288z" />
    <glyph glyph-name="Vecyrillic" unicode="&#x412;" 
d="M592 1291l-85 -471h272c191 0 320 107 321 264c1 135 -87 207 -254 207h-254zM388 153h310c222 0 366 111 366 283c0 153 -108 237 -304 237h-278zM188 0l254 1443h451c246 0 393 -124 392 -329c-2 -175 -124 -322 -296 -357l-2 -11c159 -30 259 -155 258 -323
c-2 -259 -210 -423 -539 -423h-518z" />
    <glyph glyph-name="Gecyrillic" unicode="&#x413;" 
d="M1464 1443l-73 -424h-163l46 261h-555l-198 -1118h271l-26 -162h-701l26 162h252l196 1119h-247l27 162h1145z" />
    <glyph glyph-name="Gjecyrillic" unicode="&#x403;" 
d="M1371 1916l-332 -304h-194l311 304h215zM1464 1443l-73 -424h-163l46 261h-555l-198 -1118h271l-26 -162h-701l26 162h252l196 1119h-247l27 162h1145z" />
    <glyph glyph-name="uni04F6" unicode="&#x4f6;" 
d="M1464 1443l-73 -424h-163l46 261h-555l-198 -1118h272l-15 -88l-12 -74h-1l-49 -286h-166l50 286h-535l26 162h252l196 1119h-247l27 162h1145z" />
    <glyph glyph-name="Geupturncyrillic" unicode="&#x490;" 
d="M1513 1719l-73 -420h-1l-48 -280h-163l46 261h-555l-198 -1118h271l-26 -162h-701l26 162h252l196 1119h-247l27 162h984l48 276h162z" />
    <glyph glyph-name="uni0492" unicode="&#x492;" 
d="M1464 1443l-73 -424h-163l46 261h-555l-83 -467h352l-25 -152h-354l-88 -499h271l-26 -162h-701l26 162h252l87 499h-250l26 152h251l82 468h-247l27 162h1145z" />
    <glyph glyph-name="uniF53C" 
d="M431 0h-177l254 1443h851l-26 -162h-675l-89 -495h617l-27 -157h-617z" />
    <glyph glyph-name="uni04FA" unicode="&#x4fa;" 
d="M1465 1443l-74 -424h-162l45 261h-555l-83 -467h352l-25 -152h-354l-117 -661c-44 -258 -179 -335 -366 -335c-55 0 -93 3 -116 6l26 155c17 -2 51 -3 93 -3c111 0 165 65 185 177l31 178l85 483h-250l26 152h251l82 468h-247l27 162h1146z" />
    <glyph glyph-name="Decyrillic" unicode="&#x414;" 
d="M1091 0h-910l-50 -285h-163l78 447h89c91 51 152 163 204 390l208 891h796l-227 -1281h164l-77 -447h-162zM682 1281l-176 -745c-48 -203 -95 -310 -157 -359l-2 -15h593l201 1119h-459z" />
    <glyph glyph-name="uni0414.BUL" 
d="M847 1231l-504 -1069h633l-124 1069h-5zM1157 162h119l-77 -447h-166l51 285h-899l-51 -285h-167l78 447h122l626 1281h189z" />
    <glyph glyph-name="Iecyrillic" unicode="&#x415;" 
d="M1109 162l-27 -162h-852l254 1443h852l-27 -162h-674l-85 -468h638l-26 -155h-638l-90 -496h675z" />
    <glyph glyph-name="Iocyrillic" unicode="&#x401;" 
d="M1109 162l-27 -162h-852l254 1443h852l-27 -162h-674l-85 -468h638l-26 -155h-638l-90 -496h675zM762 1651c-62 0 -117 56 -117 121c0 66 55 121 117 121c63 0 118 -55 118 -121c0 -65 -55 -121 -118 -121zM1166 1651c-62 0 -117 56 -117 121c0 66 55 121 117 121
s117 -55 117 -121c0 -65 -55 -121 -117 -121z" />
    <glyph glyph-name="uni04D6" unicode="&#x4d6;" 
d="M1109 162l-27 -162h-852l254 1443h852l-27 -162h-674l-85 -468h638l-26 -155h-638l-90 -496h675zM936 1612c-198 0 -322 143 -290 312h137c-16 -113 44 -198 168 -198c115 0 194 84 212 198h143c-28 -187 -168 -312 -370 -312z" />
    <glyph glyph-name="uniF510" 
d="M1109 162l-27 -162h-852l254 1443h852l-27 -162h-674l-85 -468h638l-26 -155h-638l-90 -496h675zM1281 1695h-660l24 139h660z" />
    <glyph glyph-name="uniF512" 
d="M1109 162l-27 -162h-852l254 1443h852l-27 -162h-674l-85 -468h638l-26 -155h-638l-90 -496h675zM1132 1873c59 0 107 -49 107 -110s-48 -110 -107 -110s-106 49 -106 110s47 110 106 110zM620 2018l20 120h663l-20 -120h-663zM744 1873c59 0 106 -49 106 -110
s-47 -110 -106 -110c-60 0 -107 49 -107 110s47 110 107 110z" />
    <glyph glyph-name="uni0400" unicode="&#x400;" 
d="M792 1916l206 -304h-177l-226 304h197zM1109 162l-27 -162h-852l254 1443h852l-27 -162h-674l-85 -468h638l-26 -155h-638l-90 -496h675z" />
    <glyph glyph-name="uniF461" 
d="M1109 162l-27 -162h-852l254 1443h852l-27 -162h-674l-85 -468h638l-26 -155h-638l-90 -496h675zM791 1612l311 304h215l-332 -304h-194z" />
    <glyph glyph-name="uniF469" 
d="M1109 162l-27 -162h-852l254 1443h852l-27 -162h-674l-85 -468h638l-26 -155h-638l-90 -496h675zM627 1604c-62 0 -112 52 -112 115c0 64 50 115 112 115s112 -51 112 -115c0 -63 -50 -115 -112 -115zM1239 1604c-61 0 -112 52 -112 115c0 64 51 115 112 115
c62 0 112 -51 112 -115c0 -63 -50 -115 -112 -115zM810 1589l96 343h182l-143 -343h-135z" />
    <glyph glyph-name="uniF514" 
d="M1109 162l-27 -162h-852l254 1443h852l-27 -162h-674l-85 -468h638l-26 -155h-638l-90 -496h675zM960 1925c198 0 323 -143 290 -312h-137c16 113 -44 198 -168 198c-115 0 -194 -84 -212 -198h-143c28 187 169 312 370 312zM987 1992c-198 0 -323 143 -290 312h137
c-16 -113 44 -198 168 -198c115 0 194 84 212 198h143c-28 -187 -169 -312 -370 -312z" />
    <glyph glyph-name="Zhecyrillic" unicode="&#x416;" 
d="M168 0h-177l507 739l-217 704h163l190 -642h63l114 642h152l-113 -642h51l416 642h175l-461 -711l244 -732h-165l-220 658h-63l-118 -658h-152l117 658h-52z" />
    <glyph glyph-name="uni04C1" unicode="&#x4c1;" 
d="M168 0h-177l507 739l-217 704h163l190 -642h63l114 642h152l-113 -642h51l416 642h175l-461 -711l244 -732h-165l-220 658h-63l-118 -658h-152l117 658h-52zM905 1612c-199 0 -323 143 -291 312h137c-16 -113 44 -198 169 -198c114 0 193 84 211 198h144
c-28 -187 -169 -312 -370 -312z" />
    <glyph glyph-name="uni04DC" unicode="&#x4dc;" 
d="M168 0h-177l507 739l-217 704h163l190 -642h63l114 642h152l-113 -642h51l416 642h175l-461 -711l244 -732h-165l-220 658h-63l-118 -658h-152l117 658h-52zM721 1651c-63 0 -118 56 -118 121c0 66 55 121 118 121c62 0 117 -55 117 -121c0 -65 -55 -121 -117 -121z
M1124 1651c-62 0 -117 56 -117 121c0 66 55 121 117 121c63 0 117 -55 117 -121c0 -65 -54 -121 -117 -121z" />
    <glyph glyph-name="uni0496" unicode="&#x496;" 
d="M981 732l170 -573h141l-77 -445h-144l51 286h-81l-198 658h-55l-119 -658h-145l118 658h-45l-435 -658h-168l483 739l-195 704h155l170 -642h59l116 642h144l-115 -642h49l399 642h166z" />
    <glyph glyph-name="uni0416.BUL" 
d="M594 671l-442 -671h-161l533 810l-237 633h144l258 -697h9l124 697h142l-124 -697h9l507 697h152l-476 -650l246 -793h-153l-204 671l-124 -172l-88 -499h-142l88 499z" />
    <glyph glyph-name="Zecyrillic" unicode="&#x417;" 
d="M563 661l27 164h168c195 0 331 109 331 265c0 139 -109 227 -282 227c-149 0 -260 -70 -291 -184h-168c39 210 218 340 468 340c268 0 445 -145 445 -364c0 -185 -145 -344 -329 -362v-13c164 -31 268 -154 268 -318c0 -266 -212 -446 -531 -446
c-273 0 -472 155 -472 370c0 5 0 46 1 50h168c-1 -2 -1 -15 -1 -19c0 -136 136 -241 309 -241c209 0 345 116 345 293c0 145 -117 238 -297 238h-159z" />
    <glyph glyph-name="uni04DE" unicode="&#x4de;" 
d="M563 661l27 164h168c195 0 331 109 331 265c0 139 -109 227 -282 227c-149 0 -260 -70 -291 -184h-168c39 210 218 340 468 340c268 0 445 -145 445 -364c0 -185 -145 -344 -329 -362v-13c164 -31 268 -154 268 -318c0 -266 -212 -446 -531 -446
c-273 0 -472 155 -472 370c0 5 0 46 1 50h168c-1 -2 -1 -15 -1 -19c0 -136 136 -241 309 -241c209 0 345 116 345 293c0 145 -117 238 -297 238h-159zM723 1651c-62 0 -117 56 -117 121c0 66 55 121 117 121c63 0 117 -55 117 -121c0 -65 -54 -121 -117 -121zM1127 1651
c-63 0 -117 56 -117 121c0 66 54 121 117 121c62 0 117 -55 117 -121c0 -65 -55 -121 -117 -121z" />
    <glyph glyph-name="uni0498" unicode="&#x498;" 
d="M932 747v-13c164 -31 268 -154 268 -318c0 -247 -183 -420 -464 -443l-45 -259h-166l46 263c-221 32 -374 175 -374 363c0 5 0 46 1 50h168c-1 -2 -1 -15 -1 -19c0 -136 136 -241 309 -241c209 0 345 116 345 293c0 145 -117 238 -297 238h-159l27 164h168
c195 0 331 109 331 265c0 139 -109 227 -282 227c-149 0 -260 -70 -291 -184h-168c39 210 218 340 468 340c268 0 445 -145 445 -364c0 -185 -145 -344 -329 -362z" />
    <glyph glyph-name="uniF50A" 
d="M932 747v-13c164 -31 268 -154 268 -318c0 -256 -196 -432 -495 -445l-53 -104c118 -4 184 -59 184 -152c0 -118 -101 -200 -249 -200c-51 0 -111 10 -159 27l19 108c31 -12 99 -22 138 -22c73 0 115 25 115 72c0 50 -47 74 -139 74h-53l4 84l62 119
c-223 31 -377 174 -377 363c0 5 0 46 1 50h168c-1 -2 -1 -15 -1 -19c0 -136 136 -241 309 -241c209 0 345 116 345 293c0 145 -117 238 -297 238h-159l27 164h168c195 0 331 109 331 265c0 139 -109 227 -282 227c-149 0 -260 -70 -291 -184h-168c39 210 218 340 468 340
c268 0 445 -145 445 -364c0 -185 -145 -344 -329 -362z" />
    <glyph glyph-name="uniF516" 
d="M563 661l27 164h168c195 0 331 109 331 265c0 139 -109 227 -282 227c-149 0 -260 -70 -291 -184h-168c39 210 218 340 468 340c268 0 445 -145 445 -364c0 -185 -145 -344 -329 -362v-13c164 -31 268 -154 268 -318c0 -266 -212 -446 -531 -446
c-273 0 -472 155 -472 370c0 5 0 46 1 50h168c-1 -2 -1 -15 -1 -19c0 -136 136 -241 309 -241c209 0 345 116 345 293c0 145 -117 238 -297 238h-159zM775 1610l-233 309h170l144 -200h14l215 200h190l-340 -309h-160z" />
    <glyph glyph-name="Iicyrillic" unicode="&#x418;" 
d="M406 1443h157l-200 -1123h14l828 1123h163l-254 -1443h-157l200 1122h-14l-828 -1122h-163z" />
    <glyph glyph-name="Iishortcyrillic" unicode="&#x419;" 
d="M1150 1924h143c-28 -187 -169 -312 -370 -312c-198 0 -323 143 -290 312h137c-16 -113 44 -198 168 -198c115 0 194 84 212 198zM406 1443h157l-200 -1123h14l828 1123h163l-254 -1443h-157l200 1122h-14l-828 -1122h-163z" />
    <glyph glyph-name="uni040D" unicode="&#x40d;" 
d="M786 1916l205 -304h-176l-227 304h198zM406 1443h157l-200 -1123h14l828 1123h163l-254 -1443h-157l200 1122h-14l-828 -1122h-163z" />
    <glyph glyph-name="uni04E2" unicode="&#x4e2;" 
d="M1254 1692h-660l24 139h660zM406 1443h157l-200 -1123h14l828 1123h163l-254 -1443h-157l200 1122h-14l-828 -1122h-163z" />
    <glyph glyph-name="uni04E4" unicode="&#x4e4;" 
d="M1141 1651c-62 0 -117 56 -117 121c0 66 55 121 117 121s117 -55 117 -121c0 -65 -55 -121 -117 -121zM737 1651c-62 0 -117 56 -117 121c0 66 55 121 117 121c63 0 118 -55 118 -121c0 -65 -55 -121 -118 -121zM406 1443h157l-200 -1123h14l828 1123h163l-254 -1443
h-157l200 1122h-14l-828 -1122h-163z" />
    <glyph glyph-name="uni048A" unicode="&#x48a;" 
d="M1142 1924h141c-27 -185 -169 -312 -368 -312c-205 0 -323 132 -291 312h141c-19 -117 46 -197 156 -197c111 0 201 79 221 197zM1353 1443l-225 -1277h165l-8 -48l-207 -404h-151l155 286h-137l27 166h3l171 956h-14l-827 -1122h-161l254 1443h155l-202 -1123h14
l825 1123h163z" />
    <glyph glyph-name="uniF462" 
d="M795 1612l311 304h215l-332 -304h-194zM406 1443h157l-200 -1123h14l828 1123h163l-254 -1443h-157l200 1122h-14l-828 -1122h-163z" />
    <glyph glyph-name="uniF532" 
d="M1150 1924h143c-28 -187 -169 -312 -370 -312c-198 0 -323 143 -290 312h137c-16 -113 44 -198 168 -198c115 0 194 84 212 198zM1205 1443h163l-254 -1443h-1c-44 -255 -164 -335 -341 -335c-55 0 -93 3 -117 6l27 155c16 -2 51 -3 93 -3c109 0 161 67 181 177l31 178h2
l168 944h-14l-828 -1122h-163l254 1443h157l-200 -1123h14z" />
    <glyph glyph-name="Kacyrillic" unicode="&#x41a;" 
d="M586 1443l-113 -640h42l699 640h217l-784 -713l567 -730h-213l-506 657h-46l-117 -657h-173l254 1443h173z" />
    <glyph glyph-name="Kjecyrillic" unicode="&#x40c;" 
d="M726 1612l310 304h215l-332 -304h-193zM586 1443l-113 -640h42l699 640h217l-784 -713l567 -730h-213l-506 657h-46l-117 -657h-173l254 1443h173z" />
    <glyph glyph-name="uni049A" unicode="&#x49a;" 
d="M645 730l437 -563h188l-78 -452h-158l51 285h-85l-507 657h-46l-117 -657h-171l254 1443h171l-113 -640h43l698 640h215z" />
    <glyph glyph-name="uni049C" unicode="&#x49c;" 
d="M413 1443h168l-254 -1443h-168zM1433 1443l-497 -692l286 -751h-191l-258 661h-13l-62 -352h-136l151 856h136l-62 -349h12l450 627h184z" />
    <glyph glyph-name="uni049E" unicode="&#x49e;" 
d="M1431 1443l-784 -713l567 -730h-213l-506 657h-46l-117 -657h-173l208 1181h-173l26 154h174l19 108h173l-19 -108h247l-27 -154h-247l-67 -378h42l699 640h217z" />
    <glyph glyph-name="uni04A0" unicode="&#x4a0;" 
d="M1445 1443l-584 -714l367 -729h-190l-335 657h-43l-116 -657h-166l227 1281h-392l27 162h558l-114 -640h42l526 640h193z" />
    <glyph glyph-name="uni04C3" unicode="&#x4c3;" 
d="M1427 1443l-725 -660c277 -44 447 -215 447 -488c0 -338 -217 -651 -602 -651c-31 0 -64 3 -81 8l24 152c21 -3 44 -4 73 -4c264 0 408 249 408 489c0 233 -170 369 -456 369h-67l-116 -658h-173l254 1443h173l-113 -631h48l691 631h215z" />
    <glyph glyph-name="uni041A.BUL" 
d="M821 801l415 -801h-201l-354 685l-204 -187l-89 -498h-172l254 1443h172l-128 -709h11l737 709h214z" />
    <glyph glyph-name="Elcyrillic" unicode="&#x41b;" 
d="M1379 1443l-254 -1443h-175l227 1281h-494l-94 -405c-195 -771 -251 -887 -487 -887c-25 0 -74 6 -88 12l30 173c20 -6 45 -9 63 -9c117 0 142 61 315 723l129 555h828z" />
    <glyph glyph-name="uni04C5" unicode="&#x4c5;" 
d="M1371 1443l-225 -1277h155l-8 -48l-209 -404h-162l155 286h-129l28 166h1l198 1115h-487l-176 -754c-83 -367 -204 -538 -422 -538c-25 0 -56 5 -76 12l28 166c10 -4 34 -7 52 -7c121 0 197 111 259 376l208 907h810z" />
    <glyph glyph-name="uniF530" 
d="M1371 1443l-225 -1277h156l-78 -452h-160l51 286h-169l27 166h2l197 1115h-486l-176 -754c-83 -367 -202 -538 -420 -538c-25 0 -56 5 -76 12l28 166c10 -4 34 -7 52 -7c121 0 194 111 256 376l208 907h813z" />
    <glyph glyph-name="uni052E" unicode="&#x52e;" 
d="M1371 1443l-225 -1277h156l-78 -452h-160l51 286h-169l27 166h2l197 1115h-486l-176 -754c-83 -367 -202 -538 -420 -538c-25 0 -56 5 -76 12l28 166c10 -4 34 -7 52 -7c121 0 194 111 256 376l208 907h813z" />
    <glyph glyph-name="uni0512" unicode="&#x512;" 
d="M551 1443h828l-254 -1443c-45 -261 -187 -335 -360 -335c-55 0 -93 3 -117 6l27 155c17 -2 51 -3 93 -3c110 0 162 68 182 177l31 178h1l195 1103h-494l-94 -405c-195 -771 -251 -887 -487 -887c-25 0 -74 6 -88 12l30 173c20 -6 45 -9 63 -9c117 0 142 61 315 723z" />
    <glyph glyph-name="Emcyrillic" unicode="&#x41c;" 
d="M356 554l-99 -554h-158l254 1443h192l173 -893h12l485 893h206l-254 -1443h-158l99 554l113 584h-13l-445 -799h-138l-162 799h-13z" />
    <glyph glyph-name="uni04CD" unicode="&#x4cd;" 
d="M1368 1443l-225 -1277h154l-8 -48l-208 -404h-156l155 286h-124l28 166h1l69 388l113 584h-13l-419 -799h-138l-135 799h-13l-93 -584l-99 -554h-158l254 1443h195l148 -893h13l464 893h195z" />
    <glyph glyph-name="Encyrillic" unicode="&#x41d;" 
d="M1113 0h-175l116 656h-609l-117 -656h-175l254 1443h175l-110 -625h609l111 625h175z" />
    <glyph glyph-name="uni04C7" unicode="&#x4c7;" 
d="M1192 1443h175l-254 -1443c-46 -263 -177 -335 -360 -335c-55 0 -93 3 -117 6l27 155c16 -2 51 -3 93 -3c107 0 161 63 182 177l31 178l85 478h-609l-117 -656h-175l254 1443h175l-110 -625h609z" />
    <glyph glyph-name="uni04A2" unicode="&#x4a2;" 
d="M1360 1443l-225 -1277h157l-78 -452h-166l51 286h-166l26 166h3l87 490h-606l-116 -656h-174l254 1443h174l-111 -625h606l111 625h173z" />
    <glyph glyph-name="uni04C9" unicode="&#x4c9;" 
d="M1366 1443l-225 -1277h146l-8 -48l-207 -404h-159l153 286h-128l28 166h1l87 490h-610l-116 -656h-175l254 1443h175l-111 -625h610l111 625h174z" />
    <glyph glyph-name="uni04A4" unicode="&#x4a4;" 
d="M1524 1443l-27 -162h-440l-225 -1281h-169l116 656h-424l-116 -656h-169l254 1443h169l-111 -625h425l110 625h607z" />
    <glyph glyph-name="Ocyrillic" unicode="&#x41e;" 
d="M1258 524c-65 -361 -262 -554 -567 -554c-289 0 -486 210 -486 518c0 88 4 151 15 205l42 232c60 345 268 548 558 548c300 0 495 -209 495 -529c0 -61 -5 -124 -14 -188zM705 137c196 0 330 148 379 422l42 234c7 42 12 107 12 150c0 219 -129 363 -326 363
c-194 0 -327 -140 -374 -409l-41 -225c-10 -60 -14 -108 -14 -164c0 -229 124 -371 322 -371z" />
    <glyph glyph-name="uni04E6" unicode="&#x4e6;" 
d="M1258 524c-65 -361 -262 -554 -567 -554c-289 0 -486 210 -486 518c0 88 4 151 15 205l42 232c60 345 268 548 558 548c300 0 495 -209 495 -529c0 -61 -5 -124 -14 -188zM705 137c196 0 330 148 379 422l42 234c7 42 12 107 12 150c0 219 -129 363 -326 363
c-194 0 -327 -140 -374 -409l-41 -225c-10 -60 -14 -108 -14 -164c0 -229 124 -371 322 -371zM743 1651c-63 0 -117 56 -117 121c0 66 54 121 117 121c62 0 117 -55 117 -121c0 -65 -55 -121 -117 -121zM1146 1651c-62 0 -117 56 -117 121c0 66 55 121 117 121
c63 0 118 -55 118 -121c0 -65 -55 -121 -118 -121z" />
    <glyph glyph-name="uniF518" 
d="M1258 524c-65 -361 -262 -554 -567 -554c-289 0 -486 210 -486 518c0 88 4 151 15 205l42 232c60 345 268 548 558 548c300 0 495 -209 495 -529c0 -61 -5 -124 -14 -188zM705 137c196 0 330 148 379 422l42 234c7 42 12 107 12 150c0 219 -129 363 -326 363
c-194 0 -327 -140 -374 -409l-41 -225c-10 -60 -14 -108 -14 -164c0 -229 124 -371 322 -371zM1261 1695h-660l24 139h660z" />
    <glyph glyph-name="uniF463" 
d="M1258 524c-65 -361 -262 -554 -567 -554c-289 0 -486 210 -486 518c0 88 4 151 15 205l42 232c60 345 268 548 558 548c300 0 495 -209 495 -529c0 -61 -5 -124 -14 -188zM705 137c196 0 330 148 379 422l42 234c7 42 12 107 12 150c0 219 -129 363 -326 363
c-194 0 -327 -140 -374 -409l-41 -225c-10 -60 -14 -108 -14 -164c0 -229 124 -371 322 -371zM772 1612l310 304h215l-332 -304h-193z" />
    <glyph glyph-name="uniF4D2" 
d="M773 1916l205 -304h-177l-226 304h198zM438 897l-41 -225c-10 -60 -14 -108 -14 -164c0 -229 124 -371 322 -371c196 0 330 148 379 422l42 234c7 42 12 107 12 150c0 219 -129 363 -326 363c-194 0 -327 -140 -374 -409zM1301 756l-43 -232
c-65 -361 -262 -554 -567 -554c-289 0 -486 210 -486 518c0 88 4 151 15 205l42 232c60 345 268 548 558 548c300 0 495 -209 495 -529c0 -61 -5 -124 -14 -188z" />
    <glyph glyph-name="uniF51A" 
d="M1258 524c-65 -361 -262 -554 -567 -554c-289 0 -486 210 -486 518c0 88 4 151 15 205l42 232c60 345 268 548 558 548c300 0 495 -209 495 -529c0 -61 -5 -124 -14 -188zM705 137c196 0 330 148 379 422l42 234c7 42 12 107 12 150c0 219 -129 363 -326 363
c-194 0 -327 -140 -374 -409l-41 -225c-10 -60 -14 -108 -14 -164c0 -229 124 -371 322 -371zM903 1609c-199 0 -323 143 -291 312h137c-16 -113 44 -198 169 -198c114 0 193 84 211 198h144c-29 -187 -169 -312 -370 -312z" />
    <glyph glyph-name="uni04E8" unicode="&#x4e8;" 
d="M1101 654h-707c-8 -52 -11 -96 -11 -146c0 -229 124 -371 322 -371c196 0 330 148 379 422zM422 811h707c5 41 9 95 9 132c0 219 -129 363 -326 363c-194 0 -327 -140 -374 -409zM220 693l42 232c60 345 268 548 558 548c300 0 495 -209 495 -529c0 -61 -5 -124 -14 -188
l-43 -232c-65 -361 -262 -554 -567 -554c-289 0 -486 210 -486 518c0 88 4 151 15 205z" />
    <glyph glyph-name="uniF49A" 
d="M1285 1835l-24 -139h-660l24 139h660zM1101 654h-707c-8 -52 -11 -96 -11 -146c0 -229 124 -371 322 -371c196 0 330 148 379 422zM422 811h707c5 41 9 95 9 132c0 219 -129 363 -326 363c-194 0 -327 -140 -374 -409zM220 693l42 232c60 345 268 548 558 548
c300 0 495 -209 495 -529c0 -61 -5 -124 -14 -188l-43 -232c-65 -361 -262 -554 -567 -554c-289 0 -486 210 -486 518c0 88 4 151 15 205z" />
    <glyph glyph-name="uniF51C" 
d="M1123 1924h144c-28 -187 -169 -312 -370 -312c-199 0 -323 143 -291 312h138c-17 -113 43 -198 168 -198c114 0 193 84 211 198zM1101 654h-707c-8 -52 -11 -96 -11 -146c0 -229 124 -371 322 -371c196 0 330 148 379 422zM422 811h707c5 41 9 95 9 132
c0 219 -129 363 -326 363c-194 0 -327 -140 -374 -409zM220 693l42 232c60 345 268 548 558 548c300 0 495 -209 495 -529c0 -61 -5 -124 -14 -188l-43 -232c-65 -361 -262 -554 -567 -554c-289 0 -486 210 -486 518c0 88 4 151 15 205z" />
    <glyph glyph-name="uniF51E" 
d="M1196 2301h144c-28 -186 -169 -311 -370 -311c-198 0 -323 143 -290 311h137c-16 -112 43 -197 168 -197c115 0 194 84 211 197zM1223 1613h-137c16 113 -44 198 -168 198c-115 0 -194 -84 -212 -198h-143c28 187 168 312 370 312c198 0 323 -143 290 -312zM1101 654
h-707c-8 -52 -11 -96 -11 -146c0 -229 124 -371 322 -371c196 0 330 148 379 422zM422 811h707c5 41 9 95 9 132c0 219 -129 363 -326 363c-194 0 -327 -140 -374 -409zM220 693l42 232c60 345 268 548 558 548c300 0 495 -209 495 -529c0 -61 -5 -124 -14 -188l-43 -232
c-65 -361 -262 -554 -567 -554c-289 0 -486 210 -486 518c0 88 4 151 15 205z" />
    <glyph glyph-name="uni04EA" unicode="&#x4ea;" 
d="M1124 1651c-62 0 -117 56 -117 121c0 66 55 121 117 121c63 0 117 -55 117 -121c0 -65 -54 -121 -117 -121zM721 1651c-63 0 -117 56 -117 121c0 66 54 121 117 121c62 0 117 -55 117 -121c0 -65 -55 -121 -117 -121zM1101 654h-707c-8 -52 -11 -96 -11 -146
c0 -229 124 -371 322 -371c196 0 330 148 379 422zM422 811h707c5 41 9 95 9 132c0 219 -129 363 -326 363c-194 0 -327 -140 -374 -409zM220 693l42 232c60 345 268 548 558 548c300 0 495 -209 495 -529c0 -61 -5 -124 -14 -188l-43 -232c-65 -361 -262 -554 -567 -554
c-289 0 -486 210 -486 518c0 88 4 151 15 205z" />
    <glyph glyph-name="uni0472" unicode="&#x472;" 
d="M1084 560l19 109c-52 -44 -116 -74 -190 -74c-186 0 -199 98 -347 98c-87 0 -144 -44 -178 -82c-3 -34 -5 -67 -5 -103c0 -228 124 -371 322 -371c196 0 330 149 379 423zM438 898l-22 -122c53 44 117 74 192 74c186 0 200 -98 348 -98c86 0 141 44 175 81
c4 37 7 80 7 110c0 220 -129 364 -326 364c-194 0 -327 -141 -374 -409zM220 694l42 231c60 346 268 549 558 549c300 0 495 -209 495 -530c0 -61 -5 -123 -14 -188l-43 -231c-65 -361 -262 -554 -567 -554c-289 0 -486 210 -486 517c0 89 4 152 15 206z" />
    <glyph glyph-name="Pecyrillic" unicode="&#x41f;" 
d="M1389 1443l-254 -1443h-177l227 1280h-650l-227 -1280h-177l254 1443h1004z" />
    <glyph glyph-name="uni0524" unicode="&#x524;" 
d="M1364 1443l-225 -1277h154l-78 -452h-159l51 286h-173l27 166h2l197 1114h-626l-227 -1280h-176l254 1443h979z" />
    <glyph glyph-name="Ercyrillic" unicode="&#x420;" 
d="M452 1443h454c258 0 423 -152 423 -390c0 -332 -215 -535 -573 -535h-289l-92 -518h-177zM603 1286l-109 -611h272c242 0 387 136 387 364c0 156 -103 247 -279 247h-271z" />
    <glyph glyph-name="uni048E" unicode="&#x48e;" 
d="M849 970l121 -253c117 56 183 168 183 322c0 156 -103 247 -279 247h-271l-109 -611h272c29 0 57 2 83 6l-112 230zM452 1443h454c258 0 423 -152 423 -390c0 -226 -99 -392 -276 -475l118 -244l-132 -74l-131 272c-47 -9 -98 -14 -152 -14h-289l-92 -518h-177z" />
    <glyph glyph-name="uniF4D4" 
d="M452 1443h454c258 0 423 -152 423 -390c0 -332 -215 -535 -573 -535h-289l-92 -518h-177zM603 1286l-109 -611h272c242 0 387 136 387 364c0 156 -103 247 -279 247h-271zM827 1610l-233 309h170l144 -200h13l216 200h190l-341 -309h-159z" />
    <glyph glyph-name="Escyrillic" unicode="&#x421;" 
d="M1237 399c-27 -254 -246 -430 -528 -430c-302 0 -489 199 -489 520c0 53 6 116 14 160l40 229c66 385 273 595 590 595c279 0 471 -177 471 -432c0 -22 -2 -47 -6 -74h-174c2 23 3 37 3 57c0 169 -119 279 -304 279c-206 0 -348 -146 -397 -412l-44 -251
c-8 -42 -13 -99 -13 -153c0 -220 121 -348 326 -348c175 0 298 98 333 269c1 3 1 4 1 5h178c0 -5 0 -10 -1 -14z" />
    <glyph glyph-name="uni04AA" unicode="&#x4aa;" 
d="M1329 967h-174c2 23 3 37 3 57c0 169 -119 279 -304 279c-206 0 -348 -146 -397 -412l-44 -251c-8 -42 -13 -99 -13 -153c0 -220 121 -348 326 -348c175 0 298 98 333 269c1 3 1 4 1 5h178c0 -5 0 -10 -1 -14c-26 -247 -234 -421 -506 -430l-52 -102
c118 -4 184 -59 184 -152c0 -118 -101 -200 -250 -200c-50 0 -110 10 -158 27l19 108c31 -12 99 -22 138 -22c73 0 115 25 115 72c0 50 -47 74 -139 74h-53l4 84l63 120c-239 42 -382 230 -382 511c0 53 6 116 14 160l40 229c66 385 273 595 590 595
c279 0 471 -177 471 -432c0 -22 -2 -47 -6 -74z" />
    <glyph glyph-name="uniF53E" 
d="M1329 967h-174c2 23 3 37 3 57c0 169 -119 279 -304 279c-206 0 -348 -146 -397 -412l-44 -251c-8 -42 -13 -99 -13 -153c0 -220 121 -348 326 -348c175 0 298 98 333 269c1 3 1 4 1 5h178c0 -5 0 -10 -1 -14c-26 -241 -224 -412 -485 -429l-45 -256h-165l46 267
c-230 47 -368 233 -368 508c0 53 6 116 14 160l40 229c66 385 273 595 590 595c279 0 471 -177 471 -432c0 -22 -2 -47 -6 -74z" />
    <glyph glyph-name="Ecyrillic" unicode="&#x404;" 
d="M718 -29c-304 0 -504 211 -504 532c0 37 2 74 7 116c7 56 30 198 54 317c65 340 275 538 569 538c288 0 486 -182 486 -446c0 -4 -1 -33 -1 -42h-178c0 15 0 28 -1 45c-13 164 -136 273 -312 273c-193 0 -332 -141 -385 -392l-21 -97h559l-26 -157h-558
c-10 -47 -16 -106 -16 -150c0 -227 131 -370 337 -370c158 0 282 88 326 231c4 13 7 25 9 38h176c-1 -15 -3 -31 -6 -44c-45 -235 -252 -392 -515 -392z" />
    <glyph glyph-name="uniF526" 
d="M718 -29c-304 0 -504 211 -504 532c0 37 2 74 7 116c7 56 30 198 54 317c65 340 275 538 569 538c288 0 486 -182 486 -446c0 -4 -1 -33 -1 -42h-178c0 15 0 28 -1 45c-13 164 -136 273 -312 273c-193 0 -332 -141 -385 -392l-21 -97h559l-26 -157h-558
c-10 -47 -16 -106 -16 -150c0 -227 131 -370 337 -370c158 0 282 88 326 231c4 13 7 25 9 38h176c-1 -15 -3 -31 -6 -44c-45 -235 -252 -392 -515 -392zM770 1651c-62 0 -117 56 -117 121c0 66 55 121 117 121c63 0 118 -55 118 -121c0 -65 -55 -121 -118 -121zM1174 1651
c-62 0 -117 56 -117 121c0 66 55 121 117 121s117 -55 117 -121c0 -65 -55 -121 -117 -121z" />
    <glyph glyph-name="Tecyrillic" unicode="&#x422;" 
d="M721 0h-176l228 1281h-436l26 162h1048l-27 -162h-435z" />
    <glyph glyph-name="uni04AC" unicode="&#x4ac;" 
d="M363 1443h1048l-27 -162h-435l-198 -1113h166l-78 -454h-166l50 286h-178l28 168h2l198 1113h-436z" />
    <glyph glyph-name="Ucyrillic" unicode="&#x423;" 
d="M1460 1443l-609 -1063c-165 -291 -287 -390 -483 -390c-36 0 -84 5 -99 11l24 170c18 -6 53 -10 82 -10c106 0 184 54 282 203l-341 1079h185l268 -878h8l490 878h193z" />
    <glyph glyph-name="Ushortcyrillic" unicode="&#x40e;" 
d="M1460 1443l-609 -1063c-165 -291 -287 -390 -483 -390c-36 0 -84 5 -99 11l24 170c18 -6 53 -10 82 -10c106 0 184 54 282 203l-341 1079h185l268 -878h8l490 878h193zM1147 1924h143c-28 -187 -168 -312 -370 -312c-198 0 -322 143 -290 312h137
c-16 -113 44 -198 168 -198c115 0 194 84 212 198z" />
    <glyph glyph-name="uni04EE" unicode="&#x4ee;" 
d="M1265 1695h-660l24 139h660zM1460 1443l-609 -1063c-165 -291 -287 -390 -483 -390c-36 0 -84 5 -99 11l24 170c18 -6 53 -10 82 -10c106 0 184 54 282 203l-341 1079h185l268 -878h8l490 878h193z" />
    <glyph glyph-name="uni04F0" unicode="&#x4f0;" 
d="M1130 1650c-62 0 -117 56 -117 121c0 66 55 121 117 121c63 0 117 -55 117 -121c0 -65 -54 -121 -117 -121zM727 1650c-63 0 -118 56 -118 121c0 66 55 121 118 121c62 0 117 -55 117 -121c0 -65 -55 -121 -117 -121zM1460 1443l-609 -1063
c-165 -291 -287 -390 -483 -390c-36 0 -84 5 -99 11l24 170c18 -6 53 -10 82 -10c106 0 184 54 282 203l-341 1079h185l268 -878h8l490 878h193z" />
    <glyph glyph-name="uni04F2" unicode="&#x4f2;" 
d="M623 1613l305 304h195l-323 -304h-177zM1002 1613l305 304h195l-323 -304h-177zM1460 1443l-609 -1063c-165 -291 -287 -390 -483 -390c-36 0 -84 5 -99 11l24 170c18 -6 53 -10 82 -10c106 0 184 54 282 203l-341 1079h185l268 -878h8l490 878h193z" />
    <glyph glyph-name="uniF4CC" 
d="M795 1613l311 304h215l-332 -304h-194zM1460 1443l-609 -1063c-165 -291 -287 -390 -483 -390c-36 0 -84 5 -99 11l24 170c18 -6 53 -10 82 -10c106 0 184 54 282 203l-341 1079h185l268 -878h8l490 878h193z" />
    <glyph glyph-name="uniF464" 
d="M795 1613l311 304h215l-332 -304h-194zM1460 1443l-609 -1063c-165 -291 -287 -390 -483 -390c-36 0 -84 5 -99 11l24 170c18 -6 53 -10 82 -10c106 0 184 54 282 203l-341 1079h185l268 -878h8l490 878h193z" />
    <glyph glyph-name="Efcyrillic" unicode="&#x424;" 
d="M923 1144l-152 -848c239 9 368 128 405 372c1 7 7 55 8 61c7 47 9 74 9 103c0 178 -93 285 -270 312zM979 1464l-29 -165c256 -34 409 -202 409 -455c0 -51 -2 -82 -8 -109c0 -7 -13 -86 -15 -94c-53 -325 -253 -490 -589 -497l-29 -165h-176l32 176
c-261 34 -411 199 -411 455c0 45 2 79 7 108c0 7 14 86 16 94c56 331 248 489 590 497l28 155h175zM347 785l-9 -61c-8 -54 -9 -72 -9 -105c0 -178 97 -289 271 -314l152 852c-239 -5 -368 -124 -405 -372z" />
    <glyph glyph-name="Xacyrillic" unicode="&#x425;" 
d="M58 0l587 727l-336 716h189l269 -584h9l476 584h206l-602 -724l348 -719h-188l-279 581h-9l-469 -581h-201z" />
    <glyph glyph-name="uni04B2" unicode="&#x4b2;" 
d="M832 719l258 -553h163l-78 -452h-158l51 286h-82l-270 581h-10l-454 -581h-194l567 727l-324 716h184l260 -584h9l460 584h200z" />
    <glyph glyph-name="uni04FE" unicode="&#x4fe;" 
d="M1458 1443l-540 -650h348l-25 -150h-348l311 -643h-188l-279 581h-9l-469 -581h-201l519 643h-342l26 150h353l-305 650h189l269 -584h9l476 584h206z" />
    <glyph glyph-name="uni04FC" unicode="&#x4fc;" 
d="M908 234l-171 347h-9l-469 -581h-201l587 727l-336 716h189l269 -584h9l476 584h206l-602 -724l198 -398c74 -154 124 -258 124 -367c0 -200 -132 -336 -351 -336c-41 0 -65 4 -83 8l27 161c14 -3 33 -5 69 -5c94 0 166 75 166 173c0 80 -42 159 -98 279z" />
    <glyph glyph-name="Tsecyrillic" unicode="&#x426;" 
d="M1292 162l-78 -447h-162l50 285h-997l254 1443h177l-226 -1281h647l227 1281h177l-227 -1281h158z" />
    <glyph glyph-name="uni04B4" unicode="&#x4b4;" 
d="M1368 1443l-227 -1281h127l-77 -447h-163l51 285h-779l225 1281h-289l27 162h717l-27 -162h-251l-199 -1119h461l227 1281h177z" />
    <glyph glyph-name="Checyrillic" unicode="&#x427;" 
d="M1375 1443l-254 -1443h-176l116 656h-8c-104 -79 -230 -120 -366 -120c-300 0 -458 203 -403 518l68 389h177l-70 -400c-37 -212 63 -339 268 -339c149 0 265 50 365 127l107 612h176z" />
    <glyph glyph-name="uni04F4" unicode="&#x4f4;" 
d="M1124 1651c-62 0 -117 56 -117 121c0 66 55 121 117 121c63 0 117 -55 117 -121c0 -65 -54 -121 -117 -121zM721 1651c-63 0 -118 56 -118 121c0 66 55 121 118 121c62 0 117 -55 117 -121c0 -65 -55 -121 -117 -121zM1375 1443l-254 -1443h-176l116 656h-8
c-104 -79 -230 -120 -366 -120c-300 0 -458 203 -403 518l68 389h177l-70 -400c-37 -212 63 -339 268 -339c149 0 265 50 365 127l107 612h176z" />
    <glyph glyph-name="uni04B6" unicode="&#x4b6;" 
d="M1364 1443l-226 -1277h152l-78 -452h-163l51 286h-164l117 656h-8c-103 -79 -228 -120 -360 -120c-301 0 -456 203 -400 518l68 389h173l-70 -400c-38 -212 61 -339 265 -339c148 0 263 50 363 127l108 612h172z" />
    <glyph glyph-name="uni04CB" unicode="&#x4cb;" 
d="M1199 1443h176l-254 -1443h-178l-50 -286h-166l78 452h169l87 490h-8c-104 -79 -230 -120 -366 -120c-300 0 -458 203 -403 518l68 389h177l-70 -400c-37 -212 63 -339 268 -339c149 0 265 50 365 127z" />
    <glyph glyph-name="uniF4C6" 
d="M1199 1443h176l-254 -1443c-45 -258 -183 -335 -364 -335c-55 0 -92 3 -116 6l26 155c17 -2 52 -3 93 -3c108 0 164 64 185 177l31 178l85 478h-8c-104 -79 -230 -120 -366 -120c-300 0 -458 203 -403 518l68 389h177l-70 -400c-37 -212 63 -339 268 -339
c149 0 265 50 365 127z" />
    <glyph glyph-name="uni04B8" unicode="&#x4b8;" 
d="M1200 1443h175l-254 -1443h-175l117 658h-8c-80 -59 -173 -96 -271 -110l-56 -319h-137l55 313c-276 17 -414 212 -362 508l68 393h177l-72 -411c-34 -191 45 -307 218 -325l63 355h137l-62 -353c103 13 194 51 280 119z" />
    <glyph glyph-name="uni04BA" unicode="&#x4ba;" 
d="M153 0l254 1443h176l-117 -656h9c104 79 230 120 366 120c300 0 458 -203 403 -518l-68 -389h-177l70 400c37 212 -63 339 -268 339c-149 0 -265 -50 -365 -127l-107 -612h-176z" />
    <glyph glyph-name="uniF49E" 
d="M527 790h8c92 66 205 103 326 103c283 0 433 -195 379 -502l-68 -391h-170l69 401c37 204 -58 325 -249 325c-125 0 -231 -40 -325 -110l-109 -616h-170l198 1123h-195l25 152h196l30 168h170l-30 -168h485l-25 -152h-486z" />
    <glyph glyph-name="uni0526" unicode="&#x526;" 
d="M1139 166h147l-77 -452h-159l51 286h-160l28 166l41 236c38 210 -57 337 -249 337c-133 0 -240 -51 -326 -113l-110 -626h-172l254 1443h171l-113 -642h8c90 68 204 106 325 106c285 0 435 -203 380 -518z" />
    <glyph glyph-name="Djecyrillic" unicode="&#x402;" 
d="M1320 490c0 -294 -188 -517 -447 -517c-50 0 -99 7 -120 16l29 158c20 -6 56 -11 87 -11c158 0 275 139 275 329c0 154 -85 250 -226 250c-109 0 -210 -44 -261 -95l-109 -620h-169l227 1282h-378l26 161h933l-26 -161h-386l-87 -487h7c63 45 155 82 271 82
c216 0 354 -148 354 -387z" />
    <glyph glyph-name="Tshecyrillic" unicode="&#x40b;" 
d="M518 0h-173l227 1281h-344l26 162h874l-26 -162h-357l-90 -496h7c75 66 193 109 297 109c216 0 337 -125 337 -348c0 -42 -4 -89 -13 -137l-72 -409h-173l71 402c6 36 9 69 9 100c0 146 -77 229 -214 229c-97 0 -208 -46 -277 -112z" />
    <glyph glyph-name="uni04C0" unicode="&#x4c0;" 
d="M1013 0h-760l26 157h292l202 1129h-292l26 157h760l-25 -157h-293l-202 -1129h293z" />
    <glyph glyph-name="Icyrillic" unicode="&#x406;" 
d="M1013 0h-760l26 157h292l202 1129h-292l26 157h760l-25 -157h-293l-202 -1129h293z" />
    <glyph glyph-name="Yicyrillic" unicode="&#x407;" 
d="M1013 0h-760l26 157h292l202 1129h-292l26 157h760l-25 -157h-293l-202 -1129h293zM743 1651c-62 0 -117 56 -117 121c0 66 55 121 117 121s117 -55 117 -121c0 -65 -55 -121 -117 -121zM1147 1651c-63 0 -118 56 -118 121c0 66 55 121 118 121c62 0 117 -55 117 -121
c0 -65 -55 -121 -117 -121z" />
    <glyph glyph-name="Dzhecyrillic" unicode="&#x40f;" 
d="M500 -285l50 285h-436l254 1443h177l-227 -1281h685l226 1281h177l-254 -1443h-436l-50 -285h-166z" />
    <glyph glyph-name="Shacyrillic" unicode="&#x428;" 
d="M1192 0h-1118l254 1443h156l-228 -1285h326l227 1285h156l-228 -1285h326l227 1285h156z" />
    <glyph glyph-name="Shchacyrillic" unicode="&#x429;" 
d="M1077 -285l50 285h-1079l254 1443h156l-228 -1288h308l227 1288h156l-228 -1288h307l228 1288h156l-228 -1285h147l-77 -443h-149z" />
    <glyph glyph-name="Hardsigncyrillic" unicode="&#x42a;" 
d="M657 910h255c223 0 368 -153 368 -388c0 -330 -192 -522 -527 -522h-432l228 1281h-297l26 162h473zM628 750l-105 -588h236c220 0 345 127 345 345c0 153 -87 243 -235 243h-241z" />
    <glyph glyph-name="Yericyrillic" unicode="&#x42b;" 
d="M402 749l-106 -590h126c217 0 342 130 342 350c0 152 -85 240 -230 240h-132zM402 0h-296l254 1443h165l-95 -536h138c222 0 363 -145 363 -376c0 -340 -190 -531 -529 -531zM1160 0h-164l254 1443h164z" />
    <glyph glyph-name="uni04F8" unicode="&#x4f8;" 
d="M1134 1594c-62 0 -117 56 -117 121c0 66 55 121 117 121c63 0 117 -55 117 -121c0 -65 -54 -121 -117 -121zM731 1594c-63 0 -118 56 -118 121c0 66 55 121 118 121c62 0 117 -55 117 -121c0 -65 -55 -121 -117 -121zM399 749l-105 -590h126c217 0 342 130 342 350
c0 152 -85 240 -230 240h-133zM399 0h-295l254 1443h165l-95 -536h137c223 0 363 -145 363 -376c0 -340 -189 -531 -529 -531zM1158 0h-164l254 1443h164z" />
    <glyph glyph-name="uniF520" 
d="M1258 1695h-660l24 139h660zM402 749l-106 -590h126c217 0 342 130 342 350c0 152 -85 240 -230 240h-132zM402 0h-296l254 1443h165l-95 -536h138c222 0 363 -145 363 -376c0 -340 -190 -531 -529 -531zM1160 0h-164l254 1443h164z" />
    <glyph glyph-name="uniF536" 
d="M1112 1924h144c-28 -187 -169 -312 -370 -312c-199 0 -323 143 -291 312h137c-16 -113 44 -198 169 -198c114 0 193 84 211 198zM402 749l-106 -590h126c217 0 342 130 342 350c0 152 -85 240 -230 240h-132zM402 0h-296l254 1443h165l-95 -536h138
c222 0 363 -145 363 -376c0 -340 -190 -531 -529 -531zM1160 0h-164l254 1443h164z" />
    <glyph glyph-name="uniF465" 
d="M770 1613l311 304h214l-332 -304h-193zM402 749l-106 -590h126c217 0 342 130 342 350c0 152 -85 240 -230 240h-132zM402 0h-296l254 1443h165l-95 -536h138c222 0 363 -145 363 -376c0 -340 -190 -531 -529 -531zM1160 0h-164l254 1443h164z" />
    <glyph glyph-name="Softsigncyrillic" unicode="&#x42c;" 
d="M487 749l-106 -590h334c225 0 351 125 351 348c0 154 -88 242 -240 242h-339zM711 0h-534l254 1443h177l-95 -536h356c228 0 375 -151 375 -385c0 -332 -193 -522 -533 -522z" />
    <glyph glyph-name="uni048C" unicode="&#x48c;" 
d="M503 159h223c255 0 382 132 382 327c0 136 -102 214 -284 214h-223zM627 858h246c264 0 417 -135 417 -358c0 -289 -204 -500 -546 -500h-444l191 1084h-306l26 154h307l36 205h177l-36 -205h496l-26 -154h-498z" />
    <glyph glyph-name="uni0462" unicode="&#x462;" 
d="M503 159h223c255 0 382 132 382 327c0 136 -102 214 -284 214h-223zM627 858h246c264 0 417 -135 417 -358c0 -289 -204 -500 -546 -500h-444l191 1084h-306l26 154h307l36 205h177l-36 -205h496l-26 -154h-498z" />
    <glyph glyph-name="Ljecyrillic" unicode="&#x409;" 
d="M885 750l-106 -594h105c167 0 284 149 284 365c0 146 -64 229 -176 229h-107zM566 1295l-81 -424c-141 -699 -199 -880 -401 -880c-33 0 -64 5 -82 11l31 170c9 -4 29 -9 41 -9c99 0 140 151 255 719l106 561h577l-97 -539h109c189 0 304 -137 304 -356
c0 -340 -174 -547 -451 -547h-279l230 1294h-262z" />
    <glyph glyph-name="Njecyrillic" unicode="&#x40a;" 
d="M256 0h-155l254 1443h155l-111 -626h342l111 626h157l-111 -626h93c198 0 310 -113 310 -326c0 -319 -158 -491 -447 -491h-256l117 662h-341zM870 665l-93 -518h94c174 0 273 121 273 324c0 124 -62 194 -174 194h-100z" />
    <glyph glyph-name="Ereversedcyrillic" unicode="&#x42d;" 
d="M277 1071c86 255 291 404 552 404c320 0 507 -200 507 -541c0 -64 -6 -134 -21 -221c-12 -69 -37 -201 -58 -257c-98 -317 -302 -486 -592 -486c-313 0 -501 176 -501 463c0 3 0 24 1 32h179c-1 -4 -1 -9 -1 -16c1 -198 117 -311 322 -311c210 0 362 145 435 409
c10 31 19 75 26 110h-573l27 157h570c4 40 6 78 6 111c0 245 -129 381 -338 381c-167 0 -294 -90 -365 -262c-4 -10 -7 -19 -11 -29h-181c4 20 10 39 16 56z" />
    <glyph glyph-name="uni04EC" unicode="&#x4ec;" 
d="M277 1071c86 255 291 404 552 404c320 0 507 -200 507 -541c0 -64 -6 -134 -21 -221c-12 -69 -37 -201 -58 -257c-98 -317 -302 -486 -592 -486c-313 0 -501 176 -501 463c0 3 0 24 1 32h179c-1 -4 -1 -9 -1 -16c1 -198 117 -311 322 -311c210 0 362 145 435 409
c10 31 19 75 26 110h-573l27 157h570c4 40 6 78 6 111c0 245 -129 381 -338 381c-167 0 -294 -90 -365 -262c-4 -10 -7 -19 -11 -29h-181c4 20 10 39 16 56zM715 1653c-63 0 -117 56 -117 121c0 66 54 121 117 121c62 0 117 -55 117 -121c0 -65 -55 -121 -117 -121z
M1118 1653c-62 0 -117 56 -117 121c0 66 55 121 117 121c63 0 118 -55 118 -121c0 -65 -55 -121 -118 -121z" />
    <glyph glyph-name="uniF522" 
d="M277 1071c86 255 291 404 552 404c320 0 507 -200 507 -541c0 -64 -6 -134 -21 -221c-12 -69 -37 -201 -58 -257c-98 -317 -302 -486 -592 -486c-313 0 -501 176 -501 463c0 3 0 24 1 32h179c-1 -4 -1 -9 -1 -16c1 -198 117 -311 322 -311c210 0 362 145 435 409
c10 31 19 75 26 110h-573l27 157h570c4 40 6 78 6 111c0 245 -129 381 -338 381c-167 0 -294 -90 -365 -262c-4 -10 -7 -19 -11 -29h-181c4 20 10 39 16 56zM1233 1695h-660l24 139h660z" />
    <glyph glyph-name="uniF466" 
d="M277 1071c86 255 291 404 552 404c320 0 507 -200 507 -541c0 -64 -6 -134 -21 -221c-12 -69 -37 -201 -58 -257c-98 -317 -302 -486 -592 -486c-313 0 -501 176 -501 463c0 3 0 24 1 32h179c-1 -4 -1 -9 -1 -16c1 -198 117 -311 322 -311c210 0 362 145 435 409
c10 31 19 75 26 110h-573l27 157h570c4 40 6 78 6 111c0 245 -129 381 -338 381c-167 0 -294 -90 -365 -262c-4 -10 -7 -19 -11 -29h-181c4 20 10 39 16 56zM758 1613l311 304h215l-332 -304h-194z" />
    <glyph glyph-name="uniF524" 
d="M277 1071c86 255 291 404 552 404c320 0 507 -200 507 -541c0 -64 -6 -134 -21 -221c-12 -69 -37 -201 -58 -257c-98 -317 -302 -486 -592 -486c-313 0 -501 176 -501 463c0 3 0 24 1 32h179c-1 -4 -1 -9 -1 -16c1 -198 117 -311 322 -311c210 0 362 145 435 409
c10 31 19 75 26 110h-573l27 157h570c4 40 6 78 6 111c0 245 -129 381 -338 381c-167 0 -294 -90 -365 -262c-4 -10 -7 -19 -11 -29h-181c4 20 10 39 16 56zM888 1609c-199 0 -323 143 -291 312h137c-16 -113 44 -198 169 -198c114 0 193 84 211 198h144
c-29 -187 -169 -312 -370 -312z" />
    <glyph glyph-name="uniF4D6" 
d="M277 1071c86 255 291 404 552 404c320 0 507 -200 507 -541c0 -64 -6 -134 -21 -221c-12 -69 -37 -201 -58 -257c-98 -317 -302 -486 -592 -486c-313 0 -501 176 -501 463c0 3 0 24 1 32h179c-1 -4 -1 -9 -1 -16c1 -198 117 -311 322 -311c210 0 362 145 435 409
c10 31 19 75 26 110h-573l27 157h570c4 40 6 78 6 111c0 245 -129 381 -338 381c-167 0 -294 -90 -365 -262c-4 -10 -7 -19 -11 -29h-181c4 20 10 39 16 56zM923 1635c-68 0 -126 59 -126 129s58 128 126 128s126 -58 126 -128s-58 -129 -126 -129z" />
    <glyph glyph-name="IUcyrillic" unicode="&#x42e;" 
d="M835 -31c-225 0 -375 190 -375 477c0 88 2 122 14 196h-156l-114 -642h-153l254 1443h153l-113 -639h154c1 7 25 132 26 139c66 345 234 530 481 530c244 0 390 -184 390 -493c0 -78 -5 -157 -20 -243c-2 -13 -39 -210 -41 -221c-71 -372 -230 -547 -500 -547zM1234 967
c0 212 -90 340 -238 340c-164 0 -269 -137 -320 -407c-2 -8 -37 -198 -39 -208c-15 -88 -20 -139 -20 -221c0 -206 93 -335 239 -335c168 0 273 136 325 420c2 8 36 205 38 214c9 56 15 136 15 197z" />
    <glyph glyph-name="uniF52C" 
d="M835 -31c-225 0 -375 190 -375 477c0 88 2 122 14 196h-156l-114 -642h-153l254 1443h153l-113 -639h154c1 7 25 132 26 139c66 345 234 530 481 530c244 0 390 -184 390 -493c0 -78 -5 -157 -20 -243c-2 -13 -39 -210 -41 -221c-71 -372 -230 -547 -500 -547zM1234 967
c0 212 -90 340 -238 340c-164 0 -269 -137 -320 -407c-2 -8 -37 -198 -39 -208c-15 -88 -20 -139 -20 -221c0 -206 93 -335 239 -335c168 0 273 136 325 420c2 8 36 205 38 214c9 56 15 136 15 197zM1220 1695h-660l24 139h660z" />
    <glyph glyph-name="uniF467" 
d="M835 -31c-225 0 -375 190 -375 477c0 88 2 122 14 196h-156l-114 -642h-153l254 1443h153l-113 -639h154c1 7 25 132 26 139c66 345 234 530 481 530c244 0 390 -184 390 -493c0 -78 -5 -157 -20 -243c-2 -13 -39 -210 -41 -221c-71 -372 -230 -547 -500 -547zM1234 967
c0 212 -90 340 -238 340c-164 0 -269 -137 -320 -407c-2 -8 -37 -198 -39 -208c-15 -88 -20 -139 -20 -221c0 -206 93 -335 239 -335c168 0 273 136 325 420c2 8 36 205 38 214c9 56 15 136 15 197zM718 1613l310 304h215l-332 -304h-193z" />
    <glyph glyph-name="uniF52E" 
d="M835 -31c-225 0 -375 190 -375 477c0 88 2 122 14 196h-156l-114 -642h-153l254 1443h153l-113 -639h154c1 7 25 132 26 139c66 345 234 530 481 530c244 0 390 -184 390 -493c0 -78 -5 -157 -20 -243c-2 -13 -39 -210 -41 -221c-71 -372 -230 -547 -500 -547zM1234 967
c0 212 -90 340 -238 340c-164 0 -269 -137 -320 -407c-2 -8 -37 -198 -39 -208c-15 -88 -20 -139 -20 -221c0 -206 93 -335 239 -335c168 0 273 136 325 420c2 8 36 205 38 214c9 56 15 136 15 197zM822 1609c-198 0 -322 143 -290 312h137c-16 -113 44 -198 168 -198
c115 0 194 84 212 198h143c-28 -187 -168 -312 -370 -312z" />
    <glyph glyph-name="uniF498" 
d="M835 -31c-225 0 -375 190 -375 477c0 88 2 122 14 196h-156l-114 -642h-153l254 1443h153l-113 -639h154c1 7 25 132 26 139c66 345 234 530 481 530c244 0 390 -184 390 -493c0 -78 -5 -157 -20 -243c-2 -13 -39 -210 -41 -221c-71 -372 -230 -547 -500 -547zM1234 967
c0 212 -90 340 -238 340c-164 0 -269 -137 -320 -407c-2 -8 -37 -198 -39 -208c-15 -88 -20 -139 -20 -221c0 -206 93 -335 239 -335c168 0 273 136 325 420c2 8 36 205 38 214c9 56 15 136 15 197zM663 1651c-63 0 -117 56 -117 121c0 66 54 121 117 121
c62 0 117 -55 117 -121c0 -65 -55 -121 -117 -121zM1066 1651c-62 0 -117 56 -117 121c0 66 55 121 117 121c63 0 118 -55 118 -121c0 -65 -55 -121 -118 -121z" />
    <glyph glyph-name="IAcyrillic" unicode="&#x42f;" 
d="M1067 562h-264l-436 -562h-206l464 594c-152 55 -246 189 -246 353c0 309 200 496 556 496h461l-254 -1443h-174zM812 716h281l102 570h-276c-227 0 -361 -120 -361 -323c0 -148 101 -247 254 -247z" />
    <glyph glyph-name="uniF528" 
d="M1353 1695h-660l24 139h660zM1067 562h-264l-436 -562h-206l464 594c-152 55 -246 189 -246 353c0 309 200 496 556 496h461l-254 -1443h-174zM812 716h281l102 570h-276c-227 0 -361 -120 -361 -323c0 -148 101 -247 254 -247z" />
    <glyph glyph-name="uniF468" 
d="M896 1613l310 304h215l-332 -304h-193zM1067 562h-264l-436 -562h-206l464 594c-152 55 -246 189 -246 353c0 309 200 496 556 496h461l-254 -1443h-174zM812 716h281l102 570h-276c-227 0 -361 -120 -361 -323c0 -148 101 -247 254 -247z" />
    <glyph glyph-name="uniF4D9" 
d="M1230 1651c-62 0 -117 56 -117 121c0 66 55 121 117 121c63 0 118 -55 118 -121c0 -65 -55 -121 -118 -121zM827 1651c-63 0 -117 56 -117 121c0 66 54 121 117 121c62 0 117 -55 117 -121c0 -65 -55 -121 -117 -121zM1067 562h-264l-436 -562h-206l464 594
c-152 55 -246 189 -246 353c0 309 200 496 556 496h461l-254 -1443h-174zM812 716h281l102 570h-276c-227 0 -361 -120 -361 -323c0 -148 101 -247 254 -247z" />
    <glyph glyph-name="uniF52A" 
d="M1235 1922h144c-28 -186 -169 -311 -370 -311c-199 0 -323 143 -291 311h137c-16 -112 44 -197 169 -197c114 0 193 84 211 197zM1067 562h-264l-436 -562h-206l464 594c-152 55 -246 189 -246 353c0 309 200 496 556 496h461l-254 -1443h-174zM812 716h281l102 570h-276
c-227 0 -361 -120 -361 -323c0 -148 101 -247 254 -247z" />
    <glyph glyph-name="uni0494" unicode="&#x494;" 
d="M700 -14c-50 0 -92 8 -107 15l26 161c14 -6 52 -12 95 -12c159 0 275 146 275 349c0 140 -85 224 -230 224c-136 0 -255 -60 -324 -130l-106 -593h-176l254 1443h784l-27 -161h-608l-89 -498h11c74 60 186 108 324 108c238 0 368 -142 368 -373
c0 -297 -180 -533 -470 -533z" />
    <glyph glyph-name="uni04A6" unicode="&#x4a6;" 
d="M957 -18c-38 0 -70 8 -81 15l23 160c11 -6 40 -12 72 -12c147 0 223 177 223 392c0 123 -47 188 -154 188c-89 0 -176 -54 -219 -103l-110 -622h-154l227 1283h-315l-227 -1283h-155l254 1443h624l-110 -629h8c59 46 131 78 221 78c176 0 261 -126 261 -334
c0 -333 -150 -576 -388 -576z" />
    <glyph glyph-name="uni04A8" unicode="&#x4a8;" 
d="M1053 -33c-83 0 -163 25 -228 73h-8c-80 -47 -171 -72 -259 -72c-342 0 -489 265 -408 724l23 131c65 364 257 626 587 641l-27 -158c-241 -16 -356 -250 -406 -523l-20 -109c-60 -336 26 -552 262 -552c63 0 108 8 149 20v5c-119 115 -154 330 -111 579l15 85
c47 277 207 470 423 470c261 0 349 -211 297 -511l-13 -76c-45 -253 -187 -464 -355 -562v-6c29 -8 66 -10 106 -10c59 0 134 26 192 68l30 -130c-81 -61 -163 -87 -249 -87zM765 707c-40 -219 -13 -409 93 -508c152 85 270 274 310 494l13 75c38 212 1 355 -149 355
c-130 0 -219 -143 -252 -335z" />
    <glyph glyph-name="uni04AE" unicode="&#x4ae;" 
d="M721 0h-175l106 598l-351 845h185l270 -663h12l493 663h205l-639 -844z" />
    <glyph glyph-name="uniF43A" 
d="M721 0h-175l106 598l-351 845h185l270 -663h12l493 663h205l-639 -844zM1263 1695h-660l24 139h660z" />
    <glyph glyph-name="uni04B0" unicode="&#x4b0;" 
d="M827 599v-1h358l-27 -154h-358l-79 -444h-175l79 444h-357l26 154h358l-351 845h185l270 -663h12l493 663h205z" />
    <glyph glyph-name="uni04BC" unicode="&#x4bc;" 
d="M1192 870l3 21c51 273 -42 416 -236 416c-206 0 -342 -162 -401 -434v-3h634zM185 1118h145c-19 -32 -48 -97 -48 -157s33 -92 108 -92c84 392 281 604 580 604c325 0 449 -251 388 -601c-3 -27 -29 -163 -29 -163h-799l-14 -73c-59 -331 33 -498 241 -498
c165 0 289 119 358 312h167c-86 -289 -278 -479 -532 -479c-326 0 -472 258 -394 708l5 31c-160 0 -236 91 -236 213c0 86 33 158 60 195z" />
    <glyph glyph-name="uni04BE" unicode="&#x4be;" 
d="M1192 870l3 21c51 273 -42 416 -236 416c-206 0 -342 -162 -401 -434v-3h634zM185 1118h145c-19 -32 -48 -97 -48 -157s33 -92 108 -92c84 392 281 604 580 604c325 0 449 -251 388 -601c-3 -27 -29 -163 -29 -163h-799l-14 -73c-59 -331 33 -498 241 -498
c165 0 289 119 358 312h167c-80 -268 -251 -451 -478 -476l-45 -260h-158l46 267c-253 50 -360 298 -291 698l5 31c-160 0 -236 91 -236 213c0 86 33 158 60 195z" />
    <glyph glyph-name="uni04D4" unicode="&#x4d4;" 
d="M757 589l122 687h-92l-318 -687h288zM1471 1282h-430l-86 -476h393l-26 -157h-394l-87 -487h429l-27 -162h-591l77 435h-332l-201 -435h-182l686 1443h797z" />
    <glyph glyph-name="uni04D8" unicode="&#x4d8;" 
d="M667 -29c-370 0 -533 294 -467 672c3 19 25 136 25 136h900l5 29c55 283 -69 498 -314 498c-182 0 -311 -126 -374 -312h-179c80 272 262 479 566 479c379 0 539 -315 476 -685l-16 -96c-81 -477 -267 -721 -622 -721zM679 137c235 0 367 166 416 470l2 15h-724l-4 -23
c-49 -273 58 -462 310 -462z" />
    <glyph glyph-name="uni04DA" unicode="&#x4da;" 
d="M667 -29c-370 0 -533 294 -467 672c3 19 25 136 25 136h900l5 29c55 283 -69 498 -314 498c-182 0 -311 -126 -374 -312h-179c80 272 262 479 566 479c379 0 539 -315 476 -685l-16 -96c-81 -477 -267 -721 -622 -721zM679 137c235 0 367 166 416 470l2 15h-724l-4 -23
c-49 -273 58 -462 310 -462zM715 1651c-63 0 -117 56 -117 121c0 66 54 121 117 121c62 0 117 -55 117 -121c0 -65 -55 -121 -117 -121zM1118 1651c-62 0 -117 56 -117 121c0 66 55 121 117 121c63 0 117 -55 117 -121c0 -65 -54 -121 -117 -121z" />
    <glyph glyph-name="uniF49C" 
d="M667 -29c-370 0 -533 294 -467 672c3 19 25 136 25 136h900l5 29c55 283 -69 498 -314 498c-182 0 -311 -126 -374 -312h-179c80 272 262 479 566 479c379 0 539 -315 476 -685l-16 -96c-81 -477 -267 -721 -622 -721zM679 137c235 0 367 166 416 470l2 15h-724l-4 -23
c-49 -273 58 -462 310 -462zM1253 1695h-660l24 139h660z" />
    <glyph glyph-name="uni04E0" unicode="&#x4e0;" 
d="M1187 483c0 -278 -216 -513 -549 -513c-293 0 -451 144 -451 350c0 14 1 30 3 47h166c-1 -10 -1 -19 -1 -27c0 -122 105 -213 285 -213c227 0 370 152 370 347c0 165 -114 243 -343 243h-113l25 147l455 409l1 10h-632l27 160h859l-23 -139l-484 -436l-3 -10
c254 -18 408 -143 408 -375z" />
    <glyph glyph-name="uni0510" unicode="&#x510;" 
d="M933 661h-190c-273 0 -410 -127 -410 -294c0 -152 118 -237 304 -237c199 0 363 104 399 253h171c-57 -261 -302 -413 -580 -413c-298 0 -478 140 -478 385c0 204 154 369 407 390l2 13c-139 31 -221 128 -221 266c0 235 194 449 525 449c280 0 440 -135 440 -350
c0 -17 -1 -36 -3 -55h-169c1 10 1 20 1 29c0 134 -104 220 -273 220c-223 0 -349 -134 -349 -292c0 -126 101 -208 265 -208h186z" />
    <glyph glyph-name="uniF538" 
d="M933 661h-190c-273 0 -410 -127 -410 -294c0 -152 118 -237 304 -237c199 0 363 104 399 253h171c-57 -261 -302 -413 -580 -413c-298 0 -478 140 -478 385c0 204 154 369 407 390l2 13c-139 31 -221 128 -221 266c0 235 194 449 525 449c280 0 440 -135 440 -350
c0 -17 -1 -36 -3 -55h-169c1 10 1 20 1 29c0 134 -104 220 -273 220c-223 0 -349 -134 -349 -292c0 -126 101 -208 265 -208h186zM756 1651c-63 0 -118 56 -118 121c0 66 55 121 118 121c62 0 117 -55 117 -121c0 -65 -55 -121 -117 -121zM1159 1651c-62 0 -117 56 -117 121
c0 66 55 121 117 121c63 0 117 -55 117 -121c0 -65 -54 -121 -117 -121z" />
    <glyph glyph-name="uni0474" unicode="&#x474;" 
d="M1024 1212c71 177 152 262 308 262c87 0 141 -29 150 -38l-73 -144c-4 2 -38 18 -79 18c-69 0 -108 -37 -146 -122l-539 -1188h-182l-160 1443h177l109 -1217h5z" />
    <glyph glyph-name="uni051C" unicode="&#x51c;" 
d="M818 895h-11l-368 -895h-178l9 1443h156l-7 -571l-11 -624h10l352 865h153l48 -865h11l190 604l196 591h167l-494 -1443h-174z" />
    <glyph glyph-name="Dzecyrillic" unicode="&#x405;" 
d="M199 413h174c-1 -13 -2 -21 -2 -28c0 -148 139 -255 333 -255c190 0 322 105 322 254c0 114 -66 180 -256 251l-95 36c-238 90 -339 207 -339 388c0 246 197 414 484 414c269 0 462 -157 462 -377c0 -12 -1 -32 -3 -40h-174c1 3 1 6 1 23c0 135 -119 234 -286 234
c-177 0 -301 -98 -301 -237c0 -113 65 -181 240 -247l106 -40c249 -95 343 -201 343 -380c0 -265 -201 -439 -508 -439c-289 0 -505 169 -505 396c0 24 1 38 4 47z" />
    <glyph glyph-name="Jecyrillic" unicode="&#x408;" 
d="M631 -30c-237 0 -406 149 -406 359c0 19 2 35 4 52h166c-1 -8 -2 -20 -2 -29c0 -127 100 -214 247 -214c146 0 242 89 271 253l160 895h-495l26 157h673l-191 -1075c-45 -262 -200 -398 -453 -398z" />
    <glyph glyph-name="a" unicode="a" 
d="M566 -18c-192 0 -325 124 -327 305c-2 225 164 351 464 354l270 2l10 55c6 33 8 50 8 72c0 111 -87 182 -222 182c-117 0 -217 -59 -245 -146h-170c34 173 210 293 431 293c226 0 376 -121 376 -304c0 -46 -3 -73 -21 -169l-110 -626h-162l27 156h-10
c-54 -107 -176 -174 -319 -174zM625 131c147 0 276 107 302 252l24 128l-249 -1c-183 -1 -286 -73 -287 -199c-1 -110 81 -180 210 -180z" />
    <glyph glyph-name="agrave" unicode="&#xe0;" 
d="M566 -18c-192 0 -325 124 -327 305c-2 225 164 351 464 354l270 2l10 55c6 33 8 50 8 72c0 111 -87 182 -222 182c-117 0 -217 -59 -245 -146h-170c34 173 210 293 431 293c226 0 376 -121 376 -304c0 -46 -3 -73 -21 -169l-110 -626h-162l27 156h-10
c-54 -107 -176 -174 -319 -174zM625 131c147 0 276 107 302 252l24 128l-249 -1c-183 -1 -286 -73 -287 -199c-1 -110 81 -180 210 -180zM986 1296h-176l-206 339h202z" />
    <glyph glyph-name="aacute" unicode="&#xe1;" 
d="M926 1296h-186l298 339h212zM951 511l-249 -1c-183 -1 -286 -73 -287 -199c-1 -110 81 -180 210 -180c147 0 276 107 302 252zM895 156h-10c-54 -107 -176 -174 -319 -174c-192 0 -325 124 -327 305c-2 225 164 351 464 354l270 2l10 55c6 33 8 50 8 72
c0 111 -87 182 -222 182c-117 0 -217 -59 -245 -146h-170c34 173 210 293 431 293c226 0 376 -121 376 -304c0 -46 -3 -73 -21 -169l-110 -626h-162z" />
    <glyph glyph-name="adieresis" unicode="&#xe4;" 
d="M566 -18c-192 0 -325 124 -327 305c-2 225 164 351 464 354l270 2l10 55c6 33 8 50 8 72c0 111 -87 182 -222 182c-117 0 -217 -59 -245 -146h-170c34 173 210 293 431 293c226 0 376 -121 376 -304c0 -46 -3 -73 -21 -169l-110 -626h-162l27 156h-10
c-54 -107 -176 -174 -319 -174zM625 131c147 0 276 107 302 252l24 128l-249 -1c-183 -1 -286 -73 -287 -199c-1 -110 81 -180 210 -180zM688 1299c-62 0 -117 56 -117 121c0 66 55 121 117 121c63 0 117 -55 117 -121c0 -65 -54 -121 -117 -121zM1092 1299
c-63 0 -117 56 -117 121c0 66 54 121 117 121c62 0 117 -55 117 -121c0 -65 -55 -121 -117 -121z" />
    <glyph glyph-name="adieresismacron" unicode="&#x1df;" 
d="M566 -18c-192 0 -325 124 -327 305c-2 225 164 351 464 354l270 2l10 55c6 33 8 50 8 72c0 111 -87 182 -222 182c-117 0 -217 -59 -245 -146h-170c34 173 210 293 431 293c226 0 376 -121 376 -304c0 -46 -3 -73 -21 -169l-110 -626h-162l27 156h-10
c-54 -107 -176 -174 -319 -174zM625 131c147 0 276 107 302 252l24 128l-249 -1c-183 -1 -286 -73 -287 -199c-1 -110 81 -180 210 -180zM1090 1554c63 0 118 -56 118 -121s-55 -121 -118 -121c-62 0 -117 56 -117 121s55 121 117 121zM687 1554c62 0 117 -56 117 -121
s-55 -121 -117 -121c-63 0 -117 56 -117 121s54 121 117 121zM635 1868h660l-24 -139h-660z" />
    <glyph glyph-name="aring" unicode="&#xe5;" 
d="M566 -18c-192 0 -325 124 -327 305c-2 225 164 351 464 354l270 2l10 55c6 33 8 50 8 72c0 111 -87 182 -222 182c-117 0 -217 -59 -245 -146h-170c34 173 210 293 431 293c226 0 376 -121 376 -304c0 -46 -3 -73 -21 -169l-110 -626h-162l27 156h-10
c-54 -107 -176 -174 -319 -174zM625 131c147 0 276 107 302 252l24 128l-249 -1c-183 -1 -286 -73 -287 -199c-1 -110 81 -180 210 -180zM898 1360c67 0 118 53 118 122s-51 122 -118 122c-68 0 -119 -53 -119 -122s51 -122 119 -122zM898 1251c-125 0 -226 104 -226 231
s101 231 226 231c124 0 225 -104 225 -231s-101 -231 -225 -231z" />
    <glyph glyph-name="aringacute" unicode="&#x1fb;" 
d="M1014 1723h-149l206 241h178zM888 1230c-112 0 -200 86 -200 197c0 112 88 198 200 198c111 0 199 -86 199 -198c0 -111 -88 -197 -199 -197zM888 1323c59 0 104 45 104 104c0 60 -45 105 -104 105c-60 0 -105 -45 -105 -105c0 -59 45 -104 105 -104zM951 511l-249 -1
c-183 -1 -286 -73 -287 -199c-1 -110 81 -180 210 -180c147 0 276 107 302 252zM895 156h-10c-54 -107 -176 -174 -319 -174c-192 0 -325 124 -327 305c-2 225 164 351 464 354l270 2l10 55c6 33 8 50 8 72c0 111 -87 182 -222 182c-117 0 -217 -59 -245 -146h-170
c34 173 210 293 431 293c226 0 376 -121 376 -304c0 -46 -3 -73 -21 -169l-110 -626h-162z" />
    <glyph glyph-name="atilde" unicode="&#xe3;" 
d="M566 -18c-192 0 -325 124 -327 305c-2 225 164 351 464 354l270 2l10 55c6 33 8 50 8 72c0 111 -87 182 -222 182c-117 0 -217 -59 -245 -146h-170c34 173 210 293 431 293c226 0 376 -121 376 -304c0 -46 -3 -73 -21 -169l-110 -626h-162l27 156h-10
c-54 -107 -176 -174 -319 -174zM625 131c147 0 276 107 302 252l24 128l-249 -1c-183 -1 -286 -73 -287 -199c-1 -110 81 -180 210 -180zM739 1425c-60 0 -86 -46 -89 -157h-140c7 184 93 291 232 291c160 0 201 -158 288 -158c60 0 86 45 89 155h139
c-6 -181 -93 -290 -231 -290c-160 0 -201 159 -288 159z" />
    <glyph glyph-name="abrevegrave" unicode="&#x1eb1;" 
d="M1127 1589h143c-30 -199 -186 -331 -394 -331c-204 0 -347 151 -314 331h138c-16 -119 63 -200 192 -200c121 0 217 81 235 200zM843 1970l148 -308h-150l-177 308h179zM951 511l-249 -1c-183 -1 -286 -73 -287 -199c-1 -110 81 -180 210 -180c147 0 276 107 302 252z
M895 156h-10c-54 -107 -176 -174 -319 -174c-192 0 -325 124 -327 305c-2 225 164 351 464 354l270 2l10 55c6 33 8 50 8 72c0 111 -87 182 -222 182c-117 0 -217 -59 -245 -146h-170c34 173 210 293 431 293c226 0 376 -121 376 -304c0 -46 -3 -73 -21 -169l-110 -626h-162
z" />
    <glyph glyph-name="adotmacron" unicode="&#x1e1;" 
d="M566 -18c-192 0 -325 124 -327 305c-2 225 164 351 464 354l270 2l10 55c6 33 8 50 8 72c0 111 -87 182 -222 182c-117 0 -217 -59 -245 -146h-170c34 173 210 293 431 293c226 0 376 -121 376 -304c0 -46 -3 -73 -21 -169l-110 -626h-162l27 156h-10
c-54 -107 -176 -174 -319 -174zM625 131c147 0 276 107 302 252l24 128l-249 -1c-183 -1 -286 -73 -287 -199c-1 -110 81 -180 210 -180zM1271 1730h-660l24 139h660zM887 1292c-68 0 -126 59 -126 128c0 70 58 129 126 129s126 -59 126 -129c0 -69 -58 -128 -126 -128z" />
    <glyph glyph-name="aringbelow" unicode="&#x1e01;" 
d="M566 -18c-192 0 -325 124 -327 305c-2 225 164 351 464 354l270 2l10 55c6 33 8 50 8 72c0 111 -87 182 -222 182c-117 0 -217 -59 -245 -146h-170c34 173 210 293 431 293c226 0 376 -121 376 -304c0 -46 -3 -73 -21 -169l-110 -626h-162l27 156h-10
c-54 -107 -176 -174 -319 -174zM625 131c147 0 276 107 302 252l24 128l-249 -1c-183 -1 -286 -73 -287 -199c-1 -110 81 -180 210 -180zM570 -485c67 0 118 52 118 122c0 69 -51 122 -118 122s-118 -53 -118 -122c0 -70 51 -122 118 -122zM570 -594
c-124 0 -226 103 -226 231c0 127 102 231 226 231c125 0 226 -104 226 -231c0 -128 -101 -231 -226 -231z" />
    <glyph glyph-name="acircumflex" unicode="&#xe2;" 
d="M566 -18c-192 0 -325 124 -327 305c-2 225 164 351 464 354l270 2l10 55c6 33 8 50 8 72c0 111 -87 182 -222 182c-117 0 -217 -59 -245 -146h-170c34 173 210 293 431 293c226 0 376 -121 376 -304c0 -46 -3 -73 -21 -169l-110 -626h-162l27 156h-10
c-54 -107 -176 -174 -319 -174zM625 131c147 0 276 107 302 252l24 128l-249 -1c-183 -1 -286 -73 -287 -199c-1 -110 81 -180 210 -180zM823 1623h200l214 -341h-186l-133 226h-15l-212 -226h-202z" />
    <glyph glyph-name="acircumflexdotbelow" unicode="&#x1ead;" 
d="M566 -18c-192 0 -325 124 -327 305c-2 225 164 351 464 354l270 2l10 55c6 33 8 50 8 72c0 111 -87 182 -222 182c-117 0 -217 -59 -245 -146h-170c34 173 210 293 431 293c226 0 376 -121 376 -304c0 -46 -3 -73 -21 -169l-110 -626h-162l27 156h-10
c-54 -107 -176 -174 -319 -174zM625 131c147 0 276 107 302 252l24 128l-249 -1c-183 -1 -286 -73 -287 -199c-1 -110 81 -180 210 -180zM823 1623h200l214 -341h-186l-133 226h-15l-212 -226h-202zM571 -451c-68 0 -126 58 -126 128s58 129 126 129s126 -59 126 -129
s-58 -128 -126 -128z" />
    <glyph glyph-name="acircumflexacute" unicode="&#x1ea5;" 
d="M566 -18c-192 0 -325 124 -327 305c-2 225 164 351 464 354l270 2l10 55c6 33 8 50 8 72c0 111 -87 182 -222 182c-117 0 -217 -59 -245 -146h-170c34 173 210 293 431 293c226 0 376 -121 376 -304c0 -46 -3 -73 -21 -169l-110 -626h-162l27 156h-10
c-54 -107 -176 -174 -319 -174zM625 131c147 0 276 107 302 252l24 128l-249 -1c-183 -1 -286 -73 -287 -199c-1 -110 81 -180 210 -180zM1125 1662l258 308h194l-284 -308h-168zM823 1625h200l214 -341h-186l-133 226h-15l-212 -226h-202z" />
    <glyph glyph-name="acircumflextilde" unicode="&#x1eab;" 
d="M566 -18c-192 0 -325 124 -327 305c-2 225 164 351 464 354l270 2l10 55c6 33 8 50 8 72c0 111 -87 182 -222 182c-117 0 -217 -59 -245 -146h-170c34 173 210 293 431 293c226 0 376 -121 376 -304c0 -46 -3 -73 -21 -169l-110 -626h-162l27 156h-10
c-54 -107 -176 -174 -319 -174zM625 131c147 0 276 107 302 252l24 128l-249 -1c-183 -1 -286 -73 -287 -199c-1 -110 81 -180 210 -180zM820 1871c-59 0 -85 -44 -89 -153h-140c6 177 93 284 231 284c160 0 200 -151 286 -151c59 0 84 43 88 151h140
c-5 -175 -94 -284 -230 -284c-160 0 -200 153 -286 153zM823 1625h200l214 -341h-186l-133 226h-15l-212 -226h-202z" />
    <glyph glyph-name="acircumflexgrave" unicode="&#x1ea7;" 
d="M566 -18c-192 0 -325 124 -327 305c-2 225 164 351 464 354l270 2l10 55c6 33 8 50 8 72c0 111 -87 182 -222 182c-117 0 -217 -59 -245 -146h-170c34 173 210 293 431 293c226 0 376 -121 376 -304c0 -46 -3 -73 -21 -169l-110 -626h-162l27 156h-10
c-54 -107 -176 -174 -319 -174zM625 131c147 0 276 107 302 252l24 128l-249 -1c-183 -1 -286 -73 -287 -199c-1 -110 81 -180 210 -180zM1380 1662h-158l-177 308h184zM823 1625h200l214 -341h-186l-133 226h-15l-212 -226h-202z" />
    <glyph glyph-name="acircumflexhookabove" unicode="&#x1ea9;" 
d="M566 -18c-192 0 -325 124 -327 305c-2 225 164 351 464 354l270 2l10 55c6 33 8 50 8 72c0 111 -87 182 -222 182c-117 0 -217 -59 -245 -146h-170c34 173 210 293 431 293c226 0 376 -121 376 -304c0 -46 -3 -73 -21 -169l-110 -626h-162l27 156h-10
c-54 -107 -176 -174 -319 -174zM625 131c147 0 276 107 302 252l24 128l-249 -1c-183 -1 -286 -73 -287 -199c-1 -110 81 -180 210 -180zM823 1625h200l214 -341h-186l-133 226h-15l-212 -226h-202zM1025 1854l6 119c36 17 88 28 138 28c121 0 202 -72 202 -179
c0 -96 -65 -177 -175 -216l-65 93c64 21 104 62 104 108c0 45 -38 72 -100 72c-38 0 -77 -9 -110 -25z" />
    <glyph glyph-name="abreve" unicode="&#x103;" 
d="M566 -18c-192 0 -325 124 -327 305c-2 225 164 351 464 354l270 2l10 55c6 33 8 50 8 72c0 111 -87 182 -222 182c-117 0 -217 -59 -245 -146h-170c34 173 210 293 431 293c226 0 376 -121 376 -304c0 -46 -3 -73 -21 -169l-110 -626h-162l27 156h-10
c-54 -107 -176 -174 -319 -174zM625 131c147 0 276 107 302 252l24 128l-249 -1c-183 -1 -286 -73 -287 -199c-1 -110 81 -180 210 -180zM879 1249c-205 0 -348 150 -315 330h139c-16 -119 62 -199 192 -199c120 0 217 81 235 199h142c-29 -199 -185 -330 -393 -330z" />
    <glyph glyph-name="abreveacute" unicode="&#x1eaf;" 
d="M566 -18c-192 0 -325 124 -327 305c-2 225 164 351 464 354l270 2l10 55c6 33 8 50 8 72c0 111 -87 182 -222 182c-117 0 -217 -59 -245 -146h-170c34 173 210 293 431 293c226 0 376 -121 376 -304c0 -46 -3 -73 -21 -169l-110 -626h-162l27 156h-10
c-54 -107 -176 -174 -319 -174zM625 131c147 0 276 107 302 252l24 128l-249 -1c-183 -1 -286 -73 -287 -199c-1 -110 81 -180 210 -180zM812 1662l256 308h184l-285 -308h-155zM877 1258c-204 0 -347 151 -314 331h138c-16 -119 63 -200 192 -200c121 0 217 81 235 200h142
c-29 -199 -185 -331 -393 -331z" />
    <glyph glyph-name="abrevetilde" unicode="&#x1eb5;" 
d="M566 -18c-192 0 -325 124 -327 305c-2 225 164 351 464 354l270 2l10 55c6 33 8 50 8 72c0 111 -87 182 -222 182c-117 0 -217 -59 -245 -146h-170c34 173 210 293 431 293c226 0 376 -121 376 -304c0 -46 -3 -73 -21 -169l-110 -626h-162l27 156h-10
c-54 -107 -176 -174 -319 -174zM625 131c147 0 276 107 302 252l24 128l-249 -1c-183 -1 -286 -73 -287 -199c-1 -110 81 -180 210 -180zM879 1258c-205 0 -348 151 -315 331h139c-16 -119 62 -200 192 -200c120 0 217 81 235 200h142c-29 -199 -185 -331 -393 -331z
M819 1851c-60 0 -86 -46 -89 -157h-140c7 184 92 291 232 291c160 0 200 -158 287 -158c60 0 86 45 89 155h140c-6 -181 -94 -290 -232 -290c-160 0 -200 159 -287 159z" />
    <glyph glyph-name="abrevehookabove" unicode="&#x1eb3;" 
d="M566 -18c-192 0 -325 124 -327 305c-2 225 164 351 464 354l270 2l10 55c6 33 8 50 8 72c0 111 -87 182 -222 182c-117 0 -217 -59 -245 -146h-170c34 173 210 293 431 293c226 0 376 -121 376 -304c0 -46 -3 -73 -21 -169l-110 -626h-162l27 156h-10
c-54 -107 -176 -174 -319 -174zM625 131c147 0 276 107 302 252l24 128l-249 -1c-183 -1 -286 -73 -287 -199c-1 -110 81 -180 210 -180zM879 1258c-205 0 -348 151 -315 331h139c-16 -119 62 -200 192 -200c120 0 217 81 235 200h142c-29 -199 -185 -331 -393 -331z
M734 1854l5 119c37 17 89 28 138 28c121 0 203 -72 203 -179c0 -96 -66 -177 -176 -215l-64 92c63 21 104 63 104 108s-39 73 -101 73c-38 0 -76 -9 -109 -26z" />
    <glyph glyph-name="abrevedotbelow" unicode="&#x1eb7;" 
d="M566 -18c-192 0 -325 124 -327 305c-2 225 164 351 464 354l270 2l10 55c6 33 8 50 8 72c0 111 -87 182 -222 182c-117 0 -217 -59 -245 -146h-170c34 173 210 293 431 293c226 0 376 -121 376 -304c0 -46 -3 -73 -21 -169l-110 -626h-162l27 156h-10
c-54 -107 -176 -174 -319 -174zM625 131c147 0 276 107 302 252l24 128l-249 -1c-183 -1 -286 -73 -287 -199c-1 -110 81 -180 210 -180zM879 1249c-205 0 -348 150 -315 330h139c-16 -119 62 -199 192 -199c120 0 217 81 235 199h142c-29 -199 -185 -330 -393 -330z
M571 -451c-68 0 -126 58 -126 128s58 129 126 129s126 -59 126 -129s-58 -128 -126 -128z" />
    <glyph glyph-name="ainvertedbreve" unicode="&#x203;" 
d="M566 -18c-192 0 -325 124 -327 305c-2 225 164 351 464 354l270 2l10 55c6 33 8 50 8 72c0 111 -87 182 -222 182c-117 0 -217 -59 -245 -146h-170c34 173 210 293 431 293c226 0 376 -121 376 -304c0 -46 -3 -73 -21 -169l-110 -626h-162l27 156h-10
c-54 -107 -176 -174 -319 -174zM625 131c147 0 276 107 302 252l24 128l-249 -1c-183 -1 -286 -73 -287 -199c-1 -110 81 -180 210 -180zM907 1589c204 0 347 -151 314 -331h-138c16 119 -62 200 -192 200c-121 0 -217 -81 -235 -200h-142c29 199 185 331 393 331z" />
    <glyph glyph-name="acaron" unicode="&#x1ce;" 
d="M566 -18c-192 0 -325 124 -327 305c-2 225 164 351 464 354l270 2l10 55c6 33 8 50 8 72c0 111 -87 182 -222 182c-117 0 -217 -59 -245 -146h-170c34 173 210 293 431 293c226 0 376 -121 376 -304c0 -46 -3 -73 -21 -169l-110 -626h-162l27 156h-10
c-54 -107 -176 -174 -319 -174zM625 131c147 0 276 107 302 252l24 128l-249 -1c-183 -1 -286 -73 -287 -199c-1 -110 81 -180 210 -180zM960 1296h-201l-213 342h186l132 -227h15l212 227h202z" />
    <glyph glyph-name="adotaccent" unicode="&#x227;" 
d="M566 -18c-192 0 -325 124 -327 305c-2 225 164 351 464 354l270 2l10 55c6 33 8 50 8 72c0 111 -87 182 -222 182c-117 0 -217 -59 -245 -146h-170c34 173 210 293 431 293c226 0 376 -121 376 -304c0 -46 -3 -73 -21 -169l-110 -626h-162l27 156h-10
c-54 -107 -176 -174 -319 -174zM625 131c147 0 276 107 302 252l24 128l-249 -1c-183 -1 -286 -73 -287 -199c-1 -110 81 -180 210 -180zM888 1299c-68 0 -126 59 -126 129s58 128 126 128s126 -58 126 -128s-58 -129 -126 -129z" />
    <glyph glyph-name="adotbelow" unicode="&#x1ea1;" 
d="M566 -18c-192 0 -325 124 -327 305c-2 225 164 351 464 354l270 2l10 55c6 33 8 50 8 72c0 111 -87 182 -222 182c-117 0 -217 -59 -245 -146h-170c34 173 210 293 431 293c226 0 376 -121 376 -304c0 -46 -3 -73 -21 -169l-110 -626h-162l27 156h-10
c-54 -107 -176 -174 -319 -174zM625 131c147 0 276 107 302 252l24 128l-249 -1c-183 -1 -286 -73 -287 -199c-1 -110 81 -180 210 -180zM571 -451c-68 0 -126 58 -126 128s58 129 126 129s126 -59 126 -129s-58 -128 -126 -128z" />
    <glyph glyph-name="ahookabove" unicode="&#x1ea3;" 
d="M566 -18c-192 0 -325 124 -327 305c-2 225 164 351 464 354l270 2l10 55c6 33 8 50 8 72c0 111 -87 182 -222 182c-117 0 -217 -59 -245 -146h-170c34 173 210 293 431 293c226 0 376 -121 376 -304c0 -46 -3 -73 -21 -169l-110 -626h-162l27 156h-10
c-54 -107 -176 -174 -319 -174zM625 131c147 0 276 107 302 252l24 128l-249 -1c-183 -1 -286 -73 -287 -199c-1 -110 81 -180 210 -180zM718 1488l6 119c36 18 88 28 138 28c120 0 202 -71 202 -178c0 -96 -65 -177 -176 -216l-64 93c63 20 104 62 104 108
c0 44 -39 72 -101 72c-37 0 -76 -9 -109 -26z" />
    <glyph glyph-name="adblgrave" unicode="&#x201;" 
d="M948 1635l168 -339h-165l-190 339h187zM567 1635l168 -339h-165l-191 339h188zM951 511l-249 -1c-183 -1 -286 -73 -287 -199c-1 -110 81 -180 210 -180c147 0 276 107 302 252zM895 156h-10c-54 -107 -176 -174 -319 -174c-192 0 -325 124 -327 305
c-2 225 164 351 464 354l270 2l10 55c6 33 8 50 8 72c0 111 -87 182 -222 182c-117 0 -217 -59 -245 -146h-170c34 173 210 293 431 293c226 0 376 -121 376 -304c0 -46 -3 -73 -21 -169l-110 -626h-162z" />
    <glyph glyph-name="amacron" unicode="&#x101;" 
d="M566 -18c-192 0 -325 124 -327 305c-2 225 164 351 464 354l270 2l10 55c6 33 8 50 8 72c0 111 -87 182 -222 182c-117 0 -217 -59 -245 -146h-170c34 173 210 293 431 293c226 0 376 -121 376 -304c0 -46 -3 -73 -21 -169l-110 -626h-162l27 156h-10
c-54 -107 -176 -174 -319 -174zM625 131c147 0 276 107 302 252l24 128l-249 -1c-183 -1 -286 -73 -287 -199c-1 -110 81 -180 210 -180zM1208 1370h-660l24 139h660z" />
    <glyph glyph-name="aogonek" unicode="&#x105;" 
d="M625 131c144 0 281 111 306 252l24 128l-253 -1c-183 -1 -286 -73 -287 -199c-1 -110 81 -180 210 -180zM888 36l20 120h-19c-52 -99 -193 -174 -322 -174c-193 0 -326 125 -328 305c-2 225 164 351 464 354l274 2l10 55c4 27 6 48 6 75c0 109 -85 179 -220 179
c-119 0 -221 -59 -249 -146h-170c34 172 212 293 434 293c226 0 377 -121 377 -304c0 -55 -3 -82 -21 -169l-110 -626c-154 -59 -217 -115 -217 -193c0 -62 51 -105 125 -105c21 0 26 1 40 5l-21 -121c-22 -8 -47 -11 -85 -11c-126 0 -219 83 -219 196c0 109 54 173 231 265
z" />
    <glyph glyph-name="b" unicode="b" 
d="M750 -18c-174 0 -298 91 -333 243h-14l-40 -225h-173l267 1511h172l-104 -586h19c60 111 179 178 317 178c228 0 370 -154 370 -399c0 -32 -2 -61 -11 -107l-34 -195c-47 -265 -208 -420 -436 -420zM722 137c155 0 268 108 300 286l29 166c5 28 7 60 7 96
c0 166 -99 265 -266 265c-155 0 -283 -120 -315 -295l-29 -162c-5 -25 -7 -50 -7 -75c0 -160 117 -281 281 -281z" />
    <glyph glyph-name="blinebelow" unicode="&#x1e07;" 
d="M750 -18c-174 0 -298 91 -333 243h-14l-40 -225h-173l267 1511h172l-104 -586h19c60 111 179 178 317 178c228 0 370 -154 370 -399c0 -32 -2 -61 -11 -107l-34 -195c-47 -265 -208 -420 -436 -420zM722 137c155 0 268 108 300 286l29 166c5 28 7 60 7 96
c0 166 -99 265 -266 265c-155 0 -283 -120 -315 -295l-29 -162c-5 -25 -7 -50 -7 -75c0 -160 117 -281 281 -281zM894 -395h-660l24 139h660z" />
    <glyph glyph-name="bdotbelow" unicode="&#x1e05;" 
d="M750 -18c-174 0 -298 91 -333 243h-14l-40 -225h-173l267 1511h172l-104 -586h19c60 111 179 178 317 178c228 0 370 -154 370 -399c0 -32 -2 -61 -11 -107l-34 -195c-47 -265 -208 -420 -436 -420zM722 137c155 0 268 108 300 286l29 166c5 28 7 60 7 96
c0 166 -99 265 -266 265c-155 0 -283 -120 -315 -295l-29 -162c-5 -25 -7 -50 -7 -75c0 -160 117 -281 281 -281zM576 -451c-68 0 -126 58 -126 128s58 129 126 129s126 -59 126 -129s-58 -128 -126 -128z" />
    <glyph glyph-name="bdotaccent" unicode="&#x1e03;" 
d="M750 -18c-174 0 -298 91 -333 243h-14l-40 -225h-173l267 1511h172l-104 -586h19c60 111 179 178 317 178c228 0 370 -154 370 -399c0 -32 -2 -61 -11 -107l-34 -195c-47 -265 -208 -420 -436 -420zM722 137c155 0 268 108 300 286l29 166c5 28 7 60 7 96
c0 166 -99 265 -266 265c-155 0 -283 -120 -315 -295l-29 -162c-5 -25 -7 -50 -7 -75c0 -160 117 -281 281 -281zM1020 1299c-68 0 -126 59 -126 129s58 128 126 128s126 -58 126 -128s-58 -129 -126 -129z" />
    <glyph glyph-name="c" unicode="c" 
d="M1221 725h-169v5c0 131 -106 224 -258 224c-183 0 -291 -112 -332 -340l-12 -66c-7 -41 -13 -93 -13 -130c0 -183 99 -286 274 -286c132 0 236 68 274 183h169c-45 -203 -222 -336 -450 -336c-271 0 -437 159 -437 415c0 33 3 71 9 117c5 34 17 106 27 163
c47 271 233 432 497 432c253 0 421 -146 421 -364v-17z" />
    <glyph glyph-name="cacute" unicode="&#x107;" 
d="M1221 725h-169v5c0 131 -106 224 -258 224c-183 0 -291 -112 -332 -340l-12 -66c-7 -41 -13 -93 -13 -130c0 -183 99 -286 274 -286c132 0 236 68 274 183h169c-45 -203 -222 -336 -450 -336c-271 0 -437 159 -437 415c0 33 3 71 9 117c5 34 17 106 27 163
c47 271 233 432 497 432c253 0 421 -146 421 -364v-17zM899 1296h-187l298 339h213z" />
    <glyph glyph-name="ccaron" unicode="&#x10d;" 
d="M932 1296h-200l-214 342h186l133 -227h15l212 227h202zM1221 725h-169v5c0 131 -106 224 -258 224c-183 0 -291 -112 -332 -340l-12 -66c-7 -41 -13 -93 -13 -130c0 -183 99 -286 274 -286c132 0 236 68 274 183h169c-45 -203 -222 -336 -450 -336
c-271 0 -437 159 -437 415c0 33 3 71 9 117c5 34 17 106 27 163c47 271 233 432 497 432c253 0 421 -146 421 -364v-17z" />
    <glyph glyph-name="ccircumflex" unicode="&#x109;" 
d="M795 1623h201l213 -341h-186l-132 226h-15l-212 -226h-203zM1221 725h-169v5c0 131 -106 224 -258 224c-183 0 -291 -112 -332 -340l-12 -66c-7 -41 -13 -93 -13 -130c0 -183 99 -286 274 -286c132 0 236 68 274 183h169c-45 -203 -222 -336 -450 -336
c-271 0 -437 159 -437 415c0 33 3 71 9 117c5 34 17 106 27 163c47 271 233 432 497 432c253 0 421 -146 421 -364v-17z" />
    <glyph glyph-name="cdotaccent" unicode="&#x10b;" 
d="M860 1299c-68 0 -126 59 -126 129s58 128 126 128s126 -58 126 -128s-58 -129 -126 -129zM1221 725h-169v5c0 131 -106 224 -258 224c-183 0 -291 -112 -332 -340l-12 -66c-7 -41 -13 -93 -13 -130c0 -183 99 -286 274 -286c132 0 236 68 274 183h169
c-45 -203 -222 -336 -450 -336c-271 0 -437 159 -437 415c0 33 3 71 9 117c5 34 17 106 27 163c47 271 233 432 497 432c253 0 421 -146 421 -364v-17z" />
    <glyph glyph-name="ccedilla" unicode="&#xe7;" 
d="M1221 725h-169v5c0 131 -106 224 -258 224c-183 0 -291 -112 -332 -340l-12 -66c-7 -41 -13 -93 -13 -130c0 -183 99 -286 274 -286c132 0 236 68 274 183h169c-43 -193 -205 -323 -416 -335l-58 -113c118 -4 184 -59 184 -152c0 -118 -101 -200 -250 -200
c-50 0 -110 10 -158 27l19 108c31 -12 99 -22 138 -22c73 0 115 25 115 72c0 50 -47 74 -139 74h-53l4 84l67 128c-213 34 -340 184 -340 408c0 33 3 71 9 117c5 34 17 106 27 163c47 271 233 432 497 432c253 0 421 -146 421 -364v-17z" />
    <glyph glyph-name="ccedillaacute" unicode="&#x1e09;" 
d="M1223 1635l-323 -339h-187l298 339h212zM540 -142l67 128c-213 34 -340 184 -340 408c0 33 3 71 9 117c5 34 17 106 27 163c47 271 233 432 497 432c253 0 421 -146 421 -364v-17h-169v5c0 131 -106 224 -258 224c-183 0 -291 -112 -332 -340l-12 -66
c-7 -41 -13 -93 -13 -130c0 -183 99 -286 274 -286c132 0 236 68 274 183h169c-43 -193 -205 -323 -416 -335l-58 -113c118 -4 184 -59 184 -152c0 -118 -101 -200 -250 -200c-50 0 -110 10 -158 27l19 108c31 -12 99 -22 138 -22c73 0 115 25 115 72c0 50 -47 74 -139 74
h-53z" />
    <glyph glyph-name="d" unicode="d" 
d="M719 1103c163 0 305 -93 331 -236h9l114 644h170l-267 -1511h-167l34 191h-12c-49 -126 -176 -209 -322 -209c-232 0 -378 153 -378 394c0 51 5 106 11 138l29 175c43 256 214 414 448 414zM741 947c-165 0 -269 -101 -304 -292l-25 -145c-4 -23 -7 -64 -7 -99
c0 -164 97 -268 251 -268c173 0 296 111 329 294l29 161c4 29 6 48 6 64c0 165 -118 285 -279 285z" />
    <glyph glyph-name="ddotaccent" unicode="&#x1e0b;" 
d="M719 1103c163 0 305 -93 331 -236h9l114 644h170l-267 -1511h-167l34 191h-12c-49 -126 -176 -209 -322 -209c-232 0 -378 153 -378 394c0 51 5 106 11 138l29 175c43 256 214 414 448 414zM741 947c-165 0 -269 -101 -304 -292l-25 -145c-4 -23 -7 -64 -7 -99
c0 -164 97 -268 251 -268c173 0 296 111 329 294l29 161c4 29 6 48 6 64c0 165 -118 285 -279 285zM739 1299c-68 0 -126 59 -126 129s58 128 126 128s126 -58 126 -128s-58 -129 -126 -129z" />
    <glyph glyph-name="dcircumflexbelow" unicode="&#x1e13;" 
d="M719 1103c163 0 305 -93 331 -236h9l114 644h170l-267 -1511h-167l34 191h-12c-49 -126 -176 -209 -322 -209c-232 0 -378 153 -378 394c0 51 5 106 11 138l29 175c43 256 214 414 448 414zM741 947c-165 0 -269 -101 -304 -292l-25 -145c-4 -23 -7 -64 -7 -99
c0 -164 97 -268 251 -268c173 0 296 111 329 294l29 161c4 29 6 48 6 64c0 165 -118 285 -279 285zM504 -166h201l213 -342h-186l-132 227h-15l-212 -227h-203z" />
    <glyph glyph-name="dcommaaccent" unicode="&#x1e11;" 
d="M719 1103c163 0 305 -93 331 -236h9l114 644h170l-267 -1511h-167l34 191h-12c-49 -126 -176 -209 -322 -209c-232 0 -378 153 -378 394c0 51 5 106 11 138l29 175c43 256 214 414 448 414zM741 947c-165 0 -269 -101 -304 -292l-25 -145c-4 -23 -7 -64 -7 -99
c0 -164 97 -268 251 -268c173 0 296 111 329 294l29 161c4 29 6 48 6 64c0 165 -118 285 -279 285zM588 -519h-157l121 361h176z" />
    <glyph glyph-name="dlinebelow" unicode="&#x1e0f;" 
d="M719 1103c163 0 305 -93 331 -236h9l114 644h170l-267 -1511h-167l34 191h-12c-49 -126 -176 -209 -322 -209c-232 0 -378 153 -378 394c0 51 5 106 11 138l29 175c43 256 214 414 448 414zM741 947c-165 0 -269 -101 -304 -292l-25 -145c-4 -23 -7 -64 -7 -99
c0 -164 97 -268 251 -268c173 0 296 111 329 294l29 161c4 29 6 48 6 64c0 165 -118 285 -279 285zM894 -395h-660l24 139h660z" />
    <glyph glyph-name="dcaron" unicode="&#x10f;" 
d="M1373 1511h159l-118 -458h-122zM626 1103c157 0 266 -90 292 -229h9l113 637h162l-267 -1511h-156l32 183h-12c-51 -127 -151 -201 -285 -201c-217 0 -345 145 -345 387c0 53 5 100 12 133l33 198c45 257 193 403 412 403zM641 947c-153 0 -239 -87 -275 -285l-27 -160
c-4 -22 -7 -56 -7 -89c0 -171 80 -270 223 -270c161 0 262 97 297 287l30 175c5 28 6 48 6 85c0 149 -99 257 -247 257z" />
    <glyph glyph-name="ddotbelow" unicode="&#x1e0d;" 
d="M719 1103c163 0 305 -93 331 -236h9l114 644h170l-267 -1511h-167l34 191h-12c-49 -126 -176 -209 -322 -209c-232 0 -378 153 -378 394c0 51 5 106 11 138l29 175c43 256 214 414 448 414zM741 947c-165 0 -269 -101 -304 -292l-25 -145c-4 -23 -7 -64 -7 -99
c0 -164 97 -268 251 -268c173 0 296 111 329 294l29 161c4 29 6 48 6 64c0 165 -118 285 -279 285zM576 -451c-68 0 -126 58 -126 128s58 129 126 129s126 -59 126 -129s-58 -128 -126 -128z" />
    <glyph glyph-name="dcroat" unicode="&#x111;" 
d="M984 437l28 161c5 29 6 48 6 64c0 165 -118 285 -278 285c-165 0 -270 -101 -304 -292l-25 -145c-4 -23 -8 -64 -8 -99c0 -164 97 -268 251 -268c174 0 296 111 330 294zM1489 1384l-19 -112h-171l-224 -1272h-167l34 191h-13c-48 -126 -175 -209 -321 -209
c-233 0 -379 153 -379 394c0 51 6 106 11 138l30 175c43 256 214 414 448 414c163 0 304 -93 331 -236h8l72 405h-219l19 112h220l23 127h169l-22 -127h170z" />
    <glyph glyph-name="e" unicode="e" 
d="M793 959c-163 0 -283 -100 -314 -265c-1 -2 -12 -64 -13 -67h577c0 4 5 41 5 47c20 167 -85 285 -255 285zM1141 280c-28 -172 -217 -300 -440 -300c-265 0 -427 159 -427 418c0 40 4 81 15 154l21 136c40 257 229 417 496 417c259 0 432 -183 406 -429
c0 -12 -9 -82 -10 -91l-12 -87h-741c-2 -7 -8 -67 -8 -71c-18 -181 90 -300 269 -300c128 0 239 64 263 153h168z" />
    <glyph glyph-name="egrave" unicode="&#xe8;" 
d="M793 959c-163 0 -283 -100 -314 -265c-1 -2 -12 -64 -13 -67h577c0 4 5 41 5 47c20 167 -85 285 -255 285zM1141 280c-28 -172 -217 -300 -440 -300c-265 0 -427 159 -427 418c0 40 4 81 15 154l21 136c40 257 229 417 496 417c259 0 432 -183 406 -429
c0 -12 -9 -82 -10 -91l-12 -87h-741c-2 -7 -8 -67 -8 -71c-18 -181 90 -300 269 -300c128 0 239 64 263 153h168zM971 1296h-176l-206 339h202z" />
    <glyph glyph-name="edblgrave" unicode="&#x205;" 
d="M934 1635l167 -339h-165l-190 339h188zM553 1635l168 -339h-166l-190 339h188zM973 280h168c-28 -172 -217 -300 -440 -300c-265 0 -427 159 -427 418c0 40 4 81 15 154l21 136c40 257 229 417 496 417c259 0 432 -183 406 -429c0 -12 -9 -82 -10 -91l-12 -87h-741
c-2 -7 -8 -67 -8 -71c-18 -181 90 -300 269 -300c128 0 239 64 263 153zM466 627h577c0 4 5 41 5 47c20 167 -85 285 -255 285c-163 0 -283 -100 -314 -265c-1 -2 -12 -64 -13 -67z" />
    <glyph glyph-name="eacute" unicode="&#xe9;" 
d="M912 1296h-187l298 339h212zM973 280h168c-28 -172 -217 -300 -440 -300c-265 0 -427 159 -427 418c0 40 4 81 15 154l21 136c40 257 229 417 496 417c259 0 432 -183 406 -429c0 -12 -9 -82 -10 -91l-12 -87h-741c-2 -7 -8 -67 -8 -71c-18 -181 90 -300 269 -300
c128 0 239 64 263 153zM466 627h577c0 4 5 41 5 47c20 167 -85 285 -255 285c-163 0 -283 -100 -314 -265c-1 -2 -12 -64 -13 -67z" />
    <glyph glyph-name="ecircumflex" unicode="&#xea;" 
d="M793 959c-163 0 -283 -100 -314 -265c-1 -2 -12 -64 -13 -67h577c0 4 5 41 5 47c20 167 -85 285 -255 285zM1141 280c-28 -172 -217 -300 -440 -300c-265 0 -427 159 -427 418c0 40 4 81 15 154l21 136c40 257 229 417 496 417c259 0 432 -183 406 -429
c0 -12 -9 -82 -10 -91l-12 -87h-741c-2 -7 -8 -67 -8 -71c-18 -181 90 -300 269 -300c128 0 239 64 263 153h168zM808 1623h200l214 -341h-186l-133 226h-15l-212 -226h-202z" />
    <glyph glyph-name="ecircumflexhookabove" unicode="&#x1ec3;" 
d="M793 959c-163 0 -283 -100 -314 -265c-1 -2 -12 -64 -13 -67h577c0 4 5 41 5 47c20 167 -85 285 -255 285zM1141 280c-28 -172 -217 -300 -440 -300c-265 0 -427 159 -427 418c0 40 4 81 15 154l21 136c40 257 229 417 496 417c259 0 432 -183 406 -429
c0 -12 -9 -82 -10 -91l-12 -87h-741c-2 -7 -8 -67 -8 -71c-18 -181 90 -300 269 -300c128 0 239 64 263 153h168zM808 1625h200l214 -341h-186l-133 226h-15l-211 -226h-203zM1011 1854l5 119c36 17 89 28 138 28c121 0 202 -72 202 -179c0 -96 -65 -177 -175 -216l-65 93
c64 21 104 62 104 108c0 45 -38 72 -100 72c-38 0 -77 -9 -109 -25z" />
    <glyph glyph-name="ecircumflexgrave" unicode="&#x1ec1;" 
d="M793 959c-163 0 -283 -100 -314 -265c-1 -2 -12 -64 -13 -67h577c0 4 5 41 5 47c20 167 -85 285 -255 285zM1141 280c-28 -172 -217 -300 -440 -300c-265 0 -427 159 -427 418c0 40 4 81 15 154l21 136c40 257 229 417 496 417c259 0 432 -183 406 -429
c0 -12 -9 -82 -10 -91l-12 -87h-741c-2 -7 -8 -67 -8 -71c-18 -181 90 -300 269 -300c128 0 239 64 263 153h168zM1365 1662h-158l-177 308h185zM808 1625h200l214 -341h-186l-133 226h-15l-211 -226h-203z" />
    <glyph glyph-name="ecircumflextilde" unicode="&#x1ec5;" 
d="M793 959c-163 0 -283 -100 -314 -265c-1 -2 -12 -64 -13 -67h577c0 4 5 41 5 47c20 167 -85 285 -255 285zM1141 280c-28 -172 -217 -300 -440 -300c-265 0 -427 159 -427 418c0 40 4 81 15 154l21 136c40 257 229 417 496 417c259 0 432 -183 406 -429
c0 -12 -9 -82 -10 -91l-12 -87h-741c-2 -7 -8 -67 -8 -71c-18 -181 90 -300 269 -300c128 0 239 64 263 153h168zM805 1871c-59 0 -85 -44 -89 -153h-139c5 177 92 284 230 284c160 0 200 -151 287 -151c58 0 84 43 88 151h139c-5 -175 -93 -284 -230 -284
c-160 0 -199 153 -286 153zM808 1625h200l214 -341h-186l-133 226h-15l-211 -226h-203z" />
    <glyph glyph-name="ecircumflexdotbelow" unicode="&#x1ec7;" 
d="M793 959c-163 0 -283 -100 -314 -265c-1 -2 -12 -64 -13 -67h577c0 4 5 41 5 47c20 167 -85 285 -255 285zM1141 280c-28 -172 -217 -300 -440 -300c-265 0 -427 159 -427 418c0 40 4 81 15 154l21 136c40 257 229 417 496 417c259 0 432 -183 406 -429
c0 -12 -9 -82 -10 -91l-12 -87h-741c-2 -7 -8 -67 -8 -71c-18 -181 90 -300 269 -300c128 0 239 64 263 153h168zM808 1623h200l214 -341h-186l-133 226h-15l-212 -226h-202zM640 -451c-68 0 -126 58 -126 128s58 129 126 129s126 -59 126 -129s-58 -128 -126 -128z" />
    <glyph glyph-name="ecircumflexacute" unicode="&#x1ebf;" 
d="M793 959c-163 0 -283 -100 -314 -265c-1 -2 -12 -64 -13 -67h577c0 4 5 41 5 47c20 167 -85 285 -255 285zM1141 280c-28 -172 -217 -300 -440 -300c-265 0 -427 159 -427 418c0 40 4 81 15 154l21 136c40 257 229 417 496 417c259 0 432 -183 406 -429
c0 -12 -9 -82 -10 -91l-12 -87h-741c-2 -7 -8 -67 -8 -71c-18 -181 90 -300 269 -300c128 0 239 64 263 153h168zM1110 1662l258 308h194l-284 -308h-168zM808 1625h200l214 -341h-186l-133 226h-15l-211 -226h-203z" />
    <glyph glyph-name="edieresis" unicode="&#xeb;" 
d="M793 959c-163 0 -283 -100 -314 -265c-1 -2 -12 -64 -13 -67h577c0 4 5 41 5 47c20 167 -85 285 -255 285zM1141 280c-28 -172 -217 -300 -440 -300c-265 0 -427 159 -427 418c0 40 4 81 15 154l21 136c40 257 229 417 496 417c259 0 432 -183 406 -429
c0 -12 -9 -82 -10 -91l-12 -87h-741c-2 -7 -8 -67 -8 -71c-18 -181 90 -300 269 -300c128 0 239 64 263 153h168zM691 1319c-62 0 -117 56 -117 121c0 66 55 122 117 122c63 0 118 -56 118 -122c0 -65 -55 -121 -118 -121zM1095 1319c-62 0 -117 56 -117 121
c0 66 55 122 117 122s117 -56 117 -122c0 -65 -55 -121 -117 -121z" />
    <glyph glyph-name="edotbelow" unicode="&#x1eb9;" 
d="M793 959c-163 0 -283 -100 -314 -265c-1 -2 -12 -64 -13 -67h577c0 4 5 41 5 47c20 167 -85 285 -255 285zM1141 280c-28 -172 -217 -300 -440 -300c-265 0 -427 159 -427 418c0 40 4 81 15 154l21 136c40 257 229 417 496 417c259 0 432 -183 406 -429
c0 -12 -9 -82 -10 -91l-12 -87h-741c-2 -7 -8 -67 -8 -71c-18 -181 90 -300 269 -300c128 0 239 64 263 153h168zM640 -451c-68 0 -126 58 -126 128s58 129 126 129s126 -59 126 -129s-58 -128 -126 -128z" />
    <glyph glyph-name="einvertedbreve" unicode="&#x207;" 
d="M793 959c-163 0 -283 -100 -314 -265c-1 -2 -12 -64 -13 -67h577c0 4 5 41 5 47c20 167 -85 285 -255 285zM1141 280c-28 -172 -217 -300 -440 -300c-265 0 -427 159 -427 418c0 40 4 81 15 154l21 136c40 257 229 417 496 417c259 0 432 -183 406 -429
c0 -12 -9 -82 -10 -91l-12 -87h-741c-2 -7 -8 -67 -8 -71c-18 -181 90 -300 269 -300c128 0 239 64 263 153h168zM892 1589c204 0 348 -151 315 -331h-139c16 119 -62 200 -192 200c-121 0 -217 -81 -235 -200h-142c29 199 185 331 393 331z" />
    <glyph glyph-name="ehookabove" unicode="&#x1ebb;" 
d="M793 959c-163 0 -283 -100 -314 -265c-1 -2 -12 -64 -13 -67h577c0 4 5 41 5 47c20 167 -85 285 -255 285zM1141 280c-28 -172 -217 -300 -440 -300c-265 0 -427 159 -427 418c0 40 4 81 15 154l21 136c40 257 229 417 496 417c259 0 432 -183 406 -429
c0 -12 -9 -82 -10 -91l-12 -87h-741c-2 -7 -8 -67 -8 -71c-18 -181 90 -300 269 -300c128 0 239 64 263 153h168zM703 1488l6 119c36 18 88 28 138 28c120 0 202 -71 202 -178c0 -96 -65 -177 -176 -216l-64 93c64 20 104 62 104 108c0 44 -39 72 -100 72
c-38 0 -77 -9 -110 -26z" />
    <glyph glyph-name="ecaron" unicode="&#x11b;" 
d="M793 959c-163 0 -283 -100 -314 -265c-1 -2 -12 -64 -13 -67h577c0 4 5 41 5 47c20 167 -85 285 -255 285zM1141 280c-28 -172 -217 -300 -440 -300c-265 0 -427 159 -427 418c0 40 4 81 15 154l21 136c40 257 229 417 496 417c259 0 432 -183 406 -429
c0 -12 -9 -82 -10 -91l-12 -87h-741c-2 -7 -8 -67 -8 -71c-18 -181 90 -300 269 -300c128 0 239 64 263 153h168zM945 1296h-201l-213 342h186l132 -227h15l212 227h203z" />
    <glyph glyph-name="emacron" unicode="&#x113;" 
d="M793 959c-163 0 -283 -100 -314 -265c-1 -2 -12 -64 -13 -67h577c0 4 5 41 5 47c20 167 -85 285 -255 285zM1141 280c-28 -172 -217 -300 -440 -300c-265 0 -427 159 -427 418c0 40 4 81 15 154l21 136c40 257 229 417 496 417c259 0 432 -183 406 -429
c0 -12 -9 -82 -10 -91l-12 -87h-741c-2 -7 -8 -67 -8 -71c-18 -181 90 -300 269 -300c128 0 239 64 263 153h168zM1193 1370h-659l24 139h659z" />
    <glyph glyph-name="emacrongrave" unicode="&#x1e15;" 
d="M793 959c-163 0 -283 -100 -314 -265c-1 -2 -12 -64 -13 -67h577c0 4 5 41 5 47c20 167 -85 285 -255 285zM1141 280c-28 -172 -217 -300 -440 -300c-265 0 -427 159 -427 418c0 40 4 81 15 154l21 136c40 257 229 417 496 417c259 0 432 -183 406 -429
c0 -12 -9 -82 -10 -91l-12 -87h-741c-2 -7 -8 -67 -8 -71c-18 -181 90 -300 269 -300c128 0 239 64 263 153h168zM1015 1668h-154l-183 301h181zM1193 1369h-660l24 139h660z" />
    <glyph glyph-name="emacronacute" unicode="&#x1e17;" 
d="M1193 1368h-659l23 139h660zM949 1667h-148l175 300h175zM973 280h168c-28 -172 -217 -300 -440 -300c-265 0 -427 159 -427 418c0 40 4 81 15 154l21 136c40 257 229 417 496 417c259 0 432 -183 406 -429c0 -12 -9 -82 -10 -91l-12 -87h-741c-2 -7 -8 -67 -8 -71
c-18 -181 90 -300 269 -300c128 0 239 64 263 153zM466 627h577c0 4 5 41 5 47c20 167 -85 285 -255 285c-163 0 -283 -100 -314 -265c-1 -2 -12 -64 -13 -67z" />
    <glyph glyph-name="etilde" unicode="&#x1ebd;" 
d="M793 959c-163 0 -283 -100 -314 -265c-1 -2 -12 -64 -13 -67h577c0 4 5 41 5 47c20 167 -85 285 -255 285zM1141 280c-28 -172 -217 -300 -440 -300c-265 0 -427 159 -427 418c0 40 4 81 15 154l21 136c40 257 229 417 496 417c259 0 432 -183 406 -429
c0 -12 -9 -82 -10 -91l-12 -87h-741c-2 -7 -8 -67 -8 -71c-18 -181 90 -300 269 -300c128 0 239 64 263 153h168zM725 1425c-61 0 -87 -46 -90 -157h-140c7 184 93 291 232 291c160 0 201 -158 288 -158c60 0 86 45 89 155h140c-7 -181 -94 -290 -232 -290
c-160 0 -201 159 -287 159z" />
    <glyph glyph-name="ecircumflexbelow" unicode="&#x1e19;" 
d="M793 959c-163 0 -283 -100 -314 -265c-1 -2 -12 -64 -13 -67h577c0 4 5 41 5 47c20 167 -85 285 -255 285zM1141 280c-28 -172 -217 -300 -440 -300c-265 0 -427 159 -427 418c0 40 4 81 15 154l21 136c40 257 229 417 496 417c259 0 432 -183 406 -429
c0 -12 -9 -82 -10 -91l-12 -87h-741c-2 -7 -8 -67 -8 -71c-18 -181 90 -300 269 -300c128 0 239 64 263 153h168zM569 -166h200l214 -342h-186l-133 227h-15l-212 -227h-202z" />
    <glyph glyph-name="ebreve" unicode="&#x115;" 
d="M793 959c-163 0 -283 -100 -314 -265c-1 -2 -12 -64 -13 -67h577c0 4 5 41 5 47c20 167 -85 285 -255 285zM1141 280c-28 -172 -217 -300 -440 -300c-265 0 -427 159 -427 418c0 40 4 81 15 154l21 136c40 257 229 417 496 417c259 0 432 -183 406 -429
c0 -12 -9 -82 -10 -91l-12 -87h-741c-2 -7 -8 -67 -8 -71c-18 -181 90 -300 269 -300c128 0 239 64 263 153h168zM864 1249c-204 0 -348 150 -315 330h139c-16 -119 62 -199 192 -199c121 0 217 81 235 199h142c-29 -199 -185 -330 -393 -330z" />
    <glyph glyph-name="etildebelow" unicode="&#x1e1b;" 
d="M793 959c-163 0 -283 -100 -314 -265c-1 -2 -12 -64 -13 -67h577c0 4 5 41 5 47c20 167 -85 285 -255 285zM1141 280c-28 -172 -217 -300 -440 -300c-265 0 -427 159 -427 418c0 40 4 81 15 154l21 136c40 257 229 417 496 417c259 0 432 -183 406 -429
c0 -12 -9 -82 -10 -91l-12 -87h-741c-2 -7 -8 -67 -8 -71c-18 -181 90 -300 269 -300c128 0 239 64 263 153h168zM496 -308c-60 0 -86 -46 -89 -157h-140c7 184 92 291 232 291c160 0 200 -158 287 -158c60 0 86 45 89 155h140c-6 -181 -94 -290 -232 -290
c-160 0 -200 159 -287 159z" />
    <glyph glyph-name="edotaccent" unicode="&#x117;" 
d="M793 959c-163 0 -283 -100 -314 -265c-1 -2 -12 -64 -13 -67h577c0 4 5 41 5 47c20 167 -85 285 -255 285zM1141 280c-28 -172 -217 -300 -440 -300c-265 0 -427 159 -427 418c0 40 4 81 15 154l21 136c40 257 229 417 496 417c259 0 432 -183 406 -429
c0 -12 -9 -82 -10 -91l-12 -87h-741c-2 -7 -8 -67 -8 -71c-18 -181 90 -300 269 -300c128 0 239 64 263 153h168zM873 1299c-68 0 -126 59 -126 129s58 128 126 128s126 -58 126 -128s-58 -129 -126 -129z" />
    <glyph glyph-name="ecedilla" unicode="&#x229;" 
d="M466 627h577c0 4 5 41 5 47c20 167 -85 285 -255 285c-163 0 -283 -100 -314 -265c-1 -2 -12 -64 -13 -67zM289 552l21 136c40 257 229 417 496 417c259 0 432 -183 406 -429c0 -12 -9 -82 -10 -91l-12 -87h-741c-2 -7 -8 -67 -8 -71c-18 -181 90 -300 269 -300
c128 0 239 64 263 153h168c-25 -155 -182 -275 -376 -296l-59 -117c118 -4 184 -59 184 -152c0 -118 -102 -200 -250 -200c-50 0 -111 10 -158 27l18 108c32 -12 100 -22 139 -22c73 0 115 25 115 72c0 50 -47 74 -139 74h-54l5 84l66 126c-224 26 -358 178 -358 414
c0 40 4 81 15 154z" />
    <glyph glyph-name="ecedillabreve" unicode="&#x1e1d;" 
d="M1112 1579h143c-30 -199 -185 -330 -394 -330c-204 0 -347 150 -314 330h138c-15 -119 63 -199 192 -199c121 0 217 81 235 199zM466 627h577c0 4 5 41 5 47c20 167 -85 285 -255 285c-163 0 -283 -100 -314 -265c-1 -2 -12 -64 -13 -67zM289 552l21 136
c40 257 229 417 496 417c259 0 432 -183 406 -429c0 -12 -9 -82 -10 -91l-12 -87h-741c-2 -7 -8 -67 -8 -71c-18 -181 90 -300 269 -300c128 0 239 64 263 153h168c-25 -155 -182 -275 -376 -296l-59 -117c118 -4 184 -59 184 -152c0 -118 -102 -200 -250 -200
c-50 0 -111 10 -158 27l18 108c32 -12 100 -22 139 -22c73 0 115 25 115 72c0 50 -47 74 -139 74h-54l5 84l66 126c-224 26 -358 178 -358 414c0 40 4 81 15 154z" />
    <glyph glyph-name="eogonek" unicode="&#x119;" 
d="M864 -423c-126 0 -222 84 -222 194c0 87 47 154 160 226l-3 12c-30 -16 -72 -27 -108 -27c-255 -2 -417 160 -417 416c0 39 4 81 15 154l21 136c40 257 229 417 496 417c259 0 432 -183 406 -429c0 -12 -9 -82 -10 -91l-12 -87h-741c-2 -7 -8 -67 -8 -71
c-18 -181 90 -300 269 -300c133 0 254 66 278 153h166c-20 -101 -63 -158 -175 -241c-138 -102 -177 -150 -177 -226c0 -63 55 -108 130 -108c19 0 40 2 53 4l-20 -119c-26 -9 -61 -13 -101 -13zM793 959c-162 0 -282 -99 -313 -260c-1 -4 -13 -67 -14 -72h577
c0 4 5 41 5 47c20 167 -85 285 -255 285z" />
    <glyph glyph-name="f" unicode="f" 
d="M473 0l166 937h-291l25 145h291l20 109c36 216 183 317 450 317c60 0 197 -9 250 -23l-24 -142c-48 12 -190 23 -247 23c-153 0 -241 -58 -261 -172l-20 -112h478l-24 -145h-477l-166 -937h-170z" />
    <glyph glyph-name="fdotaccent" unicode="&#x1e1f;" 
d="M473 0l166 937h-291l25 145h291l20 109c36 216 183 317 450 317c60 0 197 -9 250 -23l-24 -142c-48 12 -190 23 -247 23c-153 0 -241 -58 -261 -172l-20 -112h478l-24 -145h-477l-166 -937h-170zM428 1299c-68 0 -126 59 -126 129s58 128 126 128s126 -58 126 -128
s-58 -129 -126 -129z" />
    <glyph glyph-name="g" unicode="g" 
d="M1261 1085l-189 -1078c-48 -272 -218 -414 -500 -414c-242 0 -417 131 -417 312v18h168v-13c2 -100 114 -175 263 -175c179 0 285 95 320 284l32 182h-12c-49 -119 -176 -197 -325 -197c-218 0 -377 170 -377 405c0 44 6 108 13 148l21 122c45 261 217 424 447 424
c181 0 304 -86 336 -237h12l38 219h170zM975 448l22 128c6 34 9 67 9 90c0 166 -113 282 -276 282c-154 0 -271 -114 -305 -298l-17 -95c-6 -35 -11 -86 -11 -111c0 -176 104 -285 270 -285c152 0 277 117 308 289z" />
    <glyph glyph-name="gacute" unicode="&#x1f5;" 
d="M975 448l22 128c6 34 9 67 9 90c0 166 -113 282 -276 282c-154 0 -271 -114 -305 -298l-17 -95c-6 -35 -11 -86 -11 -111c0 -176 104 -285 270 -285c152 0 277 117 308 289zM1261 1085l-189 -1078c-48 -272 -218 -414 -500 -414c-242 0 -417 131 -417 312v18h168v-13
c2 -100 114 -175 263 -175c179 0 285 95 320 284l32 182h-12c-49 -119 -176 -197 -325 -197c-218 0 -377 170 -377 405c0 44 6 108 13 148l21 122c45 261 217 424 447 424c181 0 304 -86 336 -237h12l38 219h170zM849 1296h-186l298 339h212z" />
    <glyph glyph-name="gcaron" unicode="&#x1e7;" 
d="M883 1296h-201l-214 342h187l132 -227h15l212 227h202zM1261 1085l-189 -1078c-48 -272 -218 -414 -500 -414c-242 0 -417 131 -417 312v18h168v-13c2 -100 114 -175 263 -175c179 0 285 95 320 284l32 182h-12c-49 -119 -176 -197 -325 -197c-218 0 -377 170 -377 405
c0 44 6 108 13 148l21 122c45 261 217 424 447 424c181 0 304 -86 336 -237h12l38 219h170zM975 448l22 128c6 34 9 67 9 90c0 166 -113 282 -276 282c-154 0 -271 -114 -305 -298l-17 -95c-6 -35 -11 -86 -11 -111c0 -176 104 -285 270 -285c152 0 277 117 308 289z" />
    <glyph glyph-name="gcircumflex" unicode="&#x11d;" 
d="M745 1623h201l214 -341h-187l-132 226h-15l-212 -226h-202zM1261 1085l-189 -1078c-48 -272 -218 -414 -500 -414c-242 0 -417 131 -417 312v18h168v-13c2 -100 114 -175 263 -175c179 0 285 95 320 284l32 182h-12c-49 -119 -176 -197 -325 -197
c-218 0 -377 170 -377 405c0 44 6 108 13 148l21 122c45 261 217 424 447 424c181 0 304 -86 336 -237h12l38 219h170zM975 448l22 128c6 34 9 67 9 90c0 166 -113 282 -276 282c-154 0 -271 -114 -305 -298l-17 -95c-6 -35 -11 -86 -11 -111c0 -176 104 -285 270 -285
c152 0 277 117 308 289z" />
    <glyph glyph-name="gbreve" unicode="&#x11f;" 
d="M1052 1579h143c-29 -199 -185 -330 -393 -330c-205 0 -348 150 -315 330h139c-16 -119 62 -199 192 -199c120 0 217 81 234 199zM1261 1085l-189 -1078c-48 -272 -218 -414 -500 -414c-242 0 -417 131 -417 312v18h168v-13c2 -100 114 -175 263 -175
c179 0 285 95 320 284l32 182h-12c-49 -119 -176 -197 -325 -197c-218 0 -377 170 -377 405c0 44 6 108 13 148l21 122c45 261 217 424 447 424c181 0 304 -86 336 -237h12l38 219h170zM975 448l22 128c6 34 9 67 9 90c0 166 -113 282 -276 282c-154 0 -271 -114 -305 -298
l-17 -95c-6 -35 -11 -86 -11 -111c0 -176 104 -285 270 -285c152 0 277 117 308 289z" />
    <glyph glyph-name="gmacron" unicode="&#x1e21;" 
d="M1131 1370h-660l24 139h660zM1261 1085l-189 -1078c-48 -272 -218 -414 -500 -414c-242 0 -417 131 -417 312v18h168v-13c2 -100 114 -175 263 -175c179 0 285 95 320 284l32 182h-12c-49 -119 -176 -197 -325 -197c-218 0 -377 170 -377 405c0 44 6 108 13 148l21 122
c45 261 217 424 447 424c181 0 304 -86 336 -237h12l38 219h170zM975 448l22 128c6 34 9 67 9 90c0 166 -113 282 -276 282c-154 0 -271 -114 -305 -298l-17 -95c-6 -35 -11 -86 -11 -111c0 -176 104 -285 270 -285c152 0 277 117 308 289z" />
    <glyph glyph-name="gdotaccent" unicode="&#x121;" 
d="M811 1299c-68 0 -126 59 -126 129s58 128 126 128c67 0 126 -58 126 -128s-59 -129 -126 -129zM1261 1085l-189 -1078c-48 -272 -218 -414 -500 -414c-242 0 -417 131 -417 312v18h168v-13c2 -100 114 -175 263 -175c179 0 285 95 320 284l32 182h-12
c-49 -119 -176 -197 -325 -197c-218 0 -377 170 -377 405c0 44 6 108 13 148l21 122c45 261 217 424 447 424c181 0 304 -86 336 -237h12l38 219h170zM975 448l22 128c6 34 9 67 9 90c0 166 -113 282 -276 282c-154 0 -271 -114 -305 -298l-17 -95c-6 -35 -11 -86 -11 -111
c0 -176 104 -285 270 -285c152 0 277 117 308 289z" />
    <glyph glyph-name="gcommaaccent" unicode="&#x123;" 
d="M874 1261h-157l120 361h177zM1261 1085l-189 -1078c-48 -272 -218 -414 -500 -414c-242 0 -417 131 -417 312v18h168v-13c2 -100 114 -175 263 -175c179 0 285 95 320 284l32 182h-12c-49 -119 -176 -197 -325 -197c-218 0 -377 170 -377 405c0 44 6 108 13 148l21 122
c45 261 217 424 447 424c181 0 304 -86 336 -237h12l38 219h170zM975 448l22 128c6 34 9 67 9 90c0 166 -113 282 -276 282c-154 0 -271 -114 -305 -298l-17 -95c-6 -35 -11 -86 -11 -111c0 -176 104 -285 270 -285c152 0 277 117 308 289z" />
    <glyph glyph-name="h" unicode="h" 
d="M188 0l267 1511h163l-108 -612h11c58 127 184 205 337 205c205 0 344 -137 344 -344c0 -35 -5 -76 -17 -148l-107 -612h-170l108 609c7 41 12 81 12 110c0 137 -92 229 -233 229c-161 0 -290 -119 -324 -307l-113 -641h-170z" />
    <glyph glyph-name="hdieresis" unicode="&#x1e27;" 
d="M188 0l267 1511h163l-108 -612h11c58 127 184 205 337 205c205 0 344 -137 344 -344c0 -35 -5 -76 -17 -148l-107 -612h-170l108 609c7 41 12 81 12 110c0 137 -92 229 -233 229c-161 0 -290 -119 -324 -307l-113 -641h-170zM393 1720c-62 0 -117 55 -117 121
c0 65 55 121 117 121s117 -56 117 -121c0 -66 -55 -121 -117 -121zM797 1720c-63 0 -118 55 -118 121c0 65 55 121 118 121c62 0 117 -56 117 -121c0 -66 -55 -121 -117 -121z" />
    <glyph glyph-name="hcaron" unicode="&#x21f;" 
d="M188 0l267 1511h163l-108 -612h11c58 127 184 205 337 205c205 0 344 -137 344 -344c0 -35 -5 -76 -17 -148l-107 -612h-170l108 609c7 41 12 81 12 110c0 137 -92 229 -233 229c-161 0 -290 -119 -324 -307l-113 -641h-170zM487 1678l-232 309h170l144 -199h13l216 199
h190l-341 -309h-160z" />
    <glyph glyph-name="hcircumflex" unicode="&#x125;" 
d="M188 0l267 1511h163l-108 -612h11c58 127 184 205 337 205c205 0 344 -137 344 -344c0 -35 -5 -76 -17 -148l-107 -612h-170l108 609c7 41 12 81 12 110c0 137 -92 229 -233 229c-161 0 -290 -119 -324 -307l-113 -641h-170zM705 1989l232 -309h-170l-144 200h-13
l-216 -200h-189l340 309h160z" />
    <glyph glyph-name="hdotbelow" unicode="&#x1e25;" 
d="M188 0l267 1511h163l-108 -612h11c58 127 184 205 337 205c205 0 344 -137 344 -344c0 -35 -5 -76 -17 -148l-107 -612h-170l108 609c7 41 12 81 12 110c0 137 -92 229 -233 229c-161 0 -290 -119 -324 -307l-113 -641h-170zM576 -451c-68 0 -126 58 -126 128
s58 129 126 129s126 -59 126 -129s-58 -128 -126 -128z" />
    <glyph glyph-name="hdotaccent" unicode="&#x1e23;" 
d="M188 0l267 1511h163l-108 -612h11c58 127 184 205 337 205c205 0 344 -137 344 -344c0 -35 -5 -76 -17 -148l-107 -612h-170l108 609c7 41 12 81 12 110c0 137 -92 229 -233 229c-161 0 -290 -119 -324 -307l-113 -641h-170zM1020 1299c-68 0 -126 59 -126 129
s58 128 126 128s126 -58 126 -128s-58 -129 -126 -129z" />
    <glyph glyph-name="hbrevebelow" unicode="&#x1e2b;" 
d="M188 0l267 1511h163l-108 -612h11c58 127 184 205 337 205c205 0 344 -137 344 -344c0 -35 -5 -76 -17 -148l-107 -612h-170l108 609c7 41 12 81 12 110c0 137 -92 229 -233 229c-161 0 -290 -119 -324 -307l-113 -641h-170zM585 -470c-204 0 -347 150 -314 330h138
c-15 -119 63 -200 192 -200c121 0 217 81 235 200h143c-30 -199 -185 -330 -394 -330z" />
    <glyph glyph-name="hcedilla" unicode="&#x1e29;" 
d="M216 -1l-28 1l267 1511h163l-108 -612h11c58 128 185 205 337 205c205 0 344 -138 344 -344c0 -34 -4 -73 -17 -148l-107 -612h-169l107 609c8 44 12 81 12 110c0 138 -92 229 -233 229c-162 0 -290 -122 -324 -307l-112 -641l-32 -135c95 -17 147 -70 147 -150
c0 -116 -105 -200 -250 -200c-50 0 -110 10 -158 27l19 108c34 -12 102 -22 138 -22c75 0 115 25 115 72c0 51 -46 75 -141 75h-29l16 91z" />
    <glyph glyph-name="hbar" unicode="&#x127;" 
d="M510 899h11c58 127 184 205 337 205c205 0 344 -137 344 -344c0 -35 -5 -76 -17 -148l-107 -612h-170l108 609c7 41 12 81 12 110c0 137 -92 229 -233 229c-161 0 -290 -119 -324 -307l-113 -641h-170l225 1272h-163l19 112h164l22 127h163l-22 -127h252l-19 -112h-253z
" />
    <glyph glyph-name="hlinebelow" unicode="&#x1e96;" 
d="M188 0l267 1511h163l-108 -612h11c58 127 184 205 337 205c205 0 344 -137 344 -344c0 -35 -5 -76 -17 -148l-107 -612h-170l108 609c7 41 12 81 12 110c0 137 -92 229 -233 229c-161 0 -290 -119 -324 -307l-113 -641h-170zM894 -395h-660l24 139h660z" />
    <glyph glyph-name="i" unicode="i" 
d="M914 1351c-80 0 -141 60 -141 140c0 79 61 139 141 139s141 -60 141 -139c0 -80 -61 -140 -141 -140zM1107 0h-899l24 141h372l143 803h-368l23 141h537l-168 -944h360z" />
    <glyph glyph-name="idotaccent" 
d="M1107 0h-899l24 141h372l143 803h-368l23 141h537l-168 -944h360zM916 1299c-68 0 -126 59 -126 129s58 128 126 128s126 -58 126 -128s-58 -129 -126 -129z" />
    <glyph glyph-name="igrave" unicode="&#xec;" 
d="M1107 0h-899l24 141h372l143 803h-368l23 141h537l-168 -944h360zM1014 1296h-176l-206 339h202z" />
    <glyph glyph-name="idblgrave" unicode="&#x209;" 
d="M976 1635l168 -339h-165l-190 339h187zM595 1635l168 -339h-165l-191 339h188zM1107 0h-899l24 141h372l143 803h-368l23 141h537l-168 -944h360z" />
    <glyph glyph-name="iacute" unicode="&#xed;" 
d="M954 1296h-186l298 339h212zM1107 0h-899l24 141h372l143 803h-368l23 141h537l-168 -944h360z" />
    <glyph glyph-name="icircumflex" unicode="&#xee;" 
d="M1107 0h-899l24 141h372l143 803h-368l23 141h537l-168 -944h360zM851 1623h200l214 -341h-186l-133 226h-15l-212 -226h-202z" />
    </font>
</defs>
</svg>
